<svg width="339" height="69" viewBox="0 0 339 69" fill="none" xmlns="http://www.w3.org/2000/svg">
<path d="M7.552 11.744L5.752 7.08C5.69867 6.94133 5.64267 6.78133 5.584 6.6C5.52533 6.41333 5.46933 6.216 5.416 6.008C5.304 6.44 5.18933 6.8 5.072 7.088L3.272 11.744H7.552ZM10.784 16H9.584C9.44533 16 9.33333 15.9653 9.248 15.896C9.16267 15.8267 9.09867 15.7387 9.056 15.632L7.984 12.864H2.84L1.768 15.632C1.736 15.728 1.67467 15.8133 1.584 15.888C1.49333 15.9627 1.38133 16 1.248 16H0.048L4.632 4.536H6.2L10.784 16ZM15.1001 12.04C15.3881 12.04 15.6415 12 15.8601 11.92C16.0788 11.84 16.2628 11.728 16.4121 11.584C16.5615 11.44 16.6735 11.2693 16.7481 11.072C16.8228 10.8693 16.8601 10.648 16.8601 10.408C16.8601 9.912 16.7081 9.51733 16.4041 9.224C16.1055 8.93067 15.6708 8.784 15.1001 8.784C14.5241 8.784 14.0841 8.93067 13.7801 9.224C13.4815 9.51733 13.3321 9.912 13.3321 10.408C13.3321 10.648 13.3695 10.8693 13.4441 11.072C13.5241 11.2693 13.6388 11.44 13.7881 11.584C13.9375 11.728 14.1215 11.84 14.3401 11.92C14.5588 12 14.8121 12.04 15.1001 12.04ZM17.6681 16.44C17.6681 16.2427 17.6121 16.0827 17.5001 15.96C17.3881 15.8373 17.2361 15.7413 17.0441 15.672C16.8575 15.6027 16.6388 15.5547 16.3881 15.528C16.1375 15.496 15.8708 15.472 15.5881 15.456C15.3108 15.44 15.0281 15.424 14.7401 15.408C14.4521 15.392 14.1748 15.3653 13.9081 15.328C13.6095 15.4667 13.3641 15.6427 13.1721 15.856C12.9855 16.064 12.8921 16.3093 12.8921 16.592C12.8921 16.7733 12.9375 16.9413 13.0281 17.096C13.1241 17.256 13.2681 17.392 13.4601 17.504C13.6521 17.6213 13.8921 17.712 14.1801 17.776C14.4735 17.8453 14.8175 17.88 15.2121 17.88C15.5961 17.88 15.9401 17.8453 16.2441 17.776C16.5481 17.7067 16.8041 17.608 17.0121 17.48C17.2255 17.352 17.3881 17.2 17.5001 17.024C17.6121 16.848 17.6681 16.6533 17.6681 16.44ZM19.1161 8.216V8.744C19.1161 8.92 19.0041 9.032 18.7801 9.08L17.8601 9.2C18.0415 9.552 18.1321 9.94133 18.1321 10.368C18.1321 10.7627 18.0548 11.1227 17.9001 11.448C17.7508 11.768 17.5428 12.0427 17.2761 12.272C17.0095 12.5013 16.6895 12.6773 16.3161 12.8C15.9428 12.9227 15.5375 12.984 15.1001 12.984C14.7215 12.984 14.3641 12.9387 14.0281 12.848C13.8575 12.9547 13.7268 13.0693 13.6361 13.192C13.5455 13.3093 13.5001 13.4293 13.5001 13.552C13.5001 13.744 13.5775 13.8907 13.7321 13.992C13.8921 14.088 14.1001 14.1573 14.3561 14.2C14.6121 14.2427 14.9028 14.2693 15.2281 14.28C15.5588 14.2907 15.8948 14.3093 16.2361 14.336C16.5828 14.3573 16.9188 14.3973 17.2441 14.456C17.5748 14.5147 17.8681 14.6107 18.1241 14.744C18.3801 14.8773 18.5855 15.0613 18.7401 15.296C18.9001 15.5307 18.9801 15.8347 18.9801 16.208C18.9801 16.5547 18.8921 16.8907 18.7161 17.216C18.5455 17.5413 18.2975 17.8293 17.9721 18.08C17.6468 18.336 17.2468 18.5387 16.7721 18.688C16.3028 18.8427 15.7721 18.92 15.1801 18.92C14.5881 18.92 14.0708 18.8613 13.6281 18.744C13.1855 18.6267 12.8175 18.4693 12.5241 18.272C12.2308 18.0747 12.0095 17.8453 11.8601 17.584C11.7161 17.328 11.6441 17.0587 11.6441 16.776C11.6441 16.376 11.7695 16.0373 12.0201 15.76C12.2708 15.4827 12.6148 15.2613 13.0521 15.096C12.8121 14.9893 12.6201 14.848 12.4761 14.672C12.3375 14.4907 12.2681 14.248 12.2681 13.944C12.2681 13.8267 12.2895 13.7067 12.3321 13.584C12.3748 13.456 12.4388 13.3307 12.5241 13.208C12.6148 13.08 12.7241 12.96 12.8521 12.848C12.9801 12.736 13.1295 12.6373 13.3001 12.552C12.9001 12.328 12.5881 12.032 12.3641 11.664C12.1401 11.2907 12.0281 10.8587 12.0281 10.368C12.0281 9.97333 12.1028 9.616 12.2521 9.296C12.4068 8.97067 12.6201 8.696 12.8921 8.472C13.1641 8.24267 13.4868 8.06667 13.8601 7.944C14.2388 7.82133 14.6521 7.76 15.1001 7.76C15.4521 7.76 15.7801 7.8 16.0841 7.88C16.3881 7.95467 16.6655 8.06667 16.9161 8.216H19.1161ZM26.2076 11.064C26.2076 10.7333 26.1596 10.432 26.0636 10.16C25.973 9.88267 25.837 9.64533 25.6556 9.448C25.4796 9.24533 25.2636 9.09067 25.0076 8.984C24.7516 8.872 24.461 8.816 24.1356 8.816C23.453 8.816 22.9116 9.016 22.5116 9.416C22.117 9.81067 21.8716 10.36 21.7756 11.064H26.2076ZM27.3596 14.864C27.1836 15.0773 26.973 15.264 26.7276 15.424C26.4823 15.5787 26.2183 15.7067 25.9356 15.808C25.6583 15.9093 25.3703 15.984 25.0716 16.032C24.773 16.0853 24.477 16.112 24.1836 16.112C23.6236 16.112 23.1063 16.0187 22.6316 15.832C22.1623 15.64 21.7543 15.3627 21.4076 15C21.0663 14.632 20.7996 14.1787 20.6076 13.64C20.4156 13.1013 20.3196 12.4827 20.3196 11.784C20.3196 11.2187 20.405 10.6907 20.5756 10.2C20.7516 9.70933 21.0023 9.28533 21.3276 8.928C21.653 8.56533 22.0503 8.28267 22.5196 8.08C22.989 7.872 23.517 7.768 24.1036 7.768C24.589 7.768 25.037 7.85067 25.4476 8.016C25.8636 8.176 26.221 8.41067 26.5196 8.72C26.8236 9.024 27.061 9.40267 27.2316 9.856C27.4023 10.304 27.4876 10.816 27.4876 11.392C27.4876 11.616 27.4636 11.7653 27.4156 11.84C27.3676 11.9147 27.277 11.952 27.1436 11.952H21.7276C21.7436 12.464 21.813 12.9093 21.9356 13.288C22.0636 13.6667 22.2396 13.984 22.4636 14.24C22.6876 14.4907 22.9543 14.68 23.2636 14.808C23.573 14.9307 23.9196 14.992 24.3036 14.992C24.661 14.992 24.9676 14.952 25.2236 14.872C25.485 14.7867 25.709 14.696 25.8956 14.6C26.0823 14.504 26.237 14.416 26.3596 14.336C26.4876 14.2507 26.597 14.208 26.6876 14.208C26.805 14.208 26.8956 14.2533 26.9596 14.344L27.3596 14.864ZM37.4825 10.088C37.9305 10.088 38.3252 10.0347 38.6665 9.928C39.0132 9.816 39.3012 9.66133 39.5305 9.464C39.7652 9.26133 39.9412 9.02133 40.0585 8.744C40.1758 8.46667 40.2345 8.16 40.2345 7.824C40.2345 7.14133 40.0105 6.62667 39.5625 6.28C39.1145 5.93333 38.4425 5.76 37.5465 5.76H35.8505V10.088H37.4825ZM42.7785 16H41.4025C41.1198 16 40.9118 15.8907 40.7785 15.672L37.8025 11.576C37.7118 11.448 37.6132 11.3573 37.5065 11.304C37.4052 11.2453 37.2452 11.216 37.0265 11.216H35.8505V16H34.3065V4.536H37.5465C38.2718 4.536 38.8985 4.61067 39.4265 4.76C39.9545 4.904 40.3892 5.11467 40.7305 5.392C41.0772 5.66933 41.3332 6.00533 41.4985 6.4C41.6638 6.78933 41.7465 7.22667 41.7465 7.712C41.7465 8.11733 41.6825 8.496 41.5545 8.848C41.4265 9.2 41.2398 9.51733 40.9945 9.8C40.7545 10.0773 40.4585 10.3147 40.1065 10.512C39.7598 10.7093 39.3652 10.8587 38.9225 10.96C39.1198 11.072 39.2905 11.2347 39.4345 11.448L42.7785 16ZM48.5887 12.352C47.9327 12.3733 47.3727 12.4267 46.9087 12.512C46.4501 12.592 46.0741 12.6987 45.7807 12.832C45.4927 12.9653 45.2821 13.1227 45.1487 13.304C45.0207 13.4853 44.9567 13.688 44.9567 13.912C44.9567 14.1253 44.9914 14.3093 45.0607 14.464C45.1301 14.6187 45.2234 14.7467 45.3407 14.848C45.4634 14.944 45.6047 15.016 45.7647 15.064C45.9301 15.1067 46.1061 15.128 46.2927 15.128C46.5434 15.128 46.7727 15.104 46.9807 15.056C47.1887 15.0027 47.3834 14.928 47.5647 14.832C47.7514 14.736 47.9274 14.6213 48.0927 14.488C48.2634 14.3547 48.4287 14.2027 48.5887 14.032V12.352ZM43.9887 9.04C44.4367 8.608 44.9194 8.28533 45.4367 8.072C45.9541 7.85867 46.5274 7.752 47.1567 7.752C47.6101 7.752 48.0127 7.82667 48.3647 7.976C48.7167 8.12533 49.0127 8.33333 49.2527 8.6C49.4927 8.86667 49.6741 9.18933 49.7967 9.568C49.9194 9.94667 49.9807 10.3627 49.9807 10.816V16H49.3487C49.2101 16 49.1034 15.9787 49.0287 15.936C48.9541 15.888 48.8954 15.7973 48.8527 15.664L48.6927 14.896C48.4794 15.0933 48.2714 15.2693 48.0687 15.424C47.8661 15.5733 47.6527 15.7013 47.4287 15.808C47.2047 15.9093 46.9647 15.9867 46.7087 16.04C46.4581 16.0987 46.1781 16.128 45.8687 16.128C45.5541 16.128 45.2581 16.0853 44.9807 16C44.7034 15.9093 44.4607 15.776 44.2527 15.6C44.0501 15.424 43.8874 15.2027 43.7647 14.936C43.6474 14.664 43.5887 14.344 43.5887 13.976C43.5887 13.656 43.6767 13.3493 43.8527 13.056C44.0287 12.7573 44.3141 12.4933 44.7087 12.264C45.1034 12.0347 45.6181 11.848 46.2527 11.704C46.8874 11.5547 47.6661 11.4693 48.5887 11.448V10.816C48.5887 10.1867 48.4527 9.712 48.1807 9.392C47.9087 9.06667 47.5114 8.904 46.9887 8.904C46.6367 8.904 46.3407 8.94933 46.1007 9.04C45.8661 9.12533 45.6607 9.224 45.4847 9.336C45.3141 9.44267 45.1647 9.54133 45.0367 9.632C44.9141 9.71733 44.7914 9.76 44.6687 9.76C44.5727 9.76 44.4901 9.736 44.4207 9.688C44.3514 9.63467 44.2927 9.57067 44.2447 9.496L43.9887 9.04ZM53.8139 9.072C53.9899 8.87467 54.1765 8.696 54.3739 8.536C54.5712 8.376 54.7792 8.24 54.9979 8.128C55.2219 8.01067 55.4565 7.92267 55.7019 7.864C55.9525 7.8 56.2219 7.768 56.5099 7.768C56.9525 7.768 57.3419 7.84267 57.6779 7.992C58.0192 8.136 58.3019 8.344 58.5259 8.616C58.7552 8.88267 58.9285 9.20533 59.0459 9.584C59.1632 9.96267 59.2219 10.3813 59.2219 10.84V16H57.7899V10.84C57.7899 10.2267 57.6485 9.752 57.3659 9.416C57.0885 9.07467 56.6645 8.904 56.0939 8.904C55.6725 8.904 55.2779 9.00533 54.9099 9.208C54.5472 9.41067 54.2112 9.68533 53.9019 10.032V16H52.4699V7.896H53.3259C53.5285 7.896 53.6539 7.99467 53.7019 8.192L53.8139 9.072ZM64.5358 12.04C64.8238 12.04 65.0771 12 65.2958 11.92C65.5144 11.84 65.6984 11.728 65.8478 11.584C65.9971 11.44 66.1091 11.2693 66.1838 11.072C66.2584 10.8693 66.2958 10.648 66.2958 10.408C66.2958 9.912 66.1438 9.51733 65.8398 9.224C65.5411 8.93067 65.1064 8.784 64.5358 8.784C63.9598 8.784 63.5198 8.93067 63.2158 9.224C62.9171 9.51733 62.7678 9.912 62.7678 10.408C62.7678 10.648 62.8051 10.8693 62.8798 11.072C62.9598 11.2693 63.0744 11.44 63.2238 11.584C63.3731 11.728 63.5571 11.84 63.7758 11.92C63.9944 12 64.2478 12.04 64.5358 12.04ZM67.1038 16.44C67.1038 16.2427 67.0478 16.0827 66.9358 15.96C66.8238 15.8373 66.6718 15.7413 66.4798 15.672C66.2931 15.6027 66.0744 15.5547 65.8238 15.528C65.5731 15.496 65.3064 15.472 65.0238 15.456C64.7464 15.44 64.4638 15.424 64.1758 15.408C63.8878 15.392 63.6104 15.3653 63.3438 15.328C63.0451 15.4667 62.7998 15.6427 62.6078 15.856C62.4211 16.064 62.3278 16.3093 62.3278 16.592C62.3278 16.7733 62.3731 16.9413 62.4638 17.096C62.5598 17.256 62.7038 17.392 62.8958 17.504C63.0878 17.6213 63.3278 17.712 63.6158 17.776C63.9091 17.8453 64.2531 17.88 64.6478 17.88C65.0318 17.88 65.3758 17.8453 65.6798 17.776C65.9838 17.7067 66.2398 17.608 66.4478 17.48C66.6611 17.352 66.8238 17.2 66.9358 17.024C67.0478 16.848 67.1038 16.6533 67.1038 16.44ZM68.5518 8.216V8.744C68.5518 8.92 68.4398 9.032 68.2158 9.08L67.2958 9.2C67.4771 9.552 67.5678 9.94133 67.5678 10.368C67.5678 10.7627 67.4904 11.1227 67.3358 11.448C67.1864 11.768 66.9784 12.0427 66.7118 12.272C66.4451 12.5013 66.1251 12.6773 65.7518 12.8C65.3784 12.9227 64.9731 12.984 64.5358 12.984C64.1571 12.984 63.7998 12.9387 63.4638 12.848C63.2931 12.9547 63.1624 13.0693 63.0718 13.192C62.9811 13.3093 62.9358 13.4293 62.9358 13.552C62.9358 13.744 63.0131 13.8907 63.1678 13.992C63.3278 14.088 63.5358 14.1573 63.7918 14.2C64.0478 14.2427 64.3384 14.2693 64.6638 14.28C64.9944 14.2907 65.3304 14.3093 65.6718 14.336C66.0184 14.3573 66.3544 14.3973 66.6798 14.456C67.0104 14.5147 67.3038 14.6107 67.5598 14.744C67.8158 14.8773 68.0211 15.0613 68.1758 15.296C68.3358 15.5307 68.4158 15.8347 68.4158 16.208C68.4158 16.5547 68.3278 16.8907 68.1518 17.216C67.9811 17.5413 67.7331 17.8293 67.4078 18.08C67.0824 18.336 66.6824 18.5387 66.2078 18.688C65.7384 18.8427 65.2078 18.92 64.6158 18.92C64.0238 18.92 63.5064 18.8613 63.0638 18.744C62.6211 18.6267 62.2531 18.4693 61.9598 18.272C61.6664 18.0747 61.4451 17.8453 61.2958 17.584C61.1518 17.328 61.0798 17.0587 61.0798 16.776C61.0798 16.376 61.2051 16.0373 61.4558 15.76C61.7064 15.4827 62.0504 15.2613 62.4878 15.096C62.2478 14.9893 62.0558 14.848 61.9118 14.672C61.7731 14.4907 61.7038 14.248 61.7038 13.944C61.7038 13.8267 61.7251 13.7067 61.7678 13.584C61.8104 13.456 61.8744 13.3307 61.9598 13.208C62.0504 13.08 62.1598 12.96 62.2878 12.848C62.4158 12.736 62.5651 12.6373 62.7358 12.552C62.3358 12.328 62.0238 12.032 61.7998 11.664C61.5758 11.2907 61.4638 10.8587 61.4638 10.368C61.4638 9.97333 61.5384 9.616 61.6878 9.296C61.8424 8.97067 62.0558 8.696 62.3278 8.472C62.5998 8.24267 62.9224 8.06667 63.2958 7.944C63.6744 7.82133 64.0878 7.76 64.5358 7.76C64.8878 7.76 65.2158 7.8 65.5198 7.88C65.8238 7.95467 66.1011 8.06667 66.3518 8.216H68.5518ZM75.6432 11.064C75.6432 10.7333 75.5952 10.432 75.4992 10.16C75.4086 9.88267 75.2726 9.64533 75.0912 9.448C74.9152 9.24533 74.6992 9.09067 74.4432 8.984C74.1872 8.872 73.8966 8.816 73.5712 8.816C72.8886 8.816 72.3472 9.016 71.9472 9.416C71.5526 9.81067 71.3072 10.36 71.2112 11.064H75.6432ZM76.7952 14.864C76.6192 15.0773 76.4086 15.264 76.1632 15.424C75.9179 15.5787 75.6539 15.7067 75.3712 15.808C75.0939 15.9093 74.8059 15.984 74.5072 16.032C74.2086 16.0853 73.9126 16.112 73.6192 16.112C73.0592 16.112 72.5419 16.0187 72.0672 15.832C71.5979 15.64 71.1899 15.3627 70.8432 15C70.5019 14.632 70.2352 14.1787 70.0432 13.64C69.8512 13.1013 69.7552 12.4827 69.7552 11.784C69.7552 11.2187 69.8406 10.6907 70.0112 10.2C70.1872 9.70933 70.4379 9.28533 70.7632 8.928C71.0886 8.56533 71.4859 8.28267 71.9552 8.08C72.4246 7.872 72.9526 7.768 73.5392 7.768C74.0246 7.768 74.4726 7.85067 74.8832 8.016C75.2992 8.176 75.6566 8.41067 75.9552 8.72C76.2592 9.024 76.4966 9.40267 76.6672 9.856C76.8379 10.304 76.9232 10.816 76.9232 11.392C76.9232 11.616 76.8992 11.7653 76.8512 11.84C76.8032 11.9147 76.7126 11.952 76.5792 11.952H71.1632C71.1792 12.464 71.2486 12.9093 71.3712 13.288C71.4992 13.6667 71.6752 13.984 71.8992 14.24C72.1232 14.4907 72.3899 14.68 72.6992 14.808C73.0086 14.9307 73.3552 14.992 73.7392 14.992C74.0966 14.992 74.4032 14.952 74.6592 14.872C74.9206 14.7867 75.1446 14.696 75.3312 14.6C75.5179 14.504 75.6726 14.416 75.7952 14.336C75.9232 14.2507 76.0326 14.208 76.1232 14.208C76.2406 14.208 76.3312 14.2533 76.3952 14.344L76.7952 14.864Z" fill="#8686A1"/>
<circle cx="15" cy="54" r="14.5" stroke="#DDD3C9"/>
<path d="M50.176 59.308V60.5H43.968V59.308H46.4V51.78C46.4 51.54 46.408 51.292 46.424 51.036L44.472 52.692C44.3973 52.7507 44.3227 52.788 44.248 52.804C44.1733 52.82 44.1013 52.8227 44.032 52.812C43.968 52.8013 43.9093 52.78 43.856 52.748C43.808 52.7107 43.768 52.6733 43.736 52.636L43.248 51.956L46.688 48.988H47.96V59.308H50.176ZM56.2413 59.388C56.6039 59.388 56.9266 59.3373 57.2092 59.236C57.4919 59.1347 57.7319 58.9933 57.9292 58.812C58.1266 58.6253 58.2759 58.404 58.3773 58.148C58.4786 57.892 58.5293 57.612 58.5293 57.308C58.5293 56.9347 58.4679 56.6147 58.3453 56.348C58.2226 56.076 58.0573 55.8547 57.8492 55.684C57.6412 55.508 57.3986 55.38 57.1213 55.3C56.8439 55.2147 56.5506 55.172 56.2413 55.172C55.9266 55.172 55.6306 55.2147 55.3532 55.3C55.0759 55.38 54.8332 55.508 54.6252 55.684C54.4172 55.8547 54.2519 56.076 54.1292 56.348C54.0119 56.6147 53.9532 56.9347 53.9532 57.308C53.9532 57.612 54.0039 57.892 54.1052 58.148C54.2066 58.404 54.3559 58.6253 54.5532 58.812C54.7506 58.9933 54.9906 59.1347 55.2732 59.236C55.5559 59.3373 55.8786 59.388 56.2413 59.388ZM56.2413 50.084C55.9106 50.084 55.6199 50.1347 55.3692 50.236C55.1239 50.332 54.9186 50.4653 54.7532 50.636C54.5879 50.8067 54.4626 51.004 54.3772 51.228C54.2972 51.452 54.2572 51.692 54.2572 51.948C54.2572 52.1987 54.2919 52.444 54.3612 52.684C54.4359 52.9187 54.5506 53.1293 54.7052 53.316C54.8652 53.4973 55.0706 53.644 55.3212 53.756C55.5719 53.868 55.8786 53.924 56.2413 53.924C56.5986 53.924 56.9026 53.868 57.1532 53.756C57.4092 53.644 57.6146 53.4973 57.7692 53.316C57.9293 53.1293 58.0439 52.9187 58.1132 52.684C58.1879 52.444 58.2253 52.1987 58.2253 51.948C58.2253 51.692 58.1826 51.452 58.0972 51.228C58.0173 51.004 57.8946 50.8067 57.7292 50.636C57.5639 50.4653 57.3559 50.332 57.1052 50.236C56.8599 50.1347 56.5719 50.084 56.2413 50.084ZM57.9612 54.508C58.6759 54.7213 59.2172 55.0653 59.5852 55.54C59.9586 56.0147 60.1453 56.6147 60.1453 57.34C60.1453 57.8413 60.0493 58.2947 59.8573 58.7C59.6706 59.1053 59.4039 59.452 59.0573 59.74C58.7159 60.0227 58.3053 60.2413 57.8253 60.396C57.3452 60.5507 56.8172 60.628 56.2413 60.628C55.6652 60.628 55.1372 60.5507 54.6572 60.396C54.1772 60.2413 53.7639 60.0227 53.4172 59.74C53.0759 59.452 52.8092 59.1053 52.6172 58.7C52.4306 58.2947 52.3372 57.8413 52.3372 57.34C52.3372 56.6147 52.5212 56.0147 52.8892 55.54C53.2626 55.0653 53.8066 54.7213 54.5212 54.508C53.9292 54.284 53.4839 53.9507 53.1852 53.508C52.8866 53.06 52.7372 52.5293 52.7372 51.916C52.7372 51.4893 52.8199 51.092 52.9852 50.724C53.1559 50.3507 53.3932 50.028 53.6972 49.756C54.0066 49.484 54.3772 49.2707 54.8092 49.116C55.2412 48.9613 55.7186 48.884 56.2413 48.884C56.7639 48.884 57.2413 48.9613 57.6733 49.116C58.1053 49.2707 58.4732 49.484 58.7772 49.756C59.0866 50.028 59.3239 50.3507 59.4893 50.724C59.6599 51.092 59.7452 51.4893 59.7452 51.916C59.7452 52.5293 59.5959 53.06 59.2973 53.508C58.9986 53.9507 58.5532 54.284 57.9612 54.508ZM62.1785 55.028H66.1785V56.356H62.1785V55.028ZM68.4676 52.14C68.5476 51.6067 68.697 51.1373 68.9156 50.732C69.1343 50.3267 69.409 49.988 69.7396 49.716C70.0703 49.4387 70.449 49.2307 70.8756 49.092C71.3076 48.9533 71.7716 48.884 72.2676 48.884C72.7636 48.884 73.2196 48.956 73.6356 49.1C74.0516 49.2387 74.4063 49.4387 74.6996 49.7C74.9983 49.956 75.2303 50.2653 75.3956 50.628C75.561 50.9907 75.6436 51.3907 75.6436 51.828C75.6436 52.196 75.5983 52.5213 75.5076 52.804C75.417 53.0867 75.2863 53.3347 75.1156 53.548C74.9503 53.7613 74.7476 53.9427 74.5076 54.092C74.2676 54.236 73.9983 54.356 73.6996 54.452C74.4303 54.6547 74.9796 54.9853 75.3476 55.444C75.7156 55.8973 75.8996 56.4733 75.8996 57.172C75.8996 57.7107 75.7983 58.196 75.5956 58.628C75.393 59.0547 75.1156 59.4173 74.7636 59.716C74.4116 60.0093 74.001 60.236 73.5316 60.396C73.0676 60.5507 72.5716 60.628 72.0436 60.628C71.441 60.628 70.9236 60.556 70.4916 60.412C70.0596 60.2627 69.6916 60.0573 69.3876 59.796C69.0836 59.5293 68.8303 59.212 68.6276 58.844C68.4303 58.4707 68.2623 58.0627 68.1236 57.62L68.8036 57.332C68.9796 57.2573 69.1503 57.236 69.3156 57.268C69.481 57.3 69.601 57.3933 69.6756 57.548C69.7556 57.708 69.8463 57.8893 69.9476 58.092C70.0543 58.2893 70.1956 58.4787 70.3716 58.66C70.5476 58.836 70.7663 58.9853 71.0276 59.108C71.2943 59.2307 71.6276 59.292 72.0276 59.292C72.4116 59.292 72.7476 59.2307 73.0356 59.108C73.3236 58.98 73.5636 58.8173 73.7556 58.62C73.9476 58.4173 74.0916 58.1933 74.1876 57.948C74.2836 57.7027 74.3316 57.46 74.3316 57.22C74.3316 56.9213 74.2943 56.6467 74.2196 56.396C74.145 56.1453 74.001 55.932 73.7876 55.756C73.5796 55.5747 73.289 55.4333 72.9156 55.332C72.5423 55.2307 72.057 55.18 71.4596 55.18V54.044C71.9503 54.0387 72.3636 53.988 72.6996 53.892C73.041 53.796 73.3156 53.6627 73.5236 53.492C73.7316 53.3213 73.881 53.1187 73.9716 52.884C74.0676 52.6493 74.1156 52.388 74.1156 52.1C74.1156 51.7853 74.0676 51.5107 73.9716 51.276C73.8756 51.0413 73.7396 50.8467 73.5636 50.692C73.393 50.532 73.1876 50.4147 72.9476 50.34C72.713 50.26 72.457 50.22 72.1796 50.22C71.9023 50.22 71.6463 50.26 71.4116 50.34C71.177 50.42 70.969 50.532 70.7876 50.676C70.6063 50.82 70.4543 50.9907 70.3316 51.188C70.209 51.3853 70.121 51.5987 70.0676 51.828C69.993 52.0307 69.897 52.1667 69.7796 52.236C69.6676 52.3053 69.505 52.3213 69.2916 52.284L68.4676 52.14ZM85.8929 54.756C85.8929 55.7587 85.7835 56.628 85.5649 57.364C85.3515 58.1 85.0555 58.7107 84.6769 59.196C84.3035 59.676 83.8609 60.0333 83.3489 60.268C82.8422 60.5027 82.2955 60.62 81.7089 60.62C81.1222 60.62 80.5729 60.5027 80.0609 60.268C79.5542 60.0333 79.1142 59.676 78.7409 59.196C78.3675 58.7107 78.0742 58.1 77.8609 57.364C77.6475 56.628 77.5409 55.7587 77.5409 54.756C77.5409 53.7533 77.6475 52.884 77.8609 52.148C78.0742 51.4067 78.3675 50.796 78.7409 50.316C79.1142 49.8307 79.5542 49.4707 80.0609 49.236C80.5729 49.0013 81.1222 48.884 81.7089 48.884C82.2955 48.884 82.8422 49.0013 83.3489 49.236C83.8609 49.4707 84.3035 49.8307 84.6769 50.316C85.0555 50.796 85.3515 51.4067 85.5649 52.148C85.7835 52.884 85.8929 53.7533 85.8929 54.756ZM84.2769 54.756C84.2769 53.892 84.2049 53.1693 84.0609 52.588C83.9222 52.0067 83.7329 51.54 83.4929 51.188C83.2582 50.8307 82.9862 50.5773 82.6769 50.428C82.3675 50.2787 82.0449 50.204 81.7089 50.204C81.3729 50.204 81.0502 50.2787 80.7409 50.428C80.4315 50.5773 80.1569 50.8307 79.9169 51.188C79.6822 51.54 79.4955 52.0067 79.3569 52.588C79.2182 53.1693 79.1489 53.892 79.1489 54.756C79.1489 55.62 79.2182 56.3427 79.3569 56.924C79.4955 57.5053 79.6822 57.972 79.9169 58.324C80.1569 58.676 80.4315 58.9267 80.7409 59.076C81.0502 59.2253 81.3729 59.3 81.7089 59.3C82.0449 59.3 82.3675 59.2253 82.6769 59.076C82.9862 58.9267 83.2582 58.676 83.4929 58.324C83.7329 57.972 83.9222 57.5053 84.0609 56.924C84.2049 56.3427 84.2769 55.62 84.2769 54.756Z" fill="#3C3C6F"/>
<circle cx="149" cy="54" r="14.5" stroke="#DDD3C9"/>
<path d="M176.992 52.14C177.072 51.6067 177.221 51.1373 177.44 50.732C177.659 50.3267 177.933 49.988 178.264 49.716C178.595 49.4387 178.973 49.2307 179.4 49.092C179.832 48.9533 180.296 48.884 180.792 48.884C181.288 48.884 181.744 48.956 182.16 49.1C182.576 49.2387 182.931 49.4387 183.224 49.7C183.523 49.956 183.755 50.2653 183.92 50.628C184.085 50.9907 184.168 51.3907 184.168 51.828C184.168 52.196 184.123 52.5213 184.032 52.804C183.941 53.0867 183.811 53.3347 183.64 53.548C183.475 53.7613 183.272 53.9427 183.032 54.092C182.792 54.236 182.523 54.356 182.224 54.452C182.955 54.6547 183.504 54.9853 183.872 55.444C184.24 55.8973 184.424 56.4733 184.424 57.172C184.424 57.7107 184.323 58.196 184.12 58.628C183.917 59.0547 183.64 59.4173 183.288 59.716C182.936 60.0093 182.525 60.236 182.056 60.396C181.592 60.5507 181.096 60.628 180.568 60.628C179.965 60.628 179.448 60.556 179.016 60.412C178.584 60.2627 178.216 60.0573 177.912 59.796C177.608 59.5293 177.355 59.212 177.152 58.844C176.955 58.4707 176.787 58.0627 176.648 57.62L177.328 57.332C177.504 57.2573 177.675 57.236 177.84 57.268C178.005 57.3 178.125 57.3933 178.2 57.548C178.28 57.708 178.371 57.8893 178.472 58.092C178.579 58.2893 178.72 58.4787 178.896 58.66C179.072 58.836 179.291 58.9853 179.552 59.108C179.819 59.2307 180.152 59.292 180.552 59.292C180.936 59.292 181.272 59.2307 181.56 59.108C181.848 58.98 182.088 58.8173 182.28 58.62C182.472 58.4173 182.616 58.1933 182.712 57.948C182.808 57.7027 182.856 57.46 182.856 57.22C182.856 56.9213 182.819 56.6467 182.744 56.396C182.669 56.1453 182.525 55.932 182.312 55.756C182.104 55.5747 181.813 55.4333 181.44 55.332C181.067 55.2307 180.581 55.18 179.984 55.18V54.044C180.475 54.0387 180.888 53.988 181.224 53.892C181.565 53.796 181.84 53.6627 182.048 53.492C182.256 53.3213 182.405 53.1187 182.496 52.884C182.592 52.6493 182.64 52.388 182.64 52.1C182.64 51.7853 182.592 51.5107 182.496 51.276C182.4 51.0413 182.264 50.8467 182.088 50.692C181.917 50.532 181.712 50.4147 181.472 50.34C181.237 50.26 180.981 50.22 180.704 50.22C180.427 50.22 180.171 50.26 179.936 50.34C179.701 50.42 179.493 50.532 179.312 50.676C179.131 50.82 178.979 50.9907 178.856 51.188C178.733 51.3853 178.645 51.5987 178.592 51.828C178.517 52.0307 178.421 52.1667 178.304 52.236C178.192 52.3053 178.029 52.3213 177.816 52.284L176.992 52.14ZM193.777 59.308V60.5H187.569V59.308H190.001V51.78C190.001 51.54 190.009 51.292 190.025 51.036L188.073 52.692C187.999 52.7507 187.924 52.788 187.849 52.804C187.775 52.82 187.703 52.8227 187.633 52.812C187.569 52.8013 187.511 52.78 187.457 52.748C187.409 52.7107 187.369 52.6733 187.337 52.636L186.849 51.956L190.289 48.988H191.561V59.308H193.777ZM196.178 55.028H200.178V56.356H196.178V55.028ZM207.284 56.308V51.828C207.284 51.6733 207.286 51.5107 207.292 51.34C207.302 51.164 207.321 50.9827 207.348 50.796L203.324 56.308H207.284ZM210.316 56.308V57.212C210.316 57.3027 210.286 57.38 210.228 57.444C210.169 57.508 210.086 57.54 209.98 57.54H208.652V60.5H207.284V57.54H202.244C202.126 57.54 202.028 57.508 201.948 57.444C201.868 57.3747 201.814 57.2893 201.788 57.188L201.628 56.388L207.18 49.004H208.652V56.308H210.316ZM212.069 52.14C212.149 51.6067 212.298 51.1373 212.517 50.732C212.736 50.3267 213.01 49.988 213.341 49.716C213.672 49.4387 214.05 49.2307 214.477 49.092C214.909 48.9533 215.373 48.884 215.869 48.884C216.365 48.884 216.821 48.956 217.237 49.1C217.653 49.2387 218.008 49.4387 218.301 49.7C218.6 49.956 218.832 50.2653 218.997 50.628C219.162 50.9907 219.245 51.3907 219.245 51.828C219.245 52.196 219.2 52.5213 219.109 52.804C219.018 53.0867 218.888 53.3347 218.717 53.548C218.552 53.7613 218.349 53.9427 218.109 54.092C217.869 54.236 217.6 54.356 217.301 54.452C218.032 54.6547 218.581 54.9853 218.949 55.444C219.317 55.8973 219.501 56.4733 219.501 57.172C219.501 57.7107 219.4 58.196 219.197 58.628C218.994 59.0547 218.717 59.4173 218.365 59.716C218.013 60.0093 217.602 60.236 217.133 60.396C216.669 60.5507 216.173 60.628 215.645 60.628C215.042 60.628 214.525 60.556 214.093 60.412C213.661 60.2627 213.293 60.0573 212.989 59.796C212.685 59.5293 212.432 59.212 212.229 58.844C212.032 58.4707 211.864 58.0627 211.725 57.62L212.405 57.332C212.581 57.2573 212.752 57.236 212.917 57.268C213.082 57.3 213.202 57.3933 213.277 57.548C213.357 57.708 213.448 57.8893 213.549 58.092C213.656 58.2893 213.797 58.4787 213.973 58.66C214.149 58.836 214.368 58.9853 214.629 59.108C214.896 59.2307 215.229 59.292 215.629 59.292C216.013 59.292 216.349 59.2307 216.637 59.108C216.925 58.98 217.165 58.8173 217.357 58.62C217.549 58.4173 217.693 58.1933 217.789 57.948C217.885 57.7027 217.933 57.46 217.933 57.22C217.933 56.9213 217.896 56.6467 217.821 56.396C217.746 56.1453 217.602 55.932 217.389 55.756C217.181 55.5747 216.89 55.4333 216.517 55.332C216.144 55.2307 215.658 55.18 215.061 55.18V54.044C215.552 54.0387 215.965 53.988 216.301 53.892C216.642 53.796 216.917 53.6627 217.125 53.492C217.333 53.3213 217.482 53.1187 217.573 52.884C217.669 52.6493 217.717 52.388 217.717 52.1C217.717 51.7853 217.669 51.5107 217.573 51.276C217.477 51.0413 217.341 50.8467 217.165 50.692C216.994 50.532 216.789 50.4147 216.549 50.34C216.314 50.26 216.058 50.22 215.781 50.22C215.504 50.22 215.248 50.26 215.013 50.34C214.778 50.42 214.57 50.532 214.389 50.676C214.208 50.82 214.056 50.9907 213.933 51.188C213.81 51.3853 213.722 51.5987 213.669 51.828C213.594 52.0307 213.498 52.1667 213.381 52.236C213.269 52.3053 213.106 52.3213 212.893 52.284L212.069 52.14Z" fill="#3C3C6F"/>
<circle cx="283" cy="54" r="14.5" stroke="#DDD3C9"/>
<path d="M315.808 56.308V51.828C315.808 51.6733 315.811 51.5107 315.816 51.34C315.827 51.164 315.845 50.9827 315.872 50.796L311.848 56.308H315.808ZM318.84 56.308V57.212C318.84 57.3027 318.811 57.38 318.752 57.444C318.693 57.508 318.611 57.54 318.504 57.54H317.176V60.5H315.808V57.54H310.768C310.651 57.54 310.552 57.508 310.472 57.444C310.392 57.3747 310.339 57.2893 310.312 57.188L310.152 56.388L315.704 49.004H317.176V56.308H318.84ZM325.409 56.308V51.828C325.409 51.6733 325.412 51.5107 325.417 51.34C325.428 51.164 325.447 50.9827 325.473 50.796L321.449 56.308H325.409ZM328.441 56.308V57.212C328.441 57.3027 328.412 57.38 328.353 57.444C328.295 57.508 328.212 57.54 328.105 57.54H326.777V60.5H325.409V57.54H320.369C320.252 57.54 320.153 57.508 320.073 57.444C319.993 57.3747 319.94 57.2893 319.913 57.188L319.753 56.388L325.305 49.004H326.777V56.308H328.441ZM337.698 55.724H334.474V59.124H333.202V55.724H329.994V54.54H333.202V51.156H334.474V54.54H337.698V55.724Z" fill="#3C3C6F"/>
</svg>
