<svg width="99" height="23" viewBox="0 0 99 23" fill="none" xmlns="http://www.w3.org/2000/svg">
<path d="M7.424 15.48C8.024 15.48 8.528 15.408 8.936 15.264C9.344 15.12 9.668 14.928 9.908 14.688C10.156 14.448 10.332 14.168 10.436 13.848C10.548 13.528 10.604 13.188 10.604 12.828C10.604 12.452 10.544 12.116 10.424 11.82C10.304 11.516 10.116 11.26 9.86 11.052C9.604 10.836 9.272 10.672 8.864 10.56C8.464 10.448 7.98 10.392 7.412 10.392H4.16V15.48H7.424ZM4.16 3.144V8.16H6.728C7.832 8.16 8.664 7.96 9.224 7.56C9.792 7.16 10.076 6.524 10.076 5.652C10.076 4.748 9.82 4.104 9.308 3.72C8.796 3.336 7.996 3.144 6.908 3.144H4.16ZM6.908 0.647999C8.044 0.647999 9.016 0.755999 9.824 0.972C10.632 1.188 11.292 1.496 11.804 1.896C12.324 2.296 12.704 2.78 12.944 3.348C13.184 3.916 13.304 4.556 13.304 5.268C13.304 5.676 13.244 6.068 13.124 6.444C13.004 6.812 12.816 7.16 12.56 7.488C12.312 7.808 11.992 8.1 11.6 8.364C11.216 8.628 10.756 8.852 10.22 9.036C12.604 9.572 13.796 10.86 13.796 12.9C13.796 13.636 13.656 14.316 13.376 14.94C13.096 15.564 12.688 16.104 12.152 16.56C11.616 17.008 10.956 17.36 10.172 17.616C9.388 17.872 8.492 18 7.484 18H0.932V0.647999H6.908ZM24.5088 10.428C24.5088 10.044 24.4528 9.684 24.3408 9.348C24.2368 9.004 24.0768 8.704 23.8608 8.448C23.6448 8.192 23.3688 7.992 23.0328 7.848C22.7048 7.696 22.3208 7.62 21.8808 7.62C21.0248 7.62 20.3488 7.864 19.8528 8.352C19.3648 8.84 19.0528 9.532 18.9168 10.428H24.5088ZM18.8568 12.216C18.9048 12.848 19.0168 13.396 19.1928 13.86C19.3688 14.316 19.6008 14.696 19.8888 15C20.1768 15.296 20.5168 15.52 20.9088 15.672C21.3088 15.816 21.7488 15.888 22.2288 15.888C22.7088 15.888 23.1208 15.832 23.4648 15.72C23.8168 15.608 24.1208 15.484 24.3768 15.348C24.6408 15.212 24.8688 15.088 25.0608 14.976C25.2608 14.864 25.4528 14.808 25.6368 14.808C25.8848 14.808 26.0688 14.9 26.1888 15.084L27.0408 16.164C26.7128 16.548 26.3448 16.872 25.9368 17.136C25.5288 17.392 25.1008 17.6 24.6528 17.76C24.2128 17.912 23.7608 18.02 23.2968 18.084C22.8408 18.148 22.3968 18.18 21.9648 18.18C21.1088 18.18 20.3128 18.04 19.5768 17.76C18.8408 17.472 18.2008 17.052 17.6568 16.5C17.1128 15.94 16.6848 15.252 16.3728 14.436C16.0608 13.612 15.9048 12.66 15.9048 11.58C15.9048 10.74 16.0408 9.952 16.3128 9.216C16.5848 8.472 16.9728 7.828 17.4768 7.284C17.9888 6.732 18.6088 6.296 19.3368 5.976C20.0728 5.656 20.9008 5.496 21.8208 5.496C22.5968 5.496 23.3128 5.62 23.9688 5.868C24.6248 6.116 25.1888 6.48 25.6608 6.96C26.1328 7.432 26.5008 8.016 26.7648 8.712C27.0368 9.4 27.1728 10.188 27.1728 11.076C27.1728 11.524 27.1248 11.828 27.0288 11.988C26.9328 12.14 26.7488 12.216 26.4768 12.216H18.8568ZM34.3771 11.544C34.7451 11.544 35.0651 11.496 35.3371 11.4C35.6091 11.296 35.8331 11.156 36.0091 10.98C36.1931 10.804 36.3291 10.592 36.4171 10.344C36.5131 10.096 36.5611 9.824 36.5611 9.528C36.5611 8.92 36.3771 8.44 36.0091 8.088C35.6491 7.728 35.1051 7.548 34.3771 7.548C33.6491 7.548 33.1011 7.728 32.7331 8.088C32.3731 8.44 32.1931 8.92 32.1931 9.528C32.1931 9.816 32.2371 10.084 32.3251 10.332C32.4211 10.58 32.5571 10.796 32.7331 10.98C32.9171 11.156 33.1451 11.296 33.4171 11.4C33.6971 11.496 34.0171 11.544 34.3771 11.544ZM37.7251 18.552C37.7251 18.312 37.6531 18.116 37.5091 17.964C37.3651 17.812 37.1691 17.696 36.9211 17.616C36.6731 17.528 36.3811 17.464 36.0451 17.424C35.7171 17.384 35.3651 17.356 34.9891 17.34C34.6211 17.316 34.2371 17.296 33.8371 17.28C33.4451 17.264 33.0611 17.232 32.6851 17.184C32.3571 17.368 32.0891 17.584 31.8811 17.832C31.6811 18.08 31.5811 18.368 31.5811 18.696C31.5811 18.912 31.6331 19.112 31.7371 19.296C31.8491 19.488 32.0211 19.652 32.2531 19.788C32.4931 19.924 32.8011 20.028 33.1771 20.1C33.5531 20.18 34.0131 20.22 34.5571 20.22C35.1091 20.22 35.5851 20.176 35.9851 20.088C36.3851 20.008 36.7131 19.892 36.9691 19.74C37.2331 19.596 37.4251 19.42 37.5451 19.212C37.6651 19.012 37.7251 18.792 37.7251 18.552ZM40.6771 6.108V7.212C40.6771 7.564 40.4651 7.78 40.0411 7.86L38.9371 8.064C39.1051 8.488 39.1891 8.952 39.1891 9.456C39.1891 10.064 39.0651 10.616 38.8171 11.112C38.5771 11.6 38.2411 12.016 37.8091 12.36C37.3771 12.704 36.8651 12.972 36.2731 13.164C35.6891 13.348 35.0571 13.44 34.3771 13.44C34.1371 13.44 33.9051 13.428 33.6811 13.404C33.4571 13.38 33.2371 13.348 33.0211 13.308C32.6371 13.54 32.4451 13.8 32.4451 14.088C32.4451 14.336 32.5571 14.52 32.7811 14.64C33.0131 14.752 33.3171 14.832 33.6931 14.88C34.0691 14.928 34.4971 14.96 34.9771 14.976C35.4571 14.984 35.9491 15.008 36.4531 15.048C36.9571 15.088 37.4491 15.16 37.9291 15.264C38.4091 15.36 38.8371 15.516 39.2131 15.732C39.5891 15.948 39.8891 16.244 40.1131 16.62C40.3451 16.988 40.4611 17.464 40.4611 18.048C40.4611 18.592 40.3251 19.12 40.0531 19.632C39.7891 20.144 39.4011 20.6 38.8891 21C38.3851 21.4 37.7611 21.72 37.0171 21.96C36.2811 22.208 35.4411 22.332 34.4971 22.332C33.5691 22.332 32.7611 22.24 32.0731 22.056C31.3851 21.88 30.8131 21.64 30.3571 21.336C29.9011 21.04 29.5611 20.696 29.3371 20.304C29.1131 19.912 29.0011 19.504 29.0011 19.08C29.0011 18.504 29.1731 18.024 29.5171 17.64C29.8691 17.248 30.3491 16.936 30.9571 16.704C30.6291 16.536 30.3691 16.312 30.1771 16.032C29.9851 15.752 29.8891 15.384 29.8891 14.928C29.8891 14.744 29.9211 14.556 29.9851 14.364C30.0571 14.164 30.1571 13.968 30.2851 13.776C30.4211 13.584 30.5891 13.404 30.7891 13.236C30.9891 13.06 31.2251 12.904 31.4971 12.768C30.8731 12.432 30.3811 11.984 30.0211 11.424C29.6691 10.864 29.4931 10.208 29.4931 9.456C29.4931 8.848 29.6131 8.3 29.8531 7.812C30.1011 7.316 30.4411 6.896 30.8731 6.552C31.3131 6.2 31.8291 5.932 32.4211 5.748C33.0211 5.564 33.6731 5.472 34.3771 5.472C34.9051 5.472 35.4011 5.528 35.8651 5.64C36.3291 5.744 36.7531 5.9 37.1371 6.108H40.6771ZM46.1088 5.688V18H43.1328V5.688H46.1088ZM46.5168 2.1C46.5168 2.356 46.4648 2.596 46.3608 2.82C46.2568 3.044 46.1168 3.24 45.9408 3.408C45.7728 3.576 45.5728 3.712 45.3408 3.816C45.1088 3.912 44.8608 3.96 44.5968 3.96C44.3408 3.96 44.0968 3.912 43.8648 3.816C43.6408 3.712 43.4448 3.576 43.2768 3.408C43.1088 3.24 42.9728 3.044 42.8688 2.82C42.7728 2.596 42.7248 2.356 42.7248 2.1C42.7248 1.836 42.7728 1.588 42.8688 1.356C42.9728 1.124 43.1088 0.924 43.2768 0.756C43.4448 0.587999 43.6408 0.455999 43.8648 0.36C44.0968 0.256 44.3408 0.204 44.5968 0.204C44.8608 0.204 45.1088 0.256 45.3408 0.36C45.5728 0.455999 45.7728 0.587999 45.9408 0.756C46.1168 0.924 46.2568 1.124 46.3608 1.356C46.4648 1.588 46.5168 1.836 46.5168 2.1ZM52.3826 7.2C52.6306 6.952 52.8906 6.724 53.1626 6.516C53.4426 6.3 53.7346 6.12 54.0386 5.976C54.3506 5.824 54.6826 5.708 55.0346 5.628C55.3866 5.54 55.7706 5.496 56.1866 5.496C56.8586 5.496 57.4546 5.612 57.9746 5.844C58.4946 6.068 58.9266 6.388 59.2706 6.804C59.6226 7.212 59.8866 7.704 60.0626 8.28C60.2466 8.848 60.3386 9.476 60.3386 10.164V18H57.3746V10.164C57.3746 9.412 57.2026 8.832 56.8586 8.424C56.5146 8.008 55.9906 7.8 55.2866 7.8C54.7746 7.8 54.2946 7.916 53.8466 8.148C53.3986 8.38 52.9746 8.696 52.5746 9.096V18H49.6106V5.688H51.4226C51.8066 5.688 52.0586 5.868 52.1786 6.228L52.3826 7.2ZM66.4094 7.2C66.6574 6.952 66.9174 6.724 67.1894 6.516C67.4694 6.3 67.7614 6.12 68.0654 5.976C68.3774 5.824 68.7094 5.708 69.0614 5.628C69.4134 5.54 69.7974 5.496 70.2134 5.496C70.8854 5.496 71.4814 5.612 72.0014 5.844C72.5214 6.068 72.9534 6.388 73.2974 6.804C73.6494 7.212 73.9134 7.704 74.0894 8.28C74.2734 8.848 74.3654 9.476 74.3654 10.164V18H71.4014V10.164C71.4014 9.412 71.2294 8.832 70.8854 8.424C70.5414 8.008 70.0174 7.8 69.3134 7.8C68.8014 7.8 68.3214 7.916 67.8734 8.148C67.4254 8.38 67.0014 8.696 66.6014 9.096V18H63.6374V5.688H65.4494C65.8334 5.688 66.0854 5.868 66.2054 6.228L66.4094 7.2ZM85.5963 10.428C85.5963 10.044 85.5403 9.684 85.4283 9.348C85.3243 9.004 85.1643 8.704 84.9483 8.448C84.7323 8.192 84.4563 7.992 84.1203 7.848C83.7923 7.696 83.4083 7.62 82.9683 7.62C82.1123 7.62 81.4363 7.864 80.9403 8.352C80.4523 8.84 80.1403 9.532 80.0043 10.428H85.5963ZM79.9443 12.216C79.9923 12.848 80.1043 13.396 80.2803 13.86C80.4563 14.316 80.6883 14.696 80.9763 15C81.2643 15.296 81.6043 15.52 81.9963 15.672C82.3963 15.816 82.8363 15.888 83.3163 15.888C83.7963 15.888 84.2083 15.832 84.5523 15.72C84.9043 15.608 85.2083 15.484 85.4643 15.348C85.7283 15.212 85.9563 15.088 86.1483 14.976C86.3483 14.864 86.5403 14.808 86.7243 14.808C86.9723 14.808 87.1563 14.9 87.2763 15.084L88.1283 16.164C87.8003 16.548 87.4323 16.872 87.0243 17.136C86.6163 17.392 86.1883 17.6 85.7403 17.76C85.3003 17.912 84.8483 18.02 84.3843 18.084C83.9283 18.148 83.4843 18.18 83.0523 18.18C82.1963 18.18 81.4003 18.04 80.6643 17.76C79.9283 17.472 79.2883 17.052 78.7443 16.5C78.2003 15.94 77.7723 15.252 77.4603 14.436C77.1483 13.612 76.9923 12.66 76.9923 11.58C76.9923 10.74 77.1283 9.952 77.4003 9.216C77.6723 8.472 78.0603 7.828 78.5643 7.284C79.0763 6.732 79.6963 6.296 80.4243 5.976C81.1603 5.656 81.9883 5.496 82.9083 5.496C83.6843 5.496 84.4003 5.62 85.0563 5.868C85.7123 6.116 86.2763 6.48 86.7483 6.96C87.2203 7.432 87.5883 8.016 87.8523 8.712C88.1243 9.4 88.2603 10.188 88.2603 11.076C88.2603 11.524 88.2123 11.828 88.1163 11.988C88.0203 12.14 87.8363 12.216 87.5643 12.216H79.9443ZM93.7606 7.824C94.1446 7.088 94.6006 6.512 95.1286 6.096C95.6566 5.672 96.2806 5.46 97.0006 5.46C97.5686 5.46 98.0246 5.584 98.3686 5.832L98.1766 8.052C98.1366 8.196 98.0766 8.3 97.9966 8.364C97.9246 8.42 97.8246 8.448 97.6966 8.448C97.5766 8.448 97.3966 8.428 97.1566 8.388C96.9246 8.348 96.6966 8.328 96.4726 8.328C96.1446 8.328 95.8526 8.376 95.5966 8.472C95.3406 8.568 95.1086 8.708 94.9006 8.892C94.7006 9.068 94.5206 9.284 94.3606 9.54C94.2086 9.796 94.0646 10.088 93.9286 10.416V18H90.9646V5.688H92.7046C93.0086 5.688 93.2206 5.744 93.3406 5.856C93.4606 5.96 93.5406 6.152 93.5806 6.432L93.7606 7.824Z" fill="#3C3C6F"/>
</svg>
