<svg width="126" height="38" viewBox="0 0 126 38" fill="none" xmlns="http://www.w3.org/2000/svg">
<g filter="url(#filter0_b_450_5797)">
<path d="M0 19C0 8.50659 8.50659 0 19 0H107C117.493 0 126 8.50659 126 19C126 29.4934 117.493 38 107 38H19C8.50659 38 0 29.4934 0 19Z" fill="white" fill-opacity="0.6"/>
<path d="M1 19C1 9.05888 9.05888 1 19 1H107C116.941 1 125 9.05888 125 19C125 28.9411 116.941 37 107 37H19C9.05888 37 1 28.9411 1 19Z" stroke="url(#paint0_linear_450_5797)" stroke-opacity="0.9" stroke-width="2"/>
</g>
<path d="M49.7963 20.256C49.7963 21.1147 49.6576 21.896 49.3803 22.6C49.1083 23.304 48.7216 23.9093 48.2203 24.416C47.7189 24.9173 47.1189 25.3067 46.4203 25.584C45.7216 25.8613 44.9456 26 44.0923 26H39.7723V14.512H44.0923C44.9456 14.512 45.7216 14.6507 46.4203 14.928C47.1189 15.2053 47.7189 15.5973 48.2203 16.104C48.7216 16.6053 49.1083 17.2107 49.3803 17.92C49.6576 18.624 49.7963 19.4027 49.7963 20.256ZM48.0523 20.256C48.0523 19.5733 47.9589 18.9627 47.7723 18.424C47.5856 17.88 47.3189 17.4213 46.9723 17.048C46.6309 16.6693 46.2149 16.3813 45.7243 16.184C45.2389 15.9867 44.6949 15.888 44.0923 15.888H41.4843V24.624H44.0923C44.6949 24.624 45.2389 24.5253 45.7243 24.328C46.2149 24.1307 46.6309 23.8453 46.9723 23.472C47.3189 23.0933 47.5856 22.6347 47.7723 22.096C47.9589 21.5573 48.0523 20.944 48.0523 20.256ZM57.2188 21.032C57.2188 20.7227 57.1734 20.4373 57.0828 20.176C56.9974 19.9147 56.8694 19.688 56.6988 19.496C56.5281 19.304 56.3201 19.1547 56.0748 19.048C55.8294 18.9413 55.5468 18.888 55.2268 18.888C54.5708 18.888 54.0534 19.0773 53.6748 19.456C53.3014 19.8347 53.0641 20.36 52.9628 21.032H57.2188ZM58.5068 24.84C58.3148 25.064 58.0934 25.2587 57.8428 25.424C57.5921 25.584 57.3254 25.7147 57.0428 25.816C56.7601 25.9173 56.4668 25.992 56.1628 26.04C55.8641 26.088 55.5681 26.112 55.2748 26.112C54.7148 26.112 54.1948 26.0187 53.7148 25.832C53.2401 25.64 52.8268 25.3627 52.4748 25C52.1281 24.632 51.8561 24.1787 51.6588 23.64C51.4668 23.096 51.3708 22.472 51.3708 21.768C51.3708 21.2027 51.4588 20.6773 51.6348 20.192C51.8108 19.7013 52.0614 19.2747 52.3868 18.912C52.7174 18.5493 53.1201 18.264 53.5948 18.056C54.0694 17.848 54.6028 17.744 55.1948 17.744C55.6908 17.744 56.1468 17.8267 56.5628 17.992C56.9841 18.152 57.3468 18.3867 57.6508 18.696C57.9548 19.0053 58.1921 19.3867 58.3628 19.84C58.5388 20.2933 58.6268 20.8107 58.6268 21.392C58.6268 21.632 58.6001 21.7947 58.5468 21.88C58.4934 21.96 58.3948 22 58.2508 22H52.9228C52.9388 22.4853 53.0081 22.9093 53.1308 23.272C53.2534 23.6293 53.4214 23.928 53.6348 24.168C53.8534 24.408 54.1121 24.5867 54.4108 24.704C54.7094 24.8213 55.0428 24.88 55.4108 24.88C55.7574 24.88 56.0561 24.84 56.3068 24.76C56.5628 24.68 56.7814 24.5947 56.9628 24.504C57.1494 24.408 57.3041 24.32 57.4268 24.24C57.5548 24.16 57.6668 24.12 57.7628 24.12C57.8908 24.12 57.9894 24.168 58.0588 24.264L58.5068 24.84ZM65.4155 19.272C65.3728 19.3413 65.3275 19.392 65.2795 19.424C65.2315 19.4507 65.1702 19.464 65.0955 19.464C65.0102 19.464 64.9142 19.4347 64.8075 19.376C64.7062 19.3173 64.5808 19.2533 64.4315 19.184C64.2875 19.1147 64.1168 19.0507 63.9195 18.992C63.7222 18.9333 63.4875 18.904 63.2155 18.904C62.9915 18.904 62.7862 18.9333 62.5995 18.992C62.4182 19.0453 62.2635 19.1227 62.1355 19.224C62.0075 19.32 61.9088 19.4373 61.8395 19.576C61.7702 19.7093 61.7355 19.8533 61.7355 20.008C61.7355 20.2107 61.7942 20.3787 61.9115 20.512C62.0342 20.6453 62.1915 20.76 62.3835 20.856C62.5808 20.952 62.8022 21.04 63.0475 21.12C63.2982 21.1947 63.5515 21.2747 63.8075 21.36C64.0688 21.4453 64.3222 21.544 64.5675 21.656C64.8182 21.7627 65.0395 21.8987 65.2315 22.064C65.4288 22.224 65.5862 22.4187 65.7035 22.648C65.8262 22.8773 65.8875 23.1573 65.8875 23.488C65.8875 23.8667 65.8182 24.2187 65.6795 24.544C65.5462 24.864 65.3462 25.1413 65.0795 25.376C64.8182 25.6107 64.4928 25.7947 64.1035 25.928C63.7142 26.0613 63.2688 26.128 62.7675 26.128C62.2075 26.128 61.6902 26.0347 61.2155 25.848C60.7408 25.6613 60.3435 25.424 60.0235 25.136L60.3915 24.536C60.4342 24.4613 60.4875 24.4053 60.5515 24.368C60.6155 24.3253 60.7008 24.304 60.8075 24.304C60.9088 24.304 61.0128 24.3413 61.1195 24.416C61.2262 24.4907 61.3542 24.5733 61.5035 24.664C61.6528 24.7493 61.8342 24.8293 62.0475 24.904C62.2608 24.9733 62.5275 25.008 62.8475 25.008C63.1142 25.008 63.3462 24.976 63.5435 24.912C63.7408 24.8427 63.9035 24.752 64.0315 24.64C64.1648 24.5227 64.2635 24.3893 64.3275 24.24C64.3915 24.0907 64.4235 23.9333 64.4235 23.768C64.4235 23.5547 64.3622 23.3787 64.2395 23.24C64.1222 23.096 63.9648 22.9733 63.7675 22.872C63.5755 22.7707 63.3542 22.6827 63.1035 22.608C62.8528 22.5333 62.5968 22.4533 62.3355 22.368C62.0742 22.2827 61.8182 22.184 61.5675 22.072C61.3168 21.96 61.0928 21.8187 60.8955 21.648C60.7035 21.4773 60.5462 21.2693 60.4235 21.024C60.3062 20.7787 60.2475 20.48 60.2475 20.128C60.2475 19.8133 60.3115 19.512 60.4395 19.224C60.5728 18.936 60.7622 18.6827 61.0075 18.464C61.2582 18.2453 61.5648 18.072 61.9275 17.944C62.2955 17.8107 62.7142 17.744 63.1835 17.744C63.7222 17.744 64.2075 17.8293 64.6395 18C65.0768 18.1707 65.4502 18.4053 65.7595 18.704L65.4155 19.272ZM69.5286 17.872V26H67.9686V17.872H69.5286ZM69.8246 15.36C69.8246 15.504 69.7953 15.6427 69.7366 15.776C69.678 15.904 69.598 16.0187 69.4966 16.12C69.4006 16.216 69.286 16.2933 69.1526 16.352C69.0193 16.4053 68.8806 16.432 68.7366 16.432C68.5926 16.432 68.4566 16.4053 68.3286 16.352C68.2006 16.2933 68.086 16.216 67.9846 16.12C67.8886 16.0187 67.8113 15.904 67.7526 15.776C67.6993 15.6427 67.6726 15.504 67.6726 15.36C67.6726 15.2107 67.6993 15.072 67.7526 14.944C67.8113 14.8107 67.8886 14.696 67.9846 14.6C68.086 14.4987 68.2006 14.4213 68.3286 14.368C68.4566 14.3093 68.5926 14.28 68.7366 14.28C68.8806 14.28 69.0193 14.3093 69.1526 14.368C69.286 14.4213 69.4006 14.4987 69.4966 14.6C69.598 14.696 69.678 14.8107 69.7366 14.944C69.7953 15.072 69.8246 15.2107 69.8246 15.36ZM74.9632 21.944C75.2406 21.944 75.4832 21.9067 75.6912 21.832C75.9046 21.7573 76.0806 21.6533 76.2192 21.52C76.3632 21.3813 76.4699 21.216 76.5392 21.024C76.6139 20.832 76.6512 20.6213 76.6512 20.392C76.6512 19.9227 76.5072 19.5493 76.2192 19.272C75.9366 18.9893 75.5179 18.848 74.9632 18.848C74.4139 18.848 73.9952 18.9893 73.7072 19.272C73.4246 19.5493 73.2832 19.9227 73.2832 20.392C73.2832 20.6213 73.3179 20.832 73.3872 21.024C73.4619 21.2107 73.5686 21.3733 73.7072 21.512C73.8512 21.6453 74.0272 21.752 74.2352 21.832C74.4486 21.9067 74.6912 21.944 74.9632 21.944ZM77.4513 26.424C77.4513 26.232 77.3979 26.08 77.2912 25.968C77.1846 25.8507 77.0379 25.76 76.8512 25.696C76.6699 25.6267 76.4566 25.5787 76.2112 25.552C75.9659 25.52 75.7072 25.496 75.4352 25.48C75.1686 25.464 74.8939 25.4507 74.6112 25.44C74.3286 25.424 74.0566 25.3973 73.7952 25.36C73.5179 25.4987 73.2886 25.6667 73.1072 25.864C72.9312 26.0613 72.8432 26.2933 72.8432 26.56C72.8432 26.7307 72.8859 26.8907 72.9712 27.04C73.0619 27.1893 73.1979 27.3173 73.3792 27.424C73.5659 27.536 73.7979 27.6213 74.0752 27.68C74.3579 27.744 74.6939 27.776 75.0832 27.776C75.4672 27.776 75.8059 27.7413 76.0992 27.672C76.3926 27.608 76.6379 27.5147 76.8352 27.392C77.0379 27.2747 77.1899 27.1333 77.2912 26.968C77.3979 26.8027 77.4513 26.6213 77.4513 26.424ZM79.0352 18.176V18.76C79.0352 18.952 78.9152 19.072 78.6753 19.12L77.8032 19.248C77.8779 19.4133 77.9366 19.5893 77.9792 19.776C78.0219 19.9573 78.0433 20.1493 78.0433 20.352C78.0433 20.752 77.9659 21.1147 77.8112 21.44C77.6566 21.76 77.4432 22.0347 77.1712 22.264C76.8992 22.4933 76.5739 22.6693 76.1952 22.792C75.8219 22.9147 75.4112 22.976 74.9632 22.976C74.5952 22.976 74.2512 22.936 73.9312 22.856C73.7712 22.952 73.6486 23.0587 73.5632 23.176C73.4832 23.288 73.4432 23.4 73.4432 23.512C73.4432 23.6987 73.5206 23.8373 73.6752 23.928C73.8352 24.0187 74.0406 24.0853 74.2912 24.128C74.5472 24.1653 74.8379 24.1893 75.1632 24.2C75.4939 24.2107 75.8272 24.2293 76.1632 24.256C76.5046 24.2773 76.8379 24.32 77.1632 24.384C77.4939 24.4427 77.7846 24.5413 78.0352 24.68C78.2912 24.8133 78.4966 25 78.6512 25.24C78.8113 25.4747 78.8913 25.7813 78.8913 26.16C78.8913 26.512 78.8032 26.8533 78.6272 27.184C78.4566 27.5147 78.2059 27.808 77.8752 28.064C77.5446 28.32 77.1419 28.5253 76.6672 28.68C76.1926 28.8347 75.6539 28.912 75.0512 28.912C74.4486 28.912 73.9232 28.8533 73.4752 28.736C73.0326 28.6187 72.6619 28.4613 72.3632 28.264C72.0699 28.0667 71.8486 27.8373 71.6992 27.576C71.5552 27.3147 71.4832 27.0427 71.4832 26.76C71.4832 26.3653 71.6059 26.032 71.8512 25.76C72.0966 25.4827 72.4352 25.2667 72.8672 25.112C72.6326 25.0053 72.4459 24.8613 72.3072 24.68C72.1686 24.4933 72.0992 24.248 72.0992 23.944C72.0992 23.8267 72.1206 23.7067 72.1632 23.584C72.2059 23.456 72.2699 23.3307 72.3552 23.208C72.4459 23.08 72.5552 22.96 72.6832 22.848C72.8166 22.736 72.9686 22.6347 73.1392 22.544C72.7392 22.32 72.4246 22.024 72.1952 21.656C71.9659 21.2827 71.8512 20.848 71.8512 20.352C71.8512 19.952 71.9286 19.592 72.0832 19.272C72.2379 18.952 72.4512 18.6773 72.7232 18.448C73.0006 18.2187 73.3286 18.0427 73.7072 17.92C74.0912 17.7973 74.5099 17.736 74.9632 17.736C75.6672 17.736 76.2726 17.8827 76.7792 18.176H79.0352ZM82.2506 19C82.4266 18.8133 82.6106 18.6427 82.8026 18.488C82.9946 18.3333 83.1973 18.2027 83.4106 18.096C83.6293 17.984 83.8613 17.8987 84.1066 17.84C84.3573 17.776 84.624 17.744 84.9066 17.744C85.3546 17.744 85.7466 17.8187 86.0826 17.968C86.424 18.1173 86.7093 18.328 86.9386 18.6C87.168 18.8667 87.3413 19.1893 87.4586 19.568C87.576 19.9467 87.6346 20.3653 87.6346 20.824V26H86.0666V20.824C86.0666 20.2427 85.9333 19.792 85.6666 19.472C85.4 19.1467 84.992 18.984 84.4426 18.984C84.0426 18.984 83.6666 19.08 83.3146 19.272C82.968 19.4587 82.6453 19.7147 82.3466 20.04V26H80.7866V17.872H81.7226C81.9413 17.872 82.0773 17.976 82.1306 18.184L82.2506 19Z" fill="#3C3C6F"/>
<defs>
<filter id="filter0_b_450_5797" x="-30" y="-30" width="186" height="98" filterUnits="userSpaceOnUse" color-interpolation-filters="sRGB">
<feFlood flood-opacity="0" result="BackgroundImageFix"/>
<feGaussianBlur in="BackgroundImageFix" stdDeviation="15"/>
<feComposite in2="SourceAlpha" operator="in" result="effect1_backgroundBlur_450_5797"/>
<feBlend mode="normal" in="SourceGraphic" in2="effect1_backgroundBlur_450_5797" result="shape"/>
</filter>
<linearGradient id="paint0_linear_450_5797" x1="8.89587" y1="-6.09434" x2="57.4859" y2="-0.270214" gradientUnits="userSpaceOnUse">
<stop stop-color="white"/>
<stop offset="1" stop-color="white" stop-opacity="0"/>
</linearGradient>
</defs>
</svg>
