<svg width="146" height="38" viewBox="0 0 146 38" fill="none" xmlns="http://www.w3.org/2000/svg">
<g filter="url(#filter0_b_450_5770)">
<path d="M0 19C0 8.50659 8.50659 0 19 0H127C137.493 0 146 8.50659 146 19C146 29.4934 137.493 38 127 38H19C8.50659 38 0 29.4934 0 19Z" fill="white" fill-opacity="0.6"/>
<path d="M1 19C1 9.05887 9.05887 1 19 1H127C136.941 1 145 9.05888 145 19C145 28.9411 136.941 37 127 37H19C9.05887 37 1 28.9411 1 19Z" stroke="url(#paint0_linear_450_5770)" stroke-opacity="0.9" stroke-width="2"/>
</g>
<path d="M44.465 20.256C44.465 21.1147 44.3263 21.904 44.049 22.624C43.777 23.3387 43.3903 23.9573 42.889 24.48C42.3877 24.9973 41.7877 25.4 41.089 25.688C40.3903 25.976 39.6143 26.12 38.761 26.12C37.913 26.12 37.137 25.976 36.433 25.688C35.7343 25.4 35.1343 24.9973 34.633 24.48C34.137 23.9573 33.7503 23.3387 33.473 22.624C33.1957 21.904 33.057 21.1147 33.057 20.256C33.057 19.4027 33.1957 18.616 33.473 17.896C33.7503 17.176 34.137 16.5573 34.633 16.04C35.1343 15.5173 35.7343 15.112 36.433 14.824C37.137 14.5307 37.913 14.384 38.761 14.384C39.6143 14.384 40.3903 14.5307 41.089 14.824C41.7877 15.112 42.3877 15.5173 42.889 16.04C43.3903 16.5573 43.777 17.176 44.049 17.896C44.3263 18.616 44.465 19.4027 44.465 20.256ZM42.721 20.256C42.721 19.5733 42.6277 18.96 42.441 18.416C42.2543 17.872 41.9877 17.4107 41.641 17.032C41.2997 16.6533 40.8837 16.3627 40.393 16.16C39.9077 15.9573 39.3637 15.856 38.761 15.856C38.1583 15.856 37.6117 15.9573 37.121 16.16C36.6357 16.3627 36.2197 16.6533 35.873 17.032C35.5263 17.4107 35.2597 17.872 35.073 18.416C34.8863 18.96 34.793 19.5733 34.793 20.256C34.793 20.944 34.8863 21.56 35.073 22.104C35.2597 22.6427 35.5263 23.1013 35.873 23.48C36.2197 23.8587 36.6357 24.1493 37.121 24.352C37.6117 24.5493 38.1583 24.648 38.761 24.648C39.3637 24.648 39.9077 24.5493 40.393 24.352C40.8837 24.1493 41.2997 23.8587 41.641 23.48C41.9877 23.1013 42.2543 22.6427 42.441 22.104C42.6277 21.56 42.721 20.944 42.721 20.256ZM48.0085 24C48.2645 24.336 48.5392 24.5707 48.8325 24.704C49.1312 24.8373 49.4645 24.904 49.8325 24.904C50.5472 24.904 51.0992 24.648 51.4885 24.136C51.8832 23.6187 52.0805 22.8667 52.0805 21.88C52.0805 21.3627 52.0352 20.9227 51.9445 20.56C51.8592 20.192 51.7312 19.8933 51.5605 19.664C51.3952 19.4293 51.1898 19.2587 50.9445 19.152C50.6992 19.04 50.4218 18.984 50.1125 18.984C49.6592 18.984 49.2645 19.0853 48.9285 19.288C48.5978 19.4907 48.2912 19.7787 48.0085 20.152V24ZM47.9285 19.088C48.0992 18.8853 48.2805 18.7013 48.4725 18.536C48.6698 18.3653 48.8805 18.2213 49.1045 18.104C49.3285 17.9813 49.5658 17.888 49.8165 17.824C50.0725 17.7547 50.3445 17.72 50.6325 17.72C51.0965 17.72 51.5152 17.8107 51.8885 17.992C52.2672 18.1733 52.5898 18.44 52.8565 18.792C53.1232 19.144 53.3285 19.5787 53.4725 20.096C53.6218 20.6133 53.6965 21.208 53.6965 21.88C53.6965 22.4827 53.6138 23.0427 53.4485 23.56C53.2885 24.072 53.0565 24.5173 52.7525 24.896C52.4538 25.2747 52.0858 25.5733 51.6485 25.792C51.2165 26.0053 50.7285 26.112 50.1845 26.112C49.6992 26.112 49.2832 26.032 48.9365 25.872C48.5898 25.712 48.2805 25.488 48.0085 25.2V28.728H46.4485V17.872H47.3845C47.6032 17.872 47.7392 17.976 47.7925 18.184L47.9285 19.088ZM61.1525 21.032C61.1525 20.7227 61.1072 20.4373 61.0165 20.176C60.9312 19.9147 60.8032 19.688 60.6325 19.496C60.4618 19.304 60.2538 19.1547 60.0085 19.048C59.7632 18.9413 59.4805 18.888 59.1605 18.888C58.5045 18.888 57.9872 19.0773 57.6085 19.456C57.2352 19.8347 56.9978 20.36 56.8965 21.032H61.1525ZM62.4405 24.84C62.2485 25.064 62.0272 25.2587 61.7765 25.424C61.5258 25.584 61.2592 25.7147 60.9765 25.816C60.6938 25.9173 60.4005 25.992 60.0965 26.04C59.7978 26.088 59.5018 26.112 59.2085 26.112C58.6485 26.112 58.1285 26.0187 57.6485 25.832C57.1738 25.64 56.7605 25.3627 56.4085 25C56.0618 24.632 55.7898 24.1787 55.5925 23.64C55.4005 23.096 55.3045 22.472 55.3045 21.768C55.3045 21.2027 55.3925 20.6773 55.5685 20.192C55.7445 19.7013 55.9952 19.2747 56.3205 18.912C56.6512 18.5493 57.0538 18.264 57.5285 18.056C58.0032 17.848 58.5365 17.744 59.1285 17.744C59.6245 17.744 60.0805 17.8267 60.4965 17.992C60.9178 18.152 61.2805 18.3867 61.5845 18.696C61.8885 19.0053 62.1258 19.3867 62.2965 19.84C62.4725 20.2933 62.5605 20.8107 62.5605 21.392C62.5605 21.632 62.5338 21.7947 62.4805 21.88C62.4272 21.96 62.3285 22 62.1845 22H56.8565C56.8725 22.4853 56.9418 22.9093 57.0645 23.272C57.1872 23.6293 57.3552 23.928 57.5685 24.168C57.7872 24.408 58.0458 24.5867 58.3445 24.704C58.6432 24.8213 58.9765 24.88 59.3445 24.88C59.6912 24.88 59.9898 24.84 60.2405 24.76C60.4965 24.68 60.7152 24.5947 60.8965 24.504C61.0832 24.408 61.2378 24.32 61.3605 24.24C61.4885 24.16 61.6005 24.12 61.6965 24.12C61.8245 24.12 61.9232 24.168 61.9925 24.264L62.4405 24.84ZM66.0293 19.432C66.2906 18.8987 66.6053 18.48 66.9733 18.176C67.3413 17.872 67.7839 17.72 68.3013 17.72C68.4773 17.72 68.6426 17.7413 68.7973 17.784C68.9573 17.8213 69.0959 17.88 69.2133 17.96L69.1093 19.136C69.0719 19.28 68.9839 19.352 68.8453 19.352C68.7706 19.352 68.6586 19.3387 68.5093 19.312C68.3599 19.28 68.1999 19.264 68.0293 19.264C67.7786 19.264 67.5573 19.3013 67.3653 19.376C67.1733 19.4453 66.9999 19.552 66.8453 19.696C66.6959 19.8347 66.5626 20.008 66.4453 20.216C66.3279 20.4187 66.2186 20.6507 66.1173 20.912V26H64.5573V17.872H65.4533C65.6239 17.872 65.7386 17.904 65.7973 17.968C65.8613 18.0267 65.9066 18.1333 65.9333 18.288L66.0293 19.432ZM74.9796 22.392C74.345 22.4133 73.8063 22.464 73.3636 22.544C72.921 22.6187 72.561 22.72 72.2836 22.848C72.0063 22.976 71.8063 23.128 71.6836 23.304C71.561 23.4747 71.4996 23.6667 71.4996 23.88C71.4996 24.0827 71.5316 24.2587 71.5956 24.408C71.665 24.552 71.7556 24.672 71.8676 24.768C71.985 24.8587 72.121 24.9253 72.2756 24.968C72.4303 25.0107 72.5983 25.032 72.7796 25.032C73.0196 25.032 73.2383 25.008 73.4356 24.96C73.6383 24.912 73.8276 24.8453 74.0036 24.76C74.1796 24.6693 74.3476 24.56 74.5076 24.432C74.6676 24.304 74.825 24.1573 74.9796 23.992V22.392ZM70.4036 19.008C70.857 18.576 71.3476 18.2533 71.8756 18.04C72.409 17.8267 72.993 17.72 73.6276 17.72C74.0916 17.72 74.5023 17.7973 74.8596 17.952C75.217 18.1013 75.5183 18.312 75.7636 18.584C76.009 18.856 76.193 19.1813 76.3156 19.56C76.4436 19.9387 76.5076 20.3573 76.5076 20.816V26H75.8116C75.657 26 75.5396 25.976 75.4596 25.928C75.3796 25.8747 75.3156 25.7787 75.2676 25.64L75.0996 24.928C74.8916 25.12 74.6863 25.2907 74.4836 25.44C74.281 25.584 74.0676 25.7093 73.8436 25.816C73.625 25.9173 73.3903 25.9947 73.1396 26.048C72.889 26.1013 72.6116 26.128 72.3076 26.128C71.9876 26.128 71.6863 26.0853 71.4036 26C71.1263 25.9093 70.8836 25.7733 70.6756 25.592C70.4676 25.4107 70.3023 25.184 70.1796 24.912C70.0623 24.64 70.0036 24.3227 70.0036 23.96C70.0036 23.64 70.089 23.3333 70.2596 23.04C70.4356 22.7413 70.7183 22.4747 71.1076 22.24C71.5023 22.0053 72.0143 21.8133 72.6436 21.664C73.2783 21.5147 74.057 21.4293 74.9796 21.408V20.816C74.9796 20.2027 74.849 19.744 74.5876 19.44C74.3263 19.136 73.9423 18.984 73.4356 18.984C73.0943 18.984 72.8063 19.0267 72.5716 19.112C72.3423 19.1973 72.1423 19.2933 71.9716 19.4C71.8063 19.5013 71.6596 19.5947 71.5316 19.68C71.409 19.7653 71.281 19.808 71.1476 19.808C71.041 19.808 70.9476 19.7787 70.8676 19.72C70.793 19.6613 70.7316 19.592 70.6836 19.512L70.4036 19.008ZM86.5106 26H84.9426V19.136H80.8626V23.896C80.8626 24.216 80.94 24.456 81.0946 24.616C81.2546 24.7707 81.4573 24.848 81.7026 24.848C81.8466 24.848 81.9693 24.8293 82.0706 24.792C82.1773 24.7547 82.268 24.7147 82.3426 24.672C82.4173 24.624 82.4813 24.5813 82.5346 24.544C82.588 24.5067 82.636 24.488 82.6786 24.488C82.732 24.488 82.772 24.5013 82.7986 24.528C82.8306 24.5493 82.8626 24.5867 82.8946 24.64L83.3586 25.392C83.1026 25.6267 82.7986 25.808 82.4466 25.936C82.0946 26.064 81.7293 26.128 81.3506 26.128C80.6946 26.128 80.188 25.944 79.8306 25.576C79.4786 25.208 79.3026 24.6827 79.3026 24V19.136H78.3586C78.268 19.136 78.1906 19.1093 78.1266 19.056C78.068 18.9973 78.0386 18.912 78.0386 18.8V18.168L79.3666 17.984L79.7106 15.56C79.732 15.4693 79.772 15.4 79.8306 15.352C79.8946 15.2987 79.9746 15.272 80.0706 15.272H80.8626V18H86.5106V26ZM86.8626 15.312C86.8626 15.456 86.8333 15.5947 86.7746 15.728C86.716 15.856 86.636 15.9707 86.5346 16.072C86.4386 16.168 86.324 16.2453 86.1906 16.304C86.0573 16.3573 85.9186 16.384 85.7746 16.384C85.6306 16.384 85.4946 16.3573 85.3666 16.304C85.2386 16.2453 85.124 16.168 85.0226 16.072C84.9266 15.9707 84.8493 15.856 84.7906 15.728C84.7373 15.5947 84.7106 15.456 84.7106 15.312C84.7106 15.1627 84.7373 15.0213 84.7906 14.888C84.8493 14.7547 84.9266 14.64 85.0226 14.544C85.124 14.4427 85.2386 14.3653 85.3666 14.312C85.4946 14.2533 85.6306 14.224 85.7746 14.224C85.9186 14.224 86.0573 14.2533 86.1906 14.312C86.324 14.3653 86.4386 14.4427 86.5346 14.544C86.636 14.64 86.716 14.7547 86.7746 14.888C86.8333 15.0213 86.8626 15.1627 86.8626 15.312ZM92.5594 17.744C93.1567 17.744 93.6954 17.8427 94.1754 18.04C94.6607 18.232 95.0714 18.512 95.4074 18.88C95.7487 19.2427 96.01 19.6827 96.1914 20.2C96.3727 20.712 96.4634 21.288 96.4634 21.928C96.4634 22.568 96.3727 23.1467 96.1914 23.664C96.01 24.1813 95.7487 24.6213 95.4074 24.984C95.0714 25.3467 94.6607 25.6267 94.1754 25.824C93.6954 26.016 93.1567 26.112 92.5594 26.112C91.9567 26.112 91.4127 26.016 90.9274 25.824C90.4474 25.6267 90.0367 25.3467 89.6954 24.984C89.354 24.6213 89.09 24.1813 88.9034 23.664C88.722 23.1467 88.6314 22.568 88.6314 21.928C88.6314 21.288 88.722 20.712 88.9034 20.2C89.09 19.6827 89.354 19.2427 89.6954 18.88C90.0367 18.512 90.4474 18.232 90.9274 18.04C91.4127 17.8427 91.9567 17.744 92.5594 17.744ZM92.5594 24.896C93.3274 24.896 93.9007 24.6373 94.2794 24.12C94.658 23.6027 94.8474 22.8747 94.8474 21.936C94.8474 20.9973 94.658 20.2693 94.2794 19.752C93.9007 19.2293 93.3274 18.968 92.5594 18.968C91.7807 18.968 91.1994 19.2293 90.8154 19.752C90.4367 20.2693 90.2474 20.9973 90.2474 21.936C90.2474 22.8747 90.4367 23.6027 90.8154 24.12C91.1994 24.6373 91.7807 24.896 92.5594 24.896ZM99.9887 19C100.165 18.8133 100.349 18.6427 100.541 18.488C100.733 18.3333 100.935 18.2027 101.149 18.096C101.367 17.984 101.599 17.8987 101.845 17.84C102.095 17.776 102.362 17.744 102.645 17.744C103.093 17.744 103.485 17.8187 103.821 17.968C104.162 18.1173 104.447 18.328 104.677 18.6C104.906 18.8667 105.079 19.1893 105.197 19.568C105.314 19.9467 105.373 20.3653 105.373 20.824V26H103.805V20.824C103.805 20.2427 103.671 19.792 103.405 19.472C103.138 19.1467 102.73 18.984 102.181 18.984C101.781 18.984 101.405 19.08 101.053 19.272C100.706 19.4587 100.383 19.7147 100.085 20.04V26H98.5247V17.872H99.4607C99.6794 17.872 99.8154 17.976 99.8687 18.184L99.9887 19ZM112.59 19.272C112.547 19.3413 112.502 19.392 112.454 19.424C112.406 19.4507 112.345 19.464 112.27 19.464C112.185 19.464 112.089 19.4347 111.982 19.376C111.881 19.3173 111.755 19.2533 111.606 19.184C111.462 19.1147 111.291 19.0507 111.094 18.992C110.897 18.9333 110.662 18.904 110.39 18.904C110.166 18.904 109.961 18.9333 109.774 18.992C109.593 19.0453 109.438 19.1227 109.31 19.224C109.182 19.32 109.083 19.4373 109.014 19.576C108.945 19.7093 108.91 19.8533 108.91 20.008C108.91 20.2107 108.969 20.3787 109.086 20.512C109.209 20.6453 109.366 20.76 109.558 20.856C109.755 20.952 109.977 21.04 110.222 21.12C110.473 21.1947 110.726 21.2747 110.982 21.36C111.243 21.4453 111.497 21.544 111.742 21.656C111.993 21.7627 112.214 21.8987 112.406 22.064C112.603 22.224 112.761 22.4187 112.878 22.648C113.001 22.8773 113.062 23.1573 113.062 23.488C113.062 23.8667 112.993 24.2187 112.854 24.544C112.721 24.864 112.521 25.1413 112.254 25.376C111.993 25.6107 111.667 25.7947 111.278 25.928C110.889 26.0613 110.443 26.128 109.942 26.128C109.382 26.128 108.865 26.0347 108.39 25.848C107.915 25.6613 107.518 25.424 107.198 25.136L107.566 24.536C107.609 24.4613 107.662 24.4053 107.726 24.368C107.79 24.3253 107.875 24.304 107.982 24.304C108.083 24.304 108.187 24.3413 108.294 24.416C108.401 24.4907 108.529 24.5733 108.678 24.664C108.827 24.7493 109.009 24.8293 109.222 24.904C109.435 24.9733 109.702 25.008 110.022 25.008C110.289 25.008 110.521 24.976 110.718 24.912C110.915 24.8427 111.078 24.752 111.206 24.64C111.339 24.5227 111.438 24.3893 111.502 24.24C111.566 24.0907 111.598 23.9333 111.598 23.768C111.598 23.5547 111.537 23.3787 111.414 23.24C111.297 23.096 111.139 22.9733 110.942 22.872C110.75 22.7707 110.529 22.6827 110.278 22.608C110.027 22.5333 109.771 22.4533 109.51 22.368C109.249 22.2827 108.993 22.184 108.742 22.072C108.491 21.96 108.267 21.8187 108.07 21.648C107.878 21.4773 107.721 21.2693 107.598 21.024C107.481 20.7787 107.422 20.48 107.422 20.128C107.422 19.8133 107.486 19.512 107.614 19.224C107.747 18.936 107.937 18.6827 108.182 18.464C108.433 18.2453 108.739 18.072 109.102 17.944C109.47 17.8107 109.889 17.744 110.358 17.744C110.897 17.744 111.382 17.8293 111.814 18C112.251 18.1707 112.625 18.4053 112.934 18.704L112.59 19.272Z" fill="#3C3C6F"/>
<defs>
<filter id="filter0_b_450_5770" x="-30" y="-30" width="206" height="98" filterUnits="userSpaceOnUse" color-interpolation-filters="sRGB">
<feFlood flood-opacity="0" result="BackgroundImageFix"/>
<feGaussianBlur in="BackgroundImageFix" stdDeviation="15"/>
<feComposite in2="SourceAlpha" operator="in" result="effect1_backgroundBlur_450_5770"/>
<feBlend mode="normal" in="SourceGraphic" in2="effect1_backgroundBlur_450_5770" result="shape"/>
</filter>
<linearGradient id="paint0_linear_450_5770" x1="10.3079" y1="-6.09434" x2="66.3387" y2="1.68769" gradientUnits="userSpaceOnUse">
<stop stop-color="white"/>
<stop offset="1" stop-color="white" stop-opacity="0"/>
</linearGradient>
</defs>
</svg>
