<svg width="171" height="38" viewBox="0 0 171 38" fill="none" xmlns="http://www.w3.org/2000/svg">
<g filter="url(#filter0_b_450_5785)">
<path d="M0 19C0 8.50659 8.50659 0 19 0H152C162.493 0 171 8.50659 171 19C171 29.4934 162.493 38 152 38H19C8.50659 38 0 29.4934 0 19Z" fill="white" fill-opacity="0.6"/>
<path d="M1 19C1 9.05888 9.05888 1 19 1H152C161.941 1 170 9.05888 170 19C170 28.9411 161.941 37 152 37H19C9.05887 37 1 28.9411 1 19Z" stroke="url(#paint0_linear_450_5785)" stroke-opacity="0.9" stroke-width="2"/>
</g>
<path d="M36.6197 24.648C37.0517 24.648 37.4197 24.5973 37.7237 24.496C38.033 24.3947 38.2837 24.256 38.4757 24.08C38.673 23.904 38.817 23.696 38.9077 23.456C38.9984 23.2107 39.0437 22.944 39.0437 22.656C39.0437 22.0853 38.8464 21.6373 38.4517 21.312C38.057 20.9813 37.4464 20.816 36.6197 20.816H34.2197V24.648H36.6197ZM34.2197 15.848V19.608H36.1797C37.017 19.608 37.6384 19.44 38.0437 19.104C38.4544 18.7627 38.6597 18.304 38.6597 17.728C38.6597 17.072 38.465 16.5947 38.0757 16.296C37.6864 15.9973 37.081 15.848 36.2597 15.848H34.2197ZM36.2597 14.512C36.9797 14.512 37.5957 14.5813 38.1077 14.72C38.625 14.8587 39.049 15.0587 39.3797 15.32C39.7104 15.5813 39.953 15.8987 40.1077 16.272C40.2677 16.64 40.3477 17.0587 40.3477 17.528C40.3477 17.8053 40.305 18.072 40.2197 18.328C40.1344 18.584 40.0037 18.824 39.8277 19.048C39.6517 19.2667 39.4304 19.464 39.1637 19.64C38.897 19.816 38.5824 19.9627 38.2197 20.08C39.889 20.4107 40.7237 21.2827 40.7237 22.696C40.7237 23.1867 40.633 23.6347 40.4517 24.04C40.2704 24.44 40.0064 24.7867 39.6597 25.08C39.313 25.3733 38.8864 25.6 38.3797 25.76C37.873 25.92 37.297 26 36.6517 26H32.5157V14.512H36.2597ZM48.1653 21.032C48.1653 20.7227 48.12 20.4373 48.0293 20.176C47.944 19.9147 47.816 19.688 47.6453 19.496C47.4746 19.304 47.2666 19.1547 47.0213 19.048C46.776 18.9413 46.4933 18.888 46.1733 18.888C45.5173 18.888 45 19.0773 44.6213 19.456C44.248 19.8347 44.0106 20.36 43.9093 21.032H48.1653ZM49.4533 24.84C49.2613 25.064 49.04 25.2587 48.7893 25.424C48.5386 25.584 48.272 25.7147 47.9893 25.816C47.7066 25.9173 47.4133 25.992 47.1093 26.04C46.8106 26.088 46.5146 26.112 46.2213 26.112C45.6613 26.112 45.1413 26.0187 44.6613 25.832C44.1866 25.64 43.7733 25.3627 43.4213 25C43.0746 24.632 42.8026 24.1787 42.6053 23.64C42.4133 23.096 42.3173 22.472 42.3173 21.768C42.3173 21.2027 42.4053 20.6773 42.5813 20.192C42.7573 19.7013 43.008 19.2747 43.3333 18.912C43.664 18.5493 44.0666 18.264 44.5413 18.056C45.016 17.848 45.5493 17.744 46.1413 17.744C46.6373 17.744 47.0933 17.8267 47.5093 17.992C47.9306 18.152 48.2933 18.3867 48.5973 18.696C48.9013 19.0053 49.1386 19.3867 49.3093 19.84C49.4853 20.2933 49.5733 20.8107 49.5733 21.392C49.5733 21.632 49.5466 21.7947 49.4933 21.88C49.44 21.96 49.3413 22 49.1973 22H43.8693C43.8853 22.4853 43.9546 22.9093 44.0773 23.272C44.2 23.6293 44.368 23.928 44.5813 24.168C44.8 24.408 45.0586 24.5867 45.3573 24.704C45.656 24.8213 45.9893 24.88 46.3573 24.88C46.704 24.88 47.0026 24.84 47.2533 24.76C47.5093 24.68 47.728 24.5947 47.9093 24.504C48.096 24.408 48.2506 24.32 48.3733 24.24C48.5013 24.16 48.6133 24.12 48.7093 24.12C48.8373 24.12 48.936 24.168 49.0053 24.264L49.4533 24.84ZM55.9381 22.392C55.3034 22.4133 54.7647 22.464 54.3221 22.544C53.8794 22.6187 53.5194 22.72 53.2421 22.848C52.9647 22.976 52.7647 23.128 52.6421 23.304C52.5194 23.4747 52.4581 23.6667 52.4581 23.88C52.4581 24.0827 52.4901 24.2587 52.5541 24.408C52.6234 24.552 52.7141 24.672 52.8261 24.768C52.9434 24.8587 53.0794 24.9253 53.2341 24.968C53.3887 25.0107 53.5567 25.032 53.7381 25.032C53.9781 25.032 54.1967 25.008 54.3941 24.96C54.5967 24.912 54.7861 24.8453 54.9621 24.76C55.1381 24.6693 55.3061 24.56 55.4661 24.432C55.6261 24.304 55.7834 24.1573 55.9381 23.992V22.392ZM51.3621 19.008C51.8154 18.576 52.3061 18.2533 52.8341 18.04C53.3674 17.8267 53.9514 17.72 54.5861 17.72C55.0501 17.72 55.4607 17.7973 55.8181 17.952C56.1754 18.1013 56.4767 18.312 56.7221 18.584C56.9674 18.856 57.1514 19.1813 57.2741 19.56C57.4021 19.9387 57.4661 20.3573 57.4661 20.816V26H56.7701C56.6154 26 56.4981 25.976 56.4181 25.928C56.3381 25.8747 56.2741 25.7787 56.2261 25.64L56.0581 24.928C55.8501 25.12 55.6447 25.2907 55.4421 25.44C55.2394 25.584 55.0261 25.7093 54.8021 25.816C54.5834 25.9173 54.3487 25.9947 54.0981 26.048C53.8474 26.1013 53.5701 26.128 53.2661 26.128C52.9461 26.128 52.6447 26.0853 52.3621 26C52.0847 25.9093 51.8421 25.7733 51.6341 25.592C51.4261 25.4107 51.2607 25.184 51.1381 24.912C51.0207 24.64 50.9621 24.3227 50.9621 23.96C50.9621 23.64 51.0474 23.3333 51.2181 23.04C51.3941 22.7413 51.6767 22.4747 52.0661 22.24C52.4607 22.0053 52.9727 21.8133 53.6021 21.664C54.2367 21.5147 55.0154 21.4293 55.9381 21.408V20.816C55.9381 20.2027 55.8074 19.744 55.5461 19.44C55.2847 19.136 54.9007 18.984 54.3941 18.984C54.0527 18.984 53.7647 19.0267 53.5301 19.112C53.3007 19.1973 53.1007 19.2933 52.9301 19.4C52.7647 19.5013 52.6181 19.5947 52.4901 19.68C52.3674 19.7653 52.2394 19.808 52.1061 19.808C51.9994 19.808 51.9061 19.7787 51.8261 19.72C51.7514 19.6613 51.6901 19.592 51.6421 19.512L51.3621 19.008ZM66.6344 17.872V26H65.6984C65.4851 26 65.3464 25.896 65.2824 25.688L65.1704 24.872C64.9944 25.0587 64.8104 25.2293 64.6184 25.384C64.4264 25.5387 64.2211 25.672 64.0024 25.784C63.7838 25.8907 63.5518 25.9733 63.3064 26.032C63.0611 26.096 62.7971 26.128 62.5144 26.128C62.0664 26.128 61.6718 26.0533 61.3304 25.904C60.9944 25.7547 60.7118 25.5467 60.4824 25.28C60.2531 25.008 60.0798 24.6827 59.9624 24.304C59.8451 23.9253 59.7864 23.5067 59.7864 23.048V17.872H61.3544V23.048C61.3544 23.6293 61.4878 24.0827 61.7544 24.408C62.0211 24.728 62.4291 24.888 62.9784 24.888C63.3784 24.888 63.7518 24.7947 64.0984 24.608C64.4451 24.416 64.7704 24.1547 65.0744 23.824V17.872H66.6344ZM71.6759 26.128C71.0199 26.128 70.5133 25.944 70.1559 25.576C69.8039 25.208 69.6279 24.6827 69.6279 24V19.136H68.6839C68.5933 19.136 68.5159 19.1093 68.4519 19.056C68.3933 18.9973 68.3639 18.912 68.3639 18.8V18.168L69.6839 17.984L70.0359 15.56C70.0573 15.4693 70.0973 15.4 70.1559 15.352C70.2199 15.2987 70.2999 15.272 70.3959 15.272H71.1879V18H73.4919V19.136H71.1879V23.896C71.1879 24.216 71.2653 24.456 71.4199 24.616C71.5799 24.7707 71.7826 24.848 72.0279 24.848C72.1719 24.848 72.2946 24.8293 72.3959 24.792C72.5026 24.7547 72.5933 24.7147 72.6679 24.672C72.7426 24.624 72.8066 24.5813 72.8599 24.544C72.9133 24.5067 72.9613 24.488 73.0039 24.488C73.0573 24.488 73.0973 24.5013 73.1239 24.528C73.1559 24.5493 73.1879 24.5867 73.2199 24.64L73.6839 25.392C73.4279 25.6267 73.1239 25.808 72.7719 25.936C72.4199 26.064 72.0546 26.128 71.6759 26.128ZM82.3528 17.872L77.8408 28.36C77.7928 28.4773 77.7288 28.568 77.6488 28.632C77.5688 28.696 77.4515 28.728 77.2968 28.728H76.1368L77.6248 25.488L74.2888 17.872H75.6488C75.7821 17.872 75.8861 17.904 75.9608 17.968C76.0355 18.032 76.0888 18.104 76.1208 18.184L78.1848 23.064C78.2275 23.1867 78.2675 23.312 78.3048 23.44C78.3475 23.5627 78.3821 23.6853 78.4088 23.808C78.4461 23.68 78.4861 23.5547 78.5288 23.432C78.5715 23.304 78.6168 23.1787 78.6648 23.056L80.6568 18.184C80.6941 18.0933 80.7528 18.0187 80.8328 17.96C80.9128 17.9013 81.0035 17.872 81.1048 17.872H82.3528ZM96.1859 23.536C96.2819 23.536 96.3646 23.5733 96.4339 23.648L97.1059 24.384C96.6366 24.9387 96.0633 25.368 95.3859 25.672C94.7139 25.976 93.9033 26.128 92.9539 26.128C92.1219 26.128 91.3673 25.984 90.6899 25.696C90.0179 25.408 89.4419 25.0053 88.9619 24.488C88.4873 23.9707 88.1193 23.352 87.8579 22.632C87.5966 21.912 87.4659 21.12 87.4659 20.256C87.4659 19.392 87.6019 18.6 87.8739 17.88C88.1513 17.16 88.5379 16.5413 89.0339 16.024C89.5299 15.5067 90.1219 15.104 90.8099 14.816C91.5033 14.528 92.2686 14.384 93.1059 14.384C93.9219 14.384 94.6473 14.5173 95.2819 14.784C95.9166 15.0507 96.4686 15.4053 96.9379 15.848L96.3779 16.64C96.3406 16.6987 96.2926 16.7467 96.2339 16.784C96.1806 16.8213 96.1086 16.84 96.0179 16.84C95.9166 16.84 95.7966 16.7893 95.6579 16.688C95.5246 16.5867 95.3459 16.4747 95.1219 16.352C94.9033 16.224 94.6313 16.1093 94.3059 16.008C93.9806 15.9067 93.5753 15.856 93.0899 15.856C92.5193 15.856 91.9966 15.9573 91.5219 16.16C91.0473 16.3573 90.6366 16.6453 90.2899 17.024C89.9486 17.3973 89.6819 17.8587 89.4899 18.408C89.3033 18.952 89.2099 19.568 89.2099 20.256C89.2099 20.9547 89.3086 21.576 89.5059 22.12C89.7033 22.664 89.9753 23.1253 90.3219 23.504C90.6686 23.8827 91.0766 24.1707 91.5459 24.368C92.0153 24.5653 92.5219 24.664 93.0659 24.664C93.3966 24.664 93.6926 24.6453 93.9539 24.608C94.2206 24.5653 94.4633 24.504 94.6819 24.424C94.9059 24.344 95.1166 24.2427 95.3139 24.12C95.5113 23.992 95.7059 23.84 95.8979 23.664C95.9406 23.6267 95.9859 23.5973 96.0339 23.576C96.0819 23.5493 96.1326 23.536 96.1859 23.536ZM100.243 19.432C100.505 18.8987 100.819 18.48 101.187 18.176C101.555 17.872 101.998 17.72 102.515 17.72C102.691 17.72 102.857 17.7413 103.011 17.784C103.171 17.8213 103.31 17.88 103.427 17.96L103.323 19.136C103.286 19.28 103.198 19.352 103.059 19.352C102.985 19.352 102.873 19.3387 102.723 19.312C102.574 19.28 102.414 19.264 102.243 19.264C101.993 19.264 101.771 19.3013 101.579 19.376C101.387 19.4453 101.214 19.552 101.059 19.696C100.91 19.8347 100.777 20.008 100.659 20.216C100.542 20.4187 100.433 20.6507 100.331 20.912V26H98.7713V17.872H99.6673C99.838 17.872 99.9526 17.904 100.011 17.968C100.075 18.0267 100.121 18.1333 100.147 18.288L100.243 19.432ZM110.038 21.032C110.038 20.7227 109.992 20.4373 109.902 20.176C109.816 19.9147 109.688 19.688 109.518 19.496C109.347 19.304 109.139 19.1547 108.894 19.048C108.648 18.9413 108.366 18.888 108.046 18.888C107.39 18.888 106.872 19.0773 106.494 19.456C106.12 19.8347 105.883 20.36 105.782 21.032H110.038ZM111.326 24.84C111.134 25.064 110.912 25.2587 110.662 25.424C110.411 25.584 110.144 25.7147 109.862 25.816C109.579 25.9173 109.286 25.992 108.982 26.04C108.683 26.088 108.387 26.112 108.094 26.112C107.534 26.112 107.014 26.0187 106.534 25.832C106.059 25.64 105.646 25.3627 105.294 25C104.947 24.632 104.675 24.1787 104.478 23.64C104.286 23.096 104.19 22.472 104.19 21.768C104.19 21.2027 104.278 20.6773 104.454 20.192C104.63 19.7013 104.88 19.2747 105.206 18.912C105.536 18.5493 105.939 18.264 106.414 18.056C106.888 17.848 107.422 17.744 108.014 17.744C108.51 17.744 108.966 17.8267 109.382 17.992C109.803 18.152 110.166 18.3867 110.47 18.696C110.774 19.0053 111.011 19.3867 111.182 19.84C111.358 20.2933 111.446 20.8107 111.446 21.392C111.446 21.632 111.419 21.7947 111.366 21.88C111.312 21.96 111.214 22 111.07 22H105.742C105.758 22.4853 105.827 22.9093 105.95 23.272C106.072 23.6293 106.24 23.928 106.454 24.168C106.672 24.408 106.931 24.5867 107.23 24.704C107.528 24.8213 107.862 24.88 108.23 24.88C108.576 24.88 108.875 24.84 109.126 24.76C109.382 24.68 109.6 24.5947 109.782 24.504C109.968 24.408 110.123 24.32 110.246 24.24C110.374 24.16 110.486 24.12 110.582 24.12C110.71 24.12 110.808 24.168 110.878 24.264L111.326 24.84ZM117.811 22.392C117.176 22.4133 116.637 22.464 116.195 22.544C115.752 22.6187 115.392 22.72 115.115 22.848C114.837 22.976 114.637 23.128 114.515 23.304C114.392 23.4747 114.331 23.6667 114.331 23.88C114.331 24.0827 114.363 24.2587 114.427 24.408C114.496 24.552 114.587 24.672 114.699 24.768C114.816 24.8587 114.952 24.9253 115.107 24.968C115.261 25.0107 115.429 25.032 115.611 25.032C115.851 25.032 116.069 25.008 116.267 24.96C116.469 24.912 116.659 24.8453 116.835 24.76C117.011 24.6693 117.179 24.56 117.339 24.432C117.499 24.304 117.656 24.1573 117.811 23.992V22.392ZM113.235 19.008C113.688 18.576 114.179 18.2533 114.707 18.04C115.24 17.8267 115.824 17.72 116.459 17.72C116.923 17.72 117.333 17.7973 117.691 17.952C118.048 18.1013 118.349 18.312 118.595 18.584C118.84 18.856 119.024 19.1813 119.147 19.56C119.275 19.9387 119.339 20.3573 119.339 20.816V26H118.643C118.488 26 118.371 25.976 118.291 25.928C118.211 25.8747 118.147 25.7787 118.099 25.64L117.931 24.928C117.723 25.12 117.517 25.2907 117.315 25.44C117.112 25.584 116.899 25.7093 116.675 25.816C116.456 25.9173 116.221 25.9947 115.971 26.048C115.72 26.1013 115.443 26.128 115.139 26.128C114.819 26.128 114.517 26.0853 114.235 26C113.957 25.9093 113.715 25.7733 113.507 25.592C113.299 25.4107 113.133 25.184 113.011 24.912C112.893 24.64 112.835 24.3227 112.835 23.96C112.835 23.64 112.92 23.3333 113.091 23.04C113.267 22.7413 113.549 22.4747 113.939 22.24C114.333 22.0053 114.845 21.8133 115.475 21.664C116.109 21.5147 116.888 21.4293 117.811 21.408V20.816C117.811 20.2027 117.68 19.744 117.419 19.44C117.157 19.136 116.773 18.984 116.267 18.984C115.925 18.984 115.637 19.0267 115.403 19.112C115.173 19.1973 114.973 19.2933 114.803 19.4C114.637 19.5013 114.491 19.5947 114.363 19.68C114.24 19.7653 114.112 19.808 113.979 19.808C113.872 19.808 113.779 19.7787 113.699 19.72C113.624 19.6613 113.563 19.592 113.515 19.512L113.235 19.008ZM124.182 26.128C123.526 26.128 123.019 25.944 122.662 25.576C122.31 25.208 122.134 24.6827 122.134 24V19.136H121.19C121.099 19.136 121.022 19.1093 120.958 19.056C120.899 18.9973 120.87 18.912 120.87 18.8V18.168L122.19 17.984L122.542 15.56C122.563 15.4693 122.603 15.4 122.662 15.352C122.726 15.2987 122.806 15.272 122.902 15.272H123.694V18H125.998V19.136H123.694V23.896C123.694 24.216 123.771 24.456 123.926 24.616C124.086 24.7707 124.288 24.848 124.534 24.848C124.678 24.848 124.8 24.8293 124.902 24.792C125.008 24.7547 125.099 24.7147 125.174 24.672C125.248 24.624 125.312 24.5813 125.366 24.544C125.419 24.5067 125.467 24.488 125.51 24.488C125.563 24.488 125.603 24.5013 125.63 24.528C125.662 24.5493 125.694 24.5867 125.726 24.64L126.19 25.392C125.934 25.6267 125.63 25.808 125.278 25.936C124.926 26.064 124.56 26.128 124.182 26.128ZM131.172 17.744C131.769 17.744 132.308 17.8427 132.788 18.04C133.273 18.232 133.684 18.512 134.02 18.88C134.361 19.2427 134.622 19.6827 134.804 20.2C134.985 20.712 135.076 21.288 135.076 21.928C135.076 22.568 134.985 23.1467 134.804 23.664C134.622 24.1813 134.361 24.6213 134.02 24.984C133.684 25.3467 133.273 25.6267 132.788 25.824C132.308 26.016 131.769 26.112 131.172 26.112C130.569 26.112 130.025 26.016 129.54 25.824C129.06 25.6267 128.649 25.3467 128.308 24.984C127.966 24.6213 127.702 24.1813 127.516 23.664C127.334 23.1467 127.244 22.568 127.244 21.928C127.244 21.288 127.334 20.712 127.516 20.2C127.702 19.6827 127.966 19.2427 128.308 18.88C128.649 18.512 129.06 18.232 129.54 18.04C130.025 17.8427 130.569 17.744 131.172 17.744ZM131.172 24.896C131.94 24.896 132.513 24.6373 132.892 24.12C133.27 23.6027 133.46 22.8747 133.46 21.936C133.46 20.9973 133.27 20.2693 132.892 19.752C132.513 19.2293 131.94 18.968 131.172 18.968C130.393 18.968 129.812 19.2293 129.428 19.752C129.049 20.2693 128.86 20.9973 128.86 21.936C128.86 22.8747 129.049 23.6027 129.428 24.12C129.812 24.6373 130.393 24.896 131.172 24.896ZM138.609 19.432C138.87 18.8987 139.185 18.48 139.553 18.176C139.921 17.872 140.364 17.72 140.881 17.72C141.057 17.72 141.222 17.7413 141.377 17.784C141.537 17.8213 141.676 17.88 141.793 17.96L141.689 19.136C141.652 19.28 141.564 19.352 141.425 19.352C141.35 19.352 141.238 19.3387 141.089 19.312C140.94 19.28 140.78 19.264 140.609 19.264C140.358 19.264 140.137 19.3013 139.945 19.376C139.753 19.4453 139.58 19.552 139.425 19.696C139.276 19.8347 139.142 20.008 139.025 20.216C138.908 20.4187 138.798 20.6507 138.697 20.912V26H137.137V17.872H138.033C138.204 17.872 138.318 17.904 138.377 17.968C138.441 18.0267 138.486 18.1333 138.513 18.288L138.609 19.432Z" fill="#3C3C6F"/>
<defs>
<filter id="filter0_b_450_5785" x="-30" y="-30" width="231" height="98" filterUnits="userSpaceOnUse" color-interpolation-filters="sRGB">
<feFlood flood-opacity="0" result="BackgroundImageFix"/>
<feGaussianBlur in="BackgroundImageFix" stdDeviation="15"/>
<feComposite in2="SourceAlpha" operator="in" result="effect1_backgroundBlur_450_5785"/>
<feBlend mode="normal" in="SourceGraphic" in2="effect1_backgroundBlur_450_5785" result="shape"/>
</filter>
<linearGradient id="paint0_linear_450_5785" x1="12.073" y1="-6.09434" x2="77.2395" y2="4.50636" gradientUnits="userSpaceOnUse">
<stop stop-color="white"/>
<stop offset="1" stop-color="white" stop-opacity="0"/>
</linearGradient>
</defs>
</svg>
