<svg width="96" height="38" viewBox="0 0 96 38" fill="none" xmlns="http://www.w3.org/2000/svg">
<g filter="url(#filter0_b_450_5767)">
<path d="M0 19C0 8.50659 8.50659 0 19 0H77C87.4934 0 96 8.50659 96 19C96 29.4934 87.4934 38 77 38H19C8.50659 38 0 29.4934 0 19Z" fill="white" fill-opacity="0.6"/>
<path d="M1 19C1 9.05888 9.05888 1 19 1H77C86.9411 1 95 9.05888 95 19C95 28.9411 86.9411 37 77 37H19C9.05888 37 1 28.9411 1 19Z" stroke="url(#paint0_linear_450_5767)" stroke-opacity="0.9" stroke-width="2"/>
</g>
<path d="M36.8059 16.384C36.7526 16.4747 36.6966 16.5413 36.6379 16.584C36.5793 16.6267 36.5046 16.648 36.4139 16.648C36.3179 16.648 36.2086 16.6053 36.0859 16.52C35.9633 16.4293 35.8086 16.3307 35.6219 16.224C35.4406 16.112 35.2219 16.0133 34.9659 15.928C34.7099 15.8373 34.4033 15.792 34.0459 15.792C33.7099 15.792 33.4139 15.8373 33.1579 15.928C32.9073 16.0133 32.6966 16.1333 32.5259 16.288C32.3553 16.4373 32.2246 16.616 32.1339 16.824C32.0486 17.0267 32.0059 17.248 32.0059 17.488C32.0059 17.7973 32.0833 18.0533 32.2379 18.256C32.3979 18.4587 32.6059 18.632 32.8619 18.776C33.1179 18.92 33.4086 19.0453 33.7339 19.152C34.0593 19.2587 34.3926 19.3707 34.7339 19.488C35.0753 19.6 35.4086 19.7307 35.7339 19.88C36.0593 20.0293 36.3499 20.2187 36.6059 20.448C36.8619 20.672 37.0673 20.9493 37.2219 21.28C37.3819 21.6053 37.4619 22.0053 37.4619 22.48C37.4619 22.9867 37.3739 23.4613 37.1979 23.904C37.0273 24.3467 36.7766 24.7333 36.4459 25.064C36.1153 25.3947 35.7073 25.656 35.2219 25.848C34.7419 26.0347 34.1953 26.128 33.5819 26.128C33.2139 26.128 32.8566 26.0907 32.5099 26.016C32.1633 25.9467 31.8353 25.848 31.5259 25.72C31.2166 25.5867 30.9259 25.4293 30.6539 25.248C30.3873 25.0613 30.1473 24.8533 29.9339 24.624L30.4219 23.808C30.4699 23.744 30.5259 23.6907 30.5899 23.648C30.6593 23.6053 30.7366 23.584 30.8219 23.584C30.9339 23.584 31.0619 23.6427 31.2059 23.76C31.3553 23.8773 31.5366 24.008 31.7499 24.152C31.9686 24.2907 32.2273 24.4187 32.5259 24.536C32.8299 24.6533 33.1979 24.712 33.6299 24.712C33.9819 24.712 34.2966 24.6667 34.5739 24.576C34.8513 24.48 35.0833 24.3467 35.2699 24.176C35.4619 24 35.6086 23.7893 35.7099 23.544C35.8113 23.2987 35.8619 23.0267 35.8619 22.728C35.8619 22.392 35.7846 22.1173 35.6299 21.904C35.4753 21.6907 35.2699 21.512 35.0139 21.368C34.7579 21.224 34.4673 21.1013 34.1419 21C33.8166 20.8987 33.4833 20.7947 33.1419 20.688C32.8006 20.576 32.4673 20.448 32.1419 20.304C31.8166 20.16 31.5259 19.9733 31.2699 19.744C31.0139 19.5093 30.8086 19.2187 30.6539 18.872C30.4993 18.52 30.4219 18.088 30.4219 17.576C30.4219 17.1653 30.5019 16.768 30.6619 16.384C30.8219 16 31.0539 15.6613 31.3579 15.368C31.6673 15.0693 32.0459 14.832 32.4939 14.656C32.9419 14.4747 33.4539 14.384 34.0299 14.384C34.6753 14.384 35.2673 14.488 35.8059 14.696C36.3499 14.8987 36.8219 15.192 37.2219 15.576L36.8059 16.384ZM43.8237 22.392C43.189 22.4133 42.6504 22.464 42.2077 22.544C41.765 22.6187 41.405 22.72 41.1277 22.848C40.8504 22.976 40.6504 23.128 40.5277 23.304C40.405 23.4747 40.3437 23.6667 40.3437 23.88C40.3437 24.0827 40.3757 24.2587 40.4397 24.408C40.509 24.552 40.5997 24.672 40.7117 24.768C40.829 24.8587 40.965 24.9253 41.1197 24.968C41.2744 25.0107 41.4424 25.032 41.6237 25.032C41.8637 25.032 42.0824 25.008 42.2797 24.96C42.4824 24.912 42.6717 24.8453 42.8477 24.76C43.0237 24.6693 43.1917 24.56 43.3517 24.432C43.5117 24.304 43.669 24.1573 43.8237 23.992V22.392ZM39.2477 19.008C39.701 18.576 40.1917 18.2533 40.7197 18.04C41.253 17.8267 41.837 17.72 42.4717 17.72C42.9357 17.72 43.3464 17.7973 43.7037 17.952C44.061 18.1013 44.3624 18.312 44.6077 18.584C44.853 18.856 45.037 19.1813 45.1597 19.56C45.2877 19.9387 45.3517 20.3573 45.3517 20.816V26H44.6557C44.501 26 44.3837 25.976 44.3037 25.928C44.2237 25.8747 44.1597 25.7787 44.1117 25.64L43.9437 24.928C43.7357 25.12 43.5304 25.2907 43.3277 25.44C43.125 25.584 42.9117 25.7093 42.6877 25.816C42.469 25.9173 42.2344 25.9947 41.9837 26.048C41.733 26.1013 41.4557 26.128 41.1517 26.128C40.8317 26.128 40.5304 26.0853 40.2477 26C39.9704 25.9093 39.7277 25.7733 39.5197 25.592C39.3117 25.4107 39.1464 25.184 39.0237 24.912C38.9064 24.64 38.8477 24.3227 38.8477 23.96C38.8477 23.64 38.933 23.3333 39.1037 23.04C39.2797 22.7413 39.5624 22.4747 39.9517 22.24C40.3464 22.0053 40.8584 21.8133 41.4877 21.664C42.1224 21.5147 42.901 21.4293 43.8237 21.408V20.816C43.8237 20.2027 43.693 19.744 43.4317 19.44C43.1704 19.136 42.7864 18.984 42.2797 18.984C41.9384 18.984 41.6504 19.0267 41.4157 19.112C41.1864 19.1973 40.9864 19.2933 40.8157 19.4C40.6504 19.5013 40.5037 19.5947 40.3757 19.68C40.253 19.7653 40.125 19.808 39.9917 19.808C39.885 19.808 39.7917 19.7787 39.7117 19.72C39.637 19.6613 39.5757 19.592 39.5277 19.512L39.2477 19.008ZM49.3601 14.192V26H47.7921V14.192H49.3601ZM57.2922 21.032C57.2922 20.7227 57.2469 20.4373 57.1562 20.176C57.0709 19.9147 56.9429 19.688 56.7722 19.496C56.6015 19.304 56.3935 19.1547 56.1482 19.048C55.9029 18.9413 55.6202 18.888 55.3002 18.888C54.6442 18.888 54.1269 19.0773 53.7482 19.456C53.3749 19.8347 53.1375 20.36 53.0362 21.032H57.2922ZM58.5802 24.84C58.3882 25.064 58.1669 25.2587 57.9162 25.424C57.6655 25.584 57.3989 25.7147 57.1162 25.816C56.8335 25.9173 56.5402 25.992 56.2362 26.04C55.9375 26.088 55.6415 26.112 55.3482 26.112C54.7882 26.112 54.2682 26.0187 53.7882 25.832C53.3135 25.64 52.9002 25.3627 52.5482 25C52.2015 24.632 51.9295 24.1787 51.7322 23.64C51.5402 23.096 51.4442 22.472 51.4442 21.768C51.4442 21.2027 51.5322 20.6773 51.7082 20.192C51.8842 19.7013 52.1349 19.2747 52.4602 18.912C52.7909 18.5493 53.1935 18.264 53.6682 18.056C54.1429 17.848 54.6762 17.744 55.2682 17.744C55.7642 17.744 56.2202 17.8267 56.6362 17.992C57.0575 18.152 57.4202 18.3867 57.7242 18.696C58.0282 19.0053 58.2655 19.3867 58.4362 19.84C58.6122 20.2933 58.7002 20.8107 58.7002 21.392C58.7002 21.632 58.6735 21.7947 58.6202 21.88C58.5669 21.96 58.4682 22 58.3242 22H52.9962C53.0122 22.4853 53.0815 22.9093 53.2042 23.272C53.3269 23.6293 53.4949 23.928 53.7082 24.168C53.9269 24.408 54.1855 24.5867 54.4842 24.704C54.7829 24.8213 55.1162 24.88 55.4842 24.88C55.8309 24.88 56.1295 24.84 56.3802 24.76C56.6362 24.68 56.8549 24.5947 57.0362 24.504C57.2229 24.408 57.3775 24.32 57.5002 24.24C57.6282 24.16 57.7402 24.12 57.8362 24.12C57.9642 24.12 58.0629 24.168 58.1322 24.264L58.5802 24.84ZM65.4889 19.272C65.4463 19.3413 65.4009 19.392 65.3529 19.424C65.3049 19.4507 65.2436 19.464 65.1689 19.464C65.0836 19.464 64.9876 19.4347 64.8809 19.376C64.7796 19.3173 64.6543 19.2533 64.5049 19.184C64.3609 19.1147 64.1903 19.0507 63.9929 18.992C63.7956 18.9333 63.5609 18.904 63.2889 18.904C63.0649 18.904 62.8596 18.9333 62.6729 18.992C62.4916 19.0453 62.3369 19.1227 62.2089 19.224C62.0809 19.32 61.9823 19.4373 61.9129 19.576C61.8436 19.7093 61.8089 19.8533 61.8089 20.008C61.8089 20.2107 61.8676 20.3787 61.9849 20.512C62.1076 20.6453 62.2649 20.76 62.4569 20.856C62.6543 20.952 62.8756 21.04 63.1209 21.12C63.3716 21.1947 63.6249 21.2747 63.8809 21.36C64.1423 21.4453 64.3956 21.544 64.6409 21.656C64.8916 21.7627 65.1129 21.8987 65.3049 22.064C65.5023 22.224 65.6596 22.4187 65.7769 22.648C65.8996 22.8773 65.9609 23.1573 65.9609 23.488C65.9609 23.8667 65.8916 24.2187 65.7529 24.544C65.6196 24.864 65.4196 25.1413 65.1529 25.376C64.8916 25.6107 64.5663 25.7947 64.1769 25.928C63.7876 26.0613 63.3423 26.128 62.8409 26.128C62.2809 26.128 61.7636 26.0347 61.2889 25.848C60.8143 25.6613 60.4169 25.424 60.0969 25.136L60.4649 24.536C60.5076 24.4613 60.5609 24.4053 60.6249 24.368C60.6889 24.3253 60.7743 24.304 60.8809 24.304C60.9823 24.304 61.0863 24.3413 61.1929 24.416C61.2996 24.4907 61.4276 24.5733 61.5769 24.664C61.7263 24.7493 61.9076 24.8293 62.1209 24.904C62.3343 24.9733 62.6009 25.008 62.9209 25.008C63.1876 25.008 63.4196 24.976 63.6169 24.912C63.8143 24.8427 63.9769 24.752 64.1049 24.64C64.2383 24.5227 64.3369 24.3893 64.4009 24.24C64.4649 24.0907 64.4969 23.9333 64.4969 23.768C64.4969 23.5547 64.4356 23.3787 64.3129 23.24C64.1956 23.096 64.0383 22.9733 63.8409 22.872C63.6489 22.7707 63.4276 22.6827 63.1769 22.608C62.9263 22.5333 62.6703 22.4533 62.4089 22.368C62.1476 22.2827 61.8916 22.184 61.6409 22.072C61.3903 21.96 61.1663 21.8187 60.9689 21.648C60.7769 21.4773 60.6196 21.2693 60.4969 21.024C60.3796 20.7787 60.3209 20.48 60.3209 20.128C60.3209 19.8133 60.3849 19.512 60.5129 19.224C60.6463 18.936 60.8356 18.6827 61.0809 18.464C61.3316 18.2453 61.6383 18.072 62.0009 17.944C62.3689 17.8107 62.7876 17.744 63.2569 17.744C63.7956 17.744 64.2809 17.8293 64.7129 18C65.1503 18.1707 65.5236 18.4053 65.8329 18.704L65.4889 19.272Z" fill="#3C3C6F"/>
<defs>
<filter id="filter0_b_450_5767" x="-30" y="-30" width="156" height="98" filterUnits="userSpaceOnUse" color-interpolation-filters="sRGB">
<feFlood flood-opacity="0" result="BackgroundImageFix"/>
<feGaussianBlur in="BackgroundImageFix" stdDeviation="15"/>
<feComposite in2="SourceAlpha" operator="in" result="effect1_backgroundBlur_450_5767"/>
<feBlend mode="normal" in="SourceGraphic" in2="effect1_backgroundBlur_450_5767" result="shape"/>
</filter>
<linearGradient id="paint0_linear_450_5767" x1="6.7778" y1="-6.09434" x2="44.02" y2="-2.69323" gradientUnits="userSpaceOnUse">
<stop stop-color="white"/>
<stop offset="1" stop-color="white" stop-opacity="0"/>
</linearGradient>
</defs>
</svg>
