<svg width="297" height="38" viewBox="0 0 297 38" fill="none" xmlns="http://www.w3.org/2000/svg">
<g filter="url(#filter0_b_450_5823)">
<path d="M0 19C0 8.50659 8.50659 0 19 0H278C288.493 0 297 8.50659 297 19C297 29.4934 288.493 38 278 38H19C8.50659 38 0 29.4934 0 19Z" fill="white" fill-opacity="0.6"/>
<path d="M1 19C1 9.05887 9.05887 1 19 1H278C287.941 1 296 9.05888 296 19C296 28.9411 287.941 37 278 37H19C9.05888 37 1 28.9411 1 19Z" stroke="url(#paint0_linear_450_5823)" stroke-opacity="0.9" stroke-width="2"/>
</g>
<path d="M40.4094 20.256C40.4094 21.1147 40.2707 21.904 39.9934 22.624C39.7214 23.3387 39.3347 23.9573 38.8334 24.48C38.332 24.9973 37.732 25.4 37.0334 25.688C36.3347 25.976 35.5587 26.12 34.7054 26.12C33.8574 26.12 33.0814 25.976 32.3774 25.688C31.6787 25.4 31.0787 24.9973 30.5774 24.48C30.0814 23.9573 29.6947 23.3387 29.4174 22.624C29.14 21.904 29.0014 21.1147 29.0014 20.256C29.0014 19.4027 29.14 18.616 29.4174 17.896C29.6947 17.176 30.0814 16.5573 30.5774 16.04C31.0787 15.5173 31.6787 15.112 32.3774 14.824C33.0814 14.5307 33.8574 14.384 34.7054 14.384C35.5587 14.384 36.3347 14.5307 37.0334 14.824C37.732 15.112 38.332 15.5173 38.8334 16.04C39.3347 16.5573 39.7214 17.176 39.9934 17.896C40.2707 18.616 40.4094 19.4027 40.4094 20.256ZM38.6654 20.256C38.6654 19.5733 38.572 18.96 38.3854 18.416C38.1987 17.872 37.932 17.4107 37.5854 17.032C37.244 16.6533 36.828 16.3627 36.3374 16.16C35.852 15.9573 35.308 15.856 34.7054 15.856C34.1027 15.856 33.556 15.9573 33.0654 16.16C32.58 16.3627 32.164 16.6533 31.8174 17.032C31.4707 17.4107 31.204 17.872 31.0174 18.416C30.8307 18.96 30.7374 19.5733 30.7374 20.256C30.7374 20.944 30.8307 21.56 31.0174 22.104C31.204 22.6427 31.4707 23.1013 31.8174 23.48C32.164 23.8587 32.58 24.1493 33.0654 24.352C33.556 24.5493 34.1027 24.648 34.7054 24.648C35.308 24.648 35.852 24.5493 36.3374 24.352C36.828 24.1493 37.244 23.8587 37.5854 23.48C37.932 23.1013 38.1987 22.6427 38.3854 22.104C38.572 21.56 38.6654 20.944 38.6654 20.256ZM43.9529 24C44.2089 24.336 44.4835 24.5707 44.7769 24.704C45.0755 24.8373 45.4089 24.904 45.7769 24.904C46.4915 24.904 47.0435 24.648 47.4329 24.136C47.8275 23.6187 48.0249 22.8667 48.0249 21.88C48.0249 21.3627 47.9795 20.9227 47.8889 20.56C47.8035 20.192 47.6755 19.8933 47.5049 19.664C47.3395 19.4293 47.1342 19.2587 46.8889 19.152C46.6435 19.04 46.3662 18.984 46.0569 18.984C45.6035 18.984 45.2089 19.0853 44.8729 19.288C44.5422 19.4907 44.2355 19.7787 43.9529 20.152V24ZM43.8729 19.088C44.0435 18.8853 44.2249 18.7013 44.4169 18.536C44.6142 18.3653 44.8249 18.2213 45.0489 18.104C45.2729 17.9813 45.5102 17.888 45.7609 17.824C46.0169 17.7547 46.2889 17.72 46.5769 17.72C47.0409 17.72 47.4595 17.8107 47.8329 17.992C48.2115 18.1733 48.5342 18.44 48.8009 18.792C49.0675 19.144 49.2729 19.5787 49.4169 20.096C49.5662 20.6133 49.6409 21.208 49.6409 21.88C49.6409 22.4827 49.5582 23.0427 49.3929 23.56C49.2329 24.072 49.0009 24.5173 48.6969 24.896C48.3982 25.2747 48.0302 25.5733 47.5929 25.792C47.1609 26.0053 46.6729 26.112 46.1289 26.112C45.6435 26.112 45.2275 26.032 44.8809 25.872C44.5342 25.712 44.2249 25.488 43.9529 25.2V28.728H42.3929V17.872H43.3289C43.5475 17.872 43.6835 17.976 43.7369 18.184L43.8729 19.088ZM57.0969 21.032C57.0969 20.7227 57.0515 20.4373 56.9609 20.176C56.8755 19.9147 56.7475 19.688 56.5769 19.496C56.4062 19.304 56.1982 19.1547 55.9529 19.048C55.7075 18.9413 55.4249 18.888 55.1049 18.888C54.4489 18.888 53.9315 19.0773 53.5529 19.456C53.1795 19.8347 52.9422 20.36 52.8409 21.032H57.0969ZM58.3849 24.84C58.1929 25.064 57.9715 25.2587 57.7209 25.424C57.4702 25.584 57.2035 25.7147 56.9209 25.816C56.6382 25.9173 56.3449 25.992 56.0409 26.04C55.7422 26.088 55.4462 26.112 55.1529 26.112C54.5929 26.112 54.0729 26.0187 53.5929 25.832C53.1182 25.64 52.7049 25.3627 52.3529 25C52.0062 24.632 51.7342 24.1787 51.5369 23.64C51.3449 23.096 51.2489 22.472 51.2489 21.768C51.2489 21.2027 51.3369 20.6773 51.5129 20.192C51.6889 19.7013 51.9395 19.2747 52.2649 18.912C52.5955 18.5493 52.9982 18.264 53.4729 18.056C53.9475 17.848 54.4809 17.744 55.0729 17.744C55.5689 17.744 56.0249 17.8267 56.4409 17.992C56.8622 18.152 57.2249 18.3867 57.5289 18.696C57.8329 19.0053 58.0702 19.3867 58.2409 19.84C58.4169 20.2933 58.5049 20.8107 58.5049 21.392C58.5049 21.632 58.4782 21.7947 58.4249 21.88C58.3715 21.96 58.2729 22 58.1289 22H52.8009C52.8169 22.4853 52.8862 22.9093 53.0089 23.272C53.1315 23.6293 53.2995 23.928 53.5129 24.168C53.7315 24.408 53.9902 24.5867 54.2889 24.704C54.5875 24.8213 54.9209 24.88 55.2889 24.88C55.6355 24.88 55.9342 24.84 56.1849 24.76C56.4409 24.68 56.6595 24.5947 56.8409 24.504C57.0275 24.408 57.1822 24.32 57.3049 24.24C57.4329 24.16 57.5449 24.12 57.6409 24.12C57.7689 24.12 57.8675 24.168 57.9369 24.264L58.3849 24.84ZM61.9736 19.432C62.235 18.8987 62.5496 18.48 62.9176 18.176C63.2856 17.872 63.7283 17.72 64.2456 17.72C64.4216 17.72 64.587 17.7413 64.7416 17.784C64.9016 17.8213 65.0403 17.88 65.1576 17.96L65.0536 19.136C65.0163 19.28 64.9283 19.352 64.7896 19.352C64.715 19.352 64.603 19.3387 64.4536 19.312C64.3043 19.28 64.1443 19.264 63.9736 19.264C63.723 19.264 63.5016 19.3013 63.3096 19.376C63.1176 19.4453 62.9443 19.552 62.7896 19.696C62.6403 19.8347 62.507 20.008 62.3896 20.216C62.2723 20.4187 62.163 20.6507 62.0616 20.912V26H60.5016V17.872H61.3976C61.5683 17.872 61.683 17.904 61.7416 17.968C61.8056 18.0267 61.851 18.1333 61.8776 18.288L61.9736 19.432ZM70.924 22.392C70.2893 22.4133 69.7507 22.464 69.308 22.544C68.8653 22.6187 68.5053 22.72 68.228 22.848C67.9507 22.976 67.7507 23.128 67.628 23.304C67.5053 23.4747 67.444 23.6667 67.444 23.88C67.444 24.0827 67.476 24.2587 67.54 24.408C67.6093 24.552 67.7 24.672 67.812 24.768C67.9293 24.8587 68.0653 24.9253 68.22 24.968C68.3747 25.0107 68.5427 25.032 68.724 25.032C68.964 25.032 69.1827 25.008 69.38 24.96C69.5827 24.912 69.772 24.8453 69.948 24.76C70.124 24.6693 70.292 24.56 70.452 24.432C70.612 24.304 70.7693 24.1573 70.924 23.992V22.392ZM66.348 19.008C66.8013 18.576 67.292 18.2533 67.82 18.04C68.3533 17.8267 68.9373 17.72 69.572 17.72C70.036 17.72 70.4467 17.7973 70.804 17.952C71.1613 18.1013 71.4627 18.312 71.708 18.584C71.9533 18.856 72.1373 19.1813 72.26 19.56C72.388 19.9387 72.452 20.3573 72.452 20.816V26H71.756C71.6013 26 71.484 25.976 71.404 25.928C71.324 25.8747 71.26 25.7787 71.212 25.64L71.044 24.928C70.836 25.12 70.6307 25.2907 70.428 25.44C70.2253 25.584 70.012 25.7093 69.788 25.816C69.5693 25.9173 69.3347 25.9947 69.084 26.048C68.8333 26.1013 68.556 26.128 68.252 26.128C67.932 26.128 67.6307 26.0853 67.348 26C67.0707 25.9093 66.828 25.7733 66.62 25.592C66.412 25.4107 66.2467 25.184 66.124 24.912C66.0067 24.64 65.948 24.3227 65.948 23.96C65.948 23.64 66.0333 23.3333 66.204 23.04C66.38 22.7413 66.6627 22.4747 67.052 22.24C67.4467 22.0053 67.9587 21.8133 68.588 21.664C69.2227 21.5147 70.0013 21.4293 70.924 21.408V20.816C70.924 20.2027 70.7933 19.744 70.532 19.44C70.2707 19.136 69.8867 18.984 69.38 18.984C69.0387 18.984 68.7507 19.0267 68.516 19.112C68.2867 19.1973 68.0867 19.2933 67.916 19.4C67.7507 19.5013 67.604 19.5947 67.476 19.68C67.3533 19.7653 67.2253 19.808 67.092 19.808C66.9853 19.808 66.892 19.7787 66.812 19.72C66.7373 19.6613 66.676 19.592 66.628 19.512L66.348 19.008ZM82.455 26H80.887V19.136H76.807V23.896C76.807 24.216 76.8843 24.456 77.039 24.616C77.199 24.7707 77.4017 24.848 77.647 24.848C77.791 24.848 77.9137 24.8293 78.015 24.792C78.1217 24.7547 78.2123 24.7147 78.287 24.672C78.3617 24.624 78.4257 24.5813 78.479 24.544C78.5323 24.5067 78.5803 24.488 78.623 24.488C78.6763 24.488 78.7163 24.5013 78.743 24.528C78.775 24.5493 78.807 24.5867 78.839 24.64L79.303 25.392C79.047 25.6267 78.743 25.808 78.391 25.936C78.039 26.064 77.6737 26.128 77.295 26.128C76.639 26.128 76.1323 25.944 75.775 25.576C75.423 25.208 75.247 24.6827 75.247 24V19.136H74.303C74.2123 19.136 74.135 19.1093 74.071 19.056C74.0123 18.9973 73.983 18.912 73.983 18.8V18.168L75.311 17.984L75.655 15.56C75.6763 15.4693 75.7163 15.4 75.775 15.352C75.839 15.2987 75.919 15.272 76.015 15.272H76.807V18H82.455V26ZM82.807 15.312C82.807 15.456 82.7777 15.5947 82.719 15.728C82.6603 15.856 82.5803 15.9707 82.479 16.072C82.383 16.168 82.2683 16.2453 82.135 16.304C82.0017 16.3573 81.863 16.384 81.719 16.384C81.575 16.384 81.439 16.3573 81.311 16.304C81.183 16.2453 81.0683 16.168 80.967 16.072C80.871 15.9707 80.7937 15.856 80.735 15.728C80.6817 15.5947 80.655 15.456 80.655 15.312C80.655 15.1627 80.6817 15.0213 80.735 14.888C80.7937 14.7547 80.871 14.64 80.967 14.544C81.0683 14.4427 81.183 14.3653 81.311 14.312C81.439 14.2533 81.575 14.224 81.719 14.224C81.863 14.224 82.0017 14.2533 82.135 14.312C82.2683 14.3653 82.383 14.4427 82.479 14.544C82.5803 14.64 82.6603 14.7547 82.719 14.888C82.7777 15.0213 82.807 15.1627 82.807 15.312ZM88.5037 17.744C89.1011 17.744 89.6397 17.8427 90.1197 18.04C90.6051 18.232 91.0157 18.512 91.3517 18.88C91.6931 19.2427 91.9544 19.6827 92.1357 20.2C92.3171 20.712 92.4077 21.288 92.4077 21.928C92.4077 22.568 92.3171 23.1467 92.1357 23.664C91.9544 24.1813 91.6931 24.6213 91.3517 24.984C91.0157 25.3467 90.6051 25.6267 90.1197 25.824C89.6397 26.016 89.1011 26.112 88.5037 26.112C87.9011 26.112 87.3571 26.016 86.8717 25.824C86.3917 25.6267 85.9811 25.3467 85.6397 24.984C85.2984 24.6213 85.0344 24.1813 84.8477 23.664C84.6664 23.1467 84.5757 22.568 84.5757 21.928C84.5757 21.288 84.6664 20.712 84.8477 20.2C85.0344 19.6827 85.2984 19.2427 85.6397 18.88C85.9811 18.512 86.3917 18.232 86.8717 18.04C87.3571 17.8427 87.9011 17.744 88.5037 17.744ZM88.5037 24.896C89.2717 24.896 89.8451 24.6373 90.2237 24.12C90.6024 23.6027 90.7917 22.8747 90.7917 21.936C90.7917 20.9973 90.6024 20.2693 90.2237 19.752C89.8451 19.2293 89.2717 18.968 88.5037 18.968C87.7251 18.968 87.1437 19.2293 86.7597 19.752C86.3811 20.2693 86.1917 20.9973 86.1917 21.936C86.1917 22.8747 86.3811 23.6027 86.7597 24.12C87.1437 24.6373 87.7251 24.896 88.5037 24.896ZM95.9331 19C96.1091 18.8133 96.2931 18.6427 96.4851 18.488C96.6771 18.3333 96.8798 18.2027 97.0931 18.096C97.3118 17.984 97.5438 17.8987 97.7891 17.84C98.0398 17.776 98.3065 17.744 98.5891 17.744C99.0371 17.744 99.4291 17.8187 99.7651 17.968C100.106 18.1173 100.392 18.328 100.621 18.6C100.85 18.8667 101.024 19.1893 101.141 19.568C101.258 19.9467 101.317 20.3653 101.317 20.824V26H99.7491V20.824C99.7491 20.2427 99.6158 19.792 99.3491 19.472C99.0825 19.1467 98.6745 18.984 98.1251 18.984C97.7251 18.984 97.3491 19.08 96.9971 19.272C96.6505 19.4587 96.3278 19.7147 96.0291 20.04V26H94.4691V17.872H95.4051C95.6238 17.872 95.7598 17.976 95.8131 18.184L95.9331 19ZM104.446 26C104.302 26 104.169 25.9733 104.046 25.92C103.929 25.8667 103.825 25.7947 103.734 25.704C103.649 25.608 103.582 25.496 103.534 25.368C103.486 25.24 103.462 25.1013 103.462 24.952C103.462 24.824 103.486 24.704 103.534 24.592C103.582 24.4747 103.649 24.3733 103.734 24.288C103.825 24.2027 103.932 24.136 104.054 24.088C104.177 24.0347 104.313 24.008 104.462 24.008C104.633 24.008 104.782 24.04 104.91 24.104C105.044 24.1627 105.153 24.248 105.238 24.36C105.329 24.4667 105.396 24.592 105.438 24.736C105.481 24.88 105.502 25.0347 105.502 25.2C105.502 25.44 105.468 25.6933 105.398 25.96C105.329 26.2267 105.228 26.4907 105.094 26.752C104.961 27.0133 104.796 27.2667 104.598 27.512C104.401 27.7573 104.177 27.984 103.926 28.192L103.662 27.944C103.582 27.8693 103.542 27.7867 103.542 27.696C103.542 27.6587 103.553 27.6187 103.574 27.576C103.601 27.5387 103.633 27.5013 103.67 27.464C103.724 27.4053 103.793 27.328 103.878 27.232C103.964 27.136 104.046 27.024 104.126 26.896C104.212 26.7733 104.289 26.6347 104.358 26.48C104.433 26.3307 104.486 26.1707 104.518 26H104.446ZM115.885 20.424C116.317 20.424 116.696 20.368 117.021 20.256C117.352 20.144 117.627 19.9867 117.845 19.784C118.069 19.576 118.237 19.3307 118.349 19.048C118.461 18.76 118.517 18.4427 118.517 18.096C118.517 17.3973 118.299 16.848 117.861 16.448C117.429 16.048 116.771 15.848 115.885 15.848H114.109V20.424H115.885ZM115.885 14.512C116.621 14.512 117.261 14.5973 117.805 14.768C118.349 14.9387 118.8 15.1813 119.157 15.496C119.515 15.8053 119.779 16.1813 119.949 16.624C120.125 17.0667 120.213 17.5573 120.213 18.096C120.213 18.6347 120.12 19.1307 119.933 19.584C119.747 20.032 119.472 20.4187 119.109 20.744C118.747 21.0693 118.293 21.3227 117.749 21.504C117.211 21.68 116.589 21.768 115.885 21.768H114.109V26H112.405V14.512H115.885ZM123.424 19.432C123.686 18.8987 124 18.48 124.368 18.176C124.736 17.872 125.179 17.72 125.696 17.72C125.872 17.72 126.038 17.7413 126.192 17.784C126.352 17.8213 126.491 17.88 126.608 17.96L126.504 19.136C126.467 19.28 126.379 19.352 126.24 19.352C126.166 19.352 126.054 19.3387 125.904 19.312C125.755 19.28 125.595 19.264 125.424 19.264C125.174 19.264 124.952 19.3013 124.76 19.376C124.568 19.4453 124.395 19.552 124.24 19.696C124.091 19.8347 123.958 20.008 123.84 20.216C123.723 20.4187 123.614 20.6507 123.512 20.912V26H121.952V17.872H122.848C123.019 17.872 123.134 17.904 123.192 17.968C123.256 18.0267 123.302 18.1333 123.328 18.288L123.424 19.432ZM131.299 17.744C131.896 17.744 132.435 17.8427 132.915 18.04C133.4 18.232 133.811 18.512 134.147 18.88C134.488 19.2427 134.749 19.6827 134.931 20.2C135.112 20.712 135.203 21.288 135.203 21.928C135.203 22.568 135.112 23.1467 134.931 23.664C134.749 24.1813 134.488 24.6213 134.147 24.984C133.811 25.3467 133.4 25.6267 132.915 25.824C132.435 26.016 131.896 26.112 131.299 26.112C130.696 26.112 130.152 26.016 129.667 25.824C129.187 25.6267 128.776 25.3467 128.435 24.984C128.093 24.6213 127.829 24.1813 127.643 23.664C127.461 23.1467 127.371 22.568 127.371 21.928C127.371 21.288 127.461 20.712 127.643 20.2C127.829 19.6827 128.093 19.2427 128.435 18.88C128.776 18.512 129.187 18.232 129.667 18.04C130.152 17.8427 130.696 17.744 131.299 17.744ZM131.299 24.896C132.067 24.896 132.64 24.6373 133.019 24.12C133.397 23.6027 133.587 22.8747 133.587 21.936C133.587 20.9973 133.397 20.2693 133.019 19.752C132.64 19.2293 132.067 18.968 131.299 18.968C130.52 18.968 129.939 19.2293 129.555 19.752C129.176 20.2693 128.987 20.9973 128.987 21.936C128.987 22.8747 129.176 23.6027 129.555 24.12C129.939 24.6373 130.52 24.896 131.299 24.896ZM142.504 19.84C142.248 19.504 141.971 19.2693 141.672 19.136C141.379 19.0027 141.048 18.936 140.68 18.936C139.965 18.936 139.411 19.1947 139.016 19.712C138.627 20.224 138.432 20.9733 138.432 21.96C138.432 22.4773 138.475 22.92 138.56 23.288C138.651 23.6507 138.779 23.9493 138.944 24.184C139.115 24.4133 139.323 24.584 139.568 24.696C139.813 24.8027 140.091 24.856 140.4 24.856C140.853 24.856 141.245 24.7547 141.576 24.552C141.907 24.3493 142.216 24.064 142.504 23.696V19.84ZM144.072 14.192V26H143.128C142.909 26 142.773 25.896 142.72 25.688L142.584 24.752C142.237 25.1627 141.843 25.4933 141.4 25.744C140.963 25.9893 140.456 26.112 139.88 26.112C139.416 26.112 138.995 26.0213 138.616 25.84C138.243 25.6587 137.923 25.3947 137.656 25.048C137.389 24.696 137.184 24.2613 137.04 23.744C136.896 23.2267 136.824 22.632 136.824 21.96C136.824 21.3573 136.904 20.7973 137.064 20.28C137.224 19.7627 137.456 19.3147 137.76 18.936C138.064 18.5573 138.432 18.2613 138.864 18.048C139.296 17.8293 139.784 17.72 140.328 17.72C140.819 17.72 141.235 17.8 141.576 17.96C141.923 18.12 142.232 18.3467 142.504 18.64V14.192H144.072ZM153.329 17.872V26H152.393C152.179 26 152.041 25.896 151.977 25.688L151.865 24.872C151.689 25.0587 151.505 25.2293 151.313 25.384C151.121 25.5387 150.915 25.672 150.697 25.784C150.478 25.8907 150.246 25.9733 150.001 26.032C149.755 26.096 149.491 26.128 149.209 26.128C148.761 26.128 148.366 26.0533 148.025 25.904C147.689 25.7547 147.406 25.5467 147.177 25.28C146.947 25.008 146.774 24.6827 146.657 24.304C146.539 23.9253 146.481 23.5067 146.481 23.048V17.872H148.049V23.048C148.049 23.6293 148.182 24.0827 148.449 24.408C148.715 24.728 149.123 24.888 149.673 24.888C150.073 24.888 150.446 24.7947 150.793 24.608C151.139 24.416 151.465 24.1547 151.769 23.824V17.872H153.329ZM161.522 19.392C161.474 19.4507 161.426 19.4987 161.378 19.536C161.335 19.568 161.271 19.584 161.186 19.584C161.101 19.584 161.01 19.552 160.914 19.488C160.823 19.4187 160.706 19.3467 160.562 19.272C160.423 19.192 160.253 19.12 160.05 19.056C159.853 18.9867 159.607 18.952 159.314 18.952C158.93 18.952 158.591 19.0213 158.298 19.16C158.005 19.2987 157.759 19.496 157.562 19.752C157.37 20.008 157.223 20.32 157.122 20.688C157.021 21.056 156.97 21.4693 156.97 21.928C156.97 22.4027 157.023 22.8267 157.13 23.2C157.237 23.568 157.389 23.88 157.586 24.136C157.783 24.3867 158.023 24.5787 158.306 24.712C158.589 24.84 158.903 24.904 159.25 24.904C159.586 24.904 159.863 24.864 160.082 24.784C160.301 24.6987 160.482 24.608 160.626 24.512C160.77 24.416 160.89 24.328 160.986 24.248C161.082 24.1627 161.181 24.12 161.282 24.12C161.41 24.12 161.509 24.168 161.578 24.264L162.026 24.84C161.839 25.0693 161.629 25.264 161.394 25.424C161.165 25.584 160.919 25.7147 160.658 25.816C160.397 25.9173 160.122 25.992 159.834 26.04C159.551 26.088 159.263 26.112 158.97 26.112C158.463 26.112 157.989 26.0187 157.546 25.832C157.109 25.6453 156.727 25.3733 156.402 25.016C156.082 24.6587 155.829 24.2213 155.642 23.704C155.455 23.1813 155.362 22.5893 155.362 21.928C155.362 21.3253 155.445 20.768 155.61 20.256C155.781 19.744 156.029 19.304 156.354 18.936C156.685 18.5627 157.09 18.272 157.57 18.064C158.05 17.8507 158.599 17.744 159.218 17.744C159.799 17.744 160.311 17.8373 160.754 18.024C161.197 18.2107 161.591 18.4747 161.938 18.816L161.522 19.392ZM166.346 26.128C165.69 26.128 165.184 25.944 164.826 25.576C164.474 25.208 164.298 24.6827 164.298 24V19.136H163.354C163.264 19.136 163.186 19.1093 163.122 19.056C163.064 18.9973 163.034 18.912 163.034 18.8V18.168L164.354 17.984L164.706 15.56C164.728 15.4693 164.768 15.4 164.826 15.352C164.89 15.2987 164.97 15.272 165.066 15.272H165.858V18H168.162V19.136H165.858V23.896C165.858 24.216 165.936 24.456 166.09 24.616C166.25 24.7707 166.453 24.848 166.698 24.848C166.842 24.848 166.965 24.8293 167.066 24.792C167.173 24.7547 167.264 24.7147 167.338 24.672C167.413 24.624 167.477 24.5813 167.53 24.544C167.584 24.5067 167.632 24.488 167.674 24.488C167.728 24.488 167.768 24.5013 167.794 24.528C167.826 24.5493 167.858 24.5867 167.89 24.64L168.354 25.392C168.098 25.6267 167.794 25.808 167.442 25.936C167.09 26.064 166.725 26.128 166.346 26.128ZM186.686 14.512V26H185.198V17.824C185.198 17.7013 185.201 17.5707 185.206 17.432C185.217 17.2933 185.227 17.152 185.238 17.008L181.414 24.024C181.281 24.2853 181.075 24.416 180.798 24.416H180.558C180.281 24.416 180.078 24.2853 179.95 24.024L176.054 16.984C176.086 17.2827 176.102 17.5627 176.102 17.824V26H174.606V14.512H175.87C176.019 14.512 176.134 14.528 176.214 14.56C176.299 14.5867 176.379 14.6667 176.454 14.8L180.294 21.68C180.369 21.8187 180.438 21.9653 180.502 22.12C180.566 22.2747 180.627 22.4293 180.686 22.584C180.798 22.2693 180.929 21.9653 181.078 21.672L184.846 14.8C184.915 14.6667 184.99 14.5867 185.07 14.56C185.155 14.528 185.273 14.512 185.422 14.512H186.686ZM193.662 22.392C193.027 22.4133 192.488 22.464 192.046 22.544C191.603 22.6187 191.243 22.72 190.966 22.848C190.688 22.976 190.488 23.128 190.366 23.304C190.243 23.4747 190.182 23.6667 190.182 23.88C190.182 24.0827 190.214 24.2587 190.278 24.408C190.347 24.552 190.438 24.672 190.55 24.768C190.667 24.8587 190.803 24.9253 190.958 24.968C191.112 25.0107 191.28 25.032 191.462 25.032C191.702 25.032 191.92 25.008 192.118 24.96C192.32 24.912 192.51 24.8453 192.686 24.76C192.862 24.6693 193.03 24.56 193.19 24.432C193.35 24.304 193.507 24.1573 193.662 23.992V22.392ZM189.086 19.008C189.539 18.576 190.03 18.2533 190.558 18.04C191.091 17.8267 191.675 17.72 192.31 17.72C192.774 17.72 193.184 17.7973 193.542 17.952C193.899 18.1013 194.2 18.312 194.446 18.584C194.691 18.856 194.875 19.1813 194.998 19.56C195.126 19.9387 195.19 20.3573 195.19 20.816V26H194.494C194.339 26 194.222 25.976 194.142 25.928C194.062 25.8747 193.998 25.7787 193.95 25.64L193.782 24.928C193.574 25.12 193.368 25.2907 193.166 25.44C192.963 25.584 192.75 25.7093 192.526 25.816C192.307 25.9173 192.072 25.9947 191.822 26.048C191.571 26.1013 191.294 26.128 190.99 26.128C190.67 26.128 190.368 26.0853 190.086 26C189.808 25.9093 189.566 25.7733 189.358 25.592C189.15 25.4107 188.984 25.184 188.862 24.912C188.744 24.64 188.686 24.3227 188.686 23.96C188.686 23.64 188.771 23.3333 188.942 23.04C189.118 22.7413 189.4 22.4747 189.79 22.24C190.184 22.0053 190.696 21.8133 191.326 21.664C191.96 21.5147 192.739 21.4293 193.662 21.408V20.816C193.662 20.2027 193.531 19.744 193.27 19.44C193.008 19.136 192.624 18.984 192.118 18.984C191.776 18.984 191.488 19.0267 191.254 19.112C191.024 19.1973 190.824 19.2933 190.654 19.4C190.488 19.5013 190.342 19.5947 190.214 19.68C190.091 19.7653 189.963 19.808 189.83 19.808C189.723 19.808 189.63 19.7787 189.55 19.72C189.475 19.6613 189.414 19.592 189.366 19.512L189.086 19.008ZM199.062 19C199.238 18.8133 199.422 18.6427 199.614 18.488C199.806 18.3333 200.009 18.2027 200.222 18.096C200.441 17.984 200.673 17.8987 200.918 17.84C201.169 17.776 201.435 17.744 201.718 17.744C202.166 17.744 202.558 17.8187 202.894 17.968C203.235 18.1173 203.521 18.328 203.75 18.6C203.979 18.8667 204.153 19.1893 204.27 19.568C204.387 19.9467 204.446 20.3653 204.446 20.824V26H202.878V20.824C202.878 20.2427 202.745 19.792 202.478 19.472C202.211 19.1467 201.803 18.984 201.254 18.984C200.854 18.984 200.478 19.08 200.126 19.272C199.779 19.4587 199.457 19.7147 199.158 20.04V26H197.598V17.872H198.534C198.753 17.872 198.889 17.976 198.942 18.184L199.062 19ZM211.239 22.392C210.604 22.4133 210.066 22.464 209.623 22.544C209.18 22.6187 208.82 22.72 208.543 22.848C208.266 22.976 208.066 23.128 207.943 23.304C207.82 23.4747 207.759 23.6667 207.759 23.88C207.759 24.0827 207.791 24.2587 207.855 24.408C207.924 24.552 208.015 24.672 208.127 24.768C208.244 24.8587 208.38 24.9253 208.535 24.968C208.69 25.0107 208.858 25.032 209.039 25.032C209.279 25.032 209.498 25.008 209.695 24.96C209.898 24.912 210.087 24.8453 210.263 24.76C210.439 24.6693 210.607 24.56 210.767 24.432C210.927 24.304 211.084 24.1573 211.239 23.992V22.392ZM206.663 19.008C207.116 18.576 207.607 18.2533 208.135 18.04C208.668 17.8267 209.252 17.72 209.887 17.72C210.351 17.72 210.762 17.7973 211.119 17.952C211.476 18.1013 211.778 18.312 212.023 18.584C212.268 18.856 212.452 19.1813 212.575 19.56C212.703 19.9387 212.767 20.3573 212.767 20.816V26H212.071C211.916 26 211.799 25.976 211.719 25.928C211.639 25.8747 211.575 25.7787 211.527 25.64L211.359 24.928C211.151 25.12 210.946 25.2907 210.743 25.44C210.54 25.584 210.327 25.7093 210.103 25.816C209.884 25.9173 209.65 25.9947 209.399 26.048C209.148 26.1013 208.871 26.128 208.567 26.128C208.247 26.128 207.946 26.0853 207.663 26C207.386 25.9093 207.143 25.7733 206.935 25.592C206.727 25.4107 206.562 25.184 206.439 24.912C206.322 24.64 206.263 24.3227 206.263 23.96C206.263 23.64 206.348 23.3333 206.519 23.04C206.695 22.7413 206.978 22.4747 207.367 22.24C207.762 22.0053 208.274 21.8133 208.903 21.664C209.538 21.5147 210.316 21.4293 211.239 21.408V20.816C211.239 20.2027 211.108 19.744 210.847 19.44C210.586 19.136 210.202 18.984 209.695 18.984C209.354 18.984 209.066 19.0267 208.831 19.112C208.602 19.1973 208.402 19.2933 208.231 19.4C208.066 19.5013 207.919 19.5947 207.791 19.68C207.668 19.7653 207.54 19.808 207.407 19.808C207.3 19.808 207.207 19.7787 207.127 19.72C207.052 19.6613 206.991 19.592 206.943 19.512L206.663 19.008ZM218.031 21.944C218.309 21.944 218.551 21.9067 218.759 21.832C218.973 21.7573 219.149 21.6533 219.287 21.52C219.431 21.3813 219.538 21.216 219.607 21.024C219.682 20.832 219.719 20.6213 219.719 20.392C219.719 19.9227 219.575 19.5493 219.287 19.272C219.005 18.9893 218.586 18.848 218.031 18.848C217.482 18.848 217.063 18.9893 216.775 19.272C216.493 19.5493 216.351 19.9227 216.351 20.392C216.351 20.6213 216.386 20.832 216.455 21.024C216.53 21.2107 216.637 21.3733 216.775 21.512C216.919 21.6453 217.095 21.752 217.303 21.832C217.517 21.9067 217.759 21.944 218.031 21.944ZM220.519 26.424C220.519 26.232 220.466 26.08 220.359 25.968C220.253 25.8507 220.106 25.76 219.919 25.696C219.738 25.6267 219.525 25.5787 219.279 25.552C219.034 25.52 218.775 25.496 218.503 25.48C218.237 25.464 217.962 25.4507 217.679 25.44C217.397 25.424 217.125 25.3973 216.863 25.36C216.586 25.4987 216.357 25.6667 216.175 25.864C215.999 26.0613 215.911 26.2933 215.911 26.56C215.911 26.7307 215.954 26.8907 216.039 27.04C216.13 27.1893 216.266 27.3173 216.447 27.424C216.634 27.536 216.866 27.6213 217.143 27.68C217.426 27.744 217.762 27.776 218.151 27.776C218.535 27.776 218.874 27.7413 219.167 27.672C219.461 27.608 219.706 27.5147 219.903 27.392C220.106 27.2747 220.258 27.1333 220.359 26.968C220.466 26.8027 220.519 26.6213 220.519 26.424ZM222.103 18.176V18.76C222.103 18.952 221.983 19.072 221.743 19.12L220.871 19.248C220.946 19.4133 221.005 19.5893 221.047 19.776C221.09 19.9573 221.111 20.1493 221.111 20.352C221.111 20.752 221.034 21.1147 220.879 21.44C220.725 21.76 220.511 22.0347 220.239 22.264C219.967 22.4933 219.642 22.6693 219.263 22.792C218.89 22.9147 218.479 22.976 218.031 22.976C217.663 22.976 217.319 22.936 216.999 22.856C216.839 22.952 216.717 23.0587 216.631 23.176C216.551 23.288 216.511 23.4 216.511 23.512C216.511 23.6987 216.589 23.8373 216.743 23.928C216.903 24.0187 217.109 24.0853 217.359 24.128C217.615 24.1653 217.906 24.1893 218.231 24.2C218.562 24.2107 218.895 24.2293 219.231 24.256C219.573 24.2773 219.906 24.32 220.231 24.384C220.562 24.4427 220.853 24.5413 221.103 24.68C221.359 24.8133 221.565 25 221.719 25.24C221.879 25.4747 221.959 25.7813 221.959 26.16C221.959 26.512 221.871 26.8533 221.695 27.184C221.525 27.5147 221.274 27.808 220.943 28.064C220.613 28.32 220.21 28.5253 219.735 28.68C219.261 28.8347 218.722 28.912 218.119 28.912C217.517 28.912 216.991 28.8533 216.543 28.736C216.101 28.6187 215.73 28.4613 215.431 28.264C215.138 28.0667 214.917 27.8373 214.767 27.576C214.623 27.3147 214.551 27.0427 214.551 26.76C214.551 26.3653 214.674 26.032 214.919 25.76C215.165 25.4827 215.503 25.2667 215.935 25.112C215.701 25.0053 215.514 24.8613 215.375 24.68C215.237 24.4933 215.167 24.248 215.167 23.944C215.167 23.8267 215.189 23.7067 215.231 23.584C215.274 23.456 215.338 23.3307 215.423 23.208C215.514 23.08 215.623 22.96 215.751 22.848C215.885 22.736 216.037 22.6347 216.207 22.544C215.807 22.32 215.493 22.024 215.263 21.656C215.034 21.2827 214.919 20.848 214.919 20.352C214.919 19.952 214.997 19.592 215.151 19.272C215.306 18.952 215.519 18.6773 215.791 18.448C216.069 18.2187 216.397 18.0427 216.775 17.92C217.159 17.7973 217.578 17.736 218.031 17.736C218.735 17.736 219.341 17.8827 219.847 18.176H222.103ZM229.114 21.032C229.114 20.7227 229.068 20.4373 228.978 20.176C228.892 19.9147 228.764 19.688 228.594 19.496C228.423 19.304 228.215 19.1547 227.97 19.048C227.724 18.9413 227.442 18.888 227.122 18.888C226.466 18.888 225.948 19.0773 225.57 19.456C225.196 19.8347 224.959 20.36 224.858 21.032H229.114ZM230.402 24.84C230.21 25.064 229.988 25.2587 229.738 25.424C229.487 25.584 229.22 25.7147 228.938 25.816C228.655 25.9173 228.362 25.992 228.058 26.04C227.759 26.088 227.463 26.112 227.17 26.112C226.61 26.112 226.09 26.0187 225.61 25.832C225.135 25.64 224.722 25.3627 224.37 25C224.023 24.632 223.751 24.1787 223.554 23.64C223.362 23.096 223.266 22.472 223.266 21.768C223.266 21.2027 223.354 20.6773 223.53 20.192C223.706 19.7013 223.956 19.2747 224.282 18.912C224.612 18.5493 225.015 18.264 225.49 18.056C225.964 17.848 226.498 17.744 227.09 17.744C227.586 17.744 228.042 17.8267 228.458 17.992C228.879 18.152 229.242 18.3867 229.546 18.696C229.85 19.0053 230.087 19.3867 230.258 19.84C230.434 20.2933 230.522 20.8107 230.522 21.392C230.522 21.632 230.495 21.7947 230.442 21.88C230.388 21.96 230.29 22 230.146 22H224.818C224.834 22.4853 224.903 22.9093 225.026 23.272C225.148 23.6293 225.316 23.928 225.53 24.168C225.748 24.408 226.007 24.5867 226.306 24.704C226.604 24.8213 226.938 24.88 227.306 24.88C227.652 24.88 227.951 24.84 228.202 24.76C228.458 24.68 228.676 24.5947 228.858 24.504C229.044 24.408 229.199 24.32 229.322 24.24C229.45 24.16 229.562 24.12 229.658 24.12C229.786 24.12 229.884 24.168 229.954 24.264L230.402 24.84ZM232.518 26V17.872H233.454C233.673 17.872 233.809 17.976 233.862 18.184L233.974 18.96C234.273 18.6027 234.604 18.312 234.966 18.088C235.334 17.8587 235.764 17.744 236.254 17.744C236.793 17.744 237.23 17.8933 237.566 18.192C237.902 18.4853 238.148 18.8853 238.302 19.392C238.42 19.104 238.572 18.856 238.758 18.648C238.945 18.44 239.153 18.2693 239.382 18.136C239.612 18.0027 239.854 17.904 240.11 17.84C240.372 17.776 240.636 17.744 240.902 17.744C241.334 17.744 241.718 17.8133 242.054 17.952C242.396 18.0853 242.684 18.2827 242.918 18.544C243.153 18.8053 243.332 19.128 243.454 19.512C243.577 19.896 243.638 20.3333 243.638 20.824V26H242.07V20.824C242.07 20.216 241.937 19.7573 241.67 19.448C241.409 19.1387 241.025 18.984 240.518 18.984C240.294 18.984 240.081 19.024 239.878 19.104C239.676 19.1787 239.497 19.2933 239.342 19.448C239.193 19.6027 239.073 19.7947 238.982 20.024C238.897 20.2533 238.854 20.52 238.854 20.824V26H237.286V20.824C237.286 20.1947 237.161 19.7307 236.91 19.432C236.66 19.1333 236.292 18.984 235.806 18.984C235.47 18.984 235.158 19.072 234.87 19.248C234.582 19.424 234.318 19.664 234.078 19.968V26H232.518ZM251.441 21.032C251.441 20.7227 251.396 20.4373 251.305 20.176C251.22 19.9147 251.092 19.688 250.921 19.496C250.751 19.304 250.543 19.1547 250.297 19.048C250.052 18.9413 249.769 18.888 249.449 18.888C248.793 18.888 248.276 19.0773 247.897 19.456C247.524 19.8347 247.287 20.36 247.185 21.032H251.441ZM252.729 24.84C252.537 25.064 252.316 25.2587 252.065 25.424C251.815 25.584 251.548 25.7147 251.265 25.816C250.983 25.9173 250.689 25.992 250.385 26.04C250.087 26.088 249.791 26.112 249.497 26.112C248.937 26.112 248.417 26.0187 247.937 25.832C247.463 25.64 247.049 25.3627 246.697 25C246.351 24.632 246.079 24.1787 245.881 23.64C245.689 23.096 245.593 22.472 245.593 21.768C245.593 21.2027 245.681 20.6773 245.857 20.192C246.033 19.7013 246.284 19.2747 246.609 18.912C246.94 18.5493 247.343 18.264 247.817 18.056C248.292 17.848 248.825 17.744 249.417 17.744C249.913 17.744 250.369 17.8267 250.785 17.992C251.207 18.152 251.569 18.3867 251.873 18.696C252.177 19.0053 252.415 19.3867 252.585 19.84C252.761 20.2933 252.849 20.8107 252.849 21.392C252.849 21.632 252.823 21.7947 252.769 21.88C252.716 21.96 252.617 22 252.473 22H247.145C247.161 22.4853 247.231 22.9093 247.353 23.272C247.476 23.6293 247.644 23.928 247.857 24.168C248.076 24.408 248.335 24.5867 248.633 24.704C248.932 24.8213 249.265 24.88 249.633 24.88C249.98 24.88 250.279 24.84 250.529 24.76C250.785 24.68 251.004 24.5947 251.185 24.504C251.372 24.408 251.527 24.32 251.649 24.24C251.777 24.16 251.889 24.12 251.985 24.12C252.113 24.12 252.212 24.168 252.281 24.264L252.729 24.84ZM256.31 19C256.486 18.8133 256.67 18.6427 256.862 18.488C257.054 18.3333 257.257 18.2027 257.47 18.096C257.689 17.984 257.921 17.8987 258.166 17.84C258.417 17.776 258.683 17.744 258.966 17.744C259.414 17.744 259.806 17.8187 260.142 17.968C260.483 18.1173 260.769 18.328 260.998 18.6C261.227 18.8667 261.401 19.1893 261.518 19.568C261.635 19.9467 261.694 20.3653 261.694 20.824V26H260.126V20.824C260.126 20.2427 259.993 19.792 259.726 19.472C259.459 19.1467 259.051 18.984 258.502 18.984C258.102 18.984 257.726 19.08 257.374 19.272C257.027 19.4587 256.705 19.7147 256.406 20.04V26H254.846V17.872H255.782C256.001 17.872 256.137 17.976 256.19 18.184L256.31 19ZM266.554 26.128C265.898 26.128 265.391 25.944 265.034 25.576C264.682 25.208 264.506 24.6827 264.506 24V19.136H263.562C263.471 19.136 263.394 19.1093 263.33 19.056C263.271 18.9973 263.242 18.912 263.242 18.8V18.168L264.562 17.984L264.914 15.56C264.935 15.4693 264.975 15.4 265.034 15.352C265.098 15.2987 265.178 15.272 265.274 15.272H266.066V18H268.37V19.136H266.066V23.896C266.066 24.216 266.143 24.456 266.298 24.616C266.458 24.7707 266.66 24.848 266.906 24.848C267.05 24.848 267.172 24.8293 267.274 24.792C267.38 24.7547 267.471 24.7147 267.546 24.672C267.62 24.624 267.684 24.5813 267.738 24.544C267.791 24.5067 267.839 24.488 267.882 24.488C267.935 24.488 267.975 24.5013 268.002 24.528C268.034 24.5493 268.066 24.5867 268.098 24.64L268.562 25.392C268.306 25.6267 268.002 25.808 267.65 25.936C267.298 26.064 266.932 26.128 266.554 26.128Z" fill="#3C3C6F"/>
<defs>
<filter id="filter0_b_450_5823" x="-30" y="-30" width="357" height="98" filterUnits="userSpaceOnUse" color-interpolation-filters="sRGB">
<feFlood flood-opacity="0" result="BackgroundImageFix"/>
<feGaussianBlur in="BackgroundImageFix" stdDeviation="15"/>
<feComposite in2="SourceAlpha" operator="in" result="effect1_backgroundBlur_450_5823"/>
<feBlend mode="normal" in="SourceGraphic" in2="effect1_backgroundBlur_450_5823" result="shape"/>
</filter>
<linearGradient id="paint0_linear_450_5823" x1="20.9688" y1="-6.09434" x2="128.559" y2="24.3036" gradientUnits="userSpaceOnUse">
<stop stop-color="white"/>
<stop offset="1" stop-color="white" stop-opacity="0"/>
</linearGradient>
</defs>
</svg>
