<svg width="96" height="38" viewBox="0 0 96 38" fill="none" xmlns="http://www.w3.org/2000/svg">
<g filter="url(#filter0_b_450_5811)">
<path d="M0 19C0 8.50659 8.50659 0 19 0H77C87.4934 0 96 8.50659 96 19C96 29.4934 87.4934 38 77 38H19C8.50659 38 0 29.4934 0 19Z" fill="white" fill-opacity="0.6"/>
<path d="M1 19C1 9.05888 9.05888 1 19 1H77C86.9411 1 95 9.05888 95 19C95 28.9411 86.9411 37 77 37H19C9.05888 37 1 28.9411 1 19Z" stroke="url(#paint0_linear_450_5811)" stroke-opacity="0.9" stroke-width="2"/>
</g>
<path d="M34.7963 20.256C34.7963 21.1147 34.6576 21.896 34.3803 22.6C34.1083 23.304 33.7216 23.9093 33.2203 24.416C32.7189 24.9173 32.1189 25.3067 31.4203 25.584C30.7216 25.8613 29.9456 26 29.0923 26H24.7723V14.512H29.0923C29.9456 14.512 30.7216 14.6507 31.4203 14.928C32.1189 15.2053 32.7189 15.5973 33.2203 16.104C33.7216 16.6053 34.1083 17.2107 34.3803 17.92C34.6576 18.624 34.7963 19.4027 34.7963 20.256ZM33.0523 20.256C33.0523 19.5733 32.9589 18.9627 32.7723 18.424C32.5856 17.88 32.3189 17.4213 31.9723 17.048C31.6309 16.6693 31.2149 16.3813 30.7243 16.184C30.2389 15.9867 29.6949 15.888 29.0923 15.888H26.4843V24.624H29.0923C29.6949 24.624 30.2389 24.5253 30.7243 24.328C31.2149 24.1307 31.6309 23.8453 31.9723 23.472C32.3189 23.0933 32.5856 22.6347 32.7723 22.096C32.9589 21.5573 33.0523 20.944 33.0523 20.256ZM42.2188 21.032C42.2188 20.7227 42.1734 20.4373 42.0828 20.176C41.9974 19.9147 41.8694 19.688 41.6988 19.496C41.5281 19.304 41.3201 19.1547 41.0748 19.048C40.8294 18.9413 40.5468 18.888 40.2268 18.888C39.5708 18.888 39.0534 19.0773 38.6748 19.456C38.3014 19.8347 38.0641 20.36 37.9628 21.032H42.2188ZM43.5068 24.84C43.3148 25.064 43.0934 25.2587 42.8428 25.424C42.5921 25.584 42.3254 25.7147 42.0428 25.816C41.7601 25.9173 41.4668 25.992 41.1628 26.04C40.8641 26.088 40.5681 26.112 40.2748 26.112C39.7148 26.112 39.1948 26.0187 38.7148 25.832C38.2401 25.64 37.8268 25.3627 37.4748 25C37.1281 24.632 36.8561 24.1787 36.6588 23.64C36.4668 23.096 36.3708 22.472 36.3708 21.768C36.3708 21.2027 36.4588 20.6773 36.6348 20.192C36.8108 19.7013 37.0614 19.2747 37.3868 18.912C37.7174 18.5493 38.1201 18.264 38.5948 18.056C39.0694 17.848 39.6028 17.744 40.1948 17.744C40.6908 17.744 41.1468 17.8267 41.5628 17.992C41.9841 18.152 42.3468 18.3867 42.6508 18.696C42.9548 19.0053 43.1921 19.3867 43.3628 19.84C43.5388 20.2933 43.6268 20.8107 43.6268 21.392C43.6268 21.632 43.6001 21.7947 43.5468 21.88C43.4934 21.96 43.3948 22 43.2508 22H37.9228C37.9388 22.4853 38.0081 22.9093 38.1308 23.272C38.2534 23.6293 38.4214 23.928 38.6348 24.168C38.8534 24.408 39.1121 24.5867 39.4108 24.704C39.7094 24.8213 40.0428 24.88 40.4108 24.88C40.7574 24.88 41.0561 24.84 41.3068 24.76C41.5628 24.68 41.7814 24.5947 41.9628 24.504C42.1494 24.408 42.3041 24.32 42.4268 24.24C42.5548 24.16 42.6668 24.12 42.7628 24.12C42.8908 24.12 42.9894 24.168 43.0588 24.264L43.5068 24.84ZM50.4155 19.272C50.3728 19.3413 50.3275 19.392 50.2795 19.424C50.2315 19.4507 50.1702 19.464 50.0955 19.464C50.0102 19.464 49.9142 19.4347 49.8075 19.376C49.7062 19.3173 49.5808 19.2533 49.4315 19.184C49.2875 19.1147 49.1168 19.0507 48.9195 18.992C48.7222 18.9333 48.4875 18.904 48.2155 18.904C47.9915 18.904 47.7862 18.9333 47.5995 18.992C47.4182 19.0453 47.2635 19.1227 47.1355 19.224C47.0075 19.32 46.9088 19.4373 46.8395 19.576C46.7702 19.7093 46.7355 19.8533 46.7355 20.008C46.7355 20.2107 46.7942 20.3787 46.9115 20.512C47.0342 20.6453 47.1915 20.76 47.3835 20.856C47.5808 20.952 47.8022 21.04 48.0475 21.12C48.2982 21.1947 48.5515 21.2747 48.8075 21.36C49.0688 21.4453 49.3222 21.544 49.5675 21.656C49.8182 21.7627 50.0395 21.8987 50.2315 22.064C50.4288 22.224 50.5862 22.4187 50.7035 22.648C50.8262 22.8773 50.8875 23.1573 50.8875 23.488C50.8875 23.8667 50.8182 24.2187 50.6795 24.544C50.5462 24.864 50.3462 25.1413 50.0795 25.376C49.8182 25.6107 49.4928 25.7947 49.1035 25.928C48.7142 26.0613 48.2688 26.128 47.7675 26.128C47.2075 26.128 46.6902 26.0347 46.2155 25.848C45.7408 25.6613 45.3435 25.424 45.0235 25.136L45.3915 24.536C45.4342 24.4613 45.4875 24.4053 45.5515 24.368C45.6155 24.3253 45.7008 24.304 45.8075 24.304C45.9088 24.304 46.0128 24.3413 46.1195 24.416C46.2262 24.4907 46.3542 24.5733 46.5035 24.664C46.6528 24.7493 46.8342 24.8293 47.0475 24.904C47.2608 24.9733 47.5275 25.008 47.8475 25.008C48.1142 25.008 48.3462 24.976 48.5435 24.912C48.7408 24.8427 48.9035 24.752 49.0315 24.64C49.1648 24.5227 49.2635 24.3893 49.3275 24.24C49.3915 24.0907 49.4235 23.9333 49.4235 23.768C49.4235 23.5547 49.3622 23.3787 49.2395 23.24C49.1222 23.096 48.9648 22.9733 48.7675 22.872C48.5755 22.7707 48.3542 22.6827 48.1035 22.608C47.8528 22.5333 47.5968 22.4533 47.3355 22.368C47.0742 22.2827 46.8182 22.184 46.5675 22.072C46.3168 21.96 46.0928 21.8187 45.8955 21.648C45.7035 21.4773 45.5462 21.2693 45.4235 21.024C45.3062 20.7787 45.2475 20.48 45.2475 20.128C45.2475 19.8133 45.3115 19.512 45.4395 19.224C45.5728 18.936 45.7622 18.6827 46.0075 18.464C46.2582 18.2453 46.5648 18.072 46.9275 17.944C47.2955 17.8107 47.7142 17.744 48.1835 17.744C48.7222 17.744 49.2075 17.8293 49.6395 18C50.0768 18.1707 50.4502 18.4053 50.7595 18.704L50.4155 19.272ZM54.5286 17.872V26H52.9686V17.872H54.5286ZM54.8246 15.36C54.8246 15.504 54.7953 15.6427 54.7366 15.776C54.678 15.904 54.598 16.0187 54.4966 16.12C54.4006 16.216 54.286 16.2933 54.1526 16.352C54.0193 16.4053 53.8806 16.432 53.7366 16.432C53.5926 16.432 53.4566 16.4053 53.3286 16.352C53.2006 16.2933 53.086 16.216 52.9846 16.12C52.8886 16.0187 52.8113 15.904 52.7526 15.776C52.6993 15.6427 52.6726 15.504 52.6726 15.36C52.6726 15.2107 52.6993 15.072 52.7526 14.944C52.8113 14.8107 52.8886 14.696 52.9846 14.6C53.086 14.4987 53.2006 14.4213 53.3286 14.368C53.4566 14.3093 53.5926 14.28 53.7366 14.28C53.8806 14.28 54.0193 14.3093 54.1526 14.368C54.286 14.4213 54.4006 14.4987 54.4966 14.6C54.598 14.696 54.678 14.8107 54.7366 14.944C54.7953 15.072 54.8246 15.2107 54.8246 15.36ZM59.9632 21.944C60.2406 21.944 60.4832 21.9067 60.6912 21.832C60.9046 21.7573 61.0806 21.6533 61.2192 21.52C61.3632 21.3813 61.4699 21.216 61.5392 21.024C61.6139 20.832 61.6512 20.6213 61.6512 20.392C61.6512 19.9227 61.5072 19.5493 61.2192 19.272C60.9366 18.9893 60.5179 18.848 59.9632 18.848C59.4139 18.848 58.9952 18.9893 58.7072 19.272C58.4246 19.5493 58.2832 19.9227 58.2832 20.392C58.2832 20.6213 58.3179 20.832 58.3872 21.024C58.4619 21.2107 58.5686 21.3733 58.7072 21.512C58.8512 21.6453 59.0272 21.752 59.2352 21.832C59.4486 21.9067 59.6912 21.944 59.9632 21.944ZM62.4513 26.424C62.4513 26.232 62.3979 26.08 62.2912 25.968C62.1846 25.8507 62.0379 25.76 61.8512 25.696C61.6699 25.6267 61.4566 25.5787 61.2112 25.552C60.9659 25.52 60.7072 25.496 60.4352 25.48C60.1686 25.464 59.8939 25.4507 59.6112 25.44C59.3286 25.424 59.0566 25.3973 58.7952 25.36C58.5179 25.4987 58.2886 25.6667 58.1072 25.864C57.9312 26.0613 57.8432 26.2933 57.8432 26.56C57.8432 26.7307 57.8859 26.8907 57.9712 27.04C58.0619 27.1893 58.1979 27.3173 58.3792 27.424C58.5659 27.536 58.7979 27.6213 59.0752 27.68C59.3579 27.744 59.6939 27.776 60.0832 27.776C60.4672 27.776 60.8059 27.7413 61.0992 27.672C61.3926 27.608 61.6379 27.5147 61.8352 27.392C62.0379 27.2747 62.1899 27.1333 62.2912 26.968C62.3979 26.8027 62.4513 26.6213 62.4513 26.424ZM64.0352 18.176V18.76C64.0352 18.952 63.9152 19.072 63.6753 19.12L62.8032 19.248C62.8779 19.4133 62.9366 19.5893 62.9792 19.776C63.0219 19.9573 63.0433 20.1493 63.0433 20.352C63.0433 20.752 62.9659 21.1147 62.8112 21.44C62.6566 21.76 62.4432 22.0347 62.1712 22.264C61.8992 22.4933 61.5739 22.6693 61.1952 22.792C60.8219 22.9147 60.4112 22.976 59.9632 22.976C59.5952 22.976 59.2512 22.936 58.9312 22.856C58.7712 22.952 58.6486 23.0587 58.5632 23.176C58.4832 23.288 58.4432 23.4 58.4432 23.512C58.4432 23.6987 58.5206 23.8373 58.6752 23.928C58.8352 24.0187 59.0406 24.0853 59.2912 24.128C59.5472 24.1653 59.8379 24.1893 60.1632 24.2C60.4939 24.2107 60.8272 24.2293 61.1632 24.256C61.5046 24.2773 61.8379 24.32 62.1632 24.384C62.4939 24.4427 62.7846 24.5413 63.0352 24.68C63.2912 24.8133 63.4966 25 63.6512 25.24C63.8113 25.4747 63.8913 25.7813 63.8913 26.16C63.8913 26.512 63.8032 26.8533 63.6272 27.184C63.4566 27.5147 63.2059 27.808 62.8752 28.064C62.5446 28.32 62.1419 28.5253 61.6672 28.68C61.1926 28.8347 60.6539 28.912 60.0512 28.912C59.4486 28.912 58.9232 28.8533 58.4752 28.736C58.0326 28.6187 57.6619 28.4613 57.3632 28.264C57.0699 28.0667 56.8486 27.8373 56.6992 27.576C56.5552 27.3147 56.4832 27.0427 56.4832 26.76C56.4832 26.3653 56.6059 26.032 56.8512 25.76C57.0966 25.4827 57.4352 25.2667 57.8672 25.112C57.6326 25.0053 57.4459 24.8613 57.3072 24.68C57.1686 24.4933 57.0992 24.248 57.0992 23.944C57.0992 23.8267 57.1206 23.7067 57.1632 23.584C57.2059 23.456 57.2699 23.3307 57.3552 23.208C57.4459 23.08 57.5552 22.96 57.6832 22.848C57.8166 22.736 57.9686 22.6347 58.1392 22.544C57.7392 22.32 57.4246 22.024 57.1952 21.656C56.9659 21.2827 56.8512 20.848 56.8512 20.352C56.8512 19.952 56.9286 19.592 57.0832 19.272C57.2379 18.952 57.4512 18.6773 57.7232 18.448C58.0006 18.2187 58.3286 18.0427 58.7072 17.92C59.0912 17.7973 59.5099 17.736 59.9632 17.736C60.6672 17.736 61.2726 17.8827 61.7792 18.176H64.0352ZM67.2506 19C67.4266 18.8133 67.6106 18.6427 67.8026 18.488C67.9946 18.3333 68.1973 18.2027 68.4106 18.096C68.6293 17.984 68.8613 17.8987 69.1066 17.84C69.3573 17.776 69.624 17.744 69.9066 17.744C70.3546 17.744 70.7466 17.8187 71.0826 17.968C71.424 18.1173 71.7093 18.328 71.9386 18.6C72.168 18.8667 72.3413 19.1893 72.4586 19.568C72.576 19.9467 72.6346 20.3653 72.6346 20.824V26H71.0666V20.824C71.0666 20.2427 70.9333 19.792 70.6666 19.472C70.4 19.1467 69.992 18.984 69.4426 18.984C69.0426 18.984 68.6666 19.08 68.3146 19.272C67.968 19.4587 67.6453 19.7147 67.3466 20.04V26H65.7866V17.872H66.7226C66.9413 17.872 67.0773 17.976 67.1306 18.184L67.2506 19Z" fill="#3C3C6F"/>
<defs>
<filter id="filter0_b_450_5811" x="-30" y="-30" width="156" height="98" filterUnits="userSpaceOnUse" color-interpolation-filters="sRGB">
<feFlood flood-opacity="0" result="BackgroundImageFix"/>
<feGaussianBlur in="BackgroundImageFix" stdDeviation="15"/>
<feComposite in2="SourceAlpha" operator="in" result="effect1_backgroundBlur_450_5811"/>
<feBlend mode="normal" in="SourceGraphic" in2="effect1_backgroundBlur_450_5811" result="shape"/>
</filter>
<linearGradient id="paint0_linear_450_5811" x1="6.7778" y1="-6.09434" x2="44.02" y2="-2.69323" gradientUnits="userSpaceOnUse">
<stop stop-color="white"/>
<stop offset="1" stop-color="white" stop-opacity="0"/>
</linearGradient>
</defs>
</svg>
