<svg width="126" height="38" viewBox="0 0 126 38" fill="none" xmlns="http://www.w3.org/2000/svg">
<g filter="url(#filter0_b_450_5794)">
<path d="M0 19C0 8.50659 8.50659 0 19 0H107C117.493 0 126 8.50659 126 19C126 29.4934 117.493 38 107 38H19C8.50659 38 0 29.4934 0 19Z" fill="white" fill-opacity="0.6"/>
<path d="M1 19C1 9.05888 9.05888 1 19 1H107C116.941 1 125 9.05888 125 19C125 28.9411 116.941 37 107 37H19C9.05888 37 1 28.9411 1 19Z" stroke="url(#paint0_linear_450_5794)" stroke-opacity="0.9" stroke-width="2"/>
</g>
<path d="M39.1391 20.424C39.5711 20.424 39.9498 20.368 40.2751 20.256C40.6058 20.144 40.8805 19.9867 41.0991 19.784C41.3231 19.576 41.4911 19.3307 41.6031 19.048C41.7151 18.76 41.7711 18.4427 41.7711 18.096C41.7711 17.3973 41.5525 16.848 41.1151 16.448C40.6831 16.048 40.0245 15.848 39.1391 15.848H37.3631V20.424H39.1391ZM39.1391 14.512C39.8751 14.512 40.5151 14.5973 41.0591 14.768C41.6031 14.9387 42.0538 15.1813 42.4111 15.496C42.7685 15.8053 43.0325 16.1813 43.2031 16.624C43.3791 17.0667 43.4671 17.5573 43.4671 18.096C43.4671 18.6347 43.3738 19.1307 43.1871 19.584C43.0005 20.032 42.7258 20.4187 42.3631 20.744C42.0005 21.0693 41.5471 21.3227 41.0031 21.504C40.4645 21.68 39.8431 21.768 39.1391 21.768H37.3631V26H35.6591V14.512H39.1391ZM46.678 19.432C46.9393 18.8987 47.254 18.48 47.622 18.176C47.99 17.872 48.4327 17.72 48.95 17.72C49.126 17.72 49.2913 17.7413 49.446 17.784C49.606 17.8213 49.7447 17.88 49.862 17.96L49.758 19.136C49.7207 19.28 49.6327 19.352 49.494 19.352C49.4193 19.352 49.3073 19.3387 49.158 19.312C49.0087 19.28 48.8487 19.264 48.678 19.264C48.4273 19.264 48.206 19.3013 48.014 19.376C47.822 19.4453 47.6487 19.552 47.494 19.696C47.3447 19.8347 47.2113 20.008 47.094 20.216C46.9767 20.4187 46.8673 20.6507 46.766 20.912V26H45.206V17.872H46.102C46.2727 17.872 46.3873 17.904 46.446 17.968C46.51 18.0267 46.5553 18.1333 46.582 18.288L46.678 19.432ZM54.5525 17.744C55.1498 17.744 55.6885 17.8427 56.1685 18.04C56.6538 18.232 57.0645 18.512 57.4005 18.88C57.7418 19.2427 58.0032 19.6827 58.1845 20.2C58.3658 20.712 58.4565 21.288 58.4565 21.928C58.4565 22.568 58.3658 23.1467 58.1845 23.664C58.0032 24.1813 57.7418 24.6213 57.4005 24.984C57.0645 25.3467 56.6538 25.6267 56.1685 25.824C55.6885 26.016 55.1498 26.112 54.5525 26.112C53.9498 26.112 53.4058 26.016 52.9205 25.824C52.4405 25.6267 52.0298 25.3467 51.6885 24.984C51.3472 24.6213 51.0832 24.1813 50.8965 23.664C50.7152 23.1467 50.6245 22.568 50.6245 21.928C50.6245 21.288 50.7152 20.712 50.8965 20.2C51.0832 19.6827 51.3472 19.2427 51.6885 18.88C52.0298 18.512 52.4405 18.232 52.9205 18.04C53.4058 17.8427 53.9498 17.744 54.5525 17.744ZM54.5525 24.896C55.3205 24.896 55.8938 24.6373 56.2725 24.12C56.6512 23.6027 56.8405 22.8747 56.8405 21.936C56.8405 20.9973 56.6512 20.2693 56.2725 19.752C55.8938 19.2293 55.3205 18.968 54.5525 18.968C53.7738 18.968 53.1925 19.2293 52.8085 19.752C52.4298 20.2693 52.2405 20.9973 52.2405 21.936C52.2405 22.8747 52.4298 23.6027 52.8085 24.12C53.1925 24.6373 53.7738 24.896 54.5525 24.896ZM65.7579 19.84C65.5019 19.504 65.2245 19.2693 64.9259 19.136C64.6325 19.0027 64.3019 18.936 63.9339 18.936C63.2192 18.936 62.6645 19.1947 62.2699 19.712C61.8805 20.224 61.6859 20.9733 61.6859 21.96C61.6859 22.4773 61.7285 22.92 61.8139 23.288C61.9045 23.6507 62.0325 23.9493 62.1979 24.184C62.3685 24.4133 62.5765 24.584 62.8219 24.696C63.0672 24.8027 63.3445 24.856 63.6539 24.856C64.1072 24.856 64.4992 24.7547 64.8299 24.552C65.1605 24.3493 65.4699 24.064 65.7579 23.696V19.84ZM67.3259 14.192V26H66.3819C66.1632 26 66.0272 25.896 65.9739 25.688L65.8379 24.752C65.4912 25.1627 65.0965 25.4933 64.6539 25.744C64.2165 25.9893 63.7099 26.112 63.1339 26.112C62.6699 26.112 62.2485 26.0213 61.8699 25.84C61.4965 25.6587 61.1765 25.3947 60.9099 25.048C60.6432 24.696 60.4379 24.2613 60.2939 23.744C60.1499 23.2267 60.0779 22.632 60.0779 21.96C60.0779 21.3573 60.1579 20.7973 60.3179 20.28C60.4779 19.7627 60.7099 19.3147 61.0139 18.936C61.3179 18.5573 61.6859 18.2613 62.1179 18.048C62.5499 17.8293 63.0379 17.72 63.5819 17.72C64.0725 17.72 64.4885 17.8 64.8299 17.96C65.1765 18.12 65.4859 18.3467 65.7579 18.64V14.192H67.3259ZM76.5823 17.872V26H75.6463C75.4329 26 75.2943 25.896 75.2302 25.688L75.1182 24.872C74.9422 25.0587 74.7582 25.2293 74.5662 25.384C74.3742 25.5387 74.1689 25.672 73.9503 25.784C73.7316 25.8907 73.4996 25.9733 73.2543 26.032C73.0089 26.096 72.7449 26.128 72.4622 26.128C72.0142 26.128 71.6196 26.0533 71.2782 25.904C70.9422 25.7547 70.6596 25.5467 70.4302 25.28C70.2009 25.008 70.0276 24.6827 69.9102 24.304C69.7929 23.9253 69.7342 23.5067 69.7342 23.048V17.872H71.3022V23.048C71.3022 23.6293 71.4356 24.0827 71.7022 24.408C71.9689 24.728 72.3769 24.888 72.9262 24.888C73.3262 24.888 73.6996 24.7947 74.0462 24.608C74.3929 24.416 74.7182 24.1547 75.0223 23.824V17.872H76.5823ZM84.7757 19.392C84.7277 19.4507 84.6797 19.4987 84.6317 19.536C84.5891 19.568 84.5251 19.584 84.4397 19.584C84.3544 19.584 84.2637 19.552 84.1677 19.488C84.0771 19.4187 83.9597 19.3467 83.8157 19.272C83.6771 19.192 83.5064 19.12 83.3037 19.056C83.1064 18.9867 82.8611 18.952 82.5677 18.952C82.1837 18.952 81.8451 19.0213 81.5517 19.16C81.2584 19.2987 81.0131 19.496 80.8157 19.752C80.6237 20.008 80.4771 20.32 80.3757 20.688C80.2744 21.056 80.2237 21.4693 80.2237 21.928C80.2237 22.4027 80.2771 22.8267 80.3837 23.2C80.4904 23.568 80.6424 23.88 80.8397 24.136C81.0371 24.3867 81.2771 24.5787 81.5597 24.712C81.8424 24.84 82.1571 24.904 82.5037 24.904C82.8397 24.904 83.1171 24.864 83.3357 24.784C83.5544 24.6987 83.7357 24.608 83.8797 24.512C84.0237 24.416 84.1437 24.328 84.2397 24.248C84.3357 24.1627 84.4344 24.12 84.5357 24.12C84.6637 24.12 84.7624 24.168 84.8317 24.264L85.2797 24.84C85.0931 25.0693 84.8824 25.264 84.6477 25.424C84.4184 25.584 84.1731 25.7147 83.9117 25.816C83.6504 25.9173 83.3757 25.992 83.0877 26.04C82.8051 26.088 82.5171 26.112 82.2237 26.112C81.7171 26.112 81.2424 26.0187 80.7997 25.832C80.3624 25.6453 79.9811 25.3733 79.6557 25.016C79.3357 24.6587 79.0824 24.2213 78.8957 23.704C78.7091 23.1813 78.6157 22.5893 78.6157 21.928C78.6157 21.3253 78.6984 20.768 78.8637 20.256C79.0344 19.744 79.2824 19.304 79.6077 18.936C79.9384 18.5627 80.3437 18.272 80.8237 18.064C81.3037 17.8507 81.8531 17.744 82.4717 17.744C83.0531 17.744 83.5651 17.8373 84.0077 18.024C84.4504 18.2107 84.8451 18.4747 85.1917 18.816L84.7757 19.392ZM89.6 26.128C88.944 26.128 88.4373 25.944 88.08 25.576C87.728 25.208 87.552 24.6827 87.552 24V19.136H86.608C86.5173 19.136 86.44 19.1093 86.376 19.056C86.3173 18.9973 86.288 18.912 86.288 18.8V18.168L87.608 17.984L87.96 15.56C87.9813 15.4693 88.0213 15.4 88.08 15.352C88.144 15.2987 88.224 15.272 88.32 15.272H89.112V18H91.416V19.136H89.112V23.896C89.112 24.216 89.1893 24.456 89.344 24.616C89.504 24.7707 89.7067 24.848 89.952 24.848C90.096 24.848 90.2187 24.8293 90.32 24.792C90.4267 24.7547 90.5173 24.7147 90.592 24.672C90.6667 24.624 90.7307 24.5813 90.784 24.544C90.8373 24.5067 90.8853 24.488 90.928 24.488C90.9813 24.488 91.0213 24.5013 91.048 24.528C91.08 24.5493 91.112 24.5867 91.144 24.64L91.608 25.392C91.352 25.6267 91.048 25.808 90.696 25.936C90.344 26.064 89.9787 26.128 89.6 26.128Z" fill="#3C3C6F"/>
<defs>
<filter id="filter0_b_450_5794" x="-30" y="-30" width="186" height="98" filterUnits="userSpaceOnUse" color-interpolation-filters="sRGB">
<feFlood flood-opacity="0" result="BackgroundImageFix"/>
<feGaussianBlur in="BackgroundImageFix" stdDeviation="15"/>
<feComposite in2="SourceAlpha" operator="in" result="effect1_backgroundBlur_450_5794"/>
<feBlend mode="normal" in="SourceGraphic" in2="effect1_backgroundBlur_450_5794" result="shape"/>
</filter>
<linearGradient id="paint0_linear_450_5794" x1="8.89587" y1="-6.09434" x2="57.4859" y2="-0.270214" gradientUnits="userSpaceOnUse">
<stop stop-color="white"/>
<stop offset="1" stop-color="white" stop-opacity="0"/>
</linearGradient>
</defs>
</svg>
