<svg width="183" height="38" viewBox="0 0 183 38" fill="none" xmlns="http://www.w3.org/2000/svg">
<g filter="url(#filter0_b_450_5820)">
<path d="M0 19C0 8.50659 8.50659 0 19 0H164C174.493 0 183 8.50659 183 19C183 29.4934 174.493 38 164 38H19C8.50659 38 0 29.4934 0 19Z" fill="white" fill-opacity="0.6"/>
<path d="M1 19C1 9.05888 9.05888 1 19 1H164C173.941 1 182 9.05888 182 19C182 28.9411 173.941 37 164 37H19C9.05888 37 1 28.9411 1 19Z" stroke="url(#paint0_linear_450_5820)" stroke-opacity="0.9" stroke-width="2"/>
</g>
<path d="M37.1934 14.512V26H35.4894V20.824H29.4974V26H27.7854V14.512H29.4974V19.584H35.4894V14.512H37.1934ZM46.6548 17.872V26H45.7188C45.5054 26 45.3668 25.896 45.3028 25.688L45.1908 24.872C45.0148 25.0587 44.8308 25.2293 44.6388 25.384C44.4468 25.5387 44.2414 25.672 44.0228 25.784C43.8041 25.8907 43.5721 25.9733 43.3268 26.032C43.0814 26.096 42.8174 26.128 42.5348 26.128C42.0868 26.128 41.6921 26.0533 41.3508 25.904C41.0148 25.7547 40.7321 25.5467 40.5028 25.28C40.2734 25.008 40.1001 24.6827 39.9828 24.304C39.8654 23.9253 39.8068 23.5067 39.8068 23.048V17.872H41.3748V23.048C41.3748 23.6293 41.5081 24.0827 41.7748 24.408C42.0414 24.728 42.4494 24.888 42.9988 24.888C43.3988 24.888 43.7721 24.7947 44.1188 24.608C44.4654 24.416 44.7908 24.1547 45.0948 23.824V17.872H46.6548ZM49.1523 26V17.872H50.0883C50.3069 17.872 50.4429 17.976 50.4963 18.184L50.6083 18.96C50.9069 18.6027 51.2376 18.312 51.6003 18.088C51.9683 17.8587 52.3976 17.744 52.8883 17.744C53.4269 17.744 53.8643 17.8933 54.2003 18.192C54.5363 18.4853 54.7816 18.8853 54.9363 19.392C55.0536 19.104 55.2056 18.856 55.3923 18.648C55.5789 18.44 55.7869 18.2693 56.0163 18.136C56.2456 18.0027 56.4883 17.904 56.7443 17.84C57.0056 17.776 57.2696 17.744 57.5363 17.744C57.9683 17.744 58.3523 17.8133 58.6883 17.952C59.0296 18.0853 59.3176 18.2827 59.5523 18.544C59.7869 18.8053 59.9656 19.128 60.0883 19.512C60.2109 19.896 60.2723 20.3333 60.2723 20.824V26H58.7043V20.824C58.7043 20.216 58.5709 19.7573 58.3043 19.448C58.0429 19.1387 57.6589 18.984 57.1523 18.984C56.9283 18.984 56.7149 19.024 56.5123 19.104C56.3096 19.1787 56.1309 19.2933 55.9763 19.448C55.8269 19.6027 55.7069 19.7947 55.6163 20.024C55.5309 20.2533 55.4883 20.52 55.4883 20.824V26H53.9203V20.824C53.9203 20.1947 53.7949 19.7307 53.5443 19.432C53.2936 19.1333 52.9256 18.984 52.4403 18.984C52.1043 18.984 51.7923 19.072 51.5043 19.248C51.2163 19.424 50.9523 19.664 50.7123 19.968V26H49.1523ZM67.059 22.392C66.4243 22.4133 65.8857 22.464 65.443 22.544C65.0003 22.6187 64.6403 22.72 64.363 22.848C64.0857 22.976 63.8857 23.128 63.763 23.304C63.6403 23.4747 63.579 23.6667 63.579 23.88C63.579 24.0827 63.611 24.2587 63.675 24.408C63.7443 24.552 63.835 24.672 63.947 24.768C64.0643 24.8587 64.2003 24.9253 64.355 24.968C64.5097 25.0107 64.6777 25.032 64.859 25.032C65.099 25.032 65.3177 25.008 65.515 24.96C65.7177 24.912 65.907 24.8453 66.083 24.76C66.259 24.6693 66.427 24.56 66.587 24.432C66.747 24.304 66.9043 24.1573 67.059 23.992V22.392ZM62.483 19.008C62.9363 18.576 63.427 18.2533 63.955 18.04C64.4883 17.8267 65.0723 17.72 65.707 17.72C66.171 17.72 66.5817 17.7973 66.939 17.952C67.2963 18.1013 67.5977 18.312 67.843 18.584C68.0883 18.856 68.2723 19.1813 68.395 19.56C68.523 19.9387 68.587 20.3573 68.587 20.816V26H67.891C67.7363 26 67.619 25.976 67.539 25.928C67.459 25.8747 67.395 25.7787 67.347 25.64L67.179 24.928C66.971 25.12 66.7657 25.2907 66.563 25.44C66.3603 25.584 66.147 25.7093 65.923 25.816C65.7043 25.9173 65.4697 25.9947 65.219 26.048C64.9683 26.1013 64.691 26.128 64.387 26.128C64.067 26.128 63.7657 26.0853 63.483 26C63.2057 25.9093 62.963 25.7733 62.755 25.592C62.547 25.4107 62.3817 25.184 62.259 24.912C62.1417 24.64 62.083 24.3227 62.083 23.96C62.083 23.64 62.1683 23.3333 62.339 23.04C62.515 22.7413 62.7977 22.4747 63.187 22.24C63.5817 22.0053 64.0937 21.8133 64.723 21.664C65.3577 21.5147 66.1363 21.4293 67.059 21.408V20.816C67.059 20.2027 66.9283 19.744 66.667 19.44C66.4057 19.136 66.0217 18.984 65.515 18.984C65.1737 18.984 64.8857 19.0267 64.651 19.112C64.4217 19.1973 64.2217 19.2933 64.051 19.4C63.8857 19.5013 63.739 19.5947 63.611 19.68C63.4883 19.7653 63.3603 19.808 63.227 19.808C63.1203 19.808 63.027 19.7787 62.947 19.72C62.8723 19.6613 62.811 19.592 62.763 19.512L62.483 19.008ZM72.4594 19C72.6354 18.8133 72.8194 18.6427 73.0114 18.488C73.2034 18.3333 73.406 18.2027 73.6194 18.096C73.838 17.984 74.07 17.8987 74.3154 17.84C74.566 17.776 74.8327 17.744 75.1154 17.744C75.5634 17.744 75.9554 17.8187 76.2914 17.968C76.6327 18.1173 76.918 18.328 77.1474 18.6C77.3767 18.8667 77.55 19.1893 77.6674 19.568C77.7847 19.9467 77.8434 20.3653 77.8434 20.824V26H76.2754V20.824C76.2754 20.2427 76.142 19.792 75.8754 19.472C75.6087 19.1467 75.2007 18.984 74.6514 18.984C74.2514 18.984 73.8754 19.08 73.5234 19.272C73.1767 19.4587 72.854 19.7147 72.5554 20.04V26H70.9954V17.872H71.9314C72.15 17.872 72.286 17.976 72.3394 18.184L72.4594 19ZM88.2114 20.048C88.6487 20.048 89.0327 19.9947 89.3634 19.888C89.6994 19.7813 89.9794 19.632 90.2034 19.44C90.4274 19.2427 90.5954 19.0107 90.7074 18.744C90.8194 18.472 90.8754 18.1733 90.8754 17.848C90.8754 17.1867 90.6567 16.688 90.2194 16.352C89.7874 16.016 89.1367 15.848 88.2674 15.848H86.6594V20.048H88.2114ZM93.5714 26H92.0514C91.7474 26 91.526 25.88 91.3874 25.64L88.5474 21.656C88.4567 21.5227 88.358 21.4293 88.2514 21.376C88.1447 21.3173 87.9847 21.288 87.7714 21.288H86.6594V26H84.9554V14.512H88.2674C89.0087 14.512 89.646 14.5893 90.1794 14.744C90.718 14.8933 91.1607 15.1093 91.5074 15.392C91.8594 15.6693 92.118 16.0053 92.2834 16.4C92.454 16.7947 92.5394 17.2373 92.5394 17.728C92.5394 18.128 92.478 18.504 92.3554 18.856C92.2327 19.208 92.0514 19.5253 91.8114 19.808C91.5767 20.0853 91.2887 20.3253 90.9474 20.528C90.606 20.7307 90.2194 20.8853 89.7874 20.992C90.0007 21.12 90.1847 21.2987 90.3394 21.528L93.5714 26ZM99.9019 21.032C99.9019 20.7227 99.8565 20.4373 99.7659 20.176C99.6805 19.9147 99.5525 19.688 99.3819 19.496C99.2112 19.304 99.0032 19.1547 98.7579 19.048C98.5125 18.9413 98.2299 18.888 97.9099 18.888C97.2539 18.888 96.7365 19.0773 96.3579 19.456C95.9845 19.8347 95.7472 20.36 95.6459 21.032H99.9019ZM101.19 24.84C100.998 25.064 100.777 25.2587 100.526 25.424C100.275 25.584 100.009 25.7147 99.7259 25.816C99.4432 25.9173 99.1499 25.992 98.8459 26.04C98.5472 26.088 98.2512 26.112 97.9579 26.112C97.3979 26.112 96.8779 26.0187 96.3979 25.832C95.9232 25.64 95.5099 25.3627 95.1579 25C94.8112 24.632 94.5392 24.1787 94.3419 23.64C94.1499 23.096 94.0539 22.472 94.0539 21.768C94.0539 21.2027 94.1419 20.6773 94.3179 20.192C94.4939 19.7013 94.7445 19.2747 95.0699 18.912C95.4005 18.5493 95.8032 18.264 96.2779 18.056C96.7525 17.848 97.2859 17.744 97.8779 17.744C98.3739 17.744 98.8299 17.8267 99.2459 17.992C99.6672 18.152 100.03 18.3867 100.334 18.696C100.638 19.0053 100.875 19.3867 101.046 19.84C101.222 20.2933 101.31 20.8107 101.31 21.392C101.31 21.632 101.283 21.7947 101.23 21.88C101.177 21.96 101.078 22 100.934 22H95.6059C95.6219 22.4853 95.6912 22.9093 95.8139 23.272C95.9365 23.6293 96.1045 23.928 96.3179 24.168C96.5365 24.408 96.7952 24.5867 97.0939 24.704C97.3925 24.8213 97.7259 24.88 98.0939 24.88C98.4405 24.88 98.7392 24.84 98.9899 24.76C99.2459 24.68 99.4645 24.5947 99.6459 24.504C99.8325 24.408 99.9872 24.32 100.11 24.24C100.238 24.16 100.35 24.12 100.446 24.12C100.574 24.12 100.673 24.168 100.742 24.264L101.19 24.84ZM108.099 19.272C108.056 19.3413 108.011 19.392 107.963 19.424C107.915 19.4507 107.853 19.464 107.779 19.464C107.693 19.464 107.597 19.4347 107.491 19.376C107.389 19.3173 107.264 19.2533 107.115 19.184C106.971 19.1147 106.8 19.0507 106.603 18.992C106.405 18.9333 106.171 18.904 105.899 18.904C105.675 18.904 105.469 18.9333 105.283 18.992C105.101 19.0453 104.947 19.1227 104.819 19.224C104.691 19.32 104.592 19.4373 104.523 19.576C104.453 19.7093 104.419 19.8533 104.419 20.008C104.419 20.2107 104.477 20.3787 104.595 20.512C104.717 20.6453 104.875 20.76 105.067 20.856C105.264 20.952 105.485 21.04 105.731 21.12C105.981 21.1947 106.235 21.2747 106.491 21.36C106.752 21.4453 107.005 21.544 107.251 21.656C107.501 21.7627 107.723 21.8987 107.915 22.064C108.112 22.224 108.269 22.4187 108.387 22.648C108.509 22.8773 108.571 23.1573 108.571 23.488C108.571 23.8667 108.501 24.2187 108.363 24.544C108.229 24.864 108.029 25.1413 107.763 25.376C107.501 25.6107 107.176 25.7947 106.787 25.928C106.397 26.0613 105.952 26.128 105.451 26.128C104.891 26.128 104.373 26.0347 103.899 25.848C103.424 25.6613 103.027 25.424 102.707 25.136L103.075 24.536C103.117 24.4613 103.171 24.4053 103.235 24.368C103.299 24.3253 103.384 24.304 103.491 24.304C103.592 24.304 103.696 24.3413 103.803 24.416C103.909 24.4907 104.037 24.5733 104.187 24.664C104.336 24.7493 104.517 24.8293 104.731 24.904C104.944 24.9733 105.211 25.008 105.531 25.008C105.797 25.008 106.029 24.976 106.227 24.912C106.424 24.8427 106.587 24.752 106.715 24.64C106.848 24.5227 106.947 24.3893 107.011 24.24C107.075 24.0907 107.107 23.9333 107.107 23.768C107.107 23.5547 107.045 23.3787 106.923 23.24C106.805 23.096 106.648 22.9733 106.451 22.872C106.259 22.7707 106.037 22.6827 105.787 22.608C105.536 22.5333 105.28 22.4533 105.019 22.368C104.757 22.2827 104.501 22.184 104.251 22.072C104 21.96 103.776 21.8187 103.579 21.648C103.387 21.4773 103.229 21.2693 103.107 21.024C102.989 20.7787 102.931 20.48 102.931 20.128C102.931 19.8133 102.995 19.512 103.123 19.224C103.256 18.936 103.445 18.6827 103.691 18.464C103.941 18.2453 104.248 18.072 104.611 17.944C104.979 17.8107 105.397 17.744 105.867 17.744C106.405 17.744 106.891 17.8293 107.323 18C107.76 18.1707 108.133 18.4053 108.443 18.704L108.099 19.272ZM114.044 17.744C114.641 17.744 115.18 17.8427 115.66 18.04C116.145 18.232 116.556 18.512 116.892 18.88C117.233 19.2427 117.494 19.6827 117.676 20.2C117.857 20.712 117.948 21.288 117.948 21.928C117.948 22.568 117.857 23.1467 117.676 23.664C117.494 24.1813 117.233 24.6213 116.892 24.984C116.556 25.3467 116.145 25.6267 115.66 25.824C115.18 26.016 114.641 26.112 114.044 26.112C113.441 26.112 112.897 26.016 112.412 25.824C111.932 25.6267 111.521 25.3467 111.18 24.984C110.838 24.6213 110.574 24.1813 110.388 23.664C110.206 23.1467 110.116 22.568 110.116 21.928C110.116 21.288 110.206 20.712 110.388 20.2C110.574 19.6827 110.838 19.2427 111.18 18.88C111.521 18.512 111.932 18.232 112.412 18.04C112.897 17.8427 113.441 17.744 114.044 17.744ZM114.044 24.896C114.812 24.896 115.385 24.6373 115.764 24.12C116.142 23.6027 116.332 22.8747 116.332 21.936C116.332 20.9973 116.142 20.2693 115.764 19.752C115.385 19.2293 114.812 18.968 114.044 18.968C113.265 18.968 112.684 19.2293 112.3 19.752C111.921 20.2693 111.732 20.9973 111.732 21.936C111.732 22.8747 111.921 23.6027 112.3 24.12C112.684 24.6373 113.265 24.896 114.044 24.896ZM126.769 17.872V26H125.833C125.62 26 125.481 25.896 125.417 25.688L125.305 24.872C125.129 25.0587 124.945 25.2293 124.753 25.384C124.561 25.5387 124.356 25.672 124.137 25.784C123.918 25.8907 123.686 25.9733 123.441 26.032C123.196 26.096 122.932 26.128 122.649 26.128C122.201 26.128 121.806 26.0533 121.465 25.904C121.129 25.7547 120.846 25.5467 120.617 25.28C120.388 25.008 120.214 24.6827 120.097 24.304C119.98 23.9253 119.921 23.5067 119.921 23.048V17.872H121.489V23.048C121.489 23.6293 121.622 24.0827 121.889 24.408C122.156 24.728 122.564 24.888 123.113 24.888C123.513 24.888 123.886 24.7947 124.233 24.608C124.58 24.416 124.905 24.1547 125.209 23.824V17.872H126.769ZM130.739 19.432C131 18.8987 131.315 18.48 131.683 18.176C132.051 17.872 132.493 17.72 133.011 17.72C133.187 17.72 133.352 17.7413 133.507 17.784C133.667 17.8213 133.805 17.88 133.923 17.96L133.819 19.136C133.781 19.28 133.693 19.352 133.555 19.352C133.48 19.352 133.368 19.3387 133.219 19.312C133.069 19.28 132.909 19.264 132.739 19.264C132.488 19.264 132.267 19.3013 132.075 19.376C131.883 19.4453 131.709 19.552 131.555 19.696C131.405 19.8347 131.272 20.008 131.155 20.216C131.037 20.4187 130.928 20.6507 130.827 20.912V26H129.267V17.872H130.163C130.333 17.872 130.448 17.904 130.507 17.968C130.571 18.0267 130.616 18.1333 130.643 18.288L130.739 19.432ZM140.845 19.392C140.797 19.4507 140.749 19.4987 140.701 19.536C140.658 19.568 140.594 19.584 140.509 19.584C140.424 19.584 140.333 19.552 140.237 19.488C140.146 19.4187 140.029 19.3467 139.885 19.272C139.746 19.192 139.576 19.12 139.373 19.056C139.176 18.9867 138.93 18.952 138.637 18.952C138.253 18.952 137.914 19.0213 137.621 19.16C137.328 19.2987 137.082 19.496 136.885 19.752C136.693 20.008 136.546 20.32 136.445 20.688C136.344 21.056 136.293 21.4693 136.293 21.928C136.293 22.4027 136.346 22.8267 136.453 23.2C136.56 23.568 136.712 23.88 136.909 24.136C137.106 24.3867 137.346 24.5787 137.629 24.712C137.912 24.84 138.226 24.904 138.573 24.904C138.909 24.904 139.186 24.864 139.405 24.784C139.624 24.6987 139.805 24.608 139.949 24.512C140.093 24.416 140.213 24.328 140.309 24.248C140.405 24.1627 140.504 24.12 140.605 24.12C140.733 24.12 140.832 24.168 140.901 24.264L141.349 24.84C141.162 25.0693 140.952 25.264 140.717 25.424C140.488 25.584 140.242 25.7147 139.981 25.816C139.72 25.9173 139.445 25.992 139.157 26.04C138.874 26.088 138.586 26.112 138.293 26.112C137.786 26.112 137.312 26.0187 136.869 25.832C136.432 25.6453 136.05 25.3733 135.725 25.016C135.405 24.6587 135.152 24.2213 134.965 23.704C134.778 23.1813 134.685 22.5893 134.685 21.928C134.685 21.3253 134.768 20.768 134.933 20.256C135.104 19.744 135.352 19.304 135.677 18.936C136.008 18.5627 136.413 18.272 136.893 18.064C137.373 17.8507 137.922 17.744 138.541 17.744C139.122 17.744 139.634 17.8373 140.077 18.024C140.52 18.2107 140.914 18.4747 141.261 18.816L140.845 19.392ZM148.369 21.032C148.369 20.7227 148.323 20.4373 148.233 20.176C148.147 19.9147 148.019 19.688 147.849 19.496C147.678 19.304 147.47 19.1547 147.225 19.048C146.979 18.9413 146.697 18.888 146.377 18.888C145.721 18.888 145.203 19.0773 144.825 19.456C144.451 19.8347 144.214 20.36 144.113 21.032H148.369ZM149.657 24.84C149.465 25.064 149.243 25.2587 148.993 25.424C148.742 25.584 148.475 25.7147 148.193 25.816C147.91 25.9173 147.617 25.992 147.313 26.04C147.014 26.088 146.718 26.112 146.425 26.112C145.865 26.112 145.345 26.0187 144.865 25.832C144.39 25.64 143.977 25.3627 143.625 25C143.278 24.632 143.006 24.1787 142.809 23.64C142.617 23.096 142.521 22.472 142.521 21.768C142.521 21.2027 142.609 20.6773 142.785 20.192C142.961 19.7013 143.211 19.2747 143.537 18.912C143.867 18.5493 144.27 18.264 144.745 18.056C145.219 17.848 145.753 17.744 146.345 17.744C146.841 17.744 147.297 17.8267 147.713 17.992C148.134 18.152 148.497 18.3867 148.801 18.696C149.105 19.0053 149.342 19.3867 149.513 19.84C149.689 20.2933 149.777 20.8107 149.777 21.392C149.777 21.632 149.75 21.7947 149.697 21.88C149.643 21.96 149.545 22 149.401 22H144.073C144.089 22.4853 144.158 22.9093 144.281 23.272C144.403 23.6293 144.571 23.928 144.785 24.168C145.003 24.408 145.262 24.5867 145.561 24.704C145.859 24.8213 146.193 24.88 146.561 24.88C146.907 24.88 147.206 24.84 147.457 24.76C147.713 24.68 147.931 24.5947 148.113 24.504C148.299 24.408 148.454 24.32 148.577 24.24C148.705 24.16 148.817 24.12 148.913 24.12C149.041 24.12 149.139 24.168 149.209 24.264L149.657 24.84ZM156.566 19.272C156.523 19.3413 156.478 19.392 156.43 19.424C156.382 19.4507 156.32 19.464 156.246 19.464C156.16 19.464 156.064 19.4347 155.958 19.376C155.856 19.3173 155.731 19.2533 155.582 19.184C155.438 19.1147 155.267 19.0507 155.07 18.992C154.872 18.9333 154.638 18.904 154.366 18.904C154.142 18.904 153.936 18.9333 153.75 18.992C153.568 19.0453 153.414 19.1227 153.286 19.224C153.158 19.32 153.059 19.4373 152.99 19.576C152.92 19.7093 152.886 19.8533 152.886 20.008C152.886 20.2107 152.944 20.3787 153.062 20.512C153.184 20.6453 153.342 20.76 153.534 20.856C153.731 20.952 153.952 21.04 154.198 21.12C154.448 21.1947 154.702 21.2747 154.958 21.36C155.219 21.4453 155.472 21.544 155.718 21.656C155.968 21.7627 156.19 21.8987 156.382 22.064C156.579 22.224 156.736 22.4187 156.854 22.648C156.976 22.8773 157.038 23.1573 157.038 23.488C157.038 23.8667 156.968 24.2187 156.83 24.544C156.696 24.864 156.496 25.1413 156.23 25.376C155.968 25.6107 155.643 25.7947 155.254 25.928C154.864 26.0613 154.419 26.128 153.918 26.128C153.358 26.128 152.84 26.0347 152.366 25.848C151.891 25.6613 151.494 25.424 151.174 25.136L151.542 24.536C151.584 24.4613 151.638 24.4053 151.702 24.368C151.766 24.3253 151.851 24.304 151.958 24.304C152.059 24.304 152.163 24.3413 152.27 24.416C152.376 24.4907 152.504 24.5733 152.654 24.664C152.803 24.7493 152.984 24.8293 153.198 24.904C153.411 24.9733 153.678 25.008 153.998 25.008C154.264 25.008 154.496 24.976 154.694 24.912C154.891 24.8427 155.054 24.752 155.182 24.64C155.315 24.5227 155.414 24.3893 155.478 24.24C155.542 24.0907 155.574 23.9333 155.574 23.768C155.574 23.5547 155.512 23.3787 155.39 23.24C155.272 23.096 155.115 22.9733 154.918 22.872C154.726 22.7707 154.504 22.6827 154.254 22.608C154.003 22.5333 153.747 22.4533 153.486 22.368C153.224 22.2827 152.968 22.184 152.718 22.072C152.467 21.96 152.243 21.8187 152.046 21.648C151.854 21.4773 151.696 21.2693 151.574 21.024C151.456 20.7787 151.398 20.48 151.398 20.128C151.398 19.8133 151.462 19.512 151.59 19.224C151.723 18.936 151.912 18.6827 152.158 18.464C152.408 18.2453 152.715 18.072 153.078 17.944C153.446 17.8107 153.864 17.744 154.334 17.744C154.872 17.744 155.358 17.8293 155.79 18C156.227 18.1707 156.6 18.4053 156.91 18.704L156.566 19.272Z" fill="#3C3C6F"/>
<defs>
<filter id="filter0_b_450_5820" x="-30" y="-30" width="243" height="98" filterUnits="userSpaceOnUse" color-interpolation-filters="sRGB">
<feFlood flood-opacity="0" result="BackgroundImageFix"/>
<feGaussianBlur in="BackgroundImageFix" stdDeviation="15"/>
<feComposite in2="SourceAlpha" operator="in" result="effect1_backgroundBlur_450_5820"/>
<feBlend mode="normal" in="SourceGraphic" in2="effect1_backgroundBlur_450_5820" result="shape"/>
</filter>
<linearGradient id="paint0_linear_450_5820" x1="12.9202" y1="-6.09434" x2="82.3996" y2="6.00108" gradientUnits="userSpaceOnUse">
<stop stop-color="white"/>
<stop offset="1" stop-color="white" stop-opacity="0"/>
</linearGradient>
</defs>
</svg>
