<svg width="171" height="38" viewBox="0 0 171 38" fill="none" xmlns="http://www.w3.org/2000/svg">
<g filter="url(#filter0_b_450_5788)">
<path d="M0 19C0 8.50659 8.50659 0 19 0H152C162.493 0 171 8.50659 171 19C171 29.4934 162.493 38 152 38H19C8.50659 38 0 29.4934 0 19Z" fill="white" fill-opacity="0.6"/>
<path d="M1 19C1 9.05888 9.05888 1 19 1H152C161.941 1 170 9.05888 170 19C170 28.9411 161.941 37 152 37H19C9.05887 37 1 28.9411 1 19Z" stroke="url(#paint0_linear_450_5788)" stroke-opacity="0.9" stroke-width="2"/>
</g>
<path d="M31.3646 15.896V19.744H35.9726V21.128H31.3646V26H29.6526V14.512H36.7726V15.896H31.3646ZM41.9424 22.392C41.3078 22.4133 40.7691 22.464 40.3264 22.544C39.8838 22.6187 39.5238 22.72 39.2464 22.848C38.9691 22.976 38.7691 23.128 38.6464 23.304C38.5238 23.4747 38.4624 23.6667 38.4624 23.88C38.4624 24.0827 38.4944 24.2587 38.5584 24.408C38.6278 24.552 38.7184 24.672 38.8304 24.768C38.9478 24.8587 39.0838 24.9253 39.2384 24.968C39.3931 25.0107 39.5611 25.032 39.7424 25.032C39.9824 25.032 40.2011 25.008 40.3984 24.96C40.6011 24.912 40.7904 24.8453 40.9664 24.76C41.1424 24.6693 41.3104 24.56 41.4704 24.432C41.6304 24.304 41.7878 24.1573 41.9424 23.992V22.392ZM37.3664 19.008C37.8198 18.576 38.3104 18.2533 38.8384 18.04C39.3718 17.8267 39.9558 17.72 40.5904 17.72C41.0544 17.72 41.4651 17.7973 41.8224 17.952C42.1798 18.1013 42.4811 18.312 42.7264 18.584C42.9718 18.856 43.1558 19.1813 43.2784 19.56C43.4064 19.9387 43.4704 20.3573 43.4704 20.816V26H42.7744C42.6198 26 42.5024 25.976 42.4224 25.928C42.3424 25.8747 42.2784 25.7787 42.2304 25.64L42.0624 24.928C41.8544 25.12 41.6491 25.2907 41.4464 25.44C41.2438 25.584 41.0304 25.7093 40.8064 25.816C40.5878 25.9173 40.3531 25.9947 40.1024 26.048C39.8518 26.1013 39.5744 26.128 39.2704 26.128C38.9504 26.128 38.6491 26.0853 38.3664 26C38.0891 25.9093 37.8464 25.7733 37.6384 25.592C37.4304 25.4107 37.2651 25.184 37.1424 24.912C37.0251 24.64 36.9664 24.3227 36.9664 23.96C36.9664 23.64 37.0518 23.3333 37.2224 23.04C37.3984 22.7413 37.6811 22.4747 38.0704 22.24C38.4651 22.0053 38.9771 21.8133 39.6064 21.664C40.2411 21.5147 41.0198 21.4293 41.9424 21.408V20.816C41.9424 20.2027 41.8118 19.744 41.5504 19.44C41.2891 19.136 40.9051 18.984 40.3984 18.984C40.0571 18.984 39.7691 19.0267 39.5344 19.112C39.3051 19.1973 39.1051 19.2933 38.9344 19.4C38.7691 19.5013 38.6224 19.5947 38.4944 19.68C38.3718 19.7653 38.2438 19.808 38.1104 19.808C38.0038 19.808 37.9104 19.7787 37.8304 19.72C37.7558 19.6613 37.6944 19.592 37.6464 19.512L37.3664 19.008ZM50.6708 19.272C50.6281 19.3413 50.5828 19.392 50.5348 19.424C50.4868 19.4507 50.4255 19.464 50.3508 19.464C50.2655 19.464 50.1695 19.4347 50.0628 19.376C49.9615 19.3173 49.8361 19.2533 49.6868 19.184C49.5428 19.1147 49.3721 19.0507 49.1748 18.992C48.9775 18.9333 48.7428 18.904 48.4708 18.904C48.2468 18.904 48.0415 18.9333 47.8548 18.992C47.6735 19.0453 47.5188 19.1227 47.3908 19.224C47.2628 19.32 47.1641 19.4373 47.0948 19.576C47.0255 19.7093 46.9908 19.8533 46.9908 20.008C46.9908 20.2107 47.0495 20.3787 47.1668 20.512C47.2895 20.6453 47.4468 20.76 47.6388 20.856C47.8361 20.952 48.0575 21.04 48.3028 21.12C48.5535 21.1947 48.8068 21.2747 49.0628 21.36C49.3241 21.4453 49.5775 21.544 49.8228 21.656C50.0735 21.7627 50.2948 21.8987 50.4868 22.064C50.6841 22.224 50.8415 22.4187 50.9588 22.648C51.0815 22.8773 51.1428 23.1573 51.1428 23.488C51.1428 23.8667 51.0735 24.2187 50.9348 24.544C50.8015 24.864 50.6015 25.1413 50.3348 25.376C50.0735 25.6107 49.7481 25.7947 49.3588 25.928C48.9695 26.0613 48.5241 26.128 48.0228 26.128C47.4628 26.128 46.9455 26.0347 46.4708 25.848C45.9961 25.6613 45.5988 25.424 45.2788 25.136L45.6468 24.536C45.6895 24.4613 45.7428 24.4053 45.8068 24.368C45.8708 24.3253 45.9561 24.304 46.0628 24.304C46.1641 24.304 46.2681 24.3413 46.3748 24.416C46.4815 24.4907 46.6095 24.5733 46.7588 24.664C46.9081 24.7493 47.0895 24.8293 47.3028 24.904C47.5161 24.9733 47.7828 25.008 48.1028 25.008C48.3695 25.008 48.6015 24.976 48.7988 24.912C48.9961 24.8427 49.1588 24.752 49.2868 24.64C49.4201 24.5227 49.5188 24.3893 49.5828 24.24C49.6468 24.0907 49.6788 23.9333 49.6788 23.768C49.6788 23.5547 49.6175 23.3787 49.4948 23.24C49.3775 23.096 49.2201 22.9733 49.0228 22.872C48.8308 22.7707 48.6095 22.6827 48.3588 22.608C48.1081 22.5333 47.8521 22.4533 47.5908 22.368C47.3295 22.2827 47.0735 22.184 46.8228 22.072C46.5721 21.96 46.3481 21.8187 46.1508 21.648C45.9588 21.4773 45.8015 21.2693 45.6788 21.024C45.5615 20.7787 45.5028 20.48 45.5028 20.128C45.5028 19.8133 45.5668 19.512 45.6948 19.224C45.8281 18.936 46.0175 18.6827 46.2628 18.464C46.5135 18.2453 46.8201 18.072 47.1828 17.944C47.5508 17.8107 47.9695 17.744 48.4388 17.744C48.9775 17.744 49.4628 17.8293 49.8948 18C50.3321 18.1707 50.7055 18.4053 51.0148 18.704L50.6708 19.272ZM54.7119 18.904C55.0533 18.5573 55.4293 18.2773 55.8399 18.064C56.2559 17.8507 56.7333 17.744 57.2719 17.744C57.7199 17.744 58.1119 17.8187 58.4479 17.968C58.7893 18.1173 59.0746 18.328 59.3039 18.6C59.5333 18.8667 59.7066 19.1893 59.8239 19.568C59.9413 19.9467 59.9999 20.3653 59.9999 20.824V26H58.4319V20.824C58.4319 20.2427 58.2986 19.792 58.0319 19.472C57.7653 19.1467 57.3573 18.984 56.8079 18.984C56.4079 18.984 56.0319 19.08 55.6799 19.272C55.3333 19.4587 55.0106 19.7147 54.7119 20.04V26H53.1519V14.192H54.7119V18.904ZM64.0571 17.872V26H62.4971V17.872H64.0571ZM64.3531 15.36C64.3531 15.504 64.3237 15.6427 64.2651 15.776C64.2064 15.904 64.1264 16.0187 64.0251 16.12C63.9291 16.216 63.8144 16.2933 63.6811 16.352C63.5477 16.4053 63.4091 16.432 63.2651 16.432C63.1211 16.432 62.9851 16.4053 62.8571 16.352C62.7291 16.2933 62.6144 16.216 62.5131 16.12C62.4171 16.0187 62.3397 15.904 62.2811 15.776C62.2277 15.6427 62.2011 15.504 62.2011 15.36C62.2011 15.2107 62.2277 15.072 62.2811 14.944C62.3397 14.8107 62.4171 14.696 62.5131 14.6C62.6144 14.4987 62.7291 14.4213 62.8571 14.368C62.9851 14.3093 63.1211 14.28 63.2651 14.28C63.4091 14.28 63.5477 14.3093 63.6811 14.368C63.8144 14.4213 63.9291 14.4987 64.0251 14.6C64.1264 14.696 64.2064 14.8107 64.2651 14.944C64.3237 15.072 64.3531 15.2107 64.3531 15.36ZM70.0997 17.744C70.697 17.744 71.2357 17.8427 71.7157 18.04C72.201 18.232 72.6117 18.512 72.9477 18.88C73.289 19.2427 73.5504 19.6827 73.7317 20.2C73.913 20.712 74.0037 21.288 74.0037 21.928C74.0037 22.568 73.913 23.1467 73.7317 23.664C73.5504 24.1813 73.289 24.6213 72.9477 24.984C72.6117 25.3467 72.201 25.6267 71.7157 25.824C71.2357 26.016 70.697 26.112 70.0997 26.112C69.497 26.112 68.953 26.016 68.4677 25.824C67.9877 25.6267 67.577 25.3467 67.2357 24.984C66.8944 24.6213 66.6304 24.1813 66.4437 23.664C66.2624 23.1467 66.1717 22.568 66.1717 21.928C66.1717 21.288 66.2624 20.712 66.4437 20.2C66.6304 19.6827 66.8944 19.2427 67.2357 18.88C67.577 18.512 67.9877 18.232 68.4677 18.04C68.953 17.8427 69.497 17.744 70.0997 17.744ZM70.0997 24.896C70.8677 24.896 71.441 24.6373 71.8197 24.12C72.1984 23.6027 72.3877 22.8747 72.3877 21.936C72.3877 20.9973 72.1984 20.2693 71.8197 19.752C71.441 19.2293 70.8677 18.968 70.0997 18.968C69.321 18.968 68.7397 19.2293 68.3557 19.752C67.977 20.2693 67.7877 20.9973 67.7877 21.936C67.7877 22.8747 67.977 23.6027 68.3557 24.12C68.7397 24.6373 69.321 24.896 70.0997 24.896ZM77.5291 19C77.7051 18.8133 77.8891 18.6427 78.0811 18.488C78.2731 18.3333 78.4757 18.2027 78.6891 18.096C78.9077 17.984 79.1397 17.8987 79.3851 17.84C79.6357 17.776 79.9024 17.744 80.1851 17.744C80.6331 17.744 81.0251 17.8187 81.3611 17.968C81.7024 18.1173 81.9877 18.328 82.2171 18.6C82.4464 18.8667 82.6197 19.1893 82.7371 19.568C82.8544 19.9467 82.9131 20.3653 82.9131 20.824V26H81.3451V20.824C81.3451 20.2427 81.2117 19.792 80.9451 19.472C80.6784 19.1467 80.2704 18.984 79.7211 18.984C79.3211 18.984 78.9451 19.08 78.5931 19.272C78.2464 19.4587 77.9237 19.7147 77.6251 20.04V26H76.0651V17.872H77.0011C77.2197 17.872 77.3557 17.976 77.4091 18.184L77.5291 19ZM98.0491 23.536C98.1451 23.536 98.2277 23.5733 98.2971 23.648L98.9691 24.384C98.4997 24.9387 97.9264 25.368 97.2491 25.672C96.5771 25.976 95.7664 26.128 94.8171 26.128C93.9851 26.128 93.2304 25.984 92.5531 25.696C91.8811 25.408 91.3051 25.0053 90.8251 24.488C90.3504 23.9707 89.9824 23.352 89.7211 22.632C89.4597 21.912 89.3291 21.12 89.3291 20.256C89.3291 19.392 89.4651 18.6 89.7371 17.88C90.0144 17.16 90.4011 16.5413 90.8971 16.024C91.3931 15.5067 91.9851 15.104 92.6731 14.816C93.3664 14.528 94.1317 14.384 94.9691 14.384C95.7851 14.384 96.5104 14.5173 97.1451 14.784C97.7797 15.0507 98.3317 15.4053 98.8011 15.848L98.2411 16.64C98.2037 16.6987 98.1557 16.7467 98.0971 16.784C98.0437 16.8213 97.9717 16.84 97.8811 16.84C97.7797 16.84 97.6597 16.7893 97.5211 16.688C97.3877 16.5867 97.2091 16.4747 96.9851 16.352C96.7664 16.224 96.4944 16.1093 96.1691 16.008C95.8437 15.9067 95.4384 15.856 94.9531 15.856C94.3824 15.856 93.8597 15.9573 93.3851 16.16C92.9104 16.3573 92.4997 16.6453 92.1531 17.024C91.8117 17.3973 91.5451 17.8587 91.3531 18.408C91.1664 18.952 91.0731 19.568 91.0731 20.256C91.0731 20.9547 91.1717 21.576 91.3691 22.12C91.5664 22.664 91.8384 23.1253 92.1851 23.504C92.5317 23.8827 92.9397 24.1707 93.4091 24.368C93.8784 24.5653 94.3851 24.664 94.9291 24.664C95.2597 24.664 95.5557 24.6453 95.8171 24.608C96.0837 24.5653 96.3264 24.504 96.5451 24.424C96.7691 24.344 96.9797 24.2427 97.1771 24.12C97.3744 23.992 97.5691 23.84 97.7611 23.664C97.8037 23.6267 97.8491 23.5973 97.8971 23.576C97.9451 23.5493 97.9957 23.536 98.0491 23.536ZM102.106 19.432C102.368 18.8987 102.682 18.48 103.05 18.176C103.418 17.872 103.861 17.72 104.378 17.72C104.554 17.72 104.72 17.7413 104.874 17.784C105.034 17.8213 105.173 17.88 105.29 17.96L105.186 19.136C105.149 19.28 105.061 19.352 104.922 19.352C104.848 19.352 104.736 19.3387 104.586 19.312C104.437 19.28 104.277 19.264 104.106 19.264C103.856 19.264 103.634 19.3013 103.442 19.376C103.25 19.4453 103.077 19.552 102.922 19.696C102.773 19.8347 102.64 20.008 102.522 20.216C102.405 20.4187 102.296 20.6507 102.194 20.912V26H100.634V17.872H101.53C101.701 17.872 101.816 17.904 101.874 17.968C101.938 18.0267 101.984 18.1333 102.01 18.288L102.106 19.432ZM111.901 21.032C111.901 20.7227 111.856 20.4373 111.765 20.176C111.68 19.9147 111.552 19.688 111.381 19.496C111.21 19.304 111.002 19.1547 110.757 19.048C110.512 18.9413 110.229 18.888 109.909 18.888C109.253 18.888 108.736 19.0773 108.357 19.456C107.984 19.8347 107.746 20.36 107.645 21.032H111.901ZM113.189 24.84C112.997 25.064 112.776 25.2587 112.525 25.424C112.274 25.584 112.008 25.7147 111.725 25.816C111.442 25.9173 111.149 25.992 110.845 26.04C110.546 26.088 110.25 26.112 109.957 26.112C109.397 26.112 108.877 26.0187 108.397 25.832C107.922 25.64 107.509 25.3627 107.157 25C106.81 24.632 106.538 24.1787 106.341 23.64C106.149 23.096 106.053 22.472 106.053 21.768C106.053 21.2027 106.141 20.6773 106.317 20.192C106.493 19.7013 106.744 19.2747 107.069 18.912C107.4 18.5493 107.802 18.264 108.277 18.056C108.752 17.848 109.285 17.744 109.877 17.744C110.373 17.744 110.829 17.8267 111.245 17.992C111.666 18.152 112.029 18.3867 112.333 18.696C112.637 19.0053 112.874 19.3867 113.045 19.84C113.221 20.2933 113.309 20.8107 113.309 21.392C113.309 21.632 113.282 21.7947 113.229 21.88C113.176 21.96 113.077 22 112.933 22H107.605C107.621 22.4853 107.69 22.9093 107.813 23.272C107.936 23.6293 108.104 23.928 108.317 24.168C108.536 24.408 108.794 24.5867 109.093 24.704C109.392 24.8213 109.725 24.88 110.093 24.88C110.44 24.88 110.738 24.84 110.989 24.76C111.245 24.68 111.464 24.5947 111.645 24.504C111.832 24.408 111.986 24.32 112.109 24.24C112.237 24.16 112.349 24.12 112.445 24.12C112.573 24.12 112.672 24.168 112.741 24.264L113.189 24.84ZM119.674 22.392C119.039 22.4133 118.5 22.464 118.058 22.544C117.615 22.6187 117.255 22.72 116.978 22.848C116.7 22.976 116.5 23.128 116.378 23.304C116.255 23.4747 116.194 23.6667 116.194 23.88C116.194 24.0827 116.226 24.2587 116.29 24.408C116.359 24.552 116.45 24.672 116.562 24.768C116.679 24.8587 116.815 24.9253 116.97 24.968C117.124 25.0107 117.292 25.032 117.474 25.032C117.714 25.032 117.932 25.008 118.13 24.96C118.332 24.912 118.522 24.8453 118.698 24.76C118.874 24.6693 119.042 24.56 119.202 24.432C119.362 24.304 119.519 24.1573 119.674 23.992V22.392ZM115.098 19.008C115.551 18.576 116.042 18.2533 116.57 18.04C117.103 17.8267 117.687 17.72 118.322 17.72C118.786 17.72 119.196 17.7973 119.554 17.952C119.911 18.1013 120.212 18.312 120.458 18.584C120.703 18.856 120.887 19.1813 121.01 19.56C121.138 19.9387 121.202 20.3573 121.202 20.816V26H120.506C120.351 26 120.234 25.976 120.154 25.928C120.074 25.8747 120.01 25.7787 119.962 25.64L119.794 24.928C119.586 25.12 119.38 25.2907 119.178 25.44C118.975 25.584 118.762 25.7093 118.538 25.816C118.319 25.9173 118.084 25.9947 117.834 26.048C117.583 26.1013 117.306 26.128 117.002 26.128C116.682 26.128 116.38 26.0853 116.098 26C115.82 25.9093 115.578 25.7733 115.37 25.592C115.162 25.4107 114.996 25.184 114.874 24.912C114.756 24.64 114.698 24.3227 114.698 23.96C114.698 23.64 114.783 23.3333 114.954 23.04C115.13 22.7413 115.412 22.4747 115.802 22.24C116.196 22.0053 116.708 21.8133 117.338 21.664C117.972 21.5147 118.751 21.4293 119.674 21.408V20.816C119.674 20.2027 119.543 19.744 119.282 19.44C119.02 19.136 118.636 18.984 118.13 18.984C117.788 18.984 117.5 19.0267 117.266 19.112C117.036 19.1973 116.836 19.2933 116.666 19.4C116.5 19.5013 116.354 19.5947 116.226 19.68C116.103 19.7653 115.975 19.808 115.842 19.808C115.735 19.808 115.642 19.7787 115.562 19.72C115.487 19.6613 115.426 19.592 115.378 19.512L115.098 19.008ZM126.045 26.128C125.389 26.128 124.882 25.944 124.525 25.576C124.173 25.208 123.997 24.6827 123.997 24V19.136H123.053C122.962 19.136 122.885 19.1093 122.821 19.056C122.762 18.9973 122.733 18.912 122.733 18.8V18.168L124.053 17.984L124.405 15.56C124.426 15.4693 124.466 15.4 124.525 15.352C124.589 15.2987 124.669 15.272 124.765 15.272H125.557V18H127.861V19.136H125.557V23.896C125.557 24.216 125.634 24.456 125.789 24.616C125.949 24.7707 126.151 24.848 126.397 24.848C126.541 24.848 126.663 24.8293 126.765 24.792C126.871 24.7547 126.962 24.7147 127.037 24.672C127.111 24.624 127.175 24.5813 127.229 24.544C127.282 24.5067 127.33 24.488 127.373 24.488C127.426 24.488 127.466 24.5013 127.493 24.528C127.525 24.5493 127.557 24.5867 127.589 24.64L128.053 25.392C127.797 25.6267 127.493 25.808 127.141 25.936C126.789 26.064 126.423 26.128 126.045 26.128ZM133.035 17.744C133.632 17.744 134.171 17.8427 134.651 18.04C135.136 18.232 135.547 18.512 135.883 18.88C136.224 19.2427 136.485 19.6827 136.667 20.2C136.848 20.712 136.939 21.288 136.939 21.928C136.939 22.568 136.848 23.1467 136.667 23.664C136.485 24.1813 136.224 24.6213 135.883 24.984C135.547 25.3467 135.136 25.6267 134.651 25.824C134.171 26.016 133.632 26.112 133.035 26.112C132.432 26.112 131.888 26.016 131.403 25.824C130.923 25.6267 130.512 25.3467 130.171 24.984C129.829 24.6213 129.565 24.1813 129.379 23.664C129.197 23.1467 129.107 22.568 129.107 21.928C129.107 21.288 129.197 20.712 129.379 20.2C129.565 19.6827 129.829 19.2427 130.171 18.88C130.512 18.512 130.923 18.232 131.403 18.04C131.888 17.8427 132.432 17.744 133.035 17.744ZM133.035 24.896C133.803 24.896 134.376 24.6373 134.755 24.12C135.133 23.6027 135.323 22.8747 135.323 21.936C135.323 20.9973 135.133 20.2693 134.755 19.752C134.376 19.2293 133.803 18.968 133.035 18.968C132.256 18.968 131.675 19.2293 131.291 19.752C130.912 20.2693 130.723 20.9973 130.723 21.936C130.723 22.8747 130.912 23.6027 131.291 24.12C131.675 24.6373 132.256 24.896 133.035 24.896ZM140.472 19.432C140.733 18.8987 141.048 18.48 141.416 18.176C141.784 17.872 142.227 17.72 142.744 17.72C142.92 17.72 143.085 17.7413 143.24 17.784C143.4 17.8213 143.539 17.88 143.656 17.96L143.552 19.136C143.515 19.28 143.427 19.352 143.288 19.352C143.213 19.352 143.101 19.3387 142.952 19.312C142.803 19.28 142.643 19.264 142.472 19.264C142.221 19.264 142 19.3013 141.808 19.376C141.616 19.4453 141.443 19.552 141.288 19.696C141.139 19.8347 141.005 20.008 140.888 20.216C140.771 20.4187 140.661 20.6507 140.56 20.912V26H139V17.872H139.896C140.067 17.872 140.181 17.904 140.24 17.968C140.304 18.0267 140.349 18.1333 140.376 18.288L140.472 19.432Z" fill="#3C3C6F"/>
<defs>
<filter id="filter0_b_450_5788" x="-30" y="-30" width="231" height="98" filterUnits="userSpaceOnUse" color-interpolation-filters="sRGB">
<feFlood flood-opacity="0" result="BackgroundImageFix"/>
<feGaussianBlur in="BackgroundImageFix" stdDeviation="15"/>
<feComposite in2="SourceAlpha" operator="in" result="effect1_backgroundBlur_450_5788"/>
<feBlend mode="normal" in="SourceGraphic" in2="effect1_backgroundBlur_450_5788" result="shape"/>
</filter>
<linearGradient id="paint0_linear_450_5788" x1="12.073" y1="-6.09434" x2="77.2395" y2="4.50636" gradientUnits="userSpaceOnUse">
<stop stop-color="white"/>
<stop offset="1" stop-color="white" stop-opacity="0"/>
</linearGradient>
</defs>
</svg>
