<svg width="153" height="38" viewBox="0 0 153 38" fill="none" xmlns="http://www.w3.org/2000/svg">
<g filter="url(#filter0_b_450_5779)">
<path d="M0 19C0 8.50659 8.50659 0 19 0H134C144.493 0 153 8.50659 153 19C153 29.4934 144.493 38 134 38H19C8.50659 38 0 29.4934 0 19Z" fill="white" fill-opacity="0.6"/>
<path d="M1 19C1 9.05888 9.05888 1 19 1H134C143.941 1 152 9.05888 152 19C152 28.9411 143.941 37 134 37H19C9.05887 37 1 28.9411 1 19Z" stroke="url(#paint0_linear_450_5779)" stroke-opacity="0.9" stroke-width="2"/>
</g>
<path d="M30.1363 20.424C30.5683 20.424 30.947 20.368 31.2723 20.256C31.603 20.144 31.8776 19.9867 32.0963 19.784C32.3203 19.576 32.4883 19.3307 32.6003 19.048C32.7123 18.76 32.7683 18.4427 32.7683 18.096C32.7683 17.3973 32.5496 16.848 32.1123 16.448C31.6803 16.048 31.0216 15.848 30.1363 15.848H28.3603V20.424H30.1363ZM30.1363 14.512C30.8723 14.512 31.5123 14.5973 32.0563 14.768C32.6003 14.9387 33.051 15.1813 33.4083 15.496C33.7656 15.8053 34.0296 16.1813 34.2003 16.624C34.3763 17.0667 34.4643 17.5573 34.4643 18.096C34.4643 18.6347 34.371 19.1307 34.1843 19.584C33.9976 20.032 33.723 20.4187 33.3603 20.744C32.9976 21.0693 32.5443 21.3227 32.0003 21.504C31.4616 21.68 30.8403 21.768 30.1363 21.768H28.3603V26H26.6563V14.512H30.1363ZM37.6752 19.432C37.9365 18.8987 38.2512 18.48 38.6192 18.176C38.9872 17.872 39.4299 17.72 39.9472 17.72C40.1232 17.72 40.2885 17.7413 40.4432 17.784C40.6032 17.8213 40.7419 17.88 40.8592 17.96L40.7552 19.136C40.7179 19.28 40.6299 19.352 40.4912 19.352C40.4165 19.352 40.3045 19.3387 40.1552 19.312C40.0059 19.28 39.8459 19.264 39.6752 19.264C39.4245 19.264 39.2032 19.3013 39.0112 19.376C38.8192 19.4453 38.6459 19.552 38.4912 19.696C38.3419 19.8347 38.2085 20.008 38.0912 20.216C37.9739 20.4187 37.8645 20.6507 37.7632 20.912V26H36.2032V17.872H37.0992C37.2699 17.872 37.3845 17.904 37.4432 17.968C37.5072 18.0267 37.5525 18.1333 37.5792 18.288L37.6752 19.432ZM44.0146 17.872V26H42.4546V17.872H44.0146ZM44.3106 15.36C44.3106 15.504 44.2812 15.6427 44.2226 15.776C44.1639 15.904 44.0839 16.0187 43.9826 16.12C43.8866 16.216 43.7719 16.2933 43.6386 16.352C43.5052 16.4053 43.3666 16.432 43.2226 16.432C43.0786 16.432 42.9426 16.4053 42.8146 16.352C42.6866 16.2933 42.5719 16.216 42.4706 16.12C42.3746 16.0187 42.2972 15.904 42.2386 15.776C42.1852 15.6427 42.1586 15.504 42.1586 15.36C42.1586 15.2107 42.1852 15.072 42.2386 14.944C42.2972 14.8107 42.3746 14.696 42.4706 14.6C42.5719 14.4987 42.6866 14.4213 42.8146 14.368C42.9426 14.3093 43.0786 14.28 43.2226 14.28C43.3666 14.28 43.5052 14.3093 43.6386 14.368C43.7719 14.4213 43.8866 14.4987 43.9826 14.6C44.0839 14.696 44.1639 14.8107 44.2226 14.944C44.2812 15.072 44.3106 15.2107 44.3106 15.36ZM53.6492 17.872L50.3532 26H48.9452L45.6492 17.872H46.9372C47.0599 17.872 47.1612 17.9013 47.2412 17.96C47.3212 18.0187 47.3745 18.0933 47.4012 18.184L49.3452 23.176C49.4145 23.384 49.4732 23.592 49.5212 23.8C49.5745 24.0027 49.6225 24.2053 49.6652 24.408C49.7079 24.2053 49.7559 24.0027 49.8092 23.8C49.8625 23.5973 49.9265 23.3893 50.0012 23.176L51.9692 18.184C52.0012 18.0933 52.0572 18.0187 52.1372 17.96C52.2172 17.9013 52.3132 17.872 52.4252 17.872H53.6492ZM59.3906 22.392C58.7559 22.4133 58.2172 22.464 57.7746 22.544C57.3319 22.6187 56.9719 22.72 56.6946 22.848C56.4172 22.976 56.2172 23.128 56.0946 23.304C55.9719 23.4747 55.9106 23.6667 55.9106 23.88C55.9106 24.0827 55.9426 24.2587 56.0066 24.408C56.0759 24.552 56.1666 24.672 56.2786 24.768C56.3959 24.8587 56.5319 24.9253 56.6866 24.968C56.8412 25.0107 57.0092 25.032 57.1906 25.032C57.4306 25.032 57.6492 25.008 57.8466 24.96C58.0492 24.912 58.2386 24.8453 58.4146 24.76C58.5906 24.6693 58.7586 24.56 58.9186 24.432C59.0786 24.304 59.2359 24.1573 59.3906 23.992V22.392ZM54.8146 19.008C55.2679 18.576 55.7586 18.2533 56.2866 18.04C56.8199 17.8267 57.4039 17.72 58.0386 17.72C58.5026 17.72 58.9132 17.7973 59.2706 17.952C59.6279 18.1013 59.9292 18.312 60.1746 18.584C60.4199 18.856 60.6039 19.1813 60.7266 19.56C60.8546 19.9387 60.9186 20.3573 60.9186 20.816V26H60.2226C60.0679 26 59.9506 25.976 59.8706 25.928C59.7906 25.8747 59.7266 25.7787 59.6786 25.64L59.5106 24.928C59.3026 25.12 59.0972 25.2907 58.8946 25.44C58.6919 25.584 58.4786 25.7093 58.2546 25.816C58.0359 25.9173 57.8012 25.9947 57.5506 26.048C57.2999 26.1013 57.0226 26.128 56.7186 26.128C56.3986 26.128 56.0972 26.0853 55.8146 26C55.5372 25.9093 55.2946 25.7733 55.0866 25.592C54.8786 25.4107 54.7132 25.184 54.5906 24.912C54.4732 24.64 54.4146 24.3227 54.4146 23.96C54.4146 23.64 54.4999 23.3333 54.6706 23.04C54.8466 22.7413 55.1292 22.4747 55.5186 22.24C55.9132 22.0053 56.4252 21.8133 57.0546 21.664C57.6892 21.5147 58.4679 21.4293 59.3906 21.408V20.816C59.3906 20.2027 59.2599 19.744 58.9986 19.44C58.7372 19.136 58.3532 18.984 57.8466 18.984C57.5052 18.984 57.2172 19.0267 56.9826 19.112C56.7532 19.1973 56.5532 19.2933 56.3826 19.4C56.2172 19.5013 56.0706 19.5947 55.9426 19.68C55.8199 19.7653 55.6919 19.808 55.5586 19.808C55.4519 19.808 55.3586 19.7787 55.2786 19.72C55.2039 19.6613 55.1426 19.592 55.0946 19.512L54.8146 19.008ZM65.7616 26.128C65.1056 26.128 64.5989 25.944 64.2416 25.576C63.8896 25.208 63.7136 24.6827 63.7136 24V19.136H62.7696C62.6789 19.136 62.6016 19.1093 62.5376 19.056C62.4789 18.9973 62.4496 18.912 62.4496 18.8V18.168L63.7696 17.984L64.1216 15.56C64.1429 15.4693 64.1829 15.4 64.2416 15.352C64.3056 15.2987 64.3856 15.272 64.4816 15.272H65.2736V18H67.5776V19.136H65.2736V23.896C65.2736 24.216 65.3509 24.456 65.5056 24.616C65.6656 24.7707 65.8682 24.848 66.1136 24.848C66.2576 24.848 66.3802 24.8293 66.4816 24.792C66.5882 24.7547 66.6789 24.7147 66.7536 24.672C66.8282 24.624 66.8922 24.5813 66.9456 24.544C66.9989 24.5067 67.0469 24.488 67.0896 24.488C67.1429 24.488 67.1829 24.5013 67.2096 24.528C67.2416 24.5493 67.2736 24.5867 67.3056 24.64L67.7696 25.392C67.5136 25.6267 67.2096 25.808 66.8576 25.936C66.5056 26.064 66.1402 26.128 65.7616 26.128ZM74.6716 21.032C74.6716 20.7227 74.6262 20.4373 74.5356 20.176C74.4502 19.9147 74.3222 19.688 74.1516 19.496C73.9809 19.304 73.7729 19.1547 73.5276 19.048C73.2822 18.9413 72.9996 18.888 72.6796 18.888C72.0236 18.888 71.5062 19.0773 71.1276 19.456C70.7542 19.8347 70.5169 20.36 70.4156 21.032H74.6716ZM75.9596 24.84C75.7676 25.064 75.5462 25.2587 75.2956 25.424C75.0449 25.584 74.7782 25.7147 74.4956 25.816C74.2129 25.9173 73.9196 25.992 73.6156 26.04C73.3169 26.088 73.0209 26.112 72.7276 26.112C72.1676 26.112 71.6476 26.0187 71.1676 25.832C70.6929 25.64 70.2796 25.3627 69.9276 25C69.5809 24.632 69.3089 24.1787 69.1116 23.64C68.9196 23.096 68.8236 22.472 68.8236 21.768C68.8236 21.2027 68.9116 20.6773 69.0876 20.192C69.2636 19.7013 69.5142 19.2747 69.8396 18.912C70.1702 18.5493 70.5729 18.264 71.0476 18.056C71.5222 17.848 72.0556 17.744 72.6476 17.744C73.1436 17.744 73.5996 17.8267 74.0156 17.992C74.4369 18.152 74.7996 18.3867 75.1036 18.696C75.4076 19.0053 75.6449 19.3867 75.8156 19.84C75.9916 20.2933 76.0796 20.8107 76.0796 21.392C76.0796 21.632 76.0529 21.7947 75.9996 21.88C75.9462 21.96 75.8476 22 75.7036 22H70.3756C70.3916 22.4853 70.4609 22.9093 70.5836 23.272C70.7062 23.6293 70.8742 23.928 71.0876 24.168C71.3062 24.408 71.5649 24.5867 71.8636 24.704C72.1622 24.8213 72.4956 24.88 72.8636 24.88C73.2102 24.88 73.5089 24.84 73.7596 24.76C74.0156 24.68 74.2342 24.5947 74.4156 24.504C74.6022 24.408 74.7569 24.32 74.8796 24.24C75.0076 24.16 75.1196 24.12 75.2156 24.12C75.3436 24.12 75.4422 24.168 75.5116 24.264L75.9596 24.84ZM89.8912 24.616L89.8832 26H82.7632V14.512H89.8832V15.896H84.4752V19.536H88.8272V20.872H84.4752V24.616H89.8912ZM96.9094 19.84C96.6694 19.5147 96.3948 19.2827 96.0854 19.144C95.7814 19.0053 95.4481 18.936 95.0854 18.936C94.3708 18.936 93.8161 19.1947 93.4214 19.712C93.0321 20.224 92.8374 20.9733 92.8374 21.96C92.8374 22.4773 92.8801 22.92 92.9654 23.288C93.0561 23.6507 93.1841 23.9493 93.3494 24.184C93.5201 24.4133 93.7281 24.584 93.9734 24.696C94.2188 24.8027 94.4961 24.856 94.8054 24.856C95.2588 24.856 95.6508 24.7547 95.9814 24.552C96.3121 24.3493 96.6214 24.064 96.9094 23.696V19.84ZM98.4774 17.872V28.728H96.9094V24.84C96.5734 25.224 96.1921 25.5333 95.7654 25.768C95.3388 25.9973 94.8454 26.112 94.2854 26.112C93.8214 26.112 93.4001 26.0213 93.0214 25.84C92.6481 25.6587 92.3281 25.3947 92.0614 25.048C91.7948 24.696 91.5894 24.2613 91.4454 23.744C91.3014 23.2267 91.2294 22.632 91.2294 21.96C91.2294 21.3573 91.3094 20.7973 91.4694 20.28C91.6294 19.7627 91.8614 19.3147 92.1654 18.936C92.4694 18.5573 92.8374 18.2613 93.2694 18.048C93.7014 17.8293 94.1894 17.72 94.7334 17.72C94.9948 17.72 95.2348 17.744 95.4534 17.792C95.6721 17.84 95.8748 17.9093 96.0614 18C96.2481 18.0907 96.4188 18.2 96.5734 18.328C96.7334 18.456 96.8828 18.6027 97.0214 18.768L97.1254 18.184C97.1788 17.976 97.3148 17.872 97.5334 17.872H98.4774ZM107.734 17.872V26H106.798C106.584 26 106.446 25.896 106.382 25.688L106.27 24.872C106.094 25.0587 105.91 25.2293 105.718 25.384C105.526 25.5387 105.32 25.672 105.102 25.784C104.883 25.8907 104.651 25.9733 104.406 26.032C104.16 26.096 103.896 26.128 103.614 26.128C103.166 26.128 102.771 26.0533 102.43 25.904C102.094 25.7547 101.811 25.5467 101.582 25.28C101.352 25.008 101.179 24.6827 101.062 24.304C100.944 23.9253 100.886 23.5067 100.886 23.048V17.872H102.454V23.048C102.454 23.6293 102.587 24.0827 102.854 24.408C103.12 24.728 103.528 24.888 104.078 24.888C104.478 24.888 104.851 24.7947 105.198 24.608C105.544 24.416 105.87 24.1547 106.174 23.824V17.872H107.734ZM111.863 17.872V26H110.303V17.872H111.863ZM112.159 15.36C112.159 15.504 112.13 15.6427 112.071 15.776C112.013 15.904 111.933 16.0187 111.831 16.12C111.735 16.216 111.621 16.2933 111.487 16.352C111.354 16.4053 111.215 16.432 111.071 16.432C110.927 16.432 110.791 16.4053 110.663 16.352C110.535 16.2933 110.421 16.216 110.319 16.12C110.223 16.0187 110.146 15.904 110.087 15.776C110.034 15.6427 110.007 15.504 110.007 15.36C110.007 15.2107 110.034 15.072 110.087 14.944C110.146 14.8107 110.223 14.696 110.319 14.6C110.421 14.4987 110.535 14.4213 110.663 14.368C110.791 14.3093 110.927 14.28 111.071 14.28C111.215 14.28 111.354 14.3093 111.487 14.368C111.621 14.4213 111.735 14.4987 111.831 14.6C111.933 14.696 112.013 14.8107 112.071 14.944C112.13 15.072 112.159 15.2107 112.159 15.36ZM116.986 26.128C116.33 26.128 115.823 25.944 115.466 25.576C115.114 25.208 114.938 24.6827 114.938 24V19.136H113.994C113.903 19.136 113.826 19.1093 113.762 19.056C113.703 18.9973 113.674 18.912 113.674 18.8V18.168L114.994 17.984L115.346 15.56C115.367 15.4693 115.407 15.4 115.466 15.352C115.53 15.2987 115.61 15.272 115.706 15.272H116.498V18H118.802V19.136H116.498V23.896C116.498 24.216 116.575 24.456 116.73 24.616C116.89 24.7707 117.093 24.848 117.338 24.848C117.482 24.848 117.605 24.8293 117.706 24.792C117.813 24.7547 117.903 24.7147 117.978 24.672C118.053 24.624 118.117 24.5813 118.17 24.544C118.223 24.5067 118.271 24.488 118.314 24.488C118.367 24.488 118.407 24.5013 118.434 24.528C118.466 24.5493 118.498 24.5867 118.53 24.64L118.994 25.392C118.738 25.6267 118.434 25.808 118.082 25.936C117.73 26.064 117.365 26.128 116.986 26.128ZM127.663 17.872L123.151 28.36C123.103 28.4773 123.039 28.568 122.959 28.632C122.879 28.696 122.761 28.728 122.607 28.728H121.447L122.935 25.488L119.599 17.872H120.959C121.092 17.872 121.196 17.904 121.271 17.968C121.345 18.032 121.399 18.104 121.431 18.184L123.495 23.064C123.537 23.1867 123.577 23.312 123.615 23.44C123.657 23.5627 123.692 23.6853 123.719 23.808C123.756 23.68 123.796 23.5547 123.839 23.432C123.881 23.304 123.927 23.1787 123.975 23.056L125.967 18.184C126.004 18.0933 126.063 18.0187 126.143 17.96C126.223 17.9013 126.313 17.872 126.415 17.872H127.663Z" fill="#3C3C6F"/>
<defs>
<filter id="filter0_b_450_5779" x="-30" y="-30" width="213" height="98" filterUnits="userSpaceOnUse" color-interpolation-filters="sRGB">
<feFlood flood-opacity="0" result="BackgroundImageFix"/>
<feGaussianBlur in="BackgroundImageFix" stdDeviation="15"/>
<feComposite in2="SourceAlpha" operator="in" result="effect1_backgroundBlur_450_5779"/>
<feBlend mode="normal" in="SourceGraphic" in2="effect1_backgroundBlur_450_5779" result="shape"/>
</filter>
<linearGradient id="paint0_linear_450_5779" x1="10.8021" y1="-6.09434" x2="69.4104" y2="2.43595" gradientUnits="userSpaceOnUse">
<stop stop-color="white"/>
<stop offset="1" stop-color="white" stop-opacity="0"/>
</linearGradient>
</defs>
</svg>
