<svg width="203" height="38" viewBox="0 0 203 38" fill="none" xmlns="http://www.w3.org/2000/svg">
<g filter="url(#filter0_b_450_5814)">
<path d="M0 19C0 8.50659 8.50659 0 19 0H184C194.493 0 203 8.50659 203 19C203 29.4934 194.493 38 184 38H19C8.50659 38 0 29.4934 0 19Z" fill="white" fill-opacity="0.6"/>
<path d="M1 19C1 9.05888 9.05888 1 19 1H184C193.941 1 202 9.05888 202 19C202 28.9411 193.941 37 184 37H19C9.05887 37 1 28.9411 1 19Z" stroke="url(#paint0_linear_450_5814)" stroke-opacity="0.9" stroke-width="2"/>
</g>
<path d="M30.7769 16.384C30.7235 16.4747 30.6675 16.5413 30.6089 16.584C30.5502 16.6267 30.4755 16.648 30.3849 16.648C30.2889 16.648 30.1795 16.6053 30.0569 16.52C29.9342 16.4293 29.7795 16.3307 29.5929 16.224C29.4115 16.112 29.1929 16.0133 28.9369 15.928C28.6809 15.8373 28.3742 15.792 28.0169 15.792C27.6809 15.792 27.3849 15.8373 27.1289 15.928C26.8782 16.0133 26.6675 16.1333 26.4969 16.288C26.3262 16.4373 26.1955 16.616 26.1049 16.824C26.0195 17.0267 25.9769 17.248 25.9769 17.488C25.9769 17.7973 26.0542 18.0533 26.2089 18.256C26.3689 18.4587 26.5769 18.632 26.8329 18.776C27.0889 18.92 27.3795 19.0453 27.7049 19.152C28.0302 19.2587 28.3635 19.3707 28.7049 19.488C29.0462 19.6 29.3795 19.7307 29.7049 19.88C30.0302 20.0293 30.3209 20.2187 30.5769 20.448C30.8329 20.672 31.0382 20.9493 31.1929 21.28C31.3529 21.6053 31.4329 22.0053 31.4329 22.48C31.4329 22.9867 31.3449 23.4613 31.1689 23.904C30.9982 24.3467 30.7475 24.7333 30.4169 25.064C30.0862 25.3947 29.6782 25.656 29.1929 25.848C28.7129 26.0347 28.1662 26.128 27.5529 26.128C27.1849 26.128 26.8275 26.0907 26.4809 26.016C26.1342 25.9467 25.8062 25.848 25.4969 25.72C25.1875 25.5867 24.8969 25.4293 24.6249 25.248C24.3582 25.0613 24.1182 24.8533 23.9049 24.624L24.3929 23.808C24.4409 23.744 24.4969 23.6907 24.5609 23.648C24.6302 23.6053 24.7075 23.584 24.7929 23.584C24.9049 23.584 25.0329 23.6427 25.1769 23.76C25.3262 23.8773 25.5075 24.008 25.7209 24.152C25.9395 24.2907 26.1982 24.4187 26.4969 24.536C26.8009 24.6533 27.1689 24.712 27.6009 24.712C27.9529 24.712 28.2675 24.6667 28.5449 24.576C28.8222 24.48 29.0542 24.3467 29.2409 24.176C29.4329 24 29.5795 23.7893 29.6809 23.544C29.7822 23.2987 29.8329 23.0267 29.8329 22.728C29.8329 22.392 29.7555 22.1173 29.6009 21.904C29.4462 21.6907 29.2409 21.512 28.9849 21.368C28.7289 21.224 28.4382 21.1013 28.1129 21C27.7875 20.8987 27.4542 20.7947 27.1129 20.688C26.7715 20.576 26.4382 20.448 26.1129 20.304C25.7875 20.16 25.4969 19.9733 25.2409 19.744C24.9849 19.5093 24.7795 19.2187 24.6249 18.872C24.4702 18.52 24.3929 18.088 24.3929 17.576C24.3929 17.1653 24.4729 16.768 24.6329 16.384C24.7929 16 25.0249 15.6613 25.3289 15.368C25.6382 15.0693 26.0169 14.832 26.4649 14.656C26.9129 14.4747 27.4249 14.384 28.0009 14.384C28.6462 14.384 29.2382 14.488 29.7769 14.696C30.3209 14.8987 30.7929 15.192 31.1929 15.576L30.7769 16.384ZM36.9531 17.744C37.5505 17.744 38.0891 17.8427 38.5691 18.04C39.0545 18.232 39.4651 18.512 39.8011 18.88C40.1425 19.2427 40.4038 19.6827 40.5851 20.2C40.7665 20.712 40.8571 21.288 40.8571 21.928C40.8571 22.568 40.7665 23.1467 40.5851 23.664C40.4038 24.1813 40.1425 24.6213 39.8011 24.984C39.4651 25.3467 39.0545 25.6267 38.5691 25.824C38.0891 26.016 37.5505 26.112 36.9531 26.112C36.3505 26.112 35.8065 26.016 35.3211 25.824C34.8411 25.6267 34.4305 25.3467 34.0891 24.984C33.7478 24.6213 33.4838 24.1813 33.2971 23.664C33.1158 23.1467 33.0251 22.568 33.0251 21.928C33.0251 21.288 33.1158 20.712 33.2971 20.2C33.4838 19.6827 33.7478 19.2427 34.0891 18.88C34.4305 18.512 34.8411 18.232 35.3211 18.04C35.8065 17.8427 36.3505 17.744 36.9531 17.744ZM36.9531 24.896C37.7211 24.896 38.2945 24.6373 38.6731 24.12C39.0518 23.6027 39.2411 22.8747 39.2411 21.936C39.2411 20.9973 39.0518 20.2693 38.6731 19.752C38.2945 19.2293 37.7211 18.968 36.9531 18.968C36.1745 18.968 35.5931 19.2293 35.2091 19.752C34.8305 20.2693 34.6411 20.9973 34.6411 21.936C34.6411 22.8747 34.8305 23.6027 35.2091 24.12C35.5931 24.6373 36.1745 24.896 36.9531 24.896ZM50.043 19.136V23.896C50.043 24.216 50.1203 24.456 50.275 24.616C50.4297 24.7707 50.6323 24.848 50.883 24.848C51.027 24.848 51.1497 24.8293 51.251 24.792C51.3577 24.7547 51.4483 24.7147 51.523 24.672C51.5977 24.624 51.6617 24.5813 51.715 24.544C51.7683 24.5067 51.8163 24.488 51.859 24.488C51.907 24.488 51.947 24.5013 51.979 24.528C52.011 24.5493 52.043 24.5867 52.075 24.64L52.539 25.392C52.283 25.6267 51.9763 25.808 51.619 25.936C51.267 26.064 50.9017 26.128 50.523 26.128C49.867 26.128 49.3603 25.944 49.003 25.576C48.651 25.208 48.475 24.6827 48.475 24V19.136H44.835V26H43.267V19.152L42.419 19.048C42.2963 19.0213 42.195 18.9787 42.115 18.92C42.0403 18.856 42.003 18.7653 42.003 18.648V18H43.267V17.264C43.267 16.8 43.3337 16.3867 43.467 16.024C43.6003 15.6613 43.7897 15.3547 44.035 15.104C44.2857 14.848 44.5843 14.656 44.931 14.528C45.283 14.3947 45.6777 14.328 46.115 14.328C46.483 14.328 46.8217 14.3813 47.131 14.488L47.099 15.272C47.0937 15.3413 47.0723 15.3947 47.035 15.432C46.9977 15.464 46.947 15.488 46.883 15.504C46.8243 15.52 46.7497 15.5307 46.659 15.536C46.5737 15.536 46.4803 15.536 46.379 15.536C46.139 15.536 45.9203 15.5653 45.723 15.624C45.5257 15.6827 45.3577 15.7813 45.219 15.92C45.0803 16.0587 44.9737 16.2427 44.899 16.472C44.8243 16.696 44.787 16.976 44.787 17.312V18H48.531L48.891 15.56C48.907 15.4693 48.9443 15.4 49.003 15.352C49.067 15.2987 49.147 15.272 49.243 15.272H50.043V18H52.347V19.136H50.043ZM65.4019 17.872L62.7859 26H61.5379C61.3885 26 61.2872 25.9013 61.2339 25.704L59.5219 20.408C59.4792 20.2747 59.4419 20.144 59.4099 20.016C59.3779 19.8827 59.3485 19.7493 59.3219 19.616C59.2739 19.8933 59.2072 20.1627 59.1219 20.424L57.3859 25.704C57.3325 25.9013 57.2179 26 57.0419 26H55.8579L53.2339 17.872H54.4659C54.5885 17.872 54.6899 17.9013 54.7699 17.96C54.8552 18.0187 54.9112 18.0933 54.9379 18.184L56.4019 23.176C56.4499 23.3787 56.4925 23.576 56.5299 23.768C56.5672 23.96 56.6019 24.152 56.6339 24.344C56.6819 24.152 56.7325 23.96 56.7859 23.768C56.8445 23.576 56.9032 23.3787 56.9619 23.176L58.5859 18.152C58.6125 18.0613 58.6632 17.9893 58.7379 17.936C58.8125 17.8773 58.9032 17.848 59.0099 17.848H59.6899C59.8072 17.848 59.9032 17.8773 59.9779 17.936C60.0579 17.9893 60.1112 18.0613 60.1379 18.152L61.7219 23.176C61.7805 23.3787 61.8365 23.5787 61.8899 23.776C61.9432 23.968 61.9912 24.1627 62.0339 24.36C62.0659 24.168 62.1032 23.976 62.1459 23.784C62.1885 23.5867 62.2365 23.384 62.2899 23.176L63.7779 18.184C63.8045 18.0933 63.8579 18.0187 63.9379 17.96C64.0232 17.9013 64.1192 17.872 64.2259 17.872H65.4019ZM71.3171 22.392C70.6825 22.4133 70.1438 22.464 69.7011 22.544C69.2585 22.6187 68.8985 22.72 68.6211 22.848C68.3438 22.976 68.1438 23.128 68.0211 23.304C67.8985 23.4747 67.8371 23.6667 67.8371 23.88C67.8371 24.0827 67.8691 24.2587 67.9331 24.408C68.0025 24.552 68.0931 24.672 68.2051 24.768C68.3225 24.8587 68.4585 24.9253 68.6131 24.968C68.7678 25.0107 68.9358 25.032 69.1171 25.032C69.3571 25.032 69.5758 25.008 69.7731 24.96C69.9758 24.912 70.1651 24.8453 70.3411 24.76C70.5171 24.6693 70.6851 24.56 70.8451 24.432C71.0051 24.304 71.1625 24.1573 71.3171 23.992V22.392ZM66.7411 19.008C67.1945 18.576 67.6851 18.2533 68.2131 18.04C68.7465 17.8267 69.3305 17.72 69.9651 17.72C70.4291 17.72 70.8398 17.7973 71.1971 17.952C71.5545 18.1013 71.8558 18.312 72.1011 18.584C72.3465 18.856 72.5305 19.1813 72.6531 19.56C72.7811 19.9387 72.8451 20.3573 72.8451 20.816V26H72.1491C71.9945 26 71.8771 25.976 71.7971 25.928C71.7171 25.8747 71.6531 25.7787 71.6051 25.64L71.4371 24.928C71.2291 25.12 71.0238 25.2907 70.8211 25.44C70.6185 25.584 70.4051 25.7093 70.1811 25.816C69.9625 25.9173 69.7278 25.9947 69.4771 26.048C69.2265 26.1013 68.9491 26.128 68.6451 26.128C68.3251 26.128 68.0238 26.0853 67.7411 26C67.4638 25.9093 67.2211 25.7733 67.0131 25.592C66.8051 25.4107 66.6398 25.184 66.5171 24.912C66.3998 24.64 66.3411 24.3227 66.3411 23.96C66.3411 23.64 66.4265 23.3333 66.5971 23.04C66.7731 22.7413 67.0558 22.4747 67.4451 22.24C67.8398 22.0053 68.3518 21.8133 68.9811 21.664C69.6158 21.5147 70.3945 21.4293 71.3171 21.408V20.816C71.3171 20.2027 71.1865 19.744 70.9251 19.44C70.6638 19.136 70.2798 18.984 69.7731 18.984C69.4318 18.984 69.1438 19.0267 68.9091 19.112C68.6798 19.1973 68.4798 19.2933 68.3091 19.4C68.1438 19.5013 67.9971 19.5947 67.8691 19.68C67.7465 19.7653 67.6185 19.808 67.4851 19.808C67.3785 19.808 67.2851 19.7787 67.2051 19.72C67.1305 19.6613 67.0691 19.592 67.0211 19.512L66.7411 19.008ZM76.7255 19.432C76.9868 18.8987 77.3015 18.48 77.6695 18.176C78.0375 17.872 78.4802 17.72 78.9975 17.72C79.1735 17.72 79.3388 17.7413 79.4935 17.784C79.6535 17.8213 79.7922 17.88 79.9095 17.96L79.8055 19.136C79.7682 19.28 79.6802 19.352 79.5415 19.352C79.4668 19.352 79.3548 19.3387 79.2055 19.312C79.0562 19.28 78.8962 19.264 78.7255 19.264C78.4748 19.264 78.2535 19.3013 78.0615 19.376C77.8695 19.4453 77.6962 19.552 77.5415 19.696C77.3922 19.8347 77.2588 20.008 77.1415 20.216C77.0242 20.4187 76.9148 20.6507 76.8135 20.912V26H75.2535V17.872H76.1495C76.3202 17.872 76.4348 17.904 76.4935 17.968C76.5575 18.0267 76.6028 18.1333 76.6295 18.288L76.7255 19.432ZM86.52 21.032C86.52 20.7227 86.4747 20.4373 86.384 20.176C86.2987 19.9147 86.1707 19.688 86 19.496C85.8293 19.304 85.6213 19.1547 85.376 19.048C85.1307 18.9413 84.848 18.888 84.528 18.888C83.872 18.888 83.3547 19.0773 82.976 19.456C82.6027 19.8347 82.3653 20.36 82.264 21.032H86.52ZM87.808 24.84C87.616 25.064 87.3947 25.2587 87.144 25.424C86.8933 25.584 86.6267 25.7147 86.344 25.816C86.0613 25.9173 85.768 25.992 85.464 26.04C85.1653 26.088 84.8693 26.112 84.576 26.112C84.016 26.112 83.496 26.0187 83.016 25.832C82.5413 25.64 82.128 25.3627 81.776 25C81.4293 24.632 81.1573 24.1787 80.96 23.64C80.768 23.096 80.672 22.472 80.672 21.768C80.672 21.2027 80.76 20.6773 80.936 20.192C81.112 19.7013 81.3627 19.2747 81.688 18.912C82.0187 18.5493 82.4213 18.264 82.896 18.056C83.3707 17.848 83.904 17.744 84.496 17.744C84.992 17.744 85.448 17.8267 85.864 17.992C86.2853 18.152 86.648 18.3867 86.952 18.696C87.256 19.0053 87.4933 19.3867 87.664 19.84C87.84 20.2933 87.928 20.8107 87.928 21.392C87.928 21.632 87.9013 21.7947 87.848 21.88C87.7947 21.96 87.696 22 87.552 22H82.224C82.24 22.4853 82.3093 22.9093 82.432 23.272C82.5547 23.6293 82.7227 23.928 82.936 24.168C83.1547 24.408 83.4133 24.5867 83.712 24.704C84.0107 24.8213 84.344 24.88 84.712 24.88C85.0587 24.88 85.3573 24.84 85.608 24.76C85.864 24.68 86.0827 24.5947 86.264 24.504C86.4507 24.408 86.6053 24.32 86.728 24.24C86.856 24.16 86.968 24.12 87.064 24.12C87.192 24.12 87.2907 24.168 87.36 24.264L87.808 24.84ZM101.74 24.616L101.732 26H94.6116V14.512H101.732V15.896H96.3236V19.536H100.676V20.872H96.3236V24.616H101.74ZM105.107 19C105.283 18.8133 105.467 18.6427 105.659 18.488C105.851 18.3333 106.054 18.2027 106.267 18.096C106.486 17.984 106.718 17.8987 106.963 17.84C107.214 17.776 107.48 17.744 107.763 17.744C108.211 17.744 108.603 17.8187 108.939 17.968C109.28 18.1173 109.566 18.328 109.795 18.6C110.024 18.8667 110.198 19.1893 110.315 19.568C110.432 19.9467 110.491 20.3653 110.491 20.824V26H108.923V20.824C108.923 20.2427 108.79 19.792 108.523 19.472C108.256 19.1467 107.848 18.984 107.299 18.984C106.899 18.984 106.523 19.08 106.171 19.272C105.824 19.4587 105.502 19.7147 105.203 20.04V26H103.643V17.872H104.579C104.798 17.872 104.934 17.976 104.987 18.184L105.107 19ZM115.772 21.944C116.049 21.944 116.292 21.9067 116.5 21.832C116.713 21.7573 116.889 21.6533 117.028 21.52C117.172 21.3813 117.279 21.216 117.348 21.024C117.423 20.832 117.46 20.6213 117.46 20.392C117.46 19.9227 117.316 19.5493 117.028 19.272C116.745 18.9893 116.327 18.848 115.772 18.848C115.223 18.848 114.804 18.9893 114.516 19.272C114.233 19.5493 114.092 19.9227 114.092 20.392C114.092 20.6213 114.127 20.832 114.196 21.024C114.271 21.2107 114.377 21.3733 114.516 21.512C114.66 21.6453 114.836 21.752 115.044 21.832C115.257 21.9067 115.5 21.944 115.772 21.944ZM118.26 26.424C118.26 26.232 118.207 26.08 118.1 25.968C117.993 25.8507 117.847 25.76 117.66 25.696C117.479 25.6267 117.265 25.5787 117.02 25.552C116.775 25.52 116.516 25.496 116.244 25.48C115.977 25.464 115.703 25.4507 115.42 25.44C115.137 25.424 114.865 25.3973 114.604 25.36C114.327 25.4987 114.097 25.6667 113.916 25.864C113.74 26.0613 113.652 26.2933 113.652 26.56C113.652 26.7307 113.695 26.8907 113.78 27.04C113.871 27.1893 114.007 27.3173 114.188 27.424C114.375 27.536 114.607 27.6213 114.884 27.68C115.167 27.744 115.503 27.776 115.892 27.776C116.276 27.776 116.615 27.7413 116.908 27.672C117.201 27.608 117.447 27.5147 117.644 27.392C117.847 27.2747 117.999 27.1333 118.1 26.968C118.207 26.8027 118.26 26.6213 118.26 26.424ZM119.844 18.176V18.76C119.844 18.952 119.724 19.072 119.484 19.12L118.612 19.248C118.687 19.4133 118.745 19.5893 118.788 19.776C118.831 19.9573 118.852 20.1493 118.852 20.352C118.852 20.752 118.775 21.1147 118.62 21.44C118.465 21.76 118.252 22.0347 117.98 22.264C117.708 22.4933 117.383 22.6693 117.004 22.792C116.631 22.9147 116.22 22.976 115.772 22.976C115.404 22.976 115.06 22.936 114.74 22.856C114.58 22.952 114.457 23.0587 114.372 23.176C114.292 23.288 114.252 23.4 114.252 23.512C114.252 23.6987 114.329 23.8373 114.484 23.928C114.644 24.0187 114.849 24.0853 115.1 24.128C115.356 24.1653 115.647 24.1893 115.972 24.2C116.303 24.2107 116.636 24.2293 116.972 24.256C117.313 24.2773 117.647 24.32 117.972 24.384C118.303 24.4427 118.593 24.5413 118.844 24.68C119.1 24.8133 119.305 25 119.46 25.24C119.62 25.4747 119.7 25.7813 119.7 26.16C119.7 26.512 119.612 26.8533 119.436 27.184C119.265 27.5147 119.015 27.808 118.684 28.064C118.353 28.32 117.951 28.5253 117.476 28.68C117.001 28.8347 116.463 28.912 115.86 28.912C115.257 28.912 114.732 28.8533 114.284 28.736C113.841 28.6187 113.471 28.4613 113.172 28.264C112.879 28.0667 112.657 27.8373 112.508 27.576C112.364 27.3147 112.292 27.0427 112.292 26.76C112.292 26.3653 112.415 26.032 112.66 25.76C112.905 25.4827 113.244 25.2667 113.676 25.112C113.441 25.0053 113.255 24.8613 113.116 24.68C112.977 24.4933 112.908 24.248 112.908 23.944C112.908 23.8267 112.929 23.7067 112.972 23.584C113.015 23.456 113.079 23.3307 113.164 23.208C113.255 23.08 113.364 22.96 113.492 22.848C113.625 22.736 113.777 22.6347 113.948 22.544C113.548 22.32 113.233 22.024 113.004 21.656C112.775 21.2827 112.66 20.848 112.66 20.352C112.66 19.952 112.737 19.592 112.892 19.272C113.047 18.952 113.26 18.6773 113.532 18.448C113.809 18.2187 114.137 18.0427 114.516 17.92C114.9 17.7973 115.319 17.736 115.772 17.736C116.476 17.736 117.081 17.8827 117.588 18.176H119.844ZM123.227 17.872V26H121.667V17.872H123.227ZM123.523 15.36C123.523 15.504 123.494 15.6427 123.435 15.776C123.377 15.904 123.297 16.0187 123.195 16.12C123.099 16.216 122.985 16.2933 122.851 16.352C122.718 16.4053 122.579 16.432 122.435 16.432C122.291 16.432 122.155 16.4053 122.027 16.352C121.899 16.2933 121.785 16.216 121.683 16.12C121.587 16.0187 121.51 15.904 121.451 15.776C121.398 15.6427 121.371 15.504 121.371 15.36C121.371 15.2107 121.398 15.072 121.451 14.944C121.51 14.8107 121.587 14.696 121.683 14.6C121.785 14.4987 121.899 14.4213 122.027 14.368C122.155 14.3093 122.291 14.28 122.435 14.28C122.579 14.28 122.718 14.3093 122.851 14.368C122.985 14.4213 123.099 14.4987 123.195 14.6C123.297 14.696 123.377 14.8107 123.435 14.944C123.494 15.072 123.523 15.2107 123.523 15.36ZM127.27 19C127.446 18.8133 127.63 18.6427 127.822 18.488C128.014 18.3333 128.217 18.2027 128.43 18.096C128.649 17.984 128.881 17.8987 129.126 17.84C129.377 17.776 129.643 17.744 129.926 17.744C130.374 17.744 130.766 17.8187 131.102 17.968C131.443 18.1173 131.729 18.328 131.958 18.6C132.187 18.8667 132.361 19.1893 132.478 19.568C132.595 19.9467 132.654 20.3653 132.654 20.824V26H131.086V20.824C131.086 20.2427 130.953 19.792 130.686 19.472C130.419 19.1467 130.011 18.984 129.462 18.984C129.062 18.984 128.686 19.08 128.334 19.272C127.987 19.4587 127.665 19.7147 127.366 20.04V26H125.806V17.872H126.742C126.961 17.872 127.097 17.976 127.15 18.184L127.27 19ZM140.463 21.032C140.463 20.7227 140.418 20.4373 140.327 20.176C140.242 19.9147 140.114 19.688 139.943 19.496C139.772 19.304 139.564 19.1547 139.319 19.048C139.074 18.9413 138.791 18.888 138.471 18.888C137.815 18.888 137.298 19.0773 136.919 19.456C136.546 19.8347 136.308 20.36 136.207 21.032H140.463ZM141.751 24.84C141.559 25.064 141.338 25.2587 141.087 25.424C140.836 25.584 140.57 25.7147 140.287 25.816C140.004 25.9173 139.711 25.992 139.407 26.04C139.108 26.088 138.812 26.112 138.519 26.112C137.959 26.112 137.439 26.0187 136.959 25.832C136.484 25.64 136.071 25.3627 135.719 25C135.372 24.632 135.1 24.1787 134.903 23.64C134.711 23.096 134.615 22.472 134.615 21.768C134.615 21.2027 134.703 20.6773 134.879 20.192C135.055 19.7013 135.306 19.2747 135.631 18.912C135.962 18.5493 136.364 18.264 136.839 18.056C137.314 17.848 137.847 17.744 138.439 17.744C138.935 17.744 139.391 17.8267 139.807 17.992C140.228 18.152 140.591 18.3867 140.895 18.696C141.199 19.0053 141.436 19.3867 141.607 19.84C141.783 20.2933 141.871 20.8107 141.871 21.392C141.871 21.632 141.844 21.7947 141.791 21.88C141.738 21.96 141.639 22 141.495 22H136.167C136.183 22.4853 136.252 22.9093 136.375 23.272C136.498 23.6293 136.666 23.928 136.879 24.168C137.098 24.408 137.356 24.5867 137.655 24.704C137.954 24.8213 138.287 24.88 138.655 24.88C139.002 24.88 139.3 24.84 139.551 24.76C139.807 24.68 140.026 24.5947 140.207 24.504C140.394 24.408 140.548 24.32 140.671 24.24C140.799 24.16 140.911 24.12 141.007 24.12C141.135 24.12 141.234 24.168 141.303 24.264L141.751 24.84ZM149.252 21.032C149.252 20.7227 149.207 20.4373 149.116 20.176C149.031 19.9147 148.903 19.688 148.732 19.496C148.561 19.304 148.353 19.1547 148.108 19.048C147.863 18.9413 147.58 18.888 147.26 18.888C146.604 18.888 146.087 19.0773 145.708 19.456C145.335 19.8347 145.097 20.36 144.996 21.032H149.252ZM150.54 24.84C150.348 25.064 150.127 25.2587 149.876 25.424C149.625 25.584 149.359 25.7147 149.076 25.816C148.793 25.9173 148.5 25.992 148.196 26.04C147.897 26.088 147.601 26.112 147.308 26.112C146.748 26.112 146.228 26.0187 145.748 25.832C145.273 25.64 144.86 25.3627 144.508 25C144.161 24.632 143.889 24.1787 143.692 23.64C143.5 23.096 143.404 22.472 143.404 21.768C143.404 21.2027 143.492 20.6773 143.668 20.192C143.844 19.7013 144.095 19.2747 144.42 18.912C144.751 18.5493 145.153 18.264 145.628 18.056C146.103 17.848 146.636 17.744 147.228 17.744C147.724 17.744 148.18 17.8267 148.596 17.992C149.017 18.152 149.38 18.3867 149.684 18.696C149.988 19.0053 150.225 19.3867 150.396 19.84C150.572 20.2933 150.66 20.8107 150.66 21.392C150.66 21.632 150.633 21.7947 150.58 21.88C150.527 21.96 150.428 22 150.284 22H144.956C144.972 22.4853 145.041 22.9093 145.164 23.272C145.287 23.6293 145.455 23.928 145.668 24.168C145.887 24.408 146.145 24.5867 146.444 24.704C146.743 24.8213 147.076 24.88 147.444 24.88C147.791 24.88 148.089 24.84 148.34 24.76C148.596 24.68 148.815 24.5947 148.996 24.504C149.183 24.408 149.337 24.32 149.46 24.24C149.588 24.16 149.7 24.12 149.796 24.12C149.924 24.12 150.023 24.168 150.092 24.264L150.54 24.84ZM154.129 19.432C154.39 18.8987 154.705 18.48 155.073 18.176C155.441 17.872 155.883 17.72 156.401 17.72C156.577 17.72 156.742 17.7413 156.897 17.784C157.057 17.8213 157.195 17.88 157.313 17.96L157.209 19.136C157.171 19.28 157.083 19.352 156.945 19.352C156.87 19.352 156.758 19.3387 156.609 19.312C156.459 19.28 156.299 19.264 156.129 19.264C155.878 19.264 155.657 19.3013 155.465 19.376C155.273 19.4453 155.099 19.552 154.945 19.696C154.795 19.8347 154.662 20.008 154.545 20.216C154.427 20.4187 154.318 20.6507 154.217 20.912V26H152.657V17.872H153.553C153.723 17.872 153.838 17.904 153.897 17.968C153.961 18.0267 154.006 18.1333 154.033 18.288L154.129 19.432ZM160.468 17.872V26H158.908V17.872H160.468ZM160.764 15.36C160.764 15.504 160.735 15.6427 160.676 15.776C160.617 15.904 160.537 16.0187 160.436 16.12C160.34 16.216 160.225 16.2933 160.092 16.352C159.959 16.4053 159.82 16.432 159.676 16.432C159.532 16.432 159.396 16.4053 159.268 16.352C159.14 16.2933 159.025 16.216 158.924 16.12C158.828 16.0187 158.751 15.904 158.692 15.776C158.639 15.6427 158.612 15.504 158.612 15.36C158.612 15.2107 158.639 15.072 158.692 14.944C158.751 14.8107 158.828 14.696 158.924 14.6C159.025 14.4987 159.14 14.4213 159.268 14.368C159.396 14.3093 159.532 14.28 159.676 14.28C159.82 14.28 159.959 14.3093 160.092 14.368C160.225 14.4213 160.34 14.4987 160.436 14.6C160.537 14.696 160.617 14.8107 160.676 14.944C160.735 15.072 160.764 15.2107 160.764 15.36ZM164.511 19C164.687 18.8133 164.871 18.6427 165.063 18.488C165.255 18.3333 165.457 18.2027 165.671 18.096C165.889 17.984 166.121 17.8987 166.367 17.84C166.617 17.776 166.884 17.744 167.167 17.744C167.615 17.744 168.007 17.8187 168.343 17.968C168.684 18.1173 168.969 18.328 169.199 18.6C169.428 18.8667 169.601 19.1893 169.719 19.568C169.836 19.9467 169.895 20.3653 169.895 20.824V26H168.327V20.824C168.327 20.2427 168.193 19.792 167.927 19.472C167.66 19.1467 167.252 18.984 166.703 18.984C166.303 18.984 165.927 19.08 165.575 19.272C165.228 19.4587 164.905 19.7147 164.607 20.04V26H163.047V17.872H163.983C164.201 17.872 164.337 17.976 164.391 18.184L164.511 19ZM175.176 21.944C175.453 21.944 175.696 21.9067 175.904 21.832C176.117 21.7573 176.293 21.6533 176.432 21.52C176.576 21.3813 176.682 21.216 176.752 21.024C176.826 20.832 176.864 20.6213 176.864 20.392C176.864 19.9227 176.72 19.5493 176.432 19.272C176.149 18.9893 175.73 18.848 175.176 18.848C174.626 18.848 174.208 18.9893 173.92 19.272C173.637 19.5493 173.496 19.9227 173.496 20.392C173.496 20.6213 173.53 20.832 173.6 21.024C173.674 21.2107 173.781 21.3733 173.92 21.512C174.064 21.6453 174.24 21.752 174.448 21.832C174.661 21.9067 174.904 21.944 175.176 21.944ZM177.664 26.424C177.664 26.232 177.61 26.08 177.504 25.968C177.397 25.8507 177.25 25.76 177.064 25.696C176.882 25.6267 176.669 25.5787 176.424 25.552C176.178 25.52 175.92 25.496 175.648 25.48C175.381 25.464 175.106 25.4507 174.824 25.44C174.541 25.424 174.269 25.3973 174.008 25.36C173.73 25.4987 173.501 25.6667 173.32 25.864C173.144 26.0613 173.056 26.2933 173.056 26.56C173.056 26.7307 173.098 26.8907 173.184 27.04C173.274 27.1893 173.41 27.3173 173.592 27.424C173.778 27.536 174.01 27.6213 174.288 27.68C174.57 27.744 174.906 27.776 175.296 27.776C175.68 27.776 176.018 27.7413 176.312 27.672C176.605 27.608 176.85 27.5147 177.048 27.392C177.25 27.2747 177.402 27.1333 177.504 26.968C177.61 26.8027 177.664 26.6213 177.664 26.424ZM179.248 18.176V18.76C179.248 18.952 179.128 19.072 178.888 19.12L178.016 19.248C178.09 19.4133 178.149 19.5893 178.192 19.776C178.234 19.9573 178.256 20.1493 178.256 20.352C178.256 20.752 178.178 21.1147 178.024 21.44C177.869 21.76 177.656 22.0347 177.384 22.264C177.112 22.4933 176.786 22.6693 176.408 22.792C176.034 22.9147 175.624 22.976 175.176 22.976C174.808 22.976 174.464 22.936 174.144 22.856C173.984 22.952 173.861 23.0587 173.776 23.176C173.696 23.288 173.656 23.4 173.656 23.512C173.656 23.6987 173.733 23.8373 173.888 23.928C174.048 24.0187 174.253 24.0853 174.504 24.128C174.76 24.1653 175.05 24.1893 175.376 24.2C175.706 24.2107 176.04 24.2293 176.376 24.256C176.717 24.2773 177.05 24.32 177.376 24.384C177.706 24.4427 177.997 24.5413 178.248 24.68C178.504 24.8133 178.709 25 178.864 25.24C179.024 25.4747 179.104 25.7813 179.104 26.16C179.104 26.512 179.016 26.8533 178.84 27.184C178.669 27.5147 178.418 27.808 178.088 28.064C177.757 28.32 177.354 28.5253 176.88 28.68C176.405 28.8347 175.866 28.912 175.264 28.912C174.661 28.912 174.136 28.8533 173.688 28.736C173.245 28.6187 172.874 28.4613 172.576 28.264C172.282 28.0667 172.061 27.8373 171.912 27.576C171.768 27.3147 171.696 27.0427 171.696 26.76C171.696 26.3653 171.818 26.032 172.064 25.76C172.309 25.4827 172.648 25.2667 173.08 25.112C172.845 25.0053 172.658 24.8613 172.52 24.68C172.381 24.4933 172.312 24.248 172.312 23.944C172.312 23.8267 172.333 23.7067 172.376 23.584C172.418 23.456 172.482 23.3307 172.568 23.208C172.658 23.08 172.768 22.96 172.896 22.848C173.029 22.736 173.181 22.6347 173.352 22.544C172.952 22.32 172.637 22.024 172.408 21.656C172.178 21.2827 172.064 20.848 172.064 20.352C172.064 19.952 172.141 19.592 172.296 19.272C172.45 18.952 172.664 18.6773 172.936 18.448C173.213 18.2187 173.541 18.0427 173.92 17.92C174.304 17.7973 174.722 17.736 175.176 17.736C175.88 17.736 176.485 17.8827 176.992 18.176H179.248Z" fill="#3C3C6F"/>
<defs>
<filter id="filter0_b_450_5814" x="-30" y="-30" width="263" height="98" filterUnits="userSpaceOnUse" color-interpolation-filters="sRGB">
<feFlood flood-opacity="0" result="BackgroundImageFix"/>
<feGaussianBlur in="BackgroundImageFix" stdDeviation="15"/>
<feComposite in2="SourceAlpha" operator="in" result="effect1_backgroundBlur_450_5814"/>
<feBlend mode="normal" in="SourceGraphic" in2="effect1_backgroundBlur_450_5814" result="shape"/>
</filter>
<linearGradient id="paint0_linear_450_5814" x1="14.3322" y1="-6.09434" x2="90.886" y2="8.68911" gradientUnits="userSpaceOnUse">
<stop stop-color="white"/>
<stop offset="1" stop-color="white" stop-opacity="0"/>
</linearGradient>
</defs>
</svg>
