<svg width="78" height="15" viewBox="0 0 78 15" fill="none" xmlns="http://www.w3.org/2000/svg">
<path d="M9.512 9.632C9.59733 9.632 9.672 9.66667 9.736 9.736L10.352 10.4C9.88267 10.944 9.312 11.368 8.64 11.672C7.97333 11.976 7.16533 12.128 6.216 12.128C5.39467 12.128 4.648 11.9867 3.976 11.704C3.304 11.416 2.73067 11.016 2.256 10.504C1.78133 9.98667 1.41333 9.368 1.152 8.648C0.890667 7.928 0.76 7.136 0.76 6.272C0.76 5.408 0.896 4.616 1.168 3.896C1.44 3.176 1.82133 2.55733 2.312 2.04C2.808 1.52267 3.4 1.12267 4.088 0.839999C4.776 0.551999 5.536 0.407999 6.368 0.407999C7.184 0.407999 7.904 0.538666 8.528 0.799999C9.152 1.06133 9.70133 1.416 10.176 1.864L9.664 2.576C9.632 2.62933 9.58933 2.67467 9.536 2.712C9.488 2.744 9.42133 2.76 9.336 2.76C9.24 2.76 9.12267 2.70933 8.984 2.608C8.84533 2.50133 8.664 2.384 8.44 2.256C8.216 2.128 7.936 2.01333 7.6 1.912C7.264 1.80533 6.85067 1.752 6.36 1.752C5.768 1.752 5.22667 1.856 4.736 2.064C4.24533 2.26667 3.82133 2.56267 3.464 2.952C3.112 3.34133 2.83733 3.816 2.64 4.376C2.44267 4.936 2.344 5.568 2.344 6.272C2.344 6.98667 2.44533 7.624 2.648 8.184C2.856 8.744 3.136 9.21867 3.488 9.608C3.84533 9.992 4.264 10.2853 4.744 10.488C5.22933 10.6907 5.752 10.792 6.312 10.792C6.65333 10.792 6.96 10.7733 7.232 10.736C7.50933 10.6933 7.76267 10.6293 7.992 10.544C8.22667 10.4587 8.44267 10.352 8.64 10.224C8.84267 10.0907 9.04267 9.93333 9.24 9.752C9.33067 9.672 9.42133 9.632 9.512 9.632ZM16.5275 8.352C15.8715 8.37333 15.3115 8.42667 14.8475 8.512C14.3888 8.592 14.0128 8.69867 13.7195 8.832C13.4315 8.96533 13.2208 9.12267 13.0875 9.304C12.9595 9.48533 12.8955 9.688 12.8955 9.912C12.8955 10.1253 12.9302 10.3093 12.9995 10.464C13.0688 10.6187 13.1622 10.7467 13.2795 10.848C13.4022 10.944 13.5435 11.016 13.7035 11.064C13.8688 11.1067 14.0448 11.128 14.2315 11.128C14.4822 11.128 14.7115 11.104 14.9195 11.056C15.1275 11.0027 15.3222 10.928 15.5035 10.832C15.6902 10.736 15.8662 10.6213 16.0315 10.488C16.2022 10.3547 16.3675 10.2027 16.5275 10.032V8.352ZM11.9275 5.04C12.3755 4.608 12.8582 4.28533 13.3755 4.072C13.8928 3.85867 14.4662 3.752 15.0955 3.752C15.5488 3.752 15.9515 3.82667 16.3035 3.976C16.6555 4.12533 16.9515 4.33333 17.1915 4.6C17.4315 4.86667 17.6128 5.18933 17.7355 5.568C17.8582 5.94667 17.9195 6.36267 17.9195 6.816V12H17.2875C17.1488 12 17.0422 11.9787 16.9675 11.936C16.8928 11.888 16.8342 11.7973 16.7915 11.664L16.6315 10.896C16.4182 11.0933 16.2102 11.2693 16.0075 11.424C15.8048 11.5733 15.5915 11.7013 15.3675 11.808C15.1435 11.9093 14.9035 11.9867 14.6475 12.04C14.3968 12.0987 14.1168 12.128 13.8075 12.128C13.4928 12.128 13.1968 12.0853 12.9195 12C12.6422 11.9093 12.3995 11.776 12.1915 11.6C11.9888 11.424 11.8262 11.2027 11.7035 10.936C11.5862 10.664 11.5275 10.344 11.5275 9.976C11.5275 9.656 11.6155 9.34933 11.7915 9.056C11.9675 8.75733 12.2528 8.49333 12.6475 8.264C13.0422 8.03467 13.5568 7.848 14.1915 7.704C14.8262 7.55467 15.6048 7.46933 16.5275 7.448V6.816C16.5275 6.18667 16.3915 5.712 16.1195 5.392C15.8475 5.06667 15.4502 4.904 14.9275 4.904C14.5755 4.904 14.2795 4.94933 14.0395 5.04C13.8048 5.12533 13.5995 5.224 13.4235 5.336C13.2528 5.44267 13.1035 5.54133 12.9755 5.632C12.8528 5.71733 12.7302 5.76 12.6075 5.76C12.5115 5.76 12.4288 5.736 12.3595 5.688C12.2902 5.63467 12.2315 5.57067 12.1835 5.496L11.9275 5.04ZM22.7872 12.128C22.1472 12.128 21.6539 11.9493 21.3072 11.592C20.9659 11.2347 20.7952 10.72 20.7952 10.048V5.088H19.8192C19.7339 5.088 19.6619 5.064 19.6032 5.016C19.5446 4.96267 19.5152 4.88267 19.5152 4.776V4.208L20.8432 4.04L21.1712 1.536C21.1872 1.456 21.2219 1.392 21.2752 1.344C21.3339 1.29067 21.4086 1.264 21.4992 1.264H22.2192V4.056H24.5632V5.088H22.2192V9.952C22.2192 10.2933 22.3019 10.5467 22.4672 10.712C22.6326 10.8773 22.8459 10.96 23.1072 10.96C23.2566 10.96 23.3846 10.9413 23.4912 10.904C23.6032 10.8613 23.6992 10.816 23.7792 10.768C23.8592 10.72 23.9259 10.6773 23.9792 10.64C24.0379 10.5973 24.0886 10.576 24.1312 10.576C24.2059 10.576 24.2726 10.6213 24.3312 10.712L24.7472 11.392C24.5019 11.6213 24.2059 11.8027 23.8592 11.936C23.5126 12.064 23.1552 12.128 22.7872 12.128ZM31.7307 7.064C31.7307 6.73333 31.6827 6.432 31.5867 6.16C31.4961 5.88267 31.3601 5.64533 31.1787 5.448C31.0027 5.24533 30.7867 5.09067 30.5307 4.984C30.2747 4.872 29.9841 4.816 29.6587 4.816C28.9761 4.816 28.4347 5.016 28.0347 5.416C27.6401 5.81067 27.3947 6.36 27.2987 7.064H31.7307ZM32.8827 10.864C32.7067 11.0773 32.4961 11.264 32.2507 11.424C32.0054 11.5787 31.7414 11.7067 31.4587 11.808C31.1814 11.9093 30.8934 11.984 30.5947 12.032C30.2961 12.0853 30.0001 12.112 29.7067 12.112C29.1467 12.112 28.6294 12.0187 28.1547 11.832C27.6854 11.64 27.2774 11.3627 26.9307 11C26.5894 10.632 26.3227 10.1787 26.1307 9.64C25.9387 9.10133 25.8427 8.48267 25.8427 7.784C25.8427 7.21867 25.9281 6.69067 26.0987 6.2C26.2747 5.70933 26.5254 5.28533 26.8507 4.928C27.1761 4.56533 27.5734 4.28267 28.0427 4.08C28.5121 3.872 29.0401 3.768 29.6267 3.768C30.1121 3.768 30.5601 3.85067 30.9707 4.016C31.3867 4.176 31.7441 4.41067 32.0427 4.72C32.3467 5.024 32.5841 5.40267 32.7547 5.856C32.9254 6.304 33.0107 6.816 33.0107 7.392C33.0107 7.616 32.9867 7.76533 32.9387 7.84C32.8907 7.91467 32.8001 7.952 32.6667 7.952H27.2507C27.2667 8.464 27.3361 8.90933 27.4587 9.288C27.5867 9.66667 27.7627 9.984 27.9867 10.24C28.2107 10.4907 28.4774 10.68 28.7867 10.808C29.0961 10.9307 29.4427 10.992 29.8267 10.992C30.1841 10.992 30.4907 10.952 30.7467 10.872C31.0081 10.7867 31.2321 10.696 31.4187 10.6C31.6054 10.504 31.7601 10.416 31.8827 10.336C32.0107 10.2507 32.1201 10.208 32.2107 10.208C32.3281 10.208 32.4187 10.2533 32.4827 10.344L32.8827 10.864ZM37.9039 8.04C38.1919 8.04 38.4452 8 38.6639 7.92C38.8825 7.84 39.0665 7.728 39.2159 7.584C39.3652 7.44 39.4772 7.26933 39.5519 7.072C39.6265 6.86933 39.6639 6.648 39.6639 6.408C39.6639 5.912 39.5119 5.51733 39.2079 5.224C38.9092 4.93067 38.4745 4.784 37.9039 4.784C37.3279 4.784 36.8879 4.93067 36.5839 5.224C36.2852 5.51733 36.1359 5.912 36.1359 6.408C36.1359 6.648 36.1732 6.86933 36.2479 7.072C36.3279 7.26933 36.4425 7.44 36.5919 7.584C36.7412 7.728 36.9252 7.84 37.1439 7.92C37.3625 8 37.6159 8.04 37.9039 8.04ZM40.4719 12.44C40.4719 12.2427 40.4159 12.0827 40.3039 11.96C40.1919 11.8373 40.0399 11.7413 39.8479 11.672C39.6612 11.6027 39.4425 11.5547 39.1919 11.528C38.9412 11.496 38.6745 11.472 38.3919 11.456C38.1145 11.44 37.8319 11.424 37.5439 11.408C37.2559 11.392 36.9785 11.3653 36.7119 11.328C36.4132 11.4667 36.1679 11.6427 35.9759 11.856C35.7892 12.064 35.6959 12.3093 35.6959 12.592C35.6959 12.7733 35.7412 12.9413 35.8319 13.096C35.9279 13.256 36.0719 13.392 36.2639 13.504C36.4559 13.6213 36.6959 13.712 36.9839 13.776C37.2772 13.8453 37.6212 13.88 38.0159 13.88C38.3999 13.88 38.7439 13.8453 39.0479 13.776C39.3519 13.7067 39.6079 13.608 39.8159 13.48C40.0292 13.352 40.1919 13.2 40.3039 13.024C40.4159 12.848 40.4719 12.6533 40.4719 12.44ZM41.9199 4.216V4.744C41.9199 4.92 41.8079 5.032 41.5839 5.08L40.6639 5.2C40.8452 5.552 40.9359 5.94133 40.9359 6.368C40.9359 6.76267 40.8585 7.12267 40.7039 7.448C40.5545 7.768 40.3465 8.04267 40.0799 8.272C39.8132 8.50133 39.4932 8.67733 39.1199 8.8C38.7465 8.92267 38.3412 8.984 37.9039 8.984C37.5252 8.984 37.1679 8.93867 36.8319 8.848C36.6612 8.95467 36.5305 9.06933 36.4399 9.192C36.3492 9.30933 36.3039 9.42933 36.3039 9.552C36.3039 9.744 36.3812 9.89067 36.5359 9.992C36.6959 10.088 36.9039 10.1573 37.1599 10.2C37.4159 10.2427 37.7065 10.2693 38.0319 10.28C38.3625 10.2907 38.6985 10.3093 39.0399 10.336C39.3865 10.3573 39.7225 10.3973 40.0479 10.456C40.3785 10.5147 40.6719 10.6107 40.9279 10.744C41.1839 10.8773 41.3892 11.0613 41.5439 11.296C41.7039 11.5307 41.7839 11.8347 41.7839 12.208C41.7839 12.5547 41.6959 12.8907 41.5199 13.216C41.3492 13.5413 41.1012 13.8293 40.7759 14.08C40.4505 14.336 40.0505 14.5387 39.5759 14.688C39.1065 14.8427 38.5759 14.92 37.9839 14.92C37.3919 14.92 36.8745 14.8613 36.4319 14.744C35.9892 14.6267 35.6212 14.4693 35.3279 14.272C35.0345 14.0747 34.8132 13.8453 34.6639 13.584C34.5199 13.328 34.4479 13.0587 34.4479 12.776C34.4479 12.376 34.5732 12.0373 34.8239 11.76C35.0745 11.4827 35.4185 11.2613 35.8559 11.096C35.6159 10.9893 35.4239 10.848 35.2799 10.672C35.1412 10.4907 35.0719 10.248 35.0719 9.944C35.0719 9.82667 35.0932 9.70667 35.1359 9.584C35.1785 9.456 35.2425 9.33067 35.3279 9.208C35.4185 9.08 35.5279 8.96 35.6559 8.848C35.7839 8.736 35.9332 8.63733 36.1039 8.552C35.7039 8.328 35.3919 8.032 35.1679 7.664C34.9439 7.29067 34.8319 6.85867 34.8319 6.368C34.8319 5.97333 34.9065 5.616 35.0559 5.296C35.2105 4.97067 35.4239 4.696 35.6959 4.472C35.9679 4.24267 36.2905 4.06667 36.6639 3.944C37.0425 3.82133 37.4559 3.76 37.9039 3.76C38.2559 3.76 38.5839 3.8 38.8879 3.88C39.1919 3.95467 39.4692 4.06667 39.7199 4.216H41.9199ZM47.0034 3.768C47.5954 3.768 48.1287 3.86667 48.6034 4.064C49.078 4.26133 49.4834 4.54133 49.8194 4.904C50.1554 5.26667 50.4114 5.70667 50.5874 6.224C50.7687 6.736 50.8594 7.30933 50.8594 7.944C50.8594 8.584 50.7687 9.16 50.5874 9.672C50.4114 10.184 50.1554 10.6213 49.8194 10.984C49.4834 11.3467 49.078 11.6267 48.6034 11.824C48.1287 12.016 47.5954 12.112 47.0034 12.112C46.406 12.112 45.8674 12.016 45.3874 11.824C44.9127 11.6267 44.5074 11.3467 44.1714 10.984C43.8354 10.6213 43.5767 10.184 43.3954 9.672C43.2194 9.16 43.1314 8.584 43.1314 7.944C43.1314 7.30933 43.2194 6.736 43.3954 6.224C43.5767 5.70667 43.8354 5.26667 44.1714 4.904C44.5074 4.54133 44.9127 4.26133 45.3874 4.064C45.8674 3.86667 46.406 3.768 47.0034 3.768ZM47.0034 11C47.8034 11 48.4007 10.7333 48.7954 10.2C49.19 9.66133 49.3874 8.912 49.3874 7.952C49.3874 6.98667 49.19 6.23467 48.7954 5.696C48.4007 5.15733 47.8034 4.888 47.0034 4.888C46.598 4.888 46.2434 4.95733 45.9394 5.096C45.6407 5.23467 45.39 5.43467 45.1874 5.696C44.99 5.95733 44.8407 6.28 44.7394 6.664C44.6434 7.04267 44.5954 7.472 44.5954 7.952C44.5954 8.912 44.7927 9.66133 45.1874 10.2C45.5874 10.7333 46.1927 11 47.0034 11ZM54.3375 5.52C54.5935 4.96533 54.9082 4.53333 55.2815 4.224C55.6548 3.90933 56.1108 3.752 56.6495 3.752C56.8202 3.752 56.9828 3.77067 57.1375 3.808C57.2975 3.84533 57.4388 3.904 57.5615 3.984L57.4575 5.048C57.4255 5.18133 57.3455 5.248 57.2175 5.248C57.1428 5.248 57.0335 5.232 56.8895 5.2C56.7455 5.168 56.5828 5.152 56.4015 5.152C56.1455 5.152 55.9162 5.18933 55.7135 5.264C55.5162 5.33867 55.3375 5.45067 55.1775 5.6C55.0228 5.744 54.8815 5.92533 54.7535 6.144C54.6308 6.35733 54.5188 6.60267 54.4175 6.88V12H52.9855V3.896H53.8015C53.9562 3.896 54.0628 3.92533 54.1215 3.984C54.1802 4.04267 54.2202 4.144 54.2415 4.288L54.3375 5.52ZM60.6376 3.896V12H59.2136V3.896H60.6376ZM60.9416 1.352C60.9416 1.49067 60.9123 1.62133 60.8536 1.744C60.8003 1.86133 60.7256 1.968 60.6296 2.064C60.539 2.15467 60.4296 2.22667 60.3016 2.28C60.179 2.33333 60.0483 2.36 59.9096 2.36C59.771 2.36 59.6403 2.33333 59.5176 2.28C59.4003 2.22667 59.2963 2.15467 59.2056 2.064C59.115 1.968 59.043 1.86133 58.9896 1.744C58.9363 1.62133 58.9096 1.49067 58.9096 1.352C58.9096 1.21333 58.9363 1.08267 58.9896 0.959999C59.043 0.831999 59.115 0.722666 59.2056 0.631999C59.2963 0.536 59.4003 0.461333 59.5176 0.407999C59.6403 0.354666 59.771 0.327999 59.9096 0.327999C60.0483 0.327999 60.179 0.354666 60.3016 0.407999C60.4296 0.461333 60.539 0.536 60.6296 0.631999C60.7256 0.722666 60.8003 0.831999 60.8536 0.959999C60.9123 1.08267 60.9416 1.21333 60.9416 1.352ZM68.7214 7.064C68.7214 6.73333 68.6734 6.432 68.5774 6.16C68.4867 5.88267 68.3507 5.64533 68.1694 5.448C67.9934 5.24533 67.7774 5.09067 67.5214 4.984C67.2654 4.872 66.9747 4.816 66.6494 4.816C65.9667 4.816 65.4254 5.016 65.0254 5.416C64.6307 5.81067 64.3854 6.36 64.2894 7.064H68.7214ZM69.8734 10.864C69.6974 11.0773 69.4867 11.264 69.2414 11.424C68.996 11.5787 68.732 11.7067 68.4494 11.808C68.172 11.9093 67.884 11.984 67.5854 12.032C67.2867 12.0853 66.9907 12.112 66.6974 12.112C66.1374 12.112 65.62 12.0187 65.1454 11.832C64.676 11.64 64.268 11.3627 63.9214 11C63.58 10.632 63.3134 10.1787 63.1214 9.64C62.9294 9.10133 62.8334 8.48267 62.8334 7.784C62.8334 7.21867 62.9187 6.69067 63.0894 6.2C63.2654 5.70933 63.516 5.28533 63.8414 4.928C64.1667 4.56533 64.564 4.28267 65.0334 4.08C65.5027 3.872 66.0307 3.768 66.6174 3.768C67.1027 3.768 67.5507 3.85067 67.9614 4.016C68.3774 4.176 68.7347 4.41067 69.0334 4.72C69.3374 5.024 69.5747 5.40267 69.7454 5.856C69.916 6.304 70.0014 6.816 70.0014 7.392C70.0014 7.616 69.9774 7.76533 69.9294 7.84C69.8814 7.91467 69.7907 7.952 69.6574 7.952H64.2414C64.2574 8.464 64.3267 8.90933 64.4494 9.288C64.5774 9.66667 64.7534 9.984 64.9774 10.24C65.2014 10.4907 65.468 10.68 65.7774 10.808C66.0867 10.9307 66.4334 10.992 66.8174 10.992C67.1747 10.992 67.4814 10.952 67.7374 10.872C67.9987 10.7867 68.2227 10.696 68.4094 10.6C68.596 10.504 68.7507 10.416 68.8734 10.336C69.0014 10.2507 69.1107 10.208 69.2014 10.208C69.3187 10.208 69.4094 10.2533 69.4734 10.344L69.8734 10.864ZM76.7905 5.232C76.7265 5.34933 76.6278 5.408 76.4945 5.408C76.4145 5.408 76.3238 5.37867 76.2225 5.32C76.1212 5.26133 75.9958 5.19733 75.8465 5.128C75.7025 5.05333 75.5292 4.98667 75.3265 4.928C75.1238 4.864 74.8838 4.832 74.6065 4.832C74.3665 4.832 74.1505 4.864 73.9585 4.928C73.7665 4.98667 73.6012 5.06933 73.4625 5.176C73.3292 5.28267 73.2252 5.408 73.1505 5.552C73.0812 5.69067 73.0465 5.84267 73.0465 6.008C73.0465 6.216 73.1052 6.38933 73.2225 6.528C73.3452 6.66667 73.5052 6.78667 73.7025 6.888C73.8998 6.98933 74.1238 7.08 74.3745 7.16C74.6252 7.23467 74.8812 7.31733 75.1425 7.408C75.4092 7.49333 75.6678 7.58933 75.9185 7.696C76.1692 7.80267 76.3932 7.936 76.5905 8.096C76.7878 8.256 76.9452 8.45333 77.0625 8.688C77.1852 8.91733 77.2465 9.19467 77.2465 9.52C77.2465 9.89333 77.1798 10.24 77.0465 10.56C76.9132 10.8747 76.7158 11.1493 76.4545 11.384C76.1932 11.6133 75.8732 11.7947 75.4945 11.928C75.1158 12.0613 74.6785 12.128 74.1825 12.128C73.6172 12.128 73.1052 12.0373 72.6465 11.856C72.1878 11.6693 71.7985 11.432 71.4785 11.144L71.8145 10.6C71.8572 10.5307 71.9078 10.4773 71.9665 10.44C72.0252 10.4027 72.0998 10.384 72.1905 10.384C72.2865 10.384 72.3878 10.4213 72.4945 10.496C72.6012 10.5707 72.7292 10.6533 72.8785 10.744C73.0332 10.8347 73.2198 10.9173 73.4385 10.992C73.6572 11.0667 73.9292 11.104 74.2545 11.104C74.5318 11.104 74.7745 11.0693 74.9825 11C75.1905 10.9253 75.3638 10.8267 75.5025 10.704C75.6412 10.5813 75.7425 10.44 75.8065 10.28C75.8758 10.12 75.9105 9.94933 75.9105 9.768C75.9105 9.544 75.8492 9.36 75.7265 9.216C75.6092 9.06667 75.4518 8.94133 75.2545 8.84C75.0572 8.73333 74.8305 8.64267 74.5745 8.568C74.3238 8.488 74.0652 8.40533 73.7985 8.32C73.5372 8.23467 73.2785 8.13867 73.0225 8.032C72.7718 7.92 72.5478 7.78133 72.3505 7.616C72.1532 7.45067 71.9932 7.248 71.8705 7.008C71.7532 6.76267 71.6945 6.46667 71.6945 6.12C71.6945 5.81067 71.7585 5.51467 71.8865 5.232C72.0145 4.944 72.2012 4.69333 72.4465 4.48C72.6918 4.26133 72.9932 4.088 73.3505 3.96C73.7078 3.832 74.1158 3.768 74.5745 3.768C75.1078 3.768 75.5852 3.85333 76.0065 4.024C76.4332 4.18933 76.8012 4.41867 77.1105 4.712L76.7905 5.232Z" fill="#8686A1"/>
</svg>
