<svg width="131" height="38" viewBox="0 0 131 38" fill="none" xmlns="http://www.w3.org/2000/svg">
<g filter="url(#filter0_b_450_5829)">
<path d="M0 19C0 8.50659 8.50659 0 19 0H112C122.493 0 131 8.50659 131 19C131 29.4934 122.493 38 112 38H19C8.50659 38 0 29.4934 0 19Z" fill="white" fill-opacity="0.6"/>
<path d="M1 19C1 9.05888 9.05888 1 19 1H112C121.941 1 130 9.05888 130 19C130 28.9411 121.941 37 112 37H19C9.05888 37 1 28.9411 1 19Z" stroke="url(#paint0_linear_450_5829)" stroke-opacity="0.9" stroke-width="2"/>
</g>
<path d="M41.876 14.512V26H40.388V17.824C40.388 17.7013 40.3907 17.5707 40.396 17.432C40.4067 17.2933 40.4173 17.152 40.428 17.008L36.604 24.024C36.4707 24.2853 36.2653 24.416 35.988 24.416H35.748C35.4707 24.416 35.268 24.2853 35.14 24.024L31.244 16.984C31.276 17.2827 31.292 17.5627 31.292 17.824V26H29.796V14.512H31.06C31.2093 14.512 31.324 14.528 31.404 14.56C31.4893 14.5867 31.5693 14.6667 31.644 14.8L35.484 21.68C35.5587 21.8187 35.628 21.9653 35.692 22.12C35.756 22.2747 35.8173 22.4293 35.876 22.584C35.988 22.2693 36.1187 21.9653 36.268 21.672L40.036 14.8C40.1053 14.6667 40.18 14.5867 40.26 14.56C40.3453 14.528 40.4627 14.512 40.612 14.512H41.876ZM48.8515 22.392C48.2168 22.4133 47.6782 22.464 47.2355 22.544C46.7928 22.6187 46.4328 22.72 46.1555 22.848C45.8782 22.976 45.6782 23.128 45.5555 23.304C45.4328 23.4747 45.3715 23.6667 45.3715 23.88C45.3715 24.0827 45.4035 24.2587 45.4675 24.408C45.5368 24.552 45.6275 24.672 45.7395 24.768C45.8568 24.8587 45.9928 24.9253 46.1475 24.968C46.3022 25.0107 46.4702 25.032 46.6515 25.032C46.8915 25.032 47.1102 25.008 47.3075 24.96C47.5102 24.912 47.6995 24.8453 47.8755 24.76C48.0515 24.6693 48.2195 24.56 48.3795 24.432C48.5395 24.304 48.6968 24.1573 48.8515 23.992V22.392ZM44.2755 19.008C44.7288 18.576 45.2195 18.2533 45.7475 18.04C46.2808 17.8267 46.8648 17.72 47.4995 17.72C47.9635 17.72 48.3742 17.7973 48.7315 17.952C49.0888 18.1013 49.3902 18.312 49.6355 18.584C49.8808 18.856 50.0648 19.1813 50.1875 19.56C50.3155 19.9387 50.3795 20.3573 50.3795 20.816V26H49.6835C49.5288 26 49.4115 25.976 49.3315 25.928C49.2515 25.8747 49.1875 25.7787 49.1395 25.64L48.9715 24.928C48.7635 25.12 48.5582 25.2907 48.3555 25.44C48.1528 25.584 47.9395 25.7093 47.7155 25.816C47.4968 25.9173 47.2622 25.9947 47.0115 26.048C46.7608 26.1013 46.4835 26.128 46.1795 26.128C45.8595 26.128 45.5582 26.0853 45.2755 26C44.9982 25.9093 44.7555 25.7733 44.5475 25.592C44.3395 25.4107 44.1742 25.184 44.0515 24.912C43.9342 24.64 43.8755 24.3227 43.8755 23.96C43.8755 23.64 43.9608 23.3333 44.1315 23.04C44.3075 22.7413 44.5902 22.4747 44.9795 22.24C45.3742 22.0053 45.8862 21.8133 46.5155 21.664C47.1502 21.5147 47.9288 21.4293 48.8515 21.408V20.816C48.8515 20.2027 48.7208 19.744 48.4595 19.44C48.1982 19.136 47.8142 18.984 47.3075 18.984C46.9662 18.984 46.6782 19.0267 46.4435 19.112C46.2142 19.1973 46.0142 19.2933 45.8435 19.4C45.6782 19.5013 45.5315 19.5947 45.4035 19.68C45.2808 19.7653 45.1528 19.808 45.0195 19.808C44.9128 19.808 44.8195 19.7787 44.7395 19.72C44.6648 19.6613 44.6035 19.592 44.5555 19.512L44.2755 19.008ZM54.2599 19.432C54.5212 18.8987 54.8359 18.48 55.2039 18.176C55.5719 17.872 56.0145 17.72 56.5319 17.72C56.7079 17.72 56.8732 17.7413 57.0279 17.784C57.1879 17.8213 57.3265 17.88 57.4439 17.96L57.3399 19.136C57.3025 19.28 57.2145 19.352 57.0759 19.352C57.0012 19.352 56.8892 19.3387 56.7399 19.312C56.5905 19.28 56.4305 19.264 56.2599 19.264C56.0092 19.264 55.7879 19.3013 55.5959 19.376C55.4039 19.4453 55.2305 19.552 55.0759 19.696C54.9265 19.8347 54.7932 20.008 54.6759 20.216C54.5585 20.4187 54.4492 20.6507 54.3479 20.912V26H52.7879V17.872H53.6839C53.8545 17.872 53.9692 17.904 54.0279 17.968C54.0919 18.0267 54.1372 18.1333 54.1639 18.288L54.2599 19.432ZM60.5273 14.192V21.096H60.8953C61.0073 21.096 61.1006 21.08 61.1753 21.048C61.2499 21.016 61.3273 20.952 61.4073 20.856L63.8393 18.176C63.9139 18.0747 63.9966 18 64.0873 17.952C64.1779 17.8987 64.2926 17.872 64.4313 17.872H65.8553L62.9833 21.016C62.8286 21.2133 62.6633 21.3653 62.4873 21.472C62.5886 21.5413 62.6766 21.6213 62.7513 21.712C62.8313 21.8027 62.9086 21.9013 62.9833 22.008L66.0393 26H64.6393C64.5113 26 64.3993 25.9787 64.3033 25.936C64.2126 25.8933 64.1299 25.816 64.0553 25.704L61.5433 22.44C61.4633 22.3173 61.3833 22.24 61.3033 22.208C61.2233 22.1707 61.1033 22.152 60.9433 22.152H60.5273V26H58.9673V14.192H60.5273ZM72.4525 21.032C72.4525 20.7227 72.4072 20.4373 72.3165 20.176C72.2312 19.9147 72.1032 19.688 71.9325 19.496C71.7618 19.304 71.5538 19.1547 71.3085 19.048C71.0632 18.9413 70.7805 18.888 70.4605 18.888C69.8045 18.888 69.2872 19.0773 68.9085 19.456C68.5352 19.8347 68.2978 20.36 68.1965 21.032H72.4525ZM73.7405 24.84C73.5485 25.064 73.3272 25.2587 73.0765 25.424C72.8258 25.584 72.5592 25.7147 72.2765 25.816C71.9938 25.9173 71.7005 25.992 71.3965 26.04C71.0978 26.088 70.8018 26.112 70.5085 26.112C69.9485 26.112 69.4285 26.0187 68.9485 25.832C68.4738 25.64 68.0605 25.3627 67.7085 25C67.3618 24.632 67.0898 24.1787 66.8925 23.64C66.7005 23.096 66.6045 22.472 66.6045 21.768C66.6045 21.2027 66.6925 20.6773 66.8685 20.192C67.0445 19.7013 67.2952 19.2747 67.6205 18.912C67.9512 18.5493 68.3538 18.264 68.8285 18.056C69.3032 17.848 69.8365 17.744 70.4285 17.744C70.9245 17.744 71.3805 17.8267 71.7965 17.992C72.2178 18.152 72.5805 18.3867 72.8845 18.696C73.1885 19.0053 73.4258 19.3867 73.5965 19.84C73.7725 20.2933 73.8605 20.8107 73.8605 21.392C73.8605 21.632 73.8338 21.7947 73.7805 21.88C73.7272 21.96 73.6285 22 73.4845 22H68.1565C68.1725 22.4853 68.2418 22.9093 68.3645 23.272C68.4872 23.6293 68.6552 23.928 68.8685 24.168C69.0872 24.408 69.3458 24.5867 69.6445 24.704C69.9432 24.8213 70.2765 24.88 70.6445 24.88C70.9912 24.88 71.2898 24.84 71.5405 24.76C71.7965 24.68 72.0152 24.5947 72.1965 24.504C72.3832 24.408 72.5378 24.32 72.6605 24.24C72.7885 24.16 72.9005 24.12 72.9965 24.12C73.1245 24.12 73.2232 24.168 73.2925 24.264L73.7405 24.84ZM83.4987 26H81.9307V19.136H77.8507V23.896C77.8507 24.216 77.9281 24.456 78.0827 24.616C78.2427 24.7707 78.4454 24.848 78.6907 24.848C78.8347 24.848 78.9574 24.8293 79.0587 24.792C79.1654 24.7547 79.2561 24.7147 79.3307 24.672C79.4054 24.624 79.4694 24.5813 79.5227 24.544C79.5761 24.5067 79.6241 24.488 79.6667 24.488C79.7201 24.488 79.7601 24.5013 79.7867 24.528C79.8187 24.5493 79.8507 24.5867 79.8827 24.64L80.3467 25.392C80.0907 25.6267 79.7867 25.808 79.4347 25.936C79.0827 26.064 78.7174 26.128 78.3387 26.128C77.6827 26.128 77.1761 25.944 76.8187 25.576C76.4667 25.208 76.2907 24.6827 76.2907 24V19.136H75.3467C75.2561 19.136 75.1787 19.1093 75.1147 19.056C75.0561 18.9973 75.0267 18.912 75.0267 18.8V18.168L76.3547 17.984L76.6987 15.56C76.7201 15.4693 76.7601 15.4 76.8187 15.352C76.8827 15.2987 76.9627 15.272 77.0587 15.272H77.8507V18H83.4987V26ZM83.8507 15.312C83.8507 15.456 83.8214 15.5947 83.7627 15.728C83.7041 15.856 83.6241 15.9707 83.5227 16.072C83.4267 16.168 83.3121 16.2453 83.1788 16.304C83.0454 16.3573 82.9068 16.384 82.7627 16.384C82.6187 16.384 82.4827 16.3573 82.3547 16.304C82.2267 16.2453 82.1121 16.168 82.0107 16.072C81.9147 15.9707 81.8374 15.856 81.7787 15.728C81.7254 15.5947 81.6988 15.456 81.6988 15.312C81.6988 15.1627 81.7254 15.0213 81.7787 14.888C81.8374 14.7547 81.9147 14.64 82.0107 14.544C82.1121 14.4427 82.2267 14.3653 82.3547 14.312C82.4827 14.2533 82.6187 14.224 82.7627 14.224C82.9068 14.224 83.0454 14.2533 83.1788 14.312C83.3121 14.3653 83.4267 14.4427 83.5227 14.544C83.6241 14.64 83.7041 14.7547 83.7627 14.888C83.8214 15.0213 83.8507 15.1627 83.8507 15.312ZM87.5475 19C87.7235 18.8133 87.9075 18.6427 88.0995 18.488C88.2915 18.3333 88.4942 18.2027 88.7075 18.096C88.9262 17.984 89.1582 17.8987 89.4035 17.84C89.6542 17.776 89.9208 17.744 90.2035 17.744C90.6515 17.744 91.0435 17.8187 91.3795 17.968C91.7208 18.1173 92.0062 18.328 92.2355 18.6C92.4648 18.8667 92.6382 19.1893 92.7555 19.568C92.8728 19.9467 92.9315 20.3653 92.9315 20.824V26H91.3635V20.824C91.3635 20.2427 91.2302 19.792 90.9635 19.472C90.6968 19.1467 90.2888 18.984 89.7395 18.984C89.3395 18.984 88.9635 19.08 88.6115 19.272C88.2648 19.4587 87.9422 19.7147 87.6435 20.04V26H86.0835V17.872H87.0195C87.2382 17.872 87.3742 17.976 87.4275 18.184L87.5475 19ZM98.2126 21.944C98.49 21.944 98.7326 21.9067 98.9406 21.832C99.154 21.7573 99.33 21.6533 99.4686 21.52C99.6126 21.3813 99.7193 21.216 99.7886 21.024C99.8633 20.832 99.9006 20.6213 99.9006 20.392C99.9006 19.9227 99.7566 19.5493 99.4686 19.272C99.186 18.9893 98.7673 18.848 98.2126 18.848C97.6633 18.848 97.2446 18.9893 96.9566 19.272C96.674 19.5493 96.5326 19.9227 96.5326 20.392C96.5326 20.6213 96.5673 20.832 96.6366 21.024C96.7113 21.2107 96.818 21.3733 96.9566 21.512C97.1006 21.6453 97.2766 21.752 97.4846 21.832C97.698 21.9067 97.9406 21.944 98.2126 21.944ZM100.701 26.424C100.701 26.232 100.647 26.08 100.541 25.968C100.434 25.8507 100.287 25.76 100.101 25.696C99.9193 25.6267 99.706 25.5787 99.4606 25.552C99.2153 25.52 98.9566 25.496 98.6846 25.48C98.418 25.464 98.1433 25.4507 97.8606 25.44C97.578 25.424 97.306 25.3973 97.0446 25.36C96.7673 25.4987 96.538 25.6667 96.3566 25.864C96.1806 26.0613 96.0926 26.2933 96.0926 26.56C96.0926 26.7307 96.1353 26.8907 96.2206 27.04C96.3113 27.1893 96.4473 27.3173 96.6286 27.424C96.8153 27.536 97.0473 27.6213 97.3246 27.68C97.6073 27.744 97.9433 27.776 98.3326 27.776C98.7166 27.776 99.0553 27.7413 99.3486 27.672C99.642 27.608 99.8873 27.5147 100.085 27.392C100.287 27.2747 100.439 27.1333 100.541 26.968C100.647 26.8027 100.701 26.6213 100.701 26.424ZM102.285 18.176V18.76C102.285 18.952 102.165 19.072 101.925 19.12L101.053 19.248C101.127 19.4133 101.186 19.5893 101.229 19.776C101.271 19.9573 101.293 20.1493 101.293 20.352C101.293 20.752 101.215 21.1147 101.061 21.44C100.906 21.76 100.693 22.0347 100.421 22.264C100.149 22.4933 99.8233 22.6693 99.4446 22.792C99.0713 22.9147 98.6606 22.976 98.2126 22.976C97.8446 22.976 97.5006 22.936 97.1806 22.856C97.0206 22.952 96.898 23.0587 96.8126 23.176C96.7326 23.288 96.6926 23.4 96.6926 23.512C96.6926 23.6987 96.77 23.8373 96.9246 23.928C97.0846 24.0187 97.29 24.0853 97.5406 24.128C97.7966 24.1653 98.0873 24.1893 98.4126 24.2C98.7433 24.2107 99.0766 24.2293 99.4126 24.256C99.754 24.2773 100.087 24.32 100.413 24.384C100.743 24.4427 101.034 24.5413 101.285 24.68C101.541 24.8133 101.746 25 101.901 25.24C102.061 25.4747 102.141 25.7813 102.141 26.16C102.141 26.512 102.053 26.8533 101.877 27.184C101.706 27.5147 101.455 27.808 101.125 28.064C100.794 28.32 100.391 28.5253 99.9166 28.68C99.442 28.8347 98.9033 28.912 98.3006 28.912C97.698 28.912 97.1726 28.8533 96.7246 28.736C96.282 28.6187 95.9113 28.4613 95.6126 28.264C95.3193 28.0667 95.098 27.8373 94.9486 27.576C94.8046 27.3147 94.7326 27.0427 94.7326 26.76C94.7326 26.3653 94.8553 26.032 95.1006 25.76C95.346 25.4827 95.6846 25.2667 96.1166 25.112C95.882 25.0053 95.6953 24.8613 95.5566 24.68C95.418 24.4933 95.3486 24.248 95.3486 23.944C95.3486 23.8267 95.37 23.7067 95.4126 23.584C95.4553 23.456 95.5193 23.3307 95.6046 23.208C95.6953 23.08 95.8046 22.96 95.9326 22.848C96.066 22.736 96.218 22.6347 96.3886 22.544C95.9886 22.32 95.674 22.024 95.4446 21.656C95.2153 21.2827 95.1006 20.848 95.1006 20.352C95.1006 19.952 95.178 19.592 95.3326 19.272C95.4873 18.952 95.7006 18.6773 95.9726 18.448C96.25 18.2187 96.578 18.0427 96.9566 17.92C97.3406 17.7973 97.7593 17.736 98.2126 17.736C98.9166 17.736 99.522 17.8827 100.029 18.176H102.285Z" fill="#3C3C6F"/>
<defs>
<filter id="filter0_b_450_5829" x="-30" y="-30" width="191" height="98" filterUnits="userSpaceOnUse" color-interpolation-filters="sRGB">
<feFlood flood-opacity="0" result="BackgroundImageFix"/>
<feGaussianBlur in="BackgroundImageFix" stdDeviation="15"/>
<feComposite in2="SourceAlpha" operator="in" result="effect1_backgroundBlur_450_5829"/>
<feBlend mode="normal" in="SourceGraphic" in2="effect1_backgroundBlur_450_5829" result="shape"/>
</filter>
<linearGradient id="paint0_linear_450_5829" x1="9.24888" y1="-6.09434" x2="59.7092" y2="0.193981" gradientUnits="userSpaceOnUse">
<stop stop-color="white"/>
<stop offset="1" stop-color="white" stop-opacity="0"/>
</linearGradient>
</defs>
</svg>
