<svg width="146" height="38" viewBox="0 0 146 38" fill="none" xmlns="http://www.w3.org/2000/svg">
<g filter="url(#filter0_b_450_5764)">
<path d="M0 19C0 8.50659 8.50659 0 19 0H127C137.493 0 146 8.50659 146 19C146 29.4934 137.493 38 127 38H19C8.50659 38 0 29.4934 0 19Z" fill="white" fill-opacity="0.6"/>
<path d="M1 19C1 9.05887 9.05887 1 19 1H127C136.941 1 145 9.05888 145 19C145 28.9411 136.941 37 127 37H19C9.05887 37 1 28.9411 1 19Z" stroke="url(#paint0_linear_450_5764)" stroke-opacity="0.9" stroke-width="2"/>
</g>
<path d="M48.2774 15.896V19.744H52.8854V21.128H48.2774V26H46.5654V14.512H53.6854V15.896H48.2774ZM57.213 17.872V26H55.653V17.872H57.213ZM57.509 15.36C57.509 15.504 57.4797 15.6427 57.421 15.776C57.3623 15.904 57.2823 16.0187 57.181 16.12C57.085 16.216 56.9703 16.2933 56.837 16.352C56.7037 16.4053 56.565 16.432 56.421 16.432C56.277 16.432 56.141 16.4053 56.013 16.352C55.885 16.2933 55.7703 16.216 55.669 16.12C55.573 16.0187 55.4957 15.904 55.437 15.776C55.3837 15.6427 55.357 15.504 55.357 15.36C55.357 15.2107 55.3837 15.072 55.437 14.944C55.4957 14.8107 55.573 14.696 55.669 14.6C55.7703 14.4987 55.885 14.4213 56.013 14.368C56.141 14.3093 56.277 14.28 56.421 14.28C56.565 14.28 56.7037 14.3093 56.837 14.368C56.9703 14.4213 57.085 14.4987 57.181 14.6C57.2823 14.696 57.3623 14.8107 57.421 14.944C57.4797 15.072 57.509 15.2107 57.509 15.36ZM61.2556 19C61.4316 18.8133 61.6156 18.6427 61.8076 18.488C61.9996 18.3333 62.2023 18.2027 62.4156 18.096C62.6343 17.984 62.8663 17.8987 63.1116 17.84C63.3623 17.776 63.629 17.744 63.9116 17.744C64.3596 17.744 64.7516 17.8187 65.0876 17.968C65.429 18.1173 65.7143 18.328 65.9436 18.6C66.173 18.8667 66.3463 19.1893 66.4636 19.568C66.581 19.9467 66.6396 20.3653 66.6396 20.824V26H65.0716V20.824C65.0716 20.2427 64.9383 19.792 64.6716 19.472C64.405 19.1467 63.997 18.984 63.4476 18.984C63.0476 18.984 62.6716 19.08 62.3196 19.272C61.973 19.4587 61.6503 19.7147 61.3516 20.04V26H59.7916V17.872H60.7276C60.9463 17.872 61.0823 17.976 61.1356 18.184L61.2556 19ZM73.4328 22.392C72.7981 22.4133 72.2594 22.464 71.8168 22.544C71.3741 22.6187 71.0141 22.72 70.7368 22.848C70.4594 22.976 70.2594 23.128 70.1368 23.304C70.0141 23.4747 69.9528 23.6667 69.9528 23.88C69.9528 24.0827 69.9848 24.2587 70.0488 24.408C70.1181 24.552 70.2088 24.672 70.3207 24.768C70.4381 24.8587 70.5741 24.9253 70.7288 24.968C70.8834 25.0107 71.0514 25.032 71.2328 25.032C71.4728 25.032 71.6914 25.008 71.8888 24.96C72.0914 24.912 72.2808 24.8453 72.4568 24.76C72.6328 24.6693 72.8008 24.56 72.9608 24.432C73.1208 24.304 73.2781 24.1573 73.4328 23.992V22.392ZM68.8568 19.008C69.3101 18.576 69.8008 18.2533 70.3288 18.04C70.8621 17.8267 71.4461 17.72 72.0807 17.72C72.5448 17.72 72.9554 17.7973 73.3128 17.952C73.6701 18.1013 73.9714 18.312 74.2168 18.584C74.4621 18.856 74.6461 19.1813 74.7688 19.56C74.8968 19.9387 74.9608 20.3573 74.9608 20.816V26H74.2648C74.1101 26 73.9928 25.976 73.9128 25.928C73.8328 25.8747 73.7688 25.7787 73.7208 25.64L73.5528 24.928C73.3448 25.12 73.1394 25.2907 72.9368 25.44C72.7341 25.584 72.5208 25.7093 72.2968 25.816C72.0781 25.9173 71.8434 25.9947 71.5928 26.048C71.3421 26.1013 71.0648 26.128 70.7608 26.128C70.4408 26.128 70.1394 26.0853 69.8568 26C69.5794 25.9093 69.3368 25.7733 69.1288 25.592C68.9208 25.4107 68.7554 25.184 68.6328 24.912C68.5154 24.64 68.4568 24.3227 68.4568 23.96C68.4568 23.64 68.5421 23.3333 68.7128 23.04C68.8888 22.7413 69.1714 22.4747 69.5608 22.24C69.9554 22.0053 70.4674 21.8133 71.0968 21.664C71.7314 21.5147 72.5101 21.4293 73.4328 21.408V20.816C73.4328 20.2027 73.3021 19.744 73.0408 19.44C72.7794 19.136 72.3954 18.984 71.8888 18.984C71.5474 18.984 71.2594 19.0267 71.0248 19.112C70.7954 19.1973 70.5954 19.2933 70.4248 19.4C70.2594 19.5013 70.1128 19.5947 69.9848 19.68C69.8621 19.7653 69.7341 19.808 69.6008 19.808C69.4941 19.808 69.4008 19.7787 69.3208 19.72C69.2461 19.6613 69.1848 19.592 69.1368 19.512L68.8568 19.008ZM78.8331 19C79.0091 18.8133 79.1931 18.6427 79.3851 18.488C79.5771 18.3333 79.7798 18.2027 79.9931 18.096C80.2118 17.984 80.4438 17.8987 80.6891 17.84C80.9398 17.776 81.2065 17.744 81.4891 17.744C81.9371 17.744 82.3291 17.8187 82.6651 17.968C83.0065 18.1173 83.2918 18.328 83.5211 18.6C83.7505 18.8667 83.9238 19.1893 84.0411 19.568C84.1585 19.9467 84.2171 20.3653 84.2171 20.824V26H82.6491V20.824C82.6491 20.2427 82.5158 19.792 82.2491 19.472C81.9825 19.1467 81.5745 18.984 81.0251 18.984C80.6251 18.984 80.2491 19.08 79.8971 19.272C79.5505 19.4587 79.2278 19.7147 78.9291 20.04V26H77.3691V17.872H78.3051C78.5238 17.872 78.6598 17.976 78.7131 18.184L78.8331 19ZM92.3382 19.392C92.2902 19.4507 92.2422 19.4987 92.1942 19.536C92.1516 19.568 92.0876 19.584 92.0022 19.584C91.9169 19.584 91.8262 19.552 91.7302 19.488C91.6396 19.4187 91.5222 19.3467 91.3782 19.272C91.2396 19.192 91.0689 19.12 90.8662 19.056C90.6689 18.9867 90.4236 18.952 90.1302 18.952C89.7462 18.952 89.4076 19.0213 89.1142 19.16C88.8209 19.2987 88.5756 19.496 88.3782 19.752C88.1862 20.008 88.0396 20.32 87.9382 20.688C87.8369 21.056 87.7862 21.4693 87.7862 21.928C87.7862 22.4027 87.8396 22.8267 87.9462 23.2C88.0529 23.568 88.2049 23.88 88.4022 24.136C88.5996 24.3867 88.8396 24.5787 89.1222 24.712C89.4049 24.84 89.7196 24.904 90.0662 24.904C90.4022 24.904 90.6796 24.864 90.8982 24.784C91.1169 24.6987 91.2982 24.608 91.4422 24.512C91.5862 24.416 91.7062 24.328 91.8022 24.248C91.8982 24.1627 91.9969 24.12 92.0982 24.12C92.2262 24.12 92.3249 24.168 92.3942 24.264L92.8422 24.84C92.6556 25.0693 92.4449 25.264 92.2102 25.424C91.9809 25.584 91.7356 25.7147 91.4742 25.816C91.2129 25.9173 90.9382 25.992 90.6502 26.04C90.3676 26.088 90.0796 26.112 89.7862 26.112C89.2796 26.112 88.8049 26.0187 88.3622 25.832C87.9249 25.6453 87.5436 25.3733 87.2182 25.016C86.8982 24.6587 86.6449 24.2213 86.4582 23.704C86.2716 23.1813 86.1782 22.5893 86.1782 21.928C86.1782 21.3253 86.2609 20.768 86.4262 20.256C86.5969 19.744 86.8449 19.304 87.1702 18.936C87.5009 18.5627 87.9062 18.272 88.3862 18.064C88.8662 17.8507 89.4156 17.744 90.0342 17.744C90.6156 17.744 91.1276 17.8373 91.5702 18.024C92.0129 18.2107 92.4076 18.4747 92.7542 18.816L92.3382 19.392ZM99.8619 21.032C99.8619 20.7227 99.8165 20.4373 99.7259 20.176C99.6405 19.9147 99.5125 19.688 99.3419 19.496C99.1712 19.304 98.9632 19.1547 98.7179 19.048C98.4725 18.9413 98.1899 18.888 97.8699 18.888C97.2139 18.888 96.6965 19.0773 96.3179 19.456C95.9445 19.8347 95.7072 20.36 95.6059 21.032H99.8619ZM101.15 24.84C100.958 25.064 100.737 25.2587 100.486 25.424C100.235 25.584 99.9685 25.7147 99.6859 25.816C99.4032 25.9173 99.1099 25.992 98.8059 26.04C98.5072 26.088 98.2112 26.112 97.9179 26.112C97.3579 26.112 96.8379 26.0187 96.3579 25.832C95.8832 25.64 95.4699 25.3627 95.1179 25C94.7712 24.632 94.4992 24.1787 94.3019 23.64C94.1099 23.096 94.0139 22.472 94.0139 21.768C94.0139 21.2027 94.1019 20.6773 94.2779 20.192C94.4539 19.7013 94.7045 19.2747 95.0299 18.912C95.3605 18.5493 95.7632 18.264 96.2379 18.056C96.7125 17.848 97.2459 17.744 97.8379 17.744C98.3339 17.744 98.7899 17.8267 99.2059 17.992C99.6272 18.152 99.9899 18.3867 100.294 18.696C100.598 19.0053 100.835 19.3867 101.006 19.84C101.182 20.2933 101.27 20.8107 101.27 21.392C101.27 21.632 101.243 21.7947 101.19 21.88C101.137 21.96 101.038 22 100.894 22H95.5659C95.5819 22.4853 95.6512 22.9093 95.7739 23.272C95.8965 23.6293 96.0645 23.928 96.2779 24.168C96.4965 24.408 96.7552 24.5867 97.0539 24.704C97.3525 24.8213 97.6859 24.88 98.0539 24.88C98.4005 24.88 98.6992 24.84 98.9499 24.76C99.2059 24.68 99.4245 24.5947 99.6059 24.504C99.7925 24.408 99.9472 24.32 100.07 24.24C100.198 24.16 100.31 24.12 100.406 24.12C100.534 24.12 100.633 24.168 100.702 24.264L101.15 24.84Z" fill="#3C3C6F"/>
<defs>
<filter id="filter0_b_450_5764" x="-30" y="-30" width="206" height="98" filterUnits="userSpaceOnUse" color-interpolation-filters="sRGB">
<feFlood flood-opacity="0" result="BackgroundImageFix"/>
<feGaussianBlur in="BackgroundImageFix" stdDeviation="15"/>
<feComposite in2="SourceAlpha" operator="in" result="effect1_backgroundBlur_450_5764"/>
<feBlend mode="normal" in="SourceGraphic" in2="effect1_backgroundBlur_450_5764" result="shape"/>
</filter>
<linearGradient id="paint0_linear_450_5764" x1="10.3079" y1="-6.09434" x2="66.3387" y2="1.68769" gradientUnits="userSpaceOnUse">
<stop stop-color="white"/>
<stop offset="1" stop-color="white" stop-opacity="0"/>
</linearGradient>
</defs>
</svg>
