<svg width="171" height="38" viewBox="0 0 171 38" fill="none" xmlns="http://www.w3.org/2000/svg">
<g filter="url(#filter0_b_450_5791)">
<path d="M0 19C0 8.50659 8.50659 0 19 0H152C162.493 0 171 8.50659 171 19C171 29.4934 162.493 38 152 38H19C8.50659 38 0 29.4934 0 19Z" fill="white" fill-opacity="0.6"/>
<path d="M1 19C1 9.05888 9.05888 1 19 1H152C161.941 1 170 9.05888 170 19C170 28.9411 161.941 37 152 37H19C9.05887 37 1 28.9411 1 19Z" stroke="url(#paint0_linear_450_5791)" stroke-opacity="0.9" stroke-width="2"/>
</g>
<path d="M33.1273 24.568V26H26.5513V14.512H28.2553V24.568H33.1273ZM36.4177 17.872V26H34.8577V17.872H36.4177ZM36.7137 15.36C36.7137 15.504 36.6844 15.6427 36.6257 15.776C36.567 15.904 36.487 16.0187 36.3857 16.12C36.2897 16.216 36.175 16.2933 36.0417 16.352C35.9084 16.4053 35.7697 16.432 35.6257 16.432C35.4817 16.432 35.3457 16.4053 35.2177 16.352C35.0897 16.2933 34.975 16.216 34.8737 16.12C34.7777 16.0187 34.7004 15.904 34.6417 15.776C34.5884 15.6427 34.5617 15.504 34.5617 15.36C34.5617 15.2107 34.5884 15.072 34.6417 14.944C34.7004 14.8107 34.7777 14.696 34.8737 14.6C34.975 14.4987 35.0897 14.4213 35.2177 14.368C35.3457 14.3093 35.4817 14.28 35.6257 14.28C35.7697 14.28 35.9084 14.3093 36.0417 14.368C36.175 14.4213 36.2897 14.4987 36.3857 14.6C36.487 14.696 36.567 14.8107 36.6257 14.944C36.6844 15.072 36.7137 15.2107 36.7137 15.36ZM39.5323 26V19.152L38.6843 19.048C38.5616 19.0213 38.4603 18.9787 38.3803 18.92C38.3056 18.856 38.2683 18.7653 38.2683 18.648V18H39.5323V17.264C39.5323 16.8 39.599 16.3867 39.7323 16.024C39.8656 15.6613 40.055 15.3547 40.3003 15.104C40.551 14.848 40.8496 14.656 41.1963 14.528C41.5483 14.3947 41.943 14.328 42.3803 14.328C42.7483 14.328 43.087 14.3813 43.3963 14.488L43.3643 15.272C43.359 15.3413 43.3376 15.3947 43.3003 15.432C43.263 15.464 43.2123 15.488 43.1483 15.504C43.0896 15.52 43.015 15.5307 42.9243 15.536C42.839 15.536 42.7456 15.536 42.6443 15.536C42.4043 15.536 42.1856 15.5653 41.9883 15.624C41.791 15.6827 41.623 15.7813 41.4843 15.92C41.3456 16.0587 41.239 16.2427 41.1643 16.472C41.0896 16.696 41.0523 16.976 41.0523 17.312V18H43.3323V19.136H41.1003V26H39.5323ZM50.0909 21.032C50.0909 20.7227 50.0456 20.4373 49.9549 20.176C49.8696 19.9147 49.7416 19.688 49.5709 19.496C49.4003 19.304 49.1923 19.1547 48.9469 19.048C48.7016 18.9413 48.4189 18.888 48.0989 18.888C47.4429 18.888 46.9256 19.0773 46.5469 19.456C46.1736 19.8347 45.9363 20.36 45.8349 21.032H50.0909ZM51.3789 24.84C51.1869 25.064 50.9656 25.2587 50.7149 25.424C50.4643 25.584 50.1976 25.7147 49.9149 25.816C49.6323 25.9173 49.3389 25.992 49.0349 26.04C48.7363 26.088 48.4403 26.112 48.1469 26.112C47.5869 26.112 47.0669 26.0187 46.5869 25.832C46.1123 25.64 45.6989 25.3627 45.3469 25C45.0003 24.632 44.7283 24.1787 44.5309 23.64C44.3389 23.096 44.2429 22.472 44.2429 21.768C44.2429 21.2027 44.3309 20.6773 44.5069 20.192C44.6829 19.7013 44.9336 19.2747 45.2589 18.912C45.5896 18.5493 45.9923 18.264 46.4669 18.056C46.9416 17.848 47.4749 17.744 48.0669 17.744C48.5629 17.744 49.0189 17.8267 49.4349 17.992C49.8563 18.152 50.2189 18.3867 50.5229 18.696C50.8269 19.0053 51.0643 19.3867 51.2349 19.84C51.4109 20.2933 51.4989 20.8107 51.4989 21.392C51.4989 21.632 51.4723 21.7947 51.4189 21.88C51.3656 21.96 51.2669 22 51.1229 22H45.7949C45.8109 22.4853 45.8803 22.9093 46.0029 23.272C46.1256 23.6293 46.2936 23.928 46.5069 24.168C46.7256 24.408 46.9843 24.5867 47.2829 24.704C47.5816 24.8213 47.9149 24.88 48.2829 24.88C48.6296 24.88 48.9283 24.84 49.1789 24.76C49.4349 24.68 49.6536 24.5947 49.8349 24.504C50.0216 24.408 50.1763 24.32 50.2989 24.24C50.4269 24.16 50.5389 24.12 50.6349 24.12C50.7629 24.12 50.8616 24.168 50.9309 24.264L51.3789 24.84ZM58.2877 19.272C58.245 19.3413 58.1997 19.392 58.1517 19.424C58.1037 19.4507 58.0424 19.464 57.9677 19.464C57.8824 19.464 57.7864 19.4347 57.6797 19.376C57.5784 19.3173 57.453 19.2533 57.3037 19.184C57.1597 19.1147 56.989 19.0507 56.7917 18.992C56.5944 18.9333 56.3597 18.904 56.0877 18.904C55.8637 18.904 55.6584 18.9333 55.4717 18.992C55.2904 19.0453 55.1357 19.1227 55.0077 19.224C54.8797 19.32 54.781 19.4373 54.7117 19.576C54.6424 19.7093 54.6077 19.8533 54.6077 20.008C54.6077 20.2107 54.6664 20.3787 54.7837 20.512C54.9064 20.6453 55.0637 20.76 55.2557 20.856C55.453 20.952 55.6744 21.04 55.9197 21.12C56.1704 21.1947 56.4237 21.2747 56.6797 21.36C56.941 21.4453 57.1944 21.544 57.4397 21.656C57.6904 21.7627 57.9117 21.8987 58.1037 22.064C58.301 22.224 58.4584 22.4187 58.5757 22.648C58.6984 22.8773 58.7597 23.1573 58.7597 23.488C58.7597 23.8667 58.6904 24.2187 58.5517 24.544C58.4184 24.864 58.2184 25.1413 57.9517 25.376C57.6904 25.6107 57.365 25.7947 56.9757 25.928C56.5864 26.0613 56.141 26.128 55.6397 26.128C55.0797 26.128 54.5624 26.0347 54.0877 25.848C53.613 25.6613 53.2157 25.424 52.8957 25.136L53.2637 24.536C53.3064 24.4613 53.3597 24.4053 53.4237 24.368C53.4877 24.3253 53.573 24.304 53.6797 24.304C53.781 24.304 53.885 24.3413 53.9917 24.416C54.0984 24.4907 54.2264 24.5733 54.3757 24.664C54.525 24.7493 54.7064 24.8293 54.9197 24.904C55.133 24.9733 55.3997 25.008 55.7197 25.008C55.9864 25.008 56.2184 24.976 56.4157 24.912C56.613 24.8427 56.7757 24.752 56.9037 24.64C57.037 24.5227 57.1357 24.3893 57.1997 24.24C57.2637 24.0907 57.2957 23.9333 57.2957 23.768C57.2957 23.5547 57.2344 23.3787 57.1117 23.24C56.9944 23.096 56.837 22.9733 56.6397 22.872C56.4477 22.7707 56.2264 22.6827 55.9757 22.608C55.725 22.5333 55.469 22.4533 55.2077 22.368C54.9464 22.2827 54.6904 22.184 54.4397 22.072C54.189 21.96 53.965 21.8187 53.7677 21.648C53.5757 21.4773 53.4184 21.2693 53.2957 21.024C53.1784 20.7787 53.1197 20.48 53.1197 20.128C53.1197 19.8133 53.1837 19.512 53.3117 19.224C53.445 18.936 53.6344 18.6827 53.8797 18.464C54.1304 18.2453 54.437 18.072 54.7997 17.944C55.1677 17.8107 55.5864 17.744 56.0557 17.744C56.5944 17.744 57.0797 17.8293 57.5117 18C57.949 18.1707 58.3224 18.4053 58.6317 18.704L58.2877 19.272ZM63.3128 26.128C62.6568 26.128 62.1501 25.944 61.7928 25.576C61.4408 25.208 61.2648 24.6827 61.2648 24V19.136H60.3208C60.2301 19.136 60.1528 19.1093 60.0888 19.056C60.0301 18.9973 60.0008 18.912 60.0008 18.8V18.168L61.3208 17.984L61.6728 15.56C61.6941 15.4693 61.7341 15.4 61.7928 15.352C61.8568 15.2987 61.9368 15.272 62.0328 15.272H62.8248V18H65.1288V19.136H62.8248V23.896C62.8248 24.216 62.9021 24.456 63.0568 24.616C63.2168 24.7707 63.4195 24.848 63.6648 24.848C63.8088 24.848 63.9315 24.8293 64.0328 24.792C64.1395 24.7547 64.2301 24.7147 64.3048 24.672C64.3795 24.624 64.4435 24.5813 64.4968 24.544C64.5501 24.5067 64.5981 24.488 64.6408 24.488C64.6941 24.488 64.7341 24.5013 64.7608 24.528C64.7928 24.5493 64.8248 24.5867 64.8568 24.64L65.3208 25.392C65.0648 25.6267 64.7608 25.808 64.4088 25.936C64.0568 26.064 63.6915 26.128 63.3128 26.128ZM73.9897 17.872L69.4777 28.36C69.4297 28.4773 69.3657 28.568 69.2857 28.632C69.2057 28.696 69.0884 28.728 68.9337 28.728H67.7737L69.2617 25.488L65.9257 17.872H67.2857C67.419 17.872 67.523 17.904 67.5977 17.968C67.6724 18.032 67.7257 18.104 67.7577 18.184L69.8217 23.064C69.8644 23.1867 69.9044 23.312 69.9417 23.44C69.9844 23.5627 70.019 23.6853 70.0457 23.808C70.083 23.68 70.123 23.5547 70.1657 23.432C70.2084 23.304 70.2537 23.1787 70.3017 23.056L72.2937 18.184C72.331 18.0933 72.3897 18.0187 72.4697 17.96C72.5497 17.9013 72.6404 17.872 72.7417 17.872H73.9897ZM77.1026 14.192V26H75.5346V14.192H77.1026ZM85.0347 21.032C85.0347 20.7227 84.9894 20.4373 84.8987 20.176C84.8134 19.9147 84.6854 19.688 84.5147 19.496C84.344 19.304 84.136 19.1547 83.8907 19.048C83.6454 18.9413 83.3627 18.888 83.0427 18.888C82.3867 18.888 81.8694 19.0773 81.4907 19.456C81.1174 19.8347 80.88 20.36 80.7787 21.032H85.0347ZM86.3227 24.84C86.1307 25.064 85.9094 25.2587 85.6587 25.424C85.408 25.584 85.1414 25.7147 84.8587 25.816C84.576 25.9173 84.2827 25.992 83.9787 26.04C83.68 26.088 83.384 26.112 83.0907 26.112C82.5307 26.112 82.0107 26.0187 81.5307 25.832C81.056 25.64 80.6427 25.3627 80.2907 25C79.944 24.632 79.672 24.1787 79.4747 23.64C79.2827 23.096 79.1867 22.472 79.1867 21.768C79.1867 21.2027 79.2747 20.6773 79.4507 20.192C79.6267 19.7013 79.8774 19.2747 80.2027 18.912C80.5334 18.5493 80.936 18.264 81.4107 18.056C81.8854 17.848 82.4187 17.744 83.0107 17.744C83.5067 17.744 83.9627 17.8267 84.3787 17.992C84.8 18.152 85.1627 18.3867 85.4667 18.696C85.7707 19.0053 86.008 19.3867 86.1787 19.84C86.3547 20.2933 86.4427 20.8107 86.4427 21.392C86.4427 21.632 86.416 21.7947 86.3627 21.88C86.3094 21.96 86.2107 22 86.0667 22H80.7387C80.7547 22.4853 80.824 22.9093 80.9467 23.272C81.0694 23.6293 81.2374 23.928 81.4507 24.168C81.6694 24.408 81.928 24.5867 82.2267 24.704C82.5254 24.8213 82.8587 24.88 83.2267 24.88C83.5734 24.88 83.872 24.84 84.1227 24.76C84.3787 24.68 84.5974 24.5947 84.7787 24.504C84.9654 24.408 85.12 24.32 85.2427 24.24C85.3707 24.16 85.4827 24.12 85.5787 24.12C85.7067 24.12 85.8054 24.168 85.8747 24.264L86.3227 24.84ZM101.15 23.536C101.246 23.536 101.329 23.5733 101.398 23.648L102.07 24.384C101.601 24.9387 101.028 25.368 100.35 25.672C99.6783 25.976 98.8676 26.128 97.9183 26.128C97.0863 26.128 96.3316 25.984 95.6543 25.696C94.9823 25.408 94.4063 25.0053 93.9263 24.488C93.4516 23.9707 93.0836 23.352 92.8223 22.632C92.561 21.912 92.4303 21.12 92.4303 20.256C92.4303 19.392 92.5663 18.6 92.8383 17.88C93.1156 17.16 93.5023 16.5413 93.9983 16.024C94.4943 15.5067 95.0863 15.104 95.7743 14.816C96.4676 14.528 97.233 14.384 98.0703 14.384C98.8863 14.384 99.6116 14.5173 100.246 14.784C100.881 15.0507 101.433 15.4053 101.902 15.848L101.342 16.64C101.305 16.6987 101.257 16.7467 101.198 16.784C101.145 16.8213 101.073 16.84 100.982 16.84C100.881 16.84 100.761 16.7893 100.622 16.688C100.489 16.5867 100.31 16.4747 100.086 16.352C99.8676 16.224 99.5956 16.1093 99.2703 16.008C98.945 15.9067 98.5396 15.856 98.0543 15.856C97.4836 15.856 96.961 15.9573 96.4863 16.16C96.0116 16.3573 95.601 16.6453 95.2543 17.024C94.913 17.3973 94.6463 17.8587 94.4543 18.408C94.2676 18.952 94.1743 19.568 94.1743 20.256C94.1743 20.9547 94.273 21.576 94.4703 22.12C94.6676 22.664 94.9396 23.1253 95.2863 23.504C95.633 23.8827 96.041 24.1707 96.5103 24.368C96.9796 24.5653 97.4863 24.664 98.0303 24.664C98.361 24.664 98.657 24.6453 98.9183 24.608C99.185 24.5653 99.4276 24.504 99.6463 24.424C99.8703 24.344 100.081 24.2427 100.278 24.12C100.476 23.992 100.67 23.84 100.862 23.664C100.905 23.6267 100.95 23.5973 100.998 23.576C101.046 23.5493 101.097 23.536 101.15 23.536ZM105.208 19.432C105.469 18.8987 105.784 18.48 106.152 18.176C106.52 17.872 106.962 17.72 107.48 17.72C107.656 17.72 107.821 17.7413 107.976 17.784C108.136 17.8213 108.274 17.88 108.392 17.96L108.288 19.136C108.25 19.28 108.162 19.352 108.024 19.352C107.949 19.352 107.837 19.3387 107.688 19.312C107.538 19.28 107.378 19.264 107.208 19.264C106.957 19.264 106.736 19.3013 106.544 19.376C106.352 19.4453 106.178 19.552 106.024 19.696C105.874 19.8347 105.741 20.008 105.624 20.216C105.506 20.4187 105.397 20.6507 105.296 20.912V26H103.736V17.872H104.632C104.802 17.872 104.917 17.904 104.976 17.968C105.04 18.0267 105.085 18.1333 105.112 18.288L105.208 19.432ZM115.002 21.032C115.002 20.7227 114.957 20.4373 114.866 20.176C114.781 19.9147 114.653 19.688 114.482 19.496C114.312 19.304 114.104 19.1547 113.858 19.048C113.613 18.9413 113.33 18.888 113.01 18.888C112.354 18.888 111.837 19.0773 111.458 19.456C111.085 19.8347 110.848 20.36 110.746 21.032H115.002ZM116.29 24.84C116.098 25.064 115.877 25.2587 115.626 25.424C115.376 25.584 115.109 25.7147 114.826 25.816C114.544 25.9173 114.25 25.992 113.946 26.04C113.648 26.088 113.352 26.112 113.058 26.112C112.498 26.112 111.978 26.0187 111.498 25.832C111.024 25.64 110.61 25.3627 110.258 25C109.912 24.632 109.64 24.1787 109.442 23.64C109.25 23.096 109.154 22.472 109.154 21.768C109.154 21.2027 109.242 20.6773 109.418 20.192C109.594 19.7013 109.845 19.2747 110.17 18.912C110.501 18.5493 110.904 18.264 111.378 18.056C111.853 17.848 112.386 17.744 112.978 17.744C113.474 17.744 113.93 17.8267 114.346 17.992C114.768 18.152 115.13 18.3867 115.434 18.696C115.738 19.0053 115.976 19.3867 116.146 19.84C116.322 20.2933 116.41 20.8107 116.41 21.392C116.41 21.632 116.384 21.7947 116.33 21.88C116.277 21.96 116.178 22 116.034 22H110.706C110.722 22.4853 110.792 22.9093 110.914 23.272C111.037 23.6293 111.205 23.928 111.418 24.168C111.637 24.408 111.896 24.5867 112.194 24.704C112.493 24.8213 112.826 24.88 113.194 24.88C113.541 24.88 113.84 24.84 114.09 24.76C114.346 24.68 114.565 24.5947 114.746 24.504C114.933 24.408 115.088 24.32 115.21 24.24C115.338 24.16 115.45 24.12 115.546 24.12C115.674 24.12 115.773 24.168 115.842 24.264L116.29 24.84ZM122.775 22.392C122.14 22.4133 121.602 22.464 121.159 22.544C120.716 22.6187 120.356 22.72 120.079 22.848C119.802 22.976 119.602 23.128 119.479 23.304C119.356 23.4747 119.295 23.6667 119.295 23.88C119.295 24.0827 119.327 24.2587 119.391 24.408C119.46 24.552 119.551 24.672 119.663 24.768C119.78 24.8587 119.916 24.9253 120.071 24.968C120.226 25.0107 120.394 25.032 120.575 25.032C120.815 25.032 121.034 25.008 121.231 24.96C121.434 24.912 121.623 24.8453 121.799 24.76C121.975 24.6693 122.143 24.56 122.303 24.432C122.463 24.304 122.62 24.1573 122.775 23.992V22.392ZM118.199 19.008C118.652 18.576 119.143 18.2533 119.671 18.04C120.204 17.8267 120.788 17.72 121.423 17.72C121.887 17.72 122.298 17.7973 122.655 17.952C123.012 18.1013 123.314 18.312 123.559 18.584C123.804 18.856 123.988 19.1813 124.111 19.56C124.239 19.9387 124.303 20.3573 124.303 20.816V26H123.607C123.452 26 123.335 25.976 123.255 25.928C123.175 25.8747 123.111 25.7787 123.063 25.64L122.895 24.928C122.687 25.12 122.482 25.2907 122.279 25.44C122.076 25.584 121.863 25.7093 121.639 25.816C121.42 25.9173 121.186 25.9947 120.935 26.048C120.684 26.1013 120.407 26.128 120.103 26.128C119.783 26.128 119.482 26.0853 119.199 26C118.922 25.9093 118.679 25.7733 118.471 25.592C118.263 25.4107 118.098 25.184 117.975 24.912C117.858 24.64 117.799 24.3227 117.799 23.96C117.799 23.64 117.884 23.3333 118.055 23.04C118.231 22.7413 118.514 22.4747 118.903 22.24C119.298 22.0053 119.81 21.8133 120.439 21.664C121.074 21.5147 121.852 21.4293 122.775 21.408V20.816C122.775 20.2027 122.644 19.744 122.383 19.44C122.122 19.136 121.738 18.984 121.231 18.984C120.89 18.984 120.602 19.0267 120.367 19.112C120.138 19.1973 119.938 19.2933 119.767 19.4C119.602 19.5013 119.455 19.5947 119.327 19.68C119.204 19.7653 119.076 19.808 118.943 19.808C118.836 19.808 118.743 19.7787 118.663 19.72C118.588 19.6613 118.527 19.592 118.479 19.512L118.199 19.008ZM129.146 26.128C128.49 26.128 127.983 25.944 127.626 25.576C127.274 25.208 127.098 24.6827 127.098 24V19.136H126.154C126.063 19.136 125.986 19.1093 125.922 19.056C125.863 18.9973 125.834 18.912 125.834 18.8V18.168L127.154 17.984L127.506 15.56C127.527 15.4693 127.567 15.4 127.626 15.352C127.69 15.2987 127.77 15.272 127.866 15.272H128.658V18H130.962V19.136H128.658V23.896C128.658 24.216 128.735 24.456 128.89 24.616C129.05 24.7707 129.253 24.848 129.498 24.848C129.642 24.848 129.765 24.8293 129.866 24.792C129.973 24.7547 130.063 24.7147 130.138 24.672C130.213 24.624 130.277 24.5813 130.33 24.544C130.383 24.5067 130.431 24.488 130.474 24.488C130.527 24.488 130.567 24.5013 130.594 24.528C130.626 24.5493 130.658 24.5867 130.69 24.64L131.154 25.392C130.898 25.6267 130.594 25.808 130.242 25.936C129.89 26.064 129.525 26.128 129.146 26.128ZM136.136 17.744C136.733 17.744 137.272 17.8427 137.752 18.04C138.237 18.232 138.648 18.512 138.984 18.88C139.325 19.2427 139.587 19.6827 139.768 20.2C139.949 20.712 140.04 21.288 140.04 21.928C140.04 22.568 139.949 23.1467 139.768 23.664C139.587 24.1813 139.325 24.6213 138.984 24.984C138.648 25.3467 138.237 25.6267 137.752 25.824C137.272 26.016 136.733 26.112 136.136 26.112C135.533 26.112 134.989 26.016 134.504 25.824C134.024 25.6267 133.613 25.3467 133.272 24.984C132.931 24.6213 132.667 24.1813 132.48 23.664C132.299 23.1467 132.208 22.568 132.208 21.928C132.208 21.288 132.299 20.712 132.48 20.2C132.667 19.6827 132.931 19.2427 133.272 18.88C133.613 18.512 134.024 18.232 134.504 18.04C134.989 17.8427 135.533 17.744 136.136 17.744ZM136.136 24.896C136.904 24.896 137.477 24.6373 137.856 24.12C138.235 23.6027 138.424 22.8747 138.424 21.936C138.424 20.9973 138.235 20.2693 137.856 19.752C137.477 19.2293 136.904 18.968 136.136 18.968C135.357 18.968 134.776 19.2293 134.392 19.752C134.013 20.2693 133.824 20.9973 133.824 21.936C133.824 22.8747 134.013 23.6027 134.392 24.12C134.776 24.6373 135.357 24.896 136.136 24.896ZM143.573 19.432C143.835 18.8987 144.149 18.48 144.517 18.176C144.885 17.872 145.328 17.72 145.845 17.72C146.021 17.72 146.187 17.7413 146.341 17.784C146.501 17.8213 146.64 17.88 146.757 17.96L146.653 19.136C146.616 19.28 146.528 19.352 146.389 19.352C146.315 19.352 146.203 19.3387 146.053 19.312C145.904 19.28 145.744 19.264 145.573 19.264C145.323 19.264 145.101 19.3013 144.909 19.376C144.717 19.4453 144.544 19.552 144.389 19.696C144.24 19.8347 144.107 20.008 143.989 20.216C143.872 20.4187 143.763 20.6507 143.661 20.912V26H142.101V17.872H142.997C143.168 17.872 143.283 17.904 143.341 17.968C143.405 18.0267 143.451 18.1333 143.477 18.288L143.573 19.432Z" fill="#3C3C6F"/>
<defs>
<filter id="filter0_b_450_5791" x="-30" y="-30" width="231" height="98" filterUnits="userSpaceOnUse" color-interpolation-filters="sRGB">
<feFlood flood-opacity="0" result="BackgroundImageFix"/>
<feGaussianBlur in="BackgroundImageFix" stdDeviation="15"/>
<feComposite in2="SourceAlpha" operator="in" result="effect1_backgroundBlur_450_5791"/>
<feBlend mode="normal" in="SourceGraphic" in2="effect1_backgroundBlur_450_5791" result="shape"/>
</filter>
<linearGradient id="paint0_linear_450_5791" x1="12.073" y1="-6.09434" x2="77.2395" y2="4.50636" gradientUnits="userSpaceOnUse">
<stop stop-color="white"/>
<stop offset="1" stop-color="white" stop-opacity="0"/>
</linearGradient>
</defs>
</svg>
