<svg width="146" height="38" viewBox="0 0 146 38" fill="none" xmlns="http://www.w3.org/2000/svg">
<g filter="url(#filter0_b_450_5808)">
<path d="M0 19C0 8.50659 8.50659 0 19 0H127C137.493 0 146 8.50659 146 19C146 29.4934 137.493 38 127 38H19C8.50659 38 0 29.4934 0 19Z" fill="white" fill-opacity="0.6"/>
<path d="M1 19C1 9.05887 9.05887 1 19 1H127C136.941 1 145 9.05888 145 19C145 28.9411 136.941 37 127 37H19C9.05887 37 1 28.9411 1 19Z" stroke="url(#paint0_linear_450_5808)" stroke-opacity="0.9" stroke-width="2"/>
</g>
<path d="M49.1391 20.424C49.5711 20.424 49.9498 20.368 50.2751 20.256C50.6058 20.144 50.8805 19.9867 51.0991 19.784C51.3231 19.576 51.4911 19.3307 51.6031 19.048C51.7151 18.76 51.7711 18.4427 51.7711 18.096C51.7711 17.3973 51.5525 16.848 51.1151 16.448C50.6831 16.048 50.0245 15.848 49.1391 15.848H47.3631V20.424H49.1391ZM49.1391 14.512C49.8751 14.512 50.5151 14.5973 51.0591 14.768C51.6031 14.9387 52.0538 15.1813 52.4111 15.496C52.7685 15.8053 53.0325 16.1813 53.2031 16.624C53.3791 17.0667 53.4671 17.5573 53.4671 18.096C53.4671 18.6347 53.3738 19.1307 53.1871 19.584C53.0005 20.032 52.7258 20.4187 52.3631 20.744C52.0005 21.0693 51.5471 21.3227 51.0031 21.504C50.4645 21.68 49.8431 21.768 49.1391 21.768H47.3631V26H45.6591V14.512H49.1391ZM56.678 19.432C56.9393 18.8987 57.254 18.48 57.622 18.176C57.99 17.872 58.4327 17.72 58.95 17.72C59.126 17.72 59.2913 17.7413 59.446 17.784C59.606 17.8213 59.7447 17.88 59.862 17.96L59.758 19.136C59.7207 19.28 59.6327 19.352 59.494 19.352C59.4193 19.352 59.3073 19.3387 59.158 19.312C59.0087 19.28 58.8487 19.264 58.678 19.264C58.4273 19.264 58.206 19.3013 58.014 19.376C57.822 19.4453 57.6487 19.552 57.494 19.696C57.3447 19.8347 57.2113 20.008 57.094 20.216C56.9767 20.4187 56.8673 20.6507 56.766 20.912V26H55.206V17.872H56.102C56.2727 17.872 56.3873 17.904 56.446 17.968C56.51 18.0267 56.5553 18.1333 56.582 18.288L56.678 19.432ZM64.5525 17.744C65.1498 17.744 65.6885 17.8427 66.1685 18.04C66.6538 18.232 67.0645 18.512 67.4005 18.88C67.7418 19.2427 68.0032 19.6827 68.1845 20.2C68.3658 20.712 68.4565 21.288 68.4565 21.928C68.4565 22.568 68.3658 23.1467 68.1845 23.664C68.0032 24.1813 67.7418 24.6213 67.4005 24.984C67.0645 25.3467 66.6538 25.6267 66.1685 25.824C65.6885 26.016 65.1498 26.112 64.5525 26.112C63.9498 26.112 63.4058 26.016 62.9205 25.824C62.4405 25.6267 62.0298 25.3467 61.6885 24.984C61.3472 24.6213 61.0832 24.1813 60.8965 23.664C60.7152 23.1467 60.6245 22.568 60.6245 21.928C60.6245 21.288 60.7152 20.712 60.8965 20.2C61.0832 19.6827 61.3472 19.2427 61.6885 18.88C62.0298 18.512 62.4405 18.232 62.9205 18.04C63.4058 17.8427 63.9498 17.744 64.5525 17.744ZM64.5525 24.896C65.3205 24.896 65.8938 24.6373 66.2725 24.12C66.6512 23.6027 66.8405 22.8747 66.8405 21.936C66.8405 20.9973 66.6512 20.2693 66.2725 19.752C65.8938 19.2293 65.3205 18.968 64.5525 18.968C63.7738 18.968 63.1925 19.2293 62.8085 19.752C62.4298 20.2693 62.2405 20.9973 62.2405 21.936C62.2405 22.8747 62.4298 23.6027 62.8085 24.12C63.1925 24.6373 63.7738 24.896 64.5525 24.896ZM75.7579 19.84C75.5019 19.504 75.2245 19.2693 74.9259 19.136C74.6325 19.0027 74.3019 18.936 73.9339 18.936C73.2192 18.936 72.6645 19.1947 72.2699 19.712C71.8805 20.224 71.6859 20.9733 71.6859 21.96C71.6859 22.4773 71.7285 22.92 71.8139 23.288C71.9045 23.6507 72.0325 23.9493 72.1979 24.184C72.3685 24.4133 72.5765 24.584 72.8219 24.696C73.0672 24.8027 73.3445 24.856 73.6539 24.856C74.1072 24.856 74.4992 24.7547 74.8299 24.552C75.1605 24.3493 75.4699 24.064 75.7579 23.696V19.84ZM77.3259 14.192V26H76.3819C76.1632 26 76.0272 25.896 75.9739 25.688L75.8379 24.752C75.4912 25.1627 75.0965 25.4933 74.6539 25.744C74.2165 25.9893 73.7099 26.112 73.1339 26.112C72.6699 26.112 72.2485 26.0213 71.8699 25.84C71.4965 25.6587 71.1765 25.3947 70.9099 25.048C70.6432 24.696 70.4379 24.2613 70.2939 23.744C70.1499 23.2267 70.0779 22.632 70.0779 21.96C70.0779 21.3573 70.1579 20.7973 70.3179 20.28C70.4779 19.7627 70.7099 19.3147 71.0139 18.936C71.3179 18.5573 71.6859 18.2613 72.1179 18.048C72.5499 17.8293 73.0379 17.72 73.5819 17.72C74.0725 17.72 74.4885 17.8 74.8299 17.96C75.1765 18.12 75.4859 18.3467 75.7579 18.64V14.192H77.3259ZM86.5823 17.872V26H85.6463C85.4329 26 85.2943 25.896 85.2302 25.688L85.1182 24.872C84.9422 25.0587 84.7582 25.2293 84.5662 25.384C84.3742 25.5387 84.1689 25.672 83.9503 25.784C83.7316 25.8907 83.4996 25.9733 83.2543 26.032C83.0089 26.096 82.7449 26.128 82.4622 26.128C82.0142 26.128 81.6196 26.0533 81.2782 25.904C80.9422 25.7547 80.6596 25.5467 80.4302 25.28C80.2009 25.008 80.0276 24.6827 79.9102 24.304C79.7929 23.9253 79.7342 23.5067 79.7342 23.048V17.872H81.3022V23.048C81.3022 23.6293 81.4356 24.0827 81.7022 24.408C81.9689 24.728 82.3769 24.888 82.9262 24.888C83.3262 24.888 83.6996 24.7947 84.0462 24.608C84.3929 24.416 84.7182 24.1547 85.0223 23.824V17.872H86.5823ZM94.7757 19.392C94.7277 19.4507 94.6797 19.4987 94.6317 19.536C94.5891 19.568 94.5251 19.584 94.4397 19.584C94.3544 19.584 94.2637 19.552 94.1677 19.488C94.0771 19.4187 93.9597 19.3467 93.8157 19.272C93.6771 19.192 93.5064 19.12 93.3037 19.056C93.1064 18.9867 92.8611 18.952 92.5677 18.952C92.1837 18.952 91.8451 19.0213 91.5517 19.16C91.2584 19.2987 91.0131 19.496 90.8157 19.752C90.6237 20.008 90.4771 20.32 90.3757 20.688C90.2744 21.056 90.2237 21.4693 90.2237 21.928C90.2237 22.4027 90.2771 22.8267 90.3837 23.2C90.4904 23.568 90.6424 23.88 90.8397 24.136C91.0371 24.3867 91.2771 24.5787 91.5597 24.712C91.8424 24.84 92.1571 24.904 92.5037 24.904C92.8397 24.904 93.1171 24.864 93.3357 24.784C93.5544 24.6987 93.7357 24.608 93.8797 24.512C94.0237 24.416 94.1437 24.328 94.2397 24.248C94.3357 24.1627 94.4344 24.12 94.5357 24.12C94.6637 24.12 94.7624 24.168 94.8317 24.264L95.2797 24.84C95.0931 25.0693 94.8824 25.264 94.6477 25.424C94.4184 25.584 94.1731 25.7147 93.9117 25.816C93.6504 25.9173 93.3757 25.992 93.0877 26.04C92.8051 26.088 92.5171 26.112 92.2237 26.112C91.7171 26.112 91.2424 26.0187 90.7997 25.832C90.3624 25.6453 89.9811 25.3733 89.6557 25.016C89.3357 24.6587 89.0824 24.2213 88.8957 23.704C88.7091 23.1813 88.6157 22.5893 88.6157 21.928C88.6157 21.3253 88.6984 20.768 88.8637 20.256C89.0344 19.744 89.2824 19.304 89.6077 18.936C89.9384 18.5627 90.3437 18.272 90.8237 18.064C91.3037 17.8507 91.8531 17.744 92.4717 17.744C93.0531 17.744 93.5651 17.8373 94.0077 18.024C94.4504 18.2107 94.8451 18.4747 95.1917 18.816L94.7757 19.392ZM99.6 26.128C98.944 26.128 98.4373 25.944 98.08 25.576C97.728 25.208 97.552 24.6827 97.552 24V19.136H96.608C96.5173 19.136 96.44 19.1093 96.376 19.056C96.3173 18.9973 96.288 18.912 96.288 18.8V18.168L97.608 17.984L97.96 15.56C97.9813 15.4693 98.0213 15.4 98.08 15.352C98.144 15.2987 98.224 15.272 98.32 15.272H99.112V18H101.416V19.136H99.112V23.896C99.112 24.216 99.1893 24.456 99.344 24.616C99.504 24.7707 99.7067 24.848 99.952 24.848C100.096 24.848 100.219 24.8293 100.32 24.792C100.427 24.7547 100.517 24.7147 100.592 24.672C100.667 24.624 100.731 24.5813 100.784 24.544C100.837 24.5067 100.885 24.488 100.928 24.488C100.981 24.488 101.021 24.5013 101.048 24.528C101.08 24.5493 101.112 24.5867 101.144 24.64L101.608 25.392C101.352 25.6267 101.048 25.808 100.696 25.936C100.344 26.064 99.9787 26.128 99.6 26.128Z" fill="#3C3C6F"/>
<defs>
<filter id="filter0_b_450_5808" x="-30" y="-30" width="206" height="98" filterUnits="userSpaceOnUse" color-interpolation-filters="sRGB">
<feFlood flood-opacity="0" result="BackgroundImageFix"/>
<feGaussianBlur in="BackgroundImageFix" stdDeviation="15"/>
<feComposite in2="SourceAlpha" operator="in" result="effect1_backgroundBlur_450_5808"/>
<feBlend mode="normal" in="SourceGraphic" in2="effect1_backgroundBlur_450_5808" result="shape"/>
</filter>
<linearGradient id="paint0_linear_450_5808" x1="10.3079" y1="-6.09434" x2="66.3387" y2="1.68769" gradientUnits="userSpaceOnUse">
<stop stop-color="white"/>
<stop offset="1" stop-color="white" stop-opacity="0"/>
</linearGradient>
</defs>
</svg>
