<svg width="152" height="38" viewBox="0 0 152 38" fill="none" xmlns="http://www.w3.org/2000/svg">
<g filter="url(#filter0_b_450_5800)">
<path d="M0 19C0 8.50659 8.50659 0 19 0H133C143.493 0 152 8.50659 152 19C152 29.4934 143.493 38 133 38H19C8.50659 38 0 29.4934 0 19Z" fill="#FF8C00"/>
<path d="M1 19C1 9.05888 9.05888 1 19 1H133C142.941 1 151 9.05888 151 19C151 28.9411 142.941 37 133 37H19C9.05888 37 1 28.9411 1 19Z" stroke="white" stroke-opacity="0.9" stroke-width="2"/>
</g>
<path d="M52.876 14.512V26H51.388V17.824C51.388 17.7013 51.3907 17.5707 51.396 17.432C51.4067 17.2933 51.4173 17.152 51.428 17.008L47.604 24.024C47.4707 24.2853 47.2653 24.416 46.988 24.416H46.748C46.4707 24.416 46.268 24.2853 46.14 24.024L42.244 16.984C42.276 17.2827 42.292 17.5627 42.292 17.824V26H40.796V14.512H42.06C42.2093 14.512 42.324 14.528 42.404 14.56C42.4893 14.5867 42.5693 14.6667 42.644 14.8L46.484 21.68C46.5587 21.8187 46.628 21.9653 46.692 22.12C46.756 22.2747 46.8173 22.4293 46.876 22.584C46.988 22.2693 47.1187 21.9653 47.268 21.672L51.036 14.8C51.1053 14.6667 51.18 14.5867 51.26 14.56C51.3453 14.528 51.4627 14.512 51.612 14.512H52.876ZM59.8515 22.392C59.2168 22.4133 58.6782 22.464 58.2355 22.544C57.7928 22.6187 57.4328 22.72 57.1555 22.848C56.8782 22.976 56.6782 23.128 56.5555 23.304C56.4328 23.4747 56.3715 23.6667 56.3715 23.88C56.3715 24.0827 56.4035 24.2587 56.4675 24.408C56.5368 24.552 56.6275 24.672 56.7395 24.768C56.8568 24.8587 56.9928 24.9253 57.1475 24.968C57.3022 25.0107 57.4702 25.032 57.6515 25.032C57.8915 25.032 58.1102 25.008 58.3075 24.96C58.5102 24.912 58.6995 24.8453 58.8755 24.76C59.0515 24.6693 59.2195 24.56 59.3795 24.432C59.5395 24.304 59.6968 24.1573 59.8515 23.992V22.392ZM55.2755 19.008C55.7288 18.576 56.2195 18.2533 56.7475 18.04C57.2808 17.8267 57.8648 17.72 58.4995 17.72C58.9635 17.72 59.3742 17.7973 59.7315 17.952C60.0888 18.1013 60.3902 18.312 60.6355 18.584C60.8808 18.856 61.0648 19.1813 61.1875 19.56C61.3155 19.9387 61.3795 20.3573 61.3795 20.816V26H60.6835C60.5288 26 60.4115 25.976 60.3315 25.928C60.2515 25.8747 60.1875 25.7787 60.1395 25.64L59.9715 24.928C59.7635 25.12 59.5582 25.2907 59.3555 25.44C59.1528 25.584 58.9395 25.7093 58.7155 25.816C58.4968 25.9173 58.2622 25.9947 58.0115 26.048C57.7608 26.1013 57.4835 26.128 57.1795 26.128C56.8595 26.128 56.5582 26.0853 56.2755 26C55.9982 25.9093 55.7555 25.7733 55.5475 25.592C55.3395 25.4107 55.1742 25.184 55.0515 24.912C54.9342 24.64 54.8755 24.3227 54.8755 23.96C54.8755 23.64 54.9608 23.3333 55.1315 23.04C55.3075 22.7413 55.5902 22.4747 55.9795 22.24C56.3742 22.0053 56.8862 21.8133 57.5155 21.664C58.1502 21.5147 58.9288 21.4293 59.8515 21.408V20.816C59.8515 20.2027 59.7208 19.744 59.4595 19.44C59.1982 19.136 58.8142 18.984 58.3075 18.984C57.9662 18.984 57.6782 19.0267 57.4435 19.112C57.2142 19.1973 57.0142 19.2933 56.8435 19.4C56.6782 19.5013 56.5315 19.5947 56.4035 19.68C56.2808 19.7653 56.1528 19.808 56.0195 19.808C55.9128 19.808 55.8195 19.7787 55.7395 19.72C55.6648 19.6613 55.6035 19.592 55.5555 19.512L55.2755 19.008ZM65.2599 19.432C65.5212 18.8987 65.8359 18.48 66.2039 18.176C66.5719 17.872 67.0145 17.72 67.5319 17.72C67.7079 17.72 67.8732 17.7413 68.0279 17.784C68.1879 17.8213 68.3265 17.88 68.4439 17.96L68.3399 19.136C68.3025 19.28 68.2145 19.352 68.0759 19.352C68.0012 19.352 67.8892 19.3387 67.7399 19.312C67.5905 19.28 67.4305 19.264 67.2599 19.264C67.0092 19.264 66.7879 19.3013 66.5959 19.376C66.4039 19.4453 66.2305 19.552 66.0759 19.696C65.9265 19.8347 65.7932 20.008 65.6759 20.216C65.5585 20.4187 65.4492 20.6507 65.3479 20.912V26H63.7879V17.872H64.6839C64.8545 17.872 64.9692 17.904 65.0279 17.968C65.0919 18.0267 65.1372 18.1333 65.1639 18.288L65.2599 19.432ZM71.5273 14.192V21.096H71.8953C72.0073 21.096 72.1006 21.08 72.1753 21.048C72.2499 21.016 72.3273 20.952 72.4073 20.856L74.8393 18.176C74.9139 18.0747 74.9966 18 75.0873 17.952C75.1779 17.8987 75.2926 17.872 75.4313 17.872H76.8553L73.9833 21.016C73.8286 21.2133 73.6633 21.3653 73.4873 21.472C73.5886 21.5413 73.6766 21.6213 73.7513 21.712C73.8313 21.8027 73.9086 21.9013 73.9833 22.008L77.0393 26H75.6393C75.5113 26 75.3993 25.9787 75.3033 25.936C75.2126 25.8933 75.1299 25.816 75.0553 25.704L72.5433 22.44C72.4633 22.3173 72.3833 22.24 72.3033 22.208C72.2233 22.1707 72.1033 22.152 71.9433 22.152H71.5273V26H69.9673V14.192H71.5273ZM83.4525 21.032C83.4525 20.7227 83.4072 20.4373 83.3165 20.176C83.2312 19.9147 83.1032 19.688 82.9325 19.496C82.7618 19.304 82.5538 19.1547 82.3085 19.048C82.0632 18.9413 81.7805 18.888 81.4605 18.888C80.8045 18.888 80.2872 19.0773 79.9085 19.456C79.5352 19.8347 79.2978 20.36 79.1965 21.032H83.4525ZM84.7405 24.84C84.5485 25.064 84.3272 25.2587 84.0765 25.424C83.8258 25.584 83.5592 25.7147 83.2765 25.816C82.9938 25.9173 82.7005 25.992 82.3965 26.04C82.0978 26.088 81.8018 26.112 81.5085 26.112C80.9485 26.112 80.4285 26.0187 79.9485 25.832C79.4738 25.64 79.0605 25.3627 78.7085 25C78.3618 24.632 78.0898 24.1787 77.8925 23.64C77.7005 23.096 77.6045 22.472 77.6045 21.768C77.6045 21.2027 77.6925 20.6773 77.8685 20.192C78.0445 19.7013 78.2952 19.2747 78.6205 18.912C78.9512 18.5493 79.3538 18.264 79.8285 18.056C80.3032 17.848 80.8365 17.744 81.4285 17.744C81.9245 17.744 82.3805 17.8267 82.7965 17.992C83.2178 18.152 83.5805 18.3867 83.8845 18.696C84.1885 19.0053 84.4258 19.3867 84.5965 19.84C84.7725 20.2933 84.8605 20.8107 84.8605 21.392C84.8605 21.632 84.8338 21.7947 84.7805 21.88C84.7272 21.96 84.6285 22 84.4845 22H79.1565C79.1725 22.4853 79.2418 22.9093 79.3645 23.272C79.4872 23.6293 79.6552 23.928 79.8685 24.168C80.0872 24.408 80.3458 24.5867 80.6445 24.704C80.9432 24.8213 81.2765 24.88 81.6445 24.88C81.9912 24.88 82.2898 24.84 82.5405 24.76C82.7965 24.68 83.0152 24.5947 83.1965 24.504C83.3832 24.408 83.5378 24.32 83.6605 24.24C83.7885 24.16 83.9005 24.12 83.9965 24.12C84.1245 24.12 84.2232 24.168 84.2925 24.264L84.7405 24.84ZM94.4987 26H92.9307V19.136H88.8507V23.896C88.8507 24.216 88.9281 24.456 89.0827 24.616C89.2427 24.7707 89.4454 24.848 89.6907 24.848C89.8347 24.848 89.9574 24.8293 90.0587 24.792C90.1654 24.7547 90.2561 24.7147 90.3307 24.672C90.4054 24.624 90.4694 24.5813 90.5227 24.544C90.5761 24.5067 90.6241 24.488 90.6667 24.488C90.7201 24.488 90.7601 24.5013 90.7867 24.528C90.8187 24.5493 90.8507 24.5867 90.8827 24.64L91.3467 25.392C91.0907 25.6267 90.7867 25.808 90.4347 25.936C90.0827 26.064 89.7174 26.128 89.3387 26.128C88.6827 26.128 88.1761 25.944 87.8187 25.576C87.4667 25.208 87.2907 24.6827 87.2907 24V19.136H86.3467C86.2561 19.136 86.1787 19.1093 86.1147 19.056C86.0561 18.9973 86.0267 18.912 86.0267 18.8V18.168L87.3547 17.984L87.6987 15.56C87.7201 15.4693 87.7601 15.4 87.8187 15.352C87.8827 15.2987 87.9627 15.272 88.0587 15.272H88.8507V18H94.4987V26ZM94.8507 15.312C94.8507 15.456 94.8214 15.5947 94.7627 15.728C94.7041 15.856 94.6241 15.9707 94.5227 16.072C94.4267 16.168 94.3121 16.2453 94.1788 16.304C94.0454 16.3573 93.9068 16.384 93.7627 16.384C93.6187 16.384 93.4827 16.3573 93.3547 16.304C93.2267 16.2453 93.1121 16.168 93.0107 16.072C92.9147 15.9707 92.8374 15.856 92.7787 15.728C92.7254 15.5947 92.6988 15.456 92.6988 15.312C92.6988 15.1627 92.7254 15.0213 92.7787 14.888C92.8374 14.7547 92.9147 14.64 93.0107 14.544C93.1121 14.4427 93.2267 14.3653 93.3547 14.312C93.4827 14.2533 93.6187 14.224 93.7627 14.224C93.9068 14.224 94.0454 14.2533 94.1788 14.312C94.3121 14.3653 94.4267 14.4427 94.5227 14.544C94.6241 14.64 94.7041 14.7547 94.7627 14.888C94.8214 15.0213 94.8507 15.1627 94.8507 15.312ZM98.5475 19C98.7235 18.8133 98.9075 18.6427 99.0995 18.488C99.2915 18.3333 99.4942 18.2027 99.7075 18.096C99.9262 17.984 100.158 17.8987 100.403 17.84C100.654 17.776 100.921 17.744 101.203 17.744C101.651 17.744 102.043 17.8187 102.379 17.968C102.721 18.1173 103.006 18.328 103.235 18.6C103.465 18.8667 103.638 19.1893 103.755 19.568C103.873 19.9467 103.931 20.3653 103.931 20.824V26H102.363V20.824C102.363 20.2427 102.23 19.792 101.963 19.472C101.697 19.1467 101.289 18.984 100.739 18.984C100.339 18.984 99.9635 19.08 99.6115 19.272C99.2648 19.4587 98.9422 19.7147 98.6435 20.04V26H97.0835V17.872H98.0195C98.2382 17.872 98.3742 17.976 98.4275 18.184L98.5475 19ZM109.213 21.944C109.49 21.944 109.733 21.9067 109.941 21.832C110.154 21.7573 110.33 21.6533 110.469 21.52C110.613 21.3813 110.719 21.216 110.789 21.024C110.863 20.832 110.901 20.6213 110.901 20.392C110.901 19.9227 110.757 19.5493 110.469 19.272C110.186 18.9893 109.767 18.848 109.213 18.848C108.663 18.848 108.245 18.9893 107.957 19.272C107.674 19.5493 107.533 19.9227 107.533 20.392C107.533 20.6213 107.567 20.832 107.637 21.024C107.711 21.2107 107.818 21.3733 107.957 21.512C108.101 21.6453 108.277 21.752 108.485 21.832C108.698 21.9067 108.941 21.944 109.213 21.944ZM111.701 26.424C111.701 26.232 111.647 26.08 111.541 25.968C111.434 25.8507 111.287 25.76 111.101 25.696C110.919 25.6267 110.706 25.5787 110.461 25.552C110.215 25.52 109.957 25.496 109.685 25.48C109.418 25.464 109.143 25.4507 108.861 25.44C108.578 25.424 108.306 25.3973 108.045 25.36C107.767 25.4987 107.538 25.6667 107.357 25.864C107.181 26.0613 107.093 26.2933 107.093 26.56C107.093 26.7307 107.135 26.8907 107.221 27.04C107.311 27.1893 107.447 27.3173 107.629 27.424C107.815 27.536 108.047 27.6213 108.325 27.68C108.607 27.744 108.943 27.776 109.333 27.776C109.717 27.776 110.055 27.7413 110.349 27.672C110.642 27.608 110.887 27.5147 111.085 27.392C111.287 27.2747 111.439 27.1333 111.541 26.968C111.647 26.8027 111.701 26.6213 111.701 26.424ZM113.285 18.176V18.76C113.285 18.952 113.165 19.072 112.925 19.12L112.053 19.248C112.127 19.4133 112.186 19.5893 112.229 19.776C112.271 19.9573 112.293 20.1493 112.293 20.352C112.293 20.752 112.215 21.1147 112.061 21.44C111.906 21.76 111.693 22.0347 111.421 22.264C111.149 22.4933 110.823 22.6693 110.445 22.792C110.071 22.9147 109.661 22.976 109.213 22.976C108.845 22.976 108.501 22.936 108.181 22.856C108.021 22.952 107.898 23.0587 107.813 23.176C107.733 23.288 107.693 23.4 107.693 23.512C107.693 23.6987 107.77 23.8373 107.925 23.928C108.085 24.0187 108.29 24.0853 108.541 24.128C108.797 24.1653 109.087 24.1893 109.413 24.2C109.743 24.2107 110.077 24.2293 110.413 24.256C110.754 24.2773 111.087 24.32 111.413 24.384C111.743 24.4427 112.034 24.5413 112.285 24.68C112.541 24.8133 112.746 25 112.901 25.24C113.061 25.4747 113.141 25.7813 113.141 26.16C113.141 26.512 113.053 26.8533 112.877 27.184C112.706 27.5147 112.455 27.808 112.125 28.064C111.794 28.32 111.391 28.5253 110.917 28.68C110.442 28.8347 109.903 28.912 109.301 28.912C108.698 28.912 108.173 28.8533 107.725 28.736C107.282 28.6187 106.911 28.4613 106.613 28.264C106.319 28.0667 106.098 27.8373 105.949 27.576C105.805 27.3147 105.733 27.0427 105.733 26.76C105.733 26.3653 105.855 26.032 106.101 25.76C106.346 25.4827 106.685 25.2667 107.117 25.112C106.882 25.0053 106.695 24.8613 106.557 24.68C106.418 24.4933 106.349 24.248 106.349 23.944C106.349 23.8267 106.37 23.7067 106.413 23.584C106.455 23.456 106.519 23.3307 106.605 23.208C106.695 23.08 106.805 22.96 106.933 22.848C107.066 22.736 107.218 22.6347 107.389 22.544C106.989 22.32 106.674 22.024 106.445 21.656C106.215 21.2827 106.101 20.848 106.101 20.352C106.101 19.952 106.178 19.592 106.333 19.272C106.487 18.952 106.701 18.6773 106.973 18.448C107.25 18.2187 107.578 18.0427 107.957 17.92C108.341 17.7973 108.759 17.736 109.213 17.736C109.917 17.736 110.522 17.8827 111.029 18.176H113.285Z" fill="white"/>
<defs>
<filter id="filter0_b_450_5800" x="-30" y="-30" width="212" height="98" filterUnits="userSpaceOnUse" color-interpolation-filters="sRGB">
<feFlood flood-opacity="0" result="BackgroundImageFix"/>
<feGaussianBlur in="BackgroundImageFix" stdDeviation="15"/>
<feComposite in2="SourceAlpha" operator="in" result="effect1_backgroundBlur_450_5800"/>
<feBlend mode="normal" in="SourceGraphic" in2="effect1_backgroundBlur_450_5800" result="shape"/>
</filter>
</defs>
</svg>
