<svg width="193" height="38" viewBox="0 0 193 38" fill="none" xmlns="http://www.w3.org/2000/svg">
<g filter="url(#filter0_b_450_5817)">
<path d="M0 19C0 8.50659 8.50659 0 19 0H174C184.493 0 193 8.50659 193 19C193 29.4934 184.493 38 174 38H19C8.50659 38 0 29.4934 0 19Z" fill="white" fill-opacity="0.6"/>
<path d="M1 19C1 9.05888 9.05888 1 19 1H174C183.941 1 192 9.05888 192 19C192 28.9411 183.941 37 174 37H19C9.05888 37 1 28.9411 1 19Z" stroke="url(#paint0_linear_450_5817)" stroke-opacity="0.9" stroke-width="2"/>
</g>
<path d="M30.6125 21.72L28.9085 17.264C28.7858 16.96 28.6632 16.576 28.5405 16.112C28.4818 16.3413 28.4205 16.5547 28.3565 16.752C28.2978 16.9493 28.2392 17.1253 28.1805 17.28L26.4845 21.72H30.6125ZM33.9805 26H32.6685C32.5192 26 32.3965 25.9627 32.3005 25.888C32.2045 25.8133 32.1352 25.7173 32.0925 25.6L31.0765 22.936H26.0125L24.9965 25.6C24.9592 25.7013 24.8898 25.7947 24.7885 25.88C24.6872 25.96 24.5645 26 24.4205 26H23.1085L27.6845 14.512H29.4045L33.9805 26ZM40.892 19.392C40.844 19.4507 40.796 19.4987 40.748 19.536C40.7053 19.568 40.6413 19.584 40.556 19.584C40.4707 19.584 40.38 19.552 40.284 19.488C40.1933 19.4187 40.076 19.3467 39.932 19.272C39.7933 19.192 39.6227 19.12 39.42 19.056C39.2227 18.9867 38.9773 18.952 38.684 18.952C38.3 18.952 37.9613 19.0213 37.668 19.16C37.3747 19.2987 37.1293 19.496 36.932 19.752C36.74 20.008 36.5933 20.32 36.492 20.688C36.3907 21.056 36.34 21.4693 36.34 21.928C36.34 22.4027 36.3933 22.8267 36.5 23.2C36.6067 23.568 36.7587 23.88 36.956 24.136C37.1533 24.3867 37.3933 24.5787 37.676 24.712C37.9587 24.84 38.2733 24.904 38.62 24.904C38.956 24.904 39.2333 24.864 39.452 24.784C39.6707 24.6987 39.852 24.608 39.996 24.512C40.14 24.416 40.26 24.328 40.356 24.248C40.452 24.1627 40.5507 24.12 40.652 24.12C40.78 24.12 40.8787 24.168 40.948 24.264L41.396 24.84C41.2093 25.0693 40.9987 25.264 40.764 25.424C40.5347 25.584 40.2893 25.7147 40.028 25.816C39.7667 25.9173 39.492 25.992 39.204 26.04C38.9213 26.088 38.6333 26.112 38.34 26.112C37.8333 26.112 37.3587 26.0187 36.916 25.832C36.4787 25.6453 36.0973 25.3733 35.772 25.016C35.452 24.6587 35.1987 24.2213 35.012 23.704C34.8253 23.1813 34.732 22.5893 34.732 21.928C34.732 21.3253 34.8147 20.768 34.98 20.256C35.1507 19.744 35.3987 19.304 35.724 18.936C36.0547 18.5627 36.46 18.272 36.94 18.064C37.42 17.8507 37.9693 17.744 38.588 17.744C39.1693 17.744 39.6813 17.8373 40.124 18.024C40.5667 18.2107 40.9613 18.4747 41.308 18.816L40.892 19.392ZM48.7276 19.392C48.6796 19.4507 48.6316 19.4987 48.5836 19.536C48.541 19.568 48.477 19.584 48.3916 19.584C48.3063 19.584 48.2156 19.552 48.1196 19.488C48.029 19.4187 47.9116 19.3467 47.7676 19.272C47.629 19.192 47.4583 19.12 47.2556 19.056C47.0583 18.9867 46.813 18.952 46.5196 18.952C46.1356 18.952 45.797 19.0213 45.5036 19.16C45.2103 19.2987 44.965 19.496 44.7676 19.752C44.5756 20.008 44.429 20.32 44.3276 20.688C44.2263 21.056 44.1756 21.4693 44.1756 21.928C44.1756 22.4027 44.229 22.8267 44.3356 23.2C44.4423 23.568 44.5943 23.88 44.7916 24.136C44.989 24.3867 45.229 24.5787 45.5116 24.712C45.7943 24.84 46.109 24.904 46.4556 24.904C46.7916 24.904 47.069 24.864 47.2876 24.784C47.5063 24.6987 47.6876 24.608 47.8316 24.512C47.9756 24.416 48.0956 24.328 48.1916 24.248C48.2876 24.1627 48.3863 24.12 48.4876 24.12C48.6156 24.12 48.7143 24.168 48.7836 24.264L49.2316 24.84C49.045 25.0693 48.8343 25.264 48.5996 25.424C48.3703 25.584 48.125 25.7147 47.8636 25.816C47.6023 25.9173 47.3276 25.992 47.0396 26.04C46.757 26.088 46.469 26.112 46.1756 26.112C45.669 26.112 45.1943 26.0187 44.7516 25.832C44.3143 25.6453 43.933 25.3733 43.6076 25.016C43.2876 24.6587 43.0343 24.2213 42.8476 23.704C42.661 23.1813 42.5676 22.5893 42.5676 21.928C42.5676 21.3253 42.6503 20.768 42.8156 20.256C42.9863 19.744 43.2343 19.304 43.5596 18.936C43.8903 18.5627 44.2956 18.272 44.7756 18.064C45.2556 17.8507 45.805 17.744 46.4236 17.744C47.005 17.744 47.517 17.8373 47.9596 18.024C48.4023 18.2107 48.797 18.4747 49.1436 18.816L48.7276 19.392ZM54.3312 17.744C54.9286 17.744 55.4672 17.8427 55.9472 18.04C56.4326 18.232 56.8432 18.512 57.1792 18.88C57.5206 19.2427 57.7819 19.6827 57.9632 20.2C58.1446 20.712 58.2352 21.288 58.2352 21.928C58.2352 22.568 58.1446 23.1467 57.9632 23.664C57.7819 24.1813 57.5206 24.6213 57.1792 24.984C56.8432 25.3467 56.4326 25.6267 55.9472 25.824C55.4672 26.016 54.9286 26.112 54.3312 26.112C53.7286 26.112 53.1846 26.016 52.6992 25.824C52.2192 25.6267 51.8086 25.3467 51.4672 24.984C51.1259 24.6213 50.8619 24.1813 50.6752 23.664C50.4939 23.1467 50.4032 22.568 50.4032 21.928C50.4032 21.288 50.4939 20.712 50.6752 20.2C50.8619 19.6827 51.1259 19.2427 51.4672 18.88C51.8086 18.512 52.2192 18.232 52.6992 18.04C53.1846 17.8427 53.7286 17.744 54.3312 17.744ZM54.3312 24.896C55.0992 24.896 55.6726 24.6373 56.0512 24.12C56.4299 23.6027 56.6192 22.8747 56.6192 21.936C56.6192 20.9973 56.4299 20.2693 56.0512 19.752C55.6726 19.2293 55.0992 18.968 54.3312 18.968C53.5526 18.968 52.9712 19.2293 52.5872 19.752C52.2086 20.2693 52.0192 20.9973 52.0192 21.936C52.0192 22.8747 52.2086 23.6027 52.5872 24.12C52.9712 24.6373 53.5526 24.896 54.3312 24.896ZM67.0566 17.872V26H66.1206C65.9073 26 65.7686 25.896 65.7046 25.688L65.5926 24.872C65.4166 25.0587 65.2326 25.2293 65.0406 25.384C64.8486 25.5387 64.6433 25.672 64.4246 25.784C64.206 25.8907 63.974 25.9733 63.7286 26.032C63.4833 26.096 63.2193 26.128 62.9366 26.128C62.4886 26.128 62.094 26.0533 61.7526 25.904C61.4166 25.7547 61.134 25.5467 60.9046 25.28C60.6753 25.008 60.502 24.6827 60.3846 24.304C60.2673 23.9253 60.2086 23.5067 60.2086 23.048V17.872H61.7766V23.048C61.7766 23.6293 61.91 24.0827 62.1766 24.408C62.4433 24.728 62.8513 24.888 63.4006 24.888C63.8006 24.888 64.174 24.7947 64.5206 24.608C64.8673 24.416 65.1926 24.1547 65.4966 23.824V17.872H67.0566ZM71.0181 19C71.1941 18.8133 71.3781 18.6427 71.5701 18.488C71.7621 18.3333 71.9648 18.2027 72.1781 18.096C72.3968 17.984 72.6288 17.8987 72.8741 17.84C73.1248 17.776 73.3915 17.744 73.6741 17.744C74.1221 17.744 74.5141 17.8187 74.8501 17.968C75.1915 18.1173 75.4768 18.328 75.7061 18.6C75.9355 18.8667 76.1088 19.1893 76.2261 19.568C76.3435 19.9467 76.4021 20.3653 76.4021 20.824V26H74.8341V20.824C74.8341 20.2427 74.7008 19.792 74.4341 19.472C74.1675 19.1467 73.7595 18.984 73.2101 18.984C72.8101 18.984 72.4341 19.08 72.0821 19.272C71.7355 19.4587 71.4128 19.7147 71.1141 20.04V26H69.5541V17.872H70.4901C70.7088 17.872 70.8448 17.976 70.8981 18.184L71.0181 19ZM86.4219 26H84.8539V19.136H80.7739V23.896C80.7739 24.216 80.8512 24.456 81.0059 24.616C81.1659 24.7707 81.3685 24.848 81.6139 24.848C81.7579 24.848 81.8805 24.8293 81.9819 24.792C82.0885 24.7547 82.1792 24.7147 82.2539 24.672C82.3285 24.624 82.3925 24.5813 82.4459 24.544C82.4992 24.5067 82.5472 24.488 82.5899 24.488C82.6432 24.488 82.6832 24.5013 82.7099 24.528C82.7419 24.5493 82.7739 24.5867 82.8059 24.64L83.2699 25.392C83.0139 25.6267 82.7099 25.808 82.3579 25.936C82.0059 26.064 81.6405 26.128 81.2619 26.128C80.6059 26.128 80.0992 25.944 79.7419 25.576C79.3899 25.208 79.2139 24.6827 79.2139 24V19.136H78.2699C78.1792 19.136 78.1019 19.1093 78.0379 19.056C77.9792 18.9973 77.9499 18.912 77.9499 18.8V18.168L79.2779 17.984L79.6219 15.56C79.6432 15.4693 79.6832 15.4 79.7419 15.352C79.8059 15.2987 79.8859 15.272 79.9819 15.272H80.7739V18H86.4219V26ZM86.7739 15.312C86.7739 15.456 86.7445 15.5947 86.6859 15.728C86.6272 15.856 86.5472 15.9707 86.4459 16.072C86.3499 16.168 86.2352 16.2453 86.1019 16.304C85.9685 16.3573 85.8299 16.384 85.6859 16.384C85.5419 16.384 85.4059 16.3573 85.2779 16.304C85.1499 16.2453 85.0352 16.168 84.9339 16.072C84.8379 15.9707 84.7605 15.856 84.7019 15.728C84.6485 15.5947 84.6219 15.456 84.6219 15.312C84.6219 15.1627 84.6485 15.0213 84.7019 14.888C84.7605 14.7547 84.8379 14.64 84.9339 14.544C85.0352 14.4427 85.1499 14.3653 85.2779 14.312C85.4059 14.2533 85.5419 14.224 85.6859 14.224C85.8299 14.224 85.9685 14.2533 86.1019 14.312C86.2352 14.3653 86.3499 14.4427 86.4459 14.544C86.5472 14.64 86.6272 14.7547 86.6859 14.888C86.7445 15.0213 86.7739 15.1627 86.7739 15.312ZM90.4706 19C90.6466 18.8133 90.8306 18.6427 91.0226 18.488C91.2146 18.3333 91.4173 18.2027 91.6306 18.096C91.8493 17.984 92.0813 17.8987 92.3266 17.84C92.5773 17.776 92.844 17.744 93.1266 17.744C93.5746 17.744 93.9666 17.8187 94.3026 17.968C94.644 18.1173 94.9293 18.328 95.1586 18.6C95.388 18.8667 95.5613 19.1893 95.6786 19.568C95.796 19.9467 95.8546 20.3653 95.8546 20.824V26H94.2866V20.824C94.2866 20.2427 94.1533 19.792 93.8866 19.472C93.62 19.1467 93.212 18.984 92.6626 18.984C92.2626 18.984 91.8866 19.08 91.5346 19.272C91.188 19.4587 90.8653 19.7147 90.5666 20.04V26H89.0066V17.872H89.9426C90.1613 17.872 90.2973 17.976 90.3506 18.184L90.4706 19ZM101.136 21.944C101.413 21.944 101.656 21.9067 101.864 21.832C102.077 21.7573 102.253 21.6533 102.392 21.52C102.536 21.3813 102.642 21.216 102.712 21.024C102.786 20.832 102.824 20.6213 102.824 20.392C102.824 19.9227 102.68 19.5493 102.392 19.272C102.109 18.9893 101.69 18.848 101.136 18.848C100.586 18.848 100.168 18.9893 99.8797 19.272C99.5971 19.5493 99.4557 19.9227 99.4557 20.392C99.4557 20.6213 99.4904 20.832 99.5597 21.024C99.6344 21.2107 99.7411 21.3733 99.8797 21.512C100.024 21.6453 100.2 21.752 100.408 21.832C100.621 21.9067 100.864 21.944 101.136 21.944ZM103.624 26.424C103.624 26.232 103.57 26.08 103.464 25.968C103.357 25.8507 103.21 25.76 103.024 25.696C102.842 25.6267 102.629 25.5787 102.384 25.552C102.138 25.52 101.88 25.496 101.608 25.48C101.341 25.464 101.066 25.4507 100.784 25.44C100.501 25.424 100.229 25.3973 99.9677 25.36C99.6904 25.4987 99.4611 25.6667 99.2797 25.864C99.1037 26.0613 99.0157 26.2933 99.0157 26.56C99.0157 26.7307 99.0584 26.8907 99.1437 27.04C99.2344 27.1893 99.3704 27.3173 99.5517 27.424C99.7384 27.536 99.9704 27.6213 100.248 27.68C100.53 27.744 100.866 27.776 101.256 27.776C101.64 27.776 101.978 27.7413 102.272 27.672C102.565 27.608 102.81 27.5147 103.008 27.392C103.21 27.2747 103.362 27.1333 103.464 26.968C103.57 26.8027 103.624 26.6213 103.624 26.424ZM105.208 18.176V18.76C105.208 18.952 105.088 19.072 104.848 19.12L103.976 19.248C104.05 19.4133 104.109 19.5893 104.152 19.776C104.194 19.9573 104.216 20.1493 104.216 20.352C104.216 20.752 104.138 21.1147 103.984 21.44C103.829 21.76 103.616 22.0347 103.344 22.264C103.072 22.4933 102.746 22.6693 102.368 22.792C101.994 22.9147 101.584 22.976 101.136 22.976C100.768 22.976 100.424 22.936 100.104 22.856C99.9437 22.952 99.8211 23.0587 99.7357 23.176C99.6557 23.288 99.6157 23.4 99.6157 23.512C99.6157 23.6987 99.6931 23.8373 99.8477 23.928C100.008 24.0187 100.213 24.0853 100.464 24.128C100.72 24.1653 101.01 24.1893 101.336 24.2C101.666 24.2107 102 24.2293 102.336 24.256C102.677 24.2773 103.01 24.32 103.336 24.384C103.666 24.4427 103.957 24.5413 104.208 24.68C104.464 24.8133 104.669 25 104.824 25.24C104.984 25.4747 105.064 25.7813 105.064 26.16C105.064 26.512 104.976 26.8533 104.8 27.184C104.629 27.5147 104.378 27.808 104.048 28.064C103.717 28.32 103.314 28.5253 102.84 28.68C102.365 28.8347 101.826 28.912 101.224 28.912C100.621 28.912 100.096 28.8533 99.6477 28.736C99.2051 28.6187 98.8344 28.4613 98.5357 28.264C98.2424 28.0667 98.0211 27.8373 97.8717 27.576C97.7277 27.3147 97.6557 27.0427 97.6557 26.76C97.6557 26.3653 97.7784 26.032 98.0237 25.76C98.2691 25.4827 98.6077 25.2667 99.0397 25.112C98.8051 25.0053 98.6184 24.8613 98.4797 24.68C98.3411 24.4933 98.2717 24.248 98.2717 23.944C98.2717 23.8267 98.2931 23.7067 98.3357 23.584C98.3784 23.456 98.4424 23.3307 98.5277 23.208C98.6184 23.08 98.7277 22.96 98.8557 22.848C98.9891 22.736 99.1411 22.6347 99.3117 22.544C98.9117 22.32 98.5971 22.024 98.3677 21.656C98.1384 21.2827 98.0237 20.848 98.0237 20.352C98.0237 19.952 98.1011 19.592 98.2557 19.272C98.4104 18.952 98.6237 18.6773 98.8957 18.448C99.1731 18.2187 99.5011 18.0427 99.8797 17.92C100.264 17.7973 100.682 17.736 101.136 17.736C101.84 17.736 102.445 17.8827 102.952 18.176H105.208ZM107.663 26C107.519 26 107.386 25.9733 107.263 25.92C107.146 25.8667 107.042 25.7947 106.951 25.704C106.866 25.608 106.799 25.496 106.751 25.368C106.703 25.24 106.679 25.1013 106.679 24.952C106.679 24.824 106.703 24.704 106.751 24.592C106.799 24.4747 106.866 24.3733 106.951 24.288C107.042 24.2027 107.148 24.136 107.271 24.088C107.394 24.0347 107.53 24.008 107.679 24.008C107.85 24.008 107.999 24.04 108.127 24.104C108.26 24.1627 108.37 24.248 108.455 24.36C108.546 24.4667 108.612 24.592 108.655 24.736C108.698 24.88 108.719 25.0347 108.719 25.2C108.719 25.44 108.684 25.6933 108.615 25.96C108.546 26.2267 108.444 26.4907 108.311 26.752C108.178 27.0133 108.012 27.2667 107.815 27.512C107.618 27.7573 107.394 27.984 107.143 28.192L106.879 27.944C106.799 27.8693 106.759 27.7867 106.759 27.696C106.759 27.6587 106.77 27.6187 106.791 27.576C106.818 27.5387 106.85 27.5013 106.887 27.464C106.94 27.4053 107.01 27.328 107.095 27.232C107.18 27.136 107.263 27.024 107.343 26.896C107.428 26.7733 107.506 26.6347 107.575 26.48C107.65 26.3307 107.703 26.1707 107.735 26H107.663ZM117.334 15.896V19.744H121.942V21.128H117.334V26H115.622V14.512H122.742V15.896H117.334ZM126.27 17.872V26H124.71V17.872H126.27ZM126.566 15.36C126.566 15.504 126.537 15.6427 126.478 15.776C126.419 15.904 126.339 16.0187 126.238 16.12C126.142 16.216 126.027 16.2933 125.894 16.352C125.761 16.4053 125.622 16.432 125.478 16.432C125.334 16.432 125.198 16.4053 125.07 16.352C124.942 16.2933 124.827 16.216 124.726 16.12C124.63 16.0187 124.553 15.904 124.494 15.776C124.441 15.6427 124.414 15.504 124.414 15.36C124.414 15.2107 124.441 15.072 124.494 14.944C124.553 14.8107 124.63 14.696 124.726 14.6C124.827 14.4987 124.942 14.4213 125.07 14.368C125.198 14.3093 125.334 14.28 125.478 14.28C125.622 14.28 125.761 14.3093 125.894 14.368C126.027 14.4213 126.142 14.4987 126.238 14.6C126.339 14.696 126.419 14.8107 126.478 14.944C126.537 15.072 126.566 15.2107 126.566 15.36ZM130.313 19C130.489 18.8133 130.673 18.6427 130.865 18.488C131.057 18.3333 131.259 18.2027 131.473 18.096C131.691 17.984 131.923 17.8987 132.169 17.84C132.419 17.776 132.686 17.744 132.969 17.744C133.417 17.744 133.809 17.8187 134.145 17.968C134.486 18.1173 134.771 18.328 135.001 18.6C135.23 18.8667 135.403 19.1893 135.521 19.568C135.638 19.9467 135.697 20.3653 135.697 20.824V26H134.129V20.824C134.129 20.2427 133.995 19.792 133.729 19.472C133.462 19.1467 133.054 18.984 132.505 18.984C132.105 18.984 131.729 19.08 131.377 19.272C131.03 19.4587 130.707 19.7147 130.409 20.04V26H128.849V17.872H129.785C130.003 17.872 130.139 17.976 130.193 18.184L130.313 19ZM142.49 22.392C141.855 22.4133 141.316 22.464 140.874 22.544C140.431 22.6187 140.071 22.72 139.794 22.848C139.516 22.976 139.316 23.128 139.194 23.304C139.071 23.4747 139.01 23.6667 139.01 23.88C139.01 24.0827 139.042 24.2587 139.106 24.408C139.175 24.552 139.266 24.672 139.378 24.768C139.495 24.8587 139.631 24.9253 139.786 24.968C139.94 25.0107 140.108 25.032 140.29 25.032C140.53 25.032 140.748 25.008 140.946 24.96C141.148 24.912 141.338 24.8453 141.514 24.76C141.69 24.6693 141.858 24.56 142.018 24.432C142.178 24.304 142.335 24.1573 142.49 23.992V22.392ZM137.914 19.008C138.367 18.576 138.858 18.2533 139.386 18.04C139.919 17.8267 140.503 17.72 141.138 17.72C141.602 17.72 142.012 17.7973 142.37 17.952C142.727 18.1013 143.028 18.312 143.274 18.584C143.519 18.856 143.703 19.1813 143.826 19.56C143.954 19.9387 144.018 20.3573 144.018 20.816V26H143.322C143.167 26 143.05 25.976 142.97 25.928C142.89 25.8747 142.826 25.7787 142.778 25.64L142.61 24.928C142.402 25.12 142.196 25.2907 141.994 25.44C141.791 25.584 141.578 25.7093 141.354 25.816C141.135 25.9173 140.9 25.9947 140.65 26.048C140.399 26.1013 140.122 26.128 139.818 26.128C139.498 26.128 139.196 26.0853 138.914 26C138.636 25.9093 138.394 25.7733 138.186 25.592C137.978 25.4107 137.812 25.184 137.69 24.912C137.572 24.64 137.514 24.3227 137.514 23.96C137.514 23.64 137.599 23.3333 137.77 23.04C137.946 22.7413 138.228 22.4747 138.618 22.24C139.012 22.0053 139.524 21.8133 140.154 21.664C140.788 21.5147 141.567 21.4293 142.49 21.408V20.816C142.49 20.2027 142.359 19.744 142.098 19.44C141.836 19.136 141.452 18.984 140.946 18.984C140.604 18.984 140.316 19.0267 140.082 19.112C139.852 19.1973 139.652 19.2933 139.482 19.4C139.316 19.5013 139.17 19.5947 139.042 19.68C138.919 19.7653 138.791 19.808 138.658 19.808C138.551 19.808 138.458 19.7787 138.378 19.72C138.303 19.6613 138.242 19.592 138.194 19.512L137.914 19.008ZM147.89 19C148.066 18.8133 148.25 18.6427 148.442 18.488C148.634 18.3333 148.837 18.2027 149.05 18.096C149.269 17.984 149.501 17.8987 149.746 17.84C149.997 17.776 150.263 17.744 150.546 17.744C150.994 17.744 151.386 17.8187 151.722 17.968C152.063 18.1173 152.349 18.328 152.578 18.6C152.807 18.8667 152.981 19.1893 153.098 19.568C153.215 19.9467 153.274 20.3653 153.274 20.824V26H151.706V20.824C151.706 20.2427 151.573 19.792 151.306 19.472C151.039 19.1467 150.631 18.984 150.082 18.984C149.682 18.984 149.306 19.08 148.954 19.272C148.607 19.4587 148.285 19.7147 147.986 20.04V26H146.426V17.872H147.362C147.581 17.872 147.717 17.976 147.77 18.184L147.89 19ZM161.395 19.392C161.347 19.4507 161.299 19.4987 161.251 19.536C161.208 19.568 161.144 19.584 161.059 19.584C160.974 19.584 160.883 19.552 160.787 19.488C160.696 19.4187 160.579 19.3467 160.435 19.272C160.296 19.192 160.126 19.12 159.923 19.056C159.726 18.9867 159.48 18.952 159.187 18.952C158.803 18.952 158.464 19.0213 158.171 19.16C157.878 19.2987 157.632 19.496 157.435 19.752C157.243 20.008 157.096 20.32 156.995 20.688C156.894 21.056 156.843 21.4693 156.843 21.928C156.843 22.4027 156.896 22.8267 157.003 23.2C157.11 23.568 157.262 23.88 157.459 24.136C157.656 24.3867 157.896 24.5787 158.179 24.712C158.462 24.84 158.776 24.904 159.123 24.904C159.459 24.904 159.736 24.864 159.955 24.784C160.174 24.6987 160.355 24.608 160.499 24.512C160.643 24.416 160.763 24.328 160.859 24.248C160.955 24.1627 161.054 24.12 161.155 24.12C161.283 24.12 161.382 24.168 161.451 24.264L161.899 24.84C161.712 25.0693 161.502 25.264 161.267 25.424C161.038 25.584 160.792 25.7147 160.531 25.816C160.27 25.9173 159.995 25.992 159.707 26.04C159.424 26.088 159.136 26.112 158.843 26.112C158.336 26.112 157.862 26.0187 157.419 25.832C156.982 25.6453 156.6 25.3733 156.275 25.016C155.955 24.6587 155.702 24.2213 155.515 23.704C155.328 23.1813 155.235 22.5893 155.235 21.928C155.235 21.3253 155.318 20.768 155.483 20.256C155.654 19.744 155.902 19.304 156.227 18.936C156.558 18.5627 156.963 18.272 157.443 18.064C157.923 17.8507 158.472 17.744 159.091 17.744C159.672 17.744 160.184 17.8373 160.627 18.024C161.07 18.2107 161.464 18.4747 161.811 18.816L161.395 19.392ZM168.919 21.032C168.919 20.7227 168.873 20.4373 168.783 20.176C168.697 19.9147 168.569 19.688 168.399 19.496C168.228 19.304 168.02 19.1547 167.775 19.048C167.529 18.9413 167.247 18.888 166.927 18.888C166.271 18.888 165.753 19.0773 165.375 19.456C165.001 19.8347 164.764 20.36 164.663 21.032H168.919ZM170.207 24.84C170.015 25.064 169.793 25.2587 169.543 25.424C169.292 25.584 169.025 25.7147 168.743 25.816C168.46 25.9173 168.167 25.992 167.863 26.04C167.564 26.088 167.268 26.112 166.975 26.112C166.415 26.112 165.895 26.0187 165.415 25.832C164.94 25.64 164.527 25.3627 164.175 25C163.828 24.632 163.556 24.1787 163.359 23.64C163.167 23.096 163.071 22.472 163.071 21.768C163.071 21.2027 163.159 20.6773 163.335 20.192C163.511 19.7013 163.761 19.2747 164.087 18.912C164.417 18.5493 164.82 18.264 165.295 18.056C165.769 17.848 166.303 17.744 166.895 17.744C167.391 17.744 167.847 17.8267 168.263 17.992C168.684 18.152 169.047 18.3867 169.351 18.696C169.655 19.0053 169.892 19.3867 170.063 19.84C170.239 20.2933 170.327 20.8107 170.327 21.392C170.327 21.632 170.3 21.7947 170.247 21.88C170.193 21.96 170.095 22 169.951 22H164.623C164.639 22.4853 164.708 22.9093 164.831 23.272C164.953 23.6293 165.121 23.928 165.335 24.168C165.553 24.408 165.812 24.5867 166.111 24.704C166.409 24.8213 166.743 24.88 167.111 24.88C167.457 24.88 167.756 24.84 168.007 24.76C168.263 24.68 168.481 24.5947 168.663 24.504C168.849 24.408 169.004 24.32 169.127 24.24C169.255 24.16 169.367 24.12 169.463 24.12C169.591 24.12 169.689 24.168 169.759 24.264L170.207 24.84Z" fill="#3C3C6F"/>
<defs>
<filter id="filter0_b_450_5817" x="-30" y="-30" width="253" height="98" filterUnits="userSpaceOnUse" color-interpolation-filters="sRGB">
<feFlood flood-opacity="0" result="BackgroundImageFix"/>
<feGaussianBlur in="BackgroundImageFix" stdDeviation="15"/>
<feComposite in2="SourceAlpha" operator="in" result="effect1_backgroundBlur_450_5817"/>
<feBlend mode="normal" in="SourceGraphic" in2="effect1_backgroundBlur_450_5817" result="shape"/>
</filter>
<linearGradient id="paint0_linear_450_5817" x1="13.6262" y1="-6.09434" x2="86.6611" y2="7.31482" gradientUnits="userSpaceOnUse">
<stop stop-color="white"/>
<stop offset="1" stop-color="white" stop-opacity="0"/>
</linearGradient>
</defs>
</svg>
