<svg width="213" height="38" viewBox="0 0 213 38" fill="none" xmlns="http://www.w3.org/2000/svg">
<g filter="url(#filter0_b_450_5776)">
<path d="M0 19C0 8.50659 8.50659 0 19 0H194C204.493 0 213 8.50659 213 19C213 29.4934 204.493 38 194 38H19C8.50659 38 0 29.4934 0 19Z" fill="white" fill-opacity="0.6"/>
<path d="M1 19C1 9.05888 9.05888 1 19 1H194C203.941 1 212 9.05888 212 19C212 28.9411 203.941 37 194 37H19C9.05887 37 1 28.9411 1 19Z" stroke="url(#paint0_linear_450_5776)" stroke-opacity="0.9" stroke-width="2"/>
</g>
<path d="M33.5309 16.384C33.4776 16.4747 33.4216 16.5413 33.3629 16.584C33.3043 16.6267 33.2296 16.648 33.1389 16.648C33.0429 16.648 32.9336 16.6053 32.8109 16.52C32.6883 16.4293 32.5336 16.3307 32.3469 16.224C32.1656 16.112 31.9469 16.0133 31.6909 15.928C31.4349 15.8373 31.1283 15.792 30.7709 15.792C30.4349 15.792 30.1389 15.8373 29.8829 15.928C29.6323 16.0133 29.4216 16.1333 29.2509 16.288C29.0803 16.4373 28.9496 16.616 28.8589 16.824C28.7736 17.0267 28.7309 17.248 28.7309 17.488C28.7309 17.7973 28.8083 18.0533 28.9629 18.256C29.1229 18.4587 29.3309 18.632 29.5869 18.776C29.8429 18.92 30.1336 19.0453 30.4589 19.152C30.7843 19.2587 31.1176 19.3707 31.4589 19.488C31.8003 19.6 32.1336 19.7307 32.4589 19.88C32.7843 20.0293 33.0749 20.2187 33.3309 20.448C33.5869 20.672 33.7923 20.9493 33.9469 21.28C34.1069 21.6053 34.1869 22.0053 34.1869 22.48C34.1869 22.9867 34.0989 23.4613 33.9229 23.904C33.7523 24.3467 33.5016 24.7333 33.1709 25.064C32.8403 25.3947 32.4323 25.656 31.9469 25.848C31.4669 26.0347 30.9203 26.128 30.3069 26.128C29.9389 26.128 29.5816 26.0907 29.2349 26.016C28.8883 25.9467 28.5603 25.848 28.2509 25.72C27.9416 25.5867 27.6509 25.4293 27.3789 25.248C27.1123 25.0613 26.8723 24.8533 26.6589 24.624L27.1469 23.808C27.1949 23.744 27.2509 23.6907 27.3149 23.648C27.3843 23.6053 27.4616 23.584 27.5469 23.584C27.6589 23.584 27.7869 23.6427 27.9309 23.76C28.0803 23.8773 28.2616 24.008 28.4749 24.152C28.6936 24.2907 28.9523 24.4187 29.2509 24.536C29.5549 24.6533 29.9229 24.712 30.3549 24.712C30.7069 24.712 31.0216 24.6667 31.2989 24.576C31.5763 24.48 31.8083 24.3467 31.9949 24.176C32.1869 24 32.3336 23.7893 32.4349 23.544C32.5363 23.2987 32.5869 23.0267 32.5869 22.728C32.5869 22.392 32.5096 22.1173 32.3549 21.904C32.2003 21.6907 31.9949 21.512 31.7389 21.368C31.4829 21.224 31.1923 21.1013 30.8669 21C30.5416 20.8987 30.2083 20.7947 29.8669 20.688C29.5256 20.576 29.1923 20.448 28.8669 20.304C28.5416 20.16 28.2509 19.9733 27.9949 19.744C27.7389 19.5093 27.5336 19.2187 27.3789 18.872C27.2243 18.52 27.1469 18.088 27.1469 17.576C27.1469 17.1653 27.2269 16.768 27.3869 16.384C27.5469 16 27.7789 15.6613 28.0829 15.368C28.3923 15.0693 28.7709 14.832 29.2189 14.656C29.6669 14.4747 30.1789 14.384 30.7549 14.384C31.4003 14.384 31.9923 14.488 32.5309 14.696C33.0749 14.8987 33.5469 15.192 33.9469 15.576L33.5309 16.384ZM36.1182 26V17.872H37.0542C37.2729 17.872 37.4089 17.976 37.4622 18.184L37.5742 18.96C37.8729 18.6027 38.2035 18.312 38.5662 18.088C38.9342 17.8587 39.3635 17.744 39.8542 17.744C40.3929 17.744 40.8302 17.8933 41.1662 18.192C41.5022 18.4853 41.7475 18.8853 41.9022 19.392C42.0195 19.104 42.1715 18.856 42.3582 18.648C42.5449 18.44 42.7529 18.2693 42.9822 18.136C43.2115 18.0027 43.4542 17.904 43.7102 17.84C43.9715 17.776 44.2355 17.744 44.5022 17.744C44.9342 17.744 45.3182 17.8133 45.6542 17.952C45.9955 18.0853 46.2835 18.2827 46.5182 18.544C46.7529 18.8053 46.9315 19.128 47.0542 19.512C47.1769 19.896 47.2382 20.3333 47.2382 20.824V26H45.6702V20.824C45.6702 20.216 45.5369 19.7573 45.2702 19.448C45.0089 19.1387 44.6249 18.984 44.1182 18.984C43.8942 18.984 43.6809 19.024 43.4782 19.104C43.2755 19.1787 43.0969 19.2933 42.9422 19.448C42.7929 19.6027 42.6729 19.7947 42.5822 20.024C42.4969 20.2533 42.4542 20.52 42.4542 20.824V26H40.8862V20.824C40.8862 20.1947 40.7609 19.7307 40.5102 19.432C40.2595 19.1333 39.8915 18.984 39.4062 18.984C39.0702 18.984 38.7582 19.072 38.4702 19.248C38.1822 19.424 37.9182 19.664 37.6782 19.968V26H36.1182ZM54.0249 22.392C53.3903 22.4133 52.8516 22.464 52.4089 22.544C51.9663 22.6187 51.6063 22.72 51.3289 22.848C51.0516 22.976 50.8516 23.128 50.7289 23.304C50.6063 23.4747 50.5449 23.6667 50.5449 23.88C50.5449 24.0827 50.5769 24.2587 50.6409 24.408C50.7103 24.552 50.8009 24.672 50.9129 24.768C51.0303 24.8587 51.1663 24.9253 51.3209 24.968C51.4756 25.0107 51.6436 25.032 51.8249 25.032C52.0649 25.032 52.2836 25.008 52.4809 24.96C52.6836 24.912 52.8729 24.8453 53.0489 24.76C53.2249 24.6693 53.3929 24.56 53.5529 24.432C53.7129 24.304 53.8703 24.1573 54.0249 23.992V22.392ZM49.4489 19.008C49.9023 18.576 50.3929 18.2533 50.9209 18.04C51.4543 17.8267 52.0383 17.72 52.6729 17.72C53.1369 17.72 53.5476 17.7973 53.9049 17.952C54.2623 18.1013 54.5636 18.312 54.8089 18.584C55.0543 18.856 55.2383 19.1813 55.3609 19.56C55.4889 19.9387 55.5529 20.3573 55.5529 20.816V26H54.8569C54.7023 26 54.5849 25.976 54.5049 25.928C54.4249 25.8747 54.3609 25.7787 54.3129 25.64L54.1449 24.928C53.9369 25.12 53.7316 25.2907 53.5289 25.44C53.3263 25.584 53.1129 25.7093 52.8889 25.816C52.6703 25.9173 52.4356 25.9947 52.1849 26.048C51.9343 26.1013 51.6569 26.128 51.3529 26.128C51.0329 26.128 50.7316 26.0853 50.4489 26C50.1716 25.9093 49.9289 25.7733 49.7209 25.592C49.5129 25.4107 49.3476 25.184 49.2249 24.912C49.1076 24.64 49.0489 24.3227 49.0489 23.96C49.0489 23.64 49.1343 23.3333 49.3049 23.04C49.4809 22.7413 49.7636 22.4747 50.1529 22.24C50.5476 22.0053 51.0596 21.8133 51.6889 21.664C52.3236 21.5147 53.1023 21.4293 54.0249 21.408V20.816C54.0249 20.2027 53.8943 19.744 53.6329 19.44C53.3716 19.136 52.9876 18.984 52.4809 18.984C52.1396 18.984 51.8516 19.0267 51.6169 19.112C51.3876 19.1973 51.1876 19.2933 51.0169 19.4C50.8516 19.5013 50.7049 19.5947 50.5769 19.68C50.4543 19.7653 50.3263 19.808 50.1929 19.808C50.0863 19.808 49.9929 19.7787 49.9129 19.72C49.8383 19.6613 49.7769 19.592 49.7289 19.512L49.4489 19.008ZM59.5613 14.192V26H57.9933V14.192H59.5613ZM63.7094 14.192V26H62.1414V14.192H63.7094ZM75.0484 24.648C75.4804 24.648 75.8484 24.5973 76.1524 24.496C76.4618 24.3947 76.7124 24.256 76.9044 24.08C77.1018 23.904 77.2458 23.696 77.3364 23.456C77.4271 23.2107 77.4724 22.944 77.4724 22.656C77.4724 22.0853 77.2751 21.6373 76.8804 21.312C76.4858 20.9813 75.8751 20.816 75.0484 20.816H72.6484V24.648H75.0484ZM72.6484 15.848V19.608H74.6084C75.4458 19.608 76.0671 19.44 76.4724 19.104C76.8831 18.7627 77.0884 18.304 77.0884 17.728C77.0884 17.072 76.8938 16.5947 76.5044 16.296C76.1151 15.9973 75.5098 15.848 74.6884 15.848H72.6484ZM74.6884 14.512C75.4084 14.512 76.0244 14.5813 76.5364 14.72C77.0538 14.8587 77.4778 15.0587 77.8084 15.32C78.1391 15.5813 78.3818 15.8987 78.5364 16.272C78.6964 16.64 78.7764 17.0587 78.7764 17.528C78.7764 17.8053 78.7338 18.072 78.6484 18.328C78.5631 18.584 78.4324 18.824 78.2564 19.048C78.0804 19.2667 77.8591 19.464 77.5924 19.64C77.3258 19.816 77.0111 19.9627 76.6484 20.08C78.3178 20.4107 79.1524 21.2827 79.1524 22.696C79.1524 23.1867 79.0618 23.6347 78.8804 24.04C78.6991 24.44 78.4351 24.7867 78.0884 25.08C77.7418 25.3733 77.3151 25.6 76.8084 25.76C76.3018 25.92 75.7258 26 75.0804 26H70.9444V14.512H74.6884ZM87.9388 17.872V26H87.0028C86.7895 26 86.6508 25.896 86.5868 25.688L86.4748 24.872C86.2988 25.0587 86.1148 25.2293 85.9228 25.384C85.7308 25.5387 85.5255 25.672 85.3068 25.784C85.0881 25.8907 84.8561 25.9733 84.6108 26.032C84.3655 26.096 84.1015 26.128 83.8188 26.128C83.3708 26.128 82.9761 26.0533 82.6348 25.904C82.2988 25.7547 82.0161 25.5467 81.7868 25.28C81.5575 25.008 81.3841 24.6827 81.2668 24.304C81.1495 23.9253 81.0908 23.5067 81.0908 23.048V17.872H82.6588V23.048C82.6588 23.6293 82.7921 24.0827 83.0588 24.408C83.3255 24.728 83.7335 24.888 84.2828 24.888C84.6828 24.888 85.0561 24.7947 85.4028 24.608C85.7495 24.416 86.0748 24.1547 86.3788 23.824V17.872H87.9388ZM95.2283 19.272C95.1856 19.3413 95.1403 19.392 95.0923 19.424C95.0443 19.4507 94.983 19.464 94.9083 19.464C94.823 19.464 94.727 19.4347 94.6203 19.376C94.519 19.3173 94.3936 19.2533 94.2443 19.184C94.1003 19.1147 93.9296 19.0507 93.7323 18.992C93.535 18.9333 93.3003 18.904 93.0283 18.904C92.8043 18.904 92.599 18.9333 92.4123 18.992C92.231 19.0453 92.0763 19.1227 91.9483 19.224C91.8203 19.32 91.7216 19.4373 91.6523 19.576C91.583 19.7093 91.5483 19.8533 91.5483 20.008C91.5483 20.2107 91.607 20.3787 91.7243 20.512C91.847 20.6453 92.0043 20.76 92.1963 20.856C92.3936 20.952 92.615 21.04 92.8603 21.12C93.111 21.1947 93.3643 21.2747 93.6203 21.36C93.8816 21.4453 94.135 21.544 94.3803 21.656C94.631 21.7627 94.8523 21.8987 95.0443 22.064C95.2416 22.224 95.399 22.4187 95.5163 22.648C95.639 22.8773 95.7003 23.1573 95.7003 23.488C95.7003 23.8667 95.631 24.2187 95.4923 24.544C95.359 24.864 95.159 25.1413 94.8923 25.376C94.631 25.6107 94.3056 25.7947 93.9163 25.928C93.527 26.0613 93.0816 26.128 92.5803 26.128C92.0203 26.128 91.503 26.0347 91.0283 25.848C90.5536 25.6613 90.1563 25.424 89.8363 25.136L90.2043 24.536C90.247 24.4613 90.3003 24.4053 90.3643 24.368C90.4283 24.3253 90.5136 24.304 90.6203 24.304C90.7216 24.304 90.8256 24.3413 90.9323 24.416C91.039 24.4907 91.167 24.5733 91.3163 24.664C91.4656 24.7493 91.647 24.8293 91.8603 24.904C92.0736 24.9733 92.3403 25.008 92.6603 25.008C92.927 25.008 93.159 24.976 93.3563 24.912C93.5536 24.8427 93.7163 24.752 93.8443 24.64C93.9776 24.5227 94.0763 24.3893 94.1403 24.24C94.2043 24.0907 94.2363 23.9333 94.2363 23.768C94.2363 23.5547 94.175 23.3787 94.0523 23.24C93.935 23.096 93.7776 22.9733 93.5803 22.872C93.3883 22.7707 93.167 22.6827 92.9163 22.608C92.6656 22.5333 92.4096 22.4533 92.1483 22.368C91.887 22.2827 91.631 22.184 91.3803 22.072C91.1296 21.96 90.9056 21.8187 90.7083 21.648C90.5163 21.4773 90.359 21.2693 90.2363 21.024C90.119 20.7787 90.0603 20.48 90.0603 20.128C90.0603 19.8133 90.1243 19.512 90.2523 19.224C90.3856 18.936 90.575 18.6827 90.8203 18.464C91.071 18.2453 91.3776 18.072 91.7403 17.944C92.1083 17.8107 92.527 17.744 92.9963 17.744C93.535 17.744 94.0203 17.8293 94.4523 18C94.8896 18.1707 95.263 18.4053 95.5723 18.704L95.2283 19.272ZM99.3414 17.872V26H97.7814V17.872H99.3414ZM99.6374 15.36C99.6374 15.504 99.6081 15.6427 99.5494 15.776C99.4908 15.904 99.4108 16.0187 99.3094 16.12C99.2134 16.216 99.0988 16.2933 98.9654 16.352C98.8321 16.4053 98.6934 16.432 98.5494 16.432C98.4054 16.432 98.2694 16.4053 98.1414 16.352C98.0134 16.2933 97.8988 16.216 97.7974 16.12C97.7014 16.0187 97.6241 15.904 97.5654 15.776C97.5121 15.6427 97.4854 15.504 97.4854 15.36C97.4854 15.2107 97.5121 15.072 97.5654 14.944C97.6241 14.8107 97.7014 14.696 97.7974 14.6C97.8988 14.4987 98.0134 14.4213 98.1414 14.368C98.2694 14.3093 98.4054 14.28 98.5494 14.28C98.6934 14.28 98.8321 14.3093 98.9654 14.368C99.0988 14.4213 99.2134 14.4987 99.3094 14.6C99.4108 14.696 99.4908 14.8107 99.5494 14.944C99.6081 15.072 99.6374 15.2107 99.6374 15.36ZM103.384 19C103.56 18.8133 103.744 18.6427 103.936 18.488C104.128 18.3333 104.331 18.2027 104.544 18.096C104.763 17.984 104.995 17.8987 105.24 17.84C105.491 17.776 105.757 17.744 106.04 17.744C106.488 17.744 106.88 17.8187 107.216 17.968C107.557 18.1173 107.843 18.328 108.072 18.6C108.301 18.8667 108.475 19.1893 108.592 19.568C108.709 19.9467 108.768 20.3653 108.768 20.824V26H107.2V20.824C107.2 20.2427 107.067 19.792 106.8 19.472C106.533 19.1467 106.125 18.984 105.576 18.984C105.176 18.984 104.8 19.08 104.448 19.272C104.101 19.4587 103.779 19.7147 103.48 20.04V26H101.92V17.872H102.856C103.075 17.872 103.211 17.976 103.264 18.184L103.384 19ZM116.577 21.032C116.577 20.7227 116.532 20.4373 116.441 20.176C116.356 19.9147 116.228 19.688 116.057 19.496C115.887 19.304 115.679 19.1547 115.433 19.048C115.188 18.9413 114.905 18.888 114.585 18.888C113.929 18.888 113.412 19.0773 113.033 19.456C112.66 19.8347 112.423 20.36 112.321 21.032H116.577ZM117.865 24.84C117.673 25.064 117.452 25.2587 117.201 25.424C116.951 25.584 116.684 25.7147 116.401 25.816C116.119 25.9173 115.825 25.992 115.521 26.04C115.223 26.088 114.927 26.112 114.633 26.112C114.073 26.112 113.553 26.0187 113.073 25.832C112.599 25.64 112.185 25.3627 111.833 25C111.487 24.632 111.215 24.1787 111.017 23.64C110.825 23.096 110.729 22.472 110.729 21.768C110.729 21.2027 110.817 20.6773 110.993 20.192C111.169 19.7013 111.42 19.2747 111.745 18.912C112.076 18.5493 112.479 18.264 112.953 18.056C113.428 17.848 113.961 17.744 114.553 17.744C115.049 17.744 115.505 17.8267 115.921 17.992C116.343 18.152 116.705 18.3867 117.009 18.696C117.313 19.0053 117.551 19.3867 117.721 19.84C117.897 20.2933 117.985 20.8107 117.985 21.392C117.985 21.632 117.959 21.7947 117.905 21.88C117.852 21.96 117.753 22 117.609 22H112.281C112.297 22.4853 112.367 22.9093 112.489 23.272C112.612 23.6293 112.78 23.928 112.993 24.168C113.212 24.408 113.471 24.5867 113.769 24.704C114.068 24.8213 114.401 24.88 114.769 24.88C115.116 24.88 115.415 24.84 115.665 24.76C115.921 24.68 116.14 24.5947 116.321 24.504C116.508 24.408 116.663 24.32 116.785 24.24C116.913 24.16 117.025 24.12 117.121 24.12C117.249 24.12 117.348 24.168 117.417 24.264L117.865 24.84ZM124.774 19.272C124.731 19.3413 124.686 19.392 124.638 19.424C124.59 19.4507 124.529 19.464 124.454 19.464C124.369 19.464 124.273 19.4347 124.166 19.376C124.065 19.3173 123.939 19.2533 123.79 19.184C123.646 19.1147 123.475 19.0507 123.278 18.992C123.081 18.9333 122.846 18.904 122.574 18.904C122.35 18.904 122.145 18.9333 121.958 18.992C121.777 19.0453 121.622 19.1227 121.494 19.224C121.366 19.32 121.267 19.4373 121.198 19.576C121.129 19.7093 121.094 19.8533 121.094 20.008C121.094 20.2107 121.153 20.3787 121.27 20.512C121.393 20.6453 121.55 20.76 121.742 20.856C121.939 20.952 122.161 21.04 122.406 21.12C122.657 21.1947 122.91 21.2747 123.166 21.36C123.427 21.4453 123.681 21.544 123.926 21.656C124.177 21.7627 124.398 21.8987 124.59 22.064C124.787 22.224 124.945 22.4187 125.062 22.648C125.185 22.8773 125.246 23.1573 125.246 23.488C125.246 23.8667 125.177 24.2187 125.038 24.544C124.905 24.864 124.705 25.1413 124.438 25.376C124.177 25.6107 123.851 25.7947 123.462 25.928C123.073 26.0613 122.627 26.128 122.126 26.128C121.566 26.128 121.049 26.0347 120.574 25.848C120.099 25.6613 119.702 25.424 119.382 25.136L119.75 24.536C119.793 24.4613 119.846 24.4053 119.91 24.368C119.974 24.3253 120.059 24.304 120.166 24.304C120.267 24.304 120.371 24.3413 120.478 24.416C120.585 24.4907 120.713 24.5733 120.862 24.664C121.011 24.7493 121.193 24.8293 121.406 24.904C121.619 24.9733 121.886 25.008 122.206 25.008C122.473 25.008 122.705 24.976 122.902 24.912C123.099 24.8427 123.262 24.752 123.39 24.64C123.523 24.5227 123.622 24.3893 123.686 24.24C123.75 24.0907 123.782 23.9333 123.782 23.768C123.782 23.5547 123.721 23.3787 123.598 23.24C123.481 23.096 123.323 22.9733 123.126 22.872C122.934 22.7707 122.713 22.6827 122.462 22.608C122.211 22.5333 121.955 22.4533 121.694 22.368C121.433 22.2827 121.177 22.184 120.926 22.072C120.675 21.96 120.451 21.8187 120.254 21.648C120.062 21.4773 119.905 21.2693 119.782 21.024C119.665 20.7787 119.606 20.48 119.606 20.128C119.606 19.8133 119.67 19.512 119.798 19.224C119.931 18.936 120.121 18.6827 120.366 18.464C120.617 18.2453 120.923 18.072 121.286 17.944C121.654 17.8107 122.073 17.744 122.542 17.744C123.081 17.744 123.566 17.8293 123.998 18C124.435 18.1707 124.809 18.4053 125.118 18.704L124.774 19.272ZM132.047 19.272C132.004 19.3413 131.959 19.392 131.911 19.424C131.863 19.4507 131.802 19.464 131.727 19.464C131.642 19.464 131.546 19.4347 131.439 19.376C131.338 19.3173 131.212 19.2533 131.063 19.184C130.919 19.1147 130.748 19.0507 130.551 18.992C130.354 18.9333 130.119 18.904 129.847 18.904C129.623 18.904 129.418 18.9333 129.231 18.992C129.05 19.0453 128.895 19.1227 128.767 19.224C128.639 19.32 128.54 19.4373 128.471 19.576C128.402 19.7093 128.367 19.8533 128.367 20.008C128.367 20.2107 128.426 20.3787 128.543 20.512C128.666 20.6453 128.823 20.76 129.015 20.856C129.212 20.952 129.434 21.04 129.679 21.12C129.93 21.1947 130.183 21.2747 130.439 21.36C130.7 21.4453 130.954 21.544 131.199 21.656C131.45 21.7627 131.671 21.8987 131.863 22.064C132.06 22.224 132.218 22.4187 132.335 22.648C132.458 22.8773 132.519 23.1573 132.519 23.488C132.519 23.8667 132.45 24.2187 132.311 24.544C132.178 24.864 131.978 25.1413 131.711 25.376C131.45 25.6107 131.124 25.7947 130.735 25.928C130.346 26.0613 129.9 26.128 129.399 26.128C128.839 26.128 128.322 26.0347 127.847 25.848C127.372 25.6613 126.975 25.424 126.655 25.136L127.023 24.536C127.066 24.4613 127.119 24.4053 127.183 24.368C127.247 24.3253 127.332 24.304 127.439 24.304C127.54 24.304 127.644 24.3413 127.751 24.416C127.858 24.4907 127.986 24.5733 128.135 24.664C128.284 24.7493 128.466 24.8293 128.679 24.904C128.892 24.9733 129.159 25.008 129.479 25.008C129.746 25.008 129.978 24.976 130.175 24.912C130.372 24.8427 130.535 24.752 130.663 24.64C130.796 24.5227 130.895 24.3893 130.959 24.24C131.023 24.0907 131.055 23.9333 131.055 23.768C131.055 23.5547 130.994 23.3787 130.871 23.24C130.754 23.096 130.596 22.9733 130.399 22.872C130.207 22.7707 129.986 22.6827 129.735 22.608C129.484 22.5333 129.228 22.4533 128.967 22.368C128.706 22.2827 128.45 22.184 128.199 22.072C127.948 21.96 127.724 21.8187 127.527 21.648C127.335 21.4773 127.178 21.2693 127.055 21.024C126.938 20.7787 126.879 20.48 126.879 20.128C126.879 19.8133 126.943 19.512 127.071 19.224C127.204 18.936 127.394 18.6827 127.639 18.464C127.89 18.2453 128.196 18.072 128.559 17.944C128.927 17.8107 129.346 17.744 129.815 17.744C130.354 17.744 130.839 17.8293 131.271 18C131.708 18.1707 132.082 18.4053 132.391 18.704L132.047 19.272ZM149.919 20.256C149.919 21.1147 149.78 21.904 149.503 22.624C149.231 23.3387 148.844 23.9573 148.343 24.48C147.842 24.9973 147.242 25.4 146.543 25.688C145.844 25.976 145.068 26.12 144.215 26.12C143.367 26.12 142.591 25.976 141.887 25.688C141.188 25.4 140.588 24.9973 140.087 24.48C139.591 23.9573 139.204 23.3387 138.927 22.624C138.65 21.904 138.511 21.1147 138.511 20.256C138.511 19.4027 138.65 18.616 138.927 17.896C139.204 17.176 139.591 16.5573 140.087 16.04C140.588 15.5173 141.188 15.112 141.887 14.824C142.591 14.5307 143.367 14.384 144.215 14.384C145.068 14.384 145.844 14.5307 146.543 14.824C147.242 15.112 147.842 15.5173 148.343 16.04C148.844 16.5573 149.231 17.176 149.503 17.896C149.78 18.616 149.919 19.4027 149.919 20.256ZM148.175 20.256C148.175 19.5733 148.082 18.96 147.895 18.416C147.708 17.872 147.442 17.4107 147.095 17.032C146.754 16.6533 146.338 16.3627 145.847 16.16C145.362 15.9573 144.818 15.856 144.215 15.856C143.612 15.856 143.066 15.9573 142.575 16.16C142.09 16.3627 141.674 16.6533 141.327 17.032C140.98 17.4107 140.714 17.872 140.527 18.416C140.34 18.96 140.247 19.5733 140.247 20.256C140.247 20.944 140.34 21.56 140.527 22.104C140.714 22.6427 140.98 23.1013 141.327 23.48C141.674 23.8587 142.09 24.1493 142.575 24.352C143.066 24.5493 143.612 24.648 144.215 24.648C144.818 24.648 145.362 24.5493 145.847 24.352C146.338 24.1493 146.754 23.8587 147.095 23.48C147.442 23.1013 147.708 22.6427 147.895 22.104C148.082 21.56 148.175 20.944 148.175 20.256ZM163.363 17.872L160.747 26H159.499C159.349 26 159.248 25.9013 159.195 25.704L157.483 20.408C157.44 20.2747 157.403 20.144 157.371 20.016C157.339 19.8827 157.309 19.7493 157.283 19.616C157.235 19.8933 157.168 20.1627 157.083 20.424L155.347 25.704C155.293 25.9013 155.179 26 155.003 26H153.819L151.195 17.872H152.427C152.549 17.872 152.651 17.9013 152.731 17.96C152.816 18.0187 152.872 18.0933 152.899 18.184L154.363 23.176C154.411 23.3787 154.453 23.576 154.491 23.768C154.528 23.96 154.563 24.152 154.595 24.344C154.643 24.152 154.693 23.96 154.747 23.768C154.805 23.576 154.864 23.3787 154.923 23.176L156.547 18.152C156.573 18.0613 156.624 17.9893 156.699 17.936C156.773 17.8773 156.864 17.848 156.971 17.848H157.651C157.768 17.848 157.864 17.8773 157.939 17.936C158.019 17.9893 158.072 18.0613 158.099 18.152L159.683 23.176C159.741 23.3787 159.797 23.5787 159.851 23.776C159.904 23.968 159.952 24.1627 159.995 24.36C160.027 24.168 160.064 23.976 160.107 23.784C160.149 23.5867 160.197 23.384 160.251 23.176L161.739 18.184C161.765 18.0933 161.819 18.0187 161.899 17.96C161.984 17.9013 162.08 17.872 162.187 17.872H163.363ZM166.468 19C166.644 18.8133 166.828 18.6427 167.02 18.488C167.212 18.3333 167.414 18.2027 167.628 18.096C167.846 17.984 168.078 17.8987 168.324 17.84C168.574 17.776 168.841 17.744 169.124 17.744C169.572 17.744 169.964 17.8187 170.3 17.968C170.641 18.1173 170.926 18.328 171.156 18.6C171.385 18.8667 171.558 19.1893 171.676 19.568C171.793 19.9467 171.852 20.3653 171.852 20.824V26H170.284V20.824C170.284 20.2427 170.15 19.792 169.884 19.472C169.617 19.1467 169.209 18.984 168.66 18.984C168.26 18.984 167.884 19.08 167.532 19.272C167.185 19.4587 166.862 19.7147 166.564 20.04V26H165.004V17.872H165.94C166.158 17.872 166.294 17.976 166.348 18.184L166.468 19ZM179.661 21.032C179.661 20.7227 179.616 20.4373 179.525 20.176C179.44 19.9147 179.312 19.688 179.141 19.496C178.97 19.304 178.762 19.1547 178.517 19.048C178.272 18.9413 177.989 18.888 177.669 18.888C177.013 18.888 176.496 19.0773 176.117 19.456C175.744 19.8347 175.506 20.36 175.405 21.032H179.661ZM180.949 24.84C180.757 25.064 180.536 25.2587 180.285 25.424C180.034 25.584 179.768 25.7147 179.485 25.816C179.202 25.9173 178.909 25.992 178.605 26.04C178.306 26.088 178.01 26.112 177.717 26.112C177.157 26.112 176.637 26.0187 176.157 25.832C175.682 25.64 175.269 25.3627 174.917 25C174.57 24.632 174.298 24.1787 174.101 23.64C173.909 23.096 173.813 22.472 173.813 21.768C173.813 21.2027 173.901 20.6773 174.077 20.192C174.253 19.7013 174.504 19.2747 174.829 18.912C175.16 18.5493 175.562 18.264 176.037 18.056C176.512 17.848 177.045 17.744 177.637 17.744C178.133 17.744 178.589 17.8267 179.005 17.992C179.426 18.152 179.789 18.3867 180.093 18.696C180.397 19.0053 180.634 19.3867 180.805 19.84C180.981 20.2933 181.069 20.8107 181.069 21.392C181.069 21.632 181.042 21.7947 180.989 21.88C180.936 21.96 180.837 22 180.693 22H175.365C175.381 22.4853 175.45 22.9093 175.573 23.272C175.696 23.6293 175.864 23.928 176.077 24.168C176.296 24.408 176.554 24.5867 176.853 24.704C177.152 24.8213 177.485 24.88 177.853 24.88C178.2 24.88 178.498 24.84 178.749 24.76C179.005 24.68 179.224 24.5947 179.405 24.504C179.592 24.408 179.746 24.32 179.869 24.24C179.997 24.16 180.109 24.12 180.205 24.12C180.333 24.12 180.432 24.168 180.501 24.264L180.949 24.84ZM184.538 19.432C184.799 18.8987 185.114 18.48 185.482 18.176C185.85 17.872 186.292 17.72 186.81 17.72C186.986 17.72 187.151 17.7413 187.306 17.784C187.466 17.8213 187.604 17.88 187.722 17.96L187.618 19.136C187.58 19.28 187.492 19.352 187.354 19.352C187.279 19.352 187.167 19.3387 187.018 19.312C186.868 19.28 186.708 19.264 186.538 19.264C186.287 19.264 186.066 19.3013 185.874 19.376C185.682 19.4453 185.508 19.552 185.354 19.696C185.204 19.8347 185.071 20.008 184.954 20.216C184.836 20.4187 184.727 20.6507 184.626 20.912V26H183.066V17.872H183.962C184.132 17.872 184.247 17.904 184.306 17.968C184.37 18.0267 184.415 18.1333 184.442 18.288L184.538 19.432Z" fill="#3C3C6F"/>
<defs>
<filter id="filter0_b_450_5776" x="-30" y="-30" width="273" height="98" filterUnits="userSpaceOnUse" color-interpolation-filters="sRGB">
<feFlood flood-opacity="0" result="BackgroundImageFix"/>
<feGaussianBlur in="BackgroundImageFix" stdDeviation="15"/>
<feComposite in2="SourceAlpha" operator="in" result="effect1_backgroundBlur_450_5776"/>
<feBlend mode="normal" in="SourceGraphic" in2="effect1_backgroundBlur_450_5776" result="shape"/>
</filter>
<linearGradient id="paint0_linear_450_5776" x1="15.0382" y1="-6.09434" x2="95.0726" y2="10.1226" gradientUnits="userSpaceOnUse">
<stop stop-color="white"/>
<stop offset="1" stop-color="white" stop-opacity="0"/>
</linearGradient>
</defs>
</svg>
