<svg width="171" height="38" viewBox="0 0 171 38" fill="none" xmlns="http://www.w3.org/2000/svg">
<g filter="url(#filter0_b_450_5782)">
<path d="M0 19C0 8.50659 8.50659 0 19 0H152C162.493 0 171 8.50659 171 19C171 29.4934 162.493 38 152 38H19C8.50659 38 0 29.4934 0 19Z" fill="white" fill-opacity="0.6"/>
<path d="M1 19C1 9.05888 9.05888 1 19 1H152C161.941 1 170 9.05888 170 19C170 28.9411 161.941 37 152 37H19C9.05887 37 1 28.9411 1 19Z" stroke="url(#paint0_linear_450_5782)" stroke-opacity="0.9" stroke-width="2"/>
</g>
<path d="M31.3711 14.512L26.6991 26H25.1711L20.4991 14.512H21.8591C22.0085 14.512 22.1285 14.5493 22.2191 14.624C22.3151 14.6987 22.3871 14.7947 22.4351 14.912L25.5391 22.72C25.6138 22.912 25.6858 23.1227 25.7551 23.352C25.8298 23.5813 25.8965 23.8213 25.9551 24.072C26.0085 23.8213 26.0671 23.5813 26.1311 23.352C26.1951 23.1227 26.2645 22.912 26.3391 22.72L29.4351 14.912C29.4725 14.8053 29.5391 14.712 29.6351 14.632C29.7365 14.552 29.8591 14.512 30.0031 14.512H31.3711ZM36.9706 21.032C36.9706 20.7227 36.9253 20.4373 36.8346 20.176C36.7493 19.9147 36.6213 19.688 36.4506 19.496C36.28 19.304 36.072 19.1547 35.8266 19.048C35.5813 18.9413 35.2986 18.888 34.9786 18.888C34.3226 18.888 33.8053 19.0773 33.4266 19.456C33.0533 19.8347 32.816 20.36 32.7146 21.032H36.9706ZM38.2586 24.84C38.0666 25.064 37.8453 25.2587 37.5946 25.424C37.344 25.584 37.0773 25.7147 36.7946 25.816C36.512 25.9173 36.2186 25.992 35.9146 26.04C35.616 26.088 35.32 26.112 35.0266 26.112C34.4666 26.112 33.9466 26.0187 33.4666 25.832C32.992 25.64 32.5786 25.3627 32.2266 25C31.88 24.632 31.608 24.1787 31.4106 23.64C31.2186 23.096 31.1226 22.472 31.1226 21.768C31.1226 21.2027 31.2106 20.6773 31.3866 20.192C31.5626 19.7013 31.8133 19.2747 32.1386 18.912C32.4693 18.5493 32.872 18.264 33.3466 18.056C33.8213 17.848 34.3546 17.744 34.9466 17.744C35.4426 17.744 35.8986 17.8267 36.3146 17.992C36.736 18.152 37.0986 18.3867 37.4026 18.696C37.7066 19.0053 37.944 19.3867 38.1146 19.84C38.2906 20.2933 38.3786 20.8107 38.3786 21.392C38.3786 21.632 38.352 21.7947 38.2986 21.88C38.2453 21.96 38.1466 22 38.0026 22H32.6746C32.6906 22.4853 32.76 22.9093 32.8826 23.272C33.0053 23.6293 33.1733 23.928 33.3866 24.168C33.6053 24.408 33.864 24.5867 34.1626 24.704C34.4613 24.8213 34.7946 24.88 35.1626 24.88C35.5093 24.88 35.808 24.84 36.0586 24.76C36.3146 24.68 36.5333 24.5947 36.7146 24.504C36.9013 24.408 37.056 24.32 37.1786 24.24C37.3066 24.16 37.4186 24.12 37.5146 24.12C37.6426 24.12 37.7413 24.168 37.8106 24.264L38.2586 24.84ZM41.8394 19C42.0154 18.8133 42.1994 18.6427 42.3914 18.488C42.5834 18.3333 42.786 18.2027 42.9994 18.096C43.218 17.984 43.45 17.8987 43.6954 17.84C43.946 17.776 44.2127 17.744 44.4954 17.744C44.9434 17.744 45.3354 17.8187 45.6714 17.968C46.0127 18.1173 46.298 18.328 46.5274 18.6C46.7567 18.8667 46.93 19.1893 47.0474 19.568C47.1647 19.9467 47.2234 20.3653 47.2234 20.824V26H45.6554V20.824C45.6554 20.2427 45.522 19.792 45.2554 19.472C44.9887 19.1467 44.5807 18.984 44.0314 18.984C43.6314 18.984 43.2554 19.08 42.9034 19.272C42.5567 19.4587 42.234 19.7147 41.9354 20.04V26H40.3754V17.872H41.3114C41.53 17.872 41.666 17.976 41.7194 18.184L41.8394 19ZM52.0831 26.128C51.4271 26.128 50.9205 25.944 50.5631 25.576C50.2111 25.208 50.0351 24.6827 50.0351 24V19.136H49.0911C49.0005 19.136 48.9231 19.1093 48.8591 19.056C48.8005 18.9973 48.7711 18.912 48.7711 18.8V18.168L50.0911 17.984L50.4431 15.56C50.4645 15.4693 50.5045 15.4 50.5631 15.352C50.6271 15.2987 50.7071 15.272 50.8031 15.272H51.5951V18H53.8991V19.136H51.5951V23.896C51.5951 24.216 51.6725 24.456 51.8271 24.616C51.9871 24.7707 52.1898 24.848 52.4351 24.848C52.5791 24.848 52.7018 24.8293 52.8031 24.792C52.9098 24.7547 53.0005 24.7147 53.0751 24.672C53.1498 24.624 53.2138 24.5813 53.2671 24.544C53.3205 24.5067 53.3685 24.488 53.4111 24.488C53.4645 24.488 53.5045 24.5013 53.5311 24.528C53.5631 24.5493 53.5951 24.5867 53.6271 24.64L54.0911 25.392C53.8351 25.6267 53.5311 25.808 53.1791 25.936C52.8271 26.064 52.4618 26.128 52.0831 26.128ZM62.416 17.872V26H61.48C61.2667 26 61.128 25.896 61.064 25.688L60.952 24.872C60.776 25.0587 60.592 25.2293 60.4 25.384C60.208 25.5387 60.0027 25.672 59.784 25.784C59.5653 25.8907 59.3333 25.9733 59.088 26.032C58.8427 26.096 58.5787 26.128 58.296 26.128C57.848 26.128 57.4533 26.0533 57.112 25.904C56.776 25.7547 56.4933 25.5467 56.264 25.28C56.0347 25.008 55.8613 24.6827 55.744 24.304C55.6267 23.9253 55.568 23.5067 55.568 23.048V17.872H57.136V23.048C57.136 23.6293 57.2693 24.0827 57.536 24.408C57.8027 24.728 58.2107 24.888 58.76 24.888C59.16 24.888 59.5333 24.7947 59.88 24.608C60.2267 24.416 60.552 24.1547 60.856 23.824V17.872H62.416ZM66.3855 19.432C66.6468 18.8987 66.9615 18.48 67.3295 18.176C67.6975 17.872 68.1402 17.72 68.6575 17.72C68.8335 17.72 68.9988 17.7413 69.1535 17.784C69.3135 17.8213 69.4522 17.88 69.5695 17.96L69.4655 19.136C69.4282 19.28 69.3402 19.352 69.2015 19.352C69.1268 19.352 69.0148 19.3387 68.8655 19.312C68.7162 19.28 68.5562 19.264 68.3855 19.264C68.1348 19.264 67.9135 19.3013 67.7215 19.376C67.5295 19.4453 67.3562 19.552 67.2015 19.696C67.0522 19.8347 66.9188 20.008 66.8015 20.216C66.6842 20.4187 66.5748 20.6507 66.4735 20.912V26H64.9135V17.872H65.8095C65.9802 17.872 66.0948 17.904 66.1535 17.968C66.2175 18.0267 66.2628 18.1333 66.2895 18.288L66.3855 19.432ZM76.18 21.032C76.18 20.7227 76.1347 20.4373 76.044 20.176C75.9587 19.9147 75.8307 19.688 75.66 19.496C75.4893 19.304 75.2813 19.1547 75.036 19.048C74.7907 18.9413 74.508 18.888 74.188 18.888C73.532 18.888 73.0147 19.0773 72.636 19.456C72.2627 19.8347 72.0253 20.36 71.924 21.032H76.18ZM77.468 24.84C77.276 25.064 77.0547 25.2587 76.804 25.424C76.5533 25.584 76.2867 25.7147 76.004 25.816C75.7213 25.9173 75.428 25.992 75.124 26.04C74.8253 26.088 74.5293 26.112 74.236 26.112C73.676 26.112 73.156 26.0187 72.676 25.832C72.2013 25.64 71.788 25.3627 71.436 25C71.0893 24.632 70.8173 24.1787 70.62 23.64C70.428 23.096 70.332 22.472 70.332 21.768C70.332 21.2027 70.42 20.6773 70.596 20.192C70.772 19.7013 71.0227 19.2747 71.348 18.912C71.6787 18.5493 72.0813 18.264 72.556 18.056C73.0307 17.848 73.564 17.744 74.156 17.744C74.652 17.744 75.108 17.8267 75.524 17.992C75.9453 18.152 76.308 18.3867 76.612 18.696C76.916 19.0053 77.1533 19.3867 77.324 19.84C77.5 20.2933 77.588 20.8107 77.588 21.392C77.588 21.632 77.5613 21.7947 77.508 21.88C77.4547 21.96 77.356 22 77.212 22H71.884C71.9 22.4853 71.9693 22.9093 72.092 23.272C72.2147 23.6293 72.3827 23.928 72.596 24.168C72.8147 24.408 73.0733 24.5867 73.372 24.704C73.6707 24.8213 74.004 24.88 74.372 24.88C74.7187 24.88 75.0173 24.84 75.268 24.76C75.524 24.68 75.7427 24.5947 75.924 24.504C76.1107 24.408 76.2653 24.32 76.388 24.24C76.516 24.16 76.628 24.12 76.724 24.12C76.852 24.12 76.9507 24.168 77.02 24.264L77.468 24.84ZM92.2956 23.536C92.3916 23.536 92.4743 23.5733 92.5436 23.648L93.2156 24.384C92.7463 24.9387 92.173 25.368 91.4956 25.672C90.8236 25.976 90.013 26.128 89.0636 26.128C88.2316 26.128 87.477 25.984 86.7996 25.696C86.1276 25.408 85.5516 25.0053 85.0716 24.488C84.597 23.9707 84.229 23.352 83.9676 22.632C83.7063 21.912 83.5756 21.12 83.5756 20.256C83.5756 19.392 83.7116 18.6 83.9836 17.88C84.261 17.16 84.6476 16.5413 85.1436 16.024C85.6396 15.5067 86.2316 15.104 86.9196 14.816C87.613 14.528 88.3783 14.384 89.2156 14.384C90.0316 14.384 90.757 14.5173 91.3916 14.784C92.0263 15.0507 92.5783 15.4053 93.0476 15.848L92.4876 16.64C92.4503 16.6987 92.4023 16.7467 92.3436 16.784C92.2903 16.8213 92.2183 16.84 92.1276 16.84C92.0263 16.84 91.9063 16.7893 91.7676 16.688C91.6343 16.5867 91.4556 16.4747 91.2316 16.352C91.013 16.224 90.741 16.1093 90.4156 16.008C90.0903 15.9067 89.685 15.856 89.1996 15.856C88.629 15.856 88.1063 15.9573 87.6316 16.16C87.157 16.3573 86.7463 16.6453 86.3996 17.024C86.0583 17.3973 85.7916 17.8587 85.5996 18.408C85.413 18.952 85.3196 19.568 85.3196 20.256C85.3196 20.9547 85.4183 21.576 85.6156 22.12C85.813 22.664 86.085 23.1253 86.4316 23.504C86.7783 23.8827 87.1863 24.1707 87.6556 24.368C88.125 24.5653 88.6316 24.664 89.1756 24.664C89.5063 24.664 89.8023 24.6453 90.0636 24.608C90.3303 24.5653 90.573 24.504 90.7916 24.424C91.0156 24.344 91.2263 24.2427 91.4236 24.12C91.621 23.992 91.8156 23.84 92.0076 23.664C92.0503 23.6267 92.0956 23.5973 92.1436 23.576C92.1916 23.5493 92.2423 23.536 92.2956 23.536ZM99.2959 22.392C98.6612 22.4133 98.1225 22.464 97.6799 22.544C97.2372 22.6187 96.8772 22.72 96.5999 22.848C96.3225 22.976 96.1225 23.128 95.9999 23.304C95.8772 23.4747 95.8159 23.6667 95.8159 23.88C95.8159 24.0827 95.8479 24.2587 95.9119 24.408C95.9812 24.552 96.0719 24.672 96.1839 24.768C96.3012 24.8587 96.4372 24.9253 96.5919 24.968C96.7465 25.0107 96.9145 25.032 97.0959 25.032C97.3359 25.032 97.5545 25.008 97.7519 24.96C97.9545 24.912 98.1439 24.8453 98.3199 24.76C98.4959 24.6693 98.6639 24.56 98.8239 24.432C98.9839 24.304 99.1412 24.1573 99.2959 23.992V22.392ZM94.7199 19.008C95.1732 18.576 95.6639 18.2533 96.1919 18.04C96.7252 17.8267 97.3092 17.72 97.9439 17.72C98.4079 17.72 98.8185 17.7973 99.1759 17.952C99.5332 18.1013 99.8345 18.312 100.08 18.584C100.325 18.856 100.509 19.1813 100.632 19.56C100.76 19.9387 100.824 20.3573 100.824 20.816V26H100.128C99.9732 26 99.8559 25.976 99.7759 25.928C99.6959 25.8747 99.6319 25.7787 99.5839 25.64L99.4159 24.928C99.2079 25.12 99.0025 25.2907 98.7999 25.44C98.5972 25.584 98.3839 25.7093 98.1599 25.816C97.9412 25.9173 97.7065 25.9947 97.4559 26.048C97.2052 26.1013 96.9279 26.128 96.6239 26.128C96.3039 26.128 96.0025 26.0853 95.7199 26C95.4425 25.9093 95.1999 25.7733 94.9919 25.592C94.7839 25.4107 94.6185 25.184 94.4959 24.912C94.3785 24.64 94.3199 24.3227 94.3199 23.96C94.3199 23.64 94.4052 23.3333 94.5759 23.04C94.7519 22.7413 95.0345 22.4747 95.4239 22.24C95.8185 22.0053 96.3305 21.8133 96.9599 21.664C97.5945 21.5147 98.3732 21.4293 99.2959 21.408V20.816C99.2959 20.2027 99.1652 19.744 98.9039 19.44C98.6425 19.136 98.2585 18.984 97.7519 18.984C97.4105 18.984 97.1225 19.0267 96.8879 19.112C96.6585 19.1973 96.4585 19.2933 96.2879 19.4C96.1225 19.5013 95.9759 19.5947 95.8479 19.68C95.7252 19.7653 95.5972 19.808 95.4639 19.808C95.3572 19.808 95.2639 19.7787 95.1839 19.72C95.1092 19.6613 95.0479 19.592 94.9999 19.512L94.7199 19.008ZM104.792 24C105.048 24.336 105.323 24.5707 105.616 24.704C105.915 24.8373 106.248 24.904 106.616 24.904C107.331 24.904 107.883 24.648 108.272 24.136C108.667 23.6187 108.864 22.8667 108.864 21.88C108.864 21.3627 108.819 20.9227 108.728 20.56C108.643 20.192 108.515 19.8933 108.344 19.664C108.179 19.4293 107.974 19.2587 107.728 19.152C107.483 19.04 107.206 18.984 106.896 18.984C106.443 18.984 106.048 19.0853 105.712 19.288C105.382 19.4907 105.075 19.7787 104.792 20.152V24ZM104.712 19.088C104.883 18.8853 105.064 18.7013 105.256 18.536C105.454 18.3653 105.664 18.2213 105.888 18.104C106.112 17.9813 106.35 17.888 106.6 17.824C106.856 17.7547 107.128 17.72 107.416 17.72C107.88 17.72 108.299 17.8107 108.672 17.992C109.051 18.1733 109.374 18.44 109.64 18.792C109.907 19.144 110.112 19.5787 110.256 20.096C110.406 20.6133 110.48 21.208 110.48 21.88C110.48 22.4827 110.398 23.0427 110.232 23.56C110.072 24.072 109.84 24.5173 109.536 24.896C109.238 25.2747 108.87 25.5733 108.432 25.792C108 26.0053 107.512 26.112 106.968 26.112C106.483 26.112 106.067 26.032 105.72 25.872C105.374 25.712 105.064 25.488 104.792 25.2V28.728H103.232V17.872H104.168C104.387 17.872 104.523 17.976 104.576 18.184L104.712 19.088ZM114.184 17.872V26H112.624V17.872H114.184ZM114.48 15.36C114.48 15.504 114.451 15.6427 114.392 15.776C114.334 15.904 114.254 16.0187 114.152 16.12C114.056 16.216 113.942 16.2933 113.808 16.352C113.675 16.4053 113.536 16.432 113.392 16.432C113.248 16.432 113.112 16.4053 112.984 16.352C112.856 16.2933 112.742 16.216 112.64 16.12C112.544 16.0187 112.467 15.904 112.408 15.776C112.355 15.6427 112.328 15.504 112.328 15.36C112.328 15.2107 112.355 15.072 112.408 14.944C112.467 14.8107 112.544 14.696 112.64 14.6C112.742 14.4987 112.856 14.4213 112.984 14.368C113.112 14.3093 113.248 14.28 113.392 14.28C113.536 14.28 113.675 14.3093 113.808 14.368C113.942 14.4213 114.056 14.4987 114.152 14.6C114.254 14.696 114.334 14.8107 114.392 14.944C114.451 15.072 114.48 15.2107 114.48 15.36ZM119.307 26.128C118.651 26.128 118.144 25.944 117.787 25.576C117.435 25.208 117.259 24.6827 117.259 24V19.136H116.315C116.224 19.136 116.147 19.1093 116.083 19.056C116.024 18.9973 115.995 18.912 115.995 18.8V18.168L117.315 17.984L117.667 15.56C117.688 15.4693 117.728 15.4 117.787 15.352C117.851 15.2987 117.931 15.272 118.027 15.272H118.819V18H121.123V19.136H118.819V23.896C118.819 24.216 118.896 24.456 119.051 24.616C119.211 24.7707 119.414 24.848 119.659 24.848C119.803 24.848 119.926 24.8293 120.027 24.792C120.134 24.7547 120.224 24.7147 120.299 24.672C120.374 24.624 120.438 24.5813 120.491 24.544C120.544 24.5067 120.592 24.488 120.635 24.488C120.688 24.488 120.728 24.5013 120.755 24.528C120.787 24.5493 120.819 24.5867 120.851 24.64L121.315 25.392C121.059 25.6267 120.755 25.808 120.403 25.936C120.051 26.064 119.686 26.128 119.307 26.128ZM127.248 22.392C126.613 22.4133 126.074 22.464 125.632 22.544C125.189 22.6187 124.829 22.72 124.552 22.848C124.274 22.976 124.074 23.128 123.952 23.304C123.829 23.4747 123.768 23.6667 123.768 23.88C123.768 24.0827 123.8 24.2587 123.864 24.408C123.933 24.552 124.024 24.672 124.136 24.768C124.253 24.8587 124.389 24.9253 124.544 24.968C124.698 25.0107 124.866 25.032 125.048 25.032C125.288 25.032 125.506 25.008 125.704 24.96C125.906 24.912 126.096 24.8453 126.272 24.76C126.448 24.6693 126.616 24.56 126.776 24.432C126.936 24.304 127.093 24.1573 127.248 23.992V22.392ZM122.672 19.008C123.125 18.576 123.616 18.2533 124.144 18.04C124.677 17.8267 125.261 17.72 125.896 17.72C126.36 17.72 126.77 17.7973 127.128 17.952C127.485 18.1013 127.786 18.312 128.032 18.584C128.277 18.856 128.461 19.1813 128.584 19.56C128.712 19.9387 128.776 20.3573 128.776 20.816V26H128.08C127.925 26 127.808 25.976 127.728 25.928C127.648 25.8747 127.584 25.7787 127.536 25.64L127.368 24.928C127.16 25.12 126.954 25.2907 126.752 25.44C126.549 25.584 126.336 25.7093 126.112 25.816C125.893 25.9173 125.658 25.9947 125.408 26.048C125.157 26.1013 124.88 26.128 124.576 26.128C124.256 26.128 123.954 26.0853 123.672 26C123.394 25.9093 123.152 25.7733 122.944 25.592C122.736 25.4107 122.57 25.184 122.448 24.912C122.33 24.64 122.272 24.3227 122.272 23.96C122.272 23.64 122.357 23.3333 122.528 23.04C122.704 22.7413 122.986 22.4747 123.376 22.24C123.77 22.0053 124.282 21.8133 124.912 21.664C125.546 21.5147 126.325 21.4293 127.248 21.408V20.816C127.248 20.2027 127.117 19.744 126.856 19.44C126.594 19.136 126.21 18.984 125.704 18.984C125.362 18.984 125.074 19.0267 124.84 19.112C124.61 19.1973 124.41 19.2933 124.24 19.4C124.074 19.5013 123.928 19.5947 123.8 19.68C123.677 19.7653 123.549 19.808 123.416 19.808C123.309 19.808 123.216 19.7787 123.136 19.72C123.061 19.6613 123 19.592 122.952 19.512L122.672 19.008ZM132.784 14.192V26H131.216V14.192H132.784ZM136.964 17.872V26H135.404V17.872H136.964ZM137.26 15.36C137.26 15.504 137.231 15.6427 137.172 15.776C137.114 15.904 137.034 16.0187 136.932 16.12C136.836 16.216 136.722 16.2933 136.588 16.352C136.455 16.4053 136.316 16.432 136.172 16.432C136.028 16.432 135.892 16.4053 135.764 16.352C135.636 16.2933 135.522 16.216 135.42 16.12C135.324 16.0187 135.247 15.904 135.188 15.776C135.135 15.6427 135.108 15.504 135.108 15.36C135.108 15.2107 135.135 15.072 135.188 14.944C135.247 14.8107 135.324 14.696 135.42 14.6C135.522 14.4987 135.636 14.4213 135.764 14.368C135.892 14.3093 136.028 14.28 136.172 14.28C136.316 14.28 136.455 14.3093 136.588 14.368C136.722 14.4213 136.836 14.4987 136.932 14.6C137.034 14.696 137.114 14.8107 137.172 14.944C137.231 15.072 137.26 15.2107 137.26 15.36ZM144.335 19.272C144.292 19.3413 144.247 19.392 144.199 19.424C144.151 19.4507 144.09 19.464 144.015 19.464C143.93 19.464 143.834 19.4347 143.727 19.376C143.626 19.3173 143.5 19.2533 143.351 19.184C143.207 19.1147 143.036 19.0507 142.839 18.992C142.642 18.9333 142.407 18.904 142.135 18.904C141.911 18.904 141.706 18.9333 141.519 18.992C141.338 19.0453 141.183 19.1227 141.055 19.224C140.927 19.32 140.828 19.4373 140.759 19.576C140.69 19.7093 140.655 19.8533 140.655 20.008C140.655 20.2107 140.714 20.3787 140.831 20.512C140.954 20.6453 141.111 20.76 141.303 20.856C141.5 20.952 141.722 21.04 141.967 21.12C142.218 21.1947 142.471 21.2747 142.727 21.36C142.988 21.4453 143.242 21.544 143.487 21.656C143.738 21.7627 143.959 21.8987 144.151 22.064C144.348 22.224 144.506 22.4187 144.623 22.648C144.746 22.8773 144.807 23.1573 144.807 23.488C144.807 23.8667 144.738 24.2187 144.599 24.544C144.466 24.864 144.266 25.1413 143.999 25.376C143.738 25.6107 143.412 25.7947 143.023 25.928C142.634 26.0613 142.188 26.128 141.687 26.128C141.127 26.128 140.61 26.0347 140.135 25.848C139.66 25.6613 139.263 25.424 138.943 25.136L139.311 24.536C139.354 24.4613 139.407 24.4053 139.471 24.368C139.535 24.3253 139.62 24.304 139.727 24.304C139.828 24.304 139.932 24.3413 140.039 24.416C140.146 24.4907 140.274 24.5733 140.423 24.664C140.572 24.7493 140.754 24.8293 140.967 24.904C141.18 24.9733 141.447 25.008 141.767 25.008C142.034 25.008 142.266 24.976 142.463 24.912C142.66 24.8427 142.823 24.752 142.951 24.64C143.084 24.5227 143.183 24.3893 143.247 24.24C143.311 24.0907 143.343 23.9333 143.343 23.768C143.343 23.5547 143.282 23.3787 143.159 23.24C143.042 23.096 142.884 22.9733 142.687 22.872C142.495 22.7707 142.274 22.6827 142.023 22.608C141.772 22.5333 141.516 22.4533 141.255 22.368C140.994 22.2827 140.738 22.184 140.487 22.072C140.236 21.96 140.012 21.8187 139.815 21.648C139.623 21.4773 139.466 21.2693 139.343 21.024C139.226 20.7787 139.167 20.48 139.167 20.128C139.167 19.8133 139.231 19.512 139.359 19.224C139.492 18.936 139.682 18.6827 139.927 18.464C140.178 18.2453 140.484 18.072 140.847 17.944C141.215 17.8107 141.634 17.744 142.103 17.744C142.642 17.744 143.127 17.8293 143.559 18C143.996 18.1707 144.37 18.4053 144.679 18.704L144.335 19.272ZM149.36 26.128C148.704 26.128 148.197 25.944 147.84 25.576C147.488 25.208 147.312 24.6827 147.312 24V19.136H146.368C146.277 19.136 146.2 19.1093 146.136 19.056C146.077 18.9973 146.048 18.912 146.048 18.8V18.168L147.368 17.984L147.72 15.56C147.741 15.4693 147.781 15.4 147.84 15.352C147.904 15.2987 147.984 15.272 148.08 15.272H148.872V18H151.176V19.136H148.872V23.896C148.872 24.216 148.949 24.456 149.104 24.616C149.264 24.7707 149.467 24.848 149.712 24.848C149.856 24.848 149.979 24.8293 150.08 24.792C150.187 24.7547 150.277 24.7147 150.352 24.672C150.427 24.624 150.491 24.5813 150.544 24.544C150.597 24.5067 150.645 24.488 150.688 24.488C150.741 24.488 150.781 24.5013 150.808 24.528C150.84 24.5493 150.872 24.5867 150.904 24.64L151.368 25.392C151.112 25.6267 150.808 25.808 150.456 25.936C150.104 26.064 149.739 26.128 149.36 26.128Z" fill="#3C3C6F"/>
<defs>
<filter id="filter0_b_450_5782" x="-30" y="-30" width="231" height="98" filterUnits="userSpaceOnUse" color-interpolation-filters="sRGB">
<feFlood flood-opacity="0" result="BackgroundImageFix"/>
<feGaussianBlur in="BackgroundImageFix" stdDeviation="15"/>
<feComposite in2="SourceAlpha" operator="in" result="effect1_backgroundBlur_450_5782"/>
<feBlend mode="normal" in="SourceGraphic" in2="effect1_backgroundBlur_450_5782" result="shape"/>
</filter>
<linearGradient id="paint0_linear_450_5782" x1="12.073" y1="-6.09434" x2="77.2395" y2="4.50636" gradientUnits="userSpaceOnUse">
<stop stop-color="white"/>
<stop offset="1" stop-color="white" stop-opacity="0"/>
</linearGradient>
</defs>
</svg>
