<svg width="162" height="38" viewBox="0 0 162 38" fill="none" xmlns="http://www.w3.org/2000/svg">
<g filter="url(#filter0_b_450_5773)">
<path d="M0 19C0 8.50659 8.50659 0 19 0H143C153.493 0 162 8.50659 162 19C162 29.4934 153.493 38 143 38H19C8.50659 38 0 29.4934 0 19Z" fill="white" fill-opacity="0.6"/>
<path d="M1 19C1 9.05888 9.05888 1 19 1H143C152.941 1 161 9.05888 161 19C161 28.9411 152.941 37 143 37H19C9.05887 37 1 28.9411 1 19Z" stroke="url(#paint0_linear_450_5773)" stroke-opacity="0.9" stroke-width="2"/>
</g>
<path d="M29.4091 16.384C29.3557 16.4747 29.2997 16.5413 29.2411 16.584C29.1824 16.6267 29.1077 16.648 29.0171 16.648C28.9211 16.648 28.8117 16.6053 28.6891 16.52C28.5664 16.4293 28.4117 16.3307 28.2251 16.224C28.0437 16.112 27.8251 16.0133 27.5691 15.928C27.3131 15.8373 27.0064 15.792 26.6491 15.792C26.3131 15.792 26.0171 15.8373 25.7611 15.928C25.5104 16.0133 25.2997 16.1333 25.1291 16.288C24.9584 16.4373 24.8277 16.616 24.7371 16.824C24.6517 17.0267 24.6091 17.248 24.6091 17.488C24.6091 17.7973 24.6864 18.0533 24.8411 18.256C25.0011 18.4587 25.2091 18.632 25.4651 18.776C25.7211 18.92 26.0117 19.0453 26.3371 19.152C26.6624 19.2587 26.9957 19.3707 27.3371 19.488C27.6784 19.6 28.0117 19.7307 28.3371 19.88C28.6624 20.0293 28.9531 20.2187 29.2091 20.448C29.4651 20.672 29.6704 20.9493 29.8251 21.28C29.9851 21.6053 30.0651 22.0053 30.0651 22.48C30.0651 22.9867 29.9771 23.4613 29.8011 23.904C29.6304 24.3467 29.3797 24.7333 29.0491 25.064C28.7184 25.3947 28.3104 25.656 27.8251 25.848C27.3451 26.0347 26.7984 26.128 26.1851 26.128C25.8171 26.128 25.4597 26.0907 25.1131 26.016C24.7664 25.9467 24.4384 25.848 24.1291 25.72C23.8197 25.5867 23.5291 25.4293 23.2571 25.248C22.9904 25.0613 22.7504 24.8533 22.5371 24.624L23.0251 23.808C23.0731 23.744 23.1291 23.6907 23.1931 23.648C23.2624 23.6053 23.3397 23.584 23.4251 23.584C23.5371 23.584 23.6651 23.6427 23.8091 23.76C23.9584 23.8773 24.1397 24.008 24.3531 24.152C24.5717 24.2907 24.8304 24.4187 25.1291 24.536C25.4331 24.6533 25.8011 24.712 26.2331 24.712C26.5851 24.712 26.8997 24.6667 27.1771 24.576C27.4544 24.48 27.6864 24.3467 27.8731 24.176C28.0651 24 28.2117 23.7893 28.3131 23.544C28.4144 23.2987 28.4651 23.0267 28.4651 22.728C28.4651 22.392 28.3877 22.1173 28.2331 21.904C28.0784 21.6907 27.8731 21.512 27.6171 21.368C27.3611 21.224 27.0704 21.1013 26.7451 21C26.4197 20.8987 26.0864 20.7947 25.7451 20.688C25.4037 20.576 25.0704 20.448 24.7451 20.304C24.4197 20.16 24.1291 19.9733 23.8731 19.744C23.6171 19.5093 23.4117 19.2187 23.2571 18.872C23.1024 18.52 23.0251 18.088 23.0251 17.576C23.0251 17.1653 23.1051 16.768 23.2651 16.384C23.4251 16 23.6571 15.6613 23.9611 15.368C24.2704 15.0693 24.6491 14.832 25.0971 14.656C25.5451 14.4747 26.0571 14.384 26.6331 14.384C27.2784 14.384 27.8704 14.488 28.4091 14.696C28.9531 14.8987 29.4251 15.192 29.8251 15.576L29.4091 16.384ZM34.3528 26.128C33.6968 26.128 33.1901 25.944 32.8328 25.576C32.4808 25.208 32.3048 24.6827 32.3048 24V19.136H31.3608C31.2701 19.136 31.1928 19.1093 31.1288 19.056C31.0701 18.9973 31.0408 18.912 31.0408 18.8V18.168L32.3608 17.984L32.7128 15.56C32.7341 15.4693 32.7741 15.4 32.8328 15.352C32.8968 15.2987 32.9768 15.272 33.0728 15.272H33.8648V18H36.1688V19.136H33.8648V23.896C33.8648 24.216 33.9421 24.456 34.0968 24.616C34.2568 24.7707 34.4595 24.848 34.7048 24.848C34.8488 24.848 34.9715 24.8293 35.0728 24.792C35.1795 24.7547 35.2701 24.7147 35.3448 24.672C35.4195 24.624 35.4835 24.5813 35.5368 24.544C35.5901 24.5067 35.6381 24.488 35.6808 24.488C35.7341 24.488 35.7741 24.5013 35.8008 24.528C35.8328 24.5493 35.8648 24.5867 35.8968 24.64L36.3608 25.392C36.1048 25.6267 35.8008 25.808 35.4488 25.936C35.0968 26.064 34.7315 26.128 34.3528 26.128ZM42.2937 22.392C41.659 22.4133 41.1204 22.464 40.6777 22.544C40.235 22.6187 39.875 22.72 39.5977 22.848C39.3204 22.976 39.1204 23.128 38.9977 23.304C38.875 23.4747 38.8137 23.6667 38.8137 23.88C38.8137 24.0827 38.8457 24.2587 38.9097 24.408C38.979 24.552 39.0697 24.672 39.1817 24.768C39.299 24.8587 39.435 24.9253 39.5897 24.968C39.7444 25.0107 39.9124 25.032 40.0937 25.032C40.3337 25.032 40.5524 25.008 40.7497 24.96C40.9524 24.912 41.1417 24.8453 41.3177 24.76C41.4937 24.6693 41.6617 24.56 41.8217 24.432C41.9817 24.304 42.139 24.1573 42.2937 23.992V22.392ZM37.7177 19.008C38.171 18.576 38.6617 18.2533 39.1897 18.04C39.723 17.8267 40.307 17.72 40.9417 17.72C41.4057 17.72 41.8164 17.7973 42.1737 17.952C42.531 18.1013 42.8324 18.312 43.0777 18.584C43.323 18.856 43.507 19.1813 43.6297 19.56C43.7577 19.9387 43.8217 20.3573 43.8217 20.816V26H43.1257C42.971 26 42.8537 25.976 42.7737 25.928C42.6937 25.8747 42.6297 25.7787 42.5817 25.64L42.4137 24.928C42.2057 25.12 42.0004 25.2907 41.7977 25.44C41.595 25.584 41.3817 25.7093 41.1577 25.816C40.939 25.9173 40.7044 25.9947 40.4537 26.048C40.203 26.1013 39.9257 26.128 39.6217 26.128C39.3017 26.128 39.0004 26.0853 38.7177 26C38.4404 25.9093 38.1977 25.7733 37.9897 25.592C37.7817 25.4107 37.6164 25.184 37.4937 24.912C37.3764 24.64 37.3177 24.3227 37.3177 23.96C37.3177 23.64 37.403 23.3333 37.5737 23.04C37.7497 22.7413 38.0324 22.4747 38.4217 22.24C38.8164 22.0053 39.3284 21.8133 39.9577 21.664C40.5924 21.5147 41.371 21.4293 42.2937 21.408V20.816C42.2937 20.2027 42.163 19.744 41.9017 19.44C41.6404 19.136 41.2564 18.984 40.7497 18.984C40.4084 18.984 40.1204 19.0267 39.8857 19.112C39.6564 19.1973 39.4564 19.2933 39.2857 19.4C39.1204 19.5013 38.9737 19.5947 38.8457 19.68C38.723 19.7653 38.595 19.808 38.4617 19.808C38.355 19.808 38.2617 19.7787 38.1817 19.72C38.107 19.6613 38.0457 19.592 37.9977 19.512L37.7177 19.008ZM47.7021 19.432C47.9634 18.8987 48.2781 18.48 48.6461 18.176C49.0141 17.872 49.4567 17.72 49.9741 17.72C50.1501 17.72 50.3154 17.7413 50.4701 17.784C50.6301 17.8213 50.7687 17.88 50.8861 17.96L50.7821 19.136C50.7447 19.28 50.6567 19.352 50.5181 19.352C50.4434 19.352 50.3314 19.3387 50.1821 19.312C50.0327 19.28 49.8727 19.264 49.7021 19.264C49.4514 19.264 49.2301 19.3013 49.0381 19.376C48.8461 19.4453 48.6727 19.552 48.5181 19.696C48.3687 19.8347 48.2354 20.008 48.1181 20.216C48.0007 20.4187 47.8914 20.6507 47.7901 20.912V26H46.2301V17.872H47.1261C47.2967 17.872 47.4114 17.904 47.4701 17.968C47.5341 18.0267 47.5794 18.1333 47.6061 18.288L47.7021 19.432ZM54.9534 26.128C54.2974 26.128 53.7908 25.944 53.4334 25.576C53.0814 25.208 52.9054 24.6827 52.9054 24V19.136H51.9614C51.8708 19.136 51.7934 19.1093 51.7294 19.056C51.6708 18.9973 51.6414 18.912 51.6414 18.8V18.168L52.9614 17.984L53.3134 15.56C53.3348 15.4693 53.3748 15.4 53.4334 15.352C53.4974 15.2987 53.5774 15.272 53.6734 15.272H54.4654V18H56.7694V19.136H54.4654V23.896C54.4654 24.216 54.5428 24.456 54.6974 24.616C54.8574 24.7707 55.0601 24.848 55.3054 24.848C55.4494 24.848 55.5721 24.8293 55.6734 24.792C55.7801 24.7547 55.8708 24.7147 55.9454 24.672C56.0201 24.624 56.0841 24.5813 56.1374 24.544C56.1908 24.5067 56.2388 24.488 56.2814 24.488C56.3348 24.488 56.3748 24.5013 56.4014 24.528C56.4334 24.5493 56.4654 24.5867 56.4974 24.64L56.9614 25.392C56.7054 25.6267 56.4014 25.808 56.0494 25.936C55.6974 26.064 55.3321 26.128 54.9534 26.128ZM65.2863 17.872V26H64.3503C64.137 26 63.9983 25.896 63.9343 25.688L63.8223 24.872C63.6463 25.0587 63.4623 25.2293 63.2703 25.384C63.0783 25.5387 62.873 25.672 62.6543 25.784C62.4356 25.8907 62.2036 25.9733 61.9583 26.032C61.713 26.096 61.449 26.128 61.1663 26.128C60.7183 26.128 60.3236 26.0533 59.9823 25.904C59.6463 25.7547 59.3636 25.5467 59.1343 25.28C58.905 25.008 58.7316 24.6827 58.6143 24.304C58.497 23.9253 58.4383 23.5067 58.4383 23.048V17.872H60.0063V23.048C60.0063 23.6293 60.1396 24.0827 60.4063 24.408C60.673 24.728 61.081 24.888 61.6303 24.888C62.0303 24.888 62.4036 24.7947 62.7503 24.608C63.097 24.416 63.4223 24.1547 63.7263 23.824V17.872H65.2863ZM69.3438 24C69.5998 24.336 69.8745 24.5707 70.1678 24.704C70.4665 24.8373 70.7998 24.904 71.1678 24.904C71.8825 24.904 72.4345 24.648 72.8238 24.136C73.2185 23.6187 73.4158 22.8667 73.4158 21.88C73.4158 21.3627 73.3705 20.9227 73.2798 20.56C73.1945 20.192 73.0665 19.8933 72.8958 19.664C72.7305 19.4293 72.5251 19.2587 72.2798 19.152C72.0345 19.04 71.7571 18.984 71.4478 18.984C70.9945 18.984 70.5998 19.0853 70.2638 19.288C69.9331 19.4907 69.6265 19.7787 69.3438 20.152V24ZM69.2638 19.088C69.4345 18.8853 69.6158 18.7013 69.8078 18.536C70.0051 18.3653 70.2158 18.2213 70.4398 18.104C70.6638 17.9813 70.9011 17.888 71.1518 17.824C71.4078 17.7547 71.6798 17.72 71.9678 17.72C72.4318 17.72 72.8505 17.8107 73.2238 17.992C73.6025 18.1733 73.9251 18.44 74.1918 18.792C74.4585 19.144 74.6638 19.5787 74.8078 20.096C74.9571 20.6133 75.0318 21.208 75.0318 21.88C75.0318 22.4827 74.9491 23.0427 74.7838 23.56C74.6238 24.072 74.3918 24.5173 74.0878 24.896C73.7891 25.2747 73.4211 25.5733 72.9838 25.792C72.5518 26.0053 72.0638 26.112 71.5198 26.112C71.0345 26.112 70.6185 26.032 70.2718 25.872C69.9251 25.712 69.6158 25.488 69.3438 25.2V28.728H67.7838V17.872H68.7198C68.9385 17.872 69.0745 17.976 69.1278 18.184L69.2638 19.088ZM83.5027 15.896V19.744H88.1107V21.128H83.5027V26H81.7907V14.512H88.9107V15.896H83.5027ZM93.5984 17.744C94.1958 17.744 94.7344 17.8427 95.2144 18.04C95.6998 18.232 96.1104 18.512 96.4464 18.88C96.7878 19.2427 97.0491 19.6827 97.2304 20.2C97.4118 20.712 97.5024 21.288 97.5024 21.928C97.5024 22.568 97.4118 23.1467 97.2304 23.664C97.0491 24.1813 96.7878 24.6213 96.4464 24.984C96.1104 25.3467 95.6998 25.6267 95.2144 25.824C94.7344 26.016 94.1958 26.112 93.5984 26.112C92.9958 26.112 92.4518 26.016 91.9664 25.824C91.4864 25.6267 91.0758 25.3467 90.7344 24.984C90.3931 24.6213 90.1291 24.1813 89.9424 23.664C89.7611 23.1467 89.6704 22.568 89.6704 21.928C89.6704 21.288 89.7611 20.712 89.9424 20.2C90.1291 19.6827 90.3931 19.2427 90.7344 18.88C91.0758 18.512 91.4864 18.232 91.9664 18.04C92.4518 17.8427 92.9958 17.744 93.5984 17.744ZM93.5984 24.896C94.3664 24.896 94.9398 24.6373 95.3184 24.12C95.6971 23.6027 95.8864 22.8747 95.8864 21.936C95.8864 20.9973 95.6971 20.2693 95.3184 19.752C94.9398 19.2293 94.3664 18.968 93.5984 18.968C92.8198 18.968 92.2384 19.2293 91.8544 19.752C91.4758 20.2693 91.2864 20.9973 91.2864 21.936C91.2864 22.8747 91.4758 23.6027 91.8544 24.12C92.2384 24.6373 92.8198 24.896 93.5984 24.896ZM106.324 17.872V26H105.388C105.174 26 105.036 25.896 104.972 25.688L104.86 24.872C104.684 25.0587 104.5 25.2293 104.308 25.384C104.116 25.5387 103.91 25.672 103.692 25.784C103.473 25.8907 103.241 25.9733 102.996 26.032C102.75 26.096 102.486 26.128 102.204 26.128C101.756 26.128 101.361 26.0533 101.02 25.904C100.684 25.7547 100.401 25.5467 100.172 25.28C99.9425 25.008 99.7691 24.6827 99.6518 24.304C99.5345 23.9253 99.4758 23.5067 99.4758 23.048V17.872H101.044V23.048C101.044 23.6293 101.177 24.0827 101.444 24.408C101.71 24.728 102.118 24.888 102.668 24.888C103.068 24.888 103.441 24.7947 103.788 24.608C104.134 24.416 104.46 24.1547 104.764 23.824V17.872H106.324ZM110.285 19C110.461 18.8133 110.645 18.6427 110.837 18.488C111.029 18.3333 111.232 18.2027 111.445 18.096C111.664 17.984 111.896 17.8987 112.141 17.84C112.392 17.776 112.659 17.744 112.941 17.744C113.389 17.744 113.781 17.8187 114.117 17.968C114.459 18.1173 114.744 18.328 114.973 18.6C115.203 18.8667 115.376 19.1893 115.493 19.568C115.611 19.9467 115.669 20.3653 115.669 20.824V26H114.101V20.824C114.101 20.2427 113.968 19.792 113.701 19.472C113.435 19.1467 113.027 18.984 112.477 18.984C112.077 18.984 111.701 19.08 111.349 19.272C111.003 19.4587 110.68 19.7147 110.381 20.04V26H108.821V17.872H109.757C109.976 17.872 110.112 17.976 110.165 18.184L110.285 19ZM123.334 19.84C123.078 19.504 122.801 19.2693 122.502 19.136C122.209 19.0027 121.878 18.936 121.51 18.936C120.796 18.936 120.241 19.1947 119.846 19.712C119.457 20.224 119.262 20.9733 119.262 21.96C119.262 22.4773 119.305 22.92 119.39 23.288C119.481 23.6507 119.609 23.9493 119.774 24.184C119.945 24.4133 120.153 24.584 120.398 24.696C120.644 24.8027 120.921 24.856 121.23 24.856C121.684 24.856 122.076 24.7547 122.406 24.552C122.737 24.3493 123.046 24.064 123.334 23.696V19.84ZM124.902 14.192V26H123.958C123.74 26 123.604 25.896 123.55 25.688L123.414 24.752C123.068 25.1627 122.673 25.4933 122.23 25.744C121.793 25.9893 121.286 26.112 120.71 26.112C120.246 26.112 119.825 26.0213 119.446 25.84C119.073 25.6587 118.753 25.3947 118.486 25.048C118.22 24.696 118.014 24.2613 117.87 23.744C117.726 23.2267 117.654 22.632 117.654 21.96C117.654 21.3573 117.734 20.7973 117.894 20.28C118.054 19.7627 118.286 19.3147 118.59 18.936C118.894 18.5573 119.262 18.2613 119.694 18.048C120.126 17.8293 120.614 17.72 121.158 17.72C121.649 17.72 122.065 17.8 122.406 17.96C122.753 18.12 123.062 18.3467 123.334 18.64V14.192H124.902ZM132.783 21.032C132.783 20.7227 132.737 20.4373 132.647 20.176C132.561 19.9147 132.433 19.688 132.263 19.496C132.092 19.304 131.884 19.1547 131.639 19.048C131.393 18.9413 131.111 18.888 130.791 18.888C130.135 18.888 129.617 19.0773 129.239 19.456C128.865 19.8347 128.628 20.36 128.527 21.032H132.783ZM134.071 24.84C133.879 25.064 133.657 25.2587 133.407 25.424C133.156 25.584 132.889 25.7147 132.607 25.816C132.324 25.9173 132.031 25.992 131.727 26.04C131.428 26.088 131.132 26.112 130.839 26.112C130.279 26.112 129.759 26.0187 129.279 25.832C128.804 25.64 128.391 25.3627 128.039 25C127.692 24.632 127.42 24.1787 127.223 23.64C127.031 23.096 126.935 22.472 126.935 21.768C126.935 21.2027 127.023 20.6773 127.199 20.192C127.375 19.7013 127.625 19.2747 127.951 18.912C128.281 18.5493 128.684 18.264 129.159 18.056C129.633 17.848 130.167 17.744 130.759 17.744C131.255 17.744 131.711 17.8267 132.127 17.992C132.548 18.152 132.911 18.3867 133.215 18.696C133.519 19.0053 133.756 19.3867 133.927 19.84C134.103 20.2933 134.191 20.8107 134.191 21.392C134.191 21.632 134.164 21.7947 134.111 21.88C134.057 21.96 133.959 22 133.815 22H128.487C128.503 22.4853 128.572 22.9093 128.695 23.272C128.817 23.6293 128.985 23.928 129.199 24.168C129.417 24.408 129.676 24.5867 129.975 24.704C130.273 24.8213 130.607 24.88 130.975 24.88C131.321 24.88 131.62 24.84 131.871 24.76C132.127 24.68 132.345 24.5947 132.527 24.504C132.713 24.408 132.868 24.32 132.991 24.24C133.119 24.16 133.231 24.12 133.327 24.12C133.455 24.12 133.553 24.168 133.623 24.264L134.071 24.84ZM137.66 19.432C137.921 18.8987 138.236 18.48 138.604 18.176C138.972 17.872 139.414 17.72 139.932 17.72C140.108 17.72 140.273 17.7413 140.428 17.784C140.588 17.8213 140.726 17.88 140.844 17.96L140.74 19.136C140.702 19.28 140.614 19.352 140.476 19.352C140.401 19.352 140.289 19.3387 140.14 19.312C139.99 19.28 139.83 19.264 139.66 19.264C139.409 19.264 139.188 19.3013 138.996 19.376C138.804 19.4453 138.63 19.552 138.476 19.696C138.326 19.8347 138.193 20.008 138.076 20.216C137.958 20.4187 137.849 20.6507 137.748 20.912V26H136.188V17.872H137.084C137.254 17.872 137.369 17.904 137.428 17.968C137.492 18.0267 137.537 18.1333 137.564 18.288L137.66 19.432Z" fill="#3C3C6F"/>
<defs>
<filter id="filter0_b_450_5773" x="-30" y="-30" width="222" height="98" filterUnits="userSpaceOnUse" color-interpolation-filters="sRGB">
<feFlood flood-opacity="0" result="BackgroundImageFix"/>
<feGaussianBlur in="BackgroundImageFix" stdDeviation="15"/>
<feComposite in2="SourceAlpha" operator="in" result="effect1_backgroundBlur_450_5773"/>
<feBlend mode="normal" in="SourceGraphic" in2="effect1_backgroundBlur_450_5773" result="shape"/>
</filter>
<linearGradient id="paint0_linear_450_5773" x1="11.4375" y1="-6.09434" x2="73.3378" y2="3.44506" gradientUnits="userSpaceOnUse">
<stop stop-color="white"/>
<stop offset="1" stop-color="white" stop-opacity="0"/>
</linearGradient>
</defs>
</svg>
