<svg width="218" height="38" viewBox="0 0 218 38" fill="none" xmlns="http://www.w3.org/2000/svg">
<g filter="url(#filter0_b_450_5826)">
<path d="M0 19C0 8.50659 8.50659 0 19 0H199C209.493 0 218 8.50659 218 19C218 29.4934 209.493 38 199 38H19C8.50659 38 0 29.4934 0 19Z" fill="white" fill-opacity="0.6"/>
<path d="M1 19C1 9.05888 9.05888 1 19 1H199C208.941 1 217 9.05887 217 19C217 28.9411 208.941 37 199 37H19C9.05887 37 1 28.9411 1 19Z" stroke="url(#paint0_linear_450_5826)" stroke-opacity="0.9" stroke-width="2"/>
</g>
<path d="M27.3634 16.384C27.3101 16.4747 27.2541 16.5413 27.1954 16.584C27.1368 16.6267 27.0621 16.648 26.9714 16.648C26.8754 16.648 26.7661 16.6053 26.6434 16.52C26.5208 16.4293 26.3661 16.3307 26.1794 16.224C25.9981 16.112 25.7794 16.0133 25.5234 15.928C25.2674 15.8373 24.9608 15.792 24.6034 15.792C24.2674 15.792 23.9714 15.8373 23.7154 15.928C23.4648 16.0133 23.2541 16.1333 23.0834 16.288C22.9128 16.4373 22.7821 16.616 22.6914 16.824C22.6061 17.0267 22.5634 17.248 22.5634 17.488C22.5634 17.7973 22.6408 18.0533 22.7954 18.256C22.9554 18.4587 23.1634 18.632 23.4194 18.776C23.6754 18.92 23.9661 19.0453 24.2914 19.152C24.6168 19.2587 24.9501 19.3707 25.2914 19.488C25.6328 19.6 25.9661 19.7307 26.2914 19.88C26.6168 20.0293 26.9074 20.2187 27.1634 20.448C27.4194 20.672 27.6248 20.9493 27.7794 21.28C27.9394 21.6053 28.0194 22.0053 28.0194 22.48C28.0194 22.9867 27.9314 23.4613 27.7554 23.904C27.5848 24.3467 27.3341 24.7333 27.0034 25.064C26.6728 25.3947 26.2648 25.656 25.7794 25.848C25.2994 26.0347 24.7528 26.128 24.1394 26.128C23.7714 26.128 23.4141 26.0907 23.0674 26.016C22.7208 25.9467 22.3928 25.848 22.0834 25.72C21.7741 25.5867 21.4834 25.4293 21.2114 25.248C20.9448 25.0613 20.7048 24.8533 20.4914 24.624L20.9794 23.808C21.0274 23.744 21.0834 23.6907 21.1474 23.648C21.2168 23.6053 21.2941 23.584 21.3794 23.584C21.4914 23.584 21.6194 23.6427 21.7634 23.76C21.9128 23.8773 22.0941 24.008 22.3074 24.152C22.5261 24.2907 22.7848 24.4187 23.0834 24.536C23.3874 24.6533 23.7554 24.712 24.1874 24.712C24.5394 24.712 24.8541 24.6667 25.1314 24.576C25.4088 24.48 25.6408 24.3467 25.8274 24.176C26.0194 24 26.1661 23.7893 26.2674 23.544C26.3688 23.2987 26.4194 23.0267 26.4194 22.728C26.4194 22.392 26.3421 22.1173 26.1874 21.904C26.0328 21.6907 25.8274 21.512 25.5714 21.368C25.3154 21.224 25.0248 21.1013 24.6994 21C24.3741 20.8987 24.0408 20.7947 23.6994 20.688C23.3581 20.576 23.0248 20.448 22.6994 20.304C22.3741 20.16 22.0834 19.9733 21.8274 19.744C21.5714 19.5093 21.3661 19.2187 21.2114 18.872C21.0568 18.52 20.9794 18.088 20.9794 17.576C20.9794 17.1653 21.0594 16.768 21.2194 16.384C21.3794 16 21.6114 15.6613 21.9154 15.368C22.2248 15.0693 22.6034 14.832 23.0514 14.656C23.4994 14.4747 24.0114 14.384 24.5874 14.384C25.2328 14.384 25.8248 14.488 26.3634 14.696C26.9074 14.8987 27.3794 15.192 27.7794 15.576L27.3634 16.384ZM34.3812 22.392C33.7465 22.4133 33.2079 22.464 32.7652 22.544C32.3225 22.6187 31.9625 22.72 31.6852 22.848C31.4079 22.976 31.2079 23.128 31.0852 23.304C30.9625 23.4747 30.9012 23.6667 30.9012 23.88C30.9012 24.0827 30.9332 24.2587 30.9972 24.408C31.0665 24.552 31.1572 24.672 31.2692 24.768C31.3865 24.8587 31.5225 24.9253 31.6772 24.968C31.8319 25.0107 31.9999 25.032 32.1812 25.032C32.4212 25.032 32.6399 25.008 32.8372 24.96C33.0399 24.912 33.2292 24.8453 33.4052 24.76C33.5812 24.6693 33.7492 24.56 33.9092 24.432C34.0692 24.304 34.2265 24.1573 34.3812 23.992V22.392ZM29.8052 19.008C30.2585 18.576 30.7492 18.2533 31.2772 18.04C31.8105 17.8267 32.3945 17.72 33.0292 17.72C33.4932 17.72 33.9039 17.7973 34.2612 17.952C34.6185 18.1013 34.9199 18.312 35.1652 18.584C35.4105 18.856 35.5945 19.1813 35.7172 19.56C35.8452 19.9387 35.9092 20.3573 35.9092 20.816V26H35.2132C35.0585 26 34.9412 25.976 34.8612 25.928C34.7812 25.8747 34.7172 25.7787 34.6692 25.64L34.5012 24.928C34.2932 25.12 34.0879 25.2907 33.8852 25.44C33.6825 25.584 33.4692 25.7093 33.2452 25.816C33.0265 25.9173 32.7919 25.9947 32.5412 26.048C32.2905 26.1013 32.0132 26.128 31.7092 26.128C31.3892 26.128 31.0879 26.0853 30.8052 26C30.5279 25.9093 30.2852 25.7733 30.0772 25.592C29.8692 25.4107 29.7039 25.184 29.5812 24.912C29.4639 24.64 29.4052 24.3227 29.4052 23.96C29.4052 23.64 29.4905 23.3333 29.6612 23.04C29.8372 22.7413 30.1199 22.4747 30.5092 22.24C30.9039 22.0053 31.4159 21.8133 32.0452 21.664C32.6799 21.5147 33.4585 21.4293 34.3812 21.408V20.816C34.3812 20.2027 34.2505 19.744 33.9892 19.44C33.7279 19.136 33.3439 18.984 32.8372 18.984C32.4959 18.984 32.2079 19.0267 31.9732 19.112C31.7439 19.1973 31.5439 19.2933 31.3732 19.4C31.2079 19.5013 31.0612 19.5947 30.9332 19.68C30.8105 19.7653 30.6825 19.808 30.5492 19.808C30.4425 19.808 30.3492 19.7787 30.2692 19.72C30.1945 19.6613 30.1332 19.592 30.0852 19.512L29.8052 19.008ZM39.9176 14.192V26H38.3496V14.192H39.9176ZM47.8497 21.032C47.8497 20.7227 47.8044 20.4373 47.7137 20.176C47.6284 19.9147 47.5004 19.688 47.3297 19.496C47.159 19.304 46.951 19.1547 46.7057 19.048C46.4604 18.9413 46.1777 18.888 45.8577 18.888C45.2017 18.888 44.6844 19.0773 44.3057 19.456C43.9324 19.8347 43.695 20.36 43.5937 21.032H47.8497ZM49.1377 24.84C48.9457 25.064 48.7244 25.2587 48.4737 25.424C48.223 25.584 47.9564 25.7147 47.6737 25.816C47.391 25.9173 47.0977 25.992 46.7937 26.04C46.495 26.088 46.199 26.112 45.9057 26.112C45.3457 26.112 44.8257 26.0187 44.3457 25.832C43.871 25.64 43.4577 25.3627 43.1057 25C42.759 24.632 42.487 24.1787 42.2897 23.64C42.0977 23.096 42.0017 22.472 42.0017 21.768C42.0017 21.2027 42.0897 20.6773 42.2657 20.192C42.4417 19.7013 42.6924 19.2747 43.0177 18.912C43.3484 18.5493 43.751 18.264 44.2257 18.056C44.7004 17.848 45.2337 17.744 45.8257 17.744C46.3217 17.744 46.7777 17.8267 47.1937 17.992C47.615 18.152 47.9777 18.3867 48.2817 18.696C48.5857 19.0053 48.823 19.3867 48.9937 19.84C49.1697 20.2933 49.2577 20.8107 49.2577 21.392C49.2577 21.632 49.231 21.7947 49.1777 21.88C49.1244 21.96 49.0257 22 48.8817 22H43.5537C43.5697 22.4853 43.639 22.9093 43.7617 23.272C43.8844 23.6293 44.0524 23.928 44.2657 24.168C44.4844 24.408 44.743 24.5867 45.0417 24.704C45.3404 24.8213 45.6737 24.88 46.0417 24.88C46.3884 24.88 46.687 24.84 46.9377 24.76C47.1937 24.68 47.4124 24.5947 47.5937 24.504C47.7804 24.408 47.935 24.32 48.0577 24.24C48.1857 24.16 48.2977 24.12 48.3937 24.12C48.5217 24.12 48.6204 24.168 48.6897 24.264L49.1377 24.84ZM56.0464 19.272C56.0038 19.3413 55.9584 19.392 55.9104 19.424C55.8624 19.4507 55.8011 19.464 55.7264 19.464C55.6411 19.464 55.5451 19.4347 55.4384 19.376C55.3371 19.3173 55.2118 19.2533 55.0624 19.184C54.9184 19.1147 54.7478 19.0507 54.5504 18.992C54.3531 18.9333 54.1184 18.904 53.8464 18.904C53.6224 18.904 53.4171 18.9333 53.2304 18.992C53.0491 19.0453 52.8944 19.1227 52.7664 19.224C52.6384 19.32 52.5398 19.4373 52.4704 19.576C52.4011 19.7093 52.3664 19.8533 52.3664 20.008C52.3664 20.2107 52.4251 20.3787 52.5424 20.512C52.6651 20.6453 52.8224 20.76 53.0144 20.856C53.2118 20.952 53.4331 21.04 53.6784 21.12C53.9291 21.1947 54.1824 21.2747 54.4384 21.36C54.6998 21.4453 54.9531 21.544 55.1984 21.656C55.4491 21.7627 55.6704 21.8987 55.8624 22.064C56.0598 22.224 56.2171 22.4187 56.3344 22.648C56.4571 22.8773 56.5184 23.1573 56.5184 23.488C56.5184 23.8667 56.4491 24.2187 56.3104 24.544C56.1771 24.864 55.9771 25.1413 55.7104 25.376C55.4491 25.6107 55.1238 25.7947 54.7344 25.928C54.3451 26.0613 53.8998 26.128 53.3984 26.128C52.8384 26.128 52.3211 26.0347 51.8464 25.848C51.3718 25.6613 50.9744 25.424 50.6544 25.136L51.0224 24.536C51.0651 24.4613 51.1184 24.4053 51.1824 24.368C51.2464 24.3253 51.3318 24.304 51.4384 24.304C51.5398 24.304 51.6438 24.3413 51.7504 24.416C51.8571 24.4907 51.9851 24.5733 52.1344 24.664C52.2838 24.7493 52.4651 24.8293 52.6784 24.904C52.8918 24.9733 53.1584 25.008 53.4784 25.008C53.7451 25.008 53.9771 24.976 54.1744 24.912C54.3718 24.8427 54.5344 24.752 54.6624 24.64C54.7958 24.5227 54.8944 24.3893 54.9584 24.24C55.0224 24.0907 55.0544 23.9333 55.0544 23.768C55.0544 23.5547 54.9931 23.3787 54.8704 23.24C54.7531 23.096 54.5958 22.9733 54.3984 22.872C54.2064 22.7707 53.9851 22.6827 53.7344 22.608C53.4838 22.5333 53.2278 22.4533 52.9664 22.368C52.7051 22.2827 52.4491 22.184 52.1984 22.072C51.9478 21.96 51.7238 21.8187 51.5264 21.648C51.3344 21.4773 51.1771 21.2693 51.0544 21.024C50.9371 20.7787 50.8784 20.48 50.8784 20.128C50.8784 19.8133 50.9424 19.512 51.0704 19.224C51.2038 18.936 51.3931 18.6827 51.6384 18.464C51.8891 18.2453 52.1958 18.072 52.5584 17.944C52.9264 17.8107 53.3451 17.744 53.8144 17.744C54.3531 17.744 54.8384 17.8293 55.2704 18C55.7078 18.1707 56.0811 18.4053 56.3904 18.704L56.0464 19.272ZM59.2316 26C59.0876 26 58.9542 25.9733 58.8316 25.92C58.7142 25.8667 58.6102 25.7947 58.5196 25.704C58.4342 25.608 58.3676 25.496 58.3196 25.368C58.2716 25.24 58.2476 25.1013 58.2476 24.952C58.2476 24.824 58.2716 24.704 58.3196 24.592C58.3676 24.4747 58.4342 24.3733 58.5196 24.288C58.6102 24.2027 58.7169 24.136 58.8396 24.088C58.9622 24.0347 59.0982 24.008 59.2476 24.008C59.4182 24.008 59.5676 24.04 59.6956 24.104C59.8289 24.1627 59.9382 24.248 60.0236 24.36C60.1142 24.4667 60.1809 24.592 60.2236 24.736C60.2662 24.88 60.2876 25.0347 60.2876 25.2C60.2876 25.44 60.2529 25.6933 60.1836 25.96C60.1142 26.2267 60.0129 26.4907 59.8796 26.752C59.7462 27.0133 59.5809 27.2667 59.3836 27.512C59.1862 27.7573 58.9622 27.984 58.7116 28.192L58.4476 27.944C58.3676 27.8693 58.3276 27.7867 58.3276 27.696C58.3276 27.6587 58.3382 27.6187 58.3596 27.576C58.3862 27.5387 58.4182 27.5013 58.4556 27.464C58.5089 27.4053 58.5782 27.328 58.6636 27.232C58.7489 27.136 58.8316 27.024 58.9116 26.896C58.9969 26.7733 59.0742 26.6347 59.1436 26.48C59.2182 26.3307 59.2716 26.1707 59.3036 26H59.2316ZM75.2147 23.536C75.3107 23.536 75.3934 23.5733 75.4627 23.648L76.1347 24.384C75.6654 24.9387 75.092 25.368 74.4147 25.672C73.7427 25.976 72.932 26.128 71.9827 26.128C71.1507 26.128 70.396 25.984 69.7187 25.696C69.0467 25.408 68.4707 25.0053 67.9907 24.488C67.516 23.9707 67.148 23.352 66.8867 22.632C66.6254 21.912 66.4947 21.12 66.4947 20.256C66.4947 19.392 66.6307 18.6 66.9027 17.88C67.18 17.16 67.5667 16.5413 68.0627 16.024C68.5587 15.5067 69.1507 15.104 69.8387 14.816C70.532 14.528 71.2974 14.384 72.1347 14.384C72.9507 14.384 73.676 14.5173 74.3107 14.784C74.9454 15.0507 75.4974 15.4053 75.9667 15.848L75.4067 16.64C75.3694 16.6987 75.3214 16.7467 75.2627 16.784C75.2094 16.8213 75.1374 16.84 75.0467 16.84C74.9454 16.84 74.8254 16.7893 74.6867 16.688C74.5534 16.5867 74.3747 16.4747 74.1507 16.352C73.932 16.224 73.66 16.1093 73.3347 16.008C73.0094 15.9067 72.604 15.856 72.1187 15.856C71.548 15.856 71.0254 15.9573 70.5507 16.16C70.076 16.3573 69.6654 16.6453 69.3187 17.024C68.9774 17.3973 68.7107 17.8587 68.5187 18.408C68.332 18.952 68.2387 19.568 68.2387 20.256C68.2387 20.9547 68.3374 21.576 68.5347 22.12C68.732 22.664 69.004 23.1253 69.3507 23.504C69.6974 23.8827 70.1054 24.1707 70.5747 24.368C71.044 24.5653 71.5507 24.664 72.0947 24.664C72.4254 24.664 72.7214 24.6453 72.9827 24.608C73.2494 24.5653 73.492 24.504 73.7107 24.424C73.9347 24.344 74.1454 24.2427 74.3427 24.12C74.54 23.992 74.7347 23.84 74.9267 23.664C74.9694 23.6267 75.0147 23.5973 75.0627 23.576C75.1107 23.5493 75.1614 23.536 75.2147 23.536ZM84.4819 17.872V26H83.5459C83.3326 26 83.1939 25.896 83.1299 25.688L83.0179 24.872C82.8419 25.0587 82.6579 25.2293 82.4659 25.384C82.2739 25.5387 82.0686 25.672 81.8499 25.784C81.6313 25.8907 81.3993 25.9733 81.1539 26.032C80.9086 26.096 80.6446 26.128 80.3619 26.128C79.9139 26.128 79.5193 26.0533 79.1779 25.904C78.8419 25.7547 78.5593 25.5467 78.3299 25.28C78.1006 25.008 77.9273 24.6827 77.8099 24.304C77.6926 23.9253 77.6339 23.5067 77.6339 23.048V17.872H79.2019V23.048C79.2019 23.6293 79.3353 24.0827 79.6019 24.408C79.8686 24.728 80.2766 24.888 80.8259 24.888C81.2259 24.888 81.5993 24.7947 81.9459 24.608C82.2926 24.416 82.6179 24.1547 82.9219 23.824V17.872H84.4819ZM91.7714 19.272C91.7288 19.3413 91.6834 19.392 91.6354 19.424C91.5874 19.4507 91.5261 19.464 91.4514 19.464C91.3661 19.464 91.2701 19.4347 91.1634 19.376C91.0621 19.3173 90.9368 19.2533 90.7874 19.184C90.6434 19.1147 90.4728 19.0507 90.2754 18.992C90.0781 18.9333 89.8434 18.904 89.5714 18.904C89.3474 18.904 89.1421 18.9333 88.9554 18.992C88.7741 19.0453 88.6194 19.1227 88.4914 19.224C88.3634 19.32 88.2648 19.4373 88.1954 19.576C88.1261 19.7093 88.0914 19.8533 88.0914 20.008C88.0914 20.2107 88.1501 20.3787 88.2674 20.512C88.3901 20.6453 88.5474 20.76 88.7394 20.856C88.9368 20.952 89.1581 21.04 89.4034 21.12C89.6541 21.1947 89.9074 21.2747 90.1634 21.36C90.4248 21.4453 90.6781 21.544 90.9234 21.656C91.1741 21.7627 91.3954 21.8987 91.5874 22.064C91.7848 22.224 91.9421 22.4187 92.0594 22.648C92.1821 22.8773 92.2434 23.1573 92.2434 23.488C92.2434 23.8667 92.1741 24.2187 92.0354 24.544C91.9021 24.864 91.7021 25.1413 91.4354 25.376C91.1741 25.6107 90.8488 25.7947 90.4594 25.928C90.0701 26.0613 89.6248 26.128 89.1234 26.128C88.5634 26.128 88.0461 26.0347 87.5714 25.848C87.0968 25.6613 86.6994 25.424 86.3794 25.136L86.7474 24.536C86.7901 24.4613 86.8434 24.4053 86.9074 24.368C86.9714 24.3253 87.0568 24.304 87.1634 24.304C87.2648 24.304 87.3688 24.3413 87.4754 24.416C87.5821 24.4907 87.7101 24.5733 87.8594 24.664C88.0088 24.7493 88.1901 24.8293 88.4034 24.904C88.6168 24.9733 88.8834 25.008 89.2034 25.008C89.4701 25.008 89.7021 24.976 89.8994 24.912C90.0968 24.8427 90.2594 24.752 90.3874 24.64C90.5208 24.5227 90.6194 24.3893 90.6834 24.24C90.7474 24.0907 90.7794 23.9333 90.7794 23.768C90.7794 23.5547 90.7181 23.3787 90.5954 23.24C90.4781 23.096 90.3208 22.9733 90.1234 22.872C89.9314 22.7707 89.7101 22.6827 89.4594 22.608C89.2088 22.5333 88.9528 22.4533 88.6914 22.368C88.4301 22.2827 88.1741 22.184 87.9234 22.072C87.6728 21.96 87.4488 21.8187 87.2514 21.648C87.0594 21.4773 86.9021 21.2693 86.7794 21.024C86.6621 20.7787 86.6034 20.48 86.6034 20.128C86.6034 19.8133 86.6674 19.512 86.7954 19.224C86.9288 18.936 87.1181 18.6827 87.3634 18.464C87.6141 18.2453 87.9208 18.072 88.2834 17.944C88.6514 17.8107 89.0701 17.744 89.5394 17.744C90.0781 17.744 90.5634 17.8293 90.9954 18C91.4328 18.1707 91.8061 18.4053 92.1154 18.704L91.7714 19.272ZM96.7966 26.128C96.1406 26.128 95.6339 25.944 95.2766 25.576C94.9246 25.208 94.7486 24.6827 94.7486 24V19.136H93.8046C93.7139 19.136 93.6366 19.1093 93.5726 19.056C93.5139 18.9973 93.4846 18.912 93.4846 18.8V18.168L94.8046 17.984L95.1566 15.56C95.1779 15.4693 95.2179 15.4 95.2766 15.352C95.3406 15.2987 95.4206 15.272 95.5166 15.272H96.3086V18H98.6126V19.136H96.3086V23.896C96.3086 24.216 96.3859 24.456 96.5406 24.616C96.7006 24.7707 96.9032 24.848 97.1486 24.848C97.2926 24.848 97.4152 24.8293 97.5166 24.792C97.6232 24.7547 97.7139 24.7147 97.7886 24.672C97.8632 24.624 97.9272 24.5813 97.9806 24.544C98.0339 24.5067 98.0819 24.488 98.1246 24.488C98.1779 24.488 98.2179 24.5013 98.2446 24.528C98.2766 24.5493 98.3086 24.5867 98.3406 24.64L98.8046 25.392C98.5486 25.6267 98.2446 25.808 97.8926 25.936C97.5406 26.064 97.1752 26.128 96.7966 26.128ZM103.787 17.744C104.384 17.744 104.923 17.8427 105.403 18.04C105.888 18.232 106.299 18.512 106.635 18.88C106.976 19.2427 107.237 19.6827 107.419 20.2C107.6 20.712 107.691 21.288 107.691 21.928C107.691 22.568 107.6 23.1467 107.419 23.664C107.237 24.1813 106.976 24.6213 106.635 24.984C106.299 25.3467 105.888 25.6267 105.403 25.824C104.923 26.016 104.384 26.112 103.787 26.112C103.184 26.112 102.64 26.016 102.155 25.824C101.675 25.6267 101.264 25.3467 100.923 24.984C100.581 24.6213 100.317 24.1813 100.131 23.664C99.9492 23.1467 99.8586 22.568 99.8586 21.928C99.8586 21.288 99.9492 20.712 100.131 20.2C100.317 19.6827 100.581 19.2427 100.923 18.88C101.264 18.512 101.675 18.232 102.155 18.04C102.64 17.8427 103.184 17.744 103.787 17.744ZM103.787 24.896C104.555 24.896 105.128 24.6373 105.507 24.12C105.885 23.6027 106.075 22.8747 106.075 21.936C106.075 20.9973 105.885 20.2693 105.507 19.752C105.128 19.2293 104.555 18.968 103.787 18.968C103.008 18.968 102.427 19.2293 102.043 19.752C101.664 20.2693 101.475 20.9973 101.475 21.936C101.475 22.8747 101.664 23.6027 102.043 24.12C102.427 24.6373 103.008 24.896 103.787 24.896ZM109.752 26V17.872H110.688C110.907 17.872 111.043 17.976 111.096 18.184L111.208 18.96C111.507 18.6027 111.837 18.312 112.2 18.088C112.568 17.8587 112.997 17.744 113.488 17.744C114.027 17.744 114.464 17.8933 114.8 18.192C115.136 18.4853 115.381 18.8853 115.536 19.392C115.653 19.104 115.805 18.856 115.992 18.648C116.179 18.44 116.387 18.2693 116.616 18.136C116.845 18.0027 117.088 17.904 117.344 17.84C117.605 17.776 117.869 17.744 118.136 17.744C118.568 17.744 118.952 17.8133 119.288 17.952C119.629 18.0853 119.917 18.2827 120.152 18.544C120.387 18.8053 120.565 19.128 120.688 19.512C120.811 19.896 120.872 20.3333 120.872 20.824V26H119.304V20.824C119.304 20.216 119.171 19.7573 118.904 19.448C118.643 19.1387 118.259 18.984 117.752 18.984C117.528 18.984 117.315 19.024 117.112 19.104C116.909 19.1787 116.731 19.2933 116.576 19.448C116.427 19.6027 116.307 19.7947 116.216 20.024C116.131 20.2533 116.088 20.52 116.088 20.824V26H114.52V20.824C114.52 20.1947 114.395 19.7307 114.144 19.432C113.893 19.1333 113.525 18.984 113.04 18.984C112.704 18.984 112.392 19.072 112.104 19.248C111.816 19.424 111.552 19.664 111.312 19.968V26H109.752ZM128.675 21.032C128.675 20.7227 128.629 20.4373 128.539 20.176C128.453 19.9147 128.325 19.688 128.155 19.496C127.984 19.304 127.776 19.1547 127.531 19.048C127.285 18.9413 127.003 18.888 126.683 18.888C126.027 18.888 125.509 19.0773 125.131 19.456C124.757 19.8347 124.52 20.36 124.419 21.032H128.675ZM129.963 24.84C129.771 25.064 129.549 25.2587 129.299 25.424C129.048 25.584 128.781 25.7147 128.499 25.816C128.216 25.9173 127.923 25.992 127.619 26.04C127.32 26.088 127.024 26.112 126.731 26.112C126.171 26.112 125.651 26.0187 125.171 25.832C124.696 25.64 124.283 25.3627 123.931 25C123.584 24.632 123.312 24.1787 123.115 23.64C122.923 23.096 122.827 22.472 122.827 21.768C122.827 21.2027 122.915 20.6773 123.091 20.192C123.267 19.7013 123.517 19.2747 123.843 18.912C124.173 18.5493 124.576 18.264 125.051 18.056C125.525 17.848 126.059 17.744 126.651 17.744C127.147 17.744 127.603 17.8267 128.019 17.992C128.44 18.152 128.803 18.3867 129.107 18.696C129.411 19.0053 129.648 19.3867 129.819 19.84C129.995 20.2933 130.083 20.8107 130.083 21.392C130.083 21.632 130.056 21.7947 130.003 21.88C129.949 21.96 129.851 22 129.707 22H124.379C124.395 22.4853 124.464 22.9093 124.587 23.272C124.709 23.6293 124.877 23.928 125.091 24.168C125.309 24.408 125.568 24.5867 125.867 24.704C126.165 24.8213 126.499 24.88 126.867 24.88C127.213 24.88 127.512 24.84 127.763 24.76C128.019 24.68 128.237 24.5947 128.419 24.504C128.605 24.408 128.76 24.32 128.883 24.24C129.011 24.16 129.123 24.12 129.219 24.12C129.347 24.12 129.445 24.168 129.515 24.264L129.963 24.84ZM133.551 19.432C133.813 18.8987 134.127 18.48 134.495 18.176C134.863 17.872 135.306 17.72 135.823 17.72C135.999 17.72 136.165 17.7413 136.319 17.784C136.479 17.8213 136.618 17.88 136.735 17.96L136.631 19.136C136.594 19.28 136.506 19.352 136.367 19.352C136.293 19.352 136.181 19.3387 136.031 19.312C135.882 19.28 135.722 19.264 135.551 19.264C135.301 19.264 135.079 19.3013 134.887 19.376C134.695 19.4453 134.522 19.552 134.367 19.696C134.218 19.8347 134.085 20.008 133.967 20.216C133.85 20.4187 133.741 20.6507 133.639 20.912V26H132.079V17.872H132.975C133.146 17.872 133.261 17.904 133.319 17.968C133.383 18.0267 133.429 18.1333 133.455 18.288L133.551 19.432ZM148.546 16.384C148.493 16.4747 148.437 16.5413 148.378 16.584C148.319 16.6267 148.245 16.648 148.154 16.648C148.058 16.648 147.949 16.6053 147.826 16.52C147.703 16.4293 147.549 16.3307 147.362 16.224C147.181 16.112 146.962 16.0133 146.706 15.928C146.45 15.8373 146.143 15.792 145.786 15.792C145.45 15.792 145.154 15.8373 144.898 15.928C144.647 16.0133 144.437 16.1333 144.266 16.288C144.095 16.4373 143.965 16.616 143.874 16.824C143.789 17.0267 143.746 17.248 143.746 17.488C143.746 17.7973 143.823 18.0533 143.978 18.256C144.138 18.4587 144.346 18.632 144.602 18.776C144.858 18.92 145.149 19.0453 145.474 19.152C145.799 19.2587 146.133 19.3707 146.474 19.488C146.815 19.6 147.149 19.7307 147.474 19.88C147.799 20.0293 148.09 20.2187 148.346 20.448C148.602 20.672 148.807 20.9493 148.962 21.28C149.122 21.6053 149.202 22.0053 149.202 22.48C149.202 22.9867 149.114 23.4613 148.938 23.904C148.767 24.3467 148.517 24.7333 148.186 25.064C147.855 25.3947 147.447 25.656 146.962 25.848C146.482 26.0347 145.935 26.128 145.322 26.128C144.954 26.128 144.597 26.0907 144.25 26.016C143.903 25.9467 143.575 25.848 143.266 25.72C142.957 25.5867 142.666 25.4293 142.394 25.248C142.127 25.0613 141.887 24.8533 141.674 24.624L142.162 23.808C142.21 23.744 142.266 23.6907 142.33 23.648C142.399 23.6053 142.477 23.584 142.562 23.584C142.674 23.584 142.802 23.6427 142.946 23.76C143.095 23.8773 143.277 24.008 143.49 24.152C143.709 24.2907 143.967 24.4187 144.266 24.536C144.57 24.6533 144.938 24.712 145.37 24.712C145.722 24.712 146.037 24.6667 146.314 24.576C146.591 24.48 146.823 24.3467 147.01 24.176C147.202 24 147.349 23.7893 147.45 23.544C147.551 23.2987 147.602 23.0267 147.602 22.728C147.602 22.392 147.525 22.1173 147.37 21.904C147.215 21.6907 147.01 21.512 146.754 21.368C146.498 21.224 146.207 21.1013 145.882 21C145.557 20.8987 145.223 20.7947 144.882 20.688C144.541 20.576 144.207 20.448 143.882 20.304C143.557 20.16 143.266 19.9733 143.01 19.744C142.754 19.5093 142.549 19.2187 142.394 18.872C142.239 18.52 142.162 18.088 142.162 17.576C142.162 17.1653 142.242 16.768 142.402 16.384C142.562 16 142.794 15.6613 143.098 15.368C143.407 15.0693 143.786 14.832 144.234 14.656C144.682 14.4747 145.194 14.384 145.77 14.384C146.415 14.384 147.007 14.488 147.546 14.696C148.09 14.8987 148.562 15.192 148.962 15.576L148.546 16.384ZM157.909 17.872V26H156.973C156.759 26 156.621 25.896 156.557 25.688L156.445 24.872C156.269 25.0587 156.085 25.2293 155.893 25.384C155.701 25.5387 155.495 25.672 155.277 25.784C155.058 25.8907 154.826 25.9733 154.581 26.032C154.335 26.096 154.071 26.128 153.789 26.128C153.341 26.128 152.946 26.0533 152.605 25.904C152.269 25.7547 151.986 25.5467 151.757 25.28C151.527 25.008 151.354 24.6827 151.237 24.304C151.119 23.9253 151.061 23.5067 151.061 23.048V17.872H152.629V23.048C152.629 23.6293 152.762 24.0827 153.029 24.408C153.295 24.728 153.703 24.888 154.253 24.888C154.653 24.888 155.026 24.7947 155.373 24.608C155.719 24.416 156.045 24.1547 156.349 23.824V17.872H157.909ZM166.102 19.392C166.054 19.4507 166.006 19.4987 165.958 19.536C165.916 19.568 165.852 19.584 165.766 19.584C165.681 19.584 165.59 19.552 165.494 19.488C165.404 19.4187 165.286 19.3467 165.142 19.272C165.004 19.192 164.833 19.12 164.63 19.056C164.433 18.9867 164.188 18.952 163.894 18.952C163.51 18.952 163.172 19.0213 162.878 19.16C162.585 19.2987 162.34 19.496 162.142 19.752C161.95 20.008 161.804 20.32 161.702 20.688C161.601 21.056 161.55 21.4693 161.55 21.928C161.55 22.4027 161.604 22.8267 161.71 23.2C161.817 23.568 161.969 23.88 162.166 24.136C162.364 24.3867 162.604 24.5787 162.886 24.712C163.169 24.84 163.484 24.904 163.83 24.904C164.166 24.904 164.444 24.864 164.662 24.784C164.881 24.6987 165.062 24.608 165.206 24.512C165.35 24.416 165.47 24.328 165.566 24.248C165.662 24.1627 165.761 24.12 165.862 24.12C165.99 24.12 166.089 24.168 166.158 24.264L166.606 24.84C166.42 25.0693 166.209 25.264 165.974 25.424C165.745 25.584 165.5 25.7147 165.238 25.816C164.977 25.9173 164.702 25.992 164.414 26.04C164.132 26.088 163.844 26.112 163.55 26.112C163.044 26.112 162.569 26.0187 162.126 25.832C161.689 25.6453 161.308 25.3733 160.982 25.016C160.662 24.6587 160.409 24.2213 160.222 23.704C160.036 23.1813 159.942 22.5893 159.942 21.928C159.942 21.3253 160.025 20.768 160.19 20.256C160.361 19.744 160.609 19.304 160.934 18.936C161.265 18.5627 161.67 18.272 162.15 18.064C162.63 17.8507 163.18 17.744 163.798 17.744C164.38 17.744 164.892 17.8373 165.334 18.024C165.777 18.2107 166.172 18.4747 166.518 18.816L166.102 19.392ZM173.938 19.392C173.89 19.4507 173.842 19.4987 173.794 19.536C173.751 19.568 173.687 19.584 173.602 19.584C173.517 19.584 173.426 19.552 173.33 19.488C173.239 19.4187 173.122 19.3467 172.978 19.272C172.839 19.192 172.669 19.12 172.466 19.056C172.269 18.9867 172.023 18.952 171.73 18.952C171.346 18.952 171.007 19.0213 170.714 19.16C170.421 19.2987 170.175 19.496 169.978 19.752C169.786 20.008 169.639 20.32 169.538 20.688C169.437 21.056 169.386 21.4693 169.386 21.928C169.386 22.4027 169.439 22.8267 169.546 23.2C169.653 23.568 169.805 23.88 170.002 24.136C170.199 24.3867 170.439 24.5787 170.722 24.712C171.005 24.84 171.319 24.904 171.666 24.904C172.002 24.904 172.279 24.864 172.498 24.784C172.717 24.6987 172.898 24.608 173.042 24.512C173.186 24.416 173.306 24.328 173.402 24.248C173.498 24.1627 173.597 24.12 173.698 24.12C173.826 24.12 173.925 24.168 173.994 24.264L174.442 24.84C174.255 25.0693 174.045 25.264 173.81 25.424C173.581 25.584 173.335 25.7147 173.074 25.816C172.813 25.9173 172.538 25.992 172.25 26.04C171.967 26.088 171.679 26.112 171.386 26.112C170.879 26.112 170.405 26.0187 169.962 25.832C169.525 25.6453 169.143 25.3733 168.818 25.016C168.498 24.6587 168.245 24.2213 168.058 23.704C167.871 23.1813 167.778 22.5893 167.778 21.928C167.778 21.3253 167.861 20.768 168.026 20.256C168.197 19.744 168.445 19.304 168.77 18.936C169.101 18.5627 169.506 18.272 169.986 18.064C170.466 17.8507 171.015 17.744 171.634 17.744C172.215 17.744 172.727 17.8373 173.17 18.024C173.613 18.2107 174.007 18.4747 174.354 18.816L173.938 19.392ZM181.462 21.032C181.462 20.7227 181.416 20.4373 181.326 20.176C181.24 19.9147 181.112 19.688 180.942 19.496C180.771 19.304 180.563 19.1547 180.318 19.048C180.072 18.9413 179.79 18.888 179.47 18.888C178.814 18.888 178.296 19.0773 177.918 19.456C177.544 19.8347 177.307 20.36 177.206 21.032H181.462ZM182.75 24.84C182.558 25.064 182.336 25.2587 182.086 25.424C181.835 25.584 181.568 25.7147 181.286 25.816C181.003 25.9173 180.71 25.992 180.406 26.04C180.107 26.088 179.811 26.112 179.518 26.112C178.958 26.112 178.438 26.0187 177.958 25.832C177.483 25.64 177.07 25.3627 176.718 25C176.371 24.632 176.099 24.1787 175.902 23.64C175.71 23.096 175.614 22.472 175.614 21.768C175.614 21.2027 175.702 20.6773 175.878 20.192C176.054 19.7013 176.304 19.2747 176.63 18.912C176.96 18.5493 177.363 18.264 177.838 18.056C178.312 17.848 178.846 17.744 179.438 17.744C179.934 17.744 180.39 17.8267 180.806 17.992C181.227 18.152 181.59 18.3867 181.894 18.696C182.198 19.0053 182.435 19.3867 182.606 19.84C182.782 20.2933 182.87 20.8107 182.87 21.392C182.87 21.632 182.843 21.7947 182.79 21.88C182.736 21.96 182.638 22 182.494 22H177.166C177.182 22.4853 177.251 22.9093 177.374 23.272C177.496 23.6293 177.664 23.928 177.878 24.168C178.096 24.408 178.355 24.5867 178.654 24.704C178.952 24.8213 179.286 24.88 179.654 24.88C180 24.88 180.299 24.84 180.55 24.76C180.806 24.68 181.024 24.5947 181.206 24.504C181.392 24.408 181.547 24.32 181.67 24.24C181.798 24.16 181.91 24.12 182.006 24.12C182.134 24.12 182.232 24.168 182.302 24.264L182.75 24.84ZM189.658 19.272C189.616 19.3413 189.57 19.392 189.522 19.424C189.474 19.4507 189.413 19.464 189.338 19.464C189.253 19.464 189.157 19.4347 189.05 19.376C188.949 19.3173 188.824 19.2533 188.674 19.184C188.53 19.1147 188.36 19.0507 188.162 18.992C187.965 18.9333 187.73 18.904 187.458 18.904C187.234 18.904 187.029 18.9333 186.842 18.992C186.661 19.0453 186.506 19.1227 186.378 19.224C186.25 19.32 186.152 19.4373 186.082 19.576C186.013 19.7093 185.978 19.8533 185.978 20.008C185.978 20.2107 186.037 20.3787 186.154 20.512C186.277 20.6453 186.434 20.76 186.626 20.856C186.824 20.952 187.045 21.04 187.29 21.12C187.541 21.1947 187.794 21.2747 188.05 21.36C188.312 21.4453 188.565 21.544 188.81 21.656C189.061 21.7627 189.282 21.8987 189.474 22.064C189.672 22.224 189.829 22.4187 189.946 22.648C190.069 22.8773 190.13 23.1573 190.13 23.488C190.13 23.8667 190.061 24.2187 189.922 24.544C189.789 24.864 189.589 25.1413 189.322 25.376C189.061 25.6107 188.736 25.7947 188.346 25.928C187.957 26.0613 187.512 26.128 187.01 26.128C186.45 26.128 185.933 26.0347 185.458 25.848C184.984 25.6613 184.586 25.424 184.266 25.136L184.634 24.536C184.677 24.4613 184.73 24.4053 184.794 24.368C184.858 24.3253 184.944 24.304 185.05 24.304C185.152 24.304 185.256 24.3413 185.362 24.416C185.469 24.4907 185.597 24.5733 185.746 24.664C185.896 24.7493 186.077 24.8293 186.29 24.904C186.504 24.9733 186.77 25.008 187.09 25.008C187.357 25.008 187.589 24.976 187.786 24.912C187.984 24.8427 188.146 24.752 188.274 24.64C188.408 24.5227 188.506 24.3893 188.57 24.24C188.634 24.0907 188.666 23.9333 188.666 23.768C188.666 23.5547 188.605 23.3787 188.482 23.24C188.365 23.096 188.208 22.9733 188.01 22.872C187.818 22.7707 187.597 22.6827 187.346 22.608C187.096 22.5333 186.84 22.4533 186.578 22.368C186.317 22.2827 186.061 22.184 185.81 22.072C185.56 21.96 185.336 21.8187 185.138 21.648C184.946 21.4773 184.789 21.2693 184.666 21.024C184.549 20.7787 184.49 20.48 184.49 20.128C184.49 19.8133 184.554 19.512 184.682 19.224C184.816 18.936 185.005 18.6827 185.25 18.464C185.501 18.2453 185.808 18.072 186.17 17.944C186.538 17.8107 186.957 17.744 187.426 17.744C187.965 17.744 188.45 17.8293 188.882 18C189.32 18.1707 189.693 18.4053 190.002 18.704L189.658 19.272ZM196.931 19.272C196.889 19.3413 196.843 19.392 196.795 19.424C196.747 19.4507 196.686 19.464 196.611 19.464C196.526 19.464 196.43 19.4347 196.323 19.376C196.222 19.3173 196.097 19.2533 195.947 19.184C195.803 19.1147 195.633 19.0507 195.435 18.992C195.238 18.9333 195.003 18.904 194.731 18.904C194.507 18.904 194.302 18.9333 194.115 18.992C193.934 19.0453 193.779 19.1227 193.651 19.224C193.523 19.32 193.425 19.4373 193.355 19.576C193.286 19.7093 193.251 19.8533 193.251 20.008C193.251 20.2107 193.31 20.3787 193.427 20.512C193.55 20.6453 193.707 20.76 193.899 20.856C194.097 20.952 194.318 21.04 194.563 21.12C194.814 21.1947 195.067 21.2747 195.323 21.36C195.585 21.4453 195.838 21.544 196.083 21.656C196.334 21.7627 196.555 21.8987 196.747 22.064C196.945 22.224 197.102 22.4187 197.219 22.648C197.342 22.8773 197.403 23.1573 197.403 23.488C197.403 23.8667 197.334 24.2187 197.195 24.544C197.062 24.864 196.862 25.1413 196.595 25.376C196.334 25.6107 196.009 25.7947 195.619 25.928C195.23 26.0613 194.785 26.128 194.283 26.128C193.723 26.128 193.206 26.0347 192.731 25.848C192.257 25.6613 191.859 25.424 191.539 25.136L191.907 24.536C191.95 24.4613 192.003 24.4053 192.067 24.368C192.131 24.3253 192.217 24.304 192.323 24.304C192.425 24.304 192.529 24.3413 192.635 24.416C192.742 24.4907 192.87 24.5733 193.019 24.664C193.169 24.7493 193.35 24.8293 193.563 24.904C193.777 24.9733 194.043 25.008 194.363 25.008C194.63 25.008 194.862 24.976 195.059 24.912C195.257 24.8427 195.419 24.752 195.547 24.64C195.681 24.5227 195.779 24.3893 195.843 24.24C195.907 24.0907 195.939 23.9333 195.939 23.768C195.939 23.5547 195.878 23.3787 195.755 23.24C195.638 23.096 195.481 22.9733 195.283 22.872C195.091 22.7707 194.87 22.6827 194.619 22.608C194.369 22.5333 194.113 22.4533 193.851 22.368C193.59 22.2827 193.334 22.184 193.083 22.072C192.833 21.96 192.609 21.8187 192.411 21.648C192.219 21.4773 192.062 21.2693 191.939 21.024C191.822 20.7787 191.763 20.48 191.763 20.128C191.763 19.8133 191.827 19.512 191.955 19.224C192.089 18.936 192.278 18.6827 192.523 18.464C192.774 18.2453 193.081 18.072 193.443 17.944C193.811 17.8107 194.23 17.744 194.699 17.744C195.238 17.744 195.723 17.8293 196.155 18C196.593 18.1707 196.966 18.4053 197.275 18.704L196.931 19.272Z" fill="#3C3C6F"/>
<defs>
<filter id="filter0_b_450_5826" x="-30" y="-30" width="278" height="98" filterUnits="userSpaceOnUse" color-interpolation-filters="sRGB">
<feFlood flood-opacity="0" result="BackgroundImageFix"/>
<feGaussianBlur in="BackgroundImageFix" stdDeviation="15"/>
<feComposite in2="SourceAlpha" operator="in" result="effect1_backgroundBlur_450_5826"/>
<feBlend mode="normal" in="SourceGraphic" in2="effect1_backgroundBlur_450_5826" result="shape"/>
</filter>
<linearGradient id="paint0_linear_450_5826" x1="15.3913" y1="-6.09434" x2="97.1512" y2="10.8612" gradientUnits="userSpaceOnUse">
<stop stop-color="white"/>
<stop offset="1" stop-color="white" stop-opacity="0"/>
</linearGradient>
</defs>
</svg>
