<svg width="339" height="86" viewBox="0 0 339 86" fill="none" xmlns="http://www.w3.org/2000/svg">
<g filter="url(#filter0_b_450_5848)">
<path d="M0 39C0 34.5817 3.58172 31 8 31H330.865C335.284 31 338.865 34.5817 338.865 39V78C338.865 82.4183 335.284 86 330.865 86H8C3.58172 86 0 82.4183 0 78V39Z" fill="white" fill-opacity="0.4"/>
<path d="M1 39C1 35.134 4.13401 32 8 32H330.865C334.731 32 337.865 35.134 337.865 39V78C337.865 81.866 334.731 85 330.865 85H8C4.13401 85 1 81.866 1 78V39Z" stroke="url(#paint0_linear_450_5848)" stroke-opacity="0.9" stroke-width="2"/>
</g>
<path d="M317.651 54.95L311.131 61.47C310.361 62.24 309.101 62.24 308.331 61.47L301.811 54.95" stroke="#8686A1" stroke-width="1.5" stroke-miterlimit="10" stroke-linecap="round" stroke-linejoin="round"/>
<path d="M29.0438 62.536C29.1398 62.536 29.2224 62.5733 29.2918 62.648L29.9638 63.384C29.4944 63.9387 28.9211 64.368 28.2438 64.672C27.5718 64.976 26.7611 65.128 25.8118 65.128C24.9798 65.128 24.2251 64.984 23.5478 64.696C22.8758 64.408 22.2998 64.0053 21.8198 63.488C21.3451 62.9707 20.9771 62.352 20.7158 61.632C20.4544 60.912 20.3238 60.12 20.3238 59.256C20.3238 58.392 20.4598 57.6 20.7318 56.88C21.0091 56.16 21.3958 55.5413 21.8918 55.024C22.3878 54.5067 22.9798 54.104 23.6678 53.816C24.3611 53.528 25.1264 53.384 25.9638 53.384C26.7798 53.384 27.5051 53.5173 28.1398 53.784C28.7744 54.0507 29.3264 54.4053 29.7958 54.848L29.2358 55.64C29.1984 55.6987 29.1504 55.7467 29.0918 55.784C29.0384 55.8213 28.9664 55.84 28.8758 55.84C28.7744 55.84 28.6544 55.7893 28.5158 55.688C28.3824 55.5867 28.2038 55.4747 27.9798 55.352C27.7611 55.224 27.4891 55.1093 27.1638 55.008C26.8384 54.9067 26.4331 54.856 25.9478 54.856C25.3771 54.856 24.8544 54.9573 24.3798 55.16C23.9051 55.3573 23.4944 55.6453 23.1478 56.024C22.8064 56.3973 22.5398 56.8587 22.3478 57.408C22.1611 57.952 22.0678 58.568 22.0678 59.256C22.0678 59.9547 22.1664 60.576 22.3638 61.12C22.5611 61.664 22.8331 62.1253 23.1798 62.504C23.5264 62.8827 23.9344 63.1707 24.4038 63.368C24.8731 63.5653 25.3798 63.664 25.9238 63.664C26.2544 63.664 26.5504 63.6453 26.8118 63.608C27.0784 63.5653 27.3211 63.504 27.5398 63.424C27.7638 63.344 27.9744 63.2427 28.1718 63.12C28.3691 62.992 28.5638 62.84 28.7558 62.664C28.7984 62.6267 28.8438 62.5973 28.8918 62.576C28.9398 62.5493 28.9904 62.536 29.0438 62.536ZM34.9838 56.744C35.5811 56.744 36.1198 56.8427 36.5998 57.04C37.0851 57.232 37.4958 57.512 37.8318 57.88C38.1731 58.2427 38.4344 58.6827 38.6158 59.2C38.7971 59.712 38.8878 60.288 38.8878 60.928C38.8878 61.568 38.7971 62.1467 38.6158 62.664C38.4344 63.1813 38.1731 63.6213 37.8318 63.984C37.4958 64.3467 37.0851 64.6267 36.5998 64.824C36.1198 65.016 35.5811 65.112 34.9838 65.112C34.3811 65.112 33.8371 65.016 33.3518 64.824C32.8718 64.6267 32.4611 64.3467 32.1198 63.984C31.7784 63.6213 31.5144 63.1813 31.3278 62.664C31.1464 62.1467 31.0558 61.568 31.0558 60.928C31.0558 60.288 31.1464 59.712 31.3278 59.2C31.5144 58.6827 31.7784 58.2427 32.1198 57.88C32.4611 57.512 32.8718 57.232 33.3518 57.04C33.8371 56.8427 34.3811 56.744 34.9838 56.744ZM34.9838 63.896C35.7518 63.896 36.3251 63.6373 36.7038 63.12C37.0824 62.6027 37.2718 61.8747 37.2718 60.936C37.2718 59.9973 37.0824 59.2693 36.7038 58.752C36.3251 58.2293 35.7518 57.968 34.9838 57.968C34.2051 57.968 33.6238 58.2293 33.2398 58.752C32.8611 59.2693 32.6718 59.9973 32.6718 60.936C32.6718 61.8747 32.8611 62.6027 33.2398 63.12C33.6238 63.6373 34.2051 63.896 34.9838 63.896ZM47.7091 56.872V65H46.7731C46.5598 65 46.4211 64.896 46.3571 64.688L46.2451 63.872C46.0691 64.0587 45.8851 64.2293 45.6931 64.384C45.5011 64.5387 45.2958 64.672 45.0771 64.784C44.8585 64.8907 44.6265 64.9733 44.3811 65.032C44.1358 65.096 43.8718 65.128 43.5891 65.128C43.1411 65.128 42.7465 65.0533 42.4051 64.904C42.0691 64.7547 41.7865 64.5467 41.5571 64.28C41.3278 64.008 41.1545 63.6827 41.0371 63.304C40.9198 62.9253 40.8611 62.5067 40.8611 62.048V56.872H42.4291V62.048C42.4291 62.6293 42.5625 63.0827 42.8291 63.408C43.0958 63.728 43.5038 63.888 44.0531 63.888C44.4531 63.888 44.8265 63.7947 45.1731 63.608C45.5198 63.416 45.8451 63.1547 46.1491 62.824V56.872H47.7091ZM51.6706 58C51.8466 57.8133 52.0306 57.6427 52.2226 57.488C52.4146 57.3333 52.6173 57.2027 52.8306 57.096C53.0493 56.984 53.2813 56.8987 53.5266 56.84C53.7773 56.776 54.044 56.744 54.3266 56.744C54.7746 56.744 55.1666 56.8187 55.5026 56.968C55.844 57.1173 56.1293 57.328 56.3586 57.6C56.588 57.8667 56.7613 58.1893 56.8786 58.568C56.996 58.9467 57.0546 59.3653 57.0546 59.824V65H55.4866V59.824C55.4866 59.2427 55.3533 58.792 55.0866 58.472C54.82 58.1467 54.412 57.984 53.8626 57.984C53.4626 57.984 53.0866 58.08 52.7346 58.272C52.388 58.4587 52.0653 58.7147 51.7666 59.04V65H50.2066V56.872H51.1426C51.3613 56.872 51.4973 56.976 51.5506 57.184L51.6706 58ZM61.9144 65.128C61.2584 65.128 60.7517 64.944 60.3944 64.576C60.0424 64.208 59.8664 63.6827 59.8664 63V58.136H58.9224C58.8317 58.136 58.7544 58.1093 58.6904 58.056C58.6317 57.9973 58.6024 57.912 58.6024 57.8V57.168L59.9224 56.984L60.2744 54.56C60.2957 54.4693 60.3357 54.4 60.3944 54.352C60.4584 54.2987 60.5384 54.272 60.6344 54.272H61.4264V57H63.7304V58.136H61.4264V62.896C61.4264 63.216 61.5037 63.456 61.6584 63.616C61.8184 63.7707 62.0211 63.848 62.2664 63.848C62.4104 63.848 62.5331 63.8293 62.6344 63.792C62.7411 63.7547 62.8317 63.7147 62.9064 63.672C62.9811 63.624 63.0451 63.5813 63.0984 63.544C63.1517 63.5067 63.1997 63.488 63.2424 63.488C63.2957 63.488 63.3357 63.5013 63.3624 63.528C63.3944 63.5493 63.4264 63.5867 63.4584 63.64L63.9224 64.392C63.6664 64.6267 63.3624 64.808 63.0104 64.936C62.6584 65.064 62.2931 65.128 61.9144 65.128ZM66.9593 58.432C67.2206 57.8987 67.5353 57.48 67.9033 57.176C68.2713 56.872 68.7139 56.72 69.2313 56.72C69.4073 56.72 69.5726 56.7413 69.7273 56.784C69.8873 56.8213 70.0259 56.88 70.1433 56.96L70.0393 58.136C70.0019 58.28 69.9139 58.352 69.7753 58.352C69.7006 58.352 69.5886 58.3387 69.4393 58.312C69.2899 58.28 69.1299 58.264 68.9593 58.264C68.7086 58.264 68.4873 58.3013 68.2953 58.376C68.1033 58.4453 67.9299 58.552 67.7753 58.696C67.6259 58.8347 67.4926 59.008 67.3753 59.216C67.2579 59.4187 67.1486 59.6507 67.0473 59.912V65H65.4873V56.872H66.3833C66.5539 56.872 66.6686 56.904 66.7273 56.968C66.7913 57.0267 66.8366 57.1333 66.8633 57.288L66.9593 58.432ZM78.7706 56.872L74.2586 67.36C74.2106 67.4773 74.1466 67.568 74.0666 67.632C73.9866 67.696 73.8693 67.728 73.7146 67.728H72.5546L74.0426 64.488L70.7066 56.872H72.0666C72.2 56.872 72.304 56.904 72.3786 56.968C72.4533 57.032 72.5066 57.104 72.5386 57.184L74.6026 62.064C74.6453 62.1867 74.6853 62.312 74.7226 62.44C74.7653 62.5627 74.8 62.6853 74.8266 62.808C74.864 62.68 74.904 62.5547 74.9466 62.432C74.9893 62.304 75.0346 62.1787 75.0826 62.056L77.0746 57.184C77.112 57.0933 77.1706 57.0187 77.2506 56.96C77.3306 56.9013 77.4213 56.872 77.5226 56.872H78.7706ZM93.9878 53.512V65H93.1238C92.9904 65 92.8784 64.976 92.7878 64.928C92.7024 64.88 92.6144 64.8027 92.5238 64.696L86.0358 56.304C86.0464 56.448 86.0544 56.5893 86.0598 56.728C86.0704 56.8667 86.0758 56.9973 86.0758 57.12V65H84.5798V53.512H85.4598C85.6091 53.512 85.7211 53.5307 85.7958 53.568C85.8704 53.6 85.9531 53.6773 86.0438 53.8L92.5478 62.2C92.5318 62.0453 92.5184 61.896 92.5078 61.752C92.5024 61.6027 92.4998 61.464 92.4998 61.336V53.512H93.9878ZM100.963 61.392C100.329 61.4133 99.79 61.464 99.3474 61.544C98.9047 61.6187 98.5447 61.72 98.2674 61.848C97.99 61.976 97.79 62.128 97.6674 62.304C97.5447 62.4747 97.4834 62.6667 97.4834 62.88C97.4834 63.0827 97.5154 63.2587 97.5794 63.408C97.6487 63.552 97.7394 63.672 97.8514 63.768C97.9687 63.8587 98.1047 63.9253 98.2594 63.968C98.414 64.0107 98.582 64.032 98.7634 64.032C99.0034 64.032 99.222 64.008 99.4194 63.96C99.622 63.912 99.8114 63.8453 99.9874 63.76C100.163 63.6693 100.331 63.56 100.491 63.432C100.651 63.304 100.809 63.1573 100.963 62.992V61.392ZM96.3874 58.008C96.8407 57.576 97.3314 57.2533 97.8594 57.04C98.3927 56.8267 98.9767 56.72 99.6114 56.72C100.075 56.72 100.486 56.7973 100.843 56.952C101.201 57.1013 101.502 57.312 101.747 57.584C101.993 57.856 102.177 58.1813 102.299 58.56C102.427 58.9387 102.491 59.3573 102.491 59.816V65H101.795C101.641 65 101.523 64.976 101.443 64.928C101.363 64.8747 101.299 64.7787 101.251 64.64L101.083 63.928C100.875 64.12 100.67 64.2907 100.467 64.44C100.265 64.584 100.051 64.7093 99.8274 64.816C99.6087 64.9173 99.374 64.9947 99.1234 65.048C98.8727 65.1013 98.5954 65.128 98.2914 65.128C97.9714 65.128 97.67 65.0853 97.3874 65C97.11 64.9093 96.8674 64.7733 96.6594 64.592C96.4514 64.4107 96.286 64.184 96.1634 63.912C96.046 63.64 95.9874 63.3227 95.9874 62.96C95.9874 62.64 96.0727 62.3333 96.2434 62.04C96.4194 61.7413 96.702 61.4747 97.0914 61.24C97.486 61.0053 97.998 60.8133 98.6274 60.664C99.262 60.5147 100.041 60.4293 100.963 60.408V59.816C100.963 59.2027 100.833 58.744 100.571 58.44C100.31 58.136 99.926 57.984 99.4194 57.984C99.078 57.984 98.79 58.0267 98.5554 58.112C98.326 58.1973 98.126 58.2933 97.9554 58.4C97.79 58.5013 97.6434 58.5947 97.5154 58.68C97.3927 58.7653 97.2647 58.808 97.1314 58.808C97.0247 58.808 96.9314 58.7787 96.8514 58.72C96.7767 58.6613 96.7154 58.592 96.6674 58.512L96.3874 58.008ZM104.9 65V56.872H105.836C106.054 56.872 106.19 56.976 106.244 57.184L106.356 57.96C106.654 57.6027 106.985 57.312 107.348 57.088C107.716 56.8587 108.145 56.744 108.636 56.744C109.174 56.744 109.612 56.8933 109.948 57.192C110.284 57.4853 110.529 57.8853 110.684 58.392C110.801 58.104 110.953 57.856 111.14 57.648C111.326 57.44 111.534 57.2693 111.764 57.136C111.993 57.0027 112.236 56.904 112.492 56.84C112.753 56.776 113.017 56.744 113.284 56.744C113.716 56.744 114.1 56.8133 114.436 56.952C114.777 57.0853 115.065 57.2827 115.3 57.544C115.534 57.8053 115.713 58.128 115.836 58.512C115.958 58.896 116.02 59.3333 116.02 59.824V65H114.452V59.824C114.452 59.216 114.318 58.7573 114.052 58.448C113.79 58.1387 113.406 57.984 112.9 57.984C112.676 57.984 112.462 58.024 112.26 58.104C112.057 58.1787 111.878 58.2933 111.724 58.448C111.574 58.6027 111.454 58.7947 111.364 59.024C111.278 59.2533 111.236 59.52 111.236 59.824V65H109.668V59.824C109.668 59.1947 109.542 58.7307 109.292 58.432C109.041 58.1333 108.673 57.984 108.188 57.984C107.852 57.984 107.54 58.072 107.252 58.248C106.964 58.424 106.7 58.664 106.46 58.968V65H104.9ZM123.823 60.032C123.823 59.7227 123.777 59.4373 123.687 59.176C123.601 58.9147 123.473 58.688 123.303 58.496C123.132 58.304 122.924 58.1547 122.679 58.048C122.433 57.9413 122.151 57.888 121.831 57.888C121.175 57.888 120.657 58.0773 120.279 58.456C119.905 58.8347 119.668 59.36 119.567 60.032H123.823ZM125.111 63.84C124.919 64.064 124.697 64.2587 124.447 64.424C124.196 64.584 123.929 64.7147 123.647 64.816C123.364 64.9173 123.071 64.992 122.767 65.04C122.468 65.088 122.172 65.112 121.879 65.112C121.319 65.112 120.799 65.0187 120.319 64.832C119.844 64.64 119.431 64.3627 119.079 64C118.732 63.632 118.46 63.1787 118.263 62.64C118.071 62.096 117.975 61.472 117.975 60.768C117.975 60.2027 118.063 59.6773 118.239 59.192C118.415 58.7013 118.665 58.2747 118.991 57.912C119.321 57.5493 119.724 57.264 120.199 57.056C120.673 56.848 121.207 56.744 121.799 56.744C122.295 56.744 122.751 56.8267 123.167 56.992C123.588 57.152 123.951 57.3867 124.255 57.696C124.559 58.0053 124.796 58.3867 124.967 58.84C125.143 59.2933 125.231 59.8107 125.231 60.392C125.231 60.632 125.204 60.7947 125.151 60.88C125.097 60.96 124.999 61 124.855 61H119.527C119.543 61.4853 119.612 61.9093 119.735 62.272C119.857 62.6293 120.025 62.928 120.239 63.168C120.457 63.408 120.716 63.5867 121.015 63.704C121.313 63.8213 121.647 63.88 122.015 63.88C122.361 63.88 122.66 63.84 122.911 63.76C123.167 63.68 123.385 63.5947 123.567 63.504C123.753 63.408 123.908 63.32 124.031 63.24C124.159 63.16 124.271 63.12 124.367 63.12C124.495 63.12 124.593 63.168 124.663 63.264L125.111 63.84Z" fill="#3C3C6F"/>
<path d="M9.512 13.632C9.59733 13.632 9.672 13.6667 9.736 13.736L10.352 14.4C9.88267 14.944 9.312 15.368 8.64 15.672C7.97333 15.976 7.16533 16.128 6.216 16.128C5.39467 16.128 4.648 15.9867 3.976 15.704C3.304 15.416 2.73067 15.016 2.256 14.504C1.78133 13.9867 1.41333 13.368 1.152 12.648C0.890667 11.928 0.76 11.136 0.76 10.272C0.76 9.408 0.896 8.616 1.168 7.896C1.44 7.176 1.82133 6.55733 2.312 6.04C2.808 5.52267 3.4 5.12267 4.088 4.84C4.776 4.552 5.536 4.408 6.368 4.408C7.184 4.408 7.904 4.53867 8.528 4.8C9.152 5.06133 9.70133 5.416 10.176 5.864L9.664 6.576C9.632 6.62933 9.58933 6.67467 9.536 6.712C9.488 6.744 9.42133 6.76 9.336 6.76C9.24 6.76 9.12267 6.70933 8.984 6.608C8.84533 6.50133 8.664 6.384 8.44 6.256C8.216 6.128 7.936 6.01333 7.6 5.912C7.264 5.80533 6.85067 5.752 6.36 5.752C5.768 5.752 5.22667 5.856 4.736 6.064C4.24533 6.26667 3.82133 6.56267 3.464 6.952C3.112 7.34133 2.83733 7.816 2.64 8.376C2.44267 8.936 2.344 9.568 2.344 10.272C2.344 10.9867 2.44533 11.624 2.648 12.184C2.856 12.744 3.136 13.2187 3.488 13.608C3.84533 13.992 4.264 14.2853 4.744 14.488C5.22933 14.6907 5.752 14.792 6.312 14.792C6.65333 14.792 6.96 14.7733 7.232 14.736C7.50933 14.6933 7.76267 14.6293 7.992 14.544C8.22667 14.4587 8.44267 14.352 8.64 14.224C8.84267 14.0907 9.04267 13.9333 9.24 13.752C9.33067 13.672 9.42133 13.632 9.512 13.632ZM15.3952 7.768C15.9872 7.768 16.5206 7.86667 16.9952 8.064C17.4699 8.26133 17.8753 8.54133 18.2112 8.904C18.5472 9.26667 18.8032 9.70667 18.9792 10.224C19.1606 10.736 19.2513 11.3093 19.2513 11.944C19.2513 12.584 19.1606 13.16 18.9792 13.672C18.8032 14.184 18.5472 14.6213 18.2112 14.984C17.8753 15.3467 17.4699 15.6267 16.9952 15.824C16.5206 16.016 15.9872 16.112 15.3952 16.112C14.7979 16.112 14.2592 16.016 13.7792 15.824C13.3046 15.6267 12.8992 15.3467 12.5632 14.984C12.2272 14.6213 11.9686 14.184 11.7872 13.672C11.6112 13.16 11.5232 12.584 11.5232 11.944C11.5232 11.3093 11.6112 10.736 11.7872 10.224C11.9686 9.70667 12.2272 9.26667 12.5632 8.904C12.8992 8.54133 13.3046 8.26133 13.7792 8.064C14.2592 7.86667 14.7979 7.768 15.3952 7.768ZM15.3952 15C16.1953 15 16.7926 14.7333 17.1873 14.2C17.5819 13.6613 17.7793 12.912 17.7793 11.952C17.7793 10.9867 17.5819 10.2347 17.1873 9.696C16.7926 9.15733 16.1953 8.888 15.3952 8.888C14.9899 8.888 14.6352 8.95733 14.3312 9.096C14.0326 9.23467 13.7819 9.43467 13.5792 9.696C13.3819 9.95733 13.2326 10.28 13.1312 10.664C13.0352 11.0427 12.9872 11.472 12.9872 11.952C12.9872 12.912 13.1846 13.6613 13.5792 14.2C13.9792 14.7333 14.5846 15 15.3952 15ZM28.0414 7.896V16H27.1934C26.9907 16 26.8627 15.9013 26.8094 15.704L26.6974 14.832C26.3454 15.2213 25.9507 15.536 25.5134 15.776C25.076 16.0107 24.5747 16.128 24.0094 16.128C23.5667 16.128 23.1747 16.056 22.8334 15.912C22.4974 15.7627 22.2147 15.5547 21.9854 15.288C21.756 15.0213 21.5827 14.6987 21.4654 14.32C21.3534 13.9413 21.2974 13.5227 21.2974 13.064V7.896H22.7214V13.064C22.7214 13.6773 22.86 14.152 23.1374 14.488C23.42 14.824 23.8494 14.992 24.4254 14.992C24.8467 14.992 25.2387 14.8933 25.6014 14.696C25.9694 14.4933 26.308 14.216 26.6174 13.864V7.896H28.0414ZM31.9632 9.072C32.1392 8.87467 32.3259 8.696 32.5232 8.536C32.7206 8.376 32.9286 8.24 33.1472 8.128C33.3712 8.01067 33.6059 7.92267 33.8512 7.864C34.1019 7.8 34.3712 7.768 34.6592 7.768C35.1019 7.768 35.4912 7.84267 35.8272 7.992C36.1686 8.136 36.4512 8.344 36.6752 8.616C36.9046 8.88267 37.0779 9.20533 37.1952 9.584C37.3126 9.96267 37.3712 10.3813 37.3712 10.84V16H35.9392V10.84C35.9392 10.2267 35.7979 9.752 35.5152 9.416C35.2379 9.07467 34.8139 8.904 34.2432 8.904C33.8219 8.904 33.4272 9.00533 33.0592 9.208C32.6966 9.41067 32.3606 9.68533 32.0512 10.032V16H30.6192V7.896H31.4752C31.6779 7.896 31.8032 7.99467 31.8512 8.192L31.9632 9.072ZM42.2397 16.128C41.5997 16.128 41.1064 15.9493 40.7597 15.592C40.4184 15.2347 40.2477 14.72 40.2477 14.048V9.088H39.2717C39.1864 9.088 39.1144 9.064 39.0557 9.016C38.9971 8.96267 38.9677 8.88267 38.9677 8.776V8.208L40.2957 8.04L40.6237 5.536C40.6397 5.456 40.6744 5.392 40.7277 5.344C40.7864 5.29067 40.8611 5.264 40.9517 5.264H41.6717V8.056H44.0157V9.088H41.6717V13.952C41.6717 14.2933 41.7544 14.5467 41.9197 14.712C42.0851 14.8773 42.2984 14.96 42.5597 14.96C42.7091 14.96 42.8371 14.9413 42.9437 14.904C43.0557 14.8613 43.1517 14.816 43.2317 14.768C43.3117 14.72 43.3784 14.6773 43.4317 14.64C43.4904 14.5973 43.5411 14.576 43.5837 14.576C43.6584 14.576 43.7251 14.6213 43.7837 14.712L44.1997 15.392C43.9544 15.6213 43.6584 15.8027 43.3117 15.936C42.9651 16.064 42.6077 16.128 42.2397 16.128ZM47.1581 9.52C47.4141 8.96533 47.7288 8.53333 48.1021 8.224C48.4755 7.90933 48.9315 7.752 49.4701 7.752C49.6408 7.752 49.8035 7.77067 49.9581 7.808C50.1181 7.84533 50.2595 7.904 50.3821 7.984L50.2781 9.048C50.2461 9.18133 50.1661 9.248 50.0381 9.248C49.9635 9.248 49.8541 9.232 49.7101 9.2C49.5661 9.168 49.4035 9.152 49.2221 9.152C48.9661 9.152 48.7368 9.18933 48.5341 9.264C48.3368 9.33867 48.1581 9.45067 47.9981 9.6C47.8435 9.744 47.7021 9.92533 47.5741 10.144C47.4515 10.3573 47.3395 10.6027 47.2381 10.88V16H45.8061V7.896H46.6221C46.7768 7.896 46.8835 7.92533 46.9421 7.984C47.0008 8.04267 47.0408 8.144 47.0621 8.288L47.1581 9.52ZM58.9462 7.896L54.4262 18.392C54.3782 18.4987 54.3169 18.584 54.2422 18.648C54.1729 18.712 54.0636 18.744 53.9142 18.744H52.8582L54.3382 15.528L50.9942 7.896H52.2262C52.3489 7.896 52.4449 7.928 52.5142 7.992C52.5889 8.05067 52.6396 8.11733 52.6662 8.192L54.8342 13.296C54.9196 13.52 54.9916 13.7547 55.0502 14C55.1249 13.7493 55.2049 13.512 55.2902 13.288L57.3942 8.192C57.4262 8.10667 57.4796 8.03733 57.5542 7.984C57.6342 7.92533 57.7222 7.896 57.8182 7.896H58.9462Z" fill="#8686A1"/>
<defs>
<filter id="filter0_b_450_5848" x="-30" y="1" width="398.865" height="115" filterUnits="userSpaceOnUse" color-interpolation-filters="sRGB">
<feFlood flood-opacity="0" result="BackgroundImageFix"/>
<feGaussianBlur in="BackgroundImageFix" stdDeviation="15"/>
<feComposite in2="SourceAlpha" operator="in" result="effect1_backgroundBlur_450_5848"/>
<feBlend mode="normal" in="SourceGraphic" in2="effect1_backgroundBlur_450_5848" result="shape"/>
</filter>
<linearGradient id="paint0_linear_450_5848" x1="23.9246" y1="22.1792" x2="150.216" y2="50.3069" gradientUnits="userSpaceOnUse">
<stop stop-color="white"/>
<stop offset="1" stop-color="white" stop-opacity="0"/>
</linearGradient>
</defs>
</svg>
