<svg width="339" height="86" viewBox="0 0 339 86" fill="none" xmlns="http://www.w3.org/2000/svg">
<g filter="url(#filter0_b_450_5668)">
<path d="M0 39C0 34.5817 3.58172 31 8 31H330.865C335.284 31 338.865 34.5817 338.865 39V78C338.865 82.4183 335.284 86 330.865 86H8C3.58172 86 0 82.4183 0 78V39Z" fill="white" fill-opacity="0.4"/>
<path d="M1 39C1 35.134 4.13401 32 8 32H330.865C334.731 32 337.865 35.134 337.865 39V78C337.865 81.866 334.731 85 330.865 85H8C4.13401 85 1 81.866 1 78V39Z" stroke="url(#paint0_linear_450_5668)" stroke-opacity="0.9" stroke-width="2"/>
</g>
<path d="M25.0918 61C25.0918 61.64 25.0118 62.216 24.8518 62.728C24.6918 63.24 24.4571 63.6747 24.1478 64.032C23.8438 64.384 23.4624 64.656 23.0038 64.848C22.5504 65.0347 22.0278 65.128 21.4358 65.128C20.9024 65.128 20.3531 65.0533 19.7878 64.904L19.8838 63.896C19.8944 63.8 19.9291 63.7227 19.9878 63.664C20.0518 63.6 20.1451 63.568 20.2678 63.568C20.3584 63.568 20.4811 63.592 20.6358 63.64C20.7958 63.6827 21.0038 63.704 21.2598 63.704C21.6011 63.704 21.9024 63.6533 22.1638 63.552C22.4304 63.4507 22.6544 63.2933 22.8358 63.08C23.0171 62.8613 23.1531 62.584 23.2438 62.248C23.3398 61.912 23.3878 61.5093 23.3878 61.04V53.512H25.0918V61ZM32.9194 60.032C32.9194 59.7227 32.8741 59.4373 32.7834 59.176C32.6981 58.9147 32.5701 58.688 32.3994 58.496C32.2287 58.304 32.0207 58.1547 31.7754 58.048C31.5301 57.9413 31.2474 57.888 30.9274 57.888C30.2714 57.888 29.7541 58.0773 29.3754 58.456C29.0021 58.8347 28.7647 59.36 28.6634 60.032H32.9194ZM34.2074 63.84C34.0154 64.064 33.7941 64.2587 33.5434 64.424C33.2927 64.584 33.0261 64.7147 32.7434 64.816C32.4607 64.9173 32.1674 64.992 31.8634 65.04C31.5647 65.088 31.2687 65.112 30.9754 65.112C30.4154 65.112 29.8954 65.0187 29.4154 64.832C28.9407 64.64 28.5274 64.3627 28.1754 64C27.8287 63.632 27.5567 63.1787 27.3594 62.64C27.1674 62.096 27.0714 61.472 27.0714 60.768C27.0714 60.2027 27.1594 59.6773 27.3354 59.192C27.5114 58.7013 27.7621 58.2747 28.0874 57.912C28.4181 57.5493 28.8207 57.264 29.2954 57.056C29.7701 56.848 30.3034 56.744 30.8954 56.744C31.3914 56.744 31.8474 56.8267 32.2634 56.992C32.6847 57.152 33.0474 57.3867 33.3514 57.696C33.6554 58.0053 33.8927 58.3867 34.0634 58.84C34.2394 59.2933 34.3274 59.8107 34.3274 60.392C34.3274 60.632 34.3007 60.7947 34.2474 60.88C34.1941 60.96 34.0954 61 33.9514 61H28.6234C28.6394 61.4853 28.7087 61.9093 28.8314 62.272C28.9541 62.6293 29.1221 62.928 29.3354 63.168C29.5541 63.408 29.8127 63.5867 30.1114 63.704C30.4101 63.8213 30.7434 63.88 31.1114 63.88C31.4581 63.88 31.7567 63.84 32.0074 63.76C32.2634 63.68 32.4821 63.5947 32.6634 63.504C32.8501 63.408 33.0047 63.32 33.1274 63.24C33.2554 63.16 33.3674 63.12 33.4634 63.12C33.5914 63.12 33.6901 63.168 33.7594 63.264L34.2074 63.84ZM37.7961 58.432C38.0575 57.8987 38.3721 57.48 38.7401 57.176C39.1081 56.872 39.5508 56.72 40.0681 56.72C40.2441 56.72 40.4095 56.7413 40.5641 56.784C40.7241 56.8213 40.8628 56.88 40.9801 56.96L40.8761 58.136C40.8388 58.28 40.7508 58.352 40.6121 58.352C40.5375 58.352 40.4255 58.3387 40.2761 58.312C40.1268 58.28 39.9668 58.264 39.7961 58.264C39.5455 58.264 39.3241 58.3013 39.1321 58.376C38.9401 58.4453 38.7668 58.552 38.6121 58.696C38.4628 58.8347 38.3295 59.008 38.2121 59.216C38.0948 59.4187 37.9855 59.6507 37.8841 59.912V65H36.3241V56.872H37.2201C37.3908 56.872 37.5055 56.904 37.5641 56.968C37.6281 57.0267 37.6735 57.1333 37.7001 57.288L37.7961 58.432ZM43.9755 58.432C44.2368 57.8987 44.5515 57.48 44.9195 57.176C45.2875 56.872 45.7302 56.72 46.2475 56.72C46.4235 56.72 46.5888 56.7413 46.7435 56.784C46.9035 56.8213 47.0422 56.88 47.1595 56.96L47.0555 58.136C47.0182 58.28 46.9302 58.352 46.7915 58.352C46.7168 58.352 46.6048 58.3387 46.4555 58.312C46.3062 58.28 46.1462 58.264 45.9755 58.264C45.7248 58.264 45.5035 58.3013 45.3115 58.376C45.1195 58.4453 44.9462 58.552 44.7915 58.696C44.6422 58.8347 44.5088 59.008 44.3915 59.216C44.2742 59.4187 44.1648 59.6507 44.0635 59.912V65H42.5035V56.872H43.3995C43.5702 56.872 43.6848 56.904 43.7435 56.968C43.8075 57.0267 43.8528 57.1333 43.8795 57.288L43.9755 58.432ZM55.7869 56.872L51.2749 67.36C51.2269 67.4773 51.1629 67.568 51.0829 67.632C51.0029 67.696 50.8856 67.728 50.7309 67.728H49.5709L51.0589 64.488L47.7229 56.872H49.0829C49.2162 56.872 49.3202 56.904 49.3949 56.968C49.4696 57.032 49.5229 57.104 49.5549 57.184L51.6189 62.064C51.6616 62.1867 51.7016 62.312 51.7389 62.44C51.7816 62.5627 51.8162 62.6853 51.8429 62.808C51.8802 62.68 51.9202 62.5547 51.9629 62.432C52.0056 62.304 52.0509 62.1787 52.0989 62.056L54.0909 57.184C54.1282 57.0933 54.1869 57.0187 54.2669 56.96C54.3469 56.9013 54.4376 56.872 54.5389 56.872H55.7869Z" fill="#3C3C6F"/>
<path d="M3.016 5.8V9.808H7.728V11.072H3.016V16H1.464V4.536H8.528V5.8H3.016ZM11.9676 7.896V16H10.5436V7.896H11.9676ZM12.2716 5.352C12.2716 5.49067 12.2423 5.62133 12.1836 5.744C12.1303 5.86133 12.0556 5.968 11.9596 6.064C11.869 6.15467 11.7596 6.22667 11.6316 6.28C11.509 6.33333 11.3783 6.36 11.2396 6.36C11.101 6.36 10.9703 6.33333 10.8476 6.28C10.7303 6.22667 10.6263 6.15467 10.5356 6.064C10.445 5.968 10.373 5.86133 10.3196 5.744C10.2663 5.62133 10.2396 5.49067 10.2396 5.352C10.2396 5.21333 10.2663 5.08267 10.3196 4.96C10.373 4.832 10.445 4.72267 10.5356 4.632C10.6263 4.536 10.7303 4.46133 10.8476 4.408C10.9703 4.35467 11.101 4.328 11.2396 4.328C11.3783 4.328 11.509 4.35467 11.6316 4.408C11.7596 4.46133 11.869 4.536 11.9596 4.632C12.0556 4.72267 12.1303 4.832 12.1836 4.96C12.2423 5.08267 12.2716 5.21333 12.2716 5.352ZM15.9794 9.52C16.2354 8.96533 16.55 8.53333 16.9234 8.224C17.2967 7.90933 17.7527 7.752 18.2914 7.752C18.462 7.752 18.6247 7.77067 18.7794 7.808C18.9394 7.84533 19.0807 7.904 19.2034 7.984L19.0994 9.048C19.0674 9.18133 18.9874 9.248 18.8594 9.248C18.7847 9.248 18.6754 9.232 18.5314 9.2C18.3874 9.168 18.2247 9.152 18.0434 9.152C17.7874 9.152 17.558 9.18933 17.3554 9.264C17.158 9.33867 16.9794 9.45067 16.8194 9.6C16.6647 9.744 16.5234 9.92533 16.3954 10.144C16.2727 10.3573 16.1607 10.6027 16.0594 10.88V16H14.6274V7.896H15.4434C15.598 7.896 15.7047 7.92533 15.7634 7.984C15.822 8.04267 15.862 8.144 15.8834 8.288L15.9794 9.52ZM25.4486 9.232C25.3846 9.34933 25.286 9.408 25.1526 9.408C25.0726 9.408 24.982 9.37867 24.8806 9.32C24.7793 9.26133 24.654 9.19733 24.5046 9.128C24.3606 9.05333 24.1873 8.98667 23.9846 8.928C23.782 8.864 23.542 8.832 23.2646 8.832C23.0246 8.832 22.8086 8.864 22.6166 8.928C22.4246 8.98667 22.2593 9.06933 22.1206 9.176C21.9873 9.28267 21.8833 9.408 21.8086 9.552C21.7393 9.69067 21.7046 9.84267 21.7046 10.008C21.7046 10.216 21.7633 10.3893 21.8806 10.528C22.0033 10.6667 22.1633 10.7867 22.3606 10.888C22.558 10.9893 22.782 11.08 23.0326 11.16C23.2833 11.2347 23.5393 11.3173 23.8006 11.408C24.0673 11.4933 24.326 11.5893 24.5766 11.696C24.8273 11.8027 25.0513 11.936 25.2486 12.096C25.446 12.256 25.6033 12.4533 25.7206 12.688C25.8433 12.9173 25.9046 13.1947 25.9046 13.52C25.9046 13.8933 25.838 14.24 25.7046 14.56C25.5713 14.8747 25.374 15.1493 25.1126 15.384C24.8513 15.6133 24.5313 15.7947 24.1526 15.928C23.774 16.0613 23.3366 16.128 22.8406 16.128C22.2753 16.128 21.7633 16.0373 21.3046 15.856C20.846 15.6693 20.4566 15.432 20.1366 15.144L20.4726 14.6C20.5153 14.5307 20.566 14.4773 20.6246 14.44C20.6833 14.4027 20.758 14.384 20.8486 14.384C20.9446 14.384 21.046 14.4213 21.1526 14.496C21.2593 14.5707 21.3873 14.6533 21.5366 14.744C21.6913 14.8347 21.878 14.9173 22.0966 14.992C22.3153 15.0667 22.5873 15.104 22.9126 15.104C23.19 15.104 23.4326 15.0693 23.6406 15C23.8486 14.9253 24.022 14.8267 24.1606 14.704C24.2993 14.5813 24.4006 14.44 24.4646 14.28C24.534 14.12 24.5686 13.9493 24.5686 13.768C24.5686 13.544 24.5073 13.36 24.3846 13.216C24.2673 13.0667 24.11 12.9413 23.9126 12.84C23.7153 12.7333 23.4886 12.6427 23.2326 12.568C22.982 12.488 22.7233 12.4053 22.4566 12.32C22.1953 12.2347 21.9366 12.1387 21.6806 12.032C21.43 11.92 21.206 11.7813 21.0086 11.616C20.8113 11.4507 20.6513 11.248 20.5286 11.008C20.4113 10.7627 20.3526 10.4667 20.3526 10.12C20.3526 9.81067 20.4166 9.51467 20.5446 9.232C20.6726 8.944 20.8593 8.69333 21.1046 8.48C21.35 8.26133 21.6513 8.088 22.0086 7.96C22.366 7.832 22.774 7.768 23.2326 7.768C23.766 7.768 24.2433 7.85333 24.6646 8.024C25.0913 8.18933 25.4593 8.41867 25.7686 8.712L25.4486 9.232ZM30.4585 16.128C29.8185 16.128 29.3252 15.9493 28.9785 15.592C28.6372 15.2347 28.4665 14.72 28.4665 14.048V9.088H27.4905C27.4052 9.088 27.3332 9.064 27.2745 9.016C27.2158 8.96267 27.1865 8.88267 27.1865 8.776V8.208L28.5145 8.04L28.8425 5.536C28.8585 5.456 28.8932 5.392 28.9465 5.344C29.0052 5.29067 29.0798 5.264 29.1705 5.264H29.8905V8.056H32.2345V9.088H29.8905V13.952C29.8905 14.2933 29.9732 14.5467 30.1385 14.712C30.3038 14.8773 30.5172 14.96 30.7785 14.96C30.9278 14.96 31.0558 14.9413 31.1625 14.904C31.2745 14.8613 31.3705 14.816 31.4505 14.768C31.5305 14.72 31.5972 14.6773 31.6505 14.64C31.7092 14.5973 31.7598 14.576 31.8025 14.576C31.8772 14.576 31.9438 14.6213 32.0025 14.712L32.4185 15.392C32.1732 15.6213 31.8772 15.8027 31.5305 15.936C31.1838 16.064 30.8265 16.128 30.4585 16.128ZM48.0626 4.536V16H47.2866C47.164 16 47.06 15.9787 46.9746 15.936C46.8946 15.8933 46.8146 15.8213 46.7346 15.72L40.1026 7.08C40.1133 7.21333 40.1213 7.344 40.1266 7.472C40.132 7.6 40.1346 7.72 40.1346 7.832V16H38.7746V4.536H39.5746C39.644 4.536 39.7026 4.54133 39.7506 4.552C39.7986 4.55733 39.8413 4.57067 39.8786 4.592C39.916 4.608 39.9533 4.63467 39.9906 4.672C40.028 4.704 40.068 4.74667 40.1106 4.8L46.7426 13.432C46.732 13.2933 46.7213 13.16 46.7106 13.032C46.7053 12.8987 46.7026 12.7733 46.7026 12.656V4.536H48.0626ZM55.135 12.352C54.479 12.3733 53.919 12.4267 53.455 12.512C52.9963 12.592 52.6203 12.6987 52.327 12.832C52.039 12.9653 51.8283 13.1227 51.695 13.304C51.567 13.4853 51.503 13.688 51.503 13.912C51.503 14.1253 51.5377 14.3093 51.607 14.464C51.6763 14.6187 51.7697 14.7467 51.887 14.848C52.0097 14.944 52.151 15.016 52.311 15.064C52.4763 15.1067 52.6523 15.128 52.839 15.128C53.0897 15.128 53.319 15.104 53.527 15.056C53.735 15.0027 53.9297 14.928 54.111 14.832C54.2977 14.736 54.4737 14.6213 54.639 14.488C54.8097 14.3547 54.975 14.2027 55.135 14.032V12.352ZM50.535 9.04C50.983 8.608 51.4657 8.28533 51.983 8.072C52.5003 7.85867 53.0737 7.752 53.703 7.752C54.1563 7.752 54.559 7.82667 54.911 7.976C55.263 8.12533 55.559 8.33333 55.799 8.6C56.039 8.86667 56.2203 9.18933 56.343 9.568C56.4657 9.94667 56.527 10.3627 56.527 10.816V16H55.895C55.7563 16 55.6497 15.9787 55.575 15.936C55.5003 15.888 55.4417 15.7973 55.399 15.664L55.239 14.896C55.0257 15.0933 54.8177 15.2693 54.615 15.424C54.4123 15.5733 54.199 15.7013 53.975 15.808C53.751 15.9093 53.511 15.9867 53.255 16.04C53.0043 16.0987 52.7243 16.128 52.415 16.128C52.1003 16.128 51.8043 16.0853 51.527 16C51.2497 15.9093 51.007 15.776 50.799 15.6C50.5963 15.424 50.4337 15.2027 50.311 14.936C50.1937 14.664 50.135 14.344 50.135 13.976C50.135 13.656 50.223 13.3493 50.399 13.056C50.575 12.7573 50.8603 12.4933 51.255 12.264C51.6497 12.0347 52.1643 11.848 52.799 11.704C53.4337 11.5547 54.2123 11.4693 55.135 11.448V10.816C55.135 10.1867 54.999 9.712 54.727 9.392C54.455 9.06667 54.0577 8.904 53.535 8.904C53.183 8.904 52.887 8.94933 52.647 9.04C52.4123 9.12533 52.207 9.224 52.031 9.336C51.8603 9.44267 51.711 9.54133 51.583 9.632C51.4603 9.71733 51.3377 9.76 51.215 9.76C51.119 9.76 51.0363 9.736 50.967 9.688C50.8977 9.63467 50.839 9.57067 50.791 9.496L50.535 9.04ZM59.0161 16V7.896H59.8721C60.0748 7.896 60.2001 7.99467 60.2481 8.192L60.3521 9.024C60.6508 8.656 60.9868 8.35467 61.3601 8.12C61.7335 7.88533 62.1655 7.768 62.6561 7.768C63.2001 7.768 63.6401 7.92 63.9761 8.224C64.3175 8.528 64.5628 8.93867 64.7121 9.456C64.8295 9.16267 64.9788 8.90933 65.1601 8.696C65.3468 8.48267 65.5548 8.30667 65.7841 8.168C66.0135 8.02933 66.2561 7.928 66.5121 7.864C66.7735 7.8 67.0375 7.768 67.3041 7.768C67.7308 7.768 68.1095 7.83733 68.4401 7.976C68.7761 8.10933 69.0588 8.30667 69.2881 8.568C69.5228 8.82933 69.7015 9.152 69.8241 9.536C69.9468 9.91467 70.0081 10.3493 70.0081 10.84V16H68.5761V10.84C68.5761 10.2053 68.4375 9.72533 68.1601 9.4C67.8828 9.06933 67.4828 8.904 66.9601 8.904C66.7255 8.904 66.5015 8.94667 66.2881 9.032C66.0801 9.112 65.8961 9.232 65.7361 9.392C65.5761 9.552 65.4481 9.75467 65.3521 10C65.2615 10.24 65.2161 10.52 65.2161 10.84V16H63.7841V10.84C63.7841 10.1893 63.6535 9.704 63.3921 9.384C63.1308 9.064 62.7495 8.904 62.2481 8.904C61.8961 8.904 61.5708 9 61.2721 9.192C60.9735 9.37867 60.6988 9.63467 60.4481 9.96V16H59.0161ZM77.9164 11.064C77.9164 10.7333 77.8684 10.432 77.7724 10.16C77.6817 9.88267 77.5457 9.64533 77.3644 9.448C77.1884 9.24533 76.9724 9.09067 76.7164 8.984C76.4604 8.872 76.1697 8.816 75.8444 8.816C75.1617 8.816 74.6204 9.016 74.2204 9.416C73.8257 9.81067 73.5804 10.36 73.4844 11.064H77.9164ZM79.0684 14.864C78.8924 15.0773 78.6817 15.264 78.4364 15.424C78.191 15.5787 77.927 15.7067 77.6444 15.808C77.367 15.9093 77.079 15.984 76.7804 16.032C76.4817 16.0853 76.1857 16.112 75.8924 16.112C75.3324 16.112 74.815 16.0187 74.3404 15.832C73.871 15.64 73.463 15.3627 73.1164 15C72.775 14.632 72.5084 14.1787 72.3164 13.64C72.1244 13.1013 72.0284 12.4827 72.0284 11.784C72.0284 11.2187 72.1137 10.6907 72.2844 10.2C72.4604 9.70933 72.711 9.28533 73.0364 8.928C73.3617 8.56533 73.759 8.28267 74.2284 8.08C74.6977 7.872 75.2257 7.768 75.8124 7.768C76.2977 7.768 76.7457 7.85067 77.1564 8.016C77.5724 8.176 77.9297 8.41067 78.2284 8.72C78.5324 9.024 78.7697 9.40267 78.9404 9.856C79.111 10.304 79.1964 10.816 79.1964 11.392C79.1964 11.616 79.1724 11.7653 79.1244 11.84C79.0764 11.9147 78.9857 11.952 78.8524 11.952H73.4364C73.4524 12.464 73.5217 12.9093 73.6444 13.288C73.7724 13.6667 73.9484 13.984 74.1724 14.24C74.3964 14.4907 74.663 14.68 74.9724 14.808C75.2817 14.9307 75.6284 14.992 76.0124 14.992C76.3697 14.992 76.6764 14.952 76.9324 14.872C77.1937 14.7867 77.4177 14.696 77.6044 14.6C77.791 14.504 77.9457 14.416 78.0684 14.336C78.1964 14.2507 78.3057 14.208 78.3964 14.208C78.5137 14.208 78.6044 14.2533 78.6684 14.344L79.0684 14.864Z" fill="#8686A1"/>
<defs>
<filter id="filter0_b_450_5668" x="-30" y="1" width="398.865" height="115" filterUnits="userSpaceOnUse" color-interpolation-filters="sRGB">
<feFlood flood-opacity="0" result="BackgroundImageFix"/>
<feGaussianBlur in="BackgroundImageFix" stdDeviation="15"/>
<feComposite in2="SourceAlpha" operator="in" result="effect1_backgroundBlur_450_5668"/>
<feBlend mode="normal" in="SourceGraphic" in2="effect1_backgroundBlur_450_5668" result="shape"/>
</filter>
<linearGradient id="paint0_linear_450_5668" x1="23.9246" y1="22.1792" x2="150.216" y2="50.3069" gradientUnits="userSpaceOnUse">
<stop stop-color="white"/>
<stop offset="1" stop-color="white" stop-opacity="0"/>
</linearGradient>
</defs>
</svg>
