<svg width="53" height="42" viewBox="0 0 53 42" fill="none" xmlns="http://www.w3.org/2000/svg">
<g filter="url(#filter0_b_442_5185)">
<path d="M0 8C0 3.58172 3.58172 0 8 0H45C49.4183 0 53 3.58172 53 8V34C53 38.4183 49.4183 42 45 42H8C3.58172 42 0 38.4183 0 34V8Z" fill="white" fill-opacity="0.4"/>
<path d="M1 8C1 4.13401 4.13401 1 8 1H45C48.866 1 52 4.13401 52 8V34C52 37.866 48.866 41 45 41H8C4.13401 41 1 37.866 1 34V8Z" stroke="url(#paint0_linear_442_5185)" stroke-opacity="0.5" stroke-width="2"/>
</g>
<path d="M35.1 18.22C33.29 18.22 32.55 16.94 33.45 15.37C33.97 14.46 33.66 13.3 32.75 12.78L31.02 11.79C30.23 11.32 29.21 11.6 28.74 12.39L28.63 12.58C27.73 14.15 26.25 14.15 25.34 12.58L25.23 12.39C24.78 11.6 23.76 11.32 22.97 11.79L21.24 12.78C20.33 13.3 20.02 14.47 20.54 15.38C21.45 16.94 20.71 18.22 18.9 18.22C17.86 18.22 17 19.07 17 20.12V21.88C17 22.92 17.85 23.78 18.9 23.78C20.71 23.78 21.45 25.06 20.54 26.63C20.02 27.54 20.33 28.7 21.24 29.22L22.97 30.21C23.76 30.68 24.78 30.4 25.25 29.61L25.36 29.42C26.26 27.85 27.74 27.85 28.65 29.42L28.76 29.61C29.23 30.4 30.25 30.68 31.04 30.21L32.77 29.22C33.68 28.7 33.99 27.53 33.47 26.63C32.56 25.06 33.3 23.78 35.11 23.78C36.15 23.78 37.01 22.93 37.01 21.88V20.12C37 19.08 36.15 18.22 35.1 18.22ZM27 24.25C25.21 24.25 23.75 22.79 23.75 21C23.75 19.21 25.21 17.75 27 17.75C28.79 17.75 30.25 19.21 30.25 21C30.25 22.79 28.79 24.25 27 24.25Z" fill="#3C3C6F"/>
<defs>
<filter id="filter0_b_442_5185" x="-30" y="-30" width="113" height="102" filterUnits="userSpaceOnUse" color-interpolation-filters="sRGB">
<feFlood flood-opacity="0" result="BackgroundImageFix"/>
<feGaussianBlur in="BackgroundImageFix" stdDeviation="15"/>
<feComposite in2="SourceAlpha" operator="in" result="effect1_backgroundBlur_442_5185"/>
<feBlend mode="normal" in="SourceGraphic" in2="effect1_backgroundBlur_442_5185" result="shape"/>
</filter>
<linearGradient id="paint0_linear_442_5185" x1="3.74191" y1="-6.73585" x2="24.4312" y2="-5.79208" gradientUnits="userSpaceOnUse">
<stop stop-color="white"/>
<stop offset="1" stop-color="white" stop-opacity="0"/>
</linearGradient>
</defs>
</svg>
