<svg width="340" height="86" viewBox="0 0 340 86" fill="none" xmlns="http://www.w3.org/2000/svg">
<g filter="url(#filter0_b_450_5693)">
<path d="M0.865234 39C0.865234 34.5817 4.44696 31 8.86523 31H331.73C336.149 31 339.73 34.5817 339.73 39V78C339.73 82.4183 336.149 86 331.73 86H8.86524C4.44696 86 0.865234 82.4183 0.865234 78V39Z" fill="white" fill-opacity="0.4"/>
<path d="M1.86523 39C1.86523 35.134 4.99924 32 8.86523 32H331.73C335.596 32 338.73 35.134 338.73 39V78C338.73 81.866 335.596 85 331.73 85H8.86524C4.99924 85 1.86523 81.866 1.86523 78V39Z" stroke="url(#paint0_linear_450_5693)" stroke-opacity="0.9" stroke-width="2"/>
</g>
<path d="M28.4612 63.568V65H21.8852V53.512H23.5892V63.568H28.4612ZM34.9724 60.032C34.9724 59.7227 34.927 59.4373 34.8364 59.176C34.751 58.9147 34.623 58.688 34.4524 58.496C34.2817 58.304 34.0737 58.1547 33.8284 58.048C33.583 57.9413 33.3004 57.888 32.9804 57.888C32.3244 57.888 31.807 58.0773 31.4284 58.456C31.055 58.8347 30.8177 59.36 30.7164 60.032H34.9724ZM36.2604 63.84C36.0684 64.064 35.847 64.2587 35.5964 64.424C35.3457 64.584 35.079 64.7147 34.7964 64.816C34.5137 64.9173 34.2204 64.992 33.9164 65.04C33.6177 65.088 33.3217 65.112 33.0284 65.112C32.4684 65.112 31.9484 65.0187 31.4684 64.832C30.9937 64.64 30.5804 64.3627 30.2284 64C29.8817 63.632 29.6097 63.1787 29.4124 62.64C29.2204 62.096 29.1244 61.472 29.1244 60.768C29.1244 60.2027 29.2124 59.6773 29.3884 59.192C29.5644 58.7013 29.815 58.2747 30.1404 57.912C30.471 57.5493 30.8737 57.264 31.3484 57.056C31.823 56.848 32.3564 56.744 32.9484 56.744C33.4444 56.744 33.9004 56.8267 34.3164 56.992C34.7377 57.152 35.1004 57.3867 35.4044 57.696C35.7084 58.0053 35.9457 58.3867 36.1164 58.84C36.2924 59.2933 36.3804 59.8107 36.3804 60.392C36.3804 60.632 36.3537 60.7947 36.3004 60.88C36.247 60.96 36.1484 61 36.0044 61H30.6764C30.6924 61.4853 30.7617 61.9093 30.8844 62.272C31.007 62.6293 31.175 62.928 31.3884 63.168C31.607 63.408 31.8657 63.5867 32.1644 63.704C32.463 63.8213 32.7964 63.88 33.1644 63.88C33.511 63.88 33.8097 63.84 34.0604 63.76C34.3164 63.68 34.535 63.5947 34.7164 63.504C34.903 63.408 35.0577 63.32 35.1804 63.24C35.3084 63.16 35.4204 63.12 35.5164 63.12C35.6444 63.12 35.743 63.168 35.8124 63.264L36.2604 63.84ZM42.7451 61.392C42.1104 61.4133 41.5718 61.464 41.1291 61.544C40.6864 61.6187 40.3264 61.72 40.0491 61.848C39.7718 61.976 39.5718 62.128 39.4491 62.304C39.3264 62.4747 39.2651 62.6667 39.2651 62.88C39.2651 63.0827 39.2971 63.2587 39.3611 63.408C39.4304 63.552 39.5211 63.672 39.6331 63.768C39.7504 63.8587 39.8864 63.9253 40.0411 63.968C40.1958 64.0107 40.3638 64.032 40.5451 64.032C40.7851 64.032 41.0038 64.008 41.2011 63.96C41.4038 63.912 41.5931 63.8453 41.7691 63.76C41.9451 63.6693 42.1131 63.56 42.2731 63.432C42.4331 63.304 42.5904 63.1573 42.7451 62.992V61.392ZM38.1691 58.008C38.6224 57.576 39.1131 57.2533 39.6411 57.04C40.1744 56.8267 40.7584 56.72 41.3931 56.72C41.8571 56.72 42.2678 56.7973 42.6251 56.952C42.9824 57.1013 43.2838 57.312 43.5291 57.584C43.7744 57.856 43.9584 58.1813 44.0811 58.56C44.2091 58.9387 44.2731 59.3573 44.2731 59.816V65H43.5771C43.4224 65 43.3051 64.976 43.2251 64.928C43.1451 64.8747 43.0811 64.7787 43.0331 64.64L42.8651 63.928C42.6571 64.12 42.4518 64.2907 42.2491 64.44C42.0464 64.584 41.8331 64.7093 41.6091 64.816C41.3904 64.9173 41.1558 64.9947 40.9051 65.048C40.6544 65.1013 40.3771 65.128 40.0731 65.128C39.7531 65.128 39.4518 65.0853 39.1691 65C38.8918 64.9093 38.6491 64.7733 38.4411 64.592C38.2331 64.4107 38.0678 64.184 37.9451 63.912C37.8278 63.64 37.7691 63.3227 37.7691 62.96C37.7691 62.64 37.8544 62.3333 38.0251 62.04C38.2011 61.7413 38.4838 61.4747 38.8731 61.24C39.2678 61.0053 39.7798 60.8133 40.4091 60.664C41.0438 60.5147 41.8224 60.4293 42.7451 60.408V59.816C42.7451 59.2027 42.6144 58.744 42.3531 58.44C42.0918 58.136 41.7078 57.984 41.2011 57.984C40.8598 57.984 40.5718 58.0267 40.3371 58.112C40.1078 58.1973 39.9078 58.2933 39.7371 58.4C39.5718 58.5013 39.4251 58.5947 39.2971 58.68C39.1744 58.7653 39.0464 58.808 38.9131 58.808C38.8064 58.808 38.7131 58.7787 38.6331 58.72C38.5584 58.6613 38.4971 58.592 38.4491 58.512L38.1691 58.008ZM48.1455 58C48.3215 57.8133 48.5055 57.6427 48.6975 57.488C48.8895 57.3333 49.0922 57.2027 49.3055 57.096C49.5242 56.984 49.7562 56.8987 50.0015 56.84C50.2522 56.776 50.5188 56.744 50.8015 56.744C51.2495 56.744 51.6415 56.8187 51.9775 56.968C52.3188 57.1173 52.6042 57.328 52.8335 57.6C53.0628 57.8667 53.2362 58.1893 53.3535 58.568C53.4708 58.9467 53.5295 59.3653 53.5295 59.824V65H51.9615V59.824C51.9615 59.2427 51.8282 58.792 51.5615 58.472C51.2948 58.1467 50.8868 57.984 50.3375 57.984C49.9375 57.984 49.5615 58.08 49.2095 58.272C48.8628 58.4587 48.5402 58.7147 48.2415 59.04V65H46.6815V56.872H47.6175C47.8362 56.872 47.9722 56.976 48.0255 57.184L48.1455 58Z" fill="#3C3C6F"/>
<path d="M8.83323 14.696V16H2.32923V4.536H3.87323V14.696H8.83323ZM14.924 12.352C14.268 12.3733 13.708 12.4267 13.244 12.512C12.7853 12.592 12.4093 12.6987 12.116 12.832C11.828 12.9653 11.6173 13.1227 11.484 13.304C11.356 13.4853 11.292 13.688 11.292 13.912C11.292 14.1253 11.3267 14.3093 11.396 14.464C11.4653 14.6187 11.5587 14.7467 11.676 14.848C11.7987 14.944 11.94 15.016 12.1 15.064C12.2653 15.1067 12.4413 15.128 12.628 15.128C12.8787 15.128 13.108 15.104 13.316 15.056C13.524 15.0027 13.7187 14.928 13.9 14.832C14.0867 14.736 14.2627 14.6213 14.428 14.488C14.5987 14.3547 14.764 14.2027 14.924 14.032V12.352ZM10.324 9.04C10.772 8.608 11.2547 8.28533 11.772 8.072C12.2893 7.85867 12.8627 7.752 13.492 7.752C13.9453 7.752 14.348 7.82667 14.7 7.976C15.052 8.12533 15.348 8.33333 15.588 8.6C15.828 8.86667 16.0093 9.18933 16.132 9.568C16.2547 9.94667 16.316 10.3627 16.316 10.816V16H15.684C15.5453 16 15.4387 15.9787 15.364 15.936C15.2893 15.888 15.2307 15.7973 15.188 15.664L15.028 14.896C14.8147 15.0933 14.6067 15.2693 14.404 15.424C14.2013 15.5733 13.988 15.7013 13.764 15.808C13.54 15.9093 13.3 15.9867 13.044 16.04C12.7933 16.0987 12.5133 16.128 12.204 16.128C11.8893 16.128 11.5933 16.0853 11.316 16C11.0387 15.9093 10.796 15.776 10.588 15.6C10.3853 15.424 10.2227 15.2027 10.1 14.936C9.98265 14.664 9.92398 14.344 9.92398 13.976C9.92398 13.656 10.012 13.3493 10.188 13.056C10.364 12.7573 10.6493 12.4933 11.044 12.264C11.4387 12.0347 11.9533 11.848 12.588 11.704C13.2227 11.5547 14.0013 11.4693 14.924 11.448V10.816C14.924 10.1867 14.788 9.712 14.516 9.392C14.244 9.06667 13.8467 8.904 13.324 8.904C12.972 8.904 12.676 8.94933 12.436 9.04C12.2013 9.12533 11.996 9.224 11.82 9.336C11.6493 9.44267 11.5 9.54133 11.372 9.632C11.2493 9.71733 11.1267 9.76 11.004 9.76C10.908 9.76 10.8253 9.736 10.756 9.688C10.6867 9.63467 10.628 9.57067 10.58 9.496L10.324 9.04ZM23.5251 9.232C23.4611 9.34933 23.3624 9.408 23.2291 9.408C23.1491 9.408 23.0584 9.37867 22.9571 9.32C22.8558 9.26133 22.7304 9.19733 22.5811 9.128C22.4371 9.05333 22.2638 8.98667 22.0611 8.928C21.8584 8.864 21.6184 8.832 21.3411 8.832C21.1011 8.832 20.8851 8.864 20.6931 8.928C20.5011 8.98667 20.3358 9.06933 20.1971 9.176C20.0638 9.28267 19.9598 9.408 19.8851 9.552C19.8158 9.69067 19.7811 9.84267 19.7811 10.008C19.7811 10.216 19.8398 10.3893 19.9571 10.528C20.0798 10.6667 20.2398 10.7867 20.4371 10.888C20.6344 10.9893 20.8584 11.08 21.1091 11.16C21.3598 11.2347 21.6158 11.3173 21.8771 11.408C22.1438 11.4933 22.4024 11.5893 22.6531 11.696C22.9038 11.8027 23.1278 11.936 23.3251 12.096C23.5224 12.256 23.6798 12.4533 23.7971 12.688C23.9198 12.9173 23.9811 13.1947 23.9811 13.52C23.9811 13.8933 23.9144 14.24 23.7811 14.56C23.6478 14.8747 23.4504 15.1493 23.1891 15.384C22.9278 15.6133 22.6078 15.7947 22.2291 15.928C21.8504 16.0613 21.4131 16.128 20.9171 16.128C20.3518 16.128 19.8398 16.0373 19.3811 15.856C18.9224 15.6693 18.5331 15.432 18.2131 15.144L18.5491 14.6C18.5918 14.5307 18.6424 14.4773 18.7011 14.44C18.7598 14.4027 18.8344 14.384 18.9251 14.384C19.0211 14.384 19.1224 14.4213 19.2291 14.496C19.3358 14.5707 19.4638 14.6533 19.6131 14.744C19.7678 14.8347 19.9544 14.9173 20.1731 14.992C20.3918 15.0667 20.6638 15.104 20.9891 15.104C21.2664 15.104 21.5091 15.0693 21.7171 15C21.9251 14.9253 22.0984 14.8267 22.2371 14.704C22.3758 14.5813 22.4771 14.44 22.5411 14.28C22.6104 14.12 22.6451 13.9493 22.6451 13.768C22.6451 13.544 22.5838 13.36 22.4611 13.216C22.3438 13.0667 22.1864 12.9413 21.9891 12.84C21.7918 12.7333 21.5651 12.6427 21.3091 12.568C21.0584 12.488 20.7998 12.4053 20.5331 12.32C20.2718 12.2347 20.0131 12.1387 19.7571 12.032C19.5064 11.92 19.2824 11.7813 19.0851 11.616C18.8878 11.4507 18.7278 11.248 18.6051 11.008C18.4878 10.7627 18.4291 10.4667 18.4291 10.12C18.4291 9.81067 18.4931 9.51467 18.6211 9.232C18.7491 8.944 18.9358 8.69333 19.1811 8.48C19.4264 8.26133 19.7278 8.088 20.0851 7.96C20.4424 7.832 20.8504 7.768 21.3091 7.768C21.8424 7.768 22.3198 7.85333 22.7411 8.024C23.1678 8.18933 23.5358 8.41867 23.8451 8.712L23.5251 9.232ZM28.535 16.128C27.895 16.128 27.4017 15.9493 27.055 15.592C26.7137 15.2347 26.543 14.72 26.543 14.048V9.088H25.567C25.4817 9.088 25.4097 9.064 25.351 9.016C25.2923 8.96267 25.263 8.88267 25.263 8.776V8.208L26.591 8.04L26.919 5.536C26.935 5.456 26.9697 5.392 27.023 5.344C27.0817 5.29067 27.1563 5.264 27.247 5.264H27.967V8.056H30.311V9.088H27.967V13.952C27.967 14.2933 28.0497 14.5467 28.215 14.712C28.3803 14.8773 28.5937 14.96 28.855 14.96C29.0043 14.96 29.1323 14.9413 29.239 14.904C29.351 14.8613 29.447 14.816 29.527 14.768C29.607 14.72 29.6737 14.6773 29.727 14.64C29.7857 14.5973 29.8363 14.576 29.879 14.576C29.9537 14.576 30.0203 14.6213 30.079 14.712L30.495 15.392C30.2497 15.6213 29.9537 15.8027 29.607 15.936C29.2603 16.064 28.903 16.128 28.535 16.128ZM46.1391 4.536V16H45.3631C45.2404 16 45.1364 15.9787 45.0511 15.936C44.9711 15.8933 44.8911 15.8213 44.8111 15.72L38.1791 7.08C38.1898 7.21333 38.1978 7.344 38.2031 7.472C38.2084 7.6 38.2111 7.72 38.2111 7.832V16H36.8511V4.536H37.6511C37.7204 4.536 37.7791 4.54133 37.8271 4.552C37.8751 4.55733 37.9178 4.57067 37.9551 4.592C37.9924 4.608 38.0298 4.63467 38.0671 4.672C38.1044 4.704 38.1444 4.74667 38.1871 4.8L44.8191 13.432C44.8084 13.2933 44.7978 13.16 44.7871 13.032C44.7818 12.8987 44.7791 12.7733 44.7791 12.656V4.536H46.1391ZM53.2115 12.352C52.5555 12.3733 51.9955 12.4267 51.5315 12.512C51.0728 12.592 50.6968 12.6987 50.4035 12.832C50.1155 12.9653 49.9048 13.1227 49.7715 13.304C49.6435 13.4853 49.5795 13.688 49.5795 13.912C49.5795 14.1253 49.6141 14.3093 49.6835 14.464C49.7528 14.6187 49.8461 14.7467 49.9635 14.848C50.0861 14.944 50.2275 15.016 50.3875 15.064C50.5528 15.1067 50.7288 15.128 50.9155 15.128C51.1661 15.128 51.3955 15.104 51.6035 15.056C51.8115 15.0027 52.0061 14.928 52.1875 14.832C52.3741 14.736 52.5501 14.6213 52.7155 14.488C52.8861 14.3547 53.0515 14.2027 53.2115 14.032V12.352ZM48.6115 9.04C49.0595 8.608 49.5421 8.28533 50.0595 8.072C50.5768 7.85867 51.1501 7.752 51.7795 7.752C52.2328 7.752 52.6355 7.82667 52.9875 7.976C53.3395 8.12533 53.6355 8.33333 53.8755 8.6C54.1155 8.86667 54.2968 9.18933 54.4195 9.568C54.5421 9.94667 54.6035 10.3627 54.6035 10.816V16H53.9715C53.8328 16 53.7261 15.9787 53.6515 15.936C53.5768 15.888 53.5181 15.7973 53.4755 15.664L53.3155 14.896C53.1021 15.0933 52.8941 15.2693 52.6915 15.424C52.4888 15.5733 52.2755 15.7013 52.0515 15.808C51.8275 15.9093 51.5875 15.9867 51.3315 16.04C51.0808 16.0987 50.8008 16.128 50.4915 16.128C50.1768 16.128 49.8808 16.0853 49.6035 16C49.3261 15.9093 49.0835 15.776 48.8755 15.6C48.6728 15.424 48.5101 15.2027 48.3875 14.936C48.2701 14.664 48.2115 14.344 48.2115 13.976C48.2115 13.656 48.2995 13.3493 48.4755 13.056C48.6515 12.7573 48.9368 12.4933 49.3315 12.264C49.7261 12.0347 50.2408 11.848 50.8755 11.704C51.5101 11.5547 52.2888 11.4693 53.2115 11.448V10.816C53.2115 10.1867 53.0755 9.712 52.8035 9.392C52.5315 9.06667 52.1341 8.904 51.6115 8.904C51.2595 8.904 50.9635 8.94933 50.7235 9.04C50.4888 9.12533 50.2835 9.224 50.1075 9.336C49.9368 9.44267 49.7875 9.54133 49.6595 9.632C49.5368 9.71733 49.4141 9.76 49.2915 9.76C49.1955 9.76 49.1128 9.736 49.0435 9.688C48.9741 9.63467 48.9155 9.57067 48.8675 9.496L48.6115 9.04ZM57.0926 16V7.896H57.9486C58.1513 7.896 58.2766 7.99467 58.3246 8.192L58.4286 9.024C58.7273 8.656 59.0633 8.35467 59.4366 8.12C59.8099 7.88533 60.2419 7.768 60.7326 7.768C61.2766 7.768 61.7166 7.92 62.0526 8.224C62.3939 8.528 62.6393 8.93867 62.7886 9.456C62.9059 9.16267 63.0553 8.90933 63.2366 8.696C63.4233 8.48267 63.6313 8.30667 63.8606 8.168C64.0899 8.02933 64.3326 7.928 64.5886 7.864C64.8499 7.8 65.1139 7.768 65.3806 7.768C65.8073 7.768 66.1859 7.83733 66.5166 7.976C66.8526 8.10933 67.1353 8.30667 67.3646 8.568C67.5993 8.82933 67.7779 9.152 67.9006 9.536C68.0233 9.91467 68.0846 10.3493 68.0846 10.84V16H66.6526V10.84C66.6526 10.2053 66.5139 9.72533 66.2366 9.4C65.9593 9.06933 65.5593 8.904 65.0366 8.904C64.8019 8.904 64.5779 8.94667 64.3646 9.032C64.1566 9.112 63.9726 9.232 63.8126 9.392C63.6526 9.552 63.5246 9.75467 63.4286 10C63.3379 10.24 63.2926 10.52 63.2926 10.84V16H61.8606V10.84C61.8606 10.1893 61.7299 9.704 61.4686 9.384C61.2073 9.064 60.8259 8.904 60.3246 8.904C59.9726 8.904 59.6473 9 59.3486 9.192C59.0499 9.37867 58.7753 9.63467 58.5246 9.96V16H57.0926ZM75.9929 11.064C75.9929 10.7333 75.9449 10.432 75.8489 10.16C75.7582 9.88267 75.6222 9.64533 75.4409 9.448C75.2649 9.24533 75.0489 9.09067 74.7929 8.984C74.5369 8.872 74.2462 8.816 73.9209 8.816C73.2382 8.816 72.6969 9.016 72.2969 9.416C71.9022 9.81067 71.6569 10.36 71.5609 11.064H75.9929ZM77.1449 14.864C76.9689 15.0773 76.7582 15.264 76.5129 15.424C76.2675 15.5787 76.0035 15.7067 75.7209 15.808C75.4435 15.9093 75.1555 15.984 74.8569 16.032C74.5582 16.0853 74.2622 16.112 73.9689 16.112C73.4089 16.112 72.8915 16.0187 72.4169 15.832C71.9475 15.64 71.5395 15.3627 71.1929 15C70.8515 14.632 70.5849 14.1787 70.3929 13.64C70.2009 13.1013 70.1049 12.4827 70.1049 11.784C70.1049 11.2187 70.1902 10.6907 70.3609 10.2C70.5369 9.70933 70.7875 9.28533 71.1129 8.928C71.4382 8.56533 71.8355 8.28267 72.3049 8.08C72.7742 7.872 73.3022 7.768 73.8889 7.768C74.3742 7.768 74.8222 7.85067 75.2329 8.016C75.6489 8.176 76.0062 8.41067 76.3049 8.72C76.6089 9.024 76.8462 9.40267 77.0169 9.856C77.1875 10.304 77.2729 10.816 77.2729 11.392C77.2729 11.616 77.2489 11.7653 77.2009 11.84C77.1529 11.9147 77.0622 11.952 76.9289 11.952H71.5129C71.5289 12.464 71.5982 12.9093 71.7209 13.288C71.8489 13.6667 72.0249 13.984 72.2489 14.24C72.4729 14.4907 72.7395 14.68 73.0489 14.808C73.3582 14.9307 73.7049 14.992 74.0889 14.992C74.4462 14.992 74.7529 14.952 75.0089 14.872C75.2702 14.7867 75.4942 14.696 75.6809 14.6C75.8675 14.504 76.0222 14.416 76.1449 14.336C76.2729 14.2507 76.3822 14.208 76.4729 14.208C76.5902 14.208 76.6809 14.2533 76.7449 14.344L77.1449 14.864Z" fill="#8686A1"/>
<defs>
<filter id="filter0_b_450_5693" x="-29.1348" y="1" width="398.865" height="115" filterUnits="userSpaceOnUse" color-interpolation-filters="sRGB">
<feFlood flood-opacity="0" result="BackgroundImageFix"/>
<feGaussianBlur in="BackgroundImageFix" stdDeviation="15"/>
<feComposite in2="SourceAlpha" operator="in" result="effect1_backgroundBlur_450_5693"/>
<feBlend mode="normal" in="SourceGraphic" in2="effect1_backgroundBlur_450_5693" result="shape"/>
</filter>
<linearGradient id="paint0_linear_450_5693" x1="24.7898" y1="22.1792" x2="151.081" y2="50.3069" gradientUnits="userSpaceOnUse">
<stop stop-color="white"/>
<stop offset="1" stop-color="white" stop-opacity="0"/>
</linearGradient>
</defs>
</svg>
