<svg width="662" height="45" viewBox="0 0 662 45" fill="none" xmlns="http://www.w3.org/2000/svg">
<path d="M24 7H42" stroke="#8686A1" stroke-width="1.5" stroke-linecap="round"/>
<path d="M24 12H42" stroke="#8686A1" stroke-width="1.5" stroke-linecap="round"/>
<path d="M24 17H42" stroke="#8686A1" stroke-width="1.5" stroke-linecap="round"/>
<path d="M62.488 14C62.488 14.64 62.408 15.216 62.248 15.728C62.088 16.24 61.8533 16.6747 61.544 17.032C61.24 17.384 60.8587 17.656 60.4 17.848C59.9467 18.0347 59.424 18.128 58.832 18.128C58.2987 18.128 57.7493 18.0533 57.184 17.904L57.28 16.896C57.2907 16.8 57.3253 16.7227 57.384 16.664C57.448 16.6 57.5413 16.568 57.664 16.568C57.7547 16.568 57.8773 16.592 58.032 16.64C58.192 16.6827 58.4 16.704 58.656 16.704C58.9973 16.704 59.2987 16.6533 59.56 16.552C59.8267 16.4507 60.0507 16.2933 60.232 16.08C60.4133 15.8613 60.5493 15.584 60.64 15.248C60.736 14.912 60.784 14.5093 60.784 14.04V6.512H62.488V14ZM69.2684 14.392C68.6337 14.4133 68.095 14.464 67.6524 14.544C67.2097 14.6187 66.8497 14.72 66.5724 14.848C66.295 14.976 66.095 15.128 65.9724 15.304C65.8497 15.4747 65.7884 15.6667 65.7884 15.88C65.7884 16.0827 65.8204 16.2587 65.8844 16.408C65.9537 16.552 66.0444 16.672 66.1564 16.768C66.2737 16.8587 66.4097 16.9253 66.5644 16.968C66.719 17.0107 66.887 17.032 67.0684 17.032C67.3084 17.032 67.527 17.008 67.7244 16.96C67.927 16.912 68.1164 16.8453 68.2924 16.76C68.4684 16.6693 68.6364 16.56 68.7964 16.432C68.9564 16.304 69.1137 16.1573 69.2684 15.992V14.392ZM64.6924 11.008C65.1457 10.576 65.6364 10.2533 66.1644 10.04C66.6977 9.82667 67.2817 9.72 67.9164 9.72C68.3804 9.72 68.791 9.79733 69.1484 9.952C69.5057 10.1013 69.807 10.312 70.0524 10.584C70.2977 10.856 70.4817 11.1813 70.6044 11.56C70.7324 11.9387 70.7964 12.3573 70.7964 12.816V18H70.1004C69.9457 18 69.8284 17.976 69.7484 17.928C69.6684 17.8747 69.6044 17.7787 69.5564 17.64L69.3884 16.928C69.1804 17.12 68.975 17.2907 68.7724 17.44C68.5697 17.584 68.3564 17.7093 68.1324 17.816C67.9137 17.9173 67.679 17.9947 67.4284 18.048C67.1777 18.1013 66.9004 18.128 66.5964 18.128C66.2764 18.128 65.975 18.0853 65.6924 18C65.415 17.9093 65.1724 17.7733 64.9644 17.592C64.7564 17.4107 64.591 17.184 64.4684 16.912C64.351 16.64 64.2924 16.3227 64.2924 15.96C64.2924 15.64 64.3777 15.3333 64.5484 15.04C64.7244 14.7413 65.007 14.4747 65.3964 14.24C65.791 14.0053 66.303 13.8133 66.9324 13.664C67.567 13.5147 68.3457 13.4293 69.2684 13.408V12.816C69.2684 12.2027 69.1377 11.744 68.8764 11.44C68.615 11.136 68.231 10.984 67.7244 10.984C67.383 10.984 67.095 11.0267 66.8604 11.112C66.631 11.1973 66.431 11.2933 66.2604 11.4C66.095 11.5013 65.9484 11.5947 65.8204 11.68C65.6977 11.7653 65.5697 11.808 65.4364 11.808C65.3297 11.808 65.2364 11.7787 65.1564 11.72C65.0817 11.6613 65.0204 11.592 64.9724 11.512L64.6924 11.008ZM74.8368 9.872V18H73.2768V9.872H74.8368ZM75.1328 7.36C75.1328 7.504 75.1034 7.64267 75.0448 7.776C74.9861 7.904 74.9061 8.01867 74.8048 8.12C74.7088 8.216 74.5941 8.29333 74.4608 8.352C74.3274 8.40533 74.1888 8.432 74.0448 8.432C73.9008 8.432 73.7648 8.40533 73.6368 8.352C73.5088 8.29333 73.3941 8.216 73.2928 8.12C73.1968 8.01867 73.1194 7.904 73.0608 7.776C73.0074 7.64267 72.9808 7.504 72.9808 7.36C72.9808 7.21067 73.0074 7.072 73.0608 6.944C73.1194 6.81067 73.1968 6.696 73.2928 6.6C73.3941 6.49867 73.5088 6.42133 73.6368 6.368C73.7648 6.30933 73.9008 6.28 74.0448 6.28C74.1888 6.28 74.3274 6.30933 74.4608 6.368C74.5941 6.42133 74.7088 6.49867 74.8048 6.6C74.9061 6.696 74.9861 6.81067 75.0448 6.944C75.1034 7.072 75.1328 7.21067 75.1328 7.36ZM77.4154 18V9.872H78.3514C78.57 9.872 78.706 9.976 78.7594 10.184L78.8714 10.96C79.17 10.6027 79.5007 10.312 79.8634 10.088C80.2314 9.85867 80.6607 9.744 81.1514 9.744C81.69 9.744 82.1274 9.89333 82.4634 10.192C82.7994 10.4853 83.0447 10.8853 83.1994 11.392C83.3167 11.104 83.4687 10.856 83.6554 10.648C83.842 10.44 84.05 10.2693 84.2794 10.136C84.5087 10.0027 84.7514 9.904 85.0074 9.84C85.2687 9.776 85.5327 9.744 85.7994 9.744C86.2314 9.744 86.6154 9.81333 86.9514 9.952C87.2927 10.0853 87.5807 10.2827 87.8154 10.544C88.05 10.8053 88.2287 11.128 88.3514 11.512C88.474 11.896 88.5354 12.3333 88.5354 12.824V18H86.9674V12.824C86.9674 12.216 86.834 11.7573 86.5674 11.448C86.306 11.1387 85.922 10.984 85.4154 10.984C85.1914 10.984 84.978 11.024 84.7754 11.104C84.5727 11.1787 84.394 11.2933 84.2394 11.448C84.09 11.6027 83.97 11.7947 83.8794 12.024C83.794 12.2533 83.7514 12.52 83.7514 12.824V18H82.1834V12.824C82.1834 12.1947 82.058 11.7307 81.8074 11.432C81.5567 11.1333 81.1887 10.984 80.7034 10.984C80.3674 10.984 80.0554 11.072 79.7674 11.248C79.4794 11.424 79.2154 11.664 78.9754 11.968V18H77.4154ZM96.3381 13.032C96.3381 12.7227 96.2928 12.4373 96.2021 12.176C96.1168 11.9147 95.9888 11.688 95.8181 11.496C95.6475 11.304 95.4395 11.1547 95.1941 11.048C94.9488 10.9413 94.6661 10.888 94.3461 10.888C93.6901 10.888 93.1728 11.0773 92.7941 11.456C92.4208 11.8347 92.1835 12.36 92.0821 13.032H96.3381ZM97.6261 16.84C97.4341 17.064 97.2128 17.2587 96.9621 17.424C96.7115 17.584 96.4448 17.7147 96.1621 17.816C95.8795 17.9173 95.5861 17.992 95.2821 18.04C94.9835 18.088 94.6875 18.112 94.3941 18.112C93.8341 18.112 93.3141 18.0187 92.8341 17.832C92.3595 17.64 91.9461 17.3627 91.5941 17C91.2475 16.632 90.9755 16.1787 90.7781 15.64C90.5861 15.096 90.4901 14.472 90.4901 13.768C90.4901 13.2027 90.5781 12.6773 90.7541 12.192C90.9301 11.7013 91.1808 11.2747 91.5061 10.912C91.8368 10.5493 92.2395 10.264 92.7141 10.056C93.1888 9.848 93.7221 9.744 94.3141 9.744C94.8101 9.744 95.2661 9.82667 95.6821 9.992C96.1035 10.152 96.4661 10.3867 96.7701 10.696C97.0741 11.0053 97.3115 11.3867 97.4821 11.84C97.6581 12.2933 97.7461 12.8107 97.7461 13.392C97.7461 13.632 97.7195 13.7947 97.6661 13.88C97.6128 13.96 97.5141 14 97.3701 14H92.0421C92.0581 14.4853 92.1275 14.9093 92.2501 15.272C92.3728 15.6293 92.5408 15.928 92.7541 16.168C92.9728 16.408 93.2315 16.5867 93.5301 16.704C93.8288 16.8213 94.1621 16.88 94.5301 16.88C94.8768 16.88 95.1755 16.84 95.4261 16.76C95.6821 16.68 95.9008 16.5947 96.0821 16.504C96.2688 16.408 96.4235 16.32 96.5461 16.24C96.6741 16.16 96.7861 16.12 96.8821 16.12C97.0101 16.12 97.1088 16.168 97.1781 16.264L97.6261 16.84Z" fill="#3C3C6F"/>
<line x1="662" y1="44.5" x2="4.37113e-08" y2="44.5001" stroke="#E1DBCF"/>
</svg>
