<svg width="662" height="45" viewBox="0 0 662 45" fill="none" xmlns="http://www.w3.org/2000/svg">
<path d="M24 7H42" stroke="#8686A1" stroke-width="1.5" stroke-linecap="round"/>
<path d="M24 12H42" stroke="#8686A1" stroke-width="1.5" stroke-linecap="round"/>
<path d="M24 17H42" stroke="#8686A1" stroke-width="1.5" stroke-linecap="round"/>
<path d="M60.128 7.896V11.744H64.736V13.128H60.128V18H58.416V6.512H65.536V7.896H60.128ZM70.7059 14.392C70.0712 14.4133 69.5325 14.464 69.0899 14.544C68.6472 14.6187 68.2872 14.72 68.0099 14.848C67.7325 14.976 67.5325 15.128 67.4099 15.304C67.2872 15.4747 67.2259 15.6667 67.2259 15.88C67.2259 16.0827 67.2579 16.2587 67.3219 16.408C67.3912 16.552 67.4819 16.672 67.5939 16.768C67.7112 16.8587 67.8472 16.9253 68.0019 16.968C68.1565 17.0107 68.3245 17.032 68.5059 17.032C68.7459 17.032 68.9645 17.008 69.1619 16.96C69.3645 16.912 69.5539 16.8453 69.7299 16.76C69.9059 16.6693 70.0739 16.56 70.2339 16.432C70.3939 16.304 70.5512 16.1573 70.7059 15.992V14.392ZM66.1299 11.008C66.5832 10.576 67.0739 10.2533 67.6019 10.04C68.1352 9.82667 68.7192 9.72 69.3539 9.72C69.8179 9.72 70.2285 9.79733 70.5859 9.952C70.9432 10.1013 71.2445 10.312 71.4899 10.584C71.7352 10.856 71.9192 11.1813 72.0419 11.56C72.1699 11.9387 72.2339 12.3573 72.2339 12.816V18H71.5379C71.3832 18 71.2659 17.976 71.1859 17.928C71.1059 17.8747 71.0419 17.7787 70.9939 17.64L70.8259 16.928C70.6179 17.12 70.4125 17.2907 70.2099 17.44C70.0072 17.584 69.7939 17.7093 69.5699 17.816C69.3512 17.9173 69.1165 17.9947 68.8659 18.048C68.6152 18.1013 68.3379 18.128 68.0339 18.128C67.7139 18.128 67.4125 18.0853 67.1299 18C66.8525 17.9093 66.6099 17.7733 66.4019 17.592C66.1939 17.4107 66.0285 17.184 65.9059 16.912C65.7885 16.64 65.7299 16.3227 65.7299 15.96C65.7299 15.64 65.8152 15.3333 65.9859 15.04C66.1619 14.7413 66.4445 14.4747 66.8339 14.24C67.2285 14.0053 67.7405 13.8133 68.3699 13.664C69.0045 13.5147 69.7832 13.4293 70.7059 13.408V12.816C70.7059 12.2027 70.5752 11.744 70.3139 11.44C70.0525 11.136 69.6685 10.984 69.1619 10.984C68.8205 10.984 68.5325 11.0267 68.2979 11.112C68.0685 11.1973 67.8685 11.2933 67.6979 11.4C67.5325 11.5013 67.3859 11.5947 67.2579 11.68C67.1352 11.7653 67.0072 11.808 66.8739 11.808C66.7672 11.808 66.6739 11.7787 66.5939 11.72C66.5192 11.6613 66.4579 11.592 66.4099 11.512L66.1299 11.008ZM76.1142 11.432C76.3756 10.8987 76.6902 10.48 77.0582 10.176C77.4262 9.872 77.8689 9.72 78.3862 9.72C78.5622 9.72 78.7276 9.74133 78.8822 9.784C79.0422 9.82133 79.1809 9.88 79.2982 9.96L79.1942 11.136C79.1569 11.28 79.0689 11.352 78.9302 11.352C78.8556 11.352 78.7436 11.3387 78.5942 11.312C78.4449 11.28 78.2849 11.264 78.1142 11.264C77.8636 11.264 77.6422 11.3013 77.4502 11.376C77.2582 11.4453 77.0849 11.552 76.9302 11.696C76.7809 11.8347 76.6476 12.008 76.5302 12.216C76.4129 12.4187 76.3036 12.6507 76.2022 12.912V18H74.6422V9.872H75.5382C75.7089 9.872 75.8236 9.904 75.8822 9.968C75.9462 10.0267 75.9916 10.1333 76.0182 10.288L76.1142 11.432ZM85.0646 14.392C84.43 14.4133 83.8913 14.464 83.4486 14.544C83.006 14.6187 82.646 14.72 82.3686 14.848C82.0913 14.976 81.8913 15.128 81.7686 15.304C81.646 15.4747 81.5846 15.6667 81.5846 15.88C81.5846 16.0827 81.6166 16.2587 81.6806 16.408C81.75 16.552 81.8406 16.672 81.9526 16.768C82.07 16.8587 82.206 16.9253 82.3606 16.968C82.5153 17.0107 82.6833 17.032 82.8646 17.032C83.1046 17.032 83.3233 17.008 83.5206 16.96C83.7233 16.912 83.9126 16.8453 84.0886 16.76C84.2646 16.6693 84.4326 16.56 84.5926 16.432C84.7526 16.304 84.91 16.1573 85.0646 15.992V14.392ZM80.4886 11.008C80.942 10.576 81.4326 10.2533 81.9606 10.04C82.494 9.82667 83.078 9.72 83.7126 9.72C84.1766 9.72 84.5873 9.79733 84.9446 9.952C85.302 10.1013 85.6033 10.312 85.8486 10.584C86.094 10.856 86.278 11.1813 86.4006 11.56C86.5286 11.9387 86.5926 12.3573 86.5926 12.816V18H85.8966C85.742 18 85.6246 17.976 85.5446 17.928C85.4646 17.8747 85.4006 17.7787 85.3526 17.64L85.1846 16.928C84.9766 17.12 84.7713 17.2907 84.5686 17.44C84.366 17.584 84.1526 17.7093 83.9286 17.816C83.71 17.9173 83.4753 17.9947 83.2246 18.048C82.974 18.1013 82.6966 18.128 82.3926 18.128C82.0726 18.128 81.7713 18.0853 81.4886 18C81.2113 17.9093 80.9686 17.7733 80.7606 17.592C80.5526 17.4107 80.3873 17.184 80.2646 16.912C80.1473 16.64 80.0886 16.3227 80.0886 15.96C80.0886 15.64 80.174 15.3333 80.3446 15.04C80.5206 14.7413 80.8033 14.4747 81.1926 14.24C81.5873 14.0053 82.0993 13.8133 82.7286 13.664C83.3633 13.5147 84.142 13.4293 85.0646 13.408V12.816C85.0646 12.2027 84.934 11.744 84.6726 11.44C84.4113 11.136 84.0273 10.984 83.5206 10.984C83.1793 10.984 82.8913 11.0267 82.6566 11.112C82.4273 11.1973 82.2273 11.2933 82.0566 11.4C81.8913 11.5013 81.7446 11.5947 81.6166 11.68C81.494 11.7653 81.366 11.808 81.2326 11.808C81.126 11.808 81.0326 11.7787 80.9526 11.72C80.878 11.6613 80.8166 11.592 80.7686 11.512L80.4886 11.008ZM90.561 10.904C90.9023 10.5573 91.2783 10.2773 91.689 10.064C92.105 9.85067 92.5823 9.744 93.121 9.744C93.569 9.744 93.961 9.81867 94.297 9.968C94.6383 10.1173 94.9237 10.328 95.153 10.6C95.3823 10.8667 95.5557 11.1893 95.673 11.568C95.7903 11.9467 95.849 12.3653 95.849 12.824V18H94.281V12.824C94.281 12.2427 94.1477 11.792 93.881 11.472C93.6143 11.1467 93.2063 10.984 92.657 10.984C92.257 10.984 91.881 11.08 91.529 11.272C91.1823 11.4587 90.8597 11.7147 90.561 12.04V18H89.001V6.192H90.561V10.904Z" fill="#3C3C6F"/>
<line x1="662" y1="44.5" x2="4.37113e-08" y2="44.5001" stroke="#E1DBCF"/>
</svg>
