<svg width="662" height="44" viewBox="0 0 662 44" fill="none" xmlns="http://www.w3.org/2000/svg">
<path d="M24 7H42" stroke="#8686A1" stroke-width="1.5" stroke-linecap="round"/>
<path d="M24 12H42" stroke="#8686A1" stroke-width="1.5" stroke-linecap="round"/>
<path d="M24 17H42" stroke="#8686A1" stroke-width="1.5" stroke-linecap="round"/>
<path d="M69.12 12.256C69.12 13.1147 68.9813 13.904 68.704 14.624C68.432 15.3387 68.0453 15.9573 67.544 16.48C67.0427 16.9973 66.4427 17.4 65.744 17.688C65.0453 17.976 64.2693 18.12 63.416 18.12C62.568 18.12 61.792 17.976 61.088 17.688C60.3893 17.4 59.7893 16.9973 59.288 16.48C58.792 15.9573 58.4053 15.3387 58.128 14.624C57.8507 13.904 57.712 13.1147 57.712 12.256C57.712 11.4027 57.8507 10.616 58.128 9.896C58.4053 9.176 58.792 8.55733 59.288 8.04C59.7893 7.51733 60.3893 7.112 61.088 6.824C61.792 6.53067 62.568 6.384 63.416 6.384C64.2693 6.384 65.0453 6.53067 65.744 6.824C66.4427 7.112 67.0427 7.51733 67.544 8.04C68.0453 8.55733 68.432 9.176 68.704 9.896C68.9813 10.616 69.12 11.4027 69.12 12.256ZM67.376 12.256C67.376 11.5733 67.2827 10.96 67.096 10.416C66.9093 9.872 66.6427 9.41067 66.296 9.032C65.9547 8.65333 65.5387 8.36267 65.048 8.16C64.5627 7.95733 64.0187 7.856 63.416 7.856C62.8133 7.856 62.2667 7.95733 61.776 8.16C61.2907 8.36267 60.8747 8.65333 60.528 9.032C60.1813 9.41067 59.9147 9.872 59.728 10.416C59.5413 10.96 59.448 11.5733 59.448 12.256C59.448 12.944 59.5413 13.56 59.728 14.104C59.9147 14.6427 60.1813 15.1013 60.528 15.48C60.8747 15.8587 61.2907 16.1493 61.776 16.352C62.2667 16.5493 62.8133 16.648 63.416 16.648C64.0187 16.648 64.5627 16.5493 65.048 16.352C65.5387 16.1493 65.9547 15.8587 66.296 15.48C66.6427 15.1013 66.9093 14.6427 67.096 14.104C67.2827 13.56 67.376 12.944 67.376 12.256ZM71.1035 18V9.872H72.0395C72.2582 9.872 72.3942 9.976 72.4475 10.184L72.5595 10.96C72.8582 10.6027 73.1888 10.312 73.5515 10.088C73.9195 9.85867 74.3488 9.744 74.8395 9.744C75.3782 9.744 75.8155 9.89333 76.1515 10.192C76.4875 10.4853 76.7328 10.8853 76.8875 11.392C77.0048 11.104 77.1568 10.856 77.3435 10.648C77.5302 10.44 77.7382 10.2693 77.9675 10.136C78.1968 10.0027 78.4395 9.904 78.6955 9.84C78.9568 9.776 79.2208 9.744 79.4875 9.744C79.9195 9.744 80.3035 9.81333 80.6395 9.952C80.9808 10.0853 81.2688 10.2827 81.5035 10.544C81.7382 10.8053 81.9168 11.128 82.0395 11.512C82.1622 11.896 82.2235 12.3333 82.2235 12.824V18H80.6555V12.824C80.6555 12.216 80.5222 11.7573 80.2555 11.448C79.9942 11.1387 79.6102 10.984 79.1035 10.984C78.8795 10.984 78.6662 11.024 78.4635 11.104C78.2608 11.1787 78.0822 11.2933 77.9275 11.448C77.7782 11.6027 77.6582 11.7947 77.5675 12.024C77.4822 12.2533 77.4395 12.52 77.4395 12.824V18H75.8715V12.824C75.8715 12.1947 75.7462 11.7307 75.4955 11.432C75.2448 11.1333 74.8768 10.984 74.3915 10.984C74.0555 10.984 73.7435 11.072 73.4555 11.248C73.1675 11.424 72.9035 11.664 72.6635 11.968V18H71.1035ZM89.0102 14.392C88.3756 14.4133 87.8369 14.464 87.3942 14.544C86.9516 14.6187 86.5916 14.72 86.3142 14.848C86.0369 14.976 85.8369 15.128 85.7142 15.304C85.5916 15.4747 85.5302 15.6667 85.5302 15.88C85.5302 16.0827 85.5622 16.2587 85.6262 16.408C85.6956 16.552 85.7862 16.672 85.8982 16.768C86.0156 16.8587 86.1516 16.9253 86.3062 16.968C86.4609 17.0107 86.6289 17.032 86.8102 17.032C87.0502 17.032 87.2689 17.008 87.4662 16.96C87.6689 16.912 87.8582 16.8453 88.0342 16.76C88.2102 16.6693 88.3782 16.56 88.5382 16.432C88.6982 16.304 88.8556 16.1573 89.0102 15.992V14.392ZM84.4342 11.008C84.8876 10.576 85.3782 10.2533 85.9062 10.04C86.4396 9.82667 87.0236 9.72 87.6582 9.72C88.1222 9.72 88.5329 9.79733 88.8902 9.952C89.2476 10.1013 89.5489 10.312 89.7942 10.584C90.0396 10.856 90.2236 11.1813 90.3462 11.56C90.4742 11.9387 90.5382 12.3573 90.5382 12.816V18H89.8422C89.6876 18 89.5702 17.976 89.4902 17.928C89.4102 17.8747 89.3462 17.7787 89.2982 17.64L89.1302 16.928C88.9222 17.12 88.7169 17.2907 88.5142 17.44C88.3116 17.584 88.0982 17.7093 87.8742 17.816C87.6556 17.9173 87.4209 17.9947 87.1702 18.048C86.9196 18.1013 86.6422 18.128 86.3382 18.128C86.0182 18.128 85.7169 18.0853 85.4342 18C85.1569 17.9093 84.9142 17.7733 84.7062 17.592C84.4982 17.4107 84.3329 17.184 84.2102 16.912C84.0929 16.64 84.0342 16.3227 84.0342 15.96C84.0342 15.64 84.1196 15.3333 84.2902 15.04C84.4662 14.7413 84.7489 14.4747 85.1382 14.24C85.5329 14.0053 86.0449 13.8133 86.6742 13.664C87.3089 13.5147 88.0876 13.4293 89.0102 13.408V12.816C89.0102 12.2027 88.8796 11.744 88.6182 11.44C88.3569 11.136 87.9729 10.984 87.4662 10.984C87.1249 10.984 86.8369 11.0267 86.6022 11.112C86.3729 11.1973 86.1729 11.2933 86.0022 11.4C85.8369 11.5013 85.6902 11.5947 85.5622 11.68C85.4396 11.7653 85.3116 11.808 85.1782 11.808C85.0716 11.808 84.9782 11.7787 84.8982 11.72C84.8236 11.6613 84.7622 11.592 84.7142 11.512L84.4342 11.008ZM94.4186 11.432C94.68 10.8987 94.9946 10.48 95.3626 10.176C95.7306 9.872 96.1733 9.72 96.6906 9.72C96.8666 9.72 97.032 9.74133 97.1866 9.784C97.3466 9.82133 97.4853 9.88 97.6026 9.96L97.4986 11.136C97.4613 11.28 97.3733 11.352 97.2346 11.352C97.16 11.352 97.048 11.3387 96.8986 11.312C96.7493 11.28 96.5893 11.264 96.4186 11.264C96.168 11.264 95.9466 11.3013 95.7546 11.376C95.5626 11.4453 95.3893 11.552 95.2346 11.696C95.0853 11.8347 94.952 12.008 94.8346 12.216C94.7173 12.4187 94.608 12.6507 94.5066 12.912V18H92.9466V9.872H93.8426C94.0133 9.872 94.128 9.904 94.1866 9.968C94.2506 10.0267 94.296 10.1333 94.3226 10.288L94.4186 11.432Z" fill="#3C3C6F"/>
</svg>
