<svg width="323" height="86" viewBox="0 0 323 86" fill="none" xmlns="http://www.w3.org/2000/svg">
<g filter="url(#filter0_b_2001_2415)">
<path d="M0 39C0 34.5817 3.58172 31 8 31H315C319.418 31 323 34.5817 323 39V78C323 82.4183 319.418 86 315 86H8C3.58173 86 0 82.4183 0 78V39Z" fill="white" fill-opacity="0.4"/>
<path d="M8 32H315C318.866 32 322 35.134 322 39V78C322 81.866 318.866 85 315 85H8C4.13401 85 1 81.866 1 78V39C1 35.134 4.13401 32 8 32Z" stroke="url(#paint0_linear_2001_2415)" stroke-opacity="0.9" stroke-width="2"/>
</g>
<path d="M33.12 59.256C33.12 60.1147 32.9813 60.904 32.704 61.624C32.432 62.3387 32.0453 62.9573 31.544 63.48C31.0427 63.9973 30.4427 64.4 29.744 64.688C29.0453 64.976 28.2693 65.12 27.416 65.12C26.568 65.12 25.792 64.976 25.088 64.688C24.3893 64.4 23.7893 63.9973 23.288 63.48C22.792 62.9573 22.4053 62.3387 22.128 61.624C21.8507 60.904 21.712 60.1147 21.712 59.256C21.712 58.4027 21.8507 57.616 22.128 56.896C22.4053 56.176 22.792 55.5573 23.288 55.04C23.7893 54.5173 24.3893 54.112 25.088 53.824C25.792 53.5307 26.568 53.384 27.416 53.384C28.2693 53.384 29.0453 53.5307 29.744 53.824C30.4427 54.112 31.0427 54.5173 31.544 55.04C32.0453 55.5573 32.432 56.176 32.704 56.896C32.9813 57.616 33.12 58.4027 33.12 59.256ZM31.376 59.256C31.376 58.5733 31.2827 57.96 31.096 57.416C30.9093 56.872 30.6427 56.4107 30.296 56.032C29.9547 55.6533 29.5387 55.3627 29.048 55.16C28.5627 54.9573 28.0187 54.856 27.416 54.856C26.8133 54.856 26.2667 54.9573 25.776 55.16C25.2907 55.3627 24.8747 55.6533 24.528 56.032C24.1813 56.4107 23.9147 56.872 23.728 57.416C23.5413 57.96 23.448 58.5733 23.448 59.256C23.448 59.944 23.5413 60.56 23.728 61.104C23.9147 61.6427 24.1813 62.1013 24.528 62.48C24.8747 62.8587 25.2907 63.1493 25.776 63.352C26.2667 63.5493 26.8133 63.648 27.416 63.648C28.0187 63.648 28.5627 63.5493 29.048 63.352C29.5387 63.1493 29.9547 62.8587 30.296 62.48C30.6427 62.1013 30.9093 61.6427 31.096 61.104C31.2827 60.56 31.376 59.944 31.376 59.256ZM46.5638 56.872L43.9478 65H42.6997C42.5504 65 42.4491 64.9013 42.3958 64.704L40.6838 59.408C40.6411 59.2747 40.6038 59.144 40.5718 59.016C40.5397 58.8827 40.5104 58.7493 40.4837 58.616C40.4357 58.8933 40.3691 59.1627 40.2838 59.424L38.5477 64.704C38.4944 64.9013 38.3797 65 38.2037 65H37.0197L34.3957 56.872H35.6277C35.7504 56.872 35.8517 56.9013 35.9317 56.96C36.0171 57.0187 36.0731 57.0933 36.0997 57.184L37.5637 62.176C37.6117 62.3787 37.6544 62.576 37.6917 62.768C37.7291 62.96 37.7637 63.152 37.7957 63.344C37.8437 63.152 37.8944 62.96 37.9477 62.768C38.0064 62.576 38.0651 62.3787 38.1237 62.176L39.7477 57.152C39.7744 57.0613 39.8251 56.9893 39.8997 56.936C39.9744 56.8773 40.0651 56.848 40.1718 56.848H40.8517C40.9691 56.848 41.0651 56.8773 41.1398 56.936C41.2197 56.9893 41.2731 57.0613 41.2997 57.152L42.8837 62.176C42.9424 62.3787 42.9984 62.5787 43.0518 62.776C43.1051 62.968 43.1531 63.1627 43.1958 63.36C43.2278 63.168 43.2651 62.976 43.3077 62.784C43.3504 62.5867 43.3984 62.384 43.4517 62.176L44.9398 57.184C44.9664 57.0933 45.0198 57.0187 45.0998 56.96C45.1851 56.9013 45.2811 56.872 45.3878 56.872H46.5638ZM49.6687 58C49.8447 57.8133 50.0287 57.6427 50.2207 57.488C50.4127 57.3333 50.6154 57.2027 50.8287 57.096C51.0474 56.984 51.2794 56.8987 51.5247 56.84C51.7754 56.776 52.0421 56.744 52.3247 56.744C52.7727 56.744 53.1647 56.8187 53.5007 56.968C53.8421 57.1173 54.1274 57.328 54.3567 57.6C54.5861 57.8667 54.7594 58.1893 54.8767 58.568C54.9941 58.9467 55.0527 59.3653 55.0527 59.824V65H53.4847V59.824C53.4847 59.2427 53.3514 58.792 53.0847 58.472C52.8181 58.1467 52.4101 57.984 51.8607 57.984C51.4607 57.984 51.0847 58.08 50.7327 58.272C50.3861 58.4587 50.0634 58.7147 49.7647 59.04V65H48.2047V56.872H49.1407C49.3594 56.872 49.4954 56.976 49.5487 57.184L49.6687 58ZM62.8619 60.032C62.8619 59.7227 62.8165 59.4373 62.7259 59.176C62.6405 58.9147 62.5125 58.688 62.3419 58.496C62.1712 58.304 61.9632 58.1547 61.7179 58.048C61.4725 57.9413 61.1899 57.888 60.8699 57.888C60.2139 57.888 59.6965 58.0773 59.3179 58.456C58.9445 58.8347 58.7072 59.36 58.6059 60.032H62.8619ZM64.1499 63.84C63.9579 64.064 63.7365 64.2587 63.4859 64.424C63.2352 64.584 62.9685 64.7147 62.6859 64.816C62.4032 64.9173 62.1099 64.992 61.8059 65.04C61.5072 65.088 61.2112 65.112 60.9179 65.112C60.3579 65.112 59.8379 65.0187 59.3579 64.832C58.8832 64.64 58.4699 64.3627 58.1179 64C57.7712 63.632 57.4992 63.1787 57.3019 62.64C57.1099 62.096 57.0139 61.472 57.0139 60.768C57.0139 60.2027 57.1019 59.6773 57.2779 59.192C57.4539 58.7013 57.7045 58.2747 58.0299 57.912C58.3605 57.5493 58.7632 57.264 59.2379 57.056C59.7125 56.848 60.2459 56.744 60.8379 56.744C61.3339 56.744 61.7899 56.8267 62.2059 56.992C62.6272 57.152 62.9899 57.3867 63.2939 57.696C63.5979 58.0053 63.8352 58.3867 64.0059 58.84C64.1819 59.2933 64.2699 59.8107 64.2699 60.392C64.2699 60.632 64.2432 60.7947 64.1899 60.88C64.1365 60.96 64.0379 61 63.8939 61H58.5659C58.5819 61.4853 58.6512 61.9093 58.7739 62.272C58.8965 62.6293 59.0645 62.928 59.2779 63.168C59.4965 63.408 59.7552 63.5867 60.0539 63.704C60.3525 63.8213 60.6859 63.88 61.0539 63.88C61.4005 63.88 61.6992 63.84 61.9499 63.76C62.2059 63.68 62.4245 63.5947 62.6059 63.504C62.7925 63.408 62.9472 63.32 63.0699 63.24C63.1979 63.16 63.3099 63.12 63.4059 63.12C63.5339 63.12 63.6325 63.168 63.7019 63.264L64.1499 63.84ZM67.7386 58.432C68 57.8987 68.3146 57.48 68.6826 57.176C69.0506 56.872 69.4933 56.72 70.0106 56.72C70.1866 56.72 70.352 56.7413 70.5066 56.784C70.6666 56.8213 70.8053 56.88 70.9226 56.96L70.8186 58.136C70.7813 58.28 70.6933 58.352 70.5546 58.352C70.48 58.352 70.368 58.3387 70.2186 58.312C70.0693 58.28 69.9093 58.264 69.7386 58.264C69.488 58.264 69.2666 58.3013 69.0746 58.376C68.8826 58.4453 68.7093 58.552 68.5546 58.696C68.4053 58.8347 68.272 59.008 68.1546 59.216C68.0373 59.4187 67.928 59.6507 67.8266 59.912V65H66.2666V56.872H67.1626C67.3333 56.872 67.448 56.904 67.5066 56.968C67.5706 57.0267 67.616 57.1333 67.6426 57.288L67.7386 58.432Z" fill="#3C3C6F"/>
<path d="M10.752 4.536V16H9.976C9.85333 16 9.74933 15.9787 9.664 15.936C9.584 15.8933 9.504 15.8213 9.424 15.72L2.792 7.08C2.80267 7.21333 2.81067 7.344 2.816 7.472C2.82133 7.6 2.824 7.72 2.824 7.832V16H1.464V4.536H2.264C2.33333 4.536 2.392 4.54133 2.44 4.552C2.488 4.55733 2.53067 4.57067 2.568 4.592C2.60533 4.608 2.64267 4.63467 2.68 4.672C2.71733 4.704 2.75733 4.74667 2.8 4.8L9.432 13.432C9.42133 13.2933 9.41067 13.16 9.4 13.032C9.39467 12.8987 9.392 12.7733 9.392 12.656V4.536H10.752ZM17.8244 12.352C17.1684 12.3733 16.6084 12.4267 16.1444 12.512C15.6857 12.592 15.3097 12.6987 15.0164 12.832C14.7284 12.9653 14.5177 13.1227 14.3844 13.304C14.2564 13.4853 14.1924 13.688 14.1924 13.912C14.1924 14.1253 14.227 14.3093 14.2964 14.464C14.3657 14.6187 14.459 14.7467 14.5764 14.848C14.699 14.944 14.8404 15.016 15.0004 15.064C15.1657 15.1067 15.3417 15.128 15.5284 15.128C15.779 15.128 16.0084 15.104 16.2164 15.056C16.4244 15.0027 16.619 14.928 16.8004 14.832C16.987 14.736 17.163 14.6213 17.3284 14.488C17.499 14.3547 17.6644 14.2027 17.8244 14.032V12.352ZM13.2244 9.04C13.6724 8.608 14.155 8.28533 14.6724 8.072C15.1897 7.85867 15.763 7.752 16.3924 7.752C16.8457 7.752 17.2484 7.82667 17.6004 7.976C17.9524 8.12533 18.2484 8.33333 18.4884 8.6C18.7284 8.86667 18.9097 9.18933 19.0324 9.568C19.155 9.94667 19.2164 10.3627 19.2164 10.816V16H18.5844C18.4457 16 18.339 15.9787 18.2644 15.936C18.1897 15.888 18.131 15.7973 18.0884 15.664L17.9284 14.896C17.715 15.0933 17.507 15.2693 17.3044 15.424C17.1017 15.5733 16.8884 15.7013 16.6644 15.808C16.4404 15.9093 16.2004 15.9867 15.9444 16.04C15.6937 16.0987 15.4137 16.128 15.1044 16.128C14.7897 16.128 14.4937 16.0853 14.2164 16C13.939 15.9093 13.6964 15.776 13.4884 15.6C13.2857 15.424 13.123 15.2027 13.0004 14.936C12.883 14.664 12.8244 14.344 12.8244 13.976C12.8244 13.656 12.9124 13.3493 13.0884 13.056C13.2644 12.7573 13.5497 12.4933 13.9444 12.264C14.339 12.0347 14.8537 11.848 15.4884 11.704C16.123 11.5547 16.9017 11.4693 17.8244 11.448V10.816C17.8244 10.1867 17.6884 9.712 17.4164 9.392C17.1444 9.06667 16.747 8.904 16.2244 8.904C15.8724 8.904 15.5764 8.94933 15.3364 9.04C15.1017 9.12533 14.8964 9.224 14.7204 9.336C14.5497 9.44267 14.4004 9.54133 14.2724 9.632C14.1497 9.71733 14.027 9.76 13.9044 9.76C13.8084 9.76 13.7257 9.736 13.6564 9.688C13.587 9.63467 13.5284 9.57067 13.4804 9.496L13.2244 9.04ZM21.7055 16V7.896H22.5615C22.7642 7.896 22.8895 7.99467 22.9375 8.192L23.0415 9.024C23.3402 8.656 23.6762 8.35467 24.0495 8.12C24.4228 7.88533 24.8548 7.768 25.3455 7.768C25.8895 7.768 26.3295 7.92 26.6655 8.224C27.0068 8.528 27.2522 8.93867 27.4015 9.456C27.5188 9.16267 27.6682 8.90933 27.8495 8.696C28.0362 8.48267 28.2442 8.30667 28.4735 8.168C28.7028 8.02933 28.9455 7.928 29.2015 7.864C29.4628 7.8 29.7268 7.768 29.9935 7.768C30.4202 7.768 30.7988 7.83733 31.1295 7.976C31.4655 8.10933 31.7482 8.30667 31.9775 8.568C32.2122 8.82933 32.3908 9.152 32.5135 9.536C32.6362 9.91467 32.6975 10.3493 32.6975 10.84V16H31.2655V10.84C31.2655 10.2053 31.1268 9.72533 30.8495 9.4C30.5722 9.06933 30.1722 8.904 29.6495 8.904C29.4148 8.904 29.1908 8.94667 28.9775 9.032C28.7695 9.112 28.5855 9.232 28.4255 9.392C28.2655 9.552 28.1375 9.75467 28.0415 10C27.9508 10.24 27.9055 10.52 27.9055 10.84V16H26.4735V10.84C26.4735 10.1893 26.3428 9.704 26.0815 9.384C25.8202 9.064 25.4388 8.904 24.9375 8.904C24.5855 8.904 24.2602 9 23.9615 9.192C23.6628 9.37867 23.3882 9.63467 23.1375 9.96V16H21.7055ZM40.6057 11.064C40.6057 10.7333 40.5577 10.432 40.4617 10.16C40.3711 9.88267 40.2351 9.64533 40.0537 9.448C39.8777 9.24533 39.6617 9.09067 39.4057 8.984C39.1497 8.872 38.8591 8.816 38.5337 8.816C37.8511 8.816 37.3097 9.016 36.9097 9.416C36.5151 9.81067 36.2697 10.36 36.1737 11.064H40.6057ZM41.7577 14.864C41.5817 15.0773 41.3711 15.264 41.1257 15.424C40.8804 15.5787 40.6164 15.7067 40.3337 15.808C40.0564 15.9093 39.7684 15.984 39.4697 16.032C39.1711 16.0853 38.8751 16.112 38.5817 16.112C38.0217 16.112 37.5044 16.0187 37.0297 15.832C36.5604 15.64 36.1524 15.3627 35.8057 15C35.4644 14.632 35.1977 14.1787 35.0057 13.64C34.8137 13.1013 34.7177 12.4827 34.7177 11.784C34.7177 11.2187 34.8031 10.6907 34.9737 10.2C35.1497 9.70933 35.4004 9.28533 35.7257 8.928C36.0511 8.56533 36.4484 8.28267 36.9177 8.08C37.3871 7.872 37.9151 7.768 38.5017 7.768C38.9871 7.768 39.4351 7.85067 39.8457 8.016C40.2617 8.176 40.6191 8.41067 40.9177 8.72C41.2217 9.024 41.4591 9.40267 41.6297 9.856C41.8004 10.304 41.8857 10.816 41.8857 11.392C41.8857 11.616 41.8617 11.7653 41.8137 11.84C41.7657 11.9147 41.6751 11.952 41.5417 11.952H36.1257C36.1417 12.464 36.2111 12.9093 36.3337 13.288C36.4617 13.6667 36.6377 13.984 36.8617 14.24C37.0857 14.4907 37.3524 14.68 37.6617 14.808C37.9711 14.9307 38.3177 14.992 38.7017 14.992C39.0591 14.992 39.3657 14.952 39.6217 14.872C39.8831 14.7867 40.1071 14.696 40.2937 14.6C40.4804 14.504 40.6351 14.416 40.7577 14.336C40.8857 14.2507 40.9951 14.208 41.0857 14.208C41.2031 14.208 41.2937 14.2533 41.3577 14.344L41.7577 14.864Z" fill="#8686A1"/>
<defs>
<filter id="filter0_b_2001_2415" x="-30" y="1" width="383" height="115" filterUnits="userSpaceOnUse" color-interpolation-filters="sRGB">
<feFlood flood-opacity="0" result="BackgroundImageFix"/>
<feGaussianBlur in="BackgroundImageFix" stdDeviation="15"/>
<feComposite in2="SourceAlpha" operator="in" result="effect1_backgroundBlur_2001_2415"/>
<feBlend mode="normal" in="SourceGraphic" in2="effect1_backgroundBlur_2001_2415" result="shape"/>
</filter>
<linearGradient id="paint0_linear_2001_2415" x1="22.8045" y1="22.1792" x2="143.705" y2="47.8457" gradientUnits="userSpaceOnUse">
<stop stop-color="white"/>
<stop offset="1" stop-color="white" stop-opacity="0"/>
</linearGradient>
</defs>
</svg>
