<svg width="163" height="30" viewBox="0 0 163 30" fill="none" xmlns="http://www.w3.org/2000/svg">
<path d="M23.64 12.432C23.64 14.128 23.3573 15.7013 22.792 17.152C22.2373 18.592 21.448 19.84 20.424 20.896C19.4 21.952 18.168 22.7787 16.728 23.376C15.288 23.9627 13.688 24.256 11.928 24.256C10.1787 24.256 8.584 23.9627 7.144 23.376C5.704 22.7787 4.46667 21.952 3.432 20.896C2.408 19.84 1.61333 18.592 1.048 17.152C0.482667 15.7013 0.2 14.128 0.2 12.432C0.2 10.736 0.482667 9.168 1.048 7.728C1.61333 6.27733 2.408 5.024 3.432 3.968C4.46667 2.912 5.704 2.09067 7.144 1.504C8.584 0.906666 10.1787 0.608 11.928 0.608C13.1013 0.608 14.2053 0.746666 15.24 1.024C16.2747 1.29067 17.224 1.67467 18.088 2.176C18.952 2.66667 19.7253 3.26933 20.408 3.984C21.1013 4.688 21.688 5.47733 22.168 6.352C22.648 7.22667 23.0107 8.176 23.256 9.2C23.512 10.224 23.64 11.3013 23.64 12.432ZM19.24 12.432C19.24 11.1627 19.0693 10.0267 18.728 9.024C18.3867 8.01067 17.9013 7.152 17.272 6.448C16.6427 5.744 15.8747 5.20533 14.968 4.832C14.072 4.45867 13.0587 4.272 11.928 4.272C10.7973 4.272 9.77867 4.45867 8.872 4.832C7.976 5.20533 7.208 5.744 6.568 6.448C5.93867 7.152 5.45333 8.01067 5.112 9.024C4.77067 10.0267 4.6 11.1627 4.6 12.432C4.6 13.7013 4.77067 14.8427 5.112 15.856C5.45333 16.8587 5.93867 17.712 6.568 18.416C7.208 19.1093 7.976 19.6427 8.872 20.016C9.77867 20.3893 10.7973 20.576 11.928 20.576C13.0587 20.576 14.072 20.3893 14.968 20.016C15.8747 19.6427 16.6427 19.1093 17.272 18.416C17.9013 17.712 18.3867 16.8587 18.728 15.856C19.0693 14.8427 19.24 13.7013 19.24 12.432ZM31.1065 19.744C31.5545 20.288 32.0398 20.672 32.5625 20.896C33.0958 21.12 33.6718 21.232 34.2905 21.232C34.8878 21.232 35.4265 21.12 35.9065 20.896C36.3865 20.672 36.7918 20.3307 37.1225 19.872C37.4638 19.4133 37.7252 18.8373 37.9065 18.144C38.0878 17.44 38.1785 16.6133 38.1785 15.664C38.1785 14.704 38.0985 13.8933 37.9385 13.232C37.7892 12.56 37.5705 12.016 37.2825 11.6C36.9945 11.184 36.6425 10.88 36.2265 10.688C35.8212 10.496 35.3572 10.4 34.8345 10.4C34.0132 10.4 33.3145 10.576 32.7385 10.928C32.1625 11.2693 31.6185 11.7547 31.1065 12.384V19.744ZM30.8985 9.824C31.5705 9.06667 32.3332 8.45333 33.1865 7.984C34.0398 7.51467 35.0425 7.28 36.1945 7.28C37.0905 7.28 37.9065 7.46667 38.6425 7.84C39.3892 8.21333 40.0292 8.75733 40.5625 9.472C41.1065 10.176 41.5225 11.0507 41.8105 12.096C42.1092 13.1307 42.2585 14.32 42.2585 15.664C42.2585 16.8907 42.0932 18.0267 41.7625 19.072C41.4318 20.1173 40.9572 21.024 40.3385 21.792C39.7305 22.56 38.9892 23.1627 38.1145 23.6C37.2505 24.0267 36.2798 24.24 35.2025 24.24C34.2852 24.24 33.5012 24.1013 32.8505 23.824C32.1998 23.536 31.6185 23.1413 31.1065 22.64V29.36H27.1545V7.584H29.5705C30.0825 7.584 30.4185 7.824 30.5785 8.304L30.8985 9.824ZM56.558 13.904C56.558 13.392 56.4833 12.912 56.334 12.464C56.1953 12.0053 55.982 11.6053 55.694 11.264C55.406 10.9227 55.038 10.656 54.59 10.464C54.1527 10.2613 53.6407 10.16 53.054 10.16C51.9127 10.16 51.0113 10.4853 50.35 11.136C49.6993 11.7867 49.2833 12.7093 49.102 13.904H56.558ZM49.022 16.288C49.086 17.1307 49.2353 17.8613 49.47 18.48C49.7047 19.088 50.014 19.5947 50.398 20C50.782 20.3947 51.2353 20.6933 51.758 20.896C52.2913 21.088 52.878 21.184 53.518 21.184C54.158 21.184 54.7073 21.1093 55.166 20.96C55.6353 20.8107 56.0407 20.6453 56.382 20.464C56.734 20.2827 57.038 20.1173 57.294 19.968C57.5607 19.8187 57.8167 19.744 58.062 19.744C58.3927 19.744 58.638 19.8667 58.798 20.112L59.934 21.552C59.4967 22.064 59.006 22.496 58.462 22.848C57.918 23.1893 57.3473 23.4667 56.75 23.68C56.1633 23.8827 55.5607 24.0267 54.942 24.112C54.334 24.1973 53.742 24.24 53.166 24.24C52.0247 24.24 50.9633 24.0533 49.982 23.68C49.0007 23.296 48.1473 22.736 47.422 22C46.6967 21.2533 46.126 20.336 45.71 19.248C45.294 18.1493 45.086 16.88 45.086 15.44C45.086 14.32 45.2673 13.2693 45.63 12.288C45.9927 11.296 46.51 10.4373 47.182 9.712C47.8647 8.976 48.6913 8.39467 49.662 7.968C50.6433 7.54133 51.7473 7.328 52.974 7.328C54.0087 7.328 54.9633 7.49333 55.838 7.824C56.7127 8.15467 57.4647 8.64 58.094 9.28C58.7233 9.90933 59.214 10.688 59.566 11.616C59.9287 12.5333 60.11 13.584 60.11 14.768C60.11 15.3653 60.046 15.7707 59.918 15.984C59.79 16.1867 59.5447 16.288 59.182 16.288H49.022ZM67.4437 10.432C67.9557 9.45067 68.5637 8.68267 69.2677 8.128C69.9717 7.56267 70.8037 7.28 71.7637 7.28C72.5211 7.28 73.1291 7.44533 73.5877 7.776L73.3317 10.736C73.2784 10.928 73.1984 11.0667 73.0917 11.152C72.9957 11.2267 72.8624 11.264 72.6917 11.264C72.5317 11.264 72.2917 11.2373 71.9717 11.184C71.6624 11.1307 71.3584 11.104 71.0597 11.104C70.6224 11.104 70.2331 11.168 69.8917 11.296C69.5504 11.424 69.2411 11.6107 68.9637 11.856C68.6971 12.0907 68.4571 12.3787 68.2437 12.72C68.0411 13.0613 67.8491 13.4507 67.6677 13.888V24H63.7157V7.584H66.0357C66.4411 7.584 66.7237 7.65867 66.8837 7.808C67.0437 7.94667 67.1504 8.20267 67.2037 8.576L67.4437 10.432ZM84.7465 16.992C83.6052 17.0453 82.6452 17.1467 81.8665 17.296C81.0878 17.4347 80.4638 17.616 79.9945 17.84C79.5252 18.064 79.1892 18.3253 78.9865 18.624C78.7838 18.9227 78.6825 19.248 78.6825 19.6C78.6825 20.2933 78.8852 20.7893 79.2905 21.088C79.7065 21.3867 80.2452 21.536 80.9065 21.536C81.7172 21.536 82.4158 21.392 83.0025 21.104C83.5998 20.8053 84.1812 20.3573 84.7465 19.76V16.992ZM75.6905 9.872C77.5785 8.144 79.8505 7.28 82.5065 7.28C83.4665 7.28 84.3252 7.44 85.0825 7.76C85.8398 8.06933 86.4798 8.50667 87.0025 9.072C87.5252 9.62667 87.9198 10.2933 88.1865 11.072C88.4638 11.8507 88.6025 12.704 88.6025 13.632V24H86.8105C86.4372 24 86.1492 23.9467 85.9465 23.84C85.7438 23.7227 85.5838 23.4933 85.4665 23.152L85.1145 21.968C84.6985 22.3413 84.2932 22.672 83.8985 22.96C83.5038 23.2373 83.0932 23.472 82.6665 23.664C82.2398 23.856 81.7812 24 81.2905 24.096C80.8105 24.2027 80.2772 24.256 79.6905 24.256C78.9972 24.256 78.3572 24.1653 77.7705 23.984C77.1838 23.792 76.6772 23.5093 76.2505 23.136C75.8238 22.7627 75.4932 22.2987 75.2585 21.744C75.0238 21.1893 74.9065 20.544 74.9065 19.808C74.9065 19.392 74.9758 18.9813 75.1145 18.576C75.2532 18.16 75.4772 17.7653 75.7865 17.392C76.1065 17.0187 76.5172 16.6667 77.0185 16.336C77.5198 16.0053 78.1332 15.7173 78.8585 15.472C79.5945 15.2267 80.4478 15.0293 81.4185 14.88C82.3892 14.72 83.4985 14.624 84.7465 14.592V13.632C84.7465 12.5333 84.5118 11.7227 84.0425 11.2C83.5732 10.6667 82.8958 10.4 82.0105 10.4C81.3705 10.4 80.8372 10.4747 80.4105 10.624C79.9945 10.7733 79.6265 10.944 79.3065 11.136C78.9865 11.3173 78.6932 11.4827 78.4265 11.632C78.1705 11.7813 77.8825 11.856 77.5625 11.856C77.2852 11.856 77.0505 11.7867 76.8585 11.648C76.6665 11.4987 76.5118 11.328 76.3945 11.136L75.6905 9.872ZM109.306 24H105.354V10.544H97.7377V19.44C97.7377 19.952 97.8604 20.352 98.1057 20.64C98.3617 20.928 98.7084 21.072 99.1457 21.072C99.3911 21.072 99.5937 21.0453 99.7537 20.992C99.9244 20.928 100.068 20.864 100.186 20.8C100.314 20.736 100.426 20.6773 100.522 20.624C100.618 20.56 100.714 20.528 100.81 20.528C100.927 20.528 101.023 20.56 101.098 20.624C101.172 20.6773 101.252 20.7627 101.338 20.88L102.522 22.8C101.946 23.28 101.284 23.6427 100.538 23.888C99.7911 24.1333 99.0177 24.256 98.2177 24.256C96.7884 24.256 95.6897 23.856 94.9217 23.056C94.1644 22.2453 93.7857 21.1307 93.7857 19.712V10.544H92.1057C91.8924 10.544 91.7111 10.4747 91.5617 10.336C91.4124 10.1973 91.3377 9.98933 91.3377 9.712V8.144L93.9777 7.696L94.8097 3.232C94.8631 3.01867 94.9644 2.85333 95.1137 2.736C95.2631 2.61867 95.4551 2.56 95.6897 2.56H97.7377V7.728H109.306V24ZM109.994 2.736C109.994 3.07733 109.924 3.40267 109.786 3.712C109.647 4.01067 109.46 4.272 109.226 4.496C109.002 4.72 108.73 4.90133 108.41 5.04C108.1 5.168 107.77 5.232 107.418 5.232C107.076 5.232 106.756 5.168 106.458 5.04C106.159 4.90133 105.898 4.72 105.674 4.496C105.45 4.272 105.268 4.01067 105.13 3.712C105.002 3.40267 104.938 3.07733 104.938 2.736C104.938 2.384 105.002 2.05866 105.13 1.76C105.268 1.45067 105.45 1.184 105.674 0.959999C105.898 0.725333 106.159 0.543999 106.458 0.415998C106.756 0.277332 107.076 0.207998 107.418 0.207998C107.77 0.207998 108.1 0.277332 108.41 0.415998C108.73 0.543999 109.002 0.725333 109.226 0.959999C109.46 1.184 109.647 1.45067 109.786 1.76C109.924 2.05866 109.994 2.384 109.994 2.736ZM121.243 7.328C122.459 7.328 123.563 7.52533 124.555 7.92C125.558 8.31467 126.411 8.87467 127.115 9.6C127.83 10.3253 128.379 11.2107 128.763 12.256C129.147 13.3013 129.339 14.4693 129.339 15.76C129.339 17.0613 129.147 18.2347 128.763 19.28C128.379 20.3253 127.83 21.216 127.115 21.952C126.411 22.688 125.558 23.2533 124.555 23.648C123.563 24.0427 122.459 24.24 121.243 24.24C120.017 24.24 118.902 24.0427 117.899 23.648C116.897 23.2533 116.038 22.688 115.323 21.952C114.619 21.216 114.07 20.3253 113.675 19.28C113.291 18.2347 113.099 17.0613 113.099 15.76C113.099 14.4693 113.291 13.3013 113.675 12.256C114.07 11.2107 114.619 10.3253 115.323 9.6C116.038 8.87467 116.897 8.31467 117.899 7.92C118.902 7.52533 120.017 7.328 121.243 7.328ZM121.243 21.2C122.609 21.2 123.617 20.7413 124.267 19.824C124.929 18.9067 125.259 17.5627 125.259 15.792C125.259 14.0213 124.929 12.672 124.267 11.744C123.617 10.816 122.609 10.352 121.243 10.352C119.857 10.352 118.827 10.8213 118.155 11.76C117.494 12.688 117.163 14.032 117.163 15.792C117.163 17.552 117.494 18.896 118.155 19.824C118.827 20.7413 119.857 21.2 121.243 21.2ZM136.69 9.6C137.021 9.26933 137.368 8.96533 137.73 8.688C138.104 8.4 138.493 8.16 138.898 7.968C139.314 7.76533 139.757 7.61067 140.226 7.504C140.696 7.38667 141.208 7.328 141.762 7.328C142.658 7.328 143.453 7.48267 144.146 7.792C144.84 8.09067 145.416 8.51733 145.874 9.072C146.344 9.616 146.696 10.272 146.93 11.04C147.176 11.7973 147.298 12.6347 147.298 13.552V24H143.346V13.552C143.346 12.5493 143.117 11.776 142.658 11.232C142.2 10.6773 141.501 10.4 140.562 10.4C139.88 10.4 139.24 10.5547 138.642 10.864C138.045 11.1733 137.48 11.5947 136.946 12.128V24H132.994V7.584H135.41C135.922 7.584 136.258 7.824 136.418 8.304L136.69 9.6ZM161.713 10.784C161.606 10.9547 161.494 11.0773 161.377 11.152C161.26 11.216 161.11 11.248 160.929 11.248C160.737 11.248 160.529 11.1947 160.305 11.088C160.092 10.9813 159.841 10.864 159.553 10.736C159.265 10.5973 158.934 10.4747 158.561 10.368C158.198 10.2613 157.766 10.208 157.265 10.208C156.486 10.208 155.873 10.3733 155.425 10.704C154.988 11.0347 154.769 11.4667 154.769 12C154.769 12.352 154.881 12.6507 155.105 12.896C155.34 13.1307 155.644 13.3387 156.017 13.52C156.401 13.7013 156.833 13.8667 157.313 14.016C157.793 14.1547 158.278 14.3093 158.769 14.48C159.27 14.6507 159.761 14.848 160.241 15.072C160.721 15.2853 161.148 15.5627 161.521 15.904C161.905 16.2347 162.209 16.6347 162.433 17.104C162.668 17.5733 162.785 18.1387 162.785 18.8C162.785 19.5893 162.641 20.32 162.353 20.992C162.076 21.6533 161.66 22.2293 161.105 22.72C160.55 23.2 159.862 23.5787 159.041 23.856C158.23 24.1227 157.292 24.256 156.225 24.256C155.66 24.256 155.105 24.2027 154.561 24.096C154.028 24 153.51 23.8613 153.009 23.68C152.518 23.4987 152.06 23.2853 151.633 23.04C151.217 22.7947 150.849 22.528 150.529 22.24L151.441 20.736C151.558 20.5547 151.697 20.416 151.857 20.32C152.017 20.224 152.22 20.176 152.465 20.176C152.71 20.176 152.94 20.2453 153.153 20.384C153.377 20.5227 153.633 20.672 153.921 20.832C154.209 20.992 154.545 21.1413 154.929 21.28C155.324 21.4187 155.82 21.488 156.417 21.488C156.886 21.488 157.286 21.4347 157.617 21.328C157.958 21.2107 158.236 21.0613 158.449 20.88C158.673 20.6987 158.833 20.4907 158.929 20.256C159.036 20.0107 159.089 19.76 159.089 19.504C159.089 19.12 158.972 18.8053 158.737 18.56C158.513 18.3147 158.209 18.1013 157.825 17.92C157.452 17.7387 157.02 17.5787 156.529 17.44C156.049 17.2907 155.553 17.1307 155.041 16.96C154.54 16.7893 154.044 16.592 153.553 16.368C153.073 16.1333 152.641 15.84 152.257 15.488C151.884 15.136 151.58 14.704 151.345 14.192C151.121 13.68 151.009 13.0613 151.009 12.336C151.009 11.664 151.142 11.024 151.409 10.416C151.676 9.808 152.065 9.28 152.577 8.832C153.1 8.37333 153.745 8.01067 154.513 7.744C155.292 7.46667 156.188 7.328 157.201 7.328C158.332 7.328 159.361 7.51467 160.289 7.888C161.217 8.26133 161.99 8.752 162.609 9.36L161.713 10.784Z" fill="#3C3C6F"/>
</svg>
