<svg width="68" height="13" viewBox="0 0 68 13" fill="none" xmlns="http://www.w3.org/2000/svg">
<path d="M3.848 6.48C4.29067 6.48 4.68 6.42133 5.016 6.304C5.35733 6.18667 5.64267 6.024 5.872 5.816C6.10667 5.60267 6.28267 5.34933 6.4 5.056C6.51733 4.76267 6.576 4.44 6.576 4.088C6.576 3.35733 6.34933 2.78667 5.896 2.376C5.448 1.96533 4.76533 1.76 3.848 1.76H2.008V6.48H3.848ZM3.848 0.535999C4.57333 0.535999 5.20267 0.621333 5.736 0.792C6.27467 0.957333 6.72 1.19467 7.072 1.504C7.424 1.81333 7.68533 2.18667 7.856 2.624C8.032 3.06133 8.12 3.54933 8.12 4.088C8.12 4.62133 8.02667 5.10933 7.84 5.552C7.65333 5.99467 7.37867 6.376 7.016 6.696C6.65867 7.016 6.21333 7.26667 5.68 7.448C5.152 7.624 4.54133 7.712 3.848 7.712H2.008V12H0.464V0.535999H3.848ZM11.4825 0.216V12H10.0585V0.216H11.4825ZM18.5038 8.352C17.8478 8.37333 17.2878 8.42667 16.8238 8.512C16.3651 8.592 15.9891 8.69867 15.6958 8.832C15.4078 8.96533 15.1971 9.12267 15.0638 9.304C14.9358 9.48533 14.8718 9.688 14.8718 9.912C14.8718 10.1253 14.9064 10.3093 14.9758 10.464C15.0451 10.6187 15.1384 10.7467 15.2558 10.848C15.3784 10.944 15.5198 11.016 15.6798 11.064C15.8451 11.1067 16.0211 11.128 16.2078 11.128C16.4584 11.128 16.6878 11.104 16.8958 11.056C17.1038 11.0027 17.2984 10.928 17.4798 10.832C17.6664 10.736 17.8424 10.6213 18.0078 10.488C18.1784 10.3547 18.3438 10.2027 18.5038 10.032V8.352ZM13.9038 5.04C14.3518 4.608 14.8344 4.28533 15.3518 4.072C15.8691 3.85867 16.4424 3.752 17.0718 3.752C17.5251 3.752 17.9278 3.82667 18.2798 3.976C18.6318 4.12533 18.9278 4.33333 19.1678 4.6C19.4078 4.86667 19.5891 5.18933 19.7118 5.568C19.8344 5.94667 19.8958 6.36267 19.8958 6.816V12H19.2638C19.1251 12 19.0184 11.9787 18.9438 11.936C18.8691 11.888 18.8104 11.7973 18.7678 11.664L18.6078 10.896C18.3944 11.0933 18.1864 11.2693 17.9838 11.424C17.7811 11.5733 17.5678 11.7013 17.3438 11.808C17.1198 11.9093 16.8798 11.9867 16.6238 12.04C16.3731 12.0987 16.0931 12.128 15.7838 12.128C15.4691 12.128 15.1731 12.0853 14.8958 12C14.6184 11.9093 14.3758 11.776 14.1678 11.6C13.9651 11.424 13.8024 11.2027 13.6798 10.936C13.5624 10.664 13.5038 10.344 13.5038 9.976C13.5038 9.656 13.5918 9.34933 13.7678 9.056C13.9438 8.75733 14.2291 8.49333 14.6238 8.264C15.0184 8.03467 15.5331 7.848 16.1678 7.704C16.8024 7.55467 17.5811 7.46933 18.5038 7.448V6.816C18.5038 6.18667 18.3678 5.712 18.0958 5.392C17.8238 5.06667 17.4264 4.904 16.9038 4.904C16.5518 4.904 16.2558 4.94933 16.0158 5.04C15.7811 5.12533 15.5758 5.224 15.3998 5.336C15.2291 5.44267 15.0798 5.54133 14.9518 5.632C14.8291 5.71733 14.7064 5.76 14.5838 5.76C14.4878 5.76 14.4051 5.736 14.3358 5.688C14.2664 5.63467 14.2078 5.57067 14.1598 5.496L13.9038 5.04ZM28.1875 12V5.088H24.1955V9.952C24.1955 10.2933 24.2782 10.5467 24.4435 10.712C24.6088 10.8773 24.8222 10.96 25.0835 10.96C25.2328 10.96 25.3608 10.9413 25.4675 10.904C25.5795 10.8613 25.6755 10.816 25.7555 10.768C25.8355 10.72 25.9022 10.6773 25.9555 10.64C26.0142 10.5973 26.0648 10.576 26.1075 10.576C26.1822 10.576 26.2488 10.6213 26.3075 10.712L26.7235 11.392C26.4782 11.6213 26.1822 11.8027 25.8355 11.936C25.4888 12.064 25.1315 12.128 24.7635 12.128C24.1235 12.128 23.6302 11.9493 23.2835 11.592C22.9422 11.2347 22.7715 10.72 22.7715 10.048V5.088H21.7955C21.7102 5.088 21.6382 5.064 21.5795 5.016C21.5208 4.96267 21.4915 4.88267 21.4915 4.776V4.208L22.8195 4.04L23.1475 1.536C23.1635 1.456 23.1982 1.392 23.2515 1.344C23.3102 1.29067 23.3848 1.264 23.4755 1.264H24.1955V4.056H28.1875V3.272C28.1875 2.808 28.2515 2.39733 28.3795 2.04C28.5128 1.67733 28.6995 1.37333 28.9395 1.128C29.1795 0.877333 29.4702 0.688 29.8115 0.559999C30.1582 0.431999 30.5448 0.367999 30.9715 0.367999C31.3288 0.367999 31.6622 0.421333 31.9715 0.528L31.9395 1.24C31.9288 1.368 31.8568 1.43733 31.7235 1.448C31.5955 1.45867 31.4222 1.464 31.2035 1.464C30.9582 1.464 30.7342 1.496 30.5315 1.56C30.3342 1.624 30.1635 1.728 30.0195 1.872C29.8755 2.016 29.7635 2.20533 29.6835 2.44C29.6088 2.67467 29.5715 2.96533 29.5715 3.312V4.056H31.9075V5.088H29.6195V12H28.1875ZM36.7459 3.768C37.3379 3.768 37.8712 3.86667 38.3459 4.064C38.8205 4.26133 39.2259 4.54133 39.5619 4.904C39.8979 5.26667 40.1539 5.70667 40.3299 6.224C40.5112 6.736 40.6019 7.30933 40.6019 7.944C40.6019 8.584 40.5112 9.16 40.3299 9.672C40.1539 10.184 39.8979 10.6213 39.5619 10.984C39.2259 11.3467 38.8205 11.6267 38.3459 11.824C37.8712 12.016 37.3379 12.112 36.7459 12.112C36.1485 12.112 35.6099 12.016 35.1299 11.824C34.6552 11.6267 34.2499 11.3467 33.9139 10.984C33.5779 10.6213 33.3192 10.184 33.1379 9.672C32.9619 9.16 32.8739 8.584 32.8739 7.944C32.8739 7.30933 32.9619 6.736 33.1379 6.224C33.3192 5.70667 33.5779 5.26667 33.9139 4.904C34.2499 4.54133 34.6552 4.26133 35.1299 4.064C35.6099 3.86667 36.1485 3.768 36.7459 3.768ZM36.7459 11C37.5459 11 38.1432 10.7333 38.5379 10.2C38.9325 9.66133 39.1299 8.912 39.1299 7.952C39.1299 6.98667 38.9325 6.23467 38.5379 5.696C38.1432 5.15733 37.5459 4.888 36.7459 4.888C36.3405 4.888 35.9859 4.95733 35.6819 5.096C35.3832 5.23467 35.1325 5.43467 34.9299 5.696C34.7325 5.95733 34.5832 6.28 34.4819 6.664C34.3859 7.04267 34.3379 7.472 34.3379 7.952C34.3379 8.912 34.5352 9.66133 34.9299 10.2C35.3299 10.7333 35.9352 11 36.7459 11ZM44.08 5.52C44.336 4.96533 44.6507 4.53333 45.024 4.224C45.3973 3.90933 45.8533 3.752 46.392 3.752C46.5627 3.752 46.7253 3.77067 46.88 3.808C47.04 3.84533 47.1813 3.904 47.304 3.984L47.2 5.048C47.168 5.18133 47.088 5.248 46.96 5.248C46.8853 5.248 46.776 5.232 46.632 5.2C46.488 5.168 46.3253 5.152 46.144 5.152C45.888 5.152 45.6587 5.18933 45.456 5.264C45.2587 5.33867 45.08 5.45067 44.92 5.6C44.7653 5.744 44.624 5.92533 44.496 6.144C44.3733 6.35733 44.2613 6.60267 44.16 6.88V12H42.728V3.896H43.544C43.6987 3.896 43.8053 3.92533 43.864 3.984C43.9227 4.04267 43.9627 4.144 43.984 4.288L44.08 5.52ZM48.8761 12V3.896H49.7321C49.9348 3.896 50.0601 3.99467 50.1081 4.192L50.2121 5.024C50.5108 4.656 50.8468 4.35467 51.2201 4.12C51.5935 3.88533 52.0255 3.768 52.5161 3.768C53.0601 3.768 53.5001 3.92 53.8361 4.224C54.1775 4.528 54.4228 4.93867 54.5721 5.456C54.6895 5.16267 54.8388 4.90933 55.0201 4.696C55.2068 4.48267 55.4148 4.30667 55.6441 4.168C55.8735 4.02933 56.1161 3.928 56.3721 3.864C56.6335 3.8 56.8975 3.768 57.1641 3.768C57.5908 3.768 57.9695 3.83733 58.3001 3.976C58.6361 4.10933 58.9188 4.30667 59.1481 4.568C59.3828 4.82933 59.5615 5.152 59.6841 5.536C59.8068 5.91467 59.8681 6.34933 59.8681 6.84V12H58.4361V6.84C58.4361 6.20533 58.2975 5.72533 58.0201 5.4C57.7428 5.06933 57.3428 4.904 56.8201 4.904C56.5855 4.904 56.3615 4.94667 56.1481 5.032C55.9401 5.112 55.7561 5.232 55.5961 5.392C55.4361 5.552 55.3081 5.75467 55.2121 6C55.1215 6.24 55.0761 6.52 55.0761 6.84V12H53.6441V6.84C53.6441 6.18933 53.5135 5.704 53.2521 5.384C52.9908 5.064 52.6095 4.904 52.1081 4.904C51.7561 4.904 51.4308 5 51.1321 5.192C50.8335 5.37867 50.5588 5.63467 50.3081 5.96V12H48.8761ZM67.0724 5.232C67.0084 5.34933 66.9097 5.408 66.7764 5.408C66.6964 5.408 66.6057 5.37867 66.5044 5.32C66.403 5.26133 66.2777 5.19733 66.1284 5.128C65.9844 5.05333 65.811 4.98667 65.6084 4.928C65.4057 4.864 65.1657 4.832 64.8884 4.832C64.6484 4.832 64.4324 4.864 64.2404 4.928C64.0484 4.98667 63.883 5.06933 63.7444 5.176C63.611 5.28267 63.507 5.408 63.4324 5.552C63.363 5.69067 63.3284 5.84267 63.3284 6.008C63.3284 6.216 63.387 6.38933 63.5044 6.528C63.627 6.66667 63.787 6.78667 63.9844 6.888C64.1817 6.98933 64.4057 7.08 64.6564 7.16C64.907 7.23467 65.163 7.31733 65.4244 7.408C65.691 7.49333 65.9497 7.58933 66.2004 7.696C66.451 7.80267 66.675 7.936 66.8724 8.096C67.0697 8.256 67.227 8.45333 67.3444 8.688C67.467 8.91733 67.5284 9.19467 67.5284 9.52C67.5284 9.89333 67.4617 10.24 67.3284 10.56C67.195 10.8747 66.9977 11.1493 66.7364 11.384C66.475 11.6133 66.155 11.7947 65.7764 11.928C65.3977 12.0613 64.9604 12.128 64.4644 12.128C63.899 12.128 63.387 12.0373 62.9284 11.856C62.4697 11.6693 62.0804 11.432 61.7604 11.144L62.0964 10.6C62.139 10.5307 62.1897 10.4773 62.2484 10.44C62.307 10.4027 62.3817 10.384 62.4724 10.384C62.5684 10.384 62.6697 10.4213 62.7764 10.496C62.883 10.5707 63.011 10.6533 63.1604 10.744C63.315 10.8347 63.5017 10.9173 63.7204 10.992C63.939 11.0667 64.211 11.104 64.5364 11.104C64.8137 11.104 65.0564 11.0693 65.2644 11C65.4724 10.9253 65.6457 10.8267 65.7844 10.704C65.923 10.5813 66.0244 10.44 66.0884 10.28C66.1577 10.12 66.1924 9.94933 66.1924 9.768C66.1924 9.544 66.131 9.36 66.0084 9.216C65.891 9.06667 65.7337 8.94133 65.5364 8.84C65.339 8.73333 65.1124 8.64267 64.8564 8.568C64.6057 8.488 64.347 8.40533 64.0804 8.32C63.819 8.23467 63.5604 8.13867 63.3044 8.032C63.0537 7.92 62.8297 7.78133 62.6324 7.616C62.435 7.45067 62.275 7.248 62.1524 7.008C62.035 6.76267 61.9764 6.46667 61.9764 6.12C61.9764 5.81067 62.0404 5.51467 62.1684 5.232C62.2964 4.944 62.483 4.69333 62.7284 4.48C62.9737 4.26133 63.275 4.088 63.6324 3.96C63.9897 3.832 64.3977 3.768 64.8564 3.768C65.3897 3.768 65.867 3.85333 66.2884 4.024C66.715 4.18933 67.083 4.41867 67.3924 4.712L67.0724 5.232Z" fill="#8686A1"/>
</svg>
