<svg width="340" height="86" viewBox="0 0 340 86" fill="none" xmlns="http://www.w3.org/2000/svg">
<g filter="url(#filter0_b_450_5698)">
<path d="M0.730469 39C0.730469 34.5817 4.31219 31 8.73047 31H331.596C336.014 31 339.596 34.5817 339.596 39V78C339.596 82.4183 336.014 86 331.596 86H8.73047C4.31219 86 0.730469 82.4183 0.730469 78V39Z" fill="white" fill-opacity="0.4"/>
<path d="M1.73047 39C1.73047 35.134 4.86448 32 8.73047 32H331.596C335.462 32 338.596 35.134 338.596 39V78C338.596 81.866 335.462 85 331.596 85H8.73047C4.86448 85 1.73047 81.866 1.73047 78V39Z" stroke="url(#paint0_linear_450_5698)" stroke-opacity="0.9" stroke-width="2"/>
</g>
<path d="M318.651 54.95L312.131 61.47C311.361 62.24 310.101 62.24 309.331 61.47L302.811 54.95" stroke="#8686A1" stroke-width="1.5" stroke-miterlimit="10" stroke-linecap="round" stroke-linejoin="round"/>
<path d="M29.5825 54.936H25.9345V65H24.2385V54.936H20.5745V53.512H29.5825V54.936ZM34.6813 60.032C34.6813 59.7227 34.636 59.4373 34.5453 59.176C34.46 58.9147 34.332 58.688 34.1613 58.496C33.9907 58.304 33.7827 58.1547 33.5373 58.048C33.292 57.9413 33.0093 57.888 32.6893 57.888C32.0333 57.888 31.516 58.0773 31.1373 58.456C30.764 58.8347 30.5267 59.36 30.4253 60.032H34.6813ZM35.9693 63.84C35.7773 64.064 35.556 64.2587 35.3053 64.424C35.0547 64.584 34.788 64.7147 34.5053 64.816C34.2227 64.9173 33.9293 64.992 33.6253 65.04C33.3267 65.088 33.0307 65.112 32.7373 65.112C32.1773 65.112 31.6573 65.0187 31.1773 64.832C30.7027 64.64 30.2893 64.3627 29.9373 64C29.5907 63.632 29.3187 63.1787 29.1213 62.64C28.9293 62.096 28.8333 61.472 28.8333 60.768C28.8333 60.2027 28.9213 59.6773 29.0973 59.192C29.2733 58.7013 29.524 58.2747 29.8493 57.912C30.18 57.5493 30.5827 57.264 31.0573 57.056C31.532 56.848 32.0653 56.744 32.6573 56.744C33.1533 56.744 33.6093 56.8267 34.0253 56.992C34.4467 57.152 34.8093 57.3867 35.1133 57.696C35.4173 58.0053 35.6547 58.3867 35.8253 58.84C36.0013 59.2933 36.0893 59.8107 36.0893 60.392C36.0893 60.632 36.0627 60.7947 36.0093 60.88C35.956 60.96 35.8573 61 35.7133 61H30.3853C30.4013 61.4853 30.4707 61.9093 30.5933 62.272C30.716 62.6293 30.884 62.928 31.0973 63.168C31.316 63.408 31.5747 63.5867 31.8733 63.704C32.172 63.8213 32.5053 63.88 32.8733 63.88C33.22 63.88 33.5187 63.84 33.7693 63.76C34.0253 63.68 34.244 63.5947 34.4253 63.504C34.612 63.408 34.7667 63.32 34.8893 63.24C35.0173 63.16 35.1293 63.12 35.2253 63.12C35.3533 63.12 35.452 63.168 35.5213 63.264L35.9693 63.84ZM43.7821 58.392C43.7341 58.4507 43.6861 58.4987 43.6381 58.536C43.5954 58.568 43.5314 58.584 43.4461 58.584C43.3608 58.584 43.2701 58.552 43.1741 58.488C43.0834 58.4187 42.9661 58.3467 42.8221 58.272C42.6834 58.192 42.5128 58.12 42.3101 58.056C42.1128 57.9867 41.8674 57.952 41.5741 57.952C41.1901 57.952 40.8514 58.0213 40.5581 58.16C40.2648 58.2987 40.0194 58.496 39.8221 58.752C39.6301 59.008 39.4834 59.32 39.3821 59.688C39.2808 60.056 39.2301 60.4693 39.2301 60.928C39.2301 61.4027 39.2834 61.8267 39.3901 62.2C39.4968 62.568 39.6488 62.88 39.8461 63.136C40.0434 63.3867 40.2834 63.5787 40.5661 63.712C40.8488 63.84 41.1634 63.904 41.5101 63.904C41.8461 63.904 42.1234 63.864 42.3421 63.784C42.5608 63.6987 42.7421 63.608 42.8861 63.512C43.0301 63.416 43.1501 63.328 43.2461 63.248C43.3421 63.1627 43.4408 63.12 43.5421 63.12C43.6701 63.12 43.7688 63.168 43.8381 63.264L44.2861 63.84C44.0994 64.0693 43.8888 64.264 43.6541 64.424C43.4248 64.584 43.1794 64.7147 42.9181 64.816C42.6568 64.9173 42.3821 64.992 42.0941 65.04C41.8114 65.088 41.5234 65.112 41.2301 65.112C40.7234 65.112 40.2488 65.0187 39.8061 64.832C39.3688 64.6453 38.9874 64.3733 38.6621 64.016C38.3421 63.6587 38.0888 63.2213 37.9021 62.704C37.7154 62.1813 37.6221 61.5893 37.6221 60.928C37.6221 60.3253 37.7048 59.768 37.8701 59.256C38.0408 58.744 38.2888 58.304 38.6141 57.936C38.9448 57.5627 39.3501 57.272 39.8301 57.064C40.3101 56.8507 40.8594 56.744 41.4781 56.744C42.0594 56.744 42.5714 56.8373 43.0141 57.024C43.4568 57.2107 43.8514 57.4747 44.1981 57.816L43.7821 58.392ZM47.6223 57.904C47.9637 57.5573 48.3397 57.2773 48.7503 57.064C49.1663 56.8507 49.6437 56.744 50.1823 56.744C50.6303 56.744 51.0223 56.8187 51.3583 56.968C51.6997 57.1173 51.985 57.328 52.2143 57.6C52.4437 57.8667 52.617 58.1893 52.7343 58.568C52.8517 58.9467 52.9103 59.3653 52.9103 59.824V65H51.3423V59.824C51.3423 59.2427 51.209 58.792 50.9423 58.472C50.6757 58.1467 50.2677 57.984 49.7183 57.984C49.3183 57.984 48.9423 58.08 48.5903 58.272C48.2437 58.4587 47.921 58.7147 47.6223 59.04V65H46.0623V53.192H47.6223V57.904ZM56.7995 58C56.9755 57.8133 57.1595 57.6427 57.3515 57.488C57.5435 57.3333 57.7461 57.2027 57.9595 57.096C58.1781 56.984 58.4101 56.8987 58.6555 56.84C58.9061 56.776 59.1728 56.744 59.4555 56.744C59.9035 56.744 60.2955 56.8187 60.6315 56.968C60.9728 57.1173 61.2581 57.328 61.4875 57.6C61.7168 57.8667 61.8901 58.1893 62.0075 58.568C62.1248 58.9467 62.1835 59.3653 62.1835 59.824V65H60.6155V59.824C60.6155 59.2427 60.4821 58.792 60.2155 58.472C59.9488 58.1467 59.5408 57.984 58.9915 57.984C58.5915 57.984 58.2155 58.08 57.8635 58.272C57.5168 58.4587 57.1941 58.7147 56.8955 59.04V65H55.3355V56.872H56.2715C56.4901 56.872 56.6261 56.976 56.6795 57.184L56.7995 58ZM68.0726 56.744C68.6699 56.744 69.2086 56.8427 69.6886 57.04C70.1739 57.232 70.5846 57.512 70.9206 57.88C71.2619 58.2427 71.5233 58.6827 71.7046 59.2C71.8859 59.712 71.9766 60.288 71.9766 60.928C71.9766 61.568 71.8859 62.1467 71.7046 62.664C71.5233 63.1813 71.2619 63.6213 70.9206 63.984C70.5846 64.3467 70.1739 64.6267 69.6886 64.824C69.2086 65.016 68.6699 65.112 68.0726 65.112C67.4699 65.112 66.9259 65.016 66.4406 64.824C65.9606 64.6267 65.5499 64.3467 65.2086 63.984C64.8673 63.6213 64.6033 63.1813 64.4166 62.664C64.2353 62.1467 64.1446 61.568 64.1446 60.928C64.1446 60.288 64.2353 59.712 64.4166 59.2C64.6033 58.6827 64.8673 58.2427 65.2086 57.88C65.5499 57.512 65.9606 57.232 66.4406 57.04C66.9259 56.8427 67.4699 56.744 68.0726 56.744ZM68.0726 63.896C68.8406 63.896 69.4139 63.6373 69.7926 63.12C70.1713 62.6027 70.3606 61.8747 70.3606 60.936C70.3606 59.9973 70.1713 59.2693 69.7926 58.752C69.4139 58.2293 68.8406 57.968 68.0726 57.968C67.2939 57.968 66.7126 58.2293 66.3286 58.752C65.9499 59.2693 65.7606 59.9973 65.7606 60.936C65.7606 61.8747 65.9499 62.6027 66.3286 63.12C66.7126 63.6373 67.2939 63.896 68.0726 63.896ZM75.638 53.192V65H74.07V53.192H75.638ZM81.6501 56.744C82.2474 56.744 82.7861 56.8427 83.2661 57.04C83.7514 57.232 84.1621 57.512 84.4981 57.88C84.8394 58.2427 85.1008 58.6827 85.2821 59.2C85.4634 59.712 85.5541 60.288 85.5541 60.928C85.5541 61.568 85.4634 62.1467 85.2821 62.664C85.1008 63.1813 84.8394 63.6213 84.4981 63.984C84.1621 64.3467 83.7514 64.6267 83.2661 64.824C82.7861 65.016 82.2474 65.112 81.6501 65.112C81.0474 65.112 80.5034 65.016 80.0181 64.824C79.5381 64.6267 79.1274 64.3467 78.7861 63.984C78.4448 63.6213 78.1808 63.1813 77.9941 62.664C77.8128 62.1467 77.7221 61.568 77.7221 60.928C77.7221 60.288 77.8128 59.712 77.9941 59.2C78.1808 58.6827 78.4448 58.2427 78.7861 57.88C79.1274 57.512 79.5381 57.232 80.0181 57.04C80.5034 56.8427 81.0474 56.744 81.6501 56.744ZM81.6501 63.896C82.4181 63.896 82.9914 63.6373 83.3701 63.12C83.7488 62.6027 83.9381 61.8747 83.9381 60.936C83.9381 59.9973 83.7488 59.2693 83.3701 58.752C82.9914 58.2293 82.4181 57.968 81.6501 57.968C80.8714 57.968 80.2901 58.2293 79.9061 58.752C79.5274 59.2693 79.3381 59.9973 79.3381 60.936C79.3381 61.8747 79.5274 62.6027 79.9061 63.12C80.2901 63.6373 80.8714 63.896 81.6501 63.896ZM90.4246 60.944C90.7019 60.944 90.9446 60.9067 91.1526 60.832C91.3659 60.7573 91.5419 60.6533 91.6806 60.52C91.8246 60.3813 91.9313 60.216 92.0006 60.024C92.0753 59.832 92.1126 59.6213 92.1126 59.392C92.1126 58.9227 91.9686 58.5493 91.6806 58.272C91.3979 57.9893 90.9793 57.848 90.4246 57.848C89.8753 57.848 89.4566 57.9893 89.1686 58.272C88.8859 58.5493 88.7446 58.9227 88.7446 59.392C88.7446 59.6213 88.7793 59.832 88.8486 60.024C88.9233 60.2107 89.0299 60.3733 89.1686 60.512C89.3126 60.6453 89.4886 60.752 89.6966 60.832C89.9099 60.9067 90.1526 60.944 90.4246 60.944ZM92.9126 65.424C92.9126 65.232 92.8593 65.08 92.7526 64.968C92.6459 64.8507 92.4993 64.76 92.3126 64.696C92.1313 64.6267 91.9179 64.5787 91.6726 64.552C91.4273 64.52 91.1686 64.496 90.8966 64.48C90.6299 64.464 90.3553 64.4507 90.0726 64.44C89.7899 64.424 89.5179 64.3973 89.2566 64.36C88.9793 64.4987 88.7499 64.6667 88.5686 64.864C88.3926 65.0613 88.3046 65.2933 88.3046 65.56C88.3046 65.7307 88.3473 65.8907 88.4326 66.04C88.5233 66.1893 88.6593 66.3173 88.8406 66.424C89.0273 66.536 89.2593 66.6213 89.5366 66.68C89.8193 66.744 90.1553 66.776 90.5446 66.776C90.9286 66.776 91.2673 66.7413 91.5606 66.672C91.8539 66.608 92.0993 66.5147 92.2966 66.392C92.4993 66.2747 92.6513 66.1333 92.7526 65.968C92.8593 65.8027 92.9126 65.6213 92.9126 65.424ZM94.4966 57.176V57.76C94.4966 57.952 94.3766 58.072 94.1366 58.12L93.2646 58.248C93.3393 58.4133 93.3979 58.5893 93.4406 58.776C93.4833 58.9573 93.5046 59.1493 93.5046 59.352C93.5046 59.752 93.4273 60.1147 93.2726 60.44C93.1179 60.76 92.9046 61.0347 92.6326 61.264C92.3606 61.4933 92.0353 61.6693 91.6566 61.792C91.2833 61.9147 90.8726 61.976 90.4246 61.976C90.0566 61.976 89.7126 61.936 89.3926 61.856C89.2326 61.952 89.1099 62.0587 89.0246 62.176C88.9446 62.288 88.9046 62.4 88.9046 62.512C88.9046 62.6987 88.9819 62.8373 89.1366 62.928C89.2966 63.0187 89.5019 63.0853 89.7526 63.128C90.0086 63.1653 90.2993 63.1893 90.6246 63.2C90.9553 63.2107 91.2886 63.2293 91.6246 63.256C91.9659 63.2773 92.2993 63.32 92.6246 63.384C92.9553 63.4427 93.2459 63.5413 93.4966 63.68C93.7526 63.8133 93.9579 64 94.1126 64.24C94.2726 64.4747 94.3526 64.7813 94.3526 65.16C94.3526 65.512 94.2646 65.8533 94.0886 66.184C93.9179 66.5147 93.6673 66.808 93.3366 67.064C93.0059 67.32 92.6033 67.5253 92.1286 67.68C91.6539 67.8347 91.1153 67.912 90.5126 67.912C89.9099 67.912 89.3846 67.8533 88.9366 67.736C88.4939 67.6187 88.1233 67.4613 87.8246 67.264C87.5313 67.0667 87.3099 66.8373 87.1606 66.576C87.0166 66.3147 86.9446 66.0427 86.9446 65.76C86.9446 65.3653 87.0673 65.032 87.3126 64.76C87.5579 64.4827 87.8966 64.2667 88.3286 64.112C88.0939 64.0053 87.9073 63.8613 87.7686 63.68C87.6299 63.4933 87.5606 63.248 87.5606 62.944C87.5606 62.8267 87.5819 62.7067 87.6246 62.584C87.6673 62.456 87.7313 62.3307 87.8166 62.208C87.9073 62.08 88.0166 61.96 88.1446 61.848C88.2779 61.736 88.4299 61.6347 88.6006 61.544C88.2006 61.32 87.8859 61.024 87.6566 60.656C87.4273 60.2827 87.3126 59.848 87.3126 59.352C87.3126 58.952 87.3899 58.592 87.5446 58.272C87.6993 57.952 87.9126 57.6773 88.1846 57.448C88.4619 57.2187 88.7899 57.0427 89.1686 56.92C89.5526 56.7973 89.9713 56.736 90.4246 56.736C91.1286 56.736 91.7339 56.8827 92.2406 57.176H94.4966ZM103.352 56.872L98.84 67.36C98.792 67.4773 98.728 67.568 98.648 67.632C98.568 67.696 98.4506 67.728 98.296 67.728H97.136L98.624 64.488L95.288 56.872H96.648C96.7813 56.872 96.8853 56.904 96.96 56.968C97.0346 57.032 97.088 57.104 97.12 57.184L99.184 62.064C99.2266 62.1867 99.2666 62.312 99.304 62.44C99.3466 62.5627 99.3813 62.6853 99.408 62.808C99.4453 62.68 99.4853 62.5547 99.528 62.432C99.5706 62.304 99.616 62.1787 99.664 62.056L101.656 57.184C101.693 57.0933 101.752 57.0187 101.832 56.96C101.912 56.9013 102.003 56.872 102.104 56.872H103.352Z" fill="#3C3C6F"/>
<path d="M5.57847 10.48C6.02114 10.48 6.41047 10.4213 6.74647 10.304C7.0878 10.1867 7.37314 10.024 7.60247 9.816C7.83714 9.60267 8.01314 9.34933 8.13047 9.056C8.2478 8.76267 8.30647 8.44 8.30647 8.088C8.30647 7.35733 8.0798 6.78667 7.62647 6.376C7.17847 5.96533 6.4958 5.76 5.57847 5.76H3.73847V10.48H5.57847ZM5.57847 4.536C6.3038 4.536 6.93314 4.62133 7.46647 4.792C8.00514 4.95733 8.45047 5.19467 8.80247 5.504C9.15447 5.81333 9.4158 6.18667 9.58647 6.624C9.76247 7.06133 9.85047 7.54933 9.85047 8.088C9.85047 8.62133 9.75714 9.10933 9.57047 9.552C9.3838 9.99467 9.10914 10.376 8.74647 10.696C8.38914 11.016 7.9438 11.2667 7.41047 11.448C6.88247 11.624 6.2718 11.712 5.57847 11.712H3.73847V16H2.19447V4.536H5.57847ZM13.213 4.216V16H11.789V4.216H13.213ZM20.2342 12.352C19.5782 12.3733 19.0182 12.4267 18.5542 12.512C18.0956 12.592 17.7196 12.6987 17.4262 12.832C17.1382 12.9653 16.9276 13.1227 16.7942 13.304C16.6662 13.4853 16.6022 13.688 16.6022 13.912C16.6022 14.1253 16.6369 14.3093 16.7062 14.464C16.7756 14.6187 16.8689 14.7467 16.9862 14.848C17.1089 14.944 17.2502 15.016 17.4102 15.064C17.5756 15.1067 17.7516 15.128 17.9382 15.128C18.1889 15.128 18.4182 15.104 18.6262 15.056C18.8342 15.0027 19.0289 14.928 19.2102 14.832C19.3969 14.736 19.5729 14.6213 19.7382 14.488C19.9089 14.3547 20.0742 14.2027 20.2342 14.032V12.352ZM15.6342 9.04C16.0822 8.608 16.5649 8.28533 17.0822 8.072C17.5996 7.85867 18.1729 7.752 18.8022 7.752C19.2556 7.752 19.6582 7.82667 20.0102 7.976C20.3622 8.12533 20.6582 8.33333 20.8982 8.6C21.1382 8.86667 21.3196 9.18933 21.4422 9.568C21.5649 9.94667 21.6262 10.3627 21.6262 10.816V16H20.9942C20.8556 16 20.7489 15.9787 20.6742 15.936C20.5996 15.888 20.5409 15.7973 20.4982 15.664L20.3382 14.896C20.1249 15.0933 19.9169 15.2693 19.7142 15.424C19.5116 15.5733 19.2982 15.7013 19.0742 15.808C18.8502 15.9093 18.6102 15.9867 18.3542 16.04C18.1036 16.0987 17.8236 16.128 17.5142 16.128C17.1996 16.128 16.9036 16.0853 16.6262 16C16.3489 15.9093 16.1062 15.776 15.8982 15.6C15.6956 15.424 15.5329 15.2027 15.4102 14.936C15.2929 14.664 15.2342 14.344 15.2342 13.976C15.2342 13.656 15.3222 13.3493 15.4982 13.056C15.6742 12.7573 15.9596 12.4933 16.3542 12.264C16.7489 12.0347 17.2636 11.848 17.8982 11.704C18.5329 11.5547 19.3116 11.4693 20.2342 11.448V10.816C20.2342 10.1867 20.0982 9.712 19.8262 9.392C19.5542 9.06667 19.1569 8.904 18.6342 8.904C18.2822 8.904 17.9862 8.94933 17.7462 9.04C17.5116 9.12533 17.3062 9.224 17.1302 9.336C16.9596 9.44267 16.8102 9.54133 16.6822 9.632C16.5596 9.71733 16.4369 9.76 16.3142 9.76C16.2182 9.76 16.1356 9.736 16.0662 9.688C15.9969 9.63467 15.9382 9.57067 15.8902 9.496L15.6342 9.04ZM29.918 16V9.088H25.926V13.952C25.926 14.2933 26.0086 14.5467 26.174 14.712C26.3393 14.8773 26.5526 14.96 26.814 14.96C26.9633 14.96 27.0913 14.9413 27.198 14.904C27.31 14.8613 27.406 14.816 27.486 14.768C27.566 14.72 27.6326 14.6773 27.686 14.64C27.7446 14.5973 27.7953 14.576 27.838 14.576C27.9126 14.576 27.9793 14.6213 28.038 14.712L28.454 15.392C28.2086 15.6213 27.9126 15.8027 27.566 15.936C27.2193 16.064 26.862 16.128 26.494 16.128C25.854 16.128 25.3606 15.9493 25.014 15.592C24.6726 15.2347 24.502 14.72 24.502 14.048V9.088H23.526C23.4406 9.088 23.3686 9.064 23.31 9.016C23.2513 8.96267 23.222 8.88267 23.222 8.776V8.208L24.55 8.04L24.878 5.536C24.894 5.456 24.9286 5.392 24.982 5.344C25.0406 5.29067 25.1153 5.264 25.206 5.264H25.926V8.056H29.918V7.272C29.918 6.808 29.982 6.39733 30.11 6.04C30.2433 5.67733 30.43 5.37333 30.67 5.128C30.91 4.87733 31.2006 4.688 31.542 4.56C31.8886 4.432 32.2753 4.368 32.702 4.368C33.0593 4.368 33.3926 4.42133 33.702 4.528L33.67 5.24C33.6593 5.368 33.5873 5.43733 33.454 5.448C33.326 5.45867 33.1526 5.464 32.934 5.464C32.6886 5.464 32.4646 5.496 32.262 5.56C32.0646 5.624 31.894 5.728 31.75 5.872C31.606 6.016 31.494 6.20533 31.414 6.44C31.3393 6.67467 31.302 6.96533 31.302 7.312V8.056H33.638V9.088H31.35V16H29.918ZM38.4763 7.768C39.0683 7.768 39.6017 7.86667 40.0763 8.064C40.551 8.26133 40.9563 8.54133 41.2923 8.904C41.6283 9.26667 41.8843 9.70667 42.0603 10.224C42.2417 10.736 42.3323 11.3093 42.3323 11.944C42.3323 12.584 42.2417 13.16 42.0603 13.672C41.8843 14.184 41.6283 14.6213 41.2923 14.984C40.9563 15.3467 40.551 15.6267 40.0763 15.824C39.6017 16.016 39.0683 16.112 38.4763 16.112C37.879 16.112 37.3403 16.016 36.8603 15.824C36.3857 15.6267 35.9803 15.3467 35.6443 14.984C35.3083 14.6213 35.0497 14.184 34.8683 13.672C34.6923 13.16 34.6043 12.584 34.6043 11.944C34.6043 11.3093 34.6923 10.736 34.8683 10.224C35.0497 9.70667 35.3083 9.26667 35.6443 8.904C35.9803 8.54133 36.3857 8.26133 36.8603 8.064C37.3403 7.86667 37.879 7.768 38.4763 7.768ZM38.4763 15C39.2763 15 39.8737 14.7333 40.2683 14.2C40.663 13.6613 40.8603 12.912 40.8603 11.952C40.8603 10.9867 40.663 10.2347 40.2683 9.696C39.8737 9.15733 39.2763 8.888 38.4763 8.888C38.071 8.888 37.7163 8.95733 37.4123 9.096C37.1137 9.23467 36.863 9.43467 36.6603 9.696C36.463 9.95733 36.3137 10.28 36.2123 10.664C36.1163 11.0427 36.0683 11.472 36.0683 11.952C36.0683 12.912 36.2657 13.6613 36.6603 14.2C37.0603 14.7333 37.6657 15 38.4763 15ZM45.8105 9.52C46.0665 8.96533 46.3811 8.53333 46.7545 8.224C47.1278 7.90933 47.5838 7.752 48.1225 7.752C48.2931 7.752 48.4558 7.77067 48.6105 7.808C48.7705 7.84533 48.9118 7.904 49.0345 7.984L48.9305 9.048C48.8985 9.18133 48.8185 9.248 48.6905 9.248C48.6158 9.248 48.5065 9.232 48.3625 9.2C48.2185 9.168 48.0558 9.152 47.8745 9.152C47.6185 9.152 47.3891 9.18933 47.1865 9.264C46.9891 9.33867 46.8105 9.45067 46.6505 9.6C46.4958 9.744 46.3545 9.92533 46.2265 10.144C46.1038 10.3573 45.9918 10.6027 45.8905 10.88V16H44.4585V7.896H45.2745C45.4291 7.896 45.5358 7.92533 45.5945 7.984C45.6531 8.04267 45.6931 8.144 45.7145 8.288L45.8105 9.52ZM50.6066 16V7.896H51.4626C51.6653 7.896 51.7906 7.99467 51.8386 8.192L51.9426 9.024C52.2413 8.656 52.5773 8.35467 52.9506 8.12C53.3239 7.88533 53.7559 7.768 54.2466 7.768C54.7906 7.768 55.2306 7.92 55.5666 8.224C55.9079 8.528 56.1533 8.93867 56.3026 9.456C56.4199 9.16267 56.5693 8.90933 56.7506 8.696C56.9373 8.48267 57.1453 8.30667 57.3746 8.168C57.6039 8.02933 57.8466 7.928 58.1026 7.864C58.3639 7.8 58.6279 7.768 58.8946 7.768C59.3213 7.768 59.6999 7.83733 60.0306 7.976C60.3666 8.10933 60.6493 8.30667 60.8786 8.568C61.1133 8.82933 61.2919 9.152 61.4146 9.536C61.5373 9.91467 61.5986 10.3493 61.5986 10.84V16H60.1666V10.84C60.1666 10.2053 60.0279 9.72533 59.7506 9.4C59.4733 9.06933 59.0733 8.904 58.5506 8.904C58.3159 8.904 58.0919 8.94667 57.8786 9.032C57.6706 9.112 57.4866 9.232 57.3266 9.392C57.1666 9.552 57.0386 9.75467 56.9426 10C56.8519 10.24 56.8066 10.52 56.8066 10.84V16H55.3746V10.84C55.3746 10.1893 55.2439 9.704 54.9826 9.384C54.7213 9.064 54.3399 8.904 53.8386 8.904C53.4866 8.904 53.1613 9 52.8626 9.192C52.5639 9.37867 52.2893 9.63467 52.0386 9.96V16H50.6066ZM68.8028 9.232C68.7388 9.34933 68.6402 9.408 68.5068 9.408C68.4268 9.408 68.3362 9.37867 68.2348 9.32C68.1335 9.26133 68.0082 9.19733 67.8588 9.128C67.7148 9.05333 67.5415 8.98667 67.3388 8.928C67.1362 8.864 66.8962 8.832 66.6188 8.832C66.3788 8.832 66.1628 8.864 65.9708 8.928C65.7788 8.98667 65.6135 9.06933 65.4748 9.176C65.3415 9.28267 65.2375 9.408 65.1628 9.552C65.0935 9.69067 65.0588 9.84267 65.0588 10.008C65.0588 10.216 65.1175 10.3893 65.2348 10.528C65.3575 10.6667 65.5175 10.7867 65.7148 10.888C65.9122 10.9893 66.1362 11.08 66.3868 11.16C66.6375 11.2347 66.8935 11.3173 67.1548 11.408C67.4215 11.4933 67.6802 11.5893 67.9308 11.696C68.1815 11.8027 68.4055 11.936 68.6028 12.096C68.8002 12.256 68.9575 12.4533 69.0748 12.688C69.1975 12.9173 69.2588 13.1947 69.2588 13.52C69.2588 13.8933 69.1922 14.24 69.0588 14.56C68.9255 14.8747 68.7282 15.1493 68.4668 15.384C68.2055 15.6133 67.8855 15.7947 67.5068 15.928C67.1282 16.0613 66.6908 16.128 66.1948 16.128C65.6295 16.128 65.1175 16.0373 64.6588 15.856C64.2002 15.6693 63.8108 15.432 63.4908 15.144L63.8268 14.6C63.8695 14.5307 63.9202 14.4773 63.9788 14.44C64.0375 14.4027 64.1122 14.384 64.2028 14.384C64.2988 14.384 64.4002 14.4213 64.5068 14.496C64.6135 14.5707 64.7415 14.6533 64.8908 14.744C65.0455 14.8347 65.2322 14.9173 65.4508 14.992C65.6695 15.0667 65.9415 15.104 66.2668 15.104C66.5442 15.104 66.7868 15.0693 66.9948 15C67.2028 14.9253 67.3762 14.8267 67.5148 14.704C67.6535 14.5813 67.7548 14.44 67.8188 14.28C67.8882 14.12 67.9228 13.9493 67.9228 13.768C67.9228 13.544 67.8615 13.36 67.7388 13.216C67.6215 13.0667 67.4642 12.9413 67.2668 12.84C67.0695 12.7333 66.8428 12.6427 66.5868 12.568C66.3362 12.488 66.0775 12.4053 65.8108 12.32C65.5495 12.2347 65.2908 12.1387 65.0348 12.032C64.7842 11.92 64.5602 11.7813 64.3628 11.616C64.1655 11.4507 64.0055 11.248 63.8828 11.008C63.7655 10.7627 63.7068 10.4667 63.7068 10.12C63.7068 9.81067 63.7708 9.51467 63.8988 9.232C64.0268 8.944 64.2135 8.69333 64.4588 8.48C64.7042 8.26133 65.0055 8.088 65.3628 7.96C65.7202 7.832 66.1282 7.768 66.5868 7.768C67.1202 7.768 67.5975 7.85333 68.0188 8.024C68.4455 8.18933 68.8135 8.41867 69.1228 8.712L68.8028 9.232Z" fill="#8686A1"/>
<defs>
<filter id="filter0_b_450_5698" x="-29.2695" y="1" width="398.865" height="115" filterUnits="userSpaceOnUse" color-interpolation-filters="sRGB">
<feFlood flood-opacity="0" result="BackgroundImageFix"/>
<feGaussianBlur in="BackgroundImageFix" stdDeviation="15"/>
<feComposite in2="SourceAlpha" operator="in" result="effect1_backgroundBlur_450_5698"/>
<feBlend mode="normal" in="SourceGraphic" in2="effect1_backgroundBlur_450_5698" result="shape"/>
</filter>
<linearGradient id="paint0_linear_450_5698" x1="24.6551" y1="22.1792" x2="150.946" y2="50.3069" gradientUnits="userSpaceOnUse">
<stop stop-color="white"/>
<stop offset="1" stop-color="white" stop-opacity="0"/>
</linearGradient>
</defs>
</svg>
