<svg width="122" height="38" viewBox="0 0 122 38" fill="none" xmlns="http://www.w3.org/2000/svg">
<g filter="url(#filter0_b_450_5732)">
<path d="M0 19C0 8.50659 8.50659 0 19 0H103C113.493 0 122 8.50659 122 19C122 29.4934 113.493 38 103 38H19C8.50659 38 0 29.4934 0 19Z" fill="white" fill-opacity="0.6"/>
<path d="M1 19C1 9.05888 9.05888 1 19 1H103C112.941 1 121 9.05888 121 19C121 28.9411 112.941 37 103 37H19C9.05888 37 1 28.9411 1 19Z" stroke="url(#paint0_linear_450_5732)" stroke-opacity="0.9" stroke-width="2"/>
</g>
<path d="M46.8378 24.616L46.8298 26H39.7098V14.512H46.8298V15.896H41.4218V19.536H45.7738V20.872H41.4218V24.616H46.8378ZM53.856 19.84C53.616 19.5147 53.3413 19.2827 53.032 19.144C52.728 19.0053 52.3947 18.936 52.032 18.936C51.3173 18.936 50.7627 19.1947 50.368 19.712C49.9787 20.224 49.784 20.9733 49.784 21.96C49.784 22.4773 49.8267 22.92 49.912 23.288C50.0027 23.6507 50.1307 23.9493 50.296 24.184C50.4667 24.4133 50.6747 24.584 50.92 24.696C51.1653 24.8027 51.4427 24.856 51.752 24.856C52.2053 24.856 52.5973 24.7547 52.928 24.552C53.2587 24.3493 53.568 24.064 53.856 23.696V19.84ZM55.424 17.872V28.728H53.856V24.84C53.52 25.224 53.1387 25.5333 52.712 25.768C52.2853 25.9973 51.792 26.112 51.232 26.112C50.768 26.112 50.3467 26.0213 49.968 25.84C49.5947 25.6587 49.2747 25.3947 49.008 25.048C48.7413 24.696 48.536 24.2613 48.392 23.744C48.248 23.2267 48.176 22.632 48.176 21.96C48.176 21.3573 48.256 20.7973 48.416 20.28C48.576 19.7627 48.808 19.3147 49.112 18.936C49.416 18.5573 49.784 18.2613 50.216 18.048C50.648 17.8293 51.136 17.72 51.68 17.72C51.9413 17.72 52.1813 17.744 52.4 17.792C52.6187 17.84 52.8213 17.9093 53.008 18C53.1947 18.0907 53.3653 18.2 53.52 18.328C53.68 18.456 53.8293 18.6027 53.968 18.768L54.072 18.184C54.1253 17.976 54.2613 17.872 54.48 17.872H55.424ZM64.6804 17.872V26H63.7444C63.531 26 63.3924 25.896 63.3284 25.688L63.2164 24.872C63.0404 25.0587 62.8564 25.2293 62.6644 25.384C62.4724 25.5387 62.267 25.672 62.0484 25.784C61.8297 25.8907 61.5977 25.9733 61.3524 26.032C61.107 26.096 60.843 26.128 60.5604 26.128C60.1124 26.128 59.7177 26.0533 59.3764 25.904C59.0404 25.7547 58.7577 25.5467 58.5284 25.28C58.299 25.008 58.1257 24.6827 58.0084 24.304C57.891 23.9253 57.8324 23.5067 57.8324 23.048V17.872H59.4004V23.048C59.4004 23.6293 59.5337 24.0827 59.8004 24.408C60.067 24.728 60.475 24.888 61.0244 24.888C61.4244 24.888 61.7977 24.7947 62.1444 24.608C62.491 24.416 62.8164 24.1547 63.1204 23.824V17.872H64.6804ZM68.8099 17.872V26H67.2499V17.872H68.8099ZM69.1059 15.36C69.1059 15.504 69.0765 15.6427 69.0179 15.776C68.9592 15.904 68.8792 16.0187 68.7779 16.12C68.6819 16.216 68.5672 16.2933 68.4339 16.352C68.3005 16.4053 68.1619 16.432 68.0179 16.432C67.8739 16.432 67.7379 16.4053 67.6099 16.352C67.4819 16.2933 67.3672 16.216 67.2659 16.12C67.1699 16.0187 67.0925 15.904 67.0339 15.776C66.9805 15.6427 66.9539 15.504 66.9539 15.36C66.9539 15.2107 66.9805 15.072 67.0339 14.944C67.0925 14.8107 67.1699 14.696 67.2659 14.6C67.3672 14.4987 67.4819 14.4213 67.6099 14.368C67.7379 14.3093 67.8739 14.28 68.0179 14.28C68.1619 14.28 68.3005 14.3093 68.4339 14.368C68.5672 14.4213 68.6819 14.4987 68.7779 14.6C68.8792 14.696 68.9592 14.8107 69.0179 14.944C69.0765 15.072 69.1059 15.2107 69.1059 15.36ZM73.9325 26.128C73.2765 26.128 72.7698 25.944 72.4125 25.576C72.0605 25.208 71.8845 24.6827 71.8845 24V19.136H70.9405C70.8498 19.136 70.7725 19.1093 70.7085 19.056C70.6498 18.9973 70.6205 18.912 70.6205 18.8V18.168L71.9405 17.984L72.2925 15.56C72.3138 15.4693 72.3538 15.4 72.4125 15.352C72.4765 15.2987 72.5565 15.272 72.6525 15.272H73.4445V18H75.7485V19.136H73.4445V23.896C73.4445 24.216 73.5218 24.456 73.6765 24.616C73.8365 24.7707 74.0392 24.848 74.2845 24.848C74.4285 24.848 74.5512 24.8293 74.6525 24.792C74.7592 24.7547 74.8498 24.7147 74.9245 24.672C74.9992 24.624 75.0632 24.5813 75.1165 24.544C75.1698 24.5067 75.2178 24.488 75.2605 24.488C75.3138 24.488 75.3538 24.5013 75.3805 24.528C75.4125 24.5493 75.4445 24.5867 75.4765 24.64L75.9405 25.392C75.6845 25.6267 75.3805 25.808 75.0285 25.936C74.6765 26.064 74.3112 26.128 73.9325 26.128ZM84.6094 17.872L80.0974 28.36C80.0494 28.4773 79.9854 28.568 79.9054 28.632C79.8254 28.696 79.708 28.728 79.5534 28.728H78.3934L79.8814 25.488L76.5454 17.872H77.9054C78.0387 17.872 78.1427 17.904 78.2174 17.968C78.292 18.032 78.3454 18.104 78.3774 18.184L80.4414 23.064C80.484 23.1867 80.524 23.312 80.5614 23.44C80.604 23.5627 80.6387 23.6853 80.6654 23.808C80.7027 23.68 80.7427 23.5547 80.7854 23.432C80.828 23.304 80.8734 23.1787 80.9214 23.056L82.9134 18.184C82.9507 18.0933 83.0094 18.0187 83.0894 17.96C83.1694 17.9013 83.26 17.872 83.3614 17.872H84.6094Z" fill="#3C3C6F"/>
<defs>
<filter id="filter0_b_450_5732" x="-30" y="-30" width="182" height="98" filterUnits="userSpaceOnUse" color-interpolation-filters="sRGB">
<feFlood flood-opacity="0" result="BackgroundImageFix"/>
<feGaussianBlur in="BackgroundImageFix" stdDeviation="15"/>
<feComposite in2="SourceAlpha" operator="in" result="effect1_backgroundBlur_450_5732"/>
<feBlend mode="normal" in="SourceGraphic" in2="effect1_backgroundBlur_450_5732" result="shape"/>
</filter>
<linearGradient id="paint0_linear_450_5732" x1="8.61346" y1="-6.09434" x2="55.7026" y2="-0.629293" gradientUnits="userSpaceOnUse">
<stop stop-color="white"/>
<stop offset="1" stop-color="white" stop-opacity="0"/>
</linearGradient>
</defs>
</svg>
