<svg width="1041" height="78" viewBox="0 0 1041 78" fill="none" xmlns="http://www.w3.org/2000/svg">
<g filter="url(#filter0_b_450_5805)">
<path d="M0 59C0 48.5066 8.50659 40 19 40H127C137.493 40 146 48.5066 146 59C146 69.4934 137.493 78 127 78H19C8.50659 78 0 69.4934 0 59Z" fill="white" fill-opacity="0.6"/>
<path d="M1 59C1 49.0589 9.05887 41 19 41H127C136.941 41 145 49.0589 145 59C145 68.9411 136.941 77 127 77H19C9.05887 77 1 68.9411 1 59Z" stroke="url(#paint0_linear_450_5805)" stroke-opacity="0.9" stroke-width="2"/>
</g>
<path d="M40.6908 55.936H37.0428V66H35.3468V55.936H31.6828V54.512H40.6908V55.936ZM45.7897 61.032C45.7897 60.7227 45.7444 60.4373 45.6537 60.176C45.5684 59.9147 45.4404 59.688 45.2697 59.496C45.099 59.304 44.891 59.1547 44.6457 59.048C44.4004 58.9413 44.1177 58.888 43.7977 58.888C43.1417 58.888 42.6244 59.0773 42.2457 59.456C41.8724 59.8347 41.635 60.36 41.5337 61.032H45.7897ZM47.0777 64.84C46.8857 65.064 46.6644 65.2587 46.4137 65.424C46.163 65.584 45.8964 65.7147 45.6137 65.816C45.331 65.9173 45.0377 65.992 44.7337 66.04C44.435 66.088 44.139 66.112 43.8457 66.112C43.2857 66.112 42.7657 66.0187 42.2857 65.832C41.811 65.64 41.3977 65.3627 41.0457 65C40.699 64.632 40.427 64.1787 40.2297 63.64C40.0377 63.096 39.9417 62.472 39.9417 61.768C39.9417 61.2027 40.0297 60.6773 40.2057 60.192C40.3817 59.7013 40.6324 59.2747 40.9577 58.912C41.2884 58.5493 41.691 58.264 42.1657 58.056C42.6404 57.848 43.1737 57.744 43.7657 57.744C44.2617 57.744 44.7177 57.8267 45.1337 57.992C45.555 58.152 45.9177 58.3867 46.2217 58.696C46.5257 59.0053 46.763 59.3867 46.9337 59.84C47.1097 60.2933 47.1977 60.8107 47.1977 61.392C47.1977 61.632 47.171 61.7947 47.1177 61.88C47.0644 61.96 46.9657 62 46.8217 62H41.4937C41.5097 62.4853 41.579 62.9093 41.7017 63.272C41.8244 63.6293 41.9924 63.928 42.2057 64.168C42.4244 64.408 42.683 64.5867 42.9817 64.704C43.2804 64.8213 43.6137 64.88 43.9817 64.88C44.3284 64.88 44.627 64.84 44.8777 64.76C45.1337 64.68 45.3524 64.5947 45.5337 64.504C45.7204 64.408 45.875 64.32 45.9977 64.24C46.1257 64.16 46.2377 64.12 46.3337 64.12C46.4617 64.12 46.5604 64.168 46.6297 64.264L47.0777 64.84ZM54.8904 59.392C54.8424 59.4507 54.7944 59.4987 54.7464 59.536C54.7038 59.568 54.6398 59.584 54.5544 59.584C54.4691 59.584 54.3784 59.552 54.2824 59.488C54.1918 59.4187 54.0744 59.3467 53.9304 59.272C53.7918 59.192 53.6211 59.12 53.4184 59.056C53.2211 58.9867 52.9758 58.952 52.6824 58.952C52.2984 58.952 51.9598 59.0213 51.6664 59.16C51.3731 59.2987 51.1278 59.496 50.9304 59.752C50.7384 60.008 50.5918 60.32 50.4904 60.688C50.3891 61.056 50.3384 61.4693 50.3384 61.928C50.3384 62.4027 50.3918 62.8267 50.4984 63.2C50.6051 63.568 50.7571 63.88 50.9544 64.136C51.1518 64.3867 51.3918 64.5787 51.6744 64.712C51.9571 64.84 52.2718 64.904 52.6184 64.904C52.9544 64.904 53.2318 64.864 53.4504 64.784C53.6691 64.6987 53.8504 64.608 53.9944 64.512C54.1384 64.416 54.2584 64.328 54.3544 64.248C54.4504 64.1627 54.5491 64.12 54.6504 64.12C54.7784 64.12 54.8771 64.168 54.9464 64.264L55.3944 64.84C55.2078 65.0693 54.9971 65.264 54.7624 65.424C54.5331 65.584 54.2878 65.7147 54.0264 65.816C53.7651 65.9173 53.4904 65.992 53.2024 66.04C52.9198 66.088 52.6318 66.112 52.3384 66.112C51.8318 66.112 51.3571 66.0187 50.9144 65.832C50.4771 65.6453 50.0958 65.3733 49.7704 65.016C49.4504 64.6587 49.1971 64.2213 49.0104 63.704C48.8238 63.1813 48.7304 62.5893 48.7304 61.928C48.7304 61.3253 48.8131 60.768 48.9784 60.256C49.1491 59.744 49.3971 59.304 49.7224 58.936C50.0531 58.5627 50.4584 58.272 50.9384 58.064C51.4184 57.8507 51.9678 57.744 52.5864 57.744C53.1678 57.744 53.6798 57.8373 54.1224 58.024C54.5651 58.2107 54.9598 58.4747 55.3064 58.816L54.8904 59.392ZM58.7307 58.904C59.072 58.5573 59.448 58.2773 59.8587 58.064C60.2747 57.8507 60.752 57.744 61.2907 57.744C61.7387 57.744 62.1307 57.8187 62.4667 57.968C62.808 58.1173 63.0934 58.328 63.3227 58.6C63.552 58.8667 63.7254 59.1893 63.8427 59.568C63.96 59.9467 64.0187 60.3653 64.0187 60.824V66H62.4507V60.824C62.4507 60.2427 62.3174 59.792 62.0507 59.472C61.784 59.1467 61.376 58.984 60.8267 58.984C60.4267 58.984 60.0507 59.08 59.6987 59.272C59.352 59.4587 59.0294 59.7147 58.7307 60.04V66H57.1707V54.192H58.7307V58.904ZM67.9078 59C68.0838 58.8133 68.2678 58.6427 68.4598 58.488C68.6518 58.3333 68.8545 58.2027 69.0678 58.096C69.2865 57.984 69.5185 57.8987 69.7638 57.84C70.0145 57.776 70.2811 57.744 70.5638 57.744C71.0118 57.744 71.4038 57.8187 71.7398 57.968C72.0811 58.1173 72.3665 58.328 72.5958 58.6C72.8251 58.8667 72.9985 59.1893 73.1158 59.568C73.2331 59.9467 73.2918 60.3653 73.2918 60.824V66H71.7238V60.824C71.7238 60.2427 71.5905 59.792 71.3238 59.472C71.0571 59.1467 70.6491 58.984 70.0998 58.984C69.6998 58.984 69.3238 59.08 68.9718 59.272C68.6251 59.4587 68.3025 59.7147 68.0038 60.04V66H66.4438V57.872H67.3798C67.5985 57.872 67.7345 57.976 67.7878 58.184L67.9078 59ZM79.1809 57.744C79.7783 57.744 80.3169 57.8427 80.7969 58.04C81.2823 58.232 81.6929 58.512 82.0289 58.88C82.3703 59.2427 82.6316 59.6827 82.8129 60.2C82.9943 60.712 83.0849 61.288 83.0849 61.928C83.0849 62.568 82.9943 63.1467 82.8129 63.664C82.6316 64.1813 82.3703 64.6213 82.0289 64.984C81.6929 65.3467 81.2823 65.6267 80.7969 65.824C80.3169 66.016 79.7783 66.112 79.1809 66.112C78.5783 66.112 78.0343 66.016 77.5489 65.824C77.0689 65.6267 76.6583 65.3467 76.3169 64.984C75.9756 64.6213 75.7116 64.1813 75.5249 63.664C75.3436 63.1467 75.2529 62.568 75.2529 61.928C75.2529 61.288 75.3436 60.712 75.5249 60.2C75.7116 59.6827 75.9756 59.2427 76.3169 58.88C76.6583 58.512 77.0689 58.232 77.5489 58.04C78.0343 57.8427 78.5783 57.744 79.1809 57.744ZM79.1809 64.896C79.9489 64.896 80.5223 64.6373 80.9009 64.12C81.2796 63.6027 81.4689 62.8747 81.4689 61.936C81.4689 60.9973 81.2796 60.2693 80.9009 59.752C80.5223 59.2293 79.9489 58.968 79.1809 58.968C78.4023 58.968 77.8209 59.2293 77.4369 59.752C77.0583 60.2693 76.8689 60.9973 76.8689 61.936C76.8689 62.8747 77.0583 63.6027 77.4369 64.12C77.8209 64.6373 78.4023 64.896 79.1809 64.896ZM86.7463 54.192V66H85.1783V54.192H86.7463ZM92.7584 57.744C93.3558 57.744 93.8944 57.8427 94.3744 58.04C94.8598 58.232 95.2704 58.512 95.6064 58.88C95.9478 59.2427 96.2091 59.6827 96.3904 60.2C96.5718 60.712 96.6624 61.288 96.6624 61.928C96.6624 62.568 96.5718 63.1467 96.3904 63.664C96.2091 64.1813 95.9478 64.6213 95.6064 64.984C95.2704 65.3467 94.8598 65.6267 94.3744 65.824C93.8944 66.016 93.3558 66.112 92.7584 66.112C92.1558 66.112 91.6118 66.016 91.1264 65.824C90.6464 65.6267 90.2358 65.3467 89.8944 64.984C89.5531 64.6213 89.2891 64.1813 89.1024 63.664C88.9211 63.1467 88.8304 62.568 88.8304 61.928C88.8304 61.288 88.9211 60.712 89.1024 60.2C89.2891 59.6827 89.5531 59.2427 89.8944 58.88C90.2358 58.512 90.6464 58.232 91.1264 58.04C91.6118 57.8427 92.1558 57.744 92.7584 57.744ZM92.7584 64.896C93.5264 64.896 94.0998 64.6373 94.4784 64.12C94.8571 63.6027 95.0464 62.8747 95.0464 61.936C95.0464 60.9973 94.8571 60.2693 94.4784 59.752C94.0998 59.2293 93.5264 58.968 92.7584 58.968C91.9798 58.968 91.3984 59.2293 91.0144 59.752C90.6358 60.2693 90.4464 60.9973 90.4464 61.936C90.4464 62.8747 90.6358 63.6027 91.0144 64.12C91.3984 64.6373 91.9798 64.896 92.7584 64.896ZM101.533 61.944C101.81 61.944 102.053 61.9067 102.261 61.832C102.474 61.7573 102.65 61.6533 102.789 61.52C102.933 61.3813 103.04 61.216 103.109 61.024C103.184 60.832 103.221 60.6213 103.221 60.392C103.221 59.9227 103.077 59.5493 102.789 59.272C102.506 58.9893 102.088 58.848 101.533 58.848C100.984 58.848 100.565 58.9893 100.277 59.272C99.9943 59.5493 99.8529 59.9227 99.8529 60.392C99.8529 60.6213 99.8876 60.832 99.9569 61.024C100.032 61.2107 100.138 61.3733 100.277 61.512C100.421 61.6453 100.597 61.752 100.805 61.832C101.018 61.9067 101.261 61.944 101.533 61.944ZM104.021 66.424C104.021 66.232 103.968 66.08 103.861 65.968C103.754 65.8507 103.608 65.76 103.421 65.696C103.24 65.6267 103.026 65.5787 102.781 65.552C102.536 65.52 102.277 65.496 102.005 65.48C101.738 65.464 101.464 65.4507 101.181 65.44C100.898 65.424 100.626 65.3973 100.365 65.36C100.088 65.4987 99.8583 65.6667 99.6769 65.864C99.5009 66.0613 99.4129 66.2933 99.4129 66.56C99.4129 66.7307 99.4556 66.8907 99.5409 67.04C99.6316 67.1893 99.7676 67.3173 99.9489 67.424C100.136 67.536 100.368 67.6213 100.645 67.68C100.928 67.744 101.264 67.776 101.653 67.776C102.037 67.776 102.376 67.7413 102.669 67.672C102.962 67.608 103.208 67.5147 103.405 67.392C103.608 67.2747 103.76 67.1333 103.861 66.968C103.968 66.8027 104.021 66.6213 104.021 66.424ZM105.605 58.176V58.76C105.605 58.952 105.485 59.072 105.245 59.12L104.373 59.248C104.448 59.4133 104.506 59.5893 104.549 59.776C104.592 59.9573 104.613 60.1493 104.613 60.352C104.613 60.752 104.536 61.1147 104.381 61.44C104.226 61.76 104.013 62.0347 103.741 62.264C103.469 62.4933 103.144 62.6693 102.765 62.792C102.392 62.9147 101.981 62.976 101.533 62.976C101.165 62.976 100.821 62.936 100.501 62.856C100.341 62.952 100.218 63.0587 100.133 63.176C100.053 63.288 100.013 63.4 100.013 63.512C100.013 63.6987 100.09 63.8373 100.245 63.928C100.405 64.0187 100.61 64.0853 100.861 64.128C101.117 64.1653 101.408 64.1893 101.733 64.2C102.064 64.2107 102.397 64.2293 102.733 64.256C103.074 64.2773 103.408 64.32 103.733 64.384C104.064 64.4427 104.354 64.5413 104.605 64.68C104.861 64.8133 105.066 65 105.221 65.24C105.381 65.4747 105.461 65.7813 105.461 66.16C105.461 66.512 105.373 66.8533 105.197 67.184C105.026 67.5147 104.776 67.808 104.445 68.064C104.114 68.32 103.712 68.5253 103.237 68.68C102.762 68.8347 102.224 68.912 101.621 68.912C101.018 68.912 100.493 68.8533 100.045 68.736C99.6023 68.6187 99.2316 68.4613 98.9329 68.264C98.6396 68.0667 98.4183 67.8373 98.2689 67.576C98.1249 67.3147 98.0529 67.0427 98.0529 66.76C98.0529 66.3653 98.1756 66.032 98.4209 65.76C98.6663 65.4827 99.0049 65.2667 99.4369 65.112C99.2023 65.0053 99.0156 64.8613 98.8769 64.68C98.7383 64.4933 98.6689 64.248 98.6689 63.944C98.6689 63.8267 98.6903 63.7067 98.7329 63.584C98.7756 63.456 98.8396 63.3307 98.9249 63.208C99.0156 63.08 99.1249 62.96 99.2529 62.848C99.3863 62.736 99.5383 62.6347 99.7089 62.544C99.3089 62.32 98.9943 62.024 98.7649 61.656C98.5356 61.2827 98.4209 60.848 98.4209 60.352C98.4209 59.952 98.4983 59.592 98.6529 59.272C98.8076 58.952 99.0209 58.6773 99.2929 58.448C99.5703 58.2187 99.8983 58.0427 100.277 57.92C100.661 57.7973 101.08 57.736 101.533 57.736C102.237 57.736 102.842 57.8827 103.349 58.176H105.605ZM114.46 57.872L109.948 68.36C109.9 68.4773 109.836 68.568 109.756 68.632C109.676 68.696 109.559 68.728 109.404 68.728H108.244L109.732 65.488L106.396 57.872H107.756C107.89 57.872 107.994 57.904 108.068 57.968C108.143 58.032 108.196 58.104 108.228 58.184L110.292 63.064C110.335 63.1867 110.375 63.312 110.412 63.44C110.455 63.5627 110.49 63.6853 110.516 63.808C110.554 63.68 110.594 63.5547 110.636 63.432C110.679 63.304 110.724 63.1787 110.772 63.056L112.764 58.184C112.802 58.0933 112.86 58.0187 112.94 57.96C113.02 57.9013 113.111 57.872 113.212 57.872H114.46Z" fill="#3C3C6F"/>
<g filter="url(#filter1_b_450_5805)">
<path d="M154 59C154 48.5066 162.507 40 173 40H253C263.493 40 272 48.5066 272 59C272 69.4934 263.493 78 253 78H173C162.507 78 154 69.4934 154 59Z" fill="white" fill-opacity="0.6"/>
<path d="M155 59C155 49.0589 163.059 41 173 41H253C262.941 41 271 49.0589 271 59C271 68.9411 262.941 77 253 77H173C163.059 77 155 68.9411 155 59Z" stroke="url(#paint1_linear_450_5805)" stroke-opacity="0.9" stroke-width="2"/>
</g>
<path d="M194.863 63.536C194.959 63.536 195.041 63.5733 195.111 63.648L195.783 64.384C195.313 64.9387 194.74 65.368 194.063 65.672C193.391 65.976 192.58 66.128 191.631 66.128C190.799 66.128 190.044 65.984 189.367 65.696C188.695 65.408 188.119 65.0053 187.639 64.488C187.164 63.9707 186.796 63.352 186.535 62.632C186.273 61.912 186.143 61.12 186.143 60.256C186.143 59.392 186.279 58.6 186.551 57.88C186.828 57.16 187.215 56.5413 187.711 56.024C188.207 55.5067 188.799 55.104 189.487 54.816C190.18 54.528 190.945 54.384 191.783 54.384C192.599 54.384 193.324 54.5173 193.959 54.784C194.593 55.0507 195.145 55.4053 195.615 55.848L195.055 56.64C195.017 56.6987 194.969 56.7467 194.911 56.784C194.857 56.8213 194.785 56.84 194.695 56.84C194.593 56.84 194.473 56.7893 194.335 56.688C194.201 56.5867 194.023 56.4747 193.799 56.352C193.58 56.224 193.308 56.1093 192.983 56.008C192.657 55.9067 192.252 55.856 191.767 55.856C191.196 55.856 190.673 55.9573 190.199 56.16C189.724 56.3573 189.313 56.6453 188.967 57.024C188.625 57.3973 188.359 57.8587 188.167 58.408C187.98 58.952 187.887 59.568 187.887 60.256C187.887 60.9547 187.985 61.576 188.183 62.12C188.38 62.664 188.652 63.1253 188.999 63.504C189.345 63.8827 189.753 64.1707 190.223 64.368C190.692 64.5653 191.199 64.664 191.743 64.664C192.073 64.664 192.369 64.6453 192.631 64.608C192.897 64.5653 193.14 64.504 193.359 64.424C193.583 64.344 193.793 64.2427 193.991 64.12C194.188 63.992 194.383 63.84 194.575 63.664C194.617 63.6267 194.663 63.5973 194.711 63.576C194.759 63.5493 194.809 63.536 194.863 63.536ZM198.92 59.432C199.182 58.8987 199.496 58.48 199.864 58.176C200.232 57.872 200.675 57.72 201.192 57.72C201.368 57.72 201.534 57.7413 201.688 57.784C201.848 57.8213 201.987 57.88 202.104 57.96L202 59.136C201.963 59.28 201.875 59.352 201.736 59.352C201.662 59.352 201.55 59.3387 201.4 59.312C201.251 59.28 201.091 59.264 200.92 59.264C200.67 59.264 200.448 59.3013 200.256 59.376C200.064 59.4453 199.891 59.552 199.736 59.696C199.587 59.8347 199.454 60.008 199.336 60.216C199.219 60.4187 199.11 60.6507 199.008 60.912V66H197.448V57.872H198.344C198.515 57.872 198.63 57.904 198.688 57.968C198.752 58.0267 198.798 58.1333 198.824 58.288L198.92 59.432ZM208.715 61.032C208.715 60.7227 208.669 60.4373 208.579 60.176C208.493 59.9147 208.365 59.688 208.195 59.496C208.024 59.304 207.816 59.1547 207.571 59.048C207.325 58.9413 207.043 58.888 206.723 58.888C206.067 58.888 205.549 59.0773 205.171 59.456C204.797 59.8347 204.56 60.36 204.459 61.032H208.715ZM210.003 64.84C209.811 65.064 209.589 65.2587 209.339 65.424C209.088 65.584 208.821 65.7147 208.539 65.816C208.256 65.9173 207.963 65.992 207.659 66.04C207.36 66.088 207.064 66.112 206.771 66.112C206.211 66.112 205.691 66.0187 205.211 65.832C204.736 65.64 204.323 65.3627 203.971 65C203.624 64.632 203.352 64.1787 203.155 63.64C202.963 63.096 202.867 62.472 202.867 61.768C202.867 61.2027 202.955 60.6773 203.131 60.192C203.307 59.7013 203.557 59.2747 203.883 58.912C204.213 58.5493 204.616 58.264 205.091 58.056C205.565 57.848 206.099 57.744 206.691 57.744C207.187 57.744 207.643 57.8267 208.059 57.992C208.48 58.152 208.843 58.3867 209.147 58.696C209.451 59.0053 209.688 59.3867 209.859 59.84C210.035 60.2933 210.123 60.8107 210.123 61.392C210.123 61.632 210.096 61.7947 210.043 61.88C209.989 61.96 209.891 62 209.747 62H204.419C204.435 62.4853 204.504 62.9093 204.627 63.272C204.749 63.6293 204.917 63.928 205.131 64.168C205.349 64.408 205.608 64.5867 205.907 64.704C206.205 64.8213 206.539 64.88 206.907 64.88C207.253 64.88 207.552 64.84 207.803 64.76C208.059 64.68 208.277 64.5947 208.459 64.504C208.645 64.408 208.8 64.32 208.923 64.24C209.051 64.16 209.163 64.12 209.259 64.12C209.387 64.12 209.485 64.168 209.555 64.264L210.003 64.84ZM216.487 62.392C215.853 62.4133 215.314 62.464 214.871 62.544C214.429 62.6187 214.069 62.72 213.791 62.848C213.514 62.976 213.314 63.128 213.191 63.304C213.069 63.4747 213.007 63.6667 213.007 63.88C213.007 64.0827 213.039 64.2587 213.103 64.408C213.173 64.552 213.263 64.672 213.375 64.768C213.493 64.8587 213.629 64.9253 213.783 64.968C213.938 65.0107 214.106 65.032 214.287 65.032C214.527 65.032 214.746 65.008 214.943 64.96C215.146 64.912 215.335 64.8453 215.511 64.76C215.687 64.6693 215.855 64.56 216.015 64.432C216.175 64.304 216.333 64.1573 216.487 63.992V62.392ZM211.911 59.008C212.365 58.576 212.855 58.2533 213.383 58.04C213.917 57.8267 214.501 57.72 215.135 57.72C215.599 57.72 216.01 57.7973 216.367 57.952C216.725 58.1013 217.026 58.312 217.271 58.584C217.517 58.856 217.701 59.1813 217.823 59.56C217.951 59.9387 218.015 60.3573 218.015 60.816V66H217.319C217.165 66 217.047 65.976 216.967 65.928C216.887 65.8747 216.823 65.7787 216.775 65.64L216.607 64.928C216.399 65.12 216.194 65.2907 215.991 65.44C215.789 65.584 215.575 65.7093 215.351 65.816C215.133 65.9173 214.898 65.9947 214.647 66.048C214.397 66.1013 214.119 66.128 213.815 66.128C213.495 66.128 213.194 66.0853 212.911 66C212.634 65.9093 212.391 65.7733 212.183 65.592C211.975 65.4107 211.81 65.184 211.687 64.912C211.57 64.64 211.511 64.3227 211.511 63.96C211.511 63.64 211.597 63.3333 211.767 63.04C211.943 62.7413 212.226 62.4747 212.615 62.24C213.01 62.0053 213.522 61.8133 214.151 61.664C214.786 61.5147 215.565 61.4293 216.487 61.408V60.816C216.487 60.2027 216.357 59.744 216.095 59.44C215.834 59.136 215.45 58.984 214.943 58.984C214.602 58.984 214.314 59.0267 214.079 59.112C213.85 59.1973 213.65 59.2933 213.479 59.4C213.314 59.5013 213.167 59.5947 213.039 59.68C212.917 59.7653 212.789 59.808 212.655 59.808C212.549 59.808 212.455 59.7787 212.375 59.72C212.301 59.6613 212.239 59.592 212.191 59.512L211.911 59.008ZM222.858 66.128C222.202 66.128 221.696 65.944 221.338 65.576C220.986 65.208 220.81 64.6827 220.81 64V59.136H219.866C219.776 59.136 219.698 59.1093 219.634 59.056C219.576 58.9973 219.546 58.912 219.546 58.8V58.168L220.866 57.984L221.218 55.56C221.24 55.4693 221.28 55.4 221.338 55.352C221.402 55.2987 221.482 55.272 221.578 55.272H222.37V58H224.674V59.136H222.37V63.896C222.37 64.216 222.448 64.456 222.602 64.616C222.762 64.7707 222.965 64.848 223.21 64.848C223.354 64.848 223.477 64.8293 223.578 64.792C223.685 64.7547 223.776 64.7147 223.85 64.672C223.925 64.624 223.989 64.5813 224.042 64.544C224.096 64.5067 224.144 64.488 224.186 64.488C224.24 64.488 224.28 64.5013 224.306 64.528C224.338 64.5493 224.37 64.5867 224.402 64.64L224.866 65.392C224.61 65.6267 224.306 65.808 223.954 65.936C223.602 66.064 223.237 66.128 222.858 66.128ZM229.848 57.744C230.446 57.744 230.984 57.8427 231.464 58.04C231.95 58.232 232.36 58.512 232.696 58.88C233.038 59.2427 233.299 59.6827 233.48 60.2C233.662 60.712 233.752 61.288 233.752 61.928C233.752 62.568 233.662 63.1467 233.48 63.664C233.299 64.1813 233.038 64.6213 232.696 64.984C232.36 65.3467 231.95 65.6267 231.464 65.824C230.984 66.016 230.446 66.112 229.848 66.112C229.246 66.112 228.702 66.016 228.216 65.824C227.736 65.6267 227.326 65.3467 226.984 64.984C226.643 64.6213 226.379 64.1813 226.192 63.664C226.011 63.1467 225.92 62.568 225.92 61.928C225.92 61.288 226.011 60.712 226.192 60.2C226.379 59.6827 226.643 59.2427 226.984 58.88C227.326 58.512 227.736 58.232 228.216 58.04C228.702 57.8427 229.246 57.744 229.848 57.744ZM229.848 64.896C230.616 64.896 231.19 64.6373 231.568 64.12C231.947 63.6027 232.136 62.8747 232.136 61.936C232.136 60.9973 231.947 60.2693 231.568 59.752C231.19 59.2293 230.616 58.968 229.848 58.968C229.07 58.968 228.488 59.2293 228.104 59.752C227.726 60.2693 227.536 60.9973 227.536 61.936C227.536 62.8747 227.726 63.6027 228.104 64.12C228.488 64.6373 229.07 64.896 229.848 64.896ZM237.286 59.432C237.547 58.8987 237.862 58.48 238.23 58.176C238.598 57.872 239.04 57.72 239.558 57.72C239.734 57.72 239.899 57.7413 240.054 57.784C240.214 57.8213 240.352 57.88 240.47 57.96L240.366 59.136C240.328 59.28 240.24 59.352 240.102 59.352C240.027 59.352 239.915 59.3387 239.766 59.312C239.616 59.28 239.456 59.264 239.286 59.264C239.035 59.264 238.814 59.3013 238.622 59.376C238.43 59.4453 238.256 59.552 238.102 59.696C237.952 59.8347 237.819 60.008 237.702 60.216C237.584 60.4187 237.475 60.6507 237.374 60.912V66H235.814V57.872H236.71C236.88 57.872 236.995 57.904 237.054 57.968C237.118 58.0267 237.163 58.1333 237.19 58.288L237.286 59.432Z" fill="#3C3C6F"/>
<g filter="url(#filter2_b_450_5805)">
<path d="M280 59C280 48.5066 288.507 40 299 40H425C435.493 40 444 48.5066 444 59C444 69.4934 435.493 78 425 78H299C288.507 78 280 69.4934 280 59Z" fill="white" fill-opacity="0.6"/>
<path d="M281 59C281 49.0589 289.059 41 299 41H425C434.941 41 443 49.0589 443 59C443 68.9411 434.941 77 425 77H299C289.059 77 281 68.9411 281 59Z" stroke="url(#paint2_linear_450_5805)" stroke-opacity="0.9" stroke-width="2"/>
</g>
<path d="M316.389 56.384C316.336 56.4747 316.28 56.5413 316.221 56.584C316.163 56.6267 316.088 56.648 315.997 56.648C315.901 56.648 315.792 56.6053 315.669 56.52C315.547 56.4293 315.392 56.3307 315.205 56.224C315.024 56.112 314.805 56.0133 314.549 55.928C314.293 55.8373 313.987 55.792 313.629 55.792C313.293 55.792 312.997 55.8373 312.741 55.928C312.491 56.0133 312.28 56.1333 312.109 56.288C311.939 56.4373 311.808 56.616 311.717 56.824C311.632 57.0267 311.589 57.248 311.589 57.488C311.589 57.7973 311.667 58.0533 311.821 58.256C311.981 58.4587 312.189 58.632 312.445 58.776C312.701 58.92 312.992 59.0453 313.317 59.152C313.643 59.2587 313.976 59.3707 314.317 59.488C314.659 59.6 314.992 59.7307 315.317 59.88C315.643 60.0293 315.933 60.2187 316.189 60.448C316.445 60.672 316.651 60.9493 316.805 61.28C316.965 61.6053 317.045 62.0053 317.045 62.48C317.045 62.9867 316.957 63.4613 316.781 63.904C316.611 64.3467 316.36 64.7333 316.029 65.064C315.699 65.3947 315.291 65.656 314.805 65.848C314.325 66.0347 313.779 66.128 313.165 66.128C312.797 66.128 312.44 66.0907 312.093 66.016C311.747 65.9467 311.419 65.848 311.109 65.72C310.8 65.5867 310.509 65.4293 310.237 65.248C309.971 65.0613 309.731 64.8533 309.517 64.624L310.005 63.808C310.053 63.744 310.109 63.6907 310.173 63.648C310.243 63.6053 310.32 63.584 310.405 63.584C310.517 63.584 310.645 63.6427 310.789 63.76C310.939 63.8773 311.12 64.008 311.333 64.152C311.552 64.2907 311.811 64.4187 312.109 64.536C312.413 64.6533 312.781 64.712 313.213 64.712C313.565 64.712 313.88 64.6667 314.157 64.576C314.435 64.48 314.667 64.3467 314.853 64.176C315.045 64 315.192 63.7893 315.293 63.544C315.395 63.2987 315.445 63.0267 315.445 62.728C315.445 62.392 315.368 62.1173 315.213 61.904C315.059 61.6907 314.853 61.512 314.597 61.368C314.341 61.224 314.051 61.1013 313.725 61C313.4 60.8987 313.067 60.7947 312.725 60.688C312.384 60.576 312.051 60.448 311.725 60.304C311.4 60.16 311.109 59.9733 310.853 59.744C310.597 59.5093 310.392 59.2187 310.237 58.872C310.083 58.52 310.005 58.088 310.005 57.576C310.005 57.1653 310.085 56.768 310.245 56.384C310.405 56 310.637 55.6613 310.941 55.368C311.251 55.0693 311.629 54.832 312.077 54.656C312.525 54.4747 313.037 54.384 313.613 54.384C314.259 54.384 314.851 54.488 315.389 54.696C315.933 54.8987 316.405 55.192 316.805 55.576L316.389 56.384ZM318.977 66V57.872H319.913C320.131 57.872 320.267 57.976 320.321 58.184L320.433 58.96C320.731 58.6027 321.062 58.312 321.425 58.088C321.793 57.8587 322.222 57.744 322.713 57.744C323.251 57.744 323.689 57.8933 324.025 58.192C324.361 58.4853 324.606 58.8853 324.761 59.392C324.878 59.104 325.03 58.856 325.217 58.648C325.403 58.44 325.611 58.2693 325.841 58.136C326.07 58.0027 326.313 57.904 326.569 57.84C326.83 57.776 327.094 57.744 327.361 57.744C327.793 57.744 328.177 57.8133 328.513 57.952C328.854 58.0853 329.142 58.2827 329.377 58.544C329.611 58.8053 329.79 59.128 329.913 59.512C330.035 59.896 330.097 60.3333 330.097 60.824V66H328.529V60.824C328.529 60.216 328.395 59.7573 328.129 59.448C327.867 59.1387 327.483 58.984 326.977 58.984C326.753 58.984 326.539 59.024 326.337 59.104C326.134 59.1787 325.955 59.2933 325.801 59.448C325.651 59.6027 325.531 59.7947 325.441 60.024C325.355 60.2533 325.313 60.52 325.313 60.824V66H323.745V60.824C323.745 60.1947 323.619 59.7307 323.369 59.432C323.118 59.1333 322.75 58.984 322.265 58.984C321.929 58.984 321.617 59.072 321.329 59.248C321.041 59.424 320.777 59.664 320.537 59.968V66H318.977ZM336.883 62.392C336.249 62.4133 335.71 62.464 335.267 62.544C334.825 62.6187 334.465 62.72 334.187 62.848C333.91 62.976 333.71 63.128 333.587 63.304C333.465 63.4747 333.403 63.6667 333.403 63.88C333.403 64.0827 333.435 64.2587 333.499 64.408C333.569 64.552 333.659 64.672 333.771 64.768C333.889 64.8587 334.025 64.9253 334.179 64.968C334.334 65.0107 334.502 65.032 334.683 65.032C334.923 65.032 335.142 65.008 335.339 64.96C335.542 64.912 335.731 64.8453 335.907 64.76C336.083 64.6693 336.251 64.56 336.411 64.432C336.571 64.304 336.729 64.1573 336.883 63.992V62.392ZM332.307 59.008C332.761 58.576 333.251 58.2533 333.779 58.04C334.313 57.8267 334.897 57.72 335.531 57.72C335.995 57.72 336.406 57.7973 336.763 57.952C337.121 58.1013 337.422 58.312 337.667 58.584C337.913 58.856 338.097 59.1813 338.219 59.56C338.347 59.9387 338.411 60.3573 338.411 60.816V66H337.715C337.561 66 337.443 65.976 337.363 65.928C337.283 65.8747 337.219 65.7787 337.171 65.64L337.003 64.928C336.795 65.12 336.59 65.2907 336.387 65.44C336.185 65.584 335.971 65.7093 335.747 65.816C335.529 65.9173 335.294 65.9947 335.043 66.048C334.793 66.1013 334.515 66.128 334.211 66.128C333.891 66.128 333.59 66.0853 333.307 66C333.03 65.9093 332.787 65.7733 332.579 65.592C332.371 65.4107 332.206 65.184 332.083 64.912C331.966 64.64 331.907 64.3227 331.907 63.96C331.907 63.64 331.993 63.3333 332.163 63.04C332.339 62.7413 332.622 62.4747 333.011 62.24C333.406 62.0053 333.918 61.8133 334.547 61.664C335.182 61.5147 335.961 61.4293 336.883 61.408V60.816C336.883 60.2027 336.753 59.744 336.491 59.44C336.23 59.136 335.846 58.984 335.339 58.984C334.998 58.984 334.71 59.0267 334.475 59.112C334.246 59.1973 334.046 59.2933 333.875 59.4C333.71 59.5013 333.563 59.5947 333.435 59.68C333.313 59.7653 333.185 59.808 333.051 59.808C332.945 59.808 332.851 59.7787 332.771 59.72C332.697 59.6613 332.635 59.592 332.587 59.512L332.307 59.008ZM342.42 54.192V66H340.852V54.192H342.42ZM346.568 54.192V66H345V54.192H346.568ZM357.907 64.648C358.339 64.648 358.707 64.5973 359.011 64.496C359.32 64.3947 359.571 64.256 359.763 64.08C359.96 63.904 360.104 63.696 360.195 63.456C360.286 63.2107 360.331 62.944 360.331 62.656C360.331 62.0853 360.134 61.6373 359.739 61.312C359.344 60.9813 358.734 60.816 357.907 60.816H355.507V64.648H357.907ZM355.507 55.848V59.608H357.467C358.304 59.608 358.926 59.44 359.331 59.104C359.742 58.7627 359.947 58.304 359.947 57.728C359.947 57.072 359.752 56.5947 359.363 56.296C358.974 55.9973 358.368 55.848 357.547 55.848H355.507ZM357.547 54.512C358.267 54.512 358.883 54.5813 359.395 54.72C359.912 54.8587 360.336 55.0587 360.667 55.32C360.998 55.5813 361.24 55.8987 361.395 56.272C361.555 56.64 361.635 57.0587 361.635 57.528C361.635 57.8053 361.592 58.072 361.507 58.328C361.422 58.584 361.291 58.824 361.115 59.048C360.939 59.2667 360.718 59.464 360.451 59.64C360.184 59.816 359.87 59.9627 359.507 60.08C361.176 60.4107 362.011 61.2827 362.011 62.696C362.011 63.1867 361.92 63.6347 361.739 64.04C361.558 64.44 361.294 64.7867 360.947 65.08C360.6 65.3733 360.174 65.6 359.667 65.76C359.16 65.92 358.584 66 357.939 66H353.803V54.512H357.547ZM370.797 57.872V66H369.861C369.648 66 369.509 65.896 369.445 65.688L369.333 64.872C369.157 65.0587 368.973 65.2293 368.781 65.384C368.589 65.5387 368.384 65.672 368.165 65.784C367.947 65.8907 367.715 65.9733 367.469 66.032C367.224 66.096 366.96 66.128 366.677 66.128C366.229 66.128 365.835 66.0533 365.493 65.904C365.157 65.7547 364.875 65.5467 364.645 65.28C364.416 65.008 364.243 64.6827 364.125 64.304C364.008 63.9253 363.949 63.5067 363.949 63.048V57.872H365.517V63.048C365.517 63.6293 365.651 64.0827 365.917 64.408C366.184 64.728 366.592 64.888 367.141 64.888C367.541 64.888 367.915 64.7947 368.261 64.608C368.608 64.416 368.933 64.1547 369.237 63.824V57.872H370.797ZM378.087 59.272C378.044 59.3413 377.999 59.392 377.951 59.424C377.903 59.4507 377.841 59.464 377.767 59.464C377.681 59.464 377.585 59.4347 377.479 59.376C377.377 59.3173 377.252 59.2533 377.103 59.184C376.959 59.1147 376.788 59.0507 376.591 58.992C376.393 58.9333 376.159 58.904 375.887 58.904C375.663 58.904 375.457 58.9333 375.271 58.992C375.089 59.0453 374.935 59.1227 374.807 59.224C374.679 59.32 374.58 59.4373 374.511 59.576C374.441 59.7093 374.407 59.8533 374.407 60.008C374.407 60.2107 374.465 60.3787 374.583 60.512C374.705 60.6453 374.863 60.76 375.055 60.856C375.252 60.952 375.473 61.04 375.719 61.12C375.969 61.1947 376.223 61.2747 376.479 61.36C376.74 61.4453 376.993 61.544 377.239 61.656C377.489 61.7627 377.711 61.8987 377.903 62.064C378.1 62.224 378.257 62.4187 378.375 62.648C378.497 62.8773 378.559 63.1573 378.559 63.488C378.559 63.8667 378.489 64.2187 378.351 64.544C378.217 64.864 378.017 65.1413 377.751 65.376C377.489 65.6107 377.164 65.7947 376.775 65.928C376.385 66.0613 375.94 66.128 375.439 66.128C374.879 66.128 374.361 66.0347 373.887 65.848C373.412 65.6613 373.015 65.424 372.695 65.136L373.063 64.536C373.105 64.4613 373.159 64.4053 373.223 64.368C373.287 64.3253 373.372 64.304 373.479 64.304C373.58 64.304 373.684 64.3413 373.791 64.416C373.897 64.4907 374.025 64.5733 374.175 64.664C374.324 64.7493 374.505 64.8293 374.719 64.904C374.932 64.9733 375.199 65.008 375.519 65.008C375.785 65.008 376.017 64.976 376.215 64.912C376.412 64.8427 376.575 64.752 376.703 64.64C376.836 64.5227 376.935 64.3893 376.999 64.24C377.063 64.0907 377.095 63.9333 377.095 63.768C377.095 63.5547 377.033 63.3787 376.911 63.24C376.793 63.096 376.636 62.9733 376.439 62.872C376.247 62.7707 376.025 62.6827 375.775 62.608C375.524 62.5333 375.268 62.4533 375.007 62.368C374.745 62.2827 374.489 62.184 374.239 62.072C373.988 61.96 373.764 61.8187 373.567 61.648C373.375 61.4773 373.217 61.2693 373.095 61.024C372.977 60.7787 372.919 60.48 372.919 60.128C372.919 59.8133 372.983 59.512 373.111 59.224C373.244 58.936 373.433 58.6827 373.679 58.464C373.929 58.2453 374.236 58.072 374.599 57.944C374.967 57.8107 375.385 57.744 375.855 57.744C376.393 57.744 376.879 57.8293 377.311 58C377.748 58.1707 378.121 58.4053 378.431 58.704L378.087 59.272ZM382.2 57.872V66H380.64V57.872H382.2ZM382.496 55.36C382.496 55.504 382.467 55.6427 382.408 55.776C382.349 55.904 382.269 56.0187 382.168 56.12C382.072 56.216 381.957 56.2933 381.824 56.352C381.691 56.4053 381.552 56.432 381.408 56.432C381.264 56.432 381.128 56.4053 381 56.352C380.872 56.2933 380.757 56.216 380.656 56.12C380.56 56.0187 380.483 55.904 380.424 55.776C380.371 55.6427 380.344 55.504 380.344 55.36C380.344 55.2107 380.371 55.072 380.424 54.944C380.483 54.8107 380.56 54.696 380.656 54.6C380.757 54.4987 380.872 54.4213 381 54.368C381.128 54.3093 381.264 54.28 381.408 54.28C381.552 54.28 381.691 54.3093 381.824 54.368C381.957 54.4213 382.072 54.4987 382.168 54.6C382.269 54.696 382.349 54.8107 382.408 54.944C382.467 55.072 382.496 55.2107 382.496 55.36ZM386.242 59C386.418 58.8133 386.602 58.6427 386.794 58.488C386.986 58.3333 387.189 58.2027 387.402 58.096C387.621 57.984 387.853 57.8987 388.098 57.84C388.349 57.776 388.616 57.744 388.898 57.744C389.346 57.744 389.738 57.8187 390.074 57.968C390.416 58.1173 390.701 58.328 390.93 58.6C391.16 58.8667 391.333 59.1893 391.45 59.568C391.568 59.9467 391.626 60.3653 391.626 60.824V66H390.058V60.824C390.058 60.2427 389.925 59.792 389.658 59.472C389.392 59.1467 388.984 58.984 388.434 58.984C388.034 58.984 387.658 59.08 387.306 59.272C386.96 59.4587 386.637 59.7147 386.338 60.04V66H384.778V57.872H385.714C385.933 57.872 386.069 57.976 386.122 58.184L386.242 59ZM399.436 61.032C399.436 60.7227 399.39 60.4373 399.3 60.176C399.214 59.9147 399.086 59.688 398.916 59.496C398.745 59.304 398.537 59.1547 398.292 59.048C398.046 58.9413 397.764 58.888 397.444 58.888C396.788 58.888 396.27 59.0773 395.892 59.456C395.518 59.8347 395.281 60.36 395.18 61.032H399.436ZM400.724 64.84C400.532 65.064 400.31 65.2587 400.06 65.424C399.809 65.584 399.542 65.7147 399.26 65.816C398.977 65.9173 398.684 65.992 398.38 66.04C398.081 66.088 397.785 66.112 397.492 66.112C396.932 66.112 396.412 66.0187 395.932 65.832C395.457 65.64 395.044 65.3627 394.692 65C394.345 64.632 394.073 64.1787 393.876 63.64C393.684 63.096 393.588 62.472 393.588 61.768C393.588 61.2027 393.676 60.6773 393.852 60.192C394.028 59.7013 394.278 59.2747 394.604 58.912C394.934 58.5493 395.337 58.264 395.812 58.056C396.286 57.848 396.82 57.744 397.412 57.744C397.908 57.744 398.364 57.8267 398.78 57.992C399.201 58.152 399.564 58.3867 399.868 58.696C400.172 59.0053 400.409 59.3867 400.58 59.84C400.756 60.2933 400.844 60.8107 400.844 61.392C400.844 61.632 400.817 61.7947 400.764 61.88C400.71 61.96 400.612 62 400.468 62H395.14C395.156 62.4853 395.225 62.9093 395.348 63.272C395.47 63.6293 395.638 63.928 395.852 64.168C396.07 64.408 396.329 64.5867 396.628 64.704C396.926 64.8213 397.26 64.88 397.628 64.88C397.974 64.88 398.273 64.84 398.524 64.76C398.78 64.68 398.998 64.5947 399.18 64.504C399.366 64.408 399.521 64.32 399.644 64.24C399.772 64.16 399.884 64.12 399.98 64.12C400.108 64.12 400.206 64.168 400.276 64.264L400.724 64.84ZM407.632 59.272C407.59 59.3413 407.544 59.392 407.496 59.424C407.448 59.4507 407.387 59.464 407.312 59.464C407.227 59.464 407.131 59.4347 407.024 59.376C406.923 59.3173 406.798 59.2533 406.648 59.184C406.504 59.1147 406.334 59.0507 406.136 58.992C405.939 58.9333 405.704 58.904 405.432 58.904C405.208 58.904 405.003 58.9333 404.816 58.992C404.635 59.0453 404.48 59.1227 404.352 59.224C404.224 59.32 404.126 59.4373 404.056 59.576C403.987 59.7093 403.952 59.8533 403.952 60.008C403.952 60.2107 404.011 60.3787 404.128 60.512C404.251 60.6453 404.408 60.76 404.6 60.856C404.798 60.952 405.019 61.04 405.264 61.12C405.515 61.1947 405.768 61.2747 406.024 61.36C406.286 61.4453 406.539 61.544 406.784 61.656C407.035 61.7627 407.256 61.8987 407.448 62.064C407.646 62.224 407.803 62.4187 407.92 62.648C408.043 62.8773 408.104 63.1573 408.104 63.488C408.104 63.8667 408.035 64.2187 407.896 64.544C407.763 64.864 407.563 65.1413 407.296 65.376C407.035 65.6107 406.71 65.7947 406.32 65.928C405.931 66.0613 405.486 66.128 404.984 66.128C404.424 66.128 403.907 66.0347 403.432 65.848C402.958 65.6613 402.56 65.424 402.24 65.136L402.608 64.536C402.651 64.4613 402.704 64.4053 402.768 64.368C402.832 64.3253 402.918 64.304 403.024 64.304C403.126 64.304 403.23 64.3413 403.336 64.416C403.443 64.4907 403.571 64.5733 403.72 64.664C403.87 64.7493 404.051 64.8293 404.264 64.904C404.478 64.9733 404.744 65.008 405.064 65.008C405.331 65.008 405.563 64.976 405.76 64.912C405.958 64.8427 406.12 64.752 406.248 64.64C406.382 64.5227 406.48 64.3893 406.544 64.24C406.608 64.0907 406.64 63.9333 406.64 63.768C406.64 63.5547 406.579 63.3787 406.456 63.24C406.339 63.096 406.182 62.9733 405.984 62.872C405.792 62.7707 405.571 62.6827 405.32 62.608C405.07 62.5333 404.814 62.4533 404.552 62.368C404.291 62.2827 404.035 62.184 403.784 62.072C403.534 61.96 403.31 61.8187 403.112 61.648C402.92 61.4773 402.763 61.2693 402.64 61.024C402.523 60.7787 402.464 60.48 402.464 60.128C402.464 59.8133 402.528 59.512 402.656 59.224C402.79 58.936 402.979 58.6827 403.224 58.464C403.475 58.2453 403.782 58.072 404.144 57.944C404.512 57.8107 404.931 57.744 405.4 57.744C405.939 57.744 406.424 57.8293 406.856 58C407.294 58.1707 407.667 58.4053 407.976 58.704L407.632 59.272ZM414.906 59.272C414.863 59.3413 414.818 59.392 414.77 59.424C414.722 59.4507 414.66 59.464 414.586 59.464C414.5 59.464 414.404 59.4347 414.298 59.376C414.196 59.3173 414.071 59.2533 413.922 59.184C413.778 59.1147 413.607 59.0507 413.41 58.992C413.212 58.9333 412.978 58.904 412.706 58.904C412.482 58.904 412.276 58.9333 412.09 58.992C411.908 59.0453 411.754 59.1227 411.626 59.224C411.498 59.32 411.399 59.4373 411.33 59.576C411.26 59.7093 411.226 59.8533 411.226 60.008C411.226 60.2107 411.284 60.3787 411.402 60.512C411.524 60.6453 411.682 60.76 411.874 60.856C412.071 60.952 412.292 61.04 412.538 61.12C412.788 61.1947 413.042 61.2747 413.298 61.36C413.559 61.4453 413.812 61.544 414.058 61.656C414.308 61.7627 414.53 61.8987 414.722 62.064C414.919 62.224 415.076 62.4187 415.194 62.648C415.316 62.8773 415.378 63.1573 415.378 63.488C415.378 63.8667 415.308 64.2187 415.17 64.544C415.036 64.864 414.836 65.1413 414.57 65.376C414.308 65.6107 413.983 65.7947 413.594 65.928C413.204 66.0613 412.759 66.128 412.258 66.128C411.698 66.128 411.18 66.0347 410.706 65.848C410.231 65.6613 409.834 65.424 409.514 65.136L409.882 64.536C409.924 64.4613 409.978 64.4053 410.042 64.368C410.106 64.3253 410.191 64.304 410.298 64.304C410.399 64.304 410.503 64.3413 410.61 64.416C410.716 64.4907 410.844 64.5733 410.994 64.664C411.143 64.7493 411.324 64.8293 411.538 64.904C411.751 64.9733 412.018 65.008 412.338 65.008C412.604 65.008 412.836 64.976 413.034 64.912C413.231 64.8427 413.394 64.752 413.522 64.64C413.655 64.5227 413.754 64.3893 413.818 64.24C413.882 64.0907 413.914 63.9333 413.914 63.768C413.914 63.5547 413.852 63.3787 413.73 63.24C413.612 63.096 413.455 62.9733 413.258 62.872C413.066 62.7707 412.844 62.6827 412.594 62.608C412.343 62.5333 412.087 62.4533 411.826 62.368C411.564 62.2827 411.308 62.184 411.058 62.072C410.807 61.96 410.583 61.8187 410.386 61.648C410.194 61.4773 410.036 61.2693 409.914 61.024C409.796 60.7787 409.738 60.48 409.738 60.128C409.738 59.8133 409.802 59.512 409.93 59.224C410.063 58.936 410.252 58.6827 410.498 58.464C410.748 58.2453 411.055 58.072 411.418 57.944C411.786 57.8107 412.204 57.744 412.674 57.744C413.212 57.744 413.698 57.8293 414.13 58C414.567 58.1707 414.94 58.4053 415.25 58.704L414.906 59.272Z" fill="#3C3C6F"/>
<g filter="url(#filter3_b_450_5805)">
<path d="M452 59C452 48.5066 460.507 40 471 40H555C565.493 40 574 48.5066 574 59C574 69.4934 565.493 78 555 78H471C460.507 78 452 69.4934 452 59Z" fill="white" fill-opacity="0.6"/>
<path d="M453 59C453 49.0589 461.059 41 471 41H555C564.941 41 573 49.0589 573 59C573 68.9411 564.941 77 555 77H471C461.059 77 453 68.9411 453 59Z" stroke="url(#paint3_linear_450_5805)" stroke-opacity="0.9" stroke-width="2"/>
</g>
<path d="M498.838 64.616L498.83 66H491.71V54.512H498.83V55.896H493.422V59.536H497.774V60.872H493.422V64.616H498.838ZM505.856 59.84C505.616 59.5147 505.341 59.2827 505.032 59.144C504.728 59.0053 504.395 58.936 504.032 58.936C503.317 58.936 502.763 59.1947 502.368 59.712C501.979 60.224 501.784 60.9733 501.784 61.96C501.784 62.4773 501.827 62.92 501.912 63.288C502.003 63.6507 502.131 63.9493 502.296 64.184C502.467 64.4133 502.675 64.584 502.92 64.696C503.165 64.8027 503.443 64.856 503.752 64.856C504.205 64.856 504.597 64.7547 504.928 64.552C505.259 64.3493 505.568 64.064 505.856 63.696V59.84ZM507.424 57.872V68.728H505.856V64.84C505.52 65.224 505.139 65.5333 504.712 65.768C504.285 65.9973 503.792 66.112 503.232 66.112C502.768 66.112 502.347 66.0213 501.968 65.84C501.595 65.6587 501.275 65.3947 501.008 65.048C500.741 64.696 500.536 64.2613 500.392 63.744C500.248 63.2267 500.176 62.632 500.176 61.96C500.176 61.3573 500.256 60.7973 500.416 60.28C500.576 59.7627 500.808 59.3147 501.112 58.936C501.416 58.5573 501.784 58.2613 502.216 58.048C502.648 57.8293 503.136 57.72 503.68 57.72C503.941 57.72 504.181 57.744 504.4 57.792C504.619 57.84 504.821 57.9093 505.008 58C505.195 58.0907 505.365 58.2 505.52 58.328C505.68 58.456 505.829 58.6027 505.968 58.768L506.072 58.184C506.125 57.976 506.261 57.872 506.48 57.872H507.424ZM516.68 57.872V66H515.744C515.531 66 515.392 65.896 515.328 65.688L515.216 64.872C515.04 65.0587 514.856 65.2293 514.664 65.384C514.472 65.5387 514.267 65.672 514.048 65.784C513.83 65.8907 513.598 65.9733 513.352 66.032C513.107 66.096 512.843 66.128 512.56 66.128C512.112 66.128 511.718 66.0533 511.376 65.904C511.04 65.7547 510.758 65.5467 510.528 65.28C510.299 65.008 510.126 64.6827 510.008 64.304C509.891 63.9253 509.832 63.5067 509.832 63.048V57.872H511.4V63.048C511.4 63.6293 511.534 64.0827 511.8 64.408C512.067 64.728 512.475 64.888 513.024 64.888C513.424 64.888 513.798 64.7947 514.144 64.608C514.491 64.416 514.816 64.1547 515.12 63.824V57.872H516.68ZM520.81 57.872V66H519.25V57.872H520.81ZM521.106 55.36C521.106 55.504 521.077 55.6427 521.018 55.776C520.959 55.904 520.879 56.0187 520.778 56.12C520.682 56.216 520.567 56.2933 520.434 56.352C520.301 56.4053 520.162 56.432 520.018 56.432C519.874 56.432 519.738 56.4053 519.61 56.352C519.482 56.2933 519.367 56.216 519.266 56.12C519.17 56.0187 519.093 55.904 519.034 55.776C518.981 55.6427 518.954 55.504 518.954 55.36C518.954 55.2107 518.981 55.072 519.034 54.944C519.093 54.8107 519.17 54.696 519.266 54.6C519.367 54.4987 519.482 54.4213 519.61 54.368C519.738 54.3093 519.874 54.28 520.018 54.28C520.162 54.28 520.301 54.3093 520.434 54.368C520.567 54.4213 520.682 54.4987 520.778 54.6C520.879 54.696 520.959 54.8107 521.018 54.944C521.077 55.072 521.106 55.2107 521.106 55.36ZM525.933 66.128C525.277 66.128 524.77 65.944 524.413 65.576C524.061 65.208 523.885 64.6827 523.885 64V59.136H522.941C522.85 59.136 522.773 59.1093 522.709 59.056C522.65 58.9973 522.621 58.912 522.621 58.8V58.168L523.941 57.984L524.293 55.56C524.314 55.4693 524.354 55.4 524.413 55.352C524.477 55.2987 524.557 55.272 524.653 55.272H525.445V58H527.749V59.136H525.445V63.896C525.445 64.216 525.522 64.456 525.677 64.616C525.837 64.7707 526.039 64.848 526.285 64.848C526.429 64.848 526.551 64.8293 526.653 64.792C526.759 64.7547 526.85 64.7147 526.925 64.672C526.999 64.624 527.063 64.5813 527.117 64.544C527.17 64.5067 527.218 64.488 527.261 64.488C527.314 64.488 527.354 64.5013 527.381 64.528C527.413 64.5493 527.445 64.5867 527.477 64.64L527.941 65.392C527.685 65.6267 527.381 65.808 527.029 65.936C526.677 66.064 526.311 66.128 525.933 66.128ZM536.609 57.872L532.097 68.36C532.049 68.4773 531.985 68.568 531.905 68.632C531.825 68.696 531.708 68.728 531.553 68.728H530.393L531.881 65.488L528.545 57.872H529.905C530.039 57.872 530.143 57.904 530.217 57.968C530.292 58.032 530.345 58.104 530.377 58.184L532.441 63.064C532.484 63.1867 532.524 63.312 532.561 63.44C532.604 63.5627 532.639 63.6853 532.665 63.808C532.703 63.68 532.743 63.5547 532.785 63.432C532.828 63.304 532.873 63.1787 532.921 63.056L534.913 58.184C534.951 58.0933 535.009 58.0187 535.089 57.96C535.169 57.9013 535.26 57.872 535.361 57.872H536.609Z" fill="#3C3C6F"/>
<path d="M4.848 10.48C5.29067 10.48 5.68 10.4213 6.016 10.304C6.35733 10.1867 6.64267 10.024 6.872 9.816C7.10667 9.60267 7.28267 9.34933 7.4 9.056C7.51733 8.76267 7.576 8.44 7.576 8.088C7.576 7.35733 7.34933 6.78667 6.896 6.376C6.448 5.96533 5.76533 5.76 4.848 5.76H3.008V10.48H4.848ZM4.848 4.536C5.57333 4.536 6.20267 4.62133 6.736 4.792C7.27467 4.95733 7.72 5.19467 8.072 5.504C8.424 5.81333 8.68533 6.18667 8.856 6.624C9.032 7.06133 9.12 7.54933 9.12 8.088C9.12 8.62133 9.02667 9.10933 8.84 9.552C8.65333 9.99467 8.37867 10.376 8.016 10.696C7.65867 11.016 7.21333 11.2667 6.68 11.448C6.152 11.624 5.54133 11.712 4.848 11.712H3.008V16H1.464V4.536H4.848ZM12.4825 4.216V16H11.0585V4.216H12.4825ZM19.5038 12.352C18.8478 12.3733 18.2878 12.4267 17.8238 12.512C17.3651 12.592 16.9891 12.6987 16.6958 12.832C16.4078 12.9653 16.1971 13.1227 16.0638 13.304C15.9358 13.4853 15.8718 13.688 15.8718 13.912C15.8718 14.1253 15.9064 14.3093 15.9758 14.464C16.0451 14.6187 16.1384 14.7467 16.2558 14.848C16.3784 14.944 16.5198 15.016 16.6798 15.064C16.8451 15.1067 17.0211 15.128 17.2078 15.128C17.4584 15.128 17.6878 15.104 17.8958 15.056C18.1038 15.0027 18.2984 14.928 18.4798 14.832C18.6664 14.736 18.8424 14.6213 19.0078 14.488C19.1784 14.3547 19.3438 14.2027 19.5038 14.032V12.352ZM14.9038 9.04C15.3518 8.608 15.8344 8.28533 16.3518 8.072C16.8691 7.85867 17.4424 7.752 18.0718 7.752C18.5251 7.752 18.9278 7.82667 19.2798 7.976C19.6318 8.12533 19.9278 8.33333 20.1678 8.6C20.4078 8.86667 20.5891 9.18933 20.7118 9.568C20.8344 9.94667 20.8958 10.3627 20.8958 10.816V16H20.2638C20.1251 16 20.0184 15.9787 19.9438 15.936C19.8691 15.888 19.8104 15.7973 19.7678 15.664L19.6078 14.896C19.3944 15.0933 19.1864 15.2693 18.9838 15.424C18.7811 15.5733 18.5678 15.7013 18.3438 15.808C18.1198 15.9093 17.8798 15.9867 17.6238 16.04C17.3731 16.0987 17.0931 16.128 16.7838 16.128C16.4691 16.128 16.1731 16.0853 15.8958 16C15.6184 15.9093 15.3758 15.776 15.1678 15.6C14.9651 15.424 14.8024 15.2027 14.6798 14.936C14.5624 14.664 14.5038 14.344 14.5038 13.976C14.5038 13.656 14.5918 13.3493 14.7678 13.056C14.9438 12.7573 15.2291 12.4933 15.6238 12.264C16.0184 12.0347 16.5331 11.848 17.1678 11.704C17.8024 11.5547 18.5811 11.4693 19.5038 11.448V10.816C19.5038 10.1867 19.3678 9.712 19.0958 9.392C18.8238 9.06667 18.4264 8.904 17.9038 8.904C17.5518 8.904 17.2558 8.94933 17.0158 9.04C16.7811 9.12533 16.5758 9.224 16.3998 9.336C16.2291 9.44267 16.0798 9.54133 15.9518 9.632C15.8291 9.71733 15.7064 9.76 15.5838 9.76C15.4878 9.76 15.4051 9.736 15.3358 9.688C15.2664 9.63467 15.2078 9.57067 15.1598 9.496L14.9038 9.04ZM29.1875 16V9.088H25.1955V13.952C25.1955 14.2933 25.2782 14.5467 25.4435 14.712C25.6088 14.8773 25.8222 14.96 26.0835 14.96C26.2328 14.96 26.3608 14.9413 26.4675 14.904C26.5795 14.8613 26.6755 14.816 26.7555 14.768C26.8355 14.72 26.9022 14.6773 26.9555 14.64C27.0142 14.5973 27.0648 14.576 27.1075 14.576C27.1822 14.576 27.2488 14.6213 27.3075 14.712L27.7235 15.392C27.4782 15.6213 27.1822 15.8027 26.8355 15.936C26.4888 16.064 26.1315 16.128 25.7635 16.128C25.1235 16.128 24.6302 15.9493 24.2835 15.592C23.9422 15.2347 23.7715 14.72 23.7715 14.048V9.088H22.7955C22.7102 9.088 22.6382 9.064 22.5795 9.016C22.5208 8.96267 22.4915 8.88267 22.4915 8.776V8.208L23.8195 8.04L24.1475 5.536C24.1635 5.456 24.1982 5.392 24.2515 5.344C24.3102 5.29067 24.3848 5.264 24.4755 5.264H25.1955V8.056H29.1875V7.272C29.1875 6.808 29.2515 6.39733 29.3795 6.04C29.5128 5.67733 29.6995 5.37333 29.9395 5.128C30.1795 4.87733 30.4702 4.688 30.8115 4.56C31.1582 4.432 31.5448 4.368 31.9715 4.368C32.3288 4.368 32.6622 4.42133 32.9715 4.528L32.9395 5.24C32.9288 5.368 32.8568 5.43733 32.7235 5.448C32.5955 5.45867 32.4222 5.464 32.2035 5.464C31.9582 5.464 31.7342 5.496 31.5315 5.56C31.3342 5.624 31.1635 5.728 31.0195 5.872C30.8755 6.016 30.7635 6.20533 30.6835 6.44C30.6088 6.67467 30.5715 6.96533 30.5715 7.312V8.056H32.9075V9.088H30.6195V16H29.1875ZM37.7459 7.768C38.3379 7.768 38.8712 7.86667 39.3459 8.064C39.8205 8.26133 40.2259 8.54133 40.5619 8.904C40.8979 9.26667 41.1539 9.70667 41.3299 10.224C41.5112 10.736 41.6019 11.3093 41.6019 11.944C41.6019 12.584 41.5112 13.16 41.3299 13.672C41.1539 14.184 40.8979 14.6213 40.5619 14.984C40.2259 15.3467 39.8205 15.6267 39.3459 15.824C38.8712 16.016 38.3379 16.112 37.7459 16.112C37.1485 16.112 36.6099 16.016 36.1299 15.824C35.6552 15.6267 35.2499 15.3467 34.9139 14.984C34.5779 14.6213 34.3192 14.184 34.1379 13.672C33.9619 13.16 33.8739 12.584 33.8739 11.944C33.8739 11.3093 33.9619 10.736 34.1379 10.224C34.3192 9.70667 34.5779 9.26667 34.9139 8.904C35.2499 8.54133 35.6552 8.26133 36.1299 8.064C36.6099 7.86667 37.1485 7.768 37.7459 7.768ZM37.7459 15C38.5459 15 39.1432 14.7333 39.5379 14.2C39.9325 13.6613 40.1299 12.912 40.1299 11.952C40.1299 10.9867 39.9325 10.2347 39.5379 9.696C39.1432 9.15733 38.5459 8.888 37.7459 8.888C37.3405 8.888 36.9859 8.95733 36.6819 9.096C36.3832 9.23467 36.1325 9.43467 35.9299 9.696C35.7325 9.95733 35.5832 10.28 35.4819 10.664C35.3859 11.0427 35.3379 11.472 35.3379 11.952C35.3379 12.912 35.5352 13.6613 35.9299 14.2C36.3299 14.7333 36.9352 15 37.7459 15ZM45.08 9.52C45.336 8.96533 45.6507 8.53333 46.024 8.224C46.3973 7.90933 46.8533 7.752 47.392 7.752C47.5627 7.752 47.7253 7.77067 47.88 7.808C48.04 7.84533 48.1813 7.904 48.304 7.984L48.2 9.048C48.168 9.18133 48.088 9.248 47.96 9.248C47.8853 9.248 47.776 9.232 47.632 9.2C47.488 9.168 47.3253 9.152 47.144 9.152C46.888 9.152 46.6587 9.18933 46.456 9.264C46.2587 9.33867 46.08 9.45067 45.92 9.6C45.7653 9.744 45.624 9.92533 45.496 10.144C45.3733 10.3573 45.2613 10.6027 45.16 10.88V16H43.728V7.896H44.544C44.6987 7.896 44.8053 7.92533 44.864 7.984C44.9227 8.04267 44.9627 8.144 44.984 8.288L45.08 9.52ZM49.8761 16V7.896H50.7321C50.9348 7.896 51.0601 7.99467 51.1081 8.192L51.2121 9.024C51.5108 8.656 51.8468 8.35467 52.2201 8.12C52.5935 7.88533 53.0255 7.768 53.5161 7.768C54.0601 7.768 54.5001 7.92 54.8361 8.224C55.1775 8.528 55.4228 8.93867 55.5721 9.456C55.6895 9.16267 55.8388 8.90933 56.0201 8.696C56.2068 8.48267 56.4148 8.30667 56.6441 8.168C56.8735 8.02933 57.1161 7.928 57.3721 7.864C57.6335 7.8 57.8975 7.768 58.1641 7.768C58.5908 7.768 58.9695 7.83733 59.3001 7.976C59.6361 8.10933 59.9188 8.30667 60.1481 8.568C60.3828 8.82933 60.5615 9.152 60.6841 9.536C60.8068 9.91467 60.8681 10.3493 60.8681 10.84V16H59.4361V10.84C59.4361 10.2053 59.2975 9.72533 59.0201 9.4C58.7428 9.06933 58.3428 8.904 57.8201 8.904C57.5855 8.904 57.3615 8.94667 57.1481 9.032C56.9401 9.112 56.7561 9.232 56.5961 9.392C56.4361 9.552 56.3081 9.75467 56.2121 10C56.1215 10.24 56.0761 10.52 56.0761 10.84V16H54.6441V10.84C54.6441 10.1893 54.5135 9.704 54.2521 9.384C53.9908 9.064 53.6095 8.904 53.1081 8.904C52.7561 8.904 52.4308 9 52.1321 9.192C51.8335 9.37867 51.5588 9.63467 51.3081 9.96V16H49.8761ZM68.0724 9.232C68.0084 9.34933 67.9097 9.408 67.7764 9.408C67.6964 9.408 67.6057 9.37867 67.5044 9.32C67.403 9.26133 67.2777 9.19733 67.1284 9.128C66.9844 9.05333 66.811 8.98667 66.6084 8.928C66.4057 8.864 66.1657 8.832 65.8884 8.832C65.6484 8.832 65.4324 8.864 65.2404 8.928C65.0484 8.98667 64.883 9.06933 64.7444 9.176C64.611 9.28267 64.507 9.408 64.4324 9.552C64.363 9.69067 64.3284 9.84267 64.3284 10.008C64.3284 10.216 64.387 10.3893 64.5044 10.528C64.627 10.6667 64.787 10.7867 64.9844 10.888C65.1817 10.9893 65.4057 11.08 65.6564 11.16C65.907 11.2347 66.163 11.3173 66.4244 11.408C66.691 11.4933 66.9497 11.5893 67.2004 11.696C67.451 11.8027 67.675 11.936 67.8724 12.096C68.0697 12.256 68.227 12.4533 68.3444 12.688C68.467 12.9173 68.5284 13.1947 68.5284 13.52C68.5284 13.8933 68.4617 14.24 68.3284 14.56C68.195 14.8747 67.9977 15.1493 67.7364 15.384C67.475 15.6133 67.155 15.7947 66.7764 15.928C66.3977 16.0613 65.9604 16.128 65.4644 16.128C64.899 16.128 64.387 16.0373 63.9284 15.856C63.4697 15.6693 63.0804 15.432 62.7604 15.144L63.0964 14.6C63.139 14.5307 63.1897 14.4773 63.2484 14.44C63.307 14.4027 63.3817 14.384 63.4724 14.384C63.5684 14.384 63.6697 14.4213 63.7764 14.496C63.883 14.5707 64.011 14.6533 64.1604 14.744C64.315 14.8347 64.5017 14.9173 64.7204 14.992C64.939 15.0667 65.211 15.104 65.5364 15.104C65.8137 15.104 66.0564 15.0693 66.2644 15C66.4724 14.9253 66.6457 14.8267 66.7844 14.704C66.923 14.5813 67.0244 14.44 67.0884 14.28C67.1577 14.12 67.1924 13.9493 67.1924 13.768C67.1924 13.544 67.131 13.36 67.0084 13.216C66.891 13.0667 66.7337 12.9413 66.5364 12.84C66.339 12.7333 66.1124 12.6427 65.8564 12.568C65.6057 12.488 65.347 12.4053 65.0804 12.32C64.819 12.2347 64.5604 12.1387 64.3044 12.032C64.0537 11.92 63.8297 11.7813 63.6324 11.616C63.435 11.4507 63.275 11.248 63.1524 11.008C63.035 10.7627 62.9764 10.4667 62.9764 10.12C62.9764 9.81067 63.0404 9.51467 63.1684 9.232C63.2964 8.944 63.483 8.69333 63.7284 8.48C63.9737 8.26133 64.275 8.088 64.6324 7.96C64.9897 7.832 65.3977 7.768 65.8564 7.768C66.3897 7.768 66.867 7.85333 67.2884 8.024C67.715 8.18933 68.083 8.41867 68.3924 8.712L68.0724 9.232Z" fill="#8686A1"/>
<defs>
<filter id="filter0_b_450_5805" x="-30" y="10" width="206" height="98" filterUnits="userSpaceOnUse" color-interpolation-filters="sRGB">
<feFlood flood-opacity="0" result="BackgroundImageFix"/>
<feGaussianBlur in="BackgroundImageFix" stdDeviation="15"/>
<feComposite in2="SourceAlpha" operator="in" result="effect1_backgroundBlur_450_5805"/>
<feBlend mode="normal" in="SourceGraphic" in2="effect1_backgroundBlur_450_5805" result="shape"/>
</filter>
<filter id="filter1_b_450_5805" x="124" y="10" width="178" height="98" filterUnits="userSpaceOnUse" color-interpolation-filters="sRGB">
<feFlood flood-opacity="0" result="BackgroundImageFix"/>
<feGaussianBlur in="BackgroundImageFix" stdDeviation="15"/>
<feComposite in2="SourceAlpha" operator="in" result="effect1_backgroundBlur_450_5805"/>
<feBlend mode="normal" in="SourceGraphic" in2="effect1_backgroundBlur_450_5805" result="shape"/>
</filter>
<filter id="filter2_b_450_5805" x="250" y="10" width="224" height="98" filterUnits="userSpaceOnUse" color-interpolation-filters="sRGB">
<feFlood flood-opacity="0" result="BackgroundImageFix"/>
<feGaussianBlur in="BackgroundImageFix" stdDeviation="15"/>
<feComposite in2="SourceAlpha" operator="in" result="effect1_backgroundBlur_450_5805"/>
<feBlend mode="normal" in="SourceGraphic" in2="effect1_backgroundBlur_450_5805" result="shape"/>
</filter>
<filter id="filter3_b_450_5805" x="422" y="10" width="182" height="98" filterUnits="userSpaceOnUse" color-interpolation-filters="sRGB">
<feFlood flood-opacity="0" result="BackgroundImageFix"/>
<feGaussianBlur in="BackgroundImageFix" stdDeviation="15"/>
<feComposite in2="SourceAlpha" operator="in" result="effect1_backgroundBlur_450_5805"/>
<feBlend mode="normal" in="SourceGraphic" in2="effect1_backgroundBlur_450_5805" result="shape"/>
</filter>
<linearGradient id="paint0_linear_450_5805" x1="10.3079" y1="33.9057" x2="66.3387" y2="41.6877" gradientUnits="userSpaceOnUse">
<stop stop-color="white"/>
<stop offset="1" stop-color="white" stop-opacity="0"/>
</linearGradient>
<linearGradient id="paint1_linear_450_5805" x1="162.331" y1="33.9057" x2="207.915" y2="39.0226" gradientUnits="userSpaceOnUse">
<stop stop-color="white"/>
<stop offset="1" stop-color="white" stop-opacity="0"/>
</linearGradient>
<linearGradient id="paint2_linear_450_5805" x1="291.579" y1="33.9057" x2="354.207" y2="43.6764" gradientUnits="userSpaceOnUse">
<stop stop-color="white"/>
<stop offset="1" stop-color="white" stop-opacity="0"/>
</linearGradient>
<linearGradient id="paint3_linear_450_5805" x1="460.613" y1="33.9057" x2="507.703" y2="39.3707" gradientUnits="userSpaceOnUse">
<stop stop-color="white"/>
<stop offset="1" stop-color="white" stop-opacity="0"/>
</linearGradient>
</defs>
</svg>
