<svg width="118" height="38" viewBox="0 0 118 38" fill="none" xmlns="http://www.w3.org/2000/svg">
<g filter="url(#filter0_b_450_5726)">
<path d="M0 19C0 8.50659 8.50659 0 19 0H99C109.493 0 118 8.50659 118 19C118 29.4934 109.493 38 99 38H19C8.50659 38 0 29.4934 0 19Z" fill="white" fill-opacity="0.6"/>
<path d="M1 19C1 9.05888 9.05888 1 19 1H99C108.941 1 117 9.05887 117 19C117 28.9411 108.941 37 99 37H19C9.05887 37 1 28.9411 1 19Z" stroke="url(#paint0_linear_450_5726)" stroke-opacity="0.9" stroke-width="2"/>
</g>
<path d="M40.8628 23.536C40.9588 23.536 41.0415 23.5733 41.1108 23.648L41.7828 24.384C41.3135 24.9387 40.7401 25.368 40.0628 25.672C39.3908 25.976 38.5801 26.128 37.6308 26.128C36.7988 26.128 36.0441 25.984 35.3668 25.696C34.6948 25.408 34.1188 25.0053 33.6388 24.488C33.1641 23.9707 32.7961 23.352 32.5348 22.632C32.2735 21.912 32.1428 21.12 32.1428 20.256C32.1428 19.392 32.2788 18.6 32.5508 17.88C32.8281 17.16 33.2148 16.5413 33.7108 16.024C34.2068 15.5067 34.7988 15.104 35.4868 14.816C36.1801 14.528 36.9455 14.384 37.7828 14.384C38.5988 14.384 39.3241 14.5173 39.9588 14.784C40.5935 15.0507 41.1455 15.4053 41.6148 15.848L41.0548 16.64C41.0175 16.6987 40.9695 16.7467 40.9108 16.784C40.8575 16.8213 40.7855 16.84 40.6948 16.84C40.5935 16.84 40.4735 16.7893 40.3348 16.688C40.2015 16.5867 40.0228 16.4747 39.7988 16.352C39.5801 16.224 39.3081 16.1093 38.9828 16.008C38.6575 15.9067 38.2521 15.856 37.7668 15.856C37.1961 15.856 36.6735 15.9573 36.1988 16.16C35.7241 16.3573 35.3135 16.6453 34.9668 17.024C34.6255 17.3973 34.3588 17.8587 34.1668 18.408C33.9801 18.952 33.8868 19.568 33.8868 20.256C33.8868 20.9547 33.9855 21.576 34.1828 22.12C34.3801 22.664 34.6521 23.1253 34.9988 23.504C35.3455 23.8827 35.7535 24.1707 36.2228 24.368C36.6921 24.5653 37.1988 24.664 37.7428 24.664C38.0735 24.664 38.3695 24.6453 38.6308 24.608C38.8975 24.5653 39.1401 24.504 39.3588 24.424C39.5828 24.344 39.7935 24.2427 39.9908 24.12C40.1881 23.992 40.3828 23.84 40.5748 23.664C40.6175 23.6267 40.6628 23.5973 40.7108 23.576C40.7588 23.5493 40.8095 23.536 40.8628 23.536ZM44.9202 19.432C45.1815 18.8987 45.4962 18.48 45.8642 18.176C46.2322 17.872 46.6749 17.72 47.1922 17.72C47.3682 17.72 47.5335 17.7413 47.6882 17.784C47.8482 17.8213 47.9869 17.88 48.1042 17.96L48.0002 19.136C47.9629 19.28 47.8749 19.352 47.7362 19.352C47.6615 19.352 47.5495 19.3387 47.4002 19.312C47.2509 19.28 47.0909 19.264 46.9202 19.264C46.6695 19.264 46.4482 19.3013 46.2562 19.376C46.0642 19.4453 45.8909 19.552 45.7362 19.696C45.5869 19.8347 45.4535 20.008 45.3362 20.216C45.2189 20.4187 45.1095 20.6507 45.0082 20.912V26H43.4482V17.872H44.3442C44.5149 17.872 44.6295 17.904 44.6882 17.968C44.7522 18.0267 44.7975 18.1333 44.8242 18.288L44.9202 19.432ZM54.7147 21.032C54.7147 20.7227 54.6694 20.4373 54.5787 20.176C54.4934 19.9147 54.3654 19.688 54.1947 19.496C54.024 19.304 53.816 19.1547 53.5707 19.048C53.3254 18.9413 53.0427 18.888 52.7227 18.888C52.0667 18.888 51.5494 19.0773 51.1707 19.456C50.7974 19.8347 50.56 20.36 50.4587 21.032H54.7147ZM56.0027 24.84C55.8107 25.064 55.5894 25.2587 55.3387 25.424C55.088 25.584 54.8214 25.7147 54.5387 25.816C54.256 25.9173 53.9627 25.992 53.6587 26.04C53.36 26.088 53.064 26.112 52.7707 26.112C52.2107 26.112 51.6907 26.0187 51.2107 25.832C50.736 25.64 50.3227 25.3627 49.9707 25C49.624 24.632 49.352 24.1787 49.1547 23.64C48.9627 23.096 48.8667 22.472 48.8667 21.768C48.8667 21.2027 48.9547 20.6773 49.1307 20.192C49.3067 19.7013 49.5574 19.2747 49.8827 18.912C50.2134 18.5493 50.616 18.264 51.0907 18.056C51.5654 17.848 52.0987 17.744 52.6907 17.744C53.1867 17.744 53.6427 17.8267 54.0587 17.992C54.48 18.152 54.8427 18.3867 55.1467 18.696C55.4507 19.0053 55.688 19.3867 55.8587 19.84C56.0347 20.2933 56.1227 20.8107 56.1227 21.392C56.1227 21.632 56.096 21.7947 56.0427 21.88C55.9894 21.96 55.8907 22 55.7467 22H50.4187C50.4347 22.4853 50.504 22.9093 50.6267 23.272C50.7494 23.6293 50.9174 23.928 51.1307 24.168C51.3494 24.408 51.608 24.5867 51.9067 24.704C52.2054 24.8213 52.5387 24.88 52.9067 24.88C53.2534 24.88 53.552 24.84 53.8027 24.76C54.0587 24.68 54.2774 24.5947 54.4587 24.504C54.6454 24.408 54.8 24.32 54.9227 24.24C55.0507 24.16 55.1627 24.12 55.2587 24.12C55.3867 24.12 55.4854 24.168 55.5547 24.264L56.0027 24.84ZM62.4874 22.392C61.8528 22.4133 61.3141 22.464 60.8714 22.544C60.4288 22.6187 60.0688 22.72 59.7914 22.848C59.5141 22.976 59.3141 23.128 59.1914 23.304C59.0688 23.4747 59.0074 23.6667 59.0074 23.88C59.0074 24.0827 59.0394 24.2587 59.1034 24.408C59.1728 24.552 59.2634 24.672 59.3754 24.768C59.4928 24.8587 59.6288 24.9253 59.7834 24.968C59.9381 25.0107 60.1061 25.032 60.2874 25.032C60.5274 25.032 60.7461 25.008 60.9434 24.96C61.1461 24.912 61.3354 24.8453 61.5114 24.76C61.6874 24.6693 61.8554 24.56 62.0154 24.432C62.1754 24.304 62.3328 24.1573 62.4874 23.992V22.392ZM57.9114 19.008C58.3648 18.576 58.8554 18.2533 59.3834 18.04C59.9168 17.8267 60.5008 17.72 61.1354 17.72C61.5994 17.72 62.0101 17.7973 62.3674 17.952C62.7248 18.1013 63.0261 18.312 63.2714 18.584C63.5168 18.856 63.7008 19.1813 63.8234 19.56C63.9514 19.9387 64.0154 20.3573 64.0154 20.816V26H63.3194C63.1648 26 63.0474 25.976 62.9674 25.928C62.8874 25.8747 62.8234 25.7787 62.7754 25.64L62.6074 24.928C62.3994 25.12 62.1941 25.2907 61.9914 25.44C61.7888 25.584 61.5754 25.7093 61.3514 25.816C61.1328 25.9173 60.8981 25.9947 60.6474 26.048C60.3968 26.1013 60.1194 26.128 59.8154 26.128C59.4954 26.128 59.1941 26.0853 58.9114 26C58.6341 25.9093 58.3914 25.7733 58.1834 25.592C57.9754 25.4107 57.8101 25.184 57.6874 24.912C57.5701 24.64 57.5114 24.3227 57.5114 23.96C57.5114 23.64 57.5968 23.3333 57.7674 23.04C57.9434 22.7413 58.2261 22.4747 58.6154 22.24C59.0101 22.0053 59.5221 21.8133 60.1514 21.664C60.7861 21.5147 61.5648 21.4293 62.4874 21.408V20.816C62.4874 20.2027 62.3568 19.744 62.0954 19.44C61.8341 19.136 61.4501 18.984 60.9434 18.984C60.6021 18.984 60.3141 19.0267 60.0794 19.112C59.8501 19.1973 59.6501 19.2933 59.4794 19.4C59.3141 19.5013 59.1674 19.5947 59.0394 19.68C58.9168 19.7653 58.7888 19.808 58.6554 19.808C58.5488 19.808 58.4554 19.7787 58.3754 19.72C58.3008 19.6613 58.2394 19.592 58.1914 19.512L57.9114 19.008ZM68.8584 26.128C68.2024 26.128 67.6958 25.944 67.3384 25.576C66.9864 25.208 66.8104 24.6827 66.8104 24V19.136H65.8664C65.7758 19.136 65.6984 19.1093 65.6344 19.056C65.5758 18.9973 65.5464 18.912 65.5464 18.8V18.168L66.8664 17.984L67.2184 15.56C67.2398 15.4693 67.2798 15.4 67.3384 15.352C67.4024 15.2987 67.4824 15.272 67.5784 15.272H68.3704V18H70.6744V19.136H68.3704V23.896C68.3704 24.216 68.4478 24.456 68.6024 24.616C68.7624 24.7707 68.9651 24.848 69.2104 24.848C69.3544 24.848 69.4771 24.8293 69.5784 24.792C69.6851 24.7547 69.7758 24.7147 69.8504 24.672C69.9251 24.624 69.9891 24.5813 70.0424 24.544C70.0958 24.5067 70.1438 24.488 70.1864 24.488C70.2398 24.488 70.2798 24.5013 70.3064 24.528C70.3384 24.5493 70.3704 24.5867 70.4024 24.64L70.8664 25.392C70.6104 25.6267 70.3064 25.808 69.9544 25.936C69.6024 26.064 69.2371 26.128 68.8584 26.128ZM75.8484 17.744C76.4458 17.744 76.9844 17.8427 77.4644 18.04C77.9498 18.232 78.3604 18.512 78.6964 18.88C79.0378 19.2427 79.2991 19.6827 79.4804 20.2C79.6618 20.712 79.7524 21.288 79.7524 21.928C79.7524 22.568 79.6618 23.1467 79.4804 23.664C79.2991 24.1813 79.0378 24.6213 78.6964 24.984C78.3604 25.3467 77.9498 25.6267 77.4644 25.824C76.9844 26.016 76.4458 26.112 75.8484 26.112C75.2458 26.112 74.7018 26.016 74.2164 25.824C73.7364 25.6267 73.3258 25.3467 72.9844 24.984C72.6431 24.6213 72.3791 24.1813 72.1924 23.664C72.0111 23.1467 71.9204 22.568 71.9204 21.928C71.9204 21.288 72.0111 20.712 72.1924 20.2C72.3791 19.6827 72.6431 19.2427 72.9844 18.88C73.3258 18.512 73.7364 18.232 74.2164 18.04C74.7018 17.8427 75.2458 17.744 75.8484 17.744ZM75.8484 24.896C76.6164 24.896 77.1898 24.6373 77.5684 24.12C77.9471 23.6027 78.1364 22.8747 78.1364 21.936C78.1364 20.9973 77.9471 20.2693 77.5684 19.752C77.1898 19.2293 76.6164 18.968 75.8484 18.968C75.0698 18.968 74.4884 19.2293 74.1044 19.752C73.7258 20.2693 73.5364 20.9973 73.5364 21.936C73.5364 22.8747 73.7258 23.6027 74.1044 24.12C74.4884 24.6373 75.0698 24.896 75.8484 24.896ZM83.2858 19.432C83.5471 18.8987 83.8618 18.48 84.2298 18.176C84.5978 17.872 85.0405 17.72 85.5578 17.72C85.7338 17.72 85.8991 17.7413 86.0538 17.784C86.2138 17.8213 86.3525 17.88 86.4698 17.96L86.3658 19.136C86.3285 19.28 86.2405 19.352 86.1018 19.352C86.0271 19.352 85.9151 19.3387 85.7658 19.312C85.6165 19.28 85.4565 19.264 85.2858 19.264C85.0351 19.264 84.8138 19.3013 84.6218 19.376C84.4298 19.4453 84.2565 19.552 84.1018 19.696C83.9525 19.8347 83.8191 20.008 83.7018 20.216C83.5845 20.4187 83.4751 20.6507 83.3738 20.912V26H81.8138V17.872H82.7098C82.8805 17.872 82.9951 17.904 83.0538 17.968C83.1178 18.0267 83.1631 18.1333 83.1898 18.288L83.2858 19.432Z" fill="#3C3C6F"/>
<defs>
<filter id="filter0_b_450_5726" x="-30" y="-30" width="178" height="98" filterUnits="userSpaceOnUse" color-interpolation-filters="sRGB">
<feFlood flood-opacity="0" result="BackgroundImageFix"/>
<feGaussianBlur in="BackgroundImageFix" stdDeviation="15"/>
<feComposite in2="SourceAlpha" operator="in" result="effect1_backgroundBlur_450_5726"/>
<feBlend mode="normal" in="SourceGraphic" in2="effect1_backgroundBlur_450_5726" result="shape"/>
</filter>
<linearGradient id="paint0_linear_450_5726" x1="8.33105" y1="-6.09434" x2="53.9153" y2="-0.977396" gradientUnits="userSpaceOnUse">
<stop stop-color="white"/>
<stop offset="1" stop-color="white" stop-opacity="0"/>
</linearGradient>
</defs>
</svg>
