<svg width="323" height="86" viewBox="0 0 323 86" fill="none" xmlns="http://www.w3.org/2000/svg">
<g filter="url(#filter0_b_450_5412)">
<path d="M0 39C0 34.5817 3.58172 31 8 31H315C319.418 31 323 34.5817 323 39V78C323 82.4183 319.418 86 315 86H8C3.58173 86 0 82.4183 0 78V39Z" fill="white" fill-opacity="0.4"/>
<path d="M1 39C1 35.134 4.13401 32 8 32H315C318.866 32 322 35.134 322 39V78C322 81.866 318.866 85 315 85H8C4.13401 85 1 81.866 1 78V39Z" stroke="url(#paint0_linear_450_5412)" stroke-opacity="0.9" stroke-width="2"/>
</g>
<path d="M302.92 54.95L296.4 61.47C295.63 62.24 294.37 62.24 293.6 61.47L287.08 54.95" stroke="#8686A1" stroke-width="1.5" stroke-miterlimit="10" stroke-linecap="round" stroke-linejoin="round"/>
<path d="M28.36 55.384C28.3067 55.4747 28.2507 55.5413 28.192 55.584C28.1333 55.6267 28.0587 55.648 27.968 55.648C27.872 55.648 27.7627 55.6053 27.64 55.52C27.5173 55.4293 27.3627 55.3307 27.176 55.224C26.9947 55.112 26.776 55.0133 26.52 54.928C26.264 54.8373 25.9573 54.792 25.6 54.792C25.264 54.792 24.968 54.8373 24.712 54.928C24.4613 55.0133 24.2507 55.1333 24.08 55.288C23.9093 55.4373 23.7787 55.616 23.688 55.824C23.6027 56.0267 23.56 56.248 23.56 56.488C23.56 56.7973 23.6373 57.0533 23.792 57.256C23.952 57.4587 24.16 57.632 24.416 57.776C24.672 57.92 24.9627 58.0453 25.288 58.152C25.6133 58.2587 25.9467 58.3707 26.288 58.488C26.6293 58.6 26.9627 58.7307 27.288 58.88C27.6133 59.0293 27.904 59.2187 28.16 59.448C28.416 59.672 28.6213 59.9493 28.776 60.28C28.936 60.6053 29.016 61.0053 29.016 61.48C29.016 61.9867 28.928 62.4613 28.752 62.904C28.5813 63.3467 28.3307 63.7333 28 64.064C27.6693 64.3947 27.2613 64.656 26.776 64.848C26.296 65.0347 25.7493 65.128 25.136 65.128C24.768 65.128 24.4107 65.0907 24.064 65.016C23.7173 64.9467 23.3893 64.848 23.08 64.72C22.7707 64.5867 22.48 64.4293 22.208 64.248C21.9413 64.0613 21.7013 63.8533 21.488 63.624L21.976 62.808C22.024 62.744 22.08 62.6907 22.144 62.648C22.2133 62.6053 22.2907 62.584 22.376 62.584C22.488 62.584 22.616 62.6427 22.76 62.76C22.9093 62.8773 23.0907 63.008 23.304 63.152C23.5227 63.2907 23.7813 63.4187 24.08 63.536C24.384 63.6533 24.752 63.712 25.184 63.712C25.536 63.712 25.8507 63.6667 26.128 63.576C26.4053 63.48 26.6373 63.3467 26.824 63.176C27.016 63 27.1627 62.7893 27.264 62.544C27.3653 62.2987 27.416 62.0267 27.416 61.728C27.416 61.392 27.3387 61.1173 27.184 60.904C27.0293 60.6907 26.824 60.512 26.568 60.368C26.312 60.224 26.0213 60.1013 25.696 60C25.3707 59.8987 25.0373 59.7947 24.696 59.688C24.3547 59.576 24.0213 59.448 23.696 59.304C23.3707 59.16 23.08 58.9733 22.824 58.744C22.568 58.5093 22.3627 58.2187 22.208 57.872C22.0533 57.52 21.976 57.088 21.976 56.576C21.976 56.1653 22.056 55.768 22.216 55.384C22.376 55 22.608 54.6613 22.912 54.368C23.2213 54.0693 23.6 53.832 24.048 53.656C24.496 53.4747 25.008 53.384 25.584 53.384C26.2293 53.384 26.8213 53.488 27.36 53.696C27.904 53.8987 28.376 54.192 28.776 54.576L28.36 55.384ZM36.4563 60.032C36.4563 59.7227 36.4109 59.4373 36.3203 59.176C36.2349 58.9147 36.1069 58.688 35.9363 58.496C35.7656 58.304 35.5576 58.1547 35.3123 58.048C35.0669 57.9413 34.7843 57.888 34.4643 57.888C33.8082 57.888 33.2909 58.0773 32.9122 58.456C32.5389 58.8347 32.3016 59.36 32.2002 60.032H36.4563ZM37.7443 63.84C37.5523 64.064 37.3309 64.2587 37.0803 64.424C36.8296 64.584 36.5629 64.7147 36.2803 64.816C35.9976 64.9173 35.7042 64.992 35.4002 65.04C35.1016 65.088 34.8056 65.112 34.5122 65.112C33.9522 65.112 33.4322 65.0187 32.9522 64.832C32.4776 64.64 32.0642 64.3627 31.7122 64C31.3656 63.632 31.0936 63.1787 30.8962 62.64C30.7042 62.096 30.6082 61.472 30.6082 60.768C30.6082 60.2027 30.6962 59.6773 30.8722 59.192C31.0482 58.7013 31.2989 58.2747 31.6242 57.912C31.9549 57.5493 32.3576 57.264 32.8322 57.056C33.3069 56.848 33.8402 56.744 34.4323 56.744C34.9282 56.744 35.3843 56.8267 35.8003 56.992C36.2216 57.152 36.5842 57.3867 36.8882 57.696C37.1923 58.0053 37.4296 58.3867 37.6003 58.84C37.7763 59.2933 37.8643 59.8107 37.8643 60.392C37.8643 60.632 37.8376 60.7947 37.7843 60.88C37.7309 60.96 37.6322 61 37.4883 61H32.1602C32.1762 61.4853 32.2456 61.9093 32.3682 62.272C32.4909 62.6293 32.6589 62.928 32.8722 63.168C33.0909 63.408 33.3496 63.5867 33.6482 63.704C33.9469 63.8213 34.2803 63.88 34.6483 63.88C34.9949 63.88 35.2936 63.84 35.5443 63.76C35.8002 63.68 36.0189 63.5947 36.2003 63.504C36.3869 63.408 36.5416 63.32 36.6642 63.24C36.7922 63.16 36.9042 63.12 37.0002 63.12C37.1283 63.12 37.2269 63.168 37.2962 63.264L37.7443 63.84ZM41.461 53.192V65H39.893V53.192H41.461ZM49.3931 60.032C49.3931 59.7227 49.3478 59.4373 49.2571 59.176C49.1718 58.9147 49.0438 58.688 48.8731 58.496C48.7025 58.304 48.4945 58.1547 48.2491 58.048C48.0038 57.9413 47.7211 57.888 47.4011 57.888C46.7451 57.888 46.2278 58.0773 45.8491 58.456C45.4758 58.8347 45.2385 59.36 45.1371 60.032H49.3931ZM50.6811 63.84C50.4891 64.064 50.2678 64.2587 50.0171 64.424C49.7665 64.584 49.4998 64.7147 49.2171 64.816C48.9345 64.9173 48.6411 64.992 48.3371 65.04C48.0385 65.088 47.7425 65.112 47.4491 65.112C46.8891 65.112 46.3691 65.0187 45.8891 64.832C45.4145 64.64 45.0011 64.3627 44.6491 64C44.3025 63.632 44.0305 63.1787 43.8331 62.64C43.6411 62.096 43.5451 61.472 43.5451 60.768C43.5451 60.2027 43.6331 59.6773 43.8091 59.192C43.9851 58.7013 44.2358 58.2747 44.5611 57.912C44.8918 57.5493 45.2945 57.264 45.7691 57.056C46.2438 56.848 46.7771 56.744 47.3691 56.744C47.8651 56.744 48.3211 56.8267 48.7371 56.992C49.1585 57.152 49.5211 57.3867 49.8251 57.696C50.1291 58.0053 50.3665 58.3867 50.5371 58.84C50.7131 59.2933 50.8011 59.8107 50.8011 60.392C50.8011 60.632 50.7745 60.7947 50.7211 60.88C50.6678 60.96 50.5691 61 50.4251 61H45.0971C45.1131 61.4853 45.1825 61.9093 45.3051 62.272C45.4278 62.6293 45.5958 62.928 45.8091 63.168C46.0278 63.408 46.2865 63.5867 46.5851 63.704C46.8838 63.8213 47.2171 63.88 47.5851 63.88C47.9318 63.88 48.2305 63.84 48.4811 63.76C48.7371 63.68 48.9558 63.5947 49.1371 63.504C49.3238 63.408 49.4785 63.32 49.6011 63.24C49.7291 63.16 49.8411 63.12 49.9371 63.12C50.0651 63.12 50.1638 63.168 50.2331 63.264L50.6811 63.84ZM58.4939 58.392C58.4459 58.4507 58.3979 58.4987 58.3499 58.536C58.3072 58.568 58.2432 58.584 58.1579 58.584C58.0725 58.584 57.9819 58.552 57.8859 58.488C57.7952 58.4187 57.6779 58.3467 57.5339 58.272C57.3952 58.192 57.2245 58.12 57.0219 58.056C56.8245 57.9867 56.5792 57.952 56.2859 57.952C55.9019 57.952 55.5632 58.0213 55.2699 58.16C54.9765 58.2987 54.7312 58.496 54.5339 58.752C54.3419 59.008 54.1952 59.32 54.0939 59.688C53.9925 60.056 53.9419 60.4693 53.9419 60.928C53.9419 61.4027 53.9952 61.8267 54.1019 62.2C54.2085 62.568 54.3605 62.88 54.5579 63.136C54.7552 63.3867 54.9952 63.5787 55.2779 63.712C55.5605 63.84 55.8752 63.904 56.2219 63.904C56.5579 63.904 56.8352 63.864 57.0539 63.784C57.2725 63.6987 57.4539 63.608 57.5979 63.512C57.7419 63.416 57.8619 63.328 57.9579 63.248C58.0539 63.1627 58.1525 63.12 58.2539 63.12C58.3819 63.12 58.4805 63.168 58.5499 63.264L58.9979 63.84C58.8112 64.0693 58.6005 64.264 58.3659 64.424C58.1365 64.584 57.8912 64.7147 57.6299 64.816C57.3685 64.9173 57.0939 64.992 56.8059 65.04C56.5232 65.088 56.2352 65.112 55.9419 65.112C55.4352 65.112 54.9605 65.0187 54.5179 64.832C54.0805 64.6453 53.6992 64.3733 53.3739 64.016C53.0539 63.6587 52.8005 63.2213 52.6139 62.704C52.4272 62.1813 52.3339 61.5893 52.3339 60.928C52.3339 60.3253 52.4165 59.768 52.5819 59.256C52.7525 58.744 53.0005 58.304 53.3259 57.936C53.6565 57.5627 54.0619 57.272 54.5419 57.064C55.0219 56.8507 55.5712 56.744 56.1899 56.744C56.7712 56.744 57.2832 56.8373 57.7259 57.024C58.1685 57.2107 58.5632 57.4747 58.9099 57.816L58.4939 58.392ZM63.3181 65.128C62.6621 65.128 62.1555 64.944 61.7981 64.576C61.4461 64.208 61.2701 63.6827 61.2701 63V58.136H60.3261C60.2355 58.136 60.1581 58.1093 60.0941 58.056C60.0355 57.9973 60.0061 57.912 60.0061 57.8V57.168L61.3261 56.984L61.6781 54.56C61.6995 54.4693 61.7395 54.4 61.7981 54.352C61.8621 54.2987 61.9421 54.272 62.0381 54.272H62.8301V57H65.1341V58.136H62.8301V62.896C62.8301 63.216 62.9075 63.456 63.0621 63.616C63.2221 63.7707 63.4248 63.848 63.6701 63.848C63.8141 63.848 63.9368 63.8293 64.0381 63.792C64.1448 63.7547 64.2355 63.7147 64.3101 63.672C64.3848 63.624 64.4488 63.5813 64.5021 63.544C64.5555 63.5067 64.6035 63.488 64.6461 63.488C64.6995 63.488 64.7395 63.5013 64.7661 63.528C64.7981 63.5493 64.8301 63.5867 64.8621 63.64L65.3261 64.392C65.0701 64.6267 64.7661 64.808 64.4141 64.936C64.0621 65.064 63.6968 65.128 63.3181 65.128Z" fill="#3C3C6F"/>
<path d="M4.848 10.48C5.29067 10.48 5.68 10.4213 6.016 10.304C6.35733 10.1867 6.64267 10.024 6.872 9.816C7.10667 9.60267 7.28267 9.34933 7.4 9.056C7.51733 8.76267 7.576 8.44 7.576 8.088C7.576 7.35733 7.34933 6.78667 6.896 6.376C6.448 5.96533 5.76533 5.76 4.848 5.76H3.008V10.48H4.848ZM4.848 4.536C5.57333 4.536 6.20267 4.62133 6.736 4.792C7.27467 4.95733 7.72 5.19467 8.072 5.504C8.424 5.81333 8.68533 6.18667 8.856 6.624C9.032 7.06133 9.12 7.54933 9.12 8.088C9.12 8.62133 9.02667 9.10933 8.84 9.552C8.65333 9.99467 8.37867 10.376 8.016 10.696C7.65867 11.016 7.21333 11.2667 6.68 11.448C6.152 11.624 5.54133 11.712 4.848 11.712H3.008V16H1.464V4.536H4.848ZM12.4825 4.216V16H11.0585V4.216H12.4825ZM19.5038 12.352C18.8478 12.3733 18.2878 12.4267 17.8238 12.512C17.3651 12.592 16.9891 12.6987 16.6958 12.832C16.4078 12.9653 16.1971 13.1227 16.0638 13.304C15.9358 13.4853 15.8718 13.688 15.8718 13.912C15.8718 14.1253 15.9064 14.3093 15.9758 14.464C16.0451 14.6187 16.1384 14.7467 16.2558 14.848C16.3784 14.944 16.5198 15.016 16.6798 15.064C16.8451 15.1067 17.0211 15.128 17.2078 15.128C17.4584 15.128 17.6878 15.104 17.8958 15.056C18.1038 15.0027 18.2984 14.928 18.4798 14.832C18.6664 14.736 18.8424 14.6213 19.0078 14.488C19.1784 14.3547 19.3438 14.2027 19.5038 14.032V12.352ZM14.9038 9.04C15.3518 8.608 15.8344 8.28533 16.3518 8.072C16.8691 7.85867 17.4424 7.752 18.0718 7.752C18.5251 7.752 18.9278 7.82667 19.2798 7.976C19.6318 8.12533 19.9278 8.33333 20.1678 8.6C20.4078 8.86667 20.5891 9.18933 20.7118 9.568C20.8344 9.94667 20.8958 10.3627 20.8958 10.816V16H20.2638C20.1251 16 20.0184 15.9787 19.9438 15.936C19.8691 15.888 19.8104 15.7973 19.7678 15.664L19.6078 14.896C19.3944 15.0933 19.1864 15.2693 18.9838 15.424C18.7811 15.5733 18.5678 15.7013 18.3438 15.808C18.1198 15.9093 17.8798 15.9867 17.6238 16.04C17.3731 16.0987 17.0931 16.128 16.7838 16.128C16.4691 16.128 16.1731 16.0853 15.8958 16C15.6184 15.9093 15.3758 15.776 15.1678 15.6C14.9651 15.424 14.8024 15.2027 14.6798 14.936C14.5624 14.664 14.5038 14.344 14.5038 13.976C14.5038 13.656 14.5918 13.3493 14.7678 13.056C14.9438 12.7573 15.2291 12.4933 15.6238 12.264C16.0184 12.0347 16.5331 11.848 17.1678 11.704C17.8024 11.5547 18.5811 11.4693 19.5038 11.448V10.816C19.5038 10.1867 19.3678 9.712 19.0958 9.392C18.8238 9.06667 18.4264 8.904 17.9038 8.904C17.5518 8.904 17.2558 8.94933 17.0158 9.04C16.7811 9.12533 16.5758 9.224 16.3998 9.336C16.2291 9.44267 16.0798 9.54133 15.9518 9.632C15.8291 9.71733 15.7064 9.76 15.5838 9.76C15.4878 9.76 15.4051 9.736 15.3358 9.688C15.2664 9.63467 15.2078 9.57067 15.1598 9.496L14.9038 9.04ZM29.1875 16V9.088H25.1955V13.952C25.1955 14.2933 25.2782 14.5467 25.4435 14.712C25.6088 14.8773 25.8222 14.96 26.0835 14.96C26.2328 14.96 26.3608 14.9413 26.4675 14.904C26.5795 14.8613 26.6755 14.816 26.7555 14.768C26.8355 14.72 26.9022 14.6773 26.9555 14.64C27.0142 14.5973 27.0648 14.576 27.1075 14.576C27.1822 14.576 27.2488 14.6213 27.3075 14.712L27.7235 15.392C27.4782 15.6213 27.1822 15.8027 26.8355 15.936C26.4888 16.064 26.1315 16.128 25.7635 16.128C25.1235 16.128 24.6302 15.9493 24.2835 15.592C23.9422 15.2347 23.7715 14.72 23.7715 14.048V9.088H22.7955C22.7102 9.088 22.6382 9.064 22.5795 9.016C22.5208 8.96267 22.4915 8.88267 22.4915 8.776V8.208L23.8195 8.04L24.1475 5.536C24.1635 5.456 24.1982 5.392 24.2515 5.344C24.3102 5.29067 24.3848 5.264 24.4755 5.264H25.1955V8.056H29.1875V7.272C29.1875 6.808 29.2515 6.39733 29.3795 6.04C29.5128 5.67733 29.6995 5.37333 29.9395 5.128C30.1795 4.87733 30.4702 4.688 30.8115 4.56C31.1582 4.432 31.5448 4.368 31.9715 4.368C32.3288 4.368 32.6622 4.42133 32.9715 4.528L32.9395 5.24C32.9288 5.368 32.8568 5.43733 32.7235 5.448C32.5955 5.45867 32.4222 5.464 32.2035 5.464C31.9582 5.464 31.7342 5.496 31.5315 5.56C31.3342 5.624 31.1635 5.728 31.0195 5.872C30.8755 6.016 30.7635 6.20533 30.6835 6.44C30.6088 6.67467 30.5715 6.96533 30.5715 7.312V8.056H32.9075V9.088H30.6195V16H29.1875ZM37.7459 7.768C38.3379 7.768 38.8712 7.86667 39.3459 8.064C39.8205 8.26133 40.2259 8.54133 40.5619 8.904C40.8979 9.26667 41.1539 9.70667 41.3299 10.224C41.5112 10.736 41.6019 11.3093 41.6019 11.944C41.6019 12.584 41.5112 13.16 41.3299 13.672C41.1539 14.184 40.8979 14.6213 40.5619 14.984C40.2259 15.3467 39.8205 15.6267 39.3459 15.824C38.8712 16.016 38.3379 16.112 37.7459 16.112C37.1485 16.112 36.6099 16.016 36.1299 15.824C35.6552 15.6267 35.2499 15.3467 34.9139 14.984C34.5779 14.6213 34.3192 14.184 34.1379 13.672C33.9619 13.16 33.8739 12.584 33.8739 11.944C33.8739 11.3093 33.9619 10.736 34.1379 10.224C34.3192 9.70667 34.5779 9.26667 34.9139 8.904C35.2499 8.54133 35.6552 8.26133 36.1299 8.064C36.6099 7.86667 37.1485 7.768 37.7459 7.768ZM37.7459 15C38.5459 15 39.1432 14.7333 39.5379 14.2C39.9325 13.6613 40.1299 12.912 40.1299 11.952C40.1299 10.9867 39.9325 10.2347 39.5379 9.696C39.1432 9.15733 38.5459 8.888 37.7459 8.888C37.3405 8.888 36.9859 8.95733 36.6819 9.096C36.3832 9.23467 36.1325 9.43467 35.9299 9.696C35.7325 9.95733 35.5832 10.28 35.4819 10.664C35.3859 11.0427 35.3379 11.472 35.3379 11.952C35.3379 12.912 35.5352 13.6613 35.9299 14.2C36.3299 14.7333 36.9352 15 37.7459 15ZM45.08 9.52C45.336 8.96533 45.6507 8.53333 46.024 8.224C46.3973 7.90933 46.8533 7.752 47.392 7.752C47.5627 7.752 47.7253 7.77067 47.88 7.808C48.04 7.84533 48.1813 7.904 48.304 7.984L48.2 9.048C48.168 9.18133 48.088 9.248 47.96 9.248C47.8853 9.248 47.776 9.232 47.632 9.2C47.488 9.168 47.3253 9.152 47.144 9.152C46.888 9.152 46.6587 9.18933 46.456 9.264C46.2587 9.33867 46.08 9.45067 45.92 9.6C45.7653 9.744 45.624 9.92533 45.496 10.144C45.3733 10.3573 45.2613 10.6027 45.16 10.88V16H43.728V7.896H44.544C44.6987 7.896 44.8053 7.92533 44.864 7.984C44.9227 8.04267 44.9627 8.144 44.984 8.288L45.08 9.52ZM49.8761 16V7.896H50.7321C50.9348 7.896 51.0601 7.99467 51.1081 8.192L51.2121 9.024C51.5108 8.656 51.8468 8.35467 52.2201 8.12C52.5935 7.88533 53.0255 7.768 53.5161 7.768C54.0601 7.768 54.5001 7.92 54.8361 8.224C55.1775 8.528 55.4228 8.93867 55.5721 9.456C55.6895 9.16267 55.8388 8.90933 56.0201 8.696C56.2068 8.48267 56.4148 8.30667 56.6441 8.168C56.8735 8.02933 57.1161 7.928 57.3721 7.864C57.6335 7.8 57.8975 7.768 58.1641 7.768C58.5908 7.768 58.9695 7.83733 59.3001 7.976C59.6361 8.10933 59.9188 8.30667 60.1481 8.568C60.3828 8.82933 60.5615 9.152 60.6841 9.536C60.8068 9.91467 60.8681 10.3493 60.8681 10.84V16H59.4361V10.84C59.4361 10.2053 59.2975 9.72533 59.0201 9.4C58.7428 9.06933 58.3428 8.904 57.8201 8.904C57.5855 8.904 57.3615 8.94667 57.1481 9.032C56.9401 9.112 56.7561 9.232 56.5961 9.392C56.4361 9.552 56.3081 9.75467 56.2121 10C56.1215 10.24 56.0761 10.52 56.0761 10.84V16H54.6441V10.84C54.6441 10.1893 54.5135 9.704 54.2521 9.384C53.9908 9.064 53.6095 8.904 53.1081 8.904C52.7561 8.904 52.4308 9 52.1321 9.192C51.8335 9.37867 51.5588 9.63467 51.3081 9.96V16H49.8761ZM68.0724 9.232C68.0084 9.34933 67.9097 9.408 67.7764 9.408C67.6964 9.408 67.6057 9.37867 67.5044 9.32C67.403 9.26133 67.2777 9.19733 67.1284 9.128C66.9844 9.05333 66.811 8.98667 66.6084 8.928C66.4057 8.864 66.1657 8.832 65.8884 8.832C65.6484 8.832 65.4324 8.864 65.2404 8.928C65.0484 8.98667 64.883 9.06933 64.7444 9.176C64.611 9.28267 64.507 9.408 64.4324 9.552C64.363 9.69067 64.3284 9.84267 64.3284 10.008C64.3284 10.216 64.387 10.3893 64.5044 10.528C64.627 10.6667 64.787 10.7867 64.9844 10.888C65.1817 10.9893 65.4057 11.08 65.6564 11.16C65.907 11.2347 66.163 11.3173 66.4244 11.408C66.691 11.4933 66.9497 11.5893 67.2004 11.696C67.451 11.8027 67.675 11.936 67.8724 12.096C68.0697 12.256 68.227 12.4533 68.3444 12.688C68.467 12.9173 68.5284 13.1947 68.5284 13.52C68.5284 13.8933 68.4617 14.24 68.3284 14.56C68.195 14.8747 67.9977 15.1493 67.7364 15.384C67.475 15.6133 67.155 15.7947 66.7764 15.928C66.3977 16.0613 65.9604 16.128 65.4644 16.128C64.899 16.128 64.387 16.0373 63.9284 15.856C63.4697 15.6693 63.0804 15.432 62.7604 15.144L63.0964 14.6C63.139 14.5307 63.1897 14.4773 63.2484 14.44C63.307 14.4027 63.3817 14.384 63.4724 14.384C63.5684 14.384 63.6697 14.4213 63.7764 14.496C63.883 14.5707 64.011 14.6533 64.1604 14.744C64.315 14.8347 64.5017 14.9173 64.7204 14.992C64.939 15.0667 65.211 15.104 65.5364 15.104C65.8137 15.104 66.0564 15.0693 66.2644 15C66.4724 14.9253 66.6457 14.8267 66.7844 14.704C66.923 14.5813 67.0244 14.44 67.0884 14.28C67.1577 14.12 67.1924 13.9493 67.1924 13.768C67.1924 13.544 67.131 13.36 67.0084 13.216C66.891 13.0667 66.7337 12.9413 66.5364 12.84C66.339 12.7333 66.1124 12.6427 65.8564 12.568C65.6057 12.488 65.347 12.4053 65.0804 12.32C64.819 12.2347 64.5604 12.1387 64.3044 12.032C64.0537 11.92 63.8297 11.7813 63.6324 11.616C63.435 11.4507 63.275 11.248 63.1524 11.008C63.035 10.7627 62.9764 10.4667 62.9764 10.12C62.9764 9.81067 63.0404 9.51467 63.1684 9.232C63.2964 8.944 63.483 8.69333 63.7284 8.48C63.9737 8.26133 64.275 8.088 64.6324 7.96C64.9897 7.832 65.3977 7.768 65.8564 7.768C66.3897 7.768 66.867 7.85333 67.2884 8.024C67.715 8.18933 68.083 8.41867 68.3924 8.712L68.0724 9.232Z" fill="#8686A1"/>
<defs>
<filter id="filter0_b_450_5412" x="-30" y="1" width="383" height="115" filterUnits="userSpaceOnUse" color-interpolation-filters="sRGB">
<feFlood flood-opacity="0" result="BackgroundImageFix"/>
<feGaussianBlur in="BackgroundImageFix" stdDeviation="15"/>
<feComposite in2="SourceAlpha" operator="in" result="effect1_backgroundBlur_450_5412"/>
<feBlend mode="normal" in="SourceGraphic" in2="effect1_backgroundBlur_450_5412" result="shape"/>
</filter>
<linearGradient id="paint0_linear_450_5412" x1="22.8045" y1="22.1792" x2="143.705" y2="47.8457" gradientUnits="userSpaceOnUse">
<stop stop-color="white"/>
<stop offset="1" stop-color="white" stop-opacity="0"/>
</linearGradient>
</defs>
</svg>
