<svg width="146" height="38" viewBox="0 0 146 38" fill="none" xmlns="http://www.w3.org/2000/svg">
<g filter="url(#filter0_b_450_5725)">
<path d="M0 19C0 8.50659 8.50659 0 19 0H127C137.493 0 146 8.50659 146 19C146 29.4934 137.493 38 127 38H19C8.50659 38 0 29.4934 0 19Z" fill="white" fill-opacity="0.6"/>
<path d="M1 19C1 9.05887 9.05887 1 19 1H127C136.941 1 145 9.05888 145 19C145 28.9411 136.941 37 127 37H19C9.05887 37 1 28.9411 1 19Z" stroke="url(#paint0_linear_450_5725)" stroke-opacity="0.9" stroke-width="2"/>
</g>
<path d="M40.6908 15.936H37.0428V26H35.3468V15.936H31.6828V14.512H40.6908V15.936ZM45.7897 21.032C45.7897 20.7227 45.7444 20.4373 45.6537 20.176C45.5684 19.9147 45.4404 19.688 45.2697 19.496C45.099 19.304 44.891 19.1547 44.6457 19.048C44.4004 18.9413 44.1177 18.888 43.7977 18.888C43.1417 18.888 42.6244 19.0773 42.2457 19.456C41.8724 19.8347 41.635 20.36 41.5337 21.032H45.7897ZM47.0777 24.84C46.8857 25.064 46.6644 25.2587 46.4137 25.424C46.163 25.584 45.8964 25.7147 45.6137 25.816C45.331 25.9173 45.0377 25.992 44.7337 26.04C44.435 26.088 44.139 26.112 43.8457 26.112C43.2857 26.112 42.7657 26.0187 42.2857 25.832C41.811 25.64 41.3977 25.3627 41.0457 25C40.699 24.632 40.427 24.1787 40.2297 23.64C40.0377 23.096 39.9417 22.472 39.9417 21.768C39.9417 21.2027 40.0297 20.6773 40.2057 20.192C40.3817 19.7013 40.6324 19.2747 40.9577 18.912C41.2884 18.5493 41.691 18.264 42.1657 18.056C42.6404 17.848 43.1737 17.744 43.7657 17.744C44.2617 17.744 44.7177 17.8267 45.1337 17.992C45.555 18.152 45.9177 18.3867 46.2217 18.696C46.5257 19.0053 46.763 19.3867 46.9337 19.84C47.1097 20.2933 47.1977 20.8107 47.1977 21.392C47.1977 21.632 47.171 21.7947 47.1177 21.88C47.0644 21.96 46.9657 22 46.8217 22H41.4937C41.5097 22.4853 41.579 22.9093 41.7017 23.272C41.8244 23.6293 41.9924 23.928 42.2057 24.168C42.4244 24.408 42.683 24.5867 42.9817 24.704C43.2804 24.8213 43.6137 24.88 43.9817 24.88C44.3284 24.88 44.627 24.84 44.8777 24.76C45.1337 24.68 45.3524 24.5947 45.5337 24.504C45.7204 24.408 45.875 24.32 45.9977 24.24C46.1257 24.16 46.2377 24.12 46.3337 24.12C46.4617 24.12 46.5604 24.168 46.6297 24.264L47.0777 24.84ZM54.8904 19.392C54.8424 19.4507 54.7944 19.4987 54.7464 19.536C54.7038 19.568 54.6398 19.584 54.5544 19.584C54.4691 19.584 54.3784 19.552 54.2824 19.488C54.1918 19.4187 54.0744 19.3467 53.9304 19.272C53.7918 19.192 53.6211 19.12 53.4184 19.056C53.2211 18.9867 52.9758 18.952 52.6824 18.952C52.2984 18.952 51.9598 19.0213 51.6664 19.16C51.3731 19.2987 51.1278 19.496 50.9304 19.752C50.7384 20.008 50.5918 20.32 50.4904 20.688C50.3891 21.056 50.3384 21.4693 50.3384 21.928C50.3384 22.4027 50.3918 22.8267 50.4984 23.2C50.6051 23.568 50.7571 23.88 50.9544 24.136C51.1518 24.3867 51.3918 24.5787 51.6744 24.712C51.9571 24.84 52.2718 24.904 52.6184 24.904C52.9544 24.904 53.2318 24.864 53.4504 24.784C53.6691 24.6987 53.8504 24.608 53.9944 24.512C54.1384 24.416 54.2584 24.328 54.3544 24.248C54.4504 24.1627 54.5491 24.12 54.6504 24.12C54.7784 24.12 54.8771 24.168 54.9464 24.264L55.3944 24.84C55.2078 25.0693 54.9971 25.264 54.7624 25.424C54.5331 25.584 54.2878 25.7147 54.0264 25.816C53.7651 25.9173 53.4904 25.992 53.2024 26.04C52.9198 26.088 52.6318 26.112 52.3384 26.112C51.8318 26.112 51.3571 26.0187 50.9144 25.832C50.4771 25.6453 50.0958 25.3733 49.7704 25.016C49.4504 24.6587 49.1971 24.2213 49.0104 23.704C48.8238 23.1813 48.7304 22.5893 48.7304 21.928C48.7304 21.3253 48.8131 20.768 48.9784 20.256C49.1491 19.744 49.3971 19.304 49.7224 18.936C50.0531 18.5627 50.4584 18.272 50.9384 18.064C51.4184 17.8507 51.9678 17.744 52.5864 17.744C53.1678 17.744 53.6798 17.8373 54.1224 18.024C54.5651 18.2107 54.9598 18.4747 55.3064 18.816L54.8904 19.392ZM58.7307 18.904C59.072 18.5573 59.448 18.2773 59.8587 18.064C60.2747 17.8507 60.752 17.744 61.2907 17.744C61.7387 17.744 62.1307 17.8187 62.4667 17.968C62.808 18.1173 63.0934 18.328 63.3227 18.6C63.552 18.8667 63.7254 19.1893 63.8427 19.568C63.96 19.9467 64.0187 20.3653 64.0187 20.824V26H62.4507V20.824C62.4507 20.2427 62.3174 19.792 62.0507 19.472C61.784 19.1467 61.376 18.984 60.8267 18.984C60.4267 18.984 60.0507 19.08 59.6987 19.272C59.352 19.4587 59.0294 19.7147 58.7307 20.04V26H57.1707V14.192H58.7307V18.904ZM67.9078 19C68.0838 18.8133 68.2678 18.6427 68.4598 18.488C68.6518 18.3333 68.8545 18.2027 69.0678 18.096C69.2865 17.984 69.5185 17.8987 69.7638 17.84C70.0145 17.776 70.2811 17.744 70.5638 17.744C71.0118 17.744 71.4038 17.8187 71.7398 17.968C72.0811 18.1173 72.3665 18.328 72.5958 18.6C72.8251 18.8667 72.9985 19.1893 73.1158 19.568C73.2331 19.9467 73.2918 20.3653 73.2918 20.824V26H71.7238V20.824C71.7238 20.2427 71.5905 19.792 71.3238 19.472C71.0571 19.1467 70.6491 18.984 70.0998 18.984C69.6998 18.984 69.3238 19.08 68.9718 19.272C68.6251 19.4587 68.3025 19.7147 68.0038 20.04V26H66.4438V17.872H67.3798C67.5985 17.872 67.7345 17.976 67.7878 18.184L67.9078 19ZM79.1809 17.744C79.7783 17.744 80.3169 17.8427 80.7969 18.04C81.2823 18.232 81.6929 18.512 82.0289 18.88C82.3703 19.2427 82.6316 19.6827 82.8129 20.2C82.9943 20.712 83.0849 21.288 83.0849 21.928C83.0849 22.568 82.9943 23.1467 82.8129 23.664C82.6316 24.1813 82.3703 24.6213 82.0289 24.984C81.6929 25.3467 81.2823 25.6267 80.7969 25.824C80.3169 26.016 79.7783 26.112 79.1809 26.112C78.5783 26.112 78.0343 26.016 77.5489 25.824C77.0689 25.6267 76.6583 25.3467 76.3169 24.984C75.9756 24.6213 75.7116 24.1813 75.5249 23.664C75.3436 23.1467 75.2529 22.568 75.2529 21.928C75.2529 21.288 75.3436 20.712 75.5249 20.2C75.7116 19.6827 75.9756 19.2427 76.3169 18.88C76.6583 18.512 77.0689 18.232 77.5489 18.04C78.0343 17.8427 78.5783 17.744 79.1809 17.744ZM79.1809 24.896C79.9489 24.896 80.5223 24.6373 80.9009 24.12C81.2796 23.6027 81.4689 22.8747 81.4689 21.936C81.4689 20.9973 81.2796 20.2693 80.9009 19.752C80.5223 19.2293 79.9489 18.968 79.1809 18.968C78.4023 18.968 77.8209 19.2293 77.4369 19.752C77.0583 20.2693 76.8689 20.9973 76.8689 21.936C76.8689 22.8747 77.0583 23.6027 77.4369 24.12C77.8209 24.6373 78.4023 24.896 79.1809 24.896ZM86.7463 14.192V26H85.1783V14.192H86.7463ZM92.7584 17.744C93.3558 17.744 93.8944 17.8427 94.3744 18.04C94.8598 18.232 95.2704 18.512 95.6064 18.88C95.9478 19.2427 96.2091 19.6827 96.3904 20.2C96.5718 20.712 96.6624 21.288 96.6624 21.928C96.6624 22.568 96.5718 23.1467 96.3904 23.664C96.2091 24.1813 95.9478 24.6213 95.6064 24.984C95.2704 25.3467 94.8598 25.6267 94.3744 25.824C93.8944 26.016 93.3558 26.112 92.7584 26.112C92.1558 26.112 91.6118 26.016 91.1264 25.824C90.6464 25.6267 90.2358 25.3467 89.8944 24.984C89.5531 24.6213 89.2891 24.1813 89.1024 23.664C88.9211 23.1467 88.8304 22.568 88.8304 21.928C88.8304 21.288 88.9211 20.712 89.1024 20.2C89.2891 19.6827 89.5531 19.2427 89.8944 18.88C90.2358 18.512 90.6464 18.232 91.1264 18.04C91.6118 17.8427 92.1558 17.744 92.7584 17.744ZM92.7584 24.896C93.5264 24.896 94.0998 24.6373 94.4784 24.12C94.8571 23.6027 95.0464 22.8747 95.0464 21.936C95.0464 20.9973 94.8571 20.2693 94.4784 19.752C94.0998 19.2293 93.5264 18.968 92.7584 18.968C91.9798 18.968 91.3984 19.2293 91.0144 19.752C90.6358 20.2693 90.4464 20.9973 90.4464 21.936C90.4464 22.8747 90.6358 23.6027 91.0144 24.12C91.3984 24.6373 91.9798 24.896 92.7584 24.896ZM101.533 21.944C101.81 21.944 102.053 21.9067 102.261 21.832C102.474 21.7573 102.65 21.6533 102.789 21.52C102.933 21.3813 103.04 21.216 103.109 21.024C103.184 20.832 103.221 20.6213 103.221 20.392C103.221 19.9227 103.077 19.5493 102.789 19.272C102.506 18.9893 102.088 18.848 101.533 18.848C100.984 18.848 100.565 18.9893 100.277 19.272C99.9943 19.5493 99.8529 19.9227 99.8529 20.392C99.8529 20.6213 99.8876 20.832 99.9569 21.024C100.032 21.2107 100.138 21.3733 100.277 21.512C100.421 21.6453 100.597 21.752 100.805 21.832C101.018 21.9067 101.261 21.944 101.533 21.944ZM104.021 26.424C104.021 26.232 103.968 26.08 103.861 25.968C103.754 25.8507 103.608 25.76 103.421 25.696C103.24 25.6267 103.026 25.5787 102.781 25.552C102.536 25.52 102.277 25.496 102.005 25.48C101.738 25.464 101.464 25.4507 101.181 25.44C100.898 25.424 100.626 25.3973 100.365 25.36C100.088 25.4987 99.8583 25.6667 99.6769 25.864C99.5009 26.0613 99.4129 26.2933 99.4129 26.56C99.4129 26.7307 99.4556 26.8907 99.5409 27.04C99.6316 27.1893 99.7676 27.3173 99.9489 27.424C100.136 27.536 100.368 27.6213 100.645 27.68C100.928 27.744 101.264 27.776 101.653 27.776C102.037 27.776 102.376 27.7413 102.669 27.672C102.962 27.608 103.208 27.5147 103.405 27.392C103.608 27.2747 103.76 27.1333 103.861 26.968C103.968 26.8027 104.021 26.6213 104.021 26.424ZM105.605 18.176V18.76C105.605 18.952 105.485 19.072 105.245 19.12L104.373 19.248C104.448 19.4133 104.506 19.5893 104.549 19.776C104.592 19.9573 104.613 20.1493 104.613 20.352C104.613 20.752 104.536 21.1147 104.381 21.44C104.226 21.76 104.013 22.0347 103.741 22.264C103.469 22.4933 103.144 22.6693 102.765 22.792C102.392 22.9147 101.981 22.976 101.533 22.976C101.165 22.976 100.821 22.936 100.501 22.856C100.341 22.952 100.218 23.0587 100.133 23.176C100.053 23.288 100.013 23.4 100.013 23.512C100.013 23.6987 100.09 23.8373 100.245 23.928C100.405 24.0187 100.61 24.0853 100.861 24.128C101.117 24.1653 101.408 24.1893 101.733 24.2C102.064 24.2107 102.397 24.2293 102.733 24.256C103.074 24.2773 103.408 24.32 103.733 24.384C104.064 24.4427 104.354 24.5413 104.605 24.68C104.861 24.8133 105.066 25 105.221 25.24C105.381 25.4747 105.461 25.7813 105.461 26.16C105.461 26.512 105.373 26.8533 105.197 27.184C105.026 27.5147 104.776 27.808 104.445 28.064C104.114 28.32 103.712 28.5253 103.237 28.68C102.762 28.8347 102.224 28.912 101.621 28.912C101.018 28.912 100.493 28.8533 100.045 28.736C99.6023 28.6187 99.2316 28.4613 98.9329 28.264C98.6396 28.0667 98.4183 27.8373 98.2689 27.576C98.1249 27.3147 98.0529 27.0427 98.0529 26.76C98.0529 26.3653 98.1756 26.032 98.4209 25.76C98.6663 25.4827 99.0049 25.2667 99.4369 25.112C99.2023 25.0053 99.0156 24.8613 98.8769 24.68C98.7383 24.4933 98.6689 24.248 98.6689 23.944C98.6689 23.8267 98.6903 23.7067 98.7329 23.584C98.7756 23.456 98.8396 23.3307 98.9249 23.208C99.0156 23.08 99.1249 22.96 99.2529 22.848C99.3863 22.736 99.5383 22.6347 99.7089 22.544C99.3089 22.32 98.9943 22.024 98.7649 21.656C98.5356 21.2827 98.4209 20.848 98.4209 20.352C98.4209 19.952 98.4983 19.592 98.6529 19.272C98.8076 18.952 99.0209 18.6773 99.2929 18.448C99.5703 18.2187 99.8983 18.0427 100.277 17.92C100.661 17.7973 101.08 17.736 101.533 17.736C102.237 17.736 102.842 17.8827 103.349 18.176H105.605ZM114.46 17.872L109.948 28.36C109.9 28.4773 109.836 28.568 109.756 28.632C109.676 28.696 109.559 28.728 109.404 28.728H108.244L109.732 25.488L106.396 17.872H107.756C107.89 17.872 107.994 17.904 108.068 17.968C108.143 18.032 108.196 18.104 108.228 18.184L110.292 23.064C110.335 23.1867 110.375 23.312 110.412 23.44C110.455 23.5627 110.49 23.6853 110.516 23.808C110.554 23.68 110.594 23.5547 110.636 23.432C110.679 23.304 110.724 23.1787 110.772 23.056L112.764 18.184C112.802 18.0933 112.86 18.0187 112.94 17.96C113.02 17.9013 113.111 17.872 113.212 17.872H114.46Z" fill="#3C3C6F"/>
<defs>
<filter id="filter0_b_450_5725" x="-30" y="-30" width="206" height="98" filterUnits="userSpaceOnUse" color-interpolation-filters="sRGB">
<feFlood flood-opacity="0" result="BackgroundImageFix"/>
<feGaussianBlur in="BackgroundImageFix" stdDeviation="15"/>
<feComposite in2="SourceAlpha" operator="in" result="effect1_backgroundBlur_450_5725"/>
<feBlend mode="normal" in="SourceGraphic" in2="effect1_backgroundBlur_450_5725" result="shape"/>
</filter>
<linearGradient id="paint0_linear_450_5725" x1="10.3079" y1="-6.09434" x2="66.3387" y2="1.68769" gradientUnits="userSpaceOnUse">
<stop stop-color="white"/>
<stop offset="1" stop-color="white" stop-opacity="0"/>
</linearGradient>
</defs>
</svg>
