<svg width="164" height="38" viewBox="0 0 164 38" fill="none" xmlns="http://www.w3.org/2000/svg">
<g filter="url(#filter0_b_450_5729)">
<path d="M0 19C0 8.50659 8.50659 0 19 0H145C155.493 0 164 8.50659 164 19C164 29.4934 155.493 38 145 38H19C8.50659 38 0 29.4934 0 19Z" fill="white" fill-opacity="0.6"/>
<path d="M1 19C1 9.05888 9.05888 1 19 1H145C154.941 1 163 9.05888 163 19C163 28.9411 154.941 37 145 37H19C9.05888 37 1 28.9411 1 19Z" stroke="url(#paint0_linear_450_5729)" stroke-opacity="0.9" stroke-width="2"/>
</g>
<path d="M36.3894 16.384C36.336 16.4747 36.28 16.5413 36.2214 16.584C36.1627 16.6267 36.088 16.648 35.9974 16.648C35.9014 16.648 35.792 16.6053 35.6694 16.52C35.5467 16.4293 35.392 16.3307 35.2054 16.224C35.024 16.112 34.8054 16.0133 34.5494 15.928C34.2934 15.8373 33.9867 15.792 33.6294 15.792C33.2934 15.792 32.9974 15.8373 32.7414 15.928C32.4907 16.0133 32.28 16.1333 32.1094 16.288C31.9387 16.4373 31.808 16.616 31.7174 16.824C31.632 17.0267 31.5894 17.248 31.5894 17.488C31.5894 17.7973 31.6667 18.0533 31.8214 18.256C31.9814 18.4587 32.1894 18.632 32.4454 18.776C32.7014 18.92 32.992 19.0453 33.3174 19.152C33.6427 19.2587 33.976 19.3707 34.3174 19.488C34.6587 19.6 34.992 19.7307 35.3174 19.88C35.6427 20.0293 35.9334 20.2187 36.1894 20.448C36.4454 20.672 36.6507 20.9493 36.8054 21.28C36.9654 21.6053 37.0454 22.0053 37.0454 22.48C37.0454 22.9867 36.9574 23.4613 36.7814 23.904C36.6107 24.3467 36.36 24.7333 36.0294 25.064C35.6987 25.3947 35.2907 25.656 34.8054 25.848C34.3254 26.0347 33.7787 26.128 33.1654 26.128C32.7974 26.128 32.44 26.0907 32.0934 26.016C31.7467 25.9467 31.4187 25.848 31.1094 25.72C30.8 25.5867 30.5094 25.4293 30.2374 25.248C29.9707 25.0613 29.7307 24.8533 29.5174 24.624L30.0054 23.808C30.0534 23.744 30.1094 23.6907 30.1734 23.648C30.2427 23.6053 30.32 23.584 30.4054 23.584C30.5174 23.584 30.6454 23.6427 30.7894 23.76C30.9387 23.8773 31.12 24.008 31.3334 24.152C31.552 24.2907 31.8107 24.4187 32.1094 24.536C32.4134 24.6533 32.7814 24.712 33.2134 24.712C33.5654 24.712 33.88 24.6667 34.1574 24.576C34.4347 24.48 34.6667 24.3467 34.8534 24.176C35.0454 24 35.192 23.7893 35.2934 23.544C35.3947 23.2987 35.4454 23.0267 35.4454 22.728C35.4454 22.392 35.368 22.1173 35.2134 21.904C35.0587 21.6907 34.8534 21.512 34.5974 21.368C34.3414 21.224 34.0507 21.1013 33.7254 21C33.4 20.8987 33.0667 20.7947 32.7254 20.688C32.384 20.576 32.0507 20.448 31.7254 20.304C31.4 20.16 31.1094 19.9733 30.8534 19.744C30.5974 19.5093 30.392 19.2187 30.2374 18.872C30.0827 18.52 30.0054 18.088 30.0054 17.576C30.0054 17.1653 30.0854 16.768 30.2454 16.384C30.4054 16 30.6374 15.6613 30.9414 15.368C31.2507 15.0693 31.6294 14.832 32.0774 14.656C32.5254 14.4747 33.0374 14.384 33.6134 14.384C34.2587 14.384 34.8507 14.488 35.3894 14.696C35.9334 14.8987 36.4054 15.192 36.8054 15.576L36.3894 16.384ZM38.9766 26V17.872H39.9126C40.1313 17.872 40.2673 17.976 40.3206 18.184L40.4326 18.96C40.7313 18.6027 41.062 18.312 41.4246 18.088C41.7926 17.8587 42.222 17.744 42.7126 17.744C43.2513 17.744 43.6886 17.8933 44.0246 18.192C44.3606 18.4853 44.606 18.8853 44.7606 19.392C44.878 19.104 45.03 18.856 45.2166 18.648C45.4033 18.44 45.6113 18.2693 45.8406 18.136C46.07 18.0027 46.3126 17.904 46.5686 17.84C46.83 17.776 47.094 17.744 47.3606 17.744C47.7926 17.744 48.1766 17.8133 48.5126 17.952C48.854 18.0853 49.142 18.2827 49.3766 18.544C49.6113 18.8053 49.79 19.128 49.9126 19.512C50.0353 19.896 50.0966 20.3333 50.0966 20.824V26H48.5286V20.824C48.5286 20.216 48.3953 19.7573 48.1286 19.448C47.8673 19.1387 47.4833 18.984 46.9766 18.984C46.7526 18.984 46.5393 19.024 46.3366 19.104C46.134 19.1787 45.9553 19.2933 45.8006 19.448C45.6513 19.6027 45.5313 19.7947 45.4406 20.024C45.3553 20.2533 45.3126 20.52 45.3126 20.824V26H43.7446V20.824C43.7446 20.1947 43.6193 19.7307 43.3686 19.432C43.118 19.1333 42.75 18.984 42.2646 18.984C41.9286 18.984 41.6166 19.072 41.3286 19.248C41.0406 19.424 40.7766 19.664 40.5366 19.968V26H38.9766ZM56.8834 22.392C56.2487 22.4133 55.71 22.464 55.2674 22.544C54.8247 22.6187 54.4647 22.72 54.1874 22.848C53.91 22.976 53.71 23.128 53.5874 23.304C53.4647 23.4747 53.4034 23.6667 53.4034 23.88C53.4034 24.0827 53.4354 24.2587 53.4994 24.408C53.5687 24.552 53.6594 24.672 53.7714 24.768C53.8887 24.8587 54.0247 24.9253 54.1794 24.968C54.334 25.0107 54.502 25.032 54.6834 25.032C54.9234 25.032 55.142 25.008 55.3394 24.96C55.542 24.912 55.7314 24.8453 55.9074 24.76C56.0834 24.6693 56.2514 24.56 56.4114 24.432C56.5714 24.304 56.7287 24.1573 56.8834 23.992V22.392ZM52.3074 19.008C52.7607 18.576 53.2514 18.2533 53.7794 18.04C54.3127 17.8267 54.8967 17.72 55.5314 17.72C55.9954 17.72 56.406 17.7973 56.7634 17.952C57.1207 18.1013 57.422 18.312 57.6674 18.584C57.9127 18.856 58.0967 19.1813 58.2194 19.56C58.3474 19.9387 58.4114 20.3573 58.4114 20.816V26H57.7154C57.5607 26 57.4434 25.976 57.3634 25.928C57.2834 25.8747 57.2194 25.7787 57.1714 25.64L57.0034 24.928C56.7954 25.12 56.59 25.2907 56.3874 25.44C56.1847 25.584 55.9714 25.7093 55.7474 25.816C55.5287 25.9173 55.294 25.9947 55.0434 26.048C54.7927 26.1013 54.5154 26.128 54.2114 26.128C53.8914 26.128 53.59 26.0853 53.3074 26C53.03 25.9093 52.7874 25.7733 52.5794 25.592C52.3714 25.4107 52.206 25.184 52.0834 24.912C51.966 24.64 51.9074 24.3227 51.9074 23.96C51.9074 23.64 51.9927 23.3333 52.1634 23.04C52.3394 22.7413 52.622 22.4747 53.0114 22.24C53.406 22.0053 53.918 21.8133 54.5474 21.664C55.182 21.5147 55.9607 21.4293 56.8834 21.408V20.816C56.8834 20.2027 56.7527 19.744 56.4914 19.44C56.23 19.136 55.846 18.984 55.3394 18.984C54.998 18.984 54.71 19.0267 54.4754 19.112C54.246 19.1973 54.046 19.2933 53.8754 19.4C53.71 19.5013 53.5634 19.5947 53.4354 19.68C53.3127 19.7653 53.1847 19.808 53.0514 19.808C52.9447 19.808 52.8514 19.7787 52.7714 19.72C52.6967 19.6613 52.6354 19.592 52.5874 19.512L52.3074 19.008ZM62.4197 14.192V26H60.8517V14.192H62.4197ZM66.5679 14.192V26H64.9999V14.192H66.5679ZM77.9069 24.648C78.3389 24.648 78.7069 24.5973 79.0109 24.496C79.3202 24.3947 79.5709 24.256 79.7629 24.08C79.9602 23.904 80.1042 23.696 80.1949 23.456C80.2855 23.2107 80.3309 22.944 80.3309 22.656C80.3309 22.0853 80.1335 21.6373 79.7389 21.312C79.3442 20.9813 78.7335 20.816 77.9069 20.816H75.5069V24.648H77.9069ZM75.5069 15.848V19.608H77.4669C78.3042 19.608 78.9255 19.44 79.3309 19.104C79.7415 18.7627 79.9469 18.304 79.9469 17.728C79.9469 17.072 79.7522 16.5947 79.3629 16.296C78.9735 15.9973 78.3682 15.848 77.5469 15.848H75.5069ZM77.5469 14.512C78.2669 14.512 78.8829 14.5813 79.3949 14.72C79.9122 14.8587 80.3362 15.0587 80.6669 15.32C80.9975 15.5813 81.2402 15.8987 81.3949 16.272C81.5549 16.64 81.6349 17.0587 81.6349 17.528C81.6349 17.8053 81.5922 18.072 81.5069 18.328C81.4215 18.584 81.2909 18.824 81.1149 19.048C80.9389 19.2667 80.7175 19.464 80.4509 19.64C80.1842 19.816 79.8695 19.9627 79.5069 20.08C81.1762 20.4107 82.0109 21.2827 82.0109 22.696C82.0109 23.1867 81.9202 23.6347 81.7389 24.04C81.5575 24.44 81.2935 24.7867 80.9469 25.08C80.6002 25.3733 80.1735 25.6 79.6669 25.76C79.1602 25.92 78.5842 26 77.9389 26H73.8029V14.512H77.5469ZM90.7973 17.872V26H89.8613C89.6479 26 89.5093 25.896 89.4453 25.688L89.3333 24.872C89.1573 25.0587 88.9733 25.2293 88.7812 25.384C88.5892 25.5387 88.3839 25.672 88.1653 25.784C87.9466 25.8907 87.7146 25.9733 87.4693 26.032C87.2239 26.096 86.9599 26.128 86.6772 26.128C86.2292 26.128 85.8346 26.0533 85.4932 25.904C85.1572 25.7547 84.8746 25.5467 84.6452 25.28C84.4159 25.008 84.2426 24.6827 84.1252 24.304C84.0079 23.9253 83.9492 23.5067 83.9492 23.048V17.872H85.5173V23.048C85.5173 23.6293 85.6506 24.0827 85.9172 24.408C86.1839 24.728 86.5919 24.888 87.1413 24.888C87.5413 24.888 87.9146 24.7947 88.2613 24.608C88.6079 24.416 88.9333 24.1547 89.2373 23.824V17.872H90.7973ZM98.0868 19.272C98.0441 19.3413 97.9987 19.392 97.9507 19.424C97.9027 19.4507 97.8414 19.464 97.7667 19.464C97.6814 19.464 97.5854 19.4347 97.4787 19.376C97.3774 19.3173 97.2521 19.2533 97.1027 19.184C96.9587 19.1147 96.7881 19.0507 96.5907 18.992C96.3934 18.9333 96.1587 18.904 95.8867 18.904C95.6627 18.904 95.4574 18.9333 95.2707 18.992C95.0894 19.0453 94.9347 19.1227 94.8067 19.224C94.6787 19.32 94.5801 19.4373 94.5107 19.576C94.4414 19.7093 94.4067 19.8533 94.4067 20.008C94.4067 20.2107 94.4654 20.3787 94.5827 20.512C94.7054 20.6453 94.8627 20.76 95.0547 20.856C95.2521 20.952 95.4734 21.04 95.7187 21.12C95.9694 21.1947 96.2227 21.2747 96.4787 21.36C96.7401 21.4453 96.9934 21.544 97.2387 21.656C97.4894 21.7627 97.7107 21.8987 97.9028 22.064C98.1001 22.224 98.2574 22.4187 98.3747 22.648C98.4974 22.8773 98.5587 23.1573 98.5587 23.488C98.5587 23.8667 98.4894 24.2187 98.3507 24.544C98.2174 24.864 98.0174 25.1413 97.7507 25.376C97.4894 25.6107 97.1641 25.7947 96.7747 25.928C96.3854 26.0613 95.9401 26.128 95.4387 26.128C94.8787 26.128 94.3614 26.0347 93.8867 25.848C93.4121 25.6613 93.0147 25.424 92.6947 25.136L93.0627 24.536C93.1054 24.4613 93.1587 24.4053 93.2227 24.368C93.2867 24.3253 93.3721 24.304 93.4787 24.304C93.5801 24.304 93.6841 24.3413 93.7907 24.416C93.8974 24.4907 94.0254 24.5733 94.1747 24.664C94.3241 24.7493 94.5054 24.8293 94.7187 24.904C94.9321 24.9733 95.1987 25.008 95.5187 25.008C95.7854 25.008 96.0174 24.976 96.2147 24.912C96.4121 24.8427 96.5747 24.752 96.7027 24.64C96.8361 24.5227 96.9347 24.3893 96.9987 24.24C97.0627 24.0907 97.0947 23.9333 97.0947 23.768C97.0947 23.5547 97.0334 23.3787 96.9107 23.24C96.7934 23.096 96.6361 22.9733 96.4387 22.872C96.2467 22.7707 96.0254 22.6827 95.7747 22.608C95.5241 22.5333 95.2681 22.4533 95.0067 22.368C94.7454 22.2827 94.4894 22.184 94.2387 22.072C93.9881 21.96 93.7641 21.8187 93.5667 21.648C93.3747 21.4773 93.2174 21.2693 93.0947 21.024C92.9774 20.7787 92.9187 20.48 92.9187 20.128C92.9187 19.8133 92.9827 19.512 93.1107 19.224C93.2441 18.936 93.4334 18.6827 93.6787 18.464C93.9294 18.2453 94.2361 18.072 94.5987 17.944C94.9667 17.8107 95.3854 17.744 95.8547 17.744C96.3934 17.744 96.8787 17.8293 97.3108 18C97.7481 18.1707 98.1214 18.4053 98.4307 18.704L98.0868 19.272ZM102.2 17.872V26H100.64V17.872H102.2ZM102.496 15.36C102.496 15.504 102.467 15.6427 102.408 15.776C102.349 15.904 102.269 16.0187 102.168 16.12C102.072 16.216 101.957 16.2933 101.824 16.352C101.691 16.4053 101.552 16.432 101.408 16.432C101.264 16.432 101.128 16.4053 101 16.352C100.872 16.2933 100.757 16.216 100.656 16.12C100.56 16.0187 100.483 15.904 100.424 15.776C100.371 15.6427 100.344 15.504 100.344 15.36C100.344 15.2107 100.371 15.072 100.424 14.944C100.483 14.8107 100.56 14.696 100.656 14.6C100.757 14.4987 100.872 14.4213 101 14.368C101.128 14.3093 101.264 14.28 101.408 14.28C101.552 14.28 101.691 14.3093 101.824 14.368C101.957 14.4213 102.072 14.4987 102.168 14.6C102.269 14.696 102.349 14.8107 102.408 14.944C102.467 15.072 102.496 15.2107 102.496 15.36ZM106.242 19C106.418 18.8133 106.602 18.6427 106.794 18.488C106.986 18.3333 107.189 18.2027 107.402 18.096C107.621 17.984 107.853 17.8987 108.098 17.84C108.349 17.776 108.616 17.744 108.898 17.744C109.346 17.744 109.738 17.8187 110.074 17.968C110.416 18.1173 110.701 18.328 110.93 18.6C111.16 18.8667 111.333 19.1893 111.45 19.568C111.568 19.9467 111.626 20.3653 111.626 20.824V26H110.058V20.824C110.058 20.2427 109.925 19.792 109.658 19.472C109.392 19.1467 108.984 18.984 108.434 18.984C108.034 18.984 107.658 19.08 107.306 19.272C106.96 19.4587 106.637 19.7147 106.338 20.04V26H104.778V17.872H105.714C105.933 17.872 106.069 17.976 106.122 18.184L106.242 19ZM119.436 21.032C119.436 20.7227 119.39 20.4373 119.3 20.176C119.214 19.9147 119.086 19.688 118.916 19.496C118.745 19.304 118.537 19.1547 118.292 19.048C118.046 18.9413 117.764 18.888 117.444 18.888C116.788 18.888 116.27 19.0773 115.892 19.456C115.518 19.8347 115.281 20.36 115.18 21.032H119.436ZM120.724 24.84C120.532 25.064 120.31 25.2587 120.06 25.424C119.809 25.584 119.542 25.7147 119.26 25.816C118.977 25.9173 118.684 25.992 118.38 26.04C118.081 26.088 117.785 26.112 117.492 26.112C116.932 26.112 116.412 26.0187 115.932 25.832C115.457 25.64 115.044 25.3627 114.692 25C114.345 24.632 114.073 24.1787 113.876 23.64C113.684 23.096 113.588 22.472 113.588 21.768C113.588 21.2027 113.676 20.6773 113.852 20.192C114.028 19.7013 114.278 19.2747 114.604 18.912C114.934 18.5493 115.337 18.264 115.812 18.056C116.286 17.848 116.82 17.744 117.412 17.744C117.908 17.744 118.364 17.8267 118.78 17.992C119.201 18.152 119.564 18.3867 119.868 18.696C120.172 19.0053 120.409 19.3867 120.58 19.84C120.756 20.2933 120.844 20.8107 120.844 21.392C120.844 21.632 120.817 21.7947 120.764 21.88C120.71 21.96 120.612 22 120.468 22H115.14C115.156 22.4853 115.225 22.9093 115.348 23.272C115.47 23.6293 115.638 23.928 115.852 24.168C116.07 24.408 116.329 24.5867 116.628 24.704C116.926 24.8213 117.26 24.88 117.628 24.88C117.974 24.88 118.273 24.84 118.524 24.76C118.78 24.68 118.998 24.5947 119.18 24.504C119.366 24.408 119.521 24.32 119.644 24.24C119.772 24.16 119.884 24.12 119.98 24.12C120.108 24.12 120.206 24.168 120.276 24.264L120.724 24.84ZM127.632 19.272C127.59 19.3413 127.544 19.392 127.496 19.424C127.448 19.4507 127.387 19.464 127.312 19.464C127.227 19.464 127.131 19.4347 127.024 19.376C126.923 19.3173 126.798 19.2533 126.648 19.184C126.504 19.1147 126.334 19.0507 126.136 18.992C125.939 18.9333 125.704 18.904 125.432 18.904C125.208 18.904 125.003 18.9333 124.816 18.992C124.635 19.0453 124.48 19.1227 124.352 19.224C124.224 19.32 124.126 19.4373 124.056 19.576C123.987 19.7093 123.952 19.8533 123.952 20.008C123.952 20.2107 124.011 20.3787 124.128 20.512C124.251 20.6453 124.408 20.76 124.6 20.856C124.798 20.952 125.019 21.04 125.264 21.12C125.515 21.1947 125.768 21.2747 126.024 21.36C126.286 21.4453 126.539 21.544 126.784 21.656C127.035 21.7627 127.256 21.8987 127.448 22.064C127.646 22.224 127.803 22.4187 127.92 22.648C128.043 22.8773 128.104 23.1573 128.104 23.488C128.104 23.8667 128.035 24.2187 127.896 24.544C127.763 24.864 127.563 25.1413 127.296 25.376C127.035 25.6107 126.71 25.7947 126.32 25.928C125.931 26.0613 125.486 26.128 124.984 26.128C124.424 26.128 123.907 26.0347 123.432 25.848C122.958 25.6613 122.56 25.424 122.24 25.136L122.608 24.536C122.651 24.4613 122.704 24.4053 122.768 24.368C122.832 24.3253 122.918 24.304 123.024 24.304C123.126 24.304 123.23 24.3413 123.336 24.416C123.443 24.4907 123.571 24.5733 123.72 24.664C123.87 24.7493 124.051 24.8293 124.264 24.904C124.478 24.9733 124.744 25.008 125.064 25.008C125.331 25.008 125.563 24.976 125.76 24.912C125.958 24.8427 126.12 24.752 126.248 24.64C126.382 24.5227 126.48 24.3893 126.544 24.24C126.608 24.0907 126.64 23.9333 126.64 23.768C126.64 23.5547 126.579 23.3787 126.456 23.24C126.339 23.096 126.182 22.9733 125.984 22.872C125.792 22.7707 125.571 22.6827 125.32 22.608C125.07 22.5333 124.814 22.4533 124.552 22.368C124.291 22.2827 124.035 22.184 123.784 22.072C123.534 21.96 123.31 21.8187 123.112 21.648C122.92 21.4773 122.763 21.2693 122.64 21.024C122.523 20.7787 122.464 20.48 122.464 20.128C122.464 19.8133 122.528 19.512 122.656 19.224C122.79 18.936 122.979 18.6827 123.224 18.464C123.475 18.2453 123.782 18.072 124.144 17.944C124.512 17.8107 124.931 17.744 125.4 17.744C125.939 17.744 126.424 17.8293 126.856 18C127.294 18.1707 127.667 18.4053 127.976 18.704L127.632 19.272ZM134.906 19.272C134.863 19.3413 134.818 19.392 134.77 19.424C134.722 19.4507 134.66 19.464 134.586 19.464C134.5 19.464 134.404 19.4347 134.298 19.376C134.196 19.3173 134.071 19.2533 133.922 19.184C133.778 19.1147 133.607 19.0507 133.41 18.992C133.212 18.9333 132.978 18.904 132.706 18.904C132.482 18.904 132.276 18.9333 132.09 18.992C131.908 19.0453 131.754 19.1227 131.626 19.224C131.498 19.32 131.399 19.4373 131.33 19.576C131.26 19.7093 131.226 19.8533 131.226 20.008C131.226 20.2107 131.284 20.3787 131.402 20.512C131.524 20.6453 131.682 20.76 131.874 20.856C132.071 20.952 132.292 21.04 132.538 21.12C132.788 21.1947 133.042 21.2747 133.298 21.36C133.559 21.4453 133.812 21.544 134.058 21.656C134.308 21.7627 134.53 21.8987 134.722 22.064C134.919 22.224 135.076 22.4187 135.194 22.648C135.316 22.8773 135.378 23.1573 135.378 23.488C135.378 23.8667 135.308 24.2187 135.17 24.544C135.036 24.864 134.836 25.1413 134.57 25.376C134.308 25.6107 133.983 25.7947 133.594 25.928C133.204 26.0613 132.759 26.128 132.258 26.128C131.698 26.128 131.18 26.0347 130.706 25.848C130.231 25.6613 129.834 25.424 129.514 25.136L129.882 24.536C129.924 24.4613 129.978 24.4053 130.042 24.368C130.106 24.3253 130.191 24.304 130.298 24.304C130.399 24.304 130.503 24.3413 130.61 24.416C130.716 24.4907 130.844 24.5733 130.994 24.664C131.143 24.7493 131.324 24.8293 131.538 24.904C131.751 24.9733 132.018 25.008 132.338 25.008C132.604 25.008 132.836 24.976 133.034 24.912C133.231 24.8427 133.394 24.752 133.522 24.64C133.655 24.5227 133.754 24.3893 133.818 24.24C133.882 24.0907 133.914 23.9333 133.914 23.768C133.914 23.5547 133.852 23.3787 133.73 23.24C133.612 23.096 133.455 22.9733 133.258 22.872C133.066 22.7707 132.844 22.6827 132.594 22.608C132.343 22.5333 132.087 22.4533 131.826 22.368C131.564 22.2827 131.308 22.184 131.058 22.072C130.807 21.96 130.583 21.8187 130.386 21.648C130.194 21.4773 130.036 21.2693 129.914 21.024C129.796 20.7787 129.738 20.48 129.738 20.128C129.738 19.8133 129.802 19.512 129.93 19.224C130.063 18.936 130.252 18.6827 130.498 18.464C130.748 18.2453 131.055 18.072 131.418 17.944C131.786 17.8107 132.204 17.744 132.674 17.744C133.212 17.744 133.698 17.8293 134.13 18C134.567 18.1707 134.94 18.4053 135.25 18.704L134.906 19.272Z" fill="#3C3C6F"/>
<defs>
<filter id="filter0_b_450_5729" x="-30" y="-30" width="224" height="98" filterUnits="userSpaceOnUse" color-interpolation-filters="sRGB">
<feFlood flood-opacity="0" result="BackgroundImageFix"/>
<feGaussianBlur in="BackgroundImageFix" stdDeviation="15"/>
<feComposite in2="SourceAlpha" operator="in" result="effect1_backgroundBlur_450_5729"/>
<feBlend mode="normal" in="SourceGraphic" in2="effect1_backgroundBlur_450_5729" result="shape"/>
</filter>
<linearGradient id="paint0_linear_450_5729" x1="11.5787" y1="-6.09434" x2="74.2071" y2="3.67643" gradientUnits="userSpaceOnUse">
<stop stop-color="white"/>
<stop offset="1" stop-color="white" stop-opacity="0"/>
</linearGradient>
</defs>
</svg>
