<svg width="1140" height="990" viewBox="0 0 1140 990" fill="none" xmlns="http://www.w3.org/2000/svg">
<g filter="url(#filter0_b_450_5662)">
<path d="M0 16C0 7.16345 7.16344 0 16 0H1124C1132.84 0 1140 7.16344 1140 16V974C1140 982.837 1132.84 990 1124 990H16C7.16347 990 0 982.837 0 974V16Z" fill="url(#paint0_linear_450_5662)" fill-opacity="0.6"/>
<path d="M1 16C1 7.71573 7.71573 1 16 1H1124C1132.28 1 1139 7.71573 1139 16V974C1139 982.284 1132.28 989 1124 989H16C7.71575 989 1 982.284 1 974V16Z" stroke="url(#paint1_linear_450_5662)" stroke-width="2"/>
<path d="M1 16C1 7.71573 7.71573 1 16 1H1124C1132.28 1 1139 7.71573 1139 16V974C1139 982.284 1132.28 989 1124 989H16C7.71575 989 1 982.284 1 974V16Z" stroke="url(#paint2_linear_450_5662)" stroke-width="2"/>
</g>
<defs>
<filter id="filter0_b_450_5662" x="-20" y="-20" width="1180" height="1030" filterUnits="userSpaceOnUse" color-interpolation-filters="sRGB">
<feFlood flood-opacity="0" result="BackgroundImageFix"/>
<feGaussianBlur in="BackgroundImageFix" stdDeviation="10"/>
<feComposite in2="SourceAlpha" operator="in" result="effect1_backgroundBlur_450_5662"/>
<feBlend mode="normal" in="SourceGraphic" in2="effect1_backgroundBlur_450_5662" result="shape"/>
</filter>
<linearGradient id="paint0_linear_450_5662" x1="183.268" y1="17.2344" x2="910.544" y2="1024.96" gradientUnits="userSpaceOnUse">
<stop stop-color="white" stop-opacity="0.6"/>
<stop offset="1" stop-color="white" stop-opacity="0.2"/>
</linearGradient>
<linearGradient id="paint1_linear_450_5662" x1="67.6901" y1="8.87969e-06" x2="657.364" y2="247.028" gradientUnits="userSpaceOnUse">
<stop stop-color="white" stop-opacity="0.62"/>
<stop offset="0.946466" stop-color="white" stop-opacity="0"/>
</linearGradient>
<linearGradient id="paint2_linear_450_5662" x1="735.288" y1="229.3" x2="1156.27" y2="-19.5353" gradientUnits="userSpaceOnUse">
<stop stop-color="white" stop-opacity="0"/>
<stop offset="1" stop-color="white"/>
</linearGradient>
</defs>
</svg>
