<svg width="455" height="55" viewBox="0 0 455 55" fill="none" xmlns="http://www.w3.org/2000/svg">
<g filter="url(#filter0_b_2002_2375)">
<path d="M0 8C0 3.58172 3.58172 0 8 0H447C451.418 0 455 3.58172 455 8V47C455 51.4183 451.418 55 447 55H8C3.58172 55 0 51.4183 0 47V8Z" fill="white" fill-opacity="0.6"/>
<path d="M8 1H447C450.866 1 454 4.13401 454 8V47C454 50.866 450.866 54 447 54H8C4.13401 54 1 50.866 1 47V8C1 4.13401 4.13401 1 8 1Z" stroke="url(#paint0_linear_2002_2375)" stroke-opacity="0.9" stroke-width="2"/>
</g>
<path d="M153.918 23.443C153.834 23.581 153.747 23.683 153.657 23.749C153.573 23.809 153.462 23.839 153.324 23.839C153.192 23.839 153.048 23.794 152.892 23.704C152.742 23.608 152.565 23.506 152.361 23.398C152.157 23.29 151.923 23.191 151.659 23.101C151.395 23.005 151.086 22.957 150.732 22.957C150.108 22.957 149.64 23.098 149.328 23.38C149.016 23.656 148.86 24.019 148.86 24.469C148.86 24.757 148.944 24.997 149.112 25.189C149.286 25.375 149.511 25.537 149.787 25.675C150.069 25.813 150.387 25.936 150.741 26.044C151.095 26.152 151.458 26.272 151.83 26.404C152.202 26.53 152.565 26.68 152.919 26.854C153.273 27.028 153.588 27.247 153.864 27.511C154.146 27.775 154.371 28.099 154.539 28.483C154.713 28.861 154.8 29.323 154.8 29.869C154.8 30.463 154.695 31.021 154.485 31.543C154.281 32.059 153.984 32.512 153.594 32.902C153.204 33.286 152.721 33.589 152.145 33.811C151.575 34.033 150.927 34.144 150.201 34.144C149.787 34.144 149.373 34.102 148.959 34.018C148.551 33.934 148.155 33.817 147.771 33.667C147.393 33.517 147.036 33.337 146.7 33.127C146.364 32.917 146.07 32.683 145.818 32.425L146.61 31.147C146.676 31.051 146.763 30.973 146.871 30.913C146.979 30.847 147.093 30.814 147.213 30.814C147.375 30.814 147.546 30.874 147.726 30.994C147.906 31.114 148.113 31.246 148.347 31.39C148.581 31.534 148.851 31.666 149.157 31.786C149.469 31.906 149.841 31.966 150.273 31.966C150.903 31.966 151.389 31.822 151.731 31.534C152.079 31.246 152.253 30.817 152.253 30.247C152.253 29.917 152.166 29.65 151.992 29.446C151.824 29.242 151.602 29.071 151.326 28.933C151.05 28.795 150.735 28.678 150.381 28.582C150.027 28.48 149.664 28.369 149.292 28.249C148.92 28.129 148.557 27.985 148.203 27.817C147.849 27.649 147.534 27.427 147.258 27.151C146.982 26.875 146.757 26.533 146.583 26.125C146.415 25.717 146.331 25.21 146.331 24.604C146.331 24.118 146.427 23.647 146.619 23.191C146.811 22.735 147.093 22.33 147.465 21.976C147.837 21.622 148.293 21.337 148.833 21.121C149.379 20.905 150.003 20.797 150.705 20.797C151.491 20.797 152.217 20.92 152.883 21.166C153.555 21.406 154.122 21.742 154.584 22.174L153.918 23.443ZM159.576 34.144C159.156 34.144 158.784 34.084 158.46 33.964C158.136 33.838 157.863 33.661 157.641 33.433C157.419 33.205 157.251 32.929 157.137 32.605C157.023 32.281 156.966 31.915 156.966 31.507V26.503H156.093C155.961 26.503 155.847 26.461 155.751 26.377C155.661 26.293 155.616 26.167 155.616 25.999V25.027L157.101 24.757L157.605 22.354C157.671 22.084 157.854 21.949 158.154 21.949H159.45V24.775H161.844V26.503H159.45V31.345C159.45 31.603 159.51 31.807 159.63 31.957C159.756 32.107 159.933 32.182 160.161 32.182C160.281 32.182 160.383 32.17 160.467 32.146C160.551 32.116 160.623 32.086 160.683 32.056C160.743 32.02 160.797 31.99 160.845 31.966C160.899 31.936 160.953 31.921 161.007 31.921C161.079 31.921 161.139 31.939 161.187 31.975C161.235 32.005 161.283 32.059 161.331 32.137L162.078 33.325C161.736 33.595 161.349 33.799 160.917 33.937C160.485 34.075 160.038 34.144 159.576 34.144ZM169.332 28.267C169.332 28.009 169.296 27.763 169.224 27.529C169.158 27.295 169.05 27.088 168.9 26.908C168.75 26.728 168.561 26.587 168.333 26.485C168.105 26.377 167.832 26.323 167.514 26.323C166.92 26.323 166.455 26.491 166.119 26.827C165.783 27.163 165.564 27.643 165.462 28.267H169.332ZM165.426 29.743C165.504 30.613 165.75 31.249 166.164 31.651C166.584 32.053 167.13 32.254 167.802 32.254C168.144 32.254 168.438 32.215 168.684 32.137C168.936 32.053 169.155 31.963 169.341 31.867C169.533 31.765 169.704 31.675 169.854 31.597C170.01 31.513 170.163 31.471 170.313 31.471C170.505 31.471 170.655 31.543 170.763 31.687L171.483 32.587C171.219 32.893 170.928 33.148 170.61 33.352C170.292 33.55 169.962 33.709 169.62 33.829C169.278 33.943 168.933 34.021 168.585 34.063C168.237 34.111 167.901 34.135 167.577 34.135C166.929 34.135 166.323 34.03 165.759 33.82C165.201 33.604 164.712 33.289 164.292 32.875C163.878 32.455 163.551 31.936 163.311 31.318C163.071 30.7 162.951 29.983 162.951 29.167C162.951 28.537 163.053 27.943 163.257 27.385C163.467 26.827 163.767 26.341 164.157 25.927C164.547 25.513 165.021 25.186 165.579 24.946C166.137 24.7 166.767 24.577 167.469 24.577C168.063 24.577 168.609 24.673 169.107 24.865C169.611 25.051 170.043 25.324 170.403 25.684C170.769 26.044 171.051 26.488 171.249 27.016C171.453 27.538 171.555 28.135 171.555 28.807C171.555 28.993 171.546 29.146 171.528 29.266C171.51 29.386 171.48 29.482 171.438 29.554C171.396 29.626 171.339 29.677 171.267 29.707C171.195 29.731 171.102 29.743 170.988 29.743H165.426ZM175.941 31.552C176.175 31.822 176.427 32.011 176.697 32.119C176.973 32.227 177.267 32.281 177.579 32.281C177.879 32.281 178.152 32.224 178.398 32.11C178.644 31.996 178.854 31.819 179.028 31.579C179.208 31.333 179.346 31.021 179.442 30.643C179.538 30.265 179.586 29.815 179.586 29.293C179.586 28.777 179.544 28.339 179.46 27.979C179.382 27.619 179.268 27.328 179.118 27.106C178.974 26.884 178.797 26.725 178.587 26.629C178.377 26.527 178.143 26.476 177.885 26.476C177.447 26.476 177.078 26.563 176.778 26.737C176.484 26.905 176.205 27.154 175.941 27.484V31.552ZM175.797 25.936C175.983 25.732 176.181 25.546 176.391 25.378C176.601 25.204 176.826 25.057 177.066 24.937C177.306 24.811 177.564 24.715 177.84 24.649C178.116 24.577 178.416 24.541 178.74 24.541C179.238 24.541 179.694 24.649 180.108 24.865C180.528 25.075 180.888 25.384 181.188 25.792C181.488 26.194 181.722 26.689 181.89 27.277C182.058 27.865 182.142 28.537 182.142 29.293C182.142 29.989 182.046 30.634 181.854 31.228C181.668 31.816 181.401 32.326 181.053 32.758C180.705 33.19 180.285 33.529 179.793 33.775C179.307 34.015 178.764 34.135 178.164 34.135C177.66 34.135 177.231 34.06 176.877 33.91C176.529 33.76 176.217 33.556 175.941 33.298V36.997H173.457V24.721H174.987C175.299 24.721 175.506 24.865 175.608 25.153L175.797 25.936ZM188.597 24.622C188.693 23.986 188.873 23.428 189.137 22.948C189.401 22.468 189.731 22.069 190.127 21.751C190.523 21.433 190.973 21.196 191.477 21.04C191.987 20.878 192.536 20.797 193.124 20.797C193.748 20.797 194.306 20.887 194.798 21.067C195.296 21.241 195.716 21.481 196.058 21.787C196.4 22.093 196.661 22.45 196.841 22.858C197.027 23.266 197.12 23.704 197.12 24.172C197.12 24.586 197.075 24.952 196.985 25.27C196.901 25.582 196.772 25.855 196.598 26.089C196.43 26.323 196.22 26.521 195.968 26.683C195.722 26.845 195.437 26.98 195.113 27.088C196.613 27.58 197.363 28.579 197.363 30.085C197.363 30.751 197.24 31.339 196.994 31.849C196.748 32.353 196.418 32.776 196.004 33.118C195.59 33.46 195.107 33.718 194.555 33.892C194.009 34.06 193.436 34.144 192.836 34.144C192.2 34.144 191.639 34.072 191.153 33.928C190.667 33.784 190.238 33.568 189.866 33.28C189.5 32.992 189.185 32.632 188.921 32.2C188.657 31.762 188.426 31.252 188.228 30.67L189.326 30.22C189.614 30.1 189.881 30.067 190.127 30.121C190.379 30.175 190.559 30.307 190.667 30.517C190.787 30.745 190.913 30.955 191.045 31.147C191.183 31.339 191.336 31.507 191.504 31.651C191.672 31.789 191.861 31.897 192.071 31.975C192.287 32.053 192.533 32.092 192.809 32.092C193.157 32.092 193.46 32.035 193.718 31.921C193.976 31.807 194.192 31.66 194.366 31.48C194.54 31.294 194.669 31.087 194.753 30.859C194.843 30.625 194.888 30.394 194.888 30.166C194.888 29.866 194.861 29.596 194.807 29.356C194.753 29.11 194.627 28.903 194.429 28.735C194.237 28.561 193.949 28.429 193.565 28.339C193.187 28.243 192.671 28.195 192.017 28.195V26.449C192.563 26.449 193.01 26.404 193.358 26.314C193.706 26.224 193.979 26.098 194.177 25.936C194.375 25.774 194.51 25.579 194.582 25.351C194.66 25.123 194.699 24.874 194.699 24.604C194.699 24.034 194.549 23.599 194.249 23.299C193.955 22.999 193.535 22.849 192.989 22.849C192.749 22.849 192.527 22.885 192.323 22.957C192.125 23.023 191.945 23.116 191.783 23.236C191.627 23.356 191.492 23.497 191.378 23.659C191.264 23.821 191.18 23.998 191.126 24.19C191.012 24.49 190.865 24.691 190.685 24.793C190.505 24.889 190.244 24.91 189.902 24.856L188.597 24.622ZM199.389 32.695C199.389 32.497 199.425 32.311 199.497 32.137C199.575 31.957 199.68 31.804 199.812 31.678C199.944 31.546 200.097 31.444 200.271 31.372C200.451 31.294 200.646 31.255 200.856 31.255C201.06 31.255 201.252 31.294 201.432 31.372C201.612 31.444 201.768 31.546 201.9 31.678C202.032 31.804 202.134 31.957 202.206 32.137C202.284 32.311 202.323 32.497 202.323 32.695C202.323 32.899 202.284 33.088 202.206 33.262C202.134 33.436 202.032 33.589 201.9 33.721C201.768 33.847 201.612 33.946 201.432 34.018C201.252 34.09 201.06 34.126 200.856 34.126C200.646 34.126 200.451 34.09 200.271 34.018C200.097 33.946 199.944 33.847 199.812 33.721C199.68 33.589 199.575 33.436 199.497 33.262C199.425 33.088 199.389 32.899 199.389 32.695ZM199.389 26.395C199.389 26.197 199.425 26.011 199.497 25.837C199.575 25.657 199.68 25.504 199.812 25.378C199.944 25.246 200.097 25.144 200.271 25.072C200.451 24.994 200.646 24.955 200.856 24.955C201.06 24.955 201.252 24.994 201.432 25.072C201.612 25.144 201.768 25.246 201.9 25.378C202.032 25.504 202.134 25.657 202.206 25.837C202.284 26.011 202.323 26.197 202.323 26.395C202.323 26.599 202.284 26.788 202.206 26.962C202.134 27.136 202.032 27.289 201.9 27.421C201.768 27.547 201.612 27.646 201.432 27.718C201.252 27.79 201.06 27.826 200.856 27.826C200.646 27.826 200.451 27.79 200.271 27.718C200.097 27.646 199.944 27.547 199.812 27.421C199.68 27.289 199.575 27.136 199.497 26.962C199.425 26.788 199.389 26.599 199.389 26.395Z" fill="#FF8C00"/>
<path d="M216.508 23.254C216.442 23.362 216.373 23.443 216.301 23.497C216.229 23.545 216.139 23.569 216.031 23.569C215.917 23.569 215.788 23.521 215.644 23.425C215.506 23.329 215.332 23.224 215.122 23.11C214.918 22.99 214.675 22.882 214.393 22.786C214.111 22.684 213.775 22.633 213.385 22.633C213.025 22.633 212.707 22.678 212.431 22.768C212.161 22.858 211.933 22.984 211.747 23.146C211.561 23.308 211.42 23.5 211.324 23.722C211.234 23.938 211.189 24.175 211.189 24.433C211.189 24.763 211.276 25.039 211.45 25.261C211.624 25.477 211.852 25.663 212.134 25.819C212.422 25.975 212.749 26.113 213.115 26.233C213.481 26.347 213.853 26.47 214.231 26.602C214.615 26.734 214.99 26.884 215.356 27.052C215.722 27.22 216.046 27.433 216.328 27.691C216.616 27.949 216.847 28.264 217.021 28.636C217.195 29.008 217.282 29.461 217.282 29.995C217.282 30.571 217.183 31.111 216.985 31.615C216.787 32.119 216.499 32.56 216.121 32.938C215.749 33.31 215.287 33.604 214.735 33.82C214.189 34.036 213.565 34.144 212.863 34.144C212.449 34.144 212.044 34.102 211.648 34.018C211.258 33.94 210.883 33.829 210.523 33.685C210.169 33.535 209.836 33.355 209.524 33.145C209.212 32.935 208.933 32.701 208.687 32.443L209.299 31.435C209.353 31.351 209.422 31.285 209.506 31.237C209.59 31.189 209.683 31.165 209.785 31.165C209.923 31.165 210.076 31.231 210.244 31.363C210.412 31.489 210.613 31.63 210.847 31.786C211.087 31.936 211.375 32.077 211.711 32.209C212.047 32.335 212.449 32.398 212.917 32.398C213.679 32.398 214.267 32.212 214.681 31.84C215.101 31.468 215.311 30.955 215.311 30.301C215.311 29.935 215.224 29.638 215.05 29.41C214.876 29.176 214.645 28.981 214.357 28.825C214.075 28.669 213.751 28.537 213.385 28.429C213.019 28.321 212.647 28.207 212.269 28.087C211.891 27.961 211.519 27.817 211.153 27.655C210.787 27.487 210.46 27.271 210.172 27.007C209.89 26.737 209.662 26.407 209.488 26.017C209.314 25.621 209.227 25.129 209.227 24.541C209.227 24.073 209.317 23.62 209.497 23.182C209.683 22.744 209.95 22.357 210.298 22.021C210.652 21.679 211.087 21.406 211.603 21.202C212.119 20.998 212.707 20.896 213.367 20.896C214.111 20.896 214.792 21.013 215.41 21.247C216.034 21.481 216.571 21.814 217.021 22.246L216.508 23.254ZM219.381 34V24.82H220.551C220.815 24.82 220.983 24.943 221.055 25.189L221.181 25.99C221.349 25.798 221.523 25.624 221.703 25.468C221.883 25.306 222.075 25.168 222.279 25.054C222.489 24.934 222.711 24.841 222.945 24.775C223.185 24.709 223.443 24.676 223.719 24.676C224.013 24.676 224.283 24.718 224.529 24.802C224.775 24.886 224.991 25.006 225.177 25.162C225.369 25.318 225.534 25.507 225.672 25.729C225.81 25.951 225.924 26.2 226.014 26.476C226.152 26.158 226.326 25.885 226.536 25.657C226.746 25.429 226.98 25.243 227.238 25.099C227.496 24.955 227.769 24.85 228.057 24.784C228.351 24.712 228.648 24.676 228.948 24.676C229.44 24.676 229.878 24.754 230.262 24.91C230.652 25.066 230.979 25.294 231.243 25.594C231.513 25.888 231.717 26.251 231.855 26.683C231.993 27.115 232.062 27.607 232.062 28.159V34H230.127V28.159C230.127 27.511 229.986 27.025 229.704 26.701C229.428 26.371 229.017 26.206 228.471 26.206C228.225 26.206 227.994 26.248 227.778 26.332C227.562 26.416 227.373 26.539 227.211 26.701C227.049 26.863 226.92 27.067 226.824 27.313C226.734 27.553 226.689 27.835 226.689 28.159V34H224.754V28.159C224.754 27.487 224.619 26.995 224.349 26.683C224.079 26.365 223.683 26.206 223.161 26.206C222.801 26.206 222.468 26.299 222.162 26.485C221.856 26.665 221.574 26.914 221.316 27.232V34H219.381ZM239.588 29.986C238.898 30.01 238.316 30.067 237.842 30.157C237.368 30.241 236.984 30.352 236.69 30.49C236.396 30.622 236.183 30.781 236.051 30.967C235.925 31.153 235.862 31.357 235.862 31.579C235.862 31.795 235.895 31.981 235.961 32.137C236.033 32.287 236.129 32.413 236.249 32.515C236.375 32.611 236.519 32.683 236.681 32.731C236.849 32.773 237.032 32.794 237.23 32.794C237.734 32.794 238.166 32.701 238.526 32.515C238.892 32.323 239.246 32.047 239.588 31.687V29.986ZM234.458 26.098C235.496 25.132 236.732 24.649 238.166 24.649C238.694 24.649 239.162 24.736 239.57 24.91C239.984 25.078 240.329 25.318 240.605 25.63C240.887 25.942 241.1 26.314 241.244 26.746C241.394 27.172 241.469 27.646 241.469 28.168V34H240.605C240.419 34 240.278 33.973 240.182 33.919C240.086 33.859 240.005 33.742 239.939 33.568L239.75 32.821C239.516 33.031 239.285 33.22 239.057 33.388C238.829 33.55 238.592 33.688 238.346 33.802C238.106 33.916 237.845 34 237.563 34.054C237.287 34.114 236.981 34.144 236.645 34.144C236.273 34.144 235.925 34.093 235.601 33.991C235.283 33.889 235.007 33.736 234.773 33.532C234.539 33.322 234.353 33.064 234.215 32.758C234.083 32.452 234.017 32.092 234.017 31.678C234.017 31.324 234.11 30.979 234.296 30.643C234.488 30.307 234.8 30.007 235.232 29.743C235.67 29.473 236.243 29.251 236.951 29.077C237.665 28.903 238.544 28.804 239.588 28.78V28.168C239.588 27.508 239.447 27.016 239.165 26.692C238.883 26.368 238.469 26.206 237.923 26.206C237.551 26.206 237.239 26.254 236.987 26.35C236.735 26.44 236.516 26.539 236.33 26.647C236.144 26.755 235.979 26.857 235.835 26.953C235.691 27.043 235.538 27.088 235.376 27.088C235.244 27.088 235.13 27.055 235.034 26.989C234.944 26.917 234.869 26.83 234.809 26.728L234.458 26.098ZM245.922 26.521C246.21 25.939 246.558 25.483 246.966 25.153C247.374 24.817 247.863 24.649 248.433 24.649C248.631 24.649 248.817 24.673 248.991 24.721C249.165 24.763 249.321 24.829 249.459 24.919L249.324 26.377C249.3 26.479 249.261 26.551 249.207 26.593C249.159 26.629 249.093 26.647 249.009 26.647C248.919 26.647 248.79 26.632 248.622 26.602C248.454 26.566 248.277 26.548 248.091 26.548C247.821 26.548 247.581 26.587 247.371 26.665C247.167 26.743 246.981 26.857 246.813 27.007C246.651 27.157 246.507 27.34 246.381 27.556C246.255 27.772 246.138 28.018 246.03 28.294V34H244.095V24.82H245.22C245.424 24.82 245.565 24.859 245.643 24.937C245.721 25.009 245.775 25.138 245.805 25.324L245.922 26.521ZM254.043 34.144C253.281 34.144 252.693 33.931 252.279 33.505C251.871 33.073 251.667 32.467 251.667 31.687V26.341H250.659C250.551 26.341 250.458 26.308 250.38 26.242C250.302 26.17 250.263 26.065 250.263 25.927V25.144L251.748 24.928L252.171 22.273C252.201 22.171 252.252 22.09 252.324 22.03C252.396 21.964 252.492 21.931 252.612 21.931H253.602V24.946H256.149V26.341H253.602V31.552C253.602 31.882 253.683 32.134 253.845 32.308C254.007 32.482 254.223 32.569 254.493 32.569C254.643 32.569 254.772 32.551 254.88 32.515C254.988 32.473 255.081 32.431 255.159 32.389C255.237 32.341 255.303 32.299 255.357 32.263C255.417 32.221 255.474 32.2 255.528 32.2C255.636 32.2 255.723 32.26 255.789 32.38L256.365 33.325C256.065 33.589 255.711 33.793 255.303 33.937C254.895 34.075 254.475 34.144 254.043 34.144ZM270.013 23.254C269.947 23.362 269.878 23.443 269.806 23.497C269.734 23.545 269.644 23.569 269.536 23.569C269.422 23.569 269.293 23.521 269.149 23.425C269.011 23.329 268.837 23.224 268.627 23.11C268.423 22.99 268.18 22.882 267.898 22.786C267.616 22.684 267.28 22.633 266.89 22.633C266.53 22.633 266.212 22.678 265.936 22.768C265.666 22.858 265.438 22.984 265.252 23.146C265.066 23.308 264.925 23.5 264.829 23.722C264.739 23.938 264.694 24.175 264.694 24.433C264.694 24.763 264.781 25.039 264.955 25.261C265.129 25.477 265.357 25.663 265.639 25.819C265.927 25.975 266.254 26.113 266.62 26.233C266.986 26.347 267.358 26.47 267.736 26.602C268.12 26.734 268.495 26.884 268.861 27.052C269.227 27.22 269.551 27.433 269.833 27.691C270.121 27.949 270.352 28.264 270.526 28.636C270.7 29.008 270.787 29.461 270.787 29.995C270.787 30.571 270.688 31.111 270.49 31.615C270.292 32.119 270.004 32.56 269.626 32.938C269.254 33.31 268.792 33.604 268.24 33.82C267.694 34.036 267.07 34.144 266.368 34.144C265.954 34.144 265.549 34.102 265.153 34.018C264.763 33.94 264.388 33.829 264.028 33.685C263.674 33.535 263.341 33.355 263.029 33.145C262.717 32.935 262.438 32.701 262.192 32.443L262.804 31.435C262.858 31.351 262.927 31.285 263.011 31.237C263.095 31.189 263.188 31.165 263.29 31.165C263.428 31.165 263.581 31.231 263.749 31.363C263.917 31.489 264.118 31.63 264.352 31.786C264.592 31.936 264.88 32.077 265.216 32.209C265.552 32.335 265.954 32.398 266.422 32.398C267.184 32.398 267.772 32.212 268.186 31.84C268.606 31.468 268.816 30.955 268.816 30.301C268.816 29.935 268.729 29.638 268.555 29.41C268.381 29.176 268.15 28.981 267.862 28.825C267.58 28.669 267.256 28.537 266.89 28.429C266.524 28.321 266.152 28.207 265.774 28.087C265.396 27.961 265.024 27.817 264.658 27.655C264.292 27.487 263.965 27.271 263.677 27.007C263.395 26.737 263.167 26.407 262.993 26.017C262.819 25.621 262.732 25.129 262.732 24.541C262.732 24.073 262.822 23.62 263.002 23.182C263.188 22.744 263.455 22.357 263.803 22.021C264.157 21.679 264.592 21.406 265.108 21.202C265.624 20.998 266.212 20.896 266.872 20.896C267.616 20.896 268.297 21.013 268.915 21.247C269.539 21.481 270.076 21.814 270.526 22.246L270.013 23.254ZM274.857 25.909C275.235 25.537 275.649 25.24 276.099 25.018C276.549 24.79 277.074 24.676 277.674 24.676C278.178 24.676 278.619 24.76 278.997 24.928C279.381 25.096 279.702 25.333 279.96 25.639C280.224 25.945 280.422 26.314 280.554 26.746C280.686 27.172 280.752 27.643 280.752 28.159V34H278.826V28.159C278.826 27.541 278.682 27.061 278.394 26.719C278.112 26.377 277.68 26.206 277.098 26.206C276.666 26.206 276.264 26.305 275.892 26.503C275.526 26.701 275.181 26.971 274.857 27.313V34H272.922V20.68H274.857V25.909ZM289.393 28.375C289.393 28.051 289.345 27.751 289.249 27.475C289.159 27.193 289.024 26.95 288.844 26.746C288.664 26.536 288.439 26.374 288.169 26.26C287.905 26.14 287.599 26.08 287.251 26.08C286.549 26.08 285.997 26.281 285.595 26.683C285.193 27.085 284.938 27.649 284.83 28.375H289.393ZM284.776 29.563C284.8 30.085 284.881 30.538 285.019 30.922C285.157 31.3 285.34 31.615 285.568 31.867C285.802 32.119 286.078 32.308 286.396 32.434C286.72 32.554 287.08 32.614 287.476 32.614C287.854 32.614 288.181 32.572 288.457 32.488C288.733 32.398 288.973 32.302 289.177 32.2C289.381 32.092 289.555 31.996 289.699 31.912C289.843 31.822 289.975 31.777 290.095 31.777C290.251 31.777 290.371 31.837 290.455 31.957L291.004 32.668C290.776 32.938 290.518 33.166 290.23 33.352C289.942 33.538 289.636 33.691 289.312 33.811C288.988 33.925 288.655 34.006 288.313 34.054C287.971 34.108 287.638 34.135 287.314 34.135C286.678 34.135 286.087 34.03 285.541 33.82C285.001 33.604 284.53 33.289 284.128 32.875C283.732 32.461 283.42 31.948 283.192 31.336C282.97 30.724 282.859 30.019 282.859 29.221C282.859 28.585 282.958 27.991 283.156 27.439C283.36 26.887 283.648 26.407 284.02 25.999C284.398 25.591 284.854 25.27 285.388 25.036C285.928 24.796 286.537 24.676 287.215 24.676C287.779 24.676 288.301 24.769 288.781 24.955C289.261 25.135 289.675 25.402 290.023 25.756C290.371 26.11 290.641 26.545 290.833 27.061C291.031 27.571 291.13 28.153 291.13 28.807C291.13 29.107 291.097 29.308 291.031 29.41C290.965 29.512 290.845 29.563 290.671 29.563H284.776ZM299.315 28.375C299.315 28.051 299.267 27.751 299.171 27.475C299.081 27.193 298.946 26.95 298.766 26.746C298.586 26.536 298.361 26.374 298.091 26.26C297.827 26.14 297.521 26.08 297.173 26.08C296.471 26.08 295.919 26.281 295.517 26.683C295.115 27.085 294.86 27.649 294.752 28.375H299.315ZM294.698 29.563C294.722 30.085 294.803 30.538 294.941 30.922C295.079 31.3 295.262 31.615 295.49 31.867C295.724 32.119 296 32.308 296.318 32.434C296.642 32.554 297.002 32.614 297.398 32.614C297.776 32.614 298.103 32.572 298.379 32.488C298.655 32.398 298.895 32.302 299.099 32.2C299.303 32.092 299.477 31.996 299.621 31.912C299.765 31.822 299.897 31.777 300.017 31.777C300.173 31.777 300.293 31.837 300.377 31.957L300.926 32.668C300.698 32.938 300.44 33.166 300.152 33.352C299.864 33.538 299.558 33.691 299.234 33.811C298.91 33.925 298.577 34.006 298.235 34.054C297.893 34.108 297.56 34.135 297.236 34.135C296.6 34.135 296.009 34.03 295.463 33.82C294.923 33.604 294.452 33.289 294.05 32.875C293.654 32.461 293.342 31.948 293.114 31.336C292.892 30.724 292.781 30.019 292.781 29.221C292.781 28.585 292.88 27.991 293.078 27.439C293.282 26.887 293.57 26.407 293.942 25.999C294.32 25.591 294.776 25.27 295.31 25.036C295.85 24.796 296.459 24.676 297.137 24.676C297.701 24.676 298.223 24.769 298.703 24.955C299.183 25.135 299.597 25.402 299.945 25.756C300.293 26.11 300.563 26.545 300.755 27.061C300.953 27.571 301.052 28.153 301.052 28.807C301.052 29.107 301.019 29.308 300.953 29.41C300.887 29.512 300.767 29.563 300.593 29.563H294.698ZM306.072 34.144C305.31 34.144 304.722 33.931 304.308 33.505C303.9 33.073 303.696 32.467 303.696 31.687V26.341H302.688C302.58 26.341 302.487 26.308 302.409 26.242C302.331 26.17 302.292 26.065 302.292 25.927V25.144L303.777 24.928L304.2 22.273C304.23 22.171 304.281 22.09 304.353 22.03C304.425 21.964 304.521 21.931 304.641 21.931H305.631V24.946H308.178V26.341H305.631V31.552C305.631 31.882 305.712 32.134 305.874 32.308C306.036 32.482 306.252 32.569 306.522 32.569C306.672 32.569 306.801 32.551 306.909 32.515C307.017 32.473 307.11 32.431 307.188 32.389C307.266 32.341 307.332 32.299 307.386 32.263C307.446 32.221 307.503 32.2 307.557 32.2C307.665 32.2 307.752 32.26 307.818 32.38L308.394 33.325C308.094 33.589 307.74 33.793 307.332 33.937C306.924 34.075 306.504 34.144 306.072 34.144Z" fill="#3C3C6F"/>
<defs>
<filter id="filter0_b_2002_2375" x="-30" y="-30" width="515" height="115" filterUnits="userSpaceOnUse" color-interpolation-filters="sRGB">
<feFlood flood-opacity="0" result="BackgroundImageFix"/>
<feGaussianBlur in="BackgroundImageFix" stdDeviation="15"/>
<feComposite in2="SourceAlpha" operator="in" result="effect1_backgroundBlur_2002_2375"/>
<feBlend mode="normal" in="SourceGraphic" in2="effect1_backgroundBlur_2002_2375" result="shape"/>
</filter>
<linearGradient id="paint0_linear_2002_2375" x1="32.124" y1="-8.82076" x2="195.498" y2="40.0365" gradientUnits="userSpaceOnUse">
<stop stop-color="white"/>
<stop offset="1" stop-color="white" stop-opacity="0"/>
</linearGradient>
</defs>
</svg>
