<svg width="455" height="55" viewBox="0 0 455 55" fill="none" xmlns="http://www.w3.org/2000/svg">
<g filter="url(#filter0_b_2002_2365)">
<path d="M0 8C0 3.58172 3.58172 0 8 0H447C451.418 0 455 3.58172 455 8V47C455 51.4183 451.418 55 447 55H8C3.58172 55 0 51.4183 0 47V8Z" fill="white" fill-opacity="0.6"/>
<path d="M8 1H447C450.866 1 454 4.13401 454 8V47C454 50.866 450.866 54 447 54H8C4.13401 54 1 50.866 1 47V8C1 4.13401 4.13401 1 8 1Z" stroke="url(#paint0_linear_2002_2365)" stroke-opacity="0.9" stroke-width="2"/>
</g>
<path d="M88.442 23.443C88.358 23.581 88.271 23.683 88.181 23.749C88.097 23.809 87.986 23.839 87.848 23.839C87.716 23.839 87.572 23.794 87.416 23.704C87.266 23.608 87.089 23.506 86.885 23.398C86.681 23.29 86.447 23.191 86.183 23.101C85.919 23.005 85.61 22.957 85.256 22.957C84.632 22.957 84.164 23.098 83.852 23.38C83.54 23.656 83.384 24.019 83.384 24.469C83.384 24.757 83.468 24.997 83.636 25.189C83.81 25.375 84.035 25.537 84.311 25.675C84.593 25.813 84.911 25.936 85.265 26.044C85.619 26.152 85.982 26.272 86.354 26.404C86.726 26.53 87.089 26.68 87.443 26.854C87.797 27.028 88.112 27.247 88.388 27.511C88.67 27.775 88.895 28.099 89.063 28.483C89.237 28.861 89.324 29.323 89.324 29.869C89.324 30.463 89.219 31.021 89.009 31.543C88.805 32.059 88.508 32.512 88.118 32.902C87.728 33.286 87.245 33.589 86.669 33.811C86.099 34.033 85.451 34.144 84.725 34.144C84.311 34.144 83.897 34.102 83.483 34.018C83.075 33.934 82.679 33.817 82.295 33.667C81.917 33.517 81.56 33.337 81.224 33.127C80.888 32.917 80.594 32.683 80.342 32.425L81.134 31.147C81.2 31.051 81.287 30.973 81.395 30.913C81.503 30.847 81.617 30.814 81.737 30.814C81.899 30.814 82.07 30.874 82.25 30.994C82.43 31.114 82.637 31.246 82.871 31.39C83.105 31.534 83.375 31.666 83.681 31.786C83.993 31.906 84.365 31.966 84.797 31.966C85.427 31.966 85.913 31.822 86.255 31.534C86.603 31.246 86.777 30.817 86.777 30.247C86.777 29.917 86.69 29.65 86.516 29.446C86.348 29.242 86.126 29.071 85.85 28.933C85.574 28.795 85.259 28.678 84.905 28.582C84.551 28.48 84.188 28.369 83.816 28.249C83.444 28.129 83.081 27.985 82.727 27.817C82.373 27.649 82.058 27.427 81.782 27.151C81.506 26.875 81.281 26.533 81.107 26.125C80.939 25.717 80.855 25.21 80.855 24.604C80.855 24.118 80.951 23.647 81.143 23.191C81.335 22.735 81.617 22.33 81.989 21.976C82.361 21.622 82.817 21.337 83.357 21.121C83.903 20.905 84.527 20.797 85.229 20.797C86.015 20.797 86.741 20.92 87.407 21.166C88.079 21.406 88.646 21.742 89.108 22.174L88.442 23.443ZM94.0998 34.144C93.6798 34.144 93.3078 34.084 92.9838 33.964C92.6598 33.838 92.3868 33.661 92.1648 33.433C91.9428 33.205 91.7748 32.929 91.6608 32.605C91.5468 32.281 91.4898 31.915 91.4898 31.507V26.503H90.6168C90.4848 26.503 90.3708 26.461 90.2748 26.377C90.1848 26.293 90.1398 26.167 90.1398 25.999V25.027L91.6248 24.757L92.1288 22.354C92.1948 22.084 92.3778 21.949 92.6778 21.949H93.9738V24.775H96.3678V26.503H93.9738V31.345C93.9738 31.603 94.0338 31.807 94.1538 31.957C94.2798 32.107 94.4568 32.182 94.6848 32.182C94.8048 32.182 94.9068 32.17 94.9908 32.146C95.0748 32.116 95.1468 32.086 95.2068 32.056C95.2668 32.02 95.3208 31.99 95.3688 31.966C95.4228 31.936 95.4768 31.921 95.5308 31.921C95.6028 31.921 95.6628 31.939 95.7108 31.975C95.7588 32.005 95.8068 32.059 95.8548 32.137L96.6018 33.325C96.2598 33.595 95.8728 33.799 95.4408 33.937C95.0088 34.075 94.5618 34.144 94.0998 34.144ZM103.857 28.267C103.857 28.009 103.821 27.763 103.749 27.529C103.683 27.295 103.575 27.088 103.425 26.908C103.275 26.728 103.086 26.587 102.858 26.485C102.63 26.377 102.357 26.323 102.039 26.323C101.445 26.323 100.98 26.491 100.644 26.827C100.308 27.163 100.089 27.643 99.9866 28.267H103.857ZM99.9506 29.743C100.029 30.613 100.275 31.249 100.689 31.651C101.109 32.053 101.655 32.254 102.327 32.254C102.669 32.254 102.963 32.215 103.209 32.137C103.461 32.053 103.68 31.963 103.866 31.867C104.058 31.765 104.229 31.675 104.379 31.597C104.535 31.513 104.688 31.471 104.838 31.471C105.03 31.471 105.18 31.543 105.288 31.687L106.008 32.587C105.744 32.893 105.453 33.148 105.135 33.352C104.817 33.55 104.487 33.709 104.145 33.829C103.803 33.943 103.458 34.021 103.11 34.063C102.762 34.111 102.426 34.135 102.102 34.135C101.454 34.135 100.848 34.03 100.284 33.82C99.7256 33.604 99.2366 33.289 98.8166 32.875C98.4026 32.455 98.0756 31.936 97.8356 31.318C97.5956 30.7 97.4756 29.983 97.4756 29.167C97.4756 28.537 97.5776 27.943 97.7816 27.385C97.9916 26.827 98.2916 26.341 98.6816 25.927C99.0716 25.513 99.5456 25.186 100.104 24.946C100.662 24.7 101.292 24.577 101.994 24.577C102.588 24.577 103.134 24.673 103.632 24.865C104.136 25.051 104.568 25.324 104.928 25.684C105.294 26.044 105.576 26.488 105.774 27.016C105.978 27.538 106.08 28.135 106.08 28.807C106.08 28.993 106.071 29.146 106.053 29.266C106.035 29.386 106.005 29.482 105.963 29.554C105.921 29.626 105.864 29.677 105.792 29.707C105.72 29.731 105.627 29.743 105.513 29.743H99.9506ZM110.465 31.552C110.699 31.822 110.951 32.011 111.221 32.119C111.497 32.227 111.791 32.281 112.103 32.281C112.403 32.281 112.676 32.224 112.922 32.11C113.168 31.996 113.378 31.819 113.552 31.579C113.732 31.333 113.87 31.021 113.966 30.643C114.062 30.265 114.11 29.815 114.11 29.293C114.11 28.777 114.068 28.339 113.984 27.979C113.906 27.619 113.792 27.328 113.642 27.106C113.498 26.884 113.321 26.725 113.111 26.629C112.901 26.527 112.667 26.476 112.409 26.476C111.971 26.476 111.602 26.563 111.302 26.737C111.008 26.905 110.729 27.154 110.465 27.484V31.552ZM110.321 25.936C110.507 25.732 110.705 25.546 110.915 25.378C111.125 25.204 111.35 25.057 111.59 24.937C111.83 24.811 112.088 24.715 112.364 24.649C112.64 24.577 112.94 24.541 113.264 24.541C113.762 24.541 114.218 24.649 114.632 24.865C115.052 25.075 115.412 25.384 115.712 25.792C116.012 26.194 116.246 26.689 116.414 27.277C116.582 27.865 116.666 28.537 116.666 29.293C116.666 29.989 116.57 30.634 116.378 31.228C116.192 31.816 115.925 32.326 115.577 32.758C115.229 33.19 114.809 33.529 114.317 33.775C113.831 34.015 113.288 34.135 112.688 34.135C112.184 34.135 111.755 34.06 111.401 33.91C111.053 33.76 110.741 33.556 110.465 33.298V36.997H107.981V24.721H109.511C109.823 24.721 110.03 24.865 110.132 25.153L110.321 25.936ZM131.608 32.173V34H124.282V32.173H126.874V25.027C126.874 24.871 126.877 24.712 126.883 24.55C126.889 24.388 126.898 24.223 126.91 24.055L125.2 25.477C125.08 25.567 124.963 25.624 124.849 25.648C124.735 25.672 124.627 25.675 124.525 25.657C124.423 25.633 124.333 25.597 124.255 25.549C124.177 25.495 124.117 25.441 124.075 25.387L123.292 24.334L127.306 20.932H129.349V32.173H131.608ZM133.913 32.695C133.913 32.497 133.949 32.311 134.021 32.137C134.099 31.957 134.204 31.804 134.336 31.678C134.468 31.546 134.621 31.444 134.795 31.372C134.975 31.294 135.17 31.255 135.38 31.255C135.584 31.255 135.776 31.294 135.956 31.372C136.136 31.444 136.292 31.546 136.424 31.678C136.556 31.804 136.658 31.957 136.73 32.137C136.808 32.311 136.847 32.497 136.847 32.695C136.847 32.899 136.808 33.088 136.73 33.262C136.658 33.436 136.556 33.589 136.424 33.721C136.292 33.847 136.136 33.946 135.956 34.018C135.776 34.09 135.584 34.126 135.38 34.126C135.17 34.126 134.975 34.09 134.795 34.018C134.621 33.946 134.468 33.847 134.336 33.721C134.204 33.589 134.099 33.436 134.021 33.262C133.949 33.088 133.913 32.899 133.913 32.695ZM133.913 26.395C133.913 26.197 133.949 26.011 134.021 25.837C134.099 25.657 134.204 25.504 134.336 25.378C134.468 25.246 134.621 25.144 134.795 25.072C134.975 24.994 135.17 24.955 135.38 24.955C135.584 24.955 135.776 24.994 135.956 25.072C136.136 25.144 136.292 25.246 136.424 25.378C136.556 25.504 136.658 25.657 136.73 25.837C136.808 26.011 136.847 26.197 136.847 26.395C136.847 26.599 136.808 26.788 136.73 26.962C136.658 27.136 136.556 27.289 136.424 27.421C136.292 27.547 136.136 27.646 135.956 27.718C135.776 27.79 135.584 27.826 135.38 27.826C135.17 27.826 134.975 27.79 134.795 27.718C134.621 27.646 134.468 27.547 134.336 27.421C134.204 27.289 134.099 27.136 134.021 26.962C133.949 26.788 133.913 26.599 133.913 26.395Z" fill="#FF8C00"/>
<path d="M153.255 31.111C153.369 31.111 153.468 31.156 153.552 31.246L154.389 32.155C153.861 32.791 153.213 33.283 152.445 33.631C151.677 33.973 150.759 34.144 149.691 34.144C148.743 34.144 147.885 33.982 147.117 33.658C146.355 33.328 145.704 32.872 145.164 32.29C144.624 31.702 144.207 31.003 143.913 30.193C143.625 29.383 143.481 28.492 143.481 27.52C143.481 26.548 143.634 25.657 143.94 24.847C144.252 24.031 144.687 23.332 145.245 22.75C145.809 22.162 146.481 21.706 147.261 21.382C148.047 21.058 148.911 20.896 149.853 20.896C150.789 20.896 151.614 21.049 152.328 21.355C153.048 21.655 153.672 22.057 154.2 22.561L153.507 23.542C153.459 23.608 153.402 23.665 153.336 23.713C153.27 23.761 153.18 23.785 153.066 23.785C152.946 23.785 152.808 23.731 152.652 23.623C152.502 23.509 152.307 23.386 152.067 23.254C151.833 23.116 151.536 22.993 151.176 22.885C150.822 22.771 150.378 22.714 149.844 22.714C149.226 22.714 148.659 22.822 148.143 23.038C147.627 23.254 147.183 23.569 146.811 23.983C146.439 24.397 146.148 24.901 145.938 25.495C145.734 26.089 145.632 26.764 145.632 27.52C145.632 28.282 145.74 28.963 145.956 29.563C146.172 30.157 146.469 30.661 146.847 31.075C147.225 31.483 147.669 31.795 148.179 32.011C148.689 32.227 149.238 32.335 149.826 32.335C150.186 32.335 150.507 32.317 150.789 32.281C151.077 32.239 151.341 32.176 151.581 32.092C151.821 32.002 152.046 31.891 152.256 31.759C152.472 31.627 152.685 31.465 152.895 31.273C153.015 31.165 153.135 31.111 153.255 31.111ZM158.179 20.68V34H156.244V20.68H158.179ZM164.896 24.676C165.574 24.676 166.186 24.787 166.732 25.009C167.284 25.231 167.752 25.546 168.136 25.954C168.526 26.362 168.826 26.857 169.036 27.439C169.246 28.021 169.351 28.675 169.351 29.401C169.351 30.127 169.246 30.781 169.036 31.363C168.826 31.945 168.526 32.443 168.136 32.857C167.752 33.265 167.284 33.58 166.732 33.802C166.186 34.024 165.574 34.135 164.896 34.135C164.212 34.135 163.594 34.024 163.042 33.802C162.496 33.58 162.028 33.265 161.638 32.857C161.248 32.443 160.948 31.945 160.738 31.363C160.528 30.781 160.423 30.127 160.423 29.401C160.423 28.675 160.528 28.021 160.738 27.439C160.948 26.857 161.248 26.362 161.638 25.954C162.028 25.546 162.496 25.231 163.042 25.009C163.594 24.787 164.212 24.676 164.896 24.676ZM164.896 32.623C165.724 32.623 166.339 32.347 166.741 31.795C167.149 31.237 167.353 30.442 167.353 29.41C167.353 28.378 167.149 27.583 166.741 27.025C166.339 26.461 165.724 26.179 164.896 26.179C164.056 26.179 163.432 26.461 163.024 27.025C162.616 27.583 162.412 28.378 162.412 29.41C162.412 30.442 162.616 31.237 163.024 31.795C163.432 32.347 164.056 32.623 164.896 32.623ZM179.311 24.82V34H178.141C177.883 34 177.718 33.877 177.646 33.631L177.502 32.776C177.31 32.98 177.106 33.166 176.89 33.334C176.68 33.502 176.455 33.646 176.215 33.766C175.975 33.886 175.717 33.979 175.441 34.045C175.171 34.111 174.88 34.144 174.568 34.144C174.064 34.144 173.62 34.06 173.236 33.892C172.852 33.724 172.528 33.487 172.264 33.181C172.006 32.875 171.811 32.509 171.679 32.083C171.547 31.651 171.481 31.177 171.481 30.661V24.82H173.416V30.661C173.416 31.279 173.557 31.759 173.839 32.101C174.127 32.443 174.562 32.614 175.144 32.614C175.57 32.614 175.966 32.518 176.332 32.326C176.704 32.128 177.052 31.858 177.376 31.516V24.82H179.311ZM187.879 27.079C187.609 26.731 187.312 26.488 186.988 26.35C186.664 26.212 186.313 26.143 185.935 26.143C185.179 26.143 184.588 26.422 184.162 26.98C183.736 27.532 183.523 28.351 183.523 29.437C183.523 30.001 183.571 30.484 183.667 30.886C183.763 31.282 183.901 31.606 184.081 31.858C184.261 32.11 184.48 32.293 184.738 32.407C184.996 32.521 185.287 32.578 185.611 32.578C186.103 32.578 186.526 32.473 186.88 32.263C187.24 32.047 187.573 31.744 187.879 31.354V27.079ZM189.814 20.68V34H188.644C188.386 34 188.221 33.877 188.149 33.631L187.978 32.632C187.594 33.082 187.156 33.445 186.664 33.721C186.178 33.997 185.611 34.135 184.963 34.135C184.447 34.135 183.979 34.033 183.559 33.829C183.139 33.619 182.779 33.316 182.479 32.92C182.179 32.524 181.945 32.035 181.777 31.453C181.615 30.865 181.534 30.193 181.534 29.437C181.534 28.753 181.624 28.12 181.804 27.538C181.99 26.956 182.254 26.452 182.596 26.026C182.938 25.594 183.352 25.258 183.838 25.018C184.33 24.772 184.879 24.649 185.485 24.649C186.025 24.649 186.484 24.736 186.862 24.91C187.24 25.078 187.579 25.315 187.879 25.621V20.68H189.814ZM206.117 22.795H202.076V34H199.979V22.795H195.929V21.04H206.117V22.795ZM211.762 28.375C211.762 28.051 211.714 27.751 211.618 27.475C211.528 27.193 211.393 26.95 211.213 26.746C211.033 26.536 210.808 26.374 210.538 26.26C210.274 26.14 209.968 26.08 209.62 26.08C208.918 26.08 208.366 26.281 207.964 26.683C207.562 27.085 207.307 27.649 207.199 28.375H211.762ZM207.145 29.563C207.169 30.085 207.25 30.538 207.388 30.922C207.526 31.3 207.709 31.615 207.937 31.867C208.171 32.119 208.447 32.308 208.765 32.434C209.089 32.554 209.449 32.614 209.845 32.614C210.223 32.614 210.55 32.572 210.826 32.488C211.102 32.398 211.342 32.302 211.546 32.2C211.75 32.092 211.924 31.996 212.068 31.912C212.212 31.822 212.344 31.777 212.464 31.777C212.62 31.777 212.74 31.837 212.824 31.957L213.373 32.668C213.145 32.938 212.887 33.166 212.599 33.352C212.311 33.538 212.005 33.691 211.681 33.811C211.357 33.925 211.024 34.006 210.682 34.054C210.34 34.108 210.007 34.135 209.683 34.135C209.047 34.135 208.456 34.03 207.91 33.82C207.37 33.604 206.899 33.289 206.497 32.875C206.101 32.461 205.789 31.948 205.561 31.336C205.339 30.724 205.228 30.019 205.228 29.221C205.228 28.585 205.327 27.991 205.525 27.439C205.729 26.887 206.017 26.407 206.389 25.999C206.767 25.591 207.223 25.27 207.757 25.036C208.297 24.796 208.906 24.676 209.584 24.676C210.148 24.676 210.67 24.769 211.15 24.955C211.63 25.135 212.044 25.402 212.392 25.756C212.74 26.11 213.01 26.545 213.202 27.061C213.4 27.571 213.499 28.153 213.499 28.807C213.499 29.107 213.466 29.308 213.4 29.41C213.334 29.512 213.214 29.563 213.04 29.563H207.145ZM222.153 26.62C222.093 26.698 222.036 26.758 221.982 26.8C221.928 26.842 221.85 26.863 221.748 26.863C221.646 26.863 221.538 26.827 221.424 26.755C221.316 26.683 221.184 26.605 221.028 26.521C220.878 26.431 220.695 26.35 220.479 26.278C220.263 26.206 219.993 26.17 219.669 26.17C219.249 26.17 218.88 26.245 218.562 26.395C218.25 26.545 217.986 26.761 217.77 27.043C217.56 27.319 217.401 27.658 217.293 28.06C217.191 28.456 217.14 28.903 217.14 29.401C217.14 29.917 217.197 30.376 217.311 30.778C217.425 31.18 217.587 31.519 217.797 31.795C218.013 32.071 218.271 32.281 218.571 32.425C218.877 32.569 219.219 32.641 219.597 32.641C219.969 32.641 220.272 32.596 220.506 32.506C220.74 32.416 220.935 32.317 221.091 32.209C221.247 32.101 221.379 32.002 221.487 31.912C221.601 31.822 221.721 31.777 221.847 31.777C222.003 31.777 222.123 31.837 222.207 31.957L222.756 32.668C222.534 32.938 222.288 33.166 222.018 33.352C221.748 33.538 221.463 33.691 221.163 33.811C220.863 33.925 220.551 34.006 220.227 34.054C219.903 34.108 219.576 34.135 219.246 34.135C218.676 34.135 218.142 34.03 217.644 33.82C217.152 33.604 216.72 33.295 216.348 32.893C215.982 32.485 215.691 31.99 215.475 31.408C215.265 30.82 215.16 30.151 215.16 29.401C215.16 28.723 215.256 28.096 215.448 27.52C215.64 26.938 215.919 26.437 216.285 26.017C216.657 25.597 217.116 25.27 217.662 25.036C218.208 24.796 218.838 24.676 219.552 24.676C220.218 24.676 220.803 24.784 221.307 25C221.817 25.216 222.27 25.522 222.666 25.918L222.153 26.62ZM226.607 25.909C226.985 25.537 227.399 25.24 227.849 25.018C228.299 24.79 228.824 24.676 229.424 24.676C229.928 24.676 230.369 24.76 230.747 24.928C231.131 25.096 231.452 25.333 231.71 25.639C231.974 25.945 232.172 26.314 232.304 26.746C232.436 27.172 232.502 27.643 232.502 28.159V34H230.576V28.159C230.576 27.541 230.432 27.061 230.144 26.719C229.862 26.377 229.43 26.206 228.848 26.206C228.416 26.206 228.014 26.305 227.642 26.503C227.276 26.701 226.931 26.971 226.607 27.313V34H224.672V20.68H226.607V25.909ZM236.931 26.035C237.129 25.831 237.333 25.648 237.543 25.486C237.759 25.318 237.987 25.174 238.227 25.054C238.467 24.934 238.722 24.841 238.992 24.775C239.262 24.709 239.556 24.676 239.874 24.676C240.378 24.676 240.819 24.76 241.197 24.928C241.581 25.096 241.902 25.333 242.16 25.639C242.424 25.945 242.622 26.314 242.754 26.746C242.886 27.172 242.952 27.643 242.952 28.159V34H241.026V28.159C241.026 27.541 240.882 27.061 240.594 26.719C240.312 26.377 239.88 26.206 239.298 26.206C238.866 26.206 238.464 26.305 238.092 26.503C237.726 26.701 237.381 26.971 237.057 27.313V34H235.122V24.82H236.292C236.556 24.82 236.724 24.943 236.796 25.189L236.931 26.035ZM249.541 24.676C250.219 24.676 250.831 24.787 251.377 25.009C251.929 25.231 252.397 25.546 252.781 25.954C253.171 26.362 253.471 26.857 253.681 27.439C253.891 28.021 253.996 28.675 253.996 29.401C253.996 30.127 253.891 30.781 253.681 31.363C253.471 31.945 253.171 32.443 252.781 32.857C252.397 33.265 251.929 33.58 251.377 33.802C250.831 34.024 250.219 34.135 249.541 34.135C248.857 34.135 248.239 34.024 247.687 33.802C247.141 33.58 246.673 33.265 246.283 32.857C245.893 32.443 245.593 31.945 245.383 31.363C245.173 30.781 245.068 30.127 245.068 29.401C245.068 28.675 245.173 28.021 245.383 27.439C245.593 26.857 245.893 26.362 246.283 25.954C246.673 25.546 247.141 25.231 247.687 25.009C248.239 24.787 248.857 24.676 249.541 24.676ZM249.541 32.623C250.369 32.623 250.984 32.347 251.386 31.795C251.794 31.237 251.998 30.442 251.998 29.41C251.998 28.378 251.794 27.583 251.386 27.025C250.984 26.461 250.369 26.179 249.541 26.179C248.701 26.179 248.077 26.461 247.669 27.025C247.261 27.583 247.057 28.378 247.057 29.41C247.057 30.442 247.261 31.237 247.669 31.795C248.077 32.347 248.701 32.623 249.541 32.623ZM258.186 20.68V34H256.251V20.68H258.186ZM264.903 24.676C265.581 24.676 266.193 24.787 266.739 25.009C267.291 25.231 267.759 25.546 268.143 25.954C268.533 26.362 268.833 26.857 269.043 27.439C269.253 28.021 269.358 28.675 269.358 29.401C269.358 30.127 269.253 30.781 269.043 31.363C268.833 31.945 268.533 32.443 268.143 32.857C267.759 33.265 267.291 33.58 266.739 33.802C266.193 34.024 265.581 34.135 264.903 34.135C264.219 34.135 263.601 34.024 263.049 33.802C262.503 33.58 262.035 33.265 261.645 32.857C261.255 32.443 260.955 31.945 260.745 31.363C260.535 30.781 260.43 30.127 260.43 29.401C260.43 28.675 260.535 28.021 260.745 27.439C260.955 26.857 261.255 26.362 261.645 25.954C262.035 25.546 262.503 25.231 263.049 25.009C263.601 24.787 264.219 24.676 264.903 24.676ZM264.903 32.623C265.731 32.623 266.346 32.347 266.748 31.795C267.156 31.237 267.36 30.442 267.36 29.41C267.36 28.378 267.156 27.583 266.748 27.025C266.346 26.461 265.731 26.179 264.903 26.179C264.063 26.179 263.439 26.461 263.031 27.025C262.623 27.583 262.419 28.378 262.419 29.41C262.419 30.442 262.623 31.237 263.031 31.795C263.439 32.347 264.063 32.623 264.903 32.623ZM274.783 29.329C275.383 29.329 275.833 29.176 276.133 28.87C276.433 28.564 276.583 28.165 276.583 27.673C276.583 27.169 276.433 26.77 276.133 26.476C275.833 26.182 275.383 26.035 274.783 26.035C274.189 26.035 273.739 26.182 273.433 26.476C273.133 26.77 272.983 27.169 272.983 27.673C272.983 27.913 273.022 28.135 273.1 28.339C273.178 28.543 273.292 28.72 273.442 28.87C273.592 29.014 273.778 29.128 274 29.212C274.228 29.29 274.489 29.329 274.783 29.329ZM277.474 34.45C277.474 34.246 277.414 34.084 277.294 33.964C277.18 33.838 277.024 33.742 276.826 33.676C276.628 33.604 276.397 33.553 276.133 33.523C275.869 33.487 275.587 33.463 275.287 33.451C274.993 33.433 274.69 33.418 274.378 33.406C274.072 33.388 273.775 33.358 273.487 33.316C273.199 33.466 272.962 33.646 272.776 33.856C272.596 34.066 272.506 34.309 272.506 34.585C272.506 34.765 272.551 34.933 272.641 35.089C272.737 35.245 272.881 35.38 273.073 35.494C273.271 35.608 273.52 35.698 273.82 35.764C274.126 35.83 274.492 35.863 274.918 35.863C275.77 35.863 276.409 35.731 276.835 35.467C277.261 35.203 277.474 34.864 277.474 34.45ZM279.418 25.153V25.873C279.418 26.113 279.274 26.26 278.986 26.314L278.068 26.467C278.224 26.815 278.302 27.202 278.302 27.628C278.302 28.078 278.212 28.486 278.032 28.852C277.858 29.218 277.615 29.53 277.303 29.788C276.991 30.046 276.619 30.244 276.187 30.382C275.755 30.52 275.287 30.589 274.783 30.589C274.591 30.589 274.402 30.58 274.216 30.562C274.036 30.538 273.859 30.508 273.685 30.472C273.511 30.574 273.382 30.682 273.298 30.796C273.214 30.91 273.172 31.027 273.172 31.147C273.172 31.345 273.259 31.492 273.433 31.588C273.607 31.684 273.835 31.753 274.117 31.795C274.405 31.837 274.732 31.864 275.098 31.876C275.464 31.888 275.836 31.909 276.214 31.939C276.592 31.969 276.964 32.02 277.33 32.092C277.696 32.158 278.02 32.272 278.302 32.434C278.59 32.59 278.821 32.803 278.995 33.073C279.169 33.343 279.256 33.694 279.256 34.126C279.256 34.522 279.157 34.909 278.959 35.287C278.761 35.665 278.473 36.001 278.095 36.295C277.723 36.589 277.267 36.823 276.727 36.997C276.187 37.177 275.572 37.267 274.882 37.267C274.198 37.267 273.601 37.201 273.091 37.069C272.587 36.937 272.164 36.757 271.822 36.529C271.486 36.307 271.234 36.049 271.066 35.755C270.904 35.461 270.823 35.155 270.823 34.837C270.823 34.405 270.958 34.036 271.228 33.73C271.504 33.424 271.876 33.184 272.344 33.01C272.092 32.89 271.888 32.725 271.732 32.515C271.582 32.305 271.507 32.029 271.507 31.687C271.507 31.417 271.606 31.135 271.804 30.841C272.002 30.547 272.299 30.298 272.695 30.094C272.239 29.842 271.879 29.509 271.615 29.095C271.351 28.675 271.219 28.186 271.219 27.628C271.219 27.172 271.306 26.761 271.48 26.395C271.66 26.029 271.909 25.717 272.227 25.459C272.545 25.201 272.92 25.003 273.352 24.865C273.79 24.727 274.267 24.658 274.783 24.658C275.575 24.658 276.265 24.823 276.853 25.153H279.418ZM289.452 24.82L284.394 36.61C284.328 36.748 284.247 36.856 284.151 36.934C284.061 37.012 283.92 37.051 283.728 37.051H282.297L283.989 33.379L280.245 24.82H281.928C282.09 24.82 282.213 24.859 282.297 24.937C282.387 25.009 282.453 25.096 282.495 25.198L284.682 30.409C284.736 30.559 284.784 30.709 284.826 30.859C284.874 31.003 284.919 31.153 284.961 31.309C285.009 31.153 285.057 31 285.105 30.85C285.153 30.7 285.207 30.55 285.267 30.4L287.364 25.198C287.406 25.09 287.475 25 287.571 24.928C287.673 24.856 287.784 24.82 287.904 24.82H289.452ZM299.866 27.646C300.334 27.646 300.745 27.586 301.099 27.466C301.459 27.346 301.756 27.178 301.99 26.962C302.23 26.74 302.41 26.473 302.53 26.161C302.65 25.849 302.71 25.501 302.71 25.117C302.71 24.739 302.65 24.4 302.53 24.1C302.416 23.8 302.242 23.545 302.008 23.335C301.774 23.125 301.477 22.966 301.117 22.858C300.763 22.744 300.346 22.687 299.866 22.687H297.94V27.646H299.866ZM299.866 21.04C300.712 21.04 301.444 21.139 302.062 21.337C302.686 21.535 303.199 21.814 303.601 22.174C304.009 22.528 304.312 22.957 304.51 23.461C304.708 23.959 304.807 24.511 304.807 25.117C304.807 25.735 304.702 26.302 304.492 26.818C304.282 27.328 303.97 27.769 303.556 28.141C303.142 28.507 302.626 28.795 302.008 29.005C301.396 29.209 300.682 29.311 299.866 29.311H297.94V34H295.834V21.04H299.866ZM308.489 26.521C308.777 25.939 309.125 25.483 309.533 25.153C309.941 24.817 310.43 24.649 311 24.649C311.198 24.649 311.384 24.673 311.558 24.721C311.732 24.763 311.888 24.829 312.026 24.919L311.891 26.377C311.867 26.479 311.828 26.551 311.774 26.593C311.726 26.629 311.66 26.647 311.576 26.647C311.486 26.647 311.357 26.632 311.189 26.602C311.021 26.566 310.844 26.548 310.658 26.548C310.388 26.548 310.148 26.587 309.938 26.665C309.734 26.743 309.548 26.857 309.38 27.007C309.218 27.157 309.074 27.34 308.948 27.556C308.822 27.772 308.705 28.018 308.597 28.294V34H306.662V24.82H307.787C307.991 24.82 308.132 24.859 308.21 24.937C308.288 25.009 308.342 25.138 308.372 25.324L308.489 26.521ZM315.683 24.82V34H313.748V24.82H315.683ZM316.007 22.048C316.007 22.222 315.971 22.387 315.899 22.543C315.833 22.699 315.74 22.837 315.62 22.957C315.5 23.071 315.359 23.164 315.197 23.236C315.041 23.302 314.873 23.335 314.693 23.335C314.519 23.335 314.354 23.302 314.198 23.236C314.048 23.164 313.916 23.071 313.802 22.957C313.688 22.837 313.595 22.699 313.523 22.543C313.457 22.387 313.424 22.222 313.424 22.048C313.424 21.868 313.457 21.7 313.523 21.544C313.595 21.388 313.688 21.253 313.802 21.139C313.916 21.019 314.048 20.926 314.198 20.86C314.354 20.788 314.519 20.752 314.693 20.752C314.873 20.752 315.041 20.788 315.197 20.86C315.359 20.926 315.5 21.019 315.62 21.139C315.74 21.253 315.833 21.388 315.899 21.544C315.971 21.7 316.007 21.868 316.007 22.048ZM320.283 26.035C320.481 25.831 320.685 25.648 320.895 25.486C321.111 25.318 321.339 25.174 321.579 25.054C321.819 24.934 322.074 24.841 322.344 24.775C322.614 24.709 322.908 24.676 323.226 24.676C323.73 24.676 324.171 24.76 324.549 24.928C324.933 25.096 325.254 25.333 325.512 25.639C325.776 25.945 325.974 26.314 326.106 26.746C326.238 27.172 326.304 27.643 326.304 28.159V34H324.378V28.159C324.378 27.541 324.234 27.061 323.946 26.719C323.664 26.377 323.232 26.206 322.65 26.206C322.218 26.206 321.816 26.305 321.444 26.503C321.078 26.701 320.733 26.971 320.409 27.313V34H318.474V24.82H319.644C319.908 24.82 320.076 24.943 320.148 25.189L320.283 26.035ZM335.413 26.62C335.353 26.698 335.296 26.758 335.242 26.8C335.188 26.842 335.11 26.863 335.008 26.863C334.906 26.863 334.798 26.827 334.684 26.755C334.576 26.683 334.444 26.605 334.288 26.521C334.138 26.431 333.955 26.35 333.739 26.278C333.523 26.206 333.253 26.17 332.929 26.17C332.509 26.17 332.14 26.245 331.822 26.395C331.51 26.545 331.246 26.761 331.03 27.043C330.82 27.319 330.661 27.658 330.553 28.06C330.451 28.456 330.4 28.903 330.4 29.401C330.4 29.917 330.457 30.376 330.571 30.778C330.685 31.18 330.847 31.519 331.057 31.795C331.273 32.071 331.531 32.281 331.831 32.425C332.137 32.569 332.479 32.641 332.857 32.641C333.229 32.641 333.532 32.596 333.766 32.506C334 32.416 334.195 32.317 334.351 32.209C334.507 32.101 334.639 32.002 334.747 31.912C334.861 31.822 334.981 31.777 335.107 31.777C335.263 31.777 335.383 31.837 335.467 31.957L336.016 32.668C335.794 32.938 335.548 33.166 335.278 33.352C335.008 33.538 334.723 33.691 334.423 33.811C334.123 33.925 333.811 34.006 333.487 34.054C333.163 34.108 332.836 34.135 332.506 34.135C331.936 34.135 331.402 34.03 330.904 33.82C330.412 33.604 329.98 33.295 329.608 32.893C329.242 32.485 328.951 31.99 328.735 31.408C328.525 30.82 328.42 30.151 328.42 29.401C328.42 28.723 328.516 28.096 328.708 27.52C328.9 26.938 329.179 26.437 329.545 26.017C329.917 25.597 330.376 25.27 330.922 25.036C331.468 24.796 332.098 24.676 332.812 24.676C333.478 24.676 334.063 24.784 334.567 25C335.077 25.216 335.53 25.522 335.926 25.918L335.413 26.62ZM339.948 24.82V34H338.013V24.82H339.948ZM340.272 22.048C340.272 22.222 340.236 22.387 340.164 22.543C340.098 22.699 340.005 22.837 339.885 22.957C339.765 23.071 339.624 23.164 339.462 23.236C339.306 23.302 339.138 23.335 338.958 23.335C338.784 23.335 338.619 23.302 338.463 23.236C338.313 23.164 338.181 23.071 338.067 22.957C337.953 22.837 337.86 22.699 337.788 22.543C337.722 22.387 337.689 22.222 337.689 22.048C337.689 21.868 337.722 21.7 337.788 21.544C337.86 21.388 337.953 21.253 338.067 21.139C338.181 21.019 338.313 20.926 338.463 20.86C338.619 20.788 338.784 20.752 338.958 20.752C339.138 20.752 339.306 20.788 339.462 20.86C339.624 20.926 339.765 21.019 339.885 21.139C340.005 21.253 340.098 21.388 340.164 21.544C340.236 21.7 340.272 21.868 340.272 22.048ZM344.674 31.696C344.944 32.044 345.238 32.29 345.556 32.434C345.88 32.572 346.237 32.641 346.627 32.641C347.383 32.641 347.971 32.365 348.391 31.813C348.817 31.261 349.03 30.439 349.03 29.347C349.03 28.783 348.982 28.303 348.886 27.907C348.79 27.505 348.652 27.178 348.472 26.926C348.292 26.674 348.073 26.491 347.815 26.377C347.557 26.263 347.266 26.206 346.942 26.206C346.45 26.206 346.024 26.314 345.664 26.53C345.31 26.74 344.98 27.043 344.674 27.439V31.696ZM344.575 26.152C344.959 25.702 345.394 25.339 345.88 25.063C346.372 24.787 346.942 24.649 347.59 24.649C348.106 24.649 348.574 24.754 348.994 24.964C349.414 25.168 349.774 25.468 350.074 25.864C350.374 26.26 350.605 26.752 350.767 27.34C350.935 27.922 351.019 28.591 351.019 29.347C351.019 30.025 350.926 30.658 350.74 31.246C350.56 31.828 350.299 32.335 349.957 32.767C349.615 33.193 349.201 33.529 348.715 33.775C348.229 34.015 347.68 34.135 347.068 34.135C346.528 34.135 346.069 34.048 345.691 33.874C345.319 33.7 344.98 33.46 344.674 33.154V37.051H342.739V24.82H343.909C344.173 24.82 344.341 24.943 344.413 25.189L344.575 26.152ZM355.231 20.68V34H353.296V20.68H355.231ZM364 28.375C364 28.051 363.952 27.751 363.856 27.475C363.766 27.193 363.631 26.95 363.451 26.746C363.271 26.536 363.046 26.374 362.776 26.26C362.512 26.14 362.206 26.08 361.858 26.08C361.156 26.08 360.604 26.281 360.202 26.683C359.8 27.085 359.545 27.649 359.437 28.375H364ZM359.383 29.563C359.407 30.085 359.488 30.538 359.626 30.922C359.764 31.3 359.947 31.615 360.175 31.867C360.409 32.119 360.685 32.308 361.003 32.434C361.327 32.554 361.687 32.614 362.083 32.614C362.461 32.614 362.788 32.572 363.064 32.488C363.34 32.398 363.58 32.302 363.784 32.2C363.988 32.092 364.162 31.996 364.306 31.912C364.45 31.822 364.582 31.777 364.702 31.777C364.858 31.777 364.978 31.837 365.062 31.957L365.611 32.668C365.383 32.938 365.125 33.166 364.837 33.352C364.549 33.538 364.243 33.691 363.919 33.811C363.595 33.925 363.262 34.006 362.92 34.054C362.578 34.108 362.245 34.135 361.921 34.135C361.285 34.135 360.694 34.03 360.148 33.82C359.608 33.604 359.137 33.289 358.735 32.875C358.339 32.461 358.027 31.948 357.799 31.336C357.577 30.724 357.466 30.019 357.466 29.221C357.466 28.585 357.565 27.991 357.763 27.439C357.967 26.887 358.255 26.407 358.627 25.999C359.005 25.591 359.461 25.27 359.995 25.036C360.535 24.796 361.144 24.676 361.822 24.676C362.386 24.676 362.908 24.769 363.388 24.955C363.868 25.135 364.282 25.402 364.63 25.756C364.978 26.11 365.248 26.545 365.44 27.061C365.638 27.571 365.737 28.153 365.737 28.807C365.737 29.107 365.704 29.308 365.638 29.41C365.572 29.512 365.452 29.563 365.278 29.563H359.383ZM373.382 26.485C373.334 26.569 373.28 26.629 373.22 26.665C373.16 26.701 373.085 26.719 372.995 26.719C372.893 26.719 372.782 26.689 372.662 26.629C372.542 26.563 372.401 26.491 372.239 26.413C372.077 26.335 371.885 26.266 371.663 26.206C371.447 26.14 371.192 26.107 370.898 26.107C370.658 26.107 370.439 26.137 370.241 26.197C370.049 26.251 369.884 26.332 369.746 26.44C369.614 26.542 369.512 26.665 369.44 26.809C369.368 26.947 369.332 27.097 369.332 27.259C369.332 27.475 369.398 27.655 369.53 27.799C369.662 27.943 369.836 28.069 370.052 28.177C370.268 28.279 370.514 28.372 370.79 28.456C371.066 28.54 371.348 28.63 371.636 28.726C371.924 28.822 372.206 28.933 372.482 29.059C372.758 29.185 373.004 29.341 373.22 29.527C373.436 29.707 373.61 29.929 373.742 30.193C373.874 30.451 373.94 30.766 373.94 31.138C373.94 31.57 373.862 31.969 373.706 32.335C373.55 32.701 373.322 33.019 373.022 33.289C372.722 33.559 372.347 33.769 371.897 33.919C371.453 34.069 370.943 34.144 370.367 34.144C370.049 34.144 369.74 34.114 369.44 34.054C369.146 34 368.864 33.925 368.594 33.829C368.33 33.727 368.081 33.607 367.847 33.469C367.619 33.331 367.415 33.181 367.235 33.019L367.685 32.281C367.739 32.191 367.805 32.122 367.883 32.074C367.967 32.02 368.069 31.993 368.189 31.993C368.315 31.993 368.438 32.035 368.558 32.119C368.684 32.197 368.828 32.284 368.99 32.38C369.158 32.476 369.359 32.566 369.593 32.65C369.827 32.728 370.118 32.767 370.466 32.767C370.754 32.767 371.003 32.734 371.213 32.668C371.423 32.596 371.597 32.5 371.735 32.38C371.873 32.26 371.975 32.125 372.041 31.975C372.107 31.819 372.14 31.654 372.14 31.48C372.14 31.246 372.074 31.054 371.942 30.904C371.81 30.754 371.633 30.625 371.411 30.517C371.195 30.409 370.946 30.313 370.664 30.229C370.388 30.145 370.106 30.055 369.818 29.959C369.53 29.863 369.245 29.752 368.963 29.626C368.687 29.5 368.438 29.341 368.216 29.149C368 28.951 367.826 28.714 367.694 28.438C367.562 28.156 367.496 27.814 367.496 27.412C367.496 27.046 367.568 26.698 367.712 26.368C367.862 26.038 368.078 25.747 368.36 25.495C368.648 25.243 368.999 25.045 369.413 24.901C369.833 24.751 370.316 24.676 370.862 24.676C371.48 24.676 372.041 24.775 372.545 24.973C373.049 25.171 373.472 25.441 373.814 25.783L373.382 26.485Z" fill="#3C3C6F"/>
<defs>
<filter id="filter0_b_2002_2365" x="-30" y="-30" width="515" height="115" filterUnits="userSpaceOnUse" color-interpolation-filters="sRGB">
<feFlood flood-opacity="0" result="BackgroundImageFix"/>
<feGaussianBlur in="BackgroundImageFix" stdDeviation="15"/>
<feComposite in2="SourceAlpha" operator="in" result="effect1_backgroundBlur_2002_2365"/>
<feBlend mode="normal" in="SourceGraphic" in2="effect1_backgroundBlur_2002_2365" result="shape"/>
</filter>
<linearGradient id="paint0_linear_2002_2365" x1="32.124" y1="-8.82076" x2="195.498" y2="40.0365" gradientUnits="userSpaceOnUse">
<stop stop-color="white"/>
<stop offset="1" stop-color="white" stop-opacity="0"/>
</linearGradient>
</defs>
</svg>
