<svg width="454" height="407" viewBox="0 0 454 407" fill="none" xmlns="http://www.w3.org/2000/svg">
<g filter="url(#filter0_b_2002_2315)">
<path d="M0 16C0 7.16345 7.16344 0 16 0H438C446.837 0 454 7.16344 454 16V391C454 399.837 446.837 407 438 407H16C7.16346 407 0 399.837 0 391V16Z" fill="url(#paint0_linear_2002_2315)" fill-opacity="0.6"/>
<path d="M16 1H438C446.284 1 453 7.71573 453 16V391C453 399.284 446.284 406 438 406H16C7.71574 406 1 399.284 1 391V16C1 7.71574 7.71573 1 16 1Z" stroke="url(#paint1_linear_2002_2315)" stroke-width="2"/>
<path d="M16 1H438C446.284 1 453 7.71573 453 16V391C453 399.284 446.284 406 438 406H16C7.71574 406 1 399.284 1 391V16C1 7.71574 7.71573 1 16 1Z" stroke="url(#paint2_linear_2002_2315)" stroke-width="2"/>
</g>
<g filter="url(#filter1_b_2002_2315)">
<path d="M54 190C54 181.163 61.1634 174 70 174H384C392.837 174 400 181.163 400 190V391C400 399.837 392.837 407 384 407H70C61.1634 407 54 399.837 54 391V190Z" fill="url(#paint3_linear_2002_2315)" fill-opacity="0.6"/>
<path d="M70 175H384C392.284 175 399 181.716 399 190V391C399 399.284 392.284 406 384 406H70C61.7157 406 55 399.284 55 391V190C55 181.716 61.7157 175 70 175Z" stroke="url(#paint4_linear_2002_2315)" stroke-width="2"/>
<path d="M70 175H384C392.284 175 399 181.716 399 190V391C399 399.284 392.284 406 384 406H70C61.7157 406 55 399.284 55 391V190C55 181.716 61.7157 175 70 175Z" stroke="url(#paint5_linear_2002_2315)" stroke-width="2"/>
</g>
<g filter="url(#filter2_b_2002_2315)">
<path d="M54 190C54 181.163 61.1634 174 70 174H384C392.837 174 400 181.163 400 190V197C400 205.837 392.837 213 384 213H70C61.1634 213 54 205.837 54 197V190Z" fill="url(#paint6_linear_2002_2315)" fill-opacity="0.8"/>
<path d="M70 175H384C392.284 175 399 181.716 399 190V197C399 205.284 392.284 212 384 212H70C61.7157 212 55 205.284 55 197V190C55 181.716 61.7157 175 70 175Z" stroke="url(#paint7_linear_2002_2315)" stroke-width="2"/>
<path d="M70 175H384C392.284 175 399 181.716 399 190V197C399 205.284 392.284 212 384 212H70C61.7157 212 55 205.284 55 197V190C55 181.716 61.7157 175 70 175Z" stroke="url(#paint8_linear_2002_2315)" stroke-width="2"/>
</g>
<path d="M61.968 112.696V114H55.464V102.536H57.008V112.696H61.968ZM66.5046 105.768C67.0966 105.768 67.63 105.867 68.1046 106.064C68.5793 106.261 68.9846 106.541 69.3206 106.904C69.6566 107.267 69.9126 107.707 70.0886 108.224C70.27 108.736 70.3606 109.309 70.3606 109.944C70.3606 110.584 70.27 111.16 70.0886 111.672C69.9126 112.184 69.6566 112.621 69.3206 112.984C68.9846 113.347 68.5793 113.627 68.1046 113.824C67.63 114.016 67.0966 114.112 66.5046 114.112C65.9073 114.112 65.3686 114.016 64.8886 113.824C64.414 113.627 64.0086 113.347 63.6726 112.984C63.3366 112.621 63.078 112.184 62.8966 111.672C62.7206 111.16 62.6326 110.584 62.6326 109.944C62.6326 109.309 62.7206 108.736 62.8966 108.224C63.078 107.707 63.3366 107.267 63.6726 106.904C64.0086 106.541 64.414 106.261 64.8886 106.064C65.3686 105.867 65.9073 105.768 66.5046 105.768ZM66.5046 113C67.3046 113 67.902 112.733 68.2966 112.2C68.6913 111.661 68.8886 110.912 68.8886 109.952C68.8886 108.987 68.6913 108.235 68.2966 107.696C67.902 107.157 67.3046 106.888 66.5046 106.888C66.0993 106.888 65.7446 106.957 65.4406 107.096C65.142 107.235 64.8913 107.435 64.6886 107.696C64.4913 107.957 64.342 108.28 64.2406 108.664C64.1446 109.043 64.0966 109.472 64.0966 109.952C64.0966 110.912 64.294 111.661 64.6886 112.2C65.0886 112.733 65.694 113 66.5046 113ZM73.8387 107.52C74.0947 106.965 74.4094 106.533 74.7827 106.224C75.1561 105.909 75.6121 105.752 76.1507 105.752C76.3214 105.752 76.4841 105.771 76.6387 105.808C76.7987 105.845 76.9401 105.904 77.0627 105.984L76.9587 107.048C76.9267 107.181 76.8467 107.248 76.7187 107.248C76.6441 107.248 76.5347 107.232 76.3907 107.2C76.2467 107.168 76.0841 107.152 75.9027 107.152C75.6467 107.152 75.4174 107.189 75.2147 107.264C75.0174 107.339 74.8387 107.451 74.6787 107.6C74.5241 107.744 74.3827 107.925 74.2547 108.144C74.1321 108.357 74.0201 108.603 73.9187 108.88V114H72.4867V105.896H73.3027C73.4574 105.896 73.5641 105.925 73.6227 105.984C73.6814 106.043 73.7214 106.144 73.7427 106.288L73.8387 107.52ZM83.7307 109.064C83.7307 108.733 83.6827 108.432 83.5867 108.16C83.4961 107.883 83.3601 107.645 83.1787 107.448C83.0027 107.245 82.7867 107.091 82.5307 106.984C82.2747 106.872 81.9841 106.816 81.6587 106.816C80.9761 106.816 80.4347 107.016 80.0347 107.416C79.6401 107.811 79.3947 108.36 79.2987 109.064H83.7307ZM84.8827 112.864C84.7067 113.077 84.4961 113.264 84.2507 113.424C84.0054 113.579 83.7414 113.707 83.4587 113.808C83.1814 113.909 82.8934 113.984 82.5947 114.032C82.2961 114.085 82.0001 114.112 81.7067 114.112C81.1467 114.112 80.6294 114.019 80.1547 113.832C79.6854 113.64 79.2774 113.363 78.9307 113C78.5894 112.632 78.3227 112.179 78.1307 111.64C77.9387 111.101 77.8427 110.483 77.8427 109.784C77.8427 109.219 77.9281 108.691 78.0987 108.2C78.2747 107.709 78.5254 107.285 78.8507 106.928C79.1761 106.565 79.5734 106.283 80.0427 106.08C80.5121 105.872 81.0401 105.768 81.6267 105.768C82.1121 105.768 82.5601 105.851 82.9707 106.016C83.3867 106.176 83.7441 106.411 84.0427 106.72C84.3467 107.024 84.5841 107.403 84.7547 107.856C84.9254 108.304 85.0107 108.816 85.0107 109.392C85.0107 109.616 84.9867 109.765 84.9387 109.84C84.8907 109.915 84.8001 109.952 84.6667 109.952H79.2507C79.2667 110.464 79.3361 110.909 79.4587 111.288C79.5867 111.667 79.7627 111.984 79.9867 112.24C80.2107 112.491 80.4774 112.68 80.7867 112.808C81.0961 112.931 81.4427 112.992 81.8267 112.992C82.1841 112.992 82.4907 112.952 82.7467 112.872C83.0081 112.787 83.2321 112.696 83.4187 112.6C83.6054 112.504 83.7601 112.416 83.8827 112.336C84.0107 112.251 84.1201 112.208 84.2107 112.208C84.3281 112.208 84.4187 112.253 84.4827 112.344L84.8827 112.864ZM87.0799 114V105.896H87.9359C88.1385 105.896 88.2639 105.995 88.3119 106.192L88.4159 107.024C88.7145 106.656 89.0505 106.355 89.4239 106.12C89.7972 105.885 90.2292 105.768 90.7199 105.768C91.2639 105.768 91.7039 105.92 92.0399 106.224C92.3812 106.528 92.6265 106.939 92.7759 107.456C92.8932 107.163 93.0425 106.909 93.2239 106.696C93.4105 106.483 93.6185 106.307 93.8479 106.168C94.0772 106.029 94.3199 105.928 94.5759 105.864C94.8372 105.8 95.1012 105.768 95.3679 105.768C95.7945 105.768 96.1732 105.837 96.5039 105.976C96.8399 106.109 97.1225 106.307 97.3519 106.568C97.5865 106.829 97.7652 107.152 97.8879 107.536C98.0105 107.915 98.0719 108.349 98.0719 108.84V114H96.6399V108.84C96.6399 108.205 96.5012 107.725 96.2239 107.4C95.9465 107.069 95.5465 106.904 95.0239 106.904C94.7892 106.904 94.5652 106.947 94.3519 107.032C94.1439 107.112 93.9599 107.232 93.7999 107.392C93.6399 107.552 93.5119 107.755 93.4159 108C93.3252 108.24 93.2799 108.52 93.2799 108.84V114H91.8479V108.84C91.8479 108.189 91.7172 107.704 91.4559 107.384C91.1945 107.064 90.8132 106.904 90.3119 106.904C89.9599 106.904 89.6345 107 89.3359 107.192C89.0372 107.379 88.7625 107.635 88.5119 107.96V114H87.0799ZM106.858 114H105.306V102.536H106.858V114ZM111.081 112.048C111.343 112.4 111.628 112.648 111.937 112.792C112.247 112.936 112.593 113.008 112.977 113.008C113.735 113.008 114.316 112.739 114.721 112.2C115.127 111.661 115.329 110.893 115.329 109.896C115.329 109.368 115.281 108.915 115.185 108.536C115.095 108.157 114.961 107.848 114.785 107.608C114.609 107.363 114.393 107.184 114.137 107.072C113.881 106.96 113.591 106.904 113.265 106.904C112.801 106.904 112.393 107.011 112.041 107.224C111.695 107.437 111.375 107.739 111.081 108.128V112.048ZM111.009 107.152C111.351 106.731 111.745 106.392 112.193 106.136C112.641 105.88 113.153 105.752 113.729 105.752C114.199 105.752 114.623 105.843 115.001 106.024C115.38 106.2 115.703 106.464 115.969 106.816C116.236 107.163 116.441 107.595 116.585 108.112C116.729 108.629 116.801 109.224 116.801 109.896C116.801 110.493 116.721 111.051 116.561 111.568C116.401 112.08 116.169 112.525 115.865 112.904C115.567 113.277 115.199 113.573 114.761 113.792C114.329 114.005 113.841 114.112 113.297 114.112C112.801 114.112 112.375 114.029 112.017 113.864C111.665 113.693 111.353 113.459 111.081 113.16V116.744H109.649V105.896H110.505C110.708 105.896 110.833 105.995 110.881 106.192L111.009 107.152ZM123.658 107.232C123.594 107.349 123.495 107.408 123.362 107.408C123.282 107.408 123.191 107.379 123.09 107.32C122.989 107.261 122.863 107.197 122.714 107.128C122.57 107.053 122.397 106.987 122.194 106.928C121.991 106.864 121.751 106.832 121.474 106.832C121.234 106.832 121.018 106.864 120.826 106.928C120.634 106.987 120.469 107.069 120.33 107.176C120.197 107.283 120.093 107.408 120.018 107.552C119.949 107.691 119.914 107.843 119.914 108.008C119.914 108.216 119.973 108.389 120.09 108.528C120.213 108.667 120.373 108.787 120.57 108.888C120.767 108.989 120.991 109.08 121.242 109.16C121.493 109.235 121.749 109.317 122.01 109.408C122.277 109.493 122.535 109.589 122.786 109.696C123.037 109.803 123.261 109.936 123.458 110.096C123.655 110.256 123.813 110.453 123.93 110.688C124.053 110.917 124.114 111.195 124.114 111.52C124.114 111.893 124.047 112.24 123.914 112.56C123.781 112.875 123.583 113.149 123.322 113.384C123.061 113.613 122.741 113.795 122.362 113.928C121.983 114.061 121.546 114.128 121.05 114.128C120.485 114.128 119.973 114.037 119.514 113.856C119.055 113.669 118.666 113.432 118.346 113.144L118.682 112.6C118.725 112.531 118.775 112.477 118.834 112.44C118.893 112.403 118.967 112.384 119.058 112.384C119.154 112.384 119.255 112.421 119.362 112.496C119.469 112.571 119.597 112.653 119.746 112.744C119.901 112.835 120.087 112.917 120.306 112.992C120.525 113.067 120.797 113.104 121.122 113.104C121.399 113.104 121.642 113.069 121.85 113C122.058 112.925 122.231 112.827 122.37 112.704C122.509 112.581 122.61 112.44 122.674 112.28C122.743 112.12 122.778 111.949 122.778 111.768C122.778 111.544 122.717 111.36 122.594 111.216C122.477 111.067 122.319 110.941 122.122 110.84C121.925 110.733 121.698 110.643 121.442 110.568C121.191 110.488 120.933 110.405 120.666 110.32C120.405 110.235 120.146 110.139 119.89 110.032C119.639 109.92 119.415 109.781 119.218 109.616C119.021 109.451 118.861 109.248 118.738 109.008C118.621 108.763 118.562 108.467 118.562 108.12C118.562 107.811 118.626 107.515 118.754 107.232C118.882 106.944 119.069 106.693 119.314 106.48C119.559 106.261 119.861 106.088 120.218 105.96C120.575 105.832 120.983 105.768 121.442 105.768C121.975 105.768 122.453 105.853 122.874 106.024C123.301 106.189 123.669 106.419 123.978 106.712L123.658 107.232ZM132.844 105.896V114H131.996C131.793 114 131.665 113.901 131.612 113.704L131.5 112.832C131.148 113.221 130.753 113.536 130.316 113.776C129.879 114.011 129.377 114.128 128.812 114.128C128.369 114.128 127.977 114.056 127.636 113.912C127.3 113.763 127.017 113.555 126.788 113.288C126.559 113.021 126.385 112.699 126.268 112.32C126.156 111.941 126.1 111.523 126.1 111.064V105.896H127.524V111.064C127.524 111.677 127.663 112.152 127.94 112.488C128.223 112.824 128.652 112.992 129.228 112.992C129.649 112.992 130.041 112.893 130.404 112.696C130.772 112.493 131.111 112.216 131.42 111.864V105.896H132.844ZM135.422 114V105.896H136.278C136.48 105.896 136.606 105.995 136.654 106.192L136.758 107.024C137.056 106.656 137.392 106.355 137.766 106.12C138.139 105.885 138.571 105.768 139.062 105.768C139.606 105.768 140.046 105.92 140.382 106.224C140.723 106.528 140.968 106.939 141.118 107.456C141.235 107.163 141.384 106.909 141.566 106.696C141.752 106.483 141.96 106.307 142.19 106.168C142.419 106.029 142.662 105.928 142.918 105.864C143.179 105.8 143.443 105.768 143.71 105.768C144.136 105.768 144.515 105.837 144.846 105.976C145.182 106.109 145.464 106.307 145.694 106.568C145.928 106.829 146.107 107.152 146.23 107.536C146.352 107.915 146.414 108.349 146.414 108.84V114H144.982V108.84C144.982 108.205 144.843 107.725 144.566 107.4C144.288 107.069 143.888 106.904 143.366 106.904C143.131 106.904 142.907 106.947 142.694 107.032C142.486 107.112 142.302 107.232 142.142 107.392C141.982 107.552 141.854 107.755 141.758 108C141.667 108.24 141.622 108.52 141.622 108.84V114H140.19V108.84C140.19 108.189 140.059 107.704 139.798 107.384C139.536 107.064 139.155 106.904 138.654 106.904C138.302 106.904 137.976 107 137.678 107.192C137.379 107.379 137.104 107.635 136.854 107.96V114H135.422ZM154.816 105.896V114H153.392V105.896H154.816ZM155.12 103.352C155.12 103.491 155.09 103.621 155.032 103.744C154.978 103.861 154.904 103.968 154.808 104.064C154.717 104.155 154.608 104.227 154.48 104.28C154.357 104.333 154.226 104.36 154.088 104.36C153.949 104.36 153.818 104.333 153.696 104.28C153.578 104.227 153.474 104.155 153.384 104.064C153.293 103.968 153.221 103.861 153.168 103.744C153.114 103.621 153.088 103.491 153.088 103.352C153.088 103.213 153.114 103.083 153.168 102.96C153.221 102.832 153.293 102.723 153.384 102.632C153.474 102.536 153.578 102.461 153.696 102.408C153.818 102.355 153.949 102.328 154.088 102.328C154.226 102.328 154.357 102.355 154.48 102.408C154.608 102.461 154.717 102.536 154.808 102.632C154.904 102.723 154.978 102.832 155.032 102.96C155.09 103.083 155.12 103.213 155.12 103.352ZM162.196 107.232C162.132 107.349 162.033 107.408 161.9 107.408C161.82 107.408 161.729 107.379 161.628 107.32C161.526 107.261 161.401 107.197 161.252 107.128C161.108 107.053 160.934 106.987 160.732 106.928C160.529 106.864 160.289 106.832 160.012 106.832C159.772 106.832 159.556 106.864 159.364 106.928C159.172 106.987 159.006 107.069 158.868 107.176C158.734 107.283 158.63 107.408 158.556 107.552C158.486 107.691 158.452 107.843 158.452 108.008C158.452 108.216 158.51 108.389 158.628 108.528C158.75 108.667 158.91 108.787 159.108 108.888C159.305 108.989 159.529 109.08 159.78 109.16C160.03 109.235 160.286 109.317 160.548 109.408C160.814 109.493 161.073 109.589 161.324 109.696C161.574 109.803 161.798 109.936 161.996 110.096C162.193 110.256 162.35 110.453 162.468 110.688C162.59 110.917 162.652 111.195 162.652 111.52C162.652 111.893 162.585 112.24 162.452 112.56C162.318 112.875 162.121 113.149 161.86 113.384C161.598 113.613 161.278 113.795 160.9 113.928C160.521 114.061 160.084 114.128 159.588 114.128C159.022 114.128 158.51 114.037 158.052 113.856C157.593 113.669 157.204 113.432 156.884 113.144L157.22 112.6C157.262 112.531 157.313 112.477 157.372 112.44C157.43 112.403 157.505 112.384 157.596 112.384C157.692 112.384 157.793 112.421 157.9 112.496C158.006 112.571 158.134 112.653 158.284 112.744C158.438 112.835 158.625 112.917 158.844 112.992C159.062 113.067 159.334 113.104 159.66 113.104C159.937 113.104 160.18 113.069 160.388 113C160.596 112.925 160.769 112.827 160.908 112.704C161.046 112.581 161.148 112.44 161.212 112.28C161.281 112.12 161.316 111.949 161.316 111.768C161.316 111.544 161.254 111.36 161.132 111.216C161.014 111.067 160.857 110.941 160.66 110.84C160.462 110.733 160.236 110.643 159.98 110.568C159.729 110.488 159.47 110.405 159.204 110.32C158.942 110.235 158.684 110.139 158.428 110.032C158.177 109.92 157.953 109.781 157.756 109.616C157.558 109.451 157.398 109.248 157.276 109.008C157.158 108.763 157.1 108.467 157.1 108.12C157.1 107.811 157.164 107.515 157.292 107.232C157.42 106.944 157.606 106.693 157.852 106.48C158.097 106.261 158.398 106.088 158.756 105.96C159.113 105.832 159.521 105.768 159.98 105.768C160.513 105.768 160.99 105.853 161.412 106.024C161.838 106.189 162.206 106.419 162.516 106.712L162.196 107.232ZM173.851 107.232C173.787 107.349 173.688 107.408 173.555 107.408C173.475 107.408 173.384 107.379 173.283 107.32C173.182 107.261 173.056 107.197 172.907 107.128C172.763 107.053 172.59 106.987 172.387 106.928C172.184 106.864 171.944 106.832 171.667 106.832C171.427 106.832 171.211 106.864 171.019 106.928C170.827 106.987 170.662 107.069 170.523 107.176C170.39 107.283 170.286 107.408 170.211 107.552C170.142 107.691 170.107 107.843 170.107 108.008C170.107 108.216 170.166 108.389 170.283 108.528C170.406 108.667 170.566 108.787 170.763 108.888C170.96 108.989 171.184 109.08 171.435 109.16C171.686 109.235 171.942 109.317 172.203 109.408C172.47 109.493 172.728 109.589 172.979 109.696C173.23 109.803 173.454 109.936 173.651 110.096C173.848 110.256 174.006 110.453 174.123 110.688C174.246 110.917 174.307 111.195 174.307 111.52C174.307 111.893 174.24 112.24 174.107 112.56C173.974 112.875 173.776 113.149 173.515 113.384C173.254 113.613 172.934 113.795 172.555 113.928C172.176 114.061 171.739 114.128 171.243 114.128C170.678 114.128 170.166 114.037 169.707 113.856C169.248 113.669 168.859 113.432 168.539 113.144L168.875 112.6C168.918 112.531 168.968 112.477 169.027 112.44C169.086 112.403 169.16 112.384 169.251 112.384C169.347 112.384 169.448 112.421 169.555 112.496C169.662 112.571 169.79 112.653 169.939 112.744C170.094 112.835 170.28 112.917 170.499 112.992C170.718 113.067 170.99 113.104 171.315 113.104C171.592 113.104 171.835 113.069 172.043 113C172.251 112.925 172.424 112.827 172.563 112.704C172.702 112.581 172.803 112.44 172.867 112.28C172.936 112.12 172.971 111.949 172.971 111.768C172.971 111.544 172.91 111.36 172.787 111.216C172.67 111.067 172.512 110.941 172.315 110.84C172.118 110.733 171.891 110.643 171.635 110.568C171.384 110.488 171.126 110.405 170.859 110.32C170.598 110.235 170.339 110.139 170.083 110.032C169.832 109.92 169.608 109.781 169.411 109.616C169.214 109.451 169.054 109.248 168.931 109.008C168.814 108.763 168.755 108.467 168.755 108.12C168.755 107.811 168.819 107.515 168.947 107.232C169.075 106.944 169.262 106.693 169.507 106.48C169.752 106.261 170.054 106.088 170.411 105.96C170.768 105.832 171.176 105.768 171.635 105.768C172.168 105.768 172.646 105.853 173.067 106.024C173.494 106.189 173.862 106.419 174.171 106.712L173.851 107.232ZM177.877 105.896V114H176.453V105.896H177.877ZM178.181 103.352C178.181 103.491 178.152 103.621 178.093 103.744C178.04 103.861 177.965 103.968 177.869 104.064C177.778 104.155 177.669 104.227 177.541 104.28C177.418 104.333 177.288 104.36 177.149 104.36C177.01 104.36 176.88 104.333 176.757 104.28C176.64 104.227 176.536 104.155 176.445 104.064C176.354 103.968 176.282 103.861 176.229 103.744C176.176 103.621 176.149 103.491 176.149 103.352C176.149 103.213 176.176 103.083 176.229 102.96C176.282 102.832 176.354 102.723 176.445 102.632C176.536 102.536 176.64 102.461 176.757 102.408C176.88 102.355 177.01 102.328 177.149 102.328C177.288 102.328 177.418 102.355 177.541 102.408C177.669 102.461 177.778 102.536 177.869 102.632C177.965 102.723 178.04 102.832 178.093 102.96C178.152 103.083 178.181 103.213 178.181 103.352ZM180.537 114V105.896H181.393C181.595 105.896 181.721 105.995 181.769 106.192L181.873 107.024C182.171 106.656 182.507 106.355 182.881 106.12C183.254 105.885 183.686 105.768 184.177 105.768C184.721 105.768 185.161 105.92 185.497 106.224C185.838 106.528 186.083 106.939 186.233 107.456C186.35 107.163 186.499 106.909 186.681 106.696C186.867 106.483 187.075 106.307 187.305 106.168C187.534 106.029 187.777 105.928 188.033 105.864C188.294 105.8 188.558 105.768 188.825 105.768C189.251 105.768 189.63 105.837 189.961 105.976C190.297 106.109 190.579 106.307 190.809 106.568C191.043 106.829 191.222 107.152 191.345 107.536C191.467 107.915 191.529 108.349 191.529 108.84V114H190.097V108.84C190.097 108.205 189.958 107.725 189.681 107.4C189.403 107.069 189.003 106.904 188.481 106.904C188.246 106.904 188.022 106.947 187.809 107.032C187.601 107.112 187.417 107.232 187.257 107.392C187.097 107.552 186.969 107.755 186.873 108C186.782 108.24 186.737 108.52 186.737 108.84V114H185.305V108.84C185.305 108.189 185.174 107.704 184.913 107.384C184.651 107.064 184.27 106.904 183.769 106.904C183.417 106.904 183.091 107 182.793 107.192C182.494 107.379 182.219 107.635 181.969 107.96V114H180.537ZM195.445 112.048C195.706 112.4 195.992 112.648 196.301 112.792C196.61 112.936 196.957 113.008 197.341 113.008C198.098 113.008 198.68 112.739 199.085 112.2C199.49 111.661 199.693 110.893 199.693 109.896C199.693 109.368 199.645 108.915 199.549 108.536C199.458 108.157 199.325 107.848 199.149 107.608C198.973 107.363 198.757 107.184 198.501 107.072C198.245 106.96 197.954 106.904 197.629 106.904C197.165 106.904 196.757 107.011 196.405 107.224C196.058 107.437 195.738 107.739 195.445 108.128V112.048ZM195.373 107.152C195.714 106.731 196.109 106.392 196.557 106.136C197.005 105.88 197.517 105.752 198.093 105.752C198.562 105.752 198.986 105.843 199.365 106.024C199.744 106.2 200.066 106.464 200.333 106.816C200.6 107.163 200.805 107.595 200.949 108.112C201.093 108.629 201.165 109.224 201.165 109.896C201.165 110.493 201.085 111.051 200.925 111.568C200.765 112.08 200.533 112.525 200.229 112.904C199.93 113.277 199.562 113.573 199.125 113.792C198.693 114.005 198.205 114.112 197.661 114.112C197.165 114.112 196.738 114.029 196.381 113.864C196.029 113.693 195.717 113.459 195.445 113.16V116.744H194.013V105.896H194.869C195.072 105.896 195.197 105.995 195.245 106.192L195.373 107.152ZM204.774 102.216V114H203.35V102.216H204.774ZM214.395 105.896L209.875 116.392C209.827 116.499 209.766 116.584 209.691 116.648C209.622 116.712 209.512 116.744 209.363 116.744H208.307L209.787 113.528L206.443 105.896H207.675C207.798 105.896 207.894 105.928 207.963 105.992C208.038 106.051 208.088 106.117 208.115 106.192L210.283 111.296C210.368 111.52 210.44 111.755 210.499 112C210.574 111.749 210.654 111.512 210.739 111.288L212.843 106.192C212.875 106.107 212.928 106.037 213.003 105.984C213.083 105.925 213.171 105.896 213.267 105.896H214.395ZM225.276 107.824C225.009 107.467 224.721 107.219 224.412 107.08C224.103 106.936 223.756 106.864 223.372 106.864C222.62 106.864 222.041 107.133 221.636 107.672C221.231 108.211 221.028 108.979 221.028 109.976C221.028 110.504 221.073 110.957 221.164 111.336C221.255 111.709 221.388 112.019 221.564 112.264C221.74 112.504 221.956 112.68 222.212 112.792C222.468 112.904 222.759 112.96 223.084 112.96C223.553 112.96 223.961 112.853 224.308 112.64C224.66 112.427 224.983 112.125 225.276 111.736V107.824ZM226.7 102.216V114H225.852C225.649 114 225.521 113.901 225.468 113.704L225.34 112.72C224.993 113.136 224.599 113.472 224.156 113.728C223.713 113.984 223.201 114.112 222.62 114.112C222.156 114.112 221.735 114.024 221.356 113.848C220.977 113.667 220.655 113.403 220.388 113.056C220.121 112.709 219.916 112.277 219.772 111.76C219.628 111.243 219.556 110.648 219.556 109.976C219.556 109.379 219.636 108.824 219.796 108.312C219.956 107.795 220.185 107.347 220.484 106.968C220.783 106.589 221.148 106.293 221.58 106.08C222.017 105.861 222.508 105.752 223.052 105.752C223.548 105.752 223.972 105.837 224.324 106.008C224.681 106.173 224.999 106.405 225.276 106.704V102.216H226.7ZM235.933 105.896V114H235.085C234.883 114 234.755 113.901 234.701 113.704L234.589 112.832C234.237 113.221 233.843 113.536 233.405 113.776C232.968 114.011 232.467 114.128 231.901 114.128C231.459 114.128 231.067 114.056 230.725 113.912C230.389 113.763 230.107 113.555 229.877 113.288C229.648 113.021 229.475 112.699 229.357 112.32C229.245 111.941 229.189 111.523 229.189 111.064V105.896H230.613V111.064C230.613 111.677 230.752 112.152 231.029 112.488C231.312 112.824 231.741 112.992 232.317 112.992C232.739 112.992 233.131 112.893 233.493 112.696C233.861 112.493 234.2 112.216 234.509 111.864V105.896H235.933ZM238.511 114V105.896H239.367C239.57 105.896 239.695 105.995 239.743 106.192L239.847 107.024C240.146 106.656 240.482 106.355 240.855 106.12C241.228 105.885 241.66 105.768 242.151 105.768C242.695 105.768 243.135 105.92 243.471 106.224C243.812 106.528 244.058 106.939 244.207 107.456C244.324 107.163 244.474 106.909 244.655 106.696C244.842 106.483 245.05 106.307 245.279 106.168C245.508 106.029 245.751 105.928 246.007 105.864C246.268 105.8 246.532 105.768 246.799 105.768C247.226 105.768 247.604 105.837 247.935 105.976C248.271 106.109 248.554 106.307 248.783 106.568C249.018 106.829 249.196 107.152 249.319 107.536C249.442 107.915 249.503 108.349 249.503 108.84V114H248.071V108.84C248.071 108.205 247.932 107.725 247.655 107.4C247.378 107.069 246.978 106.904 246.455 106.904C246.22 106.904 245.996 106.947 245.783 107.032C245.575 107.112 245.391 107.232 245.231 107.392C245.071 107.552 244.943 107.755 244.847 108C244.756 108.24 244.711 108.52 244.711 108.84V114H243.279V108.84C243.279 108.189 243.148 107.704 242.887 107.384C242.626 107.064 242.244 106.904 241.743 106.904C241.391 106.904 241.066 107 240.767 107.192C240.468 107.379 240.194 107.635 239.943 107.96V114H238.511ZM251.987 114V105.896H252.843C253.046 105.896 253.171 105.995 253.219 106.192L253.323 107.024C253.622 106.656 253.958 106.355 254.331 106.12C254.705 105.885 255.137 105.768 255.627 105.768C256.171 105.768 256.611 105.92 256.947 106.224C257.289 106.528 257.534 106.939 257.683 107.456C257.801 107.163 257.95 106.909 258.131 106.696C258.318 106.483 258.526 106.307 258.755 106.168C258.985 106.029 259.227 105.928 259.483 105.864C259.745 105.8 260.009 105.768 260.275 105.768C260.702 105.768 261.081 105.837 261.411 105.976C261.747 106.109 262.03 106.307 262.259 106.568C262.494 106.829 262.673 107.152 262.795 107.536C262.918 107.915 262.979 108.349 262.979 108.84V114H261.547V108.84C261.547 108.205 261.409 107.725 261.131 107.4C260.854 107.069 260.454 106.904 259.931 106.904C259.697 106.904 259.473 106.947 259.259 107.032C259.051 107.112 258.867 107.232 258.707 107.392C258.547 107.552 258.419 107.755 258.323 108C258.233 108.24 258.187 108.52 258.187 108.84V114H256.755V108.84C256.755 108.189 256.625 107.704 256.363 107.384C256.102 107.064 255.721 106.904 255.219 106.904C254.867 106.904 254.542 107 254.243 107.192C253.945 107.379 253.67 107.635 253.419 107.96V114H251.987ZM272.253 105.896L267.733 116.392C267.685 116.499 267.623 116.584 267.549 116.648C267.479 116.712 267.37 116.744 267.221 116.744H266.165L267.645 113.528L264.301 105.896H265.533C265.655 105.896 265.751 105.928 265.821 105.992C265.895 106.051 265.946 106.117 265.973 106.192L268.141 111.296C268.226 111.52 268.298 111.755 268.357 112C268.431 111.749 268.511 111.512 268.597 111.288L270.701 106.192C270.733 106.107 270.786 106.037 270.861 105.984C270.941 105.925 271.029 105.896 271.125 105.896H272.253ZM280.342 114.128C279.702 114.128 279.208 113.949 278.862 113.592C278.52 113.235 278.35 112.72 278.35 112.048V107.088H277.374C277.288 107.088 277.216 107.064 277.158 107.016C277.099 106.963 277.07 106.883 277.07 106.776V106.208L278.398 106.04L278.726 103.536C278.742 103.456 278.776 103.392 278.83 103.344C278.888 103.291 278.963 103.264 279.054 103.264H279.774V106.056H282.118V107.088H279.774V111.952C279.774 112.293 279.856 112.547 280.022 112.712C280.187 112.877 280.4 112.96 280.662 112.96C280.811 112.96 280.939 112.941 281.046 112.904C281.158 112.861 281.254 112.816 281.334 112.768C281.414 112.72 281.48 112.677 281.534 112.64C281.592 112.597 281.643 112.576 281.686 112.576C281.76 112.576 281.827 112.621 281.886 112.712L282.302 113.392C282.056 113.621 281.76 113.803 281.414 113.936C281.067 114.064 280.71 114.128 280.342 114.128ZM289.285 109.064C289.285 108.733 289.237 108.432 289.141 108.16C289.05 107.883 288.914 107.645 288.733 107.448C288.557 107.245 288.341 107.091 288.085 106.984C287.829 106.872 287.538 106.816 287.213 106.816C286.53 106.816 285.989 107.016 285.589 107.416C285.194 107.811 284.949 108.36 284.853 109.064H289.285ZM290.437 112.864C290.261 113.077 290.05 113.264 289.805 113.424C289.56 113.579 289.296 113.707 289.013 113.808C288.736 113.909 288.448 113.984 288.149 114.032C287.85 114.085 287.554 114.112 287.261 114.112C286.701 114.112 286.184 114.019 285.709 113.832C285.24 113.64 284.832 113.363 284.485 113C284.144 112.632 283.877 112.179 283.685 111.64C283.493 111.101 283.397 110.483 283.397 109.784C283.397 109.219 283.482 108.691 283.653 108.2C283.829 107.709 284.08 107.285 284.405 106.928C284.73 106.565 285.128 106.283 285.597 106.08C286.066 105.872 286.594 105.768 287.181 105.768C287.666 105.768 288.114 105.851 288.525 106.016C288.941 106.176 289.298 106.411 289.597 106.72C289.901 107.024 290.138 107.403 290.309 107.856C290.48 108.304 290.565 108.816 290.565 109.392C290.565 109.616 290.541 109.765 290.493 109.84C290.445 109.915 290.354 109.952 290.221 109.952H284.805C284.821 110.464 284.89 110.909 285.013 111.288C285.141 111.667 285.317 111.984 285.541 112.24C285.765 112.491 286.032 112.68 286.341 112.808C286.65 112.931 286.997 112.992 287.381 112.992C287.738 112.992 288.045 112.952 288.301 112.872C288.562 112.787 288.786 112.696 288.973 112.6C289.16 112.504 289.314 112.416 289.437 112.336C289.565 112.251 289.674 112.208 289.765 112.208C289.882 112.208 289.973 112.253 290.037 112.344L290.437 112.864ZM299.181 114H297.813C297.696 114 297.602 113.971 297.533 113.912C297.469 113.848 297.416 113.779 297.373 113.704L295.333 110.528C295.312 110.603 295.288 110.677 295.261 110.752C295.24 110.821 295.208 110.885 295.165 110.944L293.277 113.704C293.224 113.779 293.165 113.848 293.101 113.912C293.042 113.971 292.96 114 292.853 114H291.581L294.421 109.84L291.693 105.896H293.061C293.178 105.896 293.264 105.915 293.317 105.952C293.37 105.989 293.418 106.043 293.461 106.112L295.453 109.152C295.496 108.997 295.562 108.848 295.653 108.704L297.397 106.144C297.445 106.069 297.496 106.011 297.549 105.968C297.608 105.92 297.677 105.896 297.757 105.896H299.069L296.341 109.768L299.181 114ZM303.302 114.128C302.662 114.128 302.168 113.949 301.822 113.592C301.48 113.235 301.31 112.72 301.31 112.048V107.088H300.334C300.248 107.088 300.176 107.064 300.118 107.016C300.059 106.963 300.03 106.883 300.03 106.776V106.208L301.358 106.04L301.686 103.536C301.702 103.456 301.736 103.392 301.79 103.344C301.848 103.291 301.923 103.264 302.014 103.264H302.734V106.056H305.078V107.088H302.734V111.952C302.734 112.293 302.816 112.547 302.982 112.712C303.147 112.877 303.36 112.96 303.622 112.96C303.771 112.96 303.899 112.941 304.006 112.904C304.118 112.861 304.214 112.816 304.294 112.768C304.374 112.72 304.44 112.677 304.494 112.64C304.552 112.597 304.603 112.576 304.646 112.576C304.72 112.576 304.787 112.621 304.846 112.712L305.262 113.392C305.016 113.621 304.72 113.803 304.374 113.936C304.027 114.064 303.67 114.128 303.302 114.128ZM314.698 105.768C315.29 105.768 315.823 105.867 316.298 106.064C316.772 106.261 317.178 106.541 317.514 106.904C317.85 107.267 318.106 107.707 318.282 108.224C318.463 108.736 318.554 109.309 318.554 109.944C318.554 110.584 318.463 111.16 318.282 111.672C318.106 112.184 317.85 112.621 317.514 112.984C317.178 113.347 316.772 113.627 316.298 113.824C315.823 114.016 315.29 114.112 314.698 114.112C314.1 114.112 313.562 114.016 313.082 113.824C312.607 113.627 312.202 113.347 311.866 112.984C311.53 112.621 311.271 112.184 311.09 111.672C310.914 111.16 310.826 110.584 310.826 109.944C310.826 109.309 310.914 108.736 311.09 108.224C311.271 107.707 311.53 107.267 311.866 106.904C312.202 106.541 312.607 106.261 313.082 106.064C313.562 105.867 314.1 105.768 314.698 105.768ZM314.698 113C315.498 113 316.095 112.733 316.49 112.2C316.884 111.661 317.082 110.912 317.082 109.952C317.082 108.987 316.884 108.235 316.49 107.696C316.095 107.157 315.498 106.888 314.698 106.888C314.292 106.888 313.938 106.957 313.634 107.096C313.335 107.235 313.084 107.435 312.882 107.696C312.684 107.957 312.535 108.28 312.434 108.664C312.338 109.043 312.29 109.472 312.29 109.952C312.29 110.912 312.487 111.661 312.882 112.2C313.282 112.733 313.887 113 314.698 113ZM321.036 114V107.112L320.14 107.008C320.028 106.981 319.935 106.941 319.86 106.888C319.791 106.829 319.756 106.747 319.756 106.64V106.056H321.036V105.272C321.036 104.808 321.1 104.397 321.228 104.04C321.361 103.677 321.548 103.373 321.788 103.128C322.033 102.877 322.327 102.688 322.668 102.56C323.009 102.432 323.393 102.368 323.82 102.368C324.183 102.368 324.516 102.421 324.82 102.528L324.788 103.24C324.777 103.368 324.705 103.437 324.572 103.448C324.444 103.459 324.271 103.464 324.052 103.464C323.807 103.464 323.583 103.496 323.38 103.56C323.183 103.624 323.012 103.728 322.868 103.872C322.724 104.016 322.612 104.205 322.532 104.44C322.457 104.675 322.42 104.965 322.42 105.312V106.056H324.756V107.088H322.468V114H321.036ZM57.616 138.128C56.976 138.128 56.4827 137.949 56.136 137.592C55.7947 137.235 55.624 136.72 55.624 136.048V131.088H54.648C54.5627 131.088 54.4907 131.064 54.432 131.016C54.3733 130.963 54.344 130.883 54.344 130.776V130.208L55.672 130.04L56 127.536C56.016 127.456 56.0507 127.392 56.104 127.344C56.1627 127.291 56.2373 127.264 56.328 127.264H57.048V130.056H59.392V131.088H57.048V135.952C57.048 136.293 57.1307 136.547 57.296 136.712C57.4613 136.877 57.6747 136.96 57.936 136.96C58.0853 136.96 58.2133 136.941 58.32 136.904C58.432 136.861 58.528 136.816 58.608 136.768C58.688 136.72 58.7547 136.677 58.808 136.64C58.8667 136.597 58.9173 136.576 58.96 136.576C59.0347 136.576 59.1013 136.621 59.16 136.712L59.576 137.392C59.3307 137.621 59.0347 137.803 58.688 137.936C58.3413 138.064 57.984 138.128 57.616 138.128ZM62.6144 130.976C62.961 130.608 63.345 130.315 63.7664 130.096C64.1877 129.877 64.673 129.768 65.2224 129.768C65.665 129.768 66.0544 129.843 66.3904 129.992C66.7317 130.136 67.0144 130.344 67.2384 130.616C67.4677 130.883 67.641 131.205 67.7584 131.584C67.8757 131.963 67.9344 132.381 67.9344 132.84V138H66.5024V132.84C66.5024 132.227 66.361 131.752 66.0784 131.416C65.801 131.075 65.377 130.904 64.8064 130.904C64.385 130.904 63.9904 131.005 63.6224 131.208C63.2597 131.411 62.9237 131.685 62.6144 132.032V138H61.1824V126.216H62.6144V130.976ZM75.8483 133.064C75.8483 132.733 75.8003 132.432 75.7043 132.16C75.6136 131.883 75.4776 131.645 75.2963 131.448C75.1203 131.245 74.9043 131.091 74.6483 130.984C74.3923 130.872 74.1016 130.816 73.7763 130.816C73.0936 130.816 72.5523 131.016 72.1523 131.416C71.7576 131.811 71.5123 132.36 71.4163 133.064H75.8483ZM77.0003 136.864C76.8243 137.077 76.6136 137.264 76.3683 137.424C76.1229 137.579 75.8589 137.707 75.5763 137.808C75.2989 137.909 75.0109 137.984 74.7123 138.032C74.4136 138.085 74.1176 138.112 73.8243 138.112C73.2643 138.112 72.7469 138.019 72.2723 137.832C71.8029 137.64 71.3949 137.363 71.0483 137C70.7069 136.632 70.4403 136.179 70.2483 135.64C70.0563 135.101 69.9603 134.483 69.9603 133.784C69.9603 133.219 70.0456 132.691 70.2163 132.2C70.3923 131.709 70.6429 131.285 70.9683 130.928C71.2936 130.565 71.6909 130.283 72.1603 130.08C72.6296 129.872 73.1576 129.768 73.7443 129.768C74.2296 129.768 74.6776 129.851 75.0883 130.016C75.5043 130.176 75.8616 130.411 76.1603 130.72C76.4643 131.024 76.7016 131.403 76.8723 131.856C77.0429 132.304 77.1283 132.816 77.1283 133.392C77.1283 133.616 77.1043 133.765 77.0563 133.84C77.0083 133.915 76.9176 133.952 76.7843 133.952H71.3683C71.3843 134.464 71.4536 134.909 71.5763 135.288C71.7043 135.667 71.8803 135.984 72.1043 136.24C72.3283 136.491 72.5949 136.68 72.9043 136.808C73.2136 136.931 73.5603 136.992 73.9443 136.992C74.3016 136.992 74.6083 136.952 74.8643 136.872C75.1256 136.787 75.3496 136.696 75.5363 136.6C75.7229 136.504 75.8776 136.416 76.0003 136.336C76.1283 136.251 76.2376 136.208 76.3283 136.208C76.4456 136.208 76.5363 136.253 76.6003 136.344L77.0003 136.864ZM85.0431 136.048C85.3045 136.4 85.5898 136.648 85.8991 136.792C86.2085 136.936 86.5551 137.008 86.9391 137.008C87.6965 137.008 88.2778 136.739 88.6831 136.2C89.0885 135.661 89.2911 134.893 89.2911 133.896C89.2911 133.368 89.2431 132.915 89.1471 132.536C89.0565 132.157 88.9231 131.848 88.7471 131.608C88.5711 131.363 88.3551 131.184 88.0991 131.072C87.8431 130.96 87.5525 130.904 87.2271 130.904C86.7631 130.904 86.3551 131.011 86.0031 131.224C85.6565 131.437 85.3365 131.739 85.0431 132.128V136.048ZM84.9711 131.152C85.3125 130.731 85.7071 130.392 86.1551 130.136C86.6031 129.88 87.1151 129.752 87.6911 129.752C88.1605 129.752 88.5845 129.843 88.9631 130.024C89.3418 130.2 89.6645 130.464 89.9311 130.816C90.1978 131.163 90.4031 131.595 90.5471 132.112C90.6911 132.629 90.7631 133.224 90.7631 133.896C90.7631 134.493 90.6831 135.051 90.5231 135.568C90.3631 136.08 90.1311 136.525 89.8271 136.904C89.5285 137.277 89.1605 137.573 88.7231 137.792C88.2911 138.005 87.8031 138.112 87.2591 138.112C86.7631 138.112 86.3365 138.029 85.9791 137.864C85.6271 137.693 85.3151 137.459 85.0431 137.16V140.744H83.6111V129.896H84.4671C84.6698 129.896 84.7951 129.995 84.8431 130.192L84.9711 131.152ZM94.2519 131.52C94.5079 130.965 94.8225 130.533 95.1959 130.224C95.5692 129.909 96.0252 129.752 96.5639 129.752C96.7345 129.752 96.8972 129.771 97.0519 129.808C97.2119 129.845 97.3532 129.904 97.4759 129.984L97.3719 131.048C97.3399 131.181 97.2599 131.248 97.1319 131.248C97.0572 131.248 96.9479 131.232 96.8039 131.2C96.6599 131.168 96.4972 131.152 96.3159 131.152C96.0599 131.152 95.8305 131.189 95.6279 131.264C95.4305 131.339 95.2519 131.451 95.0919 131.6C94.9372 131.744 94.7959 131.925 94.6679 132.144C94.5452 132.357 94.4332 132.603 94.3319 132.88V138H92.8999V129.896H93.7159C93.8705 129.896 93.9772 129.925 94.0359 129.984C94.0945 130.043 94.1345 130.144 94.1559 130.288L94.2519 131.52ZM100.552 129.896V138H99.128V129.896H100.552ZM100.856 127.352C100.856 127.491 100.827 127.621 100.768 127.744C100.715 127.861 100.64 127.968 100.544 128.064C100.453 128.155 100.344 128.227 100.216 128.28C100.093 128.333 99.9627 128.36 99.824 128.36C99.6853 128.36 99.5547 128.333 99.432 128.28C99.3147 128.227 99.2107 128.155 99.12 128.064C99.0293 127.968 98.9573 127.861 98.904 127.744C98.8507 127.621 98.824 127.491 98.824 127.352C98.824 127.213 98.8507 127.083 98.904 126.96C98.9573 126.832 99.0293 126.723 99.12 126.632C99.2107 126.536 99.3147 126.461 99.432 126.408C99.5547 126.355 99.6853 126.328 99.824 126.328C99.9627 126.328 100.093 126.355 100.216 126.408C100.344 126.461 100.453 126.536 100.544 126.632C100.64 126.723 100.715 126.832 100.768 126.96C100.827 127.083 100.856 127.213 100.856 127.352ZM104.556 131.072C104.732 130.875 104.918 130.696 105.116 130.536C105.313 130.376 105.521 130.24 105.74 130.128C105.964 130.011 106.198 129.923 106.444 129.864C106.694 129.8 106.964 129.768 107.252 129.768C107.694 129.768 108.084 129.843 108.42 129.992C108.761 130.136 109.044 130.344 109.268 130.616C109.497 130.883 109.67 131.205 109.788 131.584C109.905 131.963 109.964 132.381 109.964 132.84V138H108.532V132.84C108.532 132.227 108.39 131.752 108.108 131.416C107.83 131.075 107.406 130.904 106.836 130.904C106.414 130.904 106.02 131.005 105.652 131.208C105.289 131.411 104.953 131.685 104.644 132.032V138H103.212V129.896H104.068C104.27 129.896 104.396 129.995 104.444 130.192L104.556 131.072ZM119.864 138H118.44V131.088H114.264V135.952C114.264 136.293 114.347 136.547 114.512 136.712C114.678 136.877 114.891 136.96 115.152 136.96C115.302 136.96 115.43 136.941 115.536 136.904C115.648 136.861 115.744 136.816 115.824 136.768C115.904 136.72 115.971 136.677 116.024 136.64C116.083 136.597 116.134 136.576 116.176 136.576C116.251 136.576 116.318 136.621 116.376 136.712L116.792 137.392C116.547 137.621 116.251 137.803 115.904 137.936C115.558 138.064 115.2 138.128 114.832 138.128C114.192 138.128 113.699 137.949 113.352 137.592C113.011 137.235 112.84 136.72 112.84 136.048V131.088H111.864C111.779 131.088 111.707 131.064 111.648 131.016C111.59 130.963 111.56 130.883 111.56 130.776V130.208L112.888 130.032L113.216 127.536C113.232 127.456 113.267 127.392 113.32 127.344C113.379 127.291 113.454 127.264 113.544 127.264H114.264V130.056H119.864V138ZM120.216 127.296C120.216 127.435 120.187 127.565 120.128 127.688C120.075 127.805 120 127.909 119.904 128C119.814 128.091 119.707 128.163 119.584 128.216C119.462 128.269 119.331 128.296 119.192 128.296C119.054 128.296 118.923 128.269 118.8 128.216C118.683 128.163 118.579 128.091 118.488 128C118.398 127.909 118.326 127.805 118.272 127.688C118.219 127.565 118.192 127.435 118.192 127.296C118.192 127.157 118.219 127.027 118.272 126.904C118.326 126.776 118.398 126.667 118.488 126.576C118.579 126.48 118.683 126.405 118.8 126.352C118.923 126.299 119.054 126.272 119.192 126.272C119.331 126.272 119.462 126.299 119.584 126.352C119.707 126.405 119.814 126.48 119.904 126.576C120 126.667 120.075 126.776 120.128 126.904C120.187 127.027 120.216 127.157 120.216 127.296ZM123.868 131.072C124.044 130.875 124.23 130.696 124.428 130.536C124.625 130.376 124.833 130.24 125.052 130.128C125.276 130.011 125.51 129.923 125.756 129.864C126.006 129.8 126.276 129.768 126.564 129.768C127.006 129.768 127.396 129.843 127.732 129.992C128.073 130.136 128.356 130.344 128.58 130.616C128.809 130.883 128.982 131.205 129.1 131.584C129.217 131.963 129.276 132.381 129.276 132.84V138H127.844V132.84C127.844 132.227 127.702 131.752 127.42 131.416C127.142 131.075 126.718 130.904 126.148 130.904C125.726 130.904 125.332 131.005 124.964 131.208C124.601 131.411 124.265 131.685 123.956 132.032V138H122.524V129.896H123.38C123.582 129.896 123.708 129.995 123.756 130.192L123.868 131.072ZM134.589 134.04C134.877 134.04 135.131 134 135.349 133.92C135.568 133.84 135.752 133.728 135.901 133.584C136.051 133.44 136.163 133.269 136.237 133.072C136.312 132.869 136.349 132.648 136.349 132.408C136.349 131.912 136.197 131.517 135.893 131.224C135.595 130.931 135.16 130.784 134.589 130.784C134.013 130.784 133.573 130.931 133.269 131.224C132.971 131.517 132.821 131.912 132.821 132.408C132.821 132.648 132.859 132.869 132.933 133.072C133.013 133.269 133.128 133.44 133.277 133.584C133.427 133.728 133.611 133.84 133.829 133.92C134.048 134 134.301 134.04 134.589 134.04ZM137.157 138.44C137.157 138.243 137.101 138.083 136.989 137.96C136.877 137.837 136.725 137.741 136.533 137.672C136.347 137.603 136.128 137.555 135.877 137.528C135.627 137.496 135.36 137.472 135.077 137.456C134.8 137.44 134.517 137.424 134.229 137.408C133.941 137.392 133.664 137.365 133.397 137.328C133.099 137.467 132.853 137.643 132.661 137.856C132.475 138.064 132.381 138.309 132.381 138.592C132.381 138.773 132.427 138.941 132.517 139.096C132.613 139.256 132.757 139.392 132.949 139.504C133.141 139.621 133.381 139.712 133.669 139.776C133.963 139.845 134.307 139.88 134.701 139.88C135.085 139.88 135.429 139.845 135.733 139.776C136.037 139.707 136.293 139.608 136.501 139.48C136.715 139.352 136.877 139.2 136.989 139.024C137.101 138.848 137.157 138.653 137.157 138.44ZM138.605 130.216V130.744C138.605 130.92 138.493 131.032 138.269 131.08L137.349 131.2C137.531 131.552 137.621 131.941 137.621 132.368C137.621 132.763 137.544 133.123 137.389 133.448C137.24 133.768 137.032 134.043 136.765 134.272C136.499 134.501 136.179 134.677 135.805 134.8C135.432 134.923 135.027 134.984 134.589 134.984C134.211 134.984 133.853 134.939 133.517 134.848C133.347 134.955 133.216 135.069 133.125 135.192C133.035 135.309 132.989 135.429 132.989 135.552C132.989 135.744 133.067 135.891 133.221 135.992C133.381 136.088 133.589 136.157 133.845 136.2C134.101 136.243 134.392 136.269 134.717 136.28C135.048 136.291 135.384 136.309 135.725 136.336C136.072 136.357 136.408 136.397 136.733 136.456C137.064 136.515 137.357 136.611 137.613 136.744C137.869 136.877 138.075 137.061 138.229 137.296C138.389 137.531 138.469 137.835 138.469 138.208C138.469 138.555 138.381 138.891 138.205 139.216C138.035 139.541 137.787 139.829 137.461 140.08C137.136 140.336 136.736 140.539 136.261 140.688C135.792 140.843 135.261 140.92 134.669 140.92C134.077 140.92 133.56 140.861 133.117 140.744C132.675 140.627 132.307 140.469 132.013 140.272C131.72 140.075 131.499 139.845 131.349 139.584C131.205 139.328 131.133 139.059 131.133 138.776C131.133 138.376 131.259 138.037 131.509 137.76C131.76 137.483 132.104 137.261 132.541 137.096C132.301 136.989 132.109 136.848 131.965 136.672C131.827 136.491 131.757 136.248 131.757 135.944C131.757 135.827 131.779 135.707 131.821 135.584C131.864 135.456 131.928 135.331 132.013 135.208C132.104 135.08 132.213 134.96 132.341 134.848C132.469 134.736 132.619 134.637 132.789 134.552C132.389 134.328 132.077 134.032 131.853 133.664C131.629 133.291 131.517 132.859 131.517 132.368C131.517 131.973 131.592 131.616 131.741 131.296C131.896 130.971 132.109 130.696 132.381 130.472C132.653 130.243 132.976 130.067 133.349 129.944C133.728 129.821 134.141 129.76 134.589 129.76C134.941 129.76 135.269 129.8 135.573 129.88C135.877 129.955 136.155 130.067 136.405 130.216H138.605ZM149.204 134.352C148.548 134.373 147.988 134.427 147.524 134.512C147.065 134.592 146.689 134.699 146.396 134.832C146.108 134.965 145.897 135.123 145.764 135.304C145.636 135.485 145.572 135.688 145.572 135.912C145.572 136.125 145.606 136.309 145.676 136.464C145.745 136.619 145.838 136.747 145.956 136.848C146.078 136.944 146.22 137.016 146.38 137.064C146.545 137.107 146.721 137.128 146.908 137.128C147.158 137.128 147.388 137.104 147.596 137.056C147.804 137.003 147.998 136.928 148.18 136.832C148.366 136.736 148.542 136.621 148.708 136.488C148.878 136.355 149.044 136.203 149.204 136.032V134.352ZM144.604 131.04C145.052 130.608 145.534 130.285 146.052 130.072C146.569 129.859 147.142 129.752 147.772 129.752C148.225 129.752 148.628 129.827 148.98 129.976C149.332 130.125 149.628 130.333 149.868 130.6C150.108 130.867 150.289 131.189 150.412 131.568C150.534 131.947 150.596 132.363 150.596 132.816V138H149.964C149.825 138 149.718 137.979 149.644 137.936C149.569 137.888 149.51 137.797 149.468 137.664L149.308 136.896C149.094 137.093 148.886 137.269 148.684 137.424C148.481 137.573 148.268 137.701 148.044 137.808C147.82 137.909 147.58 137.987 147.324 138.04C147.073 138.099 146.793 138.128 146.484 138.128C146.169 138.128 145.873 138.085 145.596 138C145.318 137.909 145.076 137.776 144.868 137.6C144.665 137.424 144.502 137.203 144.38 136.936C144.262 136.664 144.204 136.344 144.204 135.976C144.204 135.656 144.292 135.349 144.468 135.056C144.644 134.757 144.929 134.493 145.324 134.264C145.718 134.035 146.233 133.848 146.868 133.704C147.502 133.555 148.281 133.469 149.204 133.448V132.816C149.204 132.187 149.068 131.712 148.796 131.392C148.524 131.067 148.126 130.904 147.604 130.904C147.252 130.904 146.956 130.949 146.716 131.04C146.481 131.125 146.276 131.224 146.1 131.336C145.929 131.443 145.78 131.541 145.652 131.632C145.529 131.717 145.406 131.76 145.284 131.76C145.188 131.76 145.105 131.736 145.036 131.688C144.966 131.635 144.908 131.571 144.86 131.496L144.604 131.04ZM154.429 131.072C154.605 130.875 154.792 130.696 154.989 130.536C155.186 130.376 155.394 130.24 155.613 130.128C155.837 130.011 156.072 129.923 156.317 129.864C156.568 129.8 156.837 129.768 157.125 129.768C157.568 129.768 157.957 129.843 158.293 129.992C158.634 130.136 158.917 130.344 159.141 130.616C159.37 130.883 159.544 131.205 159.661 131.584C159.778 131.963 159.837 132.381 159.837 132.84V138H158.405V132.84C158.405 132.227 158.264 131.752 157.981 131.416C157.704 131.075 157.28 130.904 156.709 130.904C156.288 130.904 155.893 131.005 155.525 131.208C155.162 131.411 154.826 131.685 154.517 132.032V138H153.085V129.896H153.941C154.144 129.896 154.269 129.995 154.317 130.192L154.429 131.072ZM167.607 131.824C167.34 131.467 167.052 131.219 166.743 131.08C166.433 130.936 166.087 130.864 165.703 130.864C164.951 130.864 164.372 131.133 163.967 131.672C163.561 132.211 163.359 132.979 163.359 133.976C163.359 134.504 163.404 134.957 163.495 135.336C163.585 135.709 163.719 136.019 163.895 136.264C164.071 136.504 164.287 136.68 164.543 136.792C164.799 136.904 165.089 136.96 165.415 136.96C165.884 136.96 166.292 136.853 166.639 136.64C166.991 136.427 167.313 136.125 167.607 135.736V131.824ZM169.031 126.216V138H168.183C167.98 138 167.852 137.901 167.799 137.704L167.671 136.72C167.324 137.136 166.929 137.472 166.487 137.728C166.044 137.984 165.532 138.112 164.951 138.112C164.487 138.112 164.065 138.024 163.687 137.848C163.308 137.667 162.985 137.403 162.719 137.056C162.452 136.709 162.247 136.277 162.103 135.76C161.959 135.243 161.887 134.648 161.887 133.976C161.887 133.379 161.967 132.824 162.127 132.312C162.287 131.795 162.516 131.347 162.815 130.968C163.113 130.589 163.479 130.293 163.911 130.08C164.348 129.861 164.839 129.752 165.383 129.752C165.879 129.752 166.303 129.837 166.655 130.008C167.012 130.173 167.329 130.405 167.607 130.704V126.216H169.031ZM178.502 138.128C177.862 138.128 177.368 137.949 177.022 137.592C176.68 137.235 176.51 136.72 176.51 136.048V131.088H175.534C175.448 131.088 175.376 131.064 175.318 131.016C175.259 130.963 175.23 130.883 175.23 130.776V130.208L176.558 130.04L176.886 127.536C176.902 127.456 176.936 127.392 176.99 127.344C177.048 127.291 177.123 127.264 177.214 127.264H177.934V130.056H180.278V131.088H177.934V135.952C177.934 136.293 178.016 136.547 178.182 136.712C178.347 136.877 178.56 136.96 178.822 136.96C178.971 136.96 179.099 136.941 179.206 136.904C179.318 136.861 179.414 136.816 179.494 136.768C179.574 136.72 179.64 136.677 179.694 136.64C179.752 136.597 179.803 136.576 179.846 136.576C179.92 136.576 179.987 136.621 180.046 136.712L180.462 137.392C180.216 137.621 179.92 137.803 179.574 137.936C179.227 138.064 178.87 138.128 178.502 138.128ZM189.06 129.896L184.54 140.392C184.492 140.499 184.431 140.584 184.356 140.648C184.287 140.712 184.177 140.744 184.028 140.744H182.972L184.452 137.528L181.108 129.896H182.34C182.463 129.896 182.559 129.928 182.628 129.992C182.703 130.051 182.753 130.117 182.78 130.192L184.948 135.296C185.033 135.52 185.105 135.755 185.164 136C185.239 135.749 185.319 135.512 185.404 135.288L187.508 130.192C187.54 130.107 187.593 130.037 187.668 129.984C187.748 129.925 187.836 129.896 187.932 129.896H189.06ZM192.07 136.048C192.331 136.4 192.617 136.648 192.926 136.792C193.235 136.936 193.582 137.008 193.966 137.008C194.723 137.008 195.305 136.739 195.71 136.2C196.115 135.661 196.318 134.893 196.318 133.896C196.318 133.368 196.27 132.915 196.174 132.536C196.083 132.157 195.95 131.848 195.774 131.608C195.598 131.363 195.382 131.184 195.126 131.072C194.87 130.96 194.579 130.904 194.254 130.904C193.79 130.904 193.382 131.011 193.03 131.224C192.683 131.437 192.363 131.739 192.07 132.128V136.048ZM191.998 131.152C192.339 130.731 192.734 130.392 193.182 130.136C193.63 129.88 194.142 129.752 194.718 129.752C195.187 129.752 195.611 129.843 195.99 130.024C196.369 130.2 196.691 130.464 196.958 130.816C197.225 131.163 197.43 131.595 197.574 132.112C197.718 132.629 197.79 133.224 197.79 133.896C197.79 134.493 197.71 135.051 197.55 135.568C197.39 136.08 197.158 136.525 196.854 136.904C196.555 137.277 196.187 137.573 195.75 137.792C195.318 138.005 194.83 138.112 194.286 138.112C193.79 138.112 193.363 138.029 193.006 137.864C192.654 137.693 192.342 137.459 192.07 137.16V140.744H190.638V129.896H191.494C191.697 129.896 191.822 129.995 191.87 130.192L191.998 131.152ZM205.351 133.064C205.351 132.733 205.303 132.432 205.207 132.16C205.116 131.883 204.98 131.645 204.799 131.448C204.623 131.245 204.407 131.091 204.151 130.984C203.895 130.872 203.604 130.816 203.279 130.816C202.596 130.816 202.055 131.016 201.655 131.416C201.26 131.811 201.015 132.36 200.919 133.064H205.351ZM206.503 136.864C206.327 137.077 206.116 137.264 205.871 137.424C205.625 137.579 205.361 137.707 205.079 137.808C204.801 137.909 204.513 137.984 204.215 138.032C203.916 138.085 203.62 138.112 203.327 138.112C202.767 138.112 202.249 138.019 201.775 137.832C201.305 137.64 200.897 137.363 200.551 137C200.209 136.632 199.943 136.179 199.751 135.64C199.559 135.101 199.463 134.483 199.463 133.784C199.463 133.219 199.548 132.691 199.719 132.2C199.895 131.709 200.145 131.285 200.471 130.928C200.796 130.565 201.193 130.283 201.663 130.08C202.132 129.872 202.66 129.768 203.247 129.768C203.732 129.768 204.18 129.851 204.591 130.016C205.007 130.176 205.364 130.411 205.663 130.72C205.967 131.024 206.204 131.403 206.375 131.856C206.545 132.304 206.631 132.816 206.631 133.392C206.631 133.616 206.607 133.765 206.559 133.84C206.511 133.915 206.42 133.952 206.287 133.952H200.871C200.887 134.464 200.956 134.909 201.079 135.288C201.207 135.667 201.383 135.984 201.607 136.24C201.831 136.491 202.097 136.68 202.407 136.808C202.716 136.931 203.063 136.992 203.447 136.992C203.804 136.992 204.111 136.952 204.367 136.872C204.628 136.787 204.852 136.696 205.039 136.6C205.225 136.504 205.38 136.416 205.503 136.336C205.631 136.251 205.74 136.208 205.831 136.208C205.948 136.208 206.039 136.253 206.103 136.344L206.503 136.864ZM213.42 131.232C213.356 131.349 213.257 131.408 213.124 131.408C213.044 131.408 212.953 131.379 212.852 131.32C212.751 131.261 212.625 131.197 212.476 131.128C212.332 131.053 212.159 130.987 211.956 130.928C211.753 130.864 211.513 130.832 211.236 130.832C210.996 130.832 210.78 130.864 210.588 130.928C210.396 130.987 210.231 131.069 210.092 131.176C209.959 131.283 209.855 131.408 209.78 131.552C209.711 131.691 209.676 131.843 209.676 132.008C209.676 132.216 209.735 132.389 209.852 132.528C209.975 132.667 210.135 132.787 210.332 132.888C210.529 132.989 210.753 133.08 211.004 133.16C211.255 133.235 211.511 133.317 211.772 133.408C212.039 133.493 212.297 133.589 212.548 133.696C212.799 133.803 213.023 133.936 213.22 134.096C213.417 134.256 213.575 134.453 213.692 134.688C213.815 134.917 213.876 135.195 213.876 135.52C213.876 135.893 213.809 136.24 213.676 136.56C213.543 136.875 213.345 137.149 213.084 137.384C212.823 137.613 212.503 137.795 212.124 137.928C211.745 138.061 211.308 138.128 210.812 138.128C210.247 138.128 209.735 138.037 209.276 137.856C208.817 137.669 208.428 137.432 208.108 137.144L208.444 136.6C208.487 136.531 208.537 136.477 208.596 136.44C208.655 136.403 208.729 136.384 208.82 136.384C208.916 136.384 209.017 136.421 209.124 136.496C209.231 136.571 209.359 136.653 209.508 136.744C209.663 136.835 209.849 136.917 210.068 136.992C210.287 137.067 210.559 137.104 210.884 137.104C211.161 137.104 211.404 137.069 211.612 137C211.82 136.925 211.993 136.827 212.132 136.704C212.271 136.581 212.372 136.44 212.436 136.28C212.505 136.12 212.54 135.949 212.54 135.768C212.54 135.544 212.479 135.36 212.356 135.216C212.239 135.067 212.081 134.941 211.884 134.84C211.687 134.733 211.46 134.643 211.204 134.568C210.953 134.488 210.695 134.405 210.428 134.32C210.167 134.235 209.908 134.139 209.652 134.032C209.401 133.92 209.177 133.781 208.98 133.616C208.783 133.451 208.623 133.248 208.5 133.008C208.383 132.763 208.324 132.467 208.324 132.12C208.324 131.811 208.388 131.515 208.516 131.232C208.644 130.944 208.831 130.693 209.076 130.48C209.321 130.261 209.623 130.088 209.98 129.96C210.337 129.832 210.745 129.768 211.204 129.768C211.737 129.768 212.215 129.853 212.636 130.024C213.063 130.189 213.431 130.419 213.74 130.712L213.42 131.232ZM221.366 133.064C221.366 132.733 221.318 132.432 221.222 132.16C221.131 131.883 220.995 131.645 220.814 131.448C220.638 131.245 220.422 131.091 220.166 130.984C219.91 130.872 219.619 130.816 219.294 130.816C218.611 130.816 218.07 131.016 217.67 131.416C217.275 131.811 217.03 132.36 216.934 133.064H221.366ZM222.518 136.864C222.342 137.077 222.131 137.264 221.886 137.424C221.64 137.579 221.376 137.707 221.094 137.808C220.816 137.909 220.528 137.984 220.23 138.032C219.931 138.085 219.635 138.112 219.342 138.112C218.782 138.112 218.264 138.019 217.79 137.832C217.32 137.64 216.912 137.363 216.566 137C216.224 136.632 215.958 136.179 215.766 135.64C215.574 135.101 215.478 134.483 215.478 133.784C215.478 133.219 215.563 132.691 215.734 132.2C215.91 131.709 216.16 131.285 216.486 130.928C216.811 130.565 217.208 130.283 217.678 130.08C218.147 129.872 218.675 129.768 219.262 129.768C219.747 129.768 220.195 129.851 220.606 130.016C221.022 130.176 221.379 130.411 221.678 130.72C221.982 131.024 222.219 131.403 222.39 131.856C222.56 132.304 222.646 132.816 222.646 133.392C222.646 133.616 222.622 133.765 222.574 133.84C222.526 133.915 222.435 133.952 222.302 133.952H216.886C216.902 134.464 216.971 134.909 217.094 135.288C217.222 135.667 217.398 135.984 217.622 136.24C217.846 136.491 218.112 136.68 218.422 136.808C218.731 136.931 219.078 136.992 219.462 136.992C219.819 136.992 220.126 136.952 220.382 136.872C220.643 136.787 220.867 136.696 221.054 136.6C221.24 136.504 221.395 136.416 221.518 136.336C221.646 136.251 221.755 136.208 221.846 136.208C221.963 136.208 222.054 136.253 222.118 136.344L222.518 136.864ZM237.204 138H235.78V131.088H231.764V135.952C231.764 136.293 231.847 136.547 232.012 136.712C232.183 136.877 232.396 136.96 232.652 136.96C232.802 136.96 232.93 136.941 233.036 136.904C233.148 136.861 233.244 136.816 233.324 136.768C233.404 136.72 233.471 136.677 233.524 136.64C233.583 136.597 233.634 136.576 233.676 136.576C233.756 136.576 233.823 136.621 233.876 136.712L234.3 137.392C234.05 137.621 233.751 137.803 233.404 137.936C233.058 138.064 232.7 138.128 232.332 138.128C231.698 138.128 231.207 137.949 230.86 137.592C230.514 137.235 230.34 136.72 230.34 136.048V131.088H226.572V135.952C226.572 136.293 226.655 136.547 226.82 136.712C226.986 136.877 227.199 136.96 227.46 136.96C227.61 136.96 227.738 136.941 227.844 136.904C227.956 136.861 228.052 136.816 228.132 136.768C228.212 136.72 228.279 136.677 228.332 136.64C228.391 136.597 228.442 136.576 228.484 136.576C228.559 136.576 228.626 136.621 228.684 136.712L229.1 137.392C228.855 137.621 228.559 137.803 228.212 137.936C227.866 138.064 227.508 138.128 227.14 138.128C226.5 138.128 226.007 137.949 225.66 137.592C225.319 137.235 225.148 136.72 225.148 136.048V131.088H224.172C224.087 131.088 224.015 131.064 223.956 131.016C223.898 130.963 223.868 130.883 223.868 130.776V130.208L225.196 130.032L225.524 127.536C225.54 127.456 225.575 127.392 225.628 127.344C225.687 127.291 225.762 127.264 225.852 127.264H226.572V130.056H230.388L230.716 127.536C230.732 127.456 230.767 127.392 230.82 127.344C230.879 127.291 230.954 127.264 231.044 127.264H231.764V130.056H237.204V138ZM237.532 127.296C237.532 127.435 237.503 127.565 237.444 127.688C237.391 127.805 237.316 127.909 237.22 128C237.13 128.091 237.023 128.163 236.9 128.216C236.778 128.269 236.647 128.296 236.508 128.296C236.37 128.296 236.239 128.269 236.116 128.216C235.999 128.163 235.895 128.091 235.804 128C235.714 127.909 235.642 127.805 235.588 127.688C235.535 127.565 235.508 127.435 235.508 127.296C235.508 127.157 235.535 127.027 235.588 126.904C235.642 126.776 235.714 126.667 235.804 126.576C235.895 126.48 235.999 126.405 236.116 126.352C236.239 126.299 236.37 126.272 236.508 126.272C236.647 126.272 236.778 126.299 236.9 126.352C237.023 126.405 237.13 126.48 237.22 126.576C237.316 126.667 237.391 126.776 237.444 126.904C237.503 127.027 237.532 127.157 237.532 127.296ZM241.207 131.072C241.383 130.875 241.57 130.696 241.767 130.536C241.964 130.376 242.172 130.24 242.391 130.128C242.615 130.011 242.85 129.923 243.095 129.864C243.346 129.8 243.615 129.768 243.903 129.768C244.346 129.768 244.735 129.843 245.071 129.992C245.412 130.136 245.695 130.344 245.919 130.616C246.148 130.883 246.322 131.205 246.439 131.584C246.556 131.963 246.615 132.381 246.615 132.84V138H245.183V132.84C245.183 132.227 245.042 131.752 244.759 131.416C244.482 131.075 244.058 130.904 243.487 130.904C243.066 130.904 242.671 131.005 242.303 131.208C241.94 131.411 241.604 131.685 241.295 132.032V138H239.863V129.896H240.719C240.922 129.896 241.047 129.995 241.095 130.192L241.207 131.072ZM251.929 134.04C252.217 134.04 252.47 134 252.689 133.92C252.908 133.84 253.092 133.728 253.241 133.584C253.39 133.44 253.502 133.269 253.577 133.072C253.652 132.869 253.689 132.648 253.689 132.408C253.689 131.912 253.537 131.517 253.233 131.224C252.934 130.931 252.5 130.784 251.929 130.784C251.353 130.784 250.913 130.931 250.609 131.224C250.31 131.517 250.161 131.912 250.161 132.408C250.161 132.648 250.198 132.869 250.273 133.072C250.353 133.269 250.468 133.44 250.617 133.584C250.766 133.728 250.95 133.84 251.169 133.92C251.388 134 251.641 134.04 251.929 134.04ZM254.497 138.44C254.497 138.243 254.441 138.083 254.329 137.96C254.217 137.837 254.065 137.741 253.873 137.672C253.686 137.603 253.468 137.555 253.217 137.528C252.966 137.496 252.7 137.472 252.417 137.456C252.14 137.44 251.857 137.424 251.569 137.408C251.281 137.392 251.004 137.365 250.737 137.328C250.438 137.467 250.193 137.643 250.001 137.856C249.814 138.064 249.721 138.309 249.721 138.592C249.721 138.773 249.766 138.941 249.857 139.096C249.953 139.256 250.097 139.392 250.289 139.504C250.481 139.621 250.721 139.712 251.009 139.776C251.302 139.845 251.646 139.88 252.041 139.88C252.425 139.88 252.769 139.845 253.073 139.776C253.377 139.707 253.633 139.608 253.841 139.48C254.054 139.352 254.217 139.2 254.329 139.024C254.441 138.848 254.497 138.653 254.497 138.44ZM255.945 130.216V130.744C255.945 130.92 255.833 131.032 255.609 131.08L254.689 131.2C254.87 131.552 254.961 131.941 254.961 132.368C254.961 132.763 254.884 133.123 254.729 133.448C254.58 133.768 254.372 134.043 254.105 134.272C253.838 134.501 253.518 134.677 253.145 134.8C252.772 134.923 252.366 134.984 251.929 134.984C251.55 134.984 251.193 134.939 250.857 134.848C250.686 134.955 250.556 135.069 250.465 135.192C250.374 135.309 250.329 135.429 250.329 135.552C250.329 135.744 250.406 135.891 250.561 135.992C250.721 136.088 250.929 136.157 251.185 136.2C251.441 136.243 251.732 136.269 252.057 136.28C252.388 136.291 252.724 136.309 253.065 136.336C253.412 136.357 253.748 136.397 254.073 136.456C254.404 136.515 254.697 136.611 254.953 136.744C255.209 136.877 255.414 137.061 255.569 137.296C255.729 137.531 255.809 137.835 255.809 138.208C255.809 138.555 255.721 138.891 255.545 139.216C255.374 139.541 255.126 139.829 254.801 140.08C254.476 140.336 254.076 140.539 253.601 140.688C253.132 140.843 252.601 140.92 252.009 140.92C251.417 140.92 250.9 140.861 250.457 140.744C250.014 140.627 249.646 140.469 249.353 140.272C249.06 140.075 248.838 139.845 248.689 139.584C248.545 139.328 248.473 139.059 248.473 138.776C248.473 138.376 248.598 138.037 248.849 137.76C249.1 137.483 249.444 137.261 249.881 137.096C249.641 136.989 249.449 136.848 249.305 136.672C249.166 136.491 249.097 136.248 249.097 135.944C249.097 135.827 249.118 135.707 249.161 135.584C249.204 135.456 249.268 135.331 249.353 135.208C249.444 135.08 249.553 134.96 249.681 134.848C249.809 134.736 249.958 134.637 250.129 134.552C249.729 134.328 249.417 134.032 249.193 133.664C248.969 133.291 248.857 132.859 248.857 132.368C248.857 131.973 248.932 131.616 249.081 131.296C249.236 130.971 249.449 130.696 249.721 130.472C249.993 130.243 250.316 130.067 250.689 129.944C251.068 129.821 251.481 129.76 251.929 129.76C252.281 129.76 252.609 129.8 252.913 129.88C253.217 129.955 253.494 130.067 253.745 130.216H255.945ZM263.655 129.896V138H262.231V129.896H263.655ZM263.959 127.352C263.959 127.491 263.93 127.621 263.871 127.744C263.818 127.861 263.743 127.968 263.647 128.064C263.556 128.155 263.447 128.227 263.319 128.28C263.196 128.333 263.066 128.36 262.927 128.36C262.788 128.36 262.658 128.333 262.535 128.28C262.418 128.227 262.314 128.155 262.223 128.064C262.132 127.968 262.06 127.861 262.007 127.744C261.954 127.621 261.927 127.491 261.927 127.352C261.927 127.213 261.954 127.083 262.007 126.96C262.06 126.832 262.132 126.723 262.223 126.632C262.314 126.536 262.418 126.461 262.535 126.408C262.658 126.355 262.788 126.328 262.927 126.328C263.066 126.328 263.196 126.355 263.319 126.408C263.447 126.461 263.556 126.536 263.647 126.632C263.743 126.723 263.818 126.832 263.871 126.96C263.93 127.083 263.959 127.213 263.959 127.352ZM267.659 131.072C267.835 130.875 268.022 130.696 268.219 130.536C268.416 130.376 268.624 130.24 268.843 130.128C269.067 130.011 269.302 129.923 269.547 129.864C269.798 129.8 270.067 129.768 270.355 129.768C270.798 129.768 271.187 129.843 271.523 129.992C271.864 130.136 272.147 130.344 272.371 130.616C272.6 130.883 272.774 131.205 272.891 131.584C273.008 131.963 273.067 132.381 273.067 132.84V138H271.635V132.84C271.635 132.227 271.494 131.752 271.211 131.416C270.934 131.075 270.51 130.904 269.939 130.904C269.518 130.904 269.123 131.005 268.755 131.208C268.392 131.411 268.056 131.685 267.747 132.032V138H266.315V129.896H267.171C267.374 129.896 267.499 129.995 267.547 130.192L267.659 131.072ZM280.837 131.824C280.57 131.467 280.282 131.219 279.973 131.08C279.663 130.936 279.317 130.864 278.933 130.864C278.181 130.864 277.602 131.133 277.197 131.672C276.791 132.211 276.589 132.979 276.589 133.976C276.589 134.504 276.634 134.957 276.725 135.336C276.815 135.709 276.949 136.019 277.125 136.264C277.301 136.504 277.517 136.68 277.773 136.792C278.029 136.904 278.319 136.96 278.645 136.96C279.114 136.96 279.522 136.853 279.869 136.64C280.221 136.427 280.543 136.125 280.837 135.736V131.824ZM282.261 126.216V138H281.413C281.21 138 281.082 137.901 281.029 137.704L280.901 136.72C280.554 137.136 280.159 137.472 279.717 137.728C279.274 137.984 278.762 138.112 278.181 138.112C277.717 138.112 277.295 138.024 276.917 137.848C276.538 137.667 276.215 137.403 275.949 137.056C275.682 136.709 275.477 136.277 275.333 135.76C275.189 135.243 275.117 134.648 275.117 133.976C275.117 133.379 275.197 132.824 275.357 132.312C275.517 131.795 275.746 131.347 276.045 130.968C276.343 130.589 276.709 130.293 277.141 130.08C277.578 129.861 278.069 129.752 278.613 129.752C279.109 129.752 279.533 129.837 279.885 130.008C280.242 130.173 280.559 130.405 280.837 130.704V126.216H282.261ZM291.494 129.896V138H290.646C290.443 138 290.315 137.901 290.262 137.704L290.15 136.832C289.798 137.221 289.403 137.536 288.966 137.776C288.529 138.011 288.027 138.128 287.462 138.128C287.019 138.128 286.627 138.056 286.286 137.912C285.95 137.763 285.667 137.555 285.438 137.288C285.209 137.021 285.035 136.699 284.918 136.32C284.806 135.941 284.75 135.523 284.75 135.064V129.896H286.174V135.064C286.174 135.677 286.313 136.152 286.59 136.488C286.873 136.824 287.302 136.992 287.878 136.992C288.299 136.992 288.691 136.893 289.054 136.696C289.422 136.493 289.761 136.216 290.07 135.864V129.896H291.494ZM298.792 131.232C298.728 131.349 298.629 131.408 298.496 131.408C298.416 131.408 298.325 131.379 298.224 131.32C298.122 131.261 297.997 131.197 297.848 131.128C297.704 131.053 297.53 130.987 297.328 130.928C297.125 130.864 296.885 130.832 296.608 130.832C296.368 130.832 296.152 130.864 295.96 130.928C295.768 130.987 295.602 131.069 295.464 131.176C295.33 131.283 295.226 131.408 295.152 131.552C295.082 131.691 295.048 131.843 295.048 132.008C295.048 132.216 295.106 132.389 295.224 132.528C295.346 132.667 295.506 132.787 295.704 132.888C295.901 132.989 296.125 133.08 296.376 133.16C296.626 133.235 296.882 133.317 297.144 133.408C297.41 133.493 297.669 133.589 297.92 133.696C298.17 133.803 298.394 133.936 298.592 134.096C298.789 134.256 298.946 134.453 299.064 134.688C299.186 134.917 299.248 135.195 299.248 135.52C299.248 135.893 299.181 136.24 299.048 136.56C298.914 136.875 298.717 137.149 298.456 137.384C298.194 137.613 297.874 137.795 297.496 137.928C297.117 138.061 296.68 138.128 296.184 138.128C295.618 138.128 295.106 138.037 294.648 137.856C294.189 137.669 293.8 137.432 293.48 137.144L293.816 136.6C293.858 136.531 293.909 136.477 293.968 136.44C294.026 136.403 294.101 136.384 294.192 136.384C294.288 136.384 294.389 136.421 294.496 136.496C294.602 136.571 294.73 136.653 294.88 136.744C295.034 136.835 295.221 136.917 295.44 136.992C295.658 137.067 295.93 137.104 296.256 137.104C296.533 137.104 296.776 137.069 296.984 137C297.192 136.925 297.365 136.827 297.504 136.704C297.642 136.581 297.744 136.44 297.808 136.28C297.877 136.12 297.912 135.949 297.912 135.768C297.912 135.544 297.85 135.36 297.728 135.216C297.61 135.067 297.453 134.941 297.256 134.84C297.058 134.733 296.832 134.643 296.576 134.568C296.325 134.488 296.066 134.405 295.8 134.32C295.538 134.235 295.28 134.139 295.024 134.032C294.773 133.92 294.549 133.781 294.352 133.616C294.154 133.451 293.994 133.248 293.872 133.008C293.754 132.763 293.696 132.467 293.696 132.12C293.696 131.811 293.76 131.515 293.888 131.232C294.016 130.944 294.202 130.693 294.448 130.48C294.693 130.261 294.994 130.088 295.352 129.96C295.709 129.832 296.117 129.768 296.576 129.768C297.109 129.768 297.586 129.853 298.008 130.024C298.434 130.189 298.802 130.419 299.112 130.712L298.792 131.232ZM303.802 138.128C303.162 138.128 302.668 137.949 302.322 137.592C301.98 137.235 301.81 136.72 301.81 136.048V131.088H300.834C300.748 131.088 300.676 131.064 300.618 131.016C300.559 130.963 300.53 130.883 300.53 130.776V130.208L301.858 130.04L302.186 127.536C302.202 127.456 302.236 127.392 302.29 127.344C302.348 127.291 302.423 127.264 302.514 127.264H303.234V130.056H305.578V131.088H303.234V135.952C303.234 136.293 303.316 136.547 303.482 136.712C303.647 136.877 303.86 136.96 304.122 136.96C304.271 136.96 304.399 136.941 304.506 136.904C304.618 136.861 304.714 136.816 304.794 136.768C304.874 136.72 304.94 136.677 304.994 136.64C305.052 136.597 305.103 136.576 305.146 136.576C305.22 136.576 305.287 136.621 305.346 136.712L305.762 137.392C305.516 137.621 305.22 137.803 304.874 137.936C304.527 138.064 304.17 138.128 303.802 138.128ZM308.72 131.52C308.976 130.965 309.291 130.533 309.664 130.224C310.037 129.909 310.493 129.752 311.032 129.752C311.203 129.752 311.365 129.771 311.52 129.808C311.68 129.845 311.821 129.904 311.944 129.984L311.84 131.048C311.808 131.181 311.728 131.248 311.6 131.248C311.525 131.248 311.416 131.232 311.272 131.2C311.128 131.168 310.965 131.152 310.784 131.152C310.528 131.152 310.299 131.189 310.096 131.264C309.899 131.339 309.72 131.451 309.56 131.6C309.405 131.744 309.264 131.925 309.136 132.144C309.013 132.357 308.901 132.603 308.8 132.88V138H307.368V129.896H308.184C308.339 129.896 308.445 129.925 308.504 129.984C308.563 130.043 308.603 130.144 308.624 130.288L308.72 131.52ZM320.508 129.896L315.988 140.392C315.94 140.499 315.879 140.584 315.804 140.648C315.735 140.712 315.625 140.744 315.476 140.744H314.42L315.9 137.528L312.556 129.896H313.788C313.911 129.896 314.007 129.928 314.076 129.992C314.151 130.051 314.201 130.117 314.228 130.192L316.396 135.296C316.481 135.52 316.553 135.755 316.612 136C316.687 135.749 316.767 135.512 316.852 135.288L318.956 130.192C318.988 130.107 319.041 130.037 319.116 129.984C319.196 129.925 319.284 129.896 319.38 129.896H320.508ZM321.284 137.12C321.284 136.981 321.308 136.851 321.356 136.728C321.409 136.605 321.478 136.499 321.564 136.408C321.654 136.317 321.761 136.245 321.884 136.192C322.006 136.139 322.137 136.112 322.276 136.112C322.414 136.112 322.545 136.139 322.668 136.192C322.79 136.245 322.897 136.317 322.988 136.408C323.078 136.499 323.15 136.605 323.204 136.728C323.257 136.851 323.284 136.981 323.284 137.12C323.284 137.264 323.257 137.397 323.204 137.52C323.15 137.637 323.078 137.741 322.988 137.832C322.897 137.923 322.79 137.992 322.668 138.04C322.545 138.093 322.414 138.12 322.276 138.12C322.137 138.12 322.006 138.093 321.884 138.04C321.761 137.992 321.654 137.923 321.564 137.832C321.478 137.741 321.409 137.637 321.356 137.52C321.308 137.397 321.284 137.264 321.284 137.12Z" fill="#8686A1"/>
<path d="M65.725 59.3375C65.6083 59.5292 65.4875 59.6708 65.3625 59.7625C65.2458 59.8458 65.0917 59.8875 64.9 59.8875C64.7167 59.8875 64.5167 59.825 64.3 59.7C64.0917 59.5667 63.8458 59.425 63.5625 59.275C63.2792 59.125 62.9542 58.9875 62.5875 58.8625C62.2208 58.7292 61.7917 58.6625 61.3 58.6625C60.4333 58.6625 59.7833 58.8583 59.35 59.25C58.9167 59.6333 58.7 60.1375 58.7 60.7625C58.7 61.1625 58.8167 61.4958 59.05 61.7625C59.2917 62.0208 59.6042 62.2458 59.9875 62.4375C60.3792 62.6292 60.8208 62.8 61.3125 62.95C61.8042 63.1 62.3083 63.2667 62.825 63.45C63.3417 63.625 63.8458 63.8333 64.3375 64.075C64.8292 64.3167 65.2667 64.6208 65.65 64.9875C66.0417 65.3542 66.3542 65.8042 66.5875 66.3375C66.8292 66.8625 66.95 67.5042 66.95 68.2625C66.95 69.0875 66.8042 69.8625 66.5125 70.5875C66.2292 71.3042 65.8167 71.9333 65.275 72.475C64.7333 73.0083 64.0625 73.4292 63.2625 73.7375C62.4708 74.0458 61.5708 74.2 60.5625 74.2C59.9875 74.2 59.4125 74.1417 58.8375 74.025C58.2708 73.9083 57.7208 73.7458 57.1875 73.5375C56.6625 73.3292 56.1667 73.0792 55.7 72.7875C55.2333 72.4958 54.825 72.1708 54.475 71.8125L55.575 70.0375C55.6667 69.9042 55.7875 69.7958 55.9375 69.7125C56.0875 69.6208 56.2458 69.575 56.4125 69.575C56.6375 69.575 56.875 69.6583 57.125 69.825C57.375 69.9917 57.6625 70.175 57.9875 70.375C58.3125 70.575 58.6875 70.7583 59.1125 70.925C59.5458 71.0917 60.0625 71.175 60.6625 71.175C61.5375 71.175 62.2125 70.975 62.6875 70.575C63.1708 70.175 63.4125 69.5792 63.4125 68.7875C63.4125 68.3292 63.2917 67.9583 63.05 67.675C62.8167 67.3917 62.5083 67.1542 62.125 66.9625C61.7417 66.7708 61.3042 66.6083 60.8125 66.475C60.3208 66.3333 59.8167 66.1792 59.3 66.0125C58.7833 65.8458 58.2792 65.6458 57.7875 65.4125C57.2958 65.1792 56.8583 64.8708 56.475 64.4875C56.0917 64.1042 55.7792 63.6292 55.5375 63.0625C55.3042 62.4958 55.1875 61.7917 55.1875 60.95C55.1875 60.275 55.3208 59.6208 55.5875 58.9875C55.8542 58.3542 56.2458 57.7917 56.7625 57.3C57.2792 56.8083 57.9125 56.4125 58.6625 56.1125C59.4208 55.8125 60.2875 55.6625 61.2625 55.6625C62.3542 55.6625 63.3625 55.8333 64.2875 56.175C65.2208 56.5083 66.0083 56.975 66.65 57.575L65.725 59.3375ZM69.4748 74V61.1125H71.5998C72.0331 61.1125 72.3206 61.3125 72.4623 61.7125L72.6623 62.55C72.8873 62.3167 73.1165 62.1 73.3498 61.9C73.5915 61.7 73.8498 61.5292 74.1248 61.3875C74.3998 61.2375 74.6956 61.1208 75.0123 61.0375C75.3373 60.9542 75.6873 60.9125 76.0623 60.9125C76.854 60.9125 77.5081 61.125 78.0248 61.55C78.5415 61.9667 78.9331 62.525 79.1998 63.225C79.4081 62.8167 79.6623 62.4667 79.9623 62.175C80.2706 61.875 80.604 61.6333 80.9623 61.45C81.329 61.2667 81.7123 61.1333 82.1123 61.05C82.5206 60.9583 82.929 60.9125 83.3373 60.9125C84.0623 60.9125 84.704 61.0208 85.2623 61.2375C85.8206 61.4542 86.2873 61.775 86.6623 62.2C87.0456 62.6167 87.3373 63.1292 87.5373 63.7375C87.7373 64.3458 87.8373 65.0375 87.8373 65.8125V74H84.3873V65.8125C84.3873 64.3042 83.7415 63.55 82.4498 63.55C82.1581 63.55 81.8873 63.6 81.6373 63.7C81.3956 63.7917 81.179 63.9333 80.9873 64.125C80.804 64.3167 80.6581 64.5542 80.5498 64.8375C80.4498 65.1208 80.3998 65.4458 80.3998 65.8125V74H76.9498V65.8125C76.9498 64.9958 76.7873 64.4167 76.4623 64.075C76.1456 63.725 75.6748 63.55 75.0498 63.55C74.6498 63.55 74.2706 63.6458 73.9123 63.8375C73.5623 64.0208 73.2331 64.2792 72.9248 64.6125V74H69.4748ZM97.8061 68.6125C96.9644 68.6542 96.2644 68.7292 95.7061 68.8375C95.1477 68.9375 94.7019 69.0708 94.3686 69.2375C94.0436 69.4042 93.8102 69.5958 93.6686 69.8125C93.5352 70.0208 93.4686 70.25 93.4686 70.5C93.4686 71 93.6061 71.3542 93.8811 71.5625C94.1644 71.7708 94.5561 71.875 95.0561 71.875C95.6311 71.875 96.1269 71.775 96.5436 71.575C96.9686 71.3667 97.3894 71.0458 97.8061 70.6125V68.6125ZM90.7811 62.9C91.5394 62.2167 92.3769 61.7083 93.2936 61.375C94.2102 61.0333 95.2019 60.8625 96.2686 60.8625C97.0352 60.8625 97.7186 60.9875 98.3186 61.2375C98.9269 61.4875 99.4394 61.8375 99.8561 62.2875C100.281 62.7292 100.606 63.2583 100.831 63.875C101.056 64.4917 101.169 65.1667 101.169 65.9V74H99.5936C99.2686 74 99.0186 73.9542 98.8436 73.8625C98.6769 73.7708 98.5394 73.5792 98.4311 73.2875L98.1561 72.4625C97.8311 72.7458 97.5144 72.9958 97.2061 73.2125C96.9061 73.4292 96.5936 73.6125 96.2686 73.7625C95.9436 73.9042 95.5936 74.0125 95.2186 74.0875C94.8519 74.1625 94.4394 74.2 93.9811 74.2C93.4144 74.2 92.8977 74.125 92.4311 73.975C91.9644 73.825 91.5602 73.6042 91.2186 73.3125C90.8852 73.0125 90.6269 72.6417 90.4436 72.2C90.2602 71.7583 90.1686 71.25 90.1686 70.675C90.1686 70.2 90.2894 69.725 90.5311 69.25C90.7727 68.775 91.1852 68.3458 91.7686 67.9625C92.3602 67.5708 93.1436 67.25 94.1186 67C95.1019 66.7417 96.3311 66.5958 97.8061 66.5625V65.9C97.8061 65.0917 97.6352 64.5 97.2936 64.125C96.9519 63.7417 96.4602 63.55 95.8186 63.55C95.3436 63.55 94.9477 63.6083 94.6311 63.725C94.3144 63.8333 94.0352 63.9542 93.7936 64.0875C93.5602 64.2125 93.3394 64.3333 93.1311 64.45C92.9227 64.5583 92.6811 64.6125 92.4061 64.6125C92.1644 64.6125 91.9602 64.5542 91.7936 64.4375C91.6352 64.3125 91.5019 64.1667 91.3936 64L90.7811 62.9ZM107.599 63.2375C108.007 62.5042 108.478 61.925 109.012 61.5C109.545 61.075 110.17 60.8625 110.887 60.8625C111.47 60.8625 111.945 61 112.312 61.275L112.087 63.825C112.045 63.9917 111.978 64.1083 111.887 64.175C111.803 64.2333 111.687 64.2625 111.537 64.2625C111.403 64.2625 111.212 64.2458 110.962 64.2125C110.712 64.1708 110.478 64.15 110.262 64.15C109.945 64.15 109.662 64.1958 109.412 64.2875C109.17 64.3792 108.953 64.5083 108.762 64.675C108.57 64.8417 108.395 65.0458 108.237 65.2875C108.087 65.5292 107.945 65.8042 107.812 66.1125V74H104.362V61.1125H106.399C106.749 61.1125 106.991 61.175 107.124 61.3C107.257 61.425 107.353 61.6417 107.412 61.95L107.599 63.2375ZM118.735 74.2C118.152 74.2 117.635 74.1167 117.185 73.95C116.735 73.775 116.356 73.5292 116.048 73.2125C115.74 72.8958 115.506 72.5125 115.348 72.0625C115.19 71.6125 115.11 71.1042 115.11 70.5375V63.5875H113.898C113.715 63.5875 113.556 63.5292 113.423 63.4125C113.298 63.2958 113.235 63.1208 113.235 62.8875V61.5375L115.298 61.1625L115.998 57.825C116.09 57.45 116.344 57.2625 116.76 57.2625H118.56V61.1875H121.885V63.5875H118.56V70.3125C118.56 70.6708 118.644 70.9542 118.81 71.1625C118.985 71.3708 119.231 71.475 119.548 71.475C119.715 71.475 119.856 71.4583 119.973 71.425C120.09 71.3833 120.19 71.3417 120.273 71.3C120.356 71.25 120.431 71.2083 120.498 71.175C120.573 71.1333 120.648 71.1125 120.723 71.1125C120.823 71.1125 120.906 71.1375 120.973 71.1875C121.04 71.2292 121.106 71.3042 121.173 71.4125L122.21 73.0625C121.735 73.4375 121.198 73.7208 120.598 73.9125C119.998 74.1042 119.377 74.2 118.735 74.2ZM140.966 59.3375C140.85 59.5292 140.729 59.6708 140.604 59.7625C140.487 59.8458 140.333 59.8875 140.141 59.8875C139.958 59.8875 139.758 59.825 139.541 59.7C139.333 59.5667 139.087 59.425 138.804 59.275C138.52 59.125 138.195 58.9875 137.829 58.8625C137.462 58.7292 137.033 58.6625 136.541 58.6625C135.675 58.6625 135.025 58.8583 134.591 59.25C134.158 59.6333 133.941 60.1375 133.941 60.7625C133.941 61.1625 134.058 61.4958 134.291 61.7625C134.533 62.0208 134.845 62.2458 135.229 62.4375C135.62 62.6292 136.062 62.8 136.554 62.95C137.045 63.1 137.55 63.2667 138.066 63.45C138.583 63.625 139.087 63.8333 139.579 64.075C140.07 64.3167 140.508 64.6208 140.891 64.9875C141.283 65.3542 141.595 65.8042 141.829 66.3375C142.07 66.8625 142.191 67.5042 142.191 68.2625C142.191 69.0875 142.045 69.8625 141.754 70.5875C141.47 71.3042 141.058 71.9333 140.516 72.475C139.975 73.0083 139.304 73.4292 138.504 73.7375C137.712 74.0458 136.812 74.2 135.804 74.2C135.229 74.2 134.654 74.1417 134.079 74.025C133.512 73.9083 132.962 73.7458 132.429 73.5375C131.904 73.3292 131.408 73.0792 130.941 72.7875C130.475 72.4958 130.066 72.1708 129.716 71.8125L130.816 70.0375C130.908 69.9042 131.029 69.7958 131.179 69.7125C131.329 69.6208 131.487 69.575 131.654 69.575C131.879 69.575 132.116 69.6583 132.366 69.825C132.616 69.9917 132.904 70.175 133.229 70.375C133.554 70.575 133.929 70.7583 134.354 70.925C134.787 71.0917 135.304 71.175 135.904 71.175C136.779 71.175 137.454 70.975 137.929 70.575C138.412 70.175 138.654 69.5792 138.654 68.7875C138.654 68.3292 138.533 67.9583 138.291 67.675C138.058 67.3917 137.75 67.1542 137.366 66.9625C136.983 66.7708 136.545 66.6083 136.054 66.475C135.562 66.3333 135.058 66.1792 134.541 66.0125C134.025 65.8458 133.52 65.6458 133.029 65.4125C132.537 65.1792 132.1 64.8708 131.716 64.4875C131.333 64.1042 131.02 63.6292 130.779 63.0625C130.545 62.4958 130.429 61.7917 130.429 60.95C130.429 60.275 130.562 59.6208 130.829 58.9875C131.095 58.3542 131.487 57.7917 132.004 57.3C132.52 56.8083 133.154 56.4125 133.904 56.1125C134.662 55.8125 135.529 55.6625 136.504 55.6625C137.595 55.6625 138.604 55.8333 139.529 56.175C140.462 56.5083 141.25 56.975 141.891 57.575L140.966 59.3375ZM148.215 62.375C148.457 62.1583 148.707 61.9625 148.965 61.7875C149.232 61.6042 149.511 61.45 149.802 61.325C150.102 61.1917 150.419 61.0917 150.752 61.025C151.094 60.95 151.461 60.9125 151.852 60.9125C152.552 60.9125 153.173 61.0333 153.715 61.275C154.257 61.5167 154.711 61.8542 155.077 62.2875C155.452 62.7208 155.732 63.2375 155.915 63.8375C156.107 64.4375 156.202 65.0958 156.202 65.8125V74H152.765V65.8125C152.765 65.0958 152.598 64.5417 152.265 64.15C151.932 63.75 151.44 63.55 150.79 63.55C150.307 63.55 149.852 63.6542 149.427 63.8625C149.002 64.0708 148.598 64.3625 148.215 64.7375V74H144.765V55.3625H148.215V62.375ZM167.624 66.0375C167.624 65.6792 167.574 65.3375 167.474 65.0125C167.383 64.6875 167.233 64.4 167.024 64.15C166.816 63.9 166.554 63.7042 166.237 63.5625C165.92 63.4125 165.541 63.3375 165.099 63.3375C164.274 63.3375 163.629 63.5708 163.162 64.0375C162.695 64.5042 162.391 65.1708 162.249 66.0375H167.624ZM162.199 68.0875C162.308 69.2958 162.649 70.1792 163.224 70.7375C163.808 71.2958 164.566 71.575 165.499 71.575C165.974 71.575 166.383 71.5208 166.724 71.4125C167.074 71.2958 167.379 71.1708 167.637 71.0375C167.904 70.8958 168.141 70.7708 168.349 70.6625C168.566 70.5458 168.779 70.4875 168.987 70.4875C169.254 70.4875 169.462 70.5875 169.612 70.7875L170.612 72.0375C170.245 72.4625 169.841 72.8167 169.399 73.1C168.958 73.375 168.499 73.5958 168.024 73.7625C167.549 73.9208 167.07 74.0292 166.587 74.0875C166.104 74.1542 165.637 74.1875 165.187 74.1875C164.287 74.1875 163.445 74.0417 162.662 73.75C161.887 73.45 161.208 73.0125 160.624 72.4375C160.049 71.8542 159.595 71.1333 159.262 70.275C158.929 69.4167 158.762 68.4208 158.762 67.2875C158.762 66.4125 158.904 65.5875 159.187 64.8125C159.479 64.0375 159.895 63.3625 160.437 62.7875C160.979 62.2125 161.637 61.7583 162.412 61.425C163.187 61.0833 164.062 60.9125 165.037 60.9125C165.862 60.9125 166.62 61.0458 167.312 61.3125C168.012 61.5708 168.612 61.95 169.112 62.45C169.62 62.95 170.012 63.5667 170.287 64.3C170.57 65.025 170.712 65.8542 170.712 66.7875C170.712 67.0458 170.699 67.2583 170.674 67.425C170.649 67.5917 170.608 67.725 170.549 67.825C170.491 67.925 170.412 67.9958 170.312 68.0375C170.212 68.0708 170.083 68.0875 169.924 68.0875H162.199ZM181.528 66.0375C181.528 65.6792 181.478 65.3375 181.378 65.0125C181.286 64.6875 181.136 64.4 180.928 64.15C180.719 63.9 180.457 63.7042 180.14 63.5625C179.824 63.4125 179.444 63.3375 179.003 63.3375C178.178 63.3375 177.532 63.5708 177.065 64.0375C176.599 64.5042 176.294 65.1708 176.153 66.0375H181.528ZM176.103 68.0875C176.211 69.2958 176.553 70.1792 177.128 70.7375C177.711 71.2958 178.469 71.575 179.403 71.575C179.878 71.575 180.286 71.5208 180.628 71.4125C180.978 71.2958 181.282 71.1708 181.54 71.0375C181.807 70.8958 182.044 70.7708 182.253 70.6625C182.469 70.5458 182.682 70.4875 182.89 70.4875C183.157 70.4875 183.365 70.5875 183.515 70.7875L184.515 72.0375C184.149 72.4625 183.744 72.8167 183.303 73.1C182.861 73.375 182.403 73.5958 181.928 73.7625C181.453 73.9208 180.974 74.0292 180.49 74.0875C180.007 74.1542 179.54 74.1875 179.09 74.1875C178.19 74.1875 177.349 74.0417 176.565 73.75C175.79 73.45 175.111 73.0125 174.528 72.4375C173.953 71.8542 173.499 71.1333 173.165 70.275C172.832 69.4167 172.665 68.4208 172.665 67.2875C172.665 66.4125 172.807 65.5875 173.09 64.8125C173.382 64.0375 173.799 63.3625 174.34 62.7875C174.882 62.2125 175.54 61.7583 176.315 61.425C177.09 61.0833 177.965 60.9125 178.94 60.9125C179.765 60.9125 180.524 61.0458 181.215 61.3125C181.915 61.5708 182.515 61.95 183.015 62.45C183.524 62.95 183.915 63.5667 184.19 64.3C184.474 65.025 184.615 65.8542 184.615 66.7875C184.615 67.0458 184.603 67.2583 184.578 67.425C184.553 67.5917 184.511 67.725 184.453 67.825C184.394 67.925 184.315 67.9958 184.215 68.0375C184.115 68.0708 183.986 68.0875 183.828 68.0875H176.103ZM191.56 74.2C190.976 74.2 190.46 74.1167 190.01 73.95C189.56 73.775 189.18 73.5292 188.872 73.2125C188.564 72.8958 188.33 72.5125 188.172 72.0625C188.014 71.6125 187.935 71.1042 187.935 70.5375V63.5875H186.722C186.539 63.5875 186.38 63.5292 186.247 63.4125C186.122 63.2958 186.06 63.1208 186.06 62.8875V61.5375L188.122 61.1625L188.822 57.825C188.914 57.45 189.168 57.2625 189.585 57.2625H191.385V61.1875H194.71V63.5875H191.385V70.3125C191.385 70.6708 191.468 70.9542 191.635 71.1625C191.81 71.3708 192.055 71.475 192.372 71.475C192.539 71.475 192.68 71.4583 192.797 71.425C192.914 71.3833 193.014 71.3417 193.097 71.3C193.18 71.25 193.255 71.2083 193.322 71.175C193.397 71.1333 193.472 71.1125 193.547 71.1125C193.647 71.1125 193.73 71.1375 193.797 71.1875C193.864 71.2292 193.93 71.3042 193.997 71.4125L195.035 73.0625C194.56 73.4375 194.022 73.7208 193.422 73.9125C192.822 74.1042 192.201 74.2 191.56 74.2Z" fill="#212149"/>
<rect x="73" y="230" width="98" height="29" rx="4" fill="#F4F4F9"/>
<rect x="73" y="267" width="98" height="29" rx="4" fill="#F4F4F9"/>
<rect x="73" y="304" width="98" height="29" rx="4" fill="#F4F4F9"/>
<rect x="73" y="341" width="98" height="29" rx="4" fill="#F4F4F9"/>
<rect x="179" y="230" width="98" height="29" rx="4" fill="#F4F4F9"/>
<rect x="179" y="267" width="98" height="29" rx="4" fill="#F4F4F9"/>
<rect x="179" y="304" width="98" height="29" rx="4" fill="#F4F4F9"/>
<rect x="179" y="341" width="98" height="29" rx="4" fill="#F4F4F9"/>
<rect x="285" y="230" width="98" height="29" rx="4" fill="#F4F4F9"/>
<rect x="285" y="267" width="98" height="29" rx="4" fill="#F4F4F9"/>
<rect x="285" y="304" width="98" height="29" rx="4" fill="#F4F4F9"/>
<rect x="285" y="341" width="98" height="29" rx="4" fill="#F4F4F9"/>
<defs>
<filter id="filter0_b_2002_2315" x="-20" y="-20" width="494" height="447" filterUnits="userSpaceOnUse" color-interpolation-filters="sRGB">
<feFlood flood-opacity="0" result="BackgroundImageFix"/>
<feGaussianBlur in="BackgroundImageFix" stdDeviation="10"/>
<feComposite in2="SourceAlpha" operator="in" result="effect1_backgroundBlur_2002_2315"/>
<feBlend mode="normal" in="SourceGraphic" in2="effect1_backgroundBlur_2002_2315" result="shape"/>
</filter>
<filter id="filter1_b_2002_2315" x="34" y="154" width="386" height="273" filterUnits="userSpaceOnUse" color-interpolation-filters="sRGB">
<feFlood flood-opacity="0" result="BackgroundImageFix"/>
<feGaussianBlur in="BackgroundImageFix" stdDeviation="10"/>
<feComposite in2="SourceAlpha" operator="in" result="effect1_backgroundBlur_2002_2315"/>
<feBlend mode="normal" in="SourceGraphic" in2="effect1_backgroundBlur_2002_2315" result="shape"/>
</filter>
<filter id="filter2_b_2002_2315" x="34" y="154" width="386" height="79" filterUnits="userSpaceOnUse" color-interpolation-filters="sRGB">
<feFlood flood-opacity="0" result="BackgroundImageFix"/>
<feGaussianBlur in="BackgroundImageFix" stdDeviation="10"/>
<feComposite in2="SourceAlpha" operator="in" result="effect1_backgroundBlur_2002_2315"/>
<feBlend mode="normal" in="SourceGraphic" in2="effect1_backgroundBlur_2002_2315" result="shape"/>
</filter>
<linearGradient id="paint0_linear_2002_2315" x1="72.9858" y1="7.08526" x2="374.848" y2="412.261" gradientUnits="userSpaceOnUse">
<stop stop-color="white" stop-opacity="0.6"/>
<stop offset="1" stop-color="white" stop-opacity="0.2"/>
</linearGradient>
<linearGradient id="paint1_linear_2002_2315" x1="26.9573" y1="3.65054e-06" x2="263.973" y2="96.184" gradientUnits="userSpaceOnUse">
<stop stop-color="white" stop-opacity="0.62"/>
<stop offset="0.946466" stop-color="white" stop-opacity="0"/>
</linearGradient>
<linearGradient id="paint2_linear_2002_2315" x1="292.825" y1="94.2679" x2="463.198" y2="-3.28472" gradientUnits="userSpaceOnUse">
<stop stop-color="white" stop-opacity="0"/>
<stop offset="1" stop-color="white"/>
</linearGradient>
<linearGradient id="paint3_linear_2002_2315" x1="109.624" y1="178.056" x2="263.342" y2="452.732" gradientUnits="userSpaceOnUse">
<stop stop-color="white" stop-opacity="0.6"/>
<stop offset="1" stop-color="white" stop-opacity="0.2"/>
</linearGradient>
<linearGradient id="paint4_linear_2002_2315" x1="74.5445" y1="174" x2="237.396" y2="261.978" gradientUnits="userSpaceOnUse">
<stop stop-color="white" stop-opacity="0.62"/>
<stop offset="0.946466" stop-color="white" stop-opacity="0"/>
</linearGradient>
<linearGradient id="paint5_linear_2002_2315" x1="277.166" y1="227.967" x2="386.218" y2="144.842" gradientUnits="userSpaceOnUse">
<stop stop-color="white" stop-opacity="0"/>
<stop offset="1" stop-color="white"/>
</linearGradient>
<linearGradient id="paint6_linear_2002_2315" x1="109.624" y1="174.679" x2="115.23" y2="234.529" gradientUnits="userSpaceOnUse">
<stop stop-color="#F3E9DD"/>
<stop offset="1" stop-color="white" stop-opacity="0.2"/>
</linearGradient>
<linearGradient id="paint7_linear_2002_2315" x1="74.5445" y1="174" x2="92.9711" y2="233.473" gradientUnits="userSpaceOnUse">
<stop stop-color="white" stop-opacity="0.62"/>
<stop offset="0.946466" stop-color="white" stop-opacity="0"/>
</linearGradient>
<linearGradient id="paint8_linear_2002_2315" x1="277.166" y1="183.033" x2="285.098" y2="146.915" gradientUnits="userSpaceOnUse">
<stop stop-color="white" stop-opacity="0"/>
<stop offset="1" stop-color="white"/>
</linearGradient>
</defs>
</svg>
