<svg width="455" height="55" viewBox="0 0 455 55" fill="none" xmlns="http://www.w3.org/2000/svg">
<g filter="url(#filter0_b_2002_2374)">
<path d="M0 8C0 3.58172 3.58172 0 8 0H447C451.418 0 455 3.58172 455 8V47C455 51.4183 451.418 55 447 55H8C3.58172 55 0 51.4183 0 47V8Z" fill="white" fill-opacity="0.6"/>
<path d="M8 1H447C450.866 1 454 4.13401 454 8V47C454 50.866 450.866 54 447 54H8C4.13401 54 1 50.866 1 47V8C1 4.13401 4.13401 1 8 1Z" stroke="url(#paint0_linear_2002_2374)" stroke-opacity="0.9" stroke-width="2"/>
</g>
<path d="M119.522 23.443C119.438 23.581 119.351 23.683 119.261 23.749C119.177 23.809 119.066 23.839 118.928 23.839C118.796 23.839 118.652 23.794 118.496 23.704C118.346 23.608 118.169 23.506 117.965 23.398C117.761 23.29 117.527 23.191 117.263 23.101C116.999 23.005 116.69 22.957 116.336 22.957C115.712 22.957 115.244 23.098 114.932 23.38C114.62 23.656 114.464 24.019 114.464 24.469C114.464 24.757 114.548 24.997 114.716 25.189C114.89 25.375 115.115 25.537 115.391 25.675C115.673 25.813 115.991 25.936 116.345 26.044C116.699 26.152 117.062 26.272 117.434 26.404C117.806 26.53 118.169 26.68 118.523 26.854C118.877 27.028 119.192 27.247 119.468 27.511C119.75 27.775 119.975 28.099 120.143 28.483C120.317 28.861 120.404 29.323 120.404 29.869C120.404 30.463 120.299 31.021 120.089 31.543C119.885 32.059 119.588 32.512 119.198 32.902C118.808 33.286 118.325 33.589 117.749 33.811C117.179 34.033 116.531 34.144 115.805 34.144C115.391 34.144 114.977 34.102 114.563 34.018C114.155 33.934 113.759 33.817 113.375 33.667C112.997 33.517 112.64 33.337 112.304 33.127C111.968 32.917 111.674 32.683 111.422 32.425L112.214 31.147C112.28 31.051 112.367 30.973 112.475 30.913C112.583 30.847 112.697 30.814 112.817 30.814C112.979 30.814 113.15 30.874 113.33 30.994C113.51 31.114 113.717 31.246 113.951 31.39C114.185 31.534 114.455 31.666 114.761 31.786C115.073 31.906 115.445 31.966 115.877 31.966C116.507 31.966 116.993 31.822 117.335 31.534C117.683 31.246 117.857 30.817 117.857 30.247C117.857 29.917 117.77 29.65 117.596 29.446C117.428 29.242 117.206 29.071 116.93 28.933C116.654 28.795 116.339 28.678 115.985 28.582C115.631 28.48 115.268 28.369 114.896 28.249C114.524 28.129 114.161 27.985 113.807 27.817C113.453 27.649 113.138 27.427 112.862 27.151C112.586 26.875 112.361 26.533 112.187 26.125C112.019 25.717 111.935 25.21 111.935 24.604C111.935 24.118 112.031 23.647 112.223 23.191C112.415 22.735 112.697 22.33 113.069 21.976C113.441 21.622 113.897 21.337 114.437 21.121C114.983 20.905 115.607 20.797 116.309 20.797C117.095 20.797 117.821 20.92 118.487 21.166C119.159 21.406 119.726 21.742 120.188 22.174L119.522 23.443ZM125.18 34.144C124.76 34.144 124.388 34.084 124.064 33.964C123.74 33.838 123.467 33.661 123.245 33.433C123.023 33.205 122.855 32.929 122.741 32.605C122.627 32.281 122.57 31.915 122.57 31.507V26.503H121.697C121.565 26.503 121.451 26.461 121.355 26.377C121.265 26.293 121.22 26.167 121.22 25.999V25.027L122.705 24.757L123.209 22.354C123.275 22.084 123.458 21.949 123.758 21.949H125.054V24.775H127.448V26.503H125.054V31.345C125.054 31.603 125.114 31.807 125.234 31.957C125.36 32.107 125.537 32.182 125.765 32.182C125.885 32.182 125.987 32.17 126.071 32.146C126.155 32.116 126.227 32.086 126.287 32.056C126.347 32.02 126.401 31.99 126.449 31.966C126.503 31.936 126.557 31.921 126.611 31.921C126.683 31.921 126.743 31.939 126.791 31.975C126.839 32.005 126.887 32.059 126.935 32.137L127.682 33.325C127.34 33.595 126.953 33.799 126.521 33.937C126.089 34.075 125.642 34.144 125.18 34.144ZM134.937 28.267C134.937 28.009 134.901 27.763 134.829 27.529C134.763 27.295 134.655 27.088 134.505 26.908C134.355 26.728 134.166 26.587 133.938 26.485C133.71 26.377 133.437 26.323 133.119 26.323C132.525 26.323 132.06 26.491 131.724 26.827C131.388 27.163 131.169 27.643 131.067 28.267H134.937ZM131.031 29.743C131.109 30.613 131.355 31.249 131.769 31.651C132.189 32.053 132.735 32.254 133.407 32.254C133.749 32.254 134.043 32.215 134.289 32.137C134.541 32.053 134.76 31.963 134.946 31.867C135.138 31.765 135.309 31.675 135.459 31.597C135.615 31.513 135.768 31.471 135.918 31.471C136.11 31.471 136.26 31.543 136.368 31.687L137.088 32.587C136.824 32.893 136.533 33.148 136.215 33.352C135.897 33.55 135.567 33.709 135.225 33.829C134.883 33.943 134.538 34.021 134.19 34.063C133.842 34.111 133.506 34.135 133.182 34.135C132.534 34.135 131.928 34.03 131.364 33.82C130.806 33.604 130.317 33.289 129.897 32.875C129.483 32.455 129.156 31.936 128.916 31.318C128.676 30.7 128.556 29.983 128.556 29.167C128.556 28.537 128.658 27.943 128.862 27.385C129.072 26.827 129.372 26.341 129.762 25.927C130.152 25.513 130.626 25.186 131.184 24.946C131.742 24.7 132.372 24.577 133.074 24.577C133.668 24.577 134.214 24.673 134.712 24.865C135.216 25.051 135.648 25.324 136.008 25.684C136.374 26.044 136.656 26.488 136.854 27.016C137.058 27.538 137.16 28.135 137.16 28.807C137.16 28.993 137.151 29.146 137.133 29.266C137.115 29.386 137.085 29.482 137.043 29.554C137.001 29.626 136.944 29.677 136.872 29.707C136.8 29.731 136.707 29.743 136.593 29.743H131.031ZM141.545 31.552C141.779 31.822 142.031 32.011 142.301 32.119C142.577 32.227 142.871 32.281 143.183 32.281C143.483 32.281 143.756 32.224 144.002 32.11C144.248 31.996 144.458 31.819 144.632 31.579C144.812 31.333 144.95 31.021 145.046 30.643C145.142 30.265 145.19 29.815 145.19 29.293C145.19 28.777 145.148 28.339 145.064 27.979C144.986 27.619 144.872 27.328 144.722 27.106C144.578 26.884 144.401 26.725 144.191 26.629C143.981 26.527 143.747 26.476 143.489 26.476C143.051 26.476 142.682 26.563 142.382 26.737C142.088 26.905 141.809 27.154 141.545 27.484V31.552ZM141.401 25.936C141.587 25.732 141.785 25.546 141.995 25.378C142.205 25.204 142.43 25.057 142.67 24.937C142.91 24.811 143.168 24.715 143.444 24.649C143.72 24.577 144.02 24.541 144.344 24.541C144.842 24.541 145.298 24.649 145.712 24.865C146.132 25.075 146.492 25.384 146.792 25.792C147.092 26.194 147.326 26.689 147.494 27.277C147.662 27.865 147.746 28.537 147.746 29.293C147.746 29.989 147.65 30.634 147.458 31.228C147.272 31.816 147.005 32.326 146.657 32.758C146.309 33.19 145.889 33.529 145.397 33.775C144.911 34.015 144.368 34.135 143.768 34.135C143.264 34.135 142.835 34.06 142.481 33.91C142.133 33.76 141.821 33.556 141.545 33.298V36.997H139.061V24.721H140.591C140.903 24.721 141.11 24.865 141.212 25.153L141.401 25.936ZM162.121 31.723C162.391 31.723 162.601 31.798 162.751 31.948C162.907 32.098 162.985 32.296 162.985 32.542V34H153.931V33.19C153.931 33.034 153.964 32.866 154.03 32.686C154.096 32.5 154.207 32.332 154.363 32.182L158.233 28.303C158.563 27.973 158.854 27.658 159.106 27.358C159.358 27.052 159.568 26.755 159.736 26.467C159.904 26.173 160.03 25.876 160.114 25.576C160.198 25.276 160.24 24.961 160.24 24.631C160.24 24.049 160.09 23.608 159.79 23.308C159.49 23.002 159.067 22.849 158.521 22.849C158.281 22.849 158.059 22.885 157.855 22.957C157.657 23.023 157.477 23.116 157.315 23.236C157.159 23.356 157.024 23.497 156.91 23.659C156.796 23.821 156.712 23.998 156.658 24.19C156.55 24.49 156.403 24.691 156.217 24.793C156.037 24.889 155.779 24.91 155.443 24.856L154.129 24.622C154.225 23.986 154.405 23.428 154.669 22.948C154.933 22.468 155.263 22.069 155.659 21.751C156.055 21.433 156.508 21.196 157.018 21.04C157.528 20.878 158.077 20.797 158.665 20.797C159.283 20.797 159.844 20.89 160.348 21.076C160.858 21.256 161.293 21.511 161.653 21.841C162.013 22.165 162.292 22.558 162.49 23.02C162.688 23.482 162.787 23.992 162.787 24.55C162.787 25.03 162.718 25.474 162.58 25.882C162.442 26.29 162.253 26.68 162.013 27.052C161.779 27.418 161.506 27.775 161.194 28.123C160.882 28.471 160.552 28.822 160.204 29.176L157.432 32.011C157.738 31.921 158.041 31.852 158.341 31.804C158.641 31.75 158.923 31.723 159.187 31.723H162.121ZM164.994 32.695C164.994 32.497 165.03 32.311 165.102 32.137C165.18 31.957 165.285 31.804 165.417 31.678C165.549 31.546 165.702 31.444 165.876 31.372C166.056 31.294 166.251 31.255 166.461 31.255C166.665 31.255 166.857 31.294 167.037 31.372C167.217 31.444 167.373 31.546 167.505 31.678C167.637 31.804 167.739 31.957 167.811 32.137C167.889 32.311 167.928 32.497 167.928 32.695C167.928 32.899 167.889 33.088 167.811 33.262C167.739 33.436 167.637 33.589 167.505 33.721C167.373 33.847 167.217 33.946 167.037 34.018C166.857 34.09 166.665 34.126 166.461 34.126C166.251 34.126 166.056 34.09 165.876 34.018C165.702 33.946 165.549 33.847 165.417 33.721C165.285 33.589 165.18 33.436 165.102 33.262C165.03 33.088 164.994 32.899 164.994 32.695ZM164.994 26.395C164.994 26.197 165.03 26.011 165.102 25.837C165.18 25.657 165.285 25.504 165.417 25.378C165.549 25.246 165.702 25.144 165.876 25.072C166.056 24.994 166.251 24.955 166.461 24.955C166.665 24.955 166.857 24.994 167.037 25.072C167.217 25.144 167.373 25.246 167.505 25.378C167.637 25.504 167.739 25.657 167.811 25.837C167.889 26.011 167.928 26.197 167.928 26.395C167.928 26.599 167.889 26.788 167.811 26.962C167.739 27.136 167.637 27.289 167.505 27.421C167.373 27.547 167.217 27.646 167.037 27.718C166.857 27.79 166.665 27.826 166.461 27.826C166.251 27.826 166.056 27.79 165.876 27.718C165.702 27.646 165.549 27.547 165.417 27.421C165.285 27.289 165.18 27.136 165.102 26.962C165.03 26.788 164.994 26.599 164.994 26.395Z" fill="#FF8C00"/>
<path d="M182.112 23.254C182.046 23.362 181.977 23.443 181.905 23.497C181.833 23.545 181.743 23.569 181.635 23.569C181.521 23.569 181.392 23.521 181.248 23.425C181.11 23.329 180.936 23.224 180.726 23.11C180.522 22.99 180.279 22.882 179.997 22.786C179.715 22.684 179.379 22.633 178.989 22.633C178.629 22.633 178.311 22.678 178.035 22.768C177.765 22.858 177.537 22.984 177.351 23.146C177.165 23.308 177.024 23.5 176.928 23.722C176.838 23.938 176.793 24.175 176.793 24.433C176.793 24.763 176.88 25.039 177.054 25.261C177.228 25.477 177.456 25.663 177.738 25.819C178.026 25.975 178.353 26.113 178.719 26.233C179.085 26.347 179.457 26.47 179.835 26.602C180.219 26.734 180.594 26.884 180.96 27.052C181.326 27.22 181.65 27.433 181.932 27.691C182.22 27.949 182.451 28.264 182.625 28.636C182.799 29.008 182.886 29.461 182.886 29.995C182.886 30.571 182.787 31.111 182.589 31.615C182.391 32.119 182.103 32.56 181.725 32.938C181.353 33.31 180.891 33.604 180.339 33.82C179.793 34.036 179.169 34.144 178.467 34.144C178.053 34.144 177.648 34.102 177.252 34.018C176.862 33.94 176.487 33.829 176.127 33.685C175.773 33.535 175.44 33.355 175.128 33.145C174.816 32.935 174.537 32.701 174.291 32.443L174.903 31.435C174.957 31.351 175.026 31.285 175.11 31.237C175.194 31.189 175.287 31.165 175.389 31.165C175.527 31.165 175.68 31.231 175.848 31.363C176.016 31.489 176.217 31.63 176.451 31.786C176.691 31.936 176.979 32.077 177.315 32.209C177.651 32.335 178.053 32.398 178.521 32.398C179.283 32.398 179.871 32.212 180.285 31.84C180.705 31.468 180.915 30.955 180.915 30.301C180.915 29.935 180.828 29.638 180.654 29.41C180.48 29.176 180.249 28.981 179.961 28.825C179.679 28.669 179.355 28.537 178.989 28.429C178.623 28.321 178.251 28.207 177.873 28.087C177.495 27.961 177.123 27.817 176.757 27.655C176.391 27.487 176.064 27.271 175.776 27.007C175.494 26.737 175.266 26.407 175.092 26.017C174.918 25.621 174.831 25.129 174.831 24.541C174.831 24.073 174.921 23.62 175.101 23.182C175.287 22.744 175.554 22.357 175.902 22.021C176.256 21.679 176.691 21.406 177.207 21.202C177.723 20.998 178.311 20.896 178.971 20.896C179.715 20.896 180.396 21.013 181.014 21.247C181.638 21.481 182.175 21.814 182.625 22.246L182.112 23.254ZM189.943 29.986C189.253 30.01 188.671 30.067 188.197 30.157C187.723 30.241 187.339 30.352 187.045 30.49C186.751 30.622 186.538 30.781 186.406 30.967C186.28 31.153 186.217 31.357 186.217 31.579C186.217 31.795 186.25 31.981 186.316 32.137C186.388 32.287 186.484 32.413 186.604 32.515C186.73 32.611 186.874 32.683 187.036 32.731C187.204 32.773 187.387 32.794 187.585 32.794C188.089 32.794 188.521 32.701 188.881 32.515C189.247 32.323 189.601 32.047 189.943 31.687V29.986ZM184.813 26.098C185.851 25.132 187.087 24.649 188.521 24.649C189.049 24.649 189.517 24.736 189.925 24.91C190.339 25.078 190.684 25.318 190.96 25.63C191.242 25.942 191.455 26.314 191.599 26.746C191.749 27.172 191.824 27.646 191.824 28.168V34H190.96C190.774 34 190.633 33.973 190.537 33.919C190.441 33.859 190.36 33.742 190.294 33.568L190.105 32.821C189.871 33.031 189.64 33.22 189.412 33.388C189.184 33.55 188.947 33.688 188.701 33.802C188.461 33.916 188.2 34 187.918 34.054C187.642 34.114 187.336 34.144 187 34.144C186.628 34.144 186.28 34.093 185.956 33.991C185.638 33.889 185.362 33.736 185.128 33.532C184.894 33.322 184.708 33.064 184.57 32.758C184.438 32.452 184.372 32.092 184.372 31.678C184.372 31.324 184.465 30.979 184.651 30.643C184.843 30.307 185.155 30.007 185.587 29.743C186.025 29.473 186.598 29.251 187.306 29.077C188.02 28.903 188.899 28.804 189.943 28.78V28.168C189.943 27.508 189.802 27.016 189.52 26.692C189.238 26.368 188.824 26.206 188.278 26.206C187.906 26.206 187.594 26.254 187.342 26.35C187.09 26.44 186.871 26.539 186.685 26.647C186.499 26.755 186.334 26.857 186.19 26.953C186.046 27.043 185.893 27.088 185.731 27.088C185.599 27.088 185.485 27.055 185.389 26.989C185.299 26.917 185.224 26.83 185.164 26.728L184.813 26.098ZM196.422 20.68V34H194.487V20.68H196.422ZM205.192 28.375C205.192 28.051 205.144 27.751 205.048 27.475C204.958 27.193 204.823 26.95 204.643 26.746C204.463 26.536 204.238 26.374 203.968 26.26C203.704 26.14 203.398 26.08 203.05 26.08C202.348 26.08 201.796 26.281 201.394 26.683C200.992 27.085 200.737 27.649 200.629 28.375H205.192ZM200.575 29.563C200.599 30.085 200.68 30.538 200.818 30.922C200.956 31.3 201.139 31.615 201.367 31.867C201.601 32.119 201.877 32.308 202.195 32.434C202.519 32.554 202.879 32.614 203.275 32.614C203.653 32.614 203.98 32.572 204.256 32.488C204.532 32.398 204.772 32.302 204.976 32.2C205.18 32.092 205.354 31.996 205.498 31.912C205.642 31.822 205.774 31.777 205.894 31.777C206.05 31.777 206.17 31.837 206.254 31.957L206.803 32.668C206.575 32.938 206.317 33.166 206.029 33.352C205.741 33.538 205.435 33.691 205.111 33.811C204.787 33.925 204.454 34.006 204.112 34.054C203.77 34.108 203.437 34.135 203.113 34.135C202.477 34.135 201.886 34.03 201.34 33.82C200.8 33.604 200.329 33.289 199.927 32.875C199.531 32.461 199.219 31.948 198.991 31.336C198.769 30.724 198.658 30.019 198.658 29.221C198.658 28.585 198.757 27.991 198.955 27.439C199.159 26.887 199.447 26.407 199.819 25.999C200.197 25.591 200.653 25.27 201.187 25.036C201.727 24.796 202.336 24.676 203.014 24.676C203.578 24.676 204.1 24.769 204.58 24.955C205.06 25.135 205.474 25.402 205.822 25.756C206.17 26.11 206.44 26.545 206.632 27.061C206.83 27.571 206.929 28.153 206.929 28.807C206.929 29.107 206.896 29.308 206.83 29.41C206.764 29.512 206.644 29.563 206.47 29.563H200.575ZM214.574 26.485C214.526 26.569 214.472 26.629 214.412 26.665C214.352 26.701 214.277 26.719 214.187 26.719C214.085 26.719 213.974 26.689 213.854 26.629C213.734 26.563 213.593 26.491 213.431 26.413C213.269 26.335 213.077 26.266 212.855 26.206C212.639 26.14 212.384 26.107 212.09 26.107C211.85 26.107 211.631 26.137 211.433 26.197C211.241 26.251 211.076 26.332 210.938 26.44C210.806 26.542 210.704 26.665 210.632 26.809C210.56 26.947 210.524 27.097 210.524 27.259C210.524 27.475 210.59 27.655 210.722 27.799C210.854 27.943 211.028 28.069 211.244 28.177C211.46 28.279 211.706 28.372 211.982 28.456C212.258 28.54 212.54 28.63 212.828 28.726C213.116 28.822 213.398 28.933 213.674 29.059C213.95 29.185 214.196 29.341 214.412 29.527C214.628 29.707 214.802 29.929 214.934 30.193C215.066 30.451 215.132 30.766 215.132 31.138C215.132 31.57 215.054 31.969 214.898 32.335C214.742 32.701 214.514 33.019 214.214 33.289C213.914 33.559 213.539 33.769 213.089 33.919C212.645 34.069 212.135 34.144 211.559 34.144C211.241 34.144 210.932 34.114 210.632 34.054C210.338 34 210.056 33.925 209.786 33.829C209.522 33.727 209.273 33.607 209.039 33.469C208.811 33.331 208.607 33.181 208.427 33.019L208.877 32.281C208.931 32.191 208.997 32.122 209.075 32.074C209.159 32.02 209.261 31.993 209.381 31.993C209.507 31.993 209.63 32.035 209.75 32.119C209.876 32.197 210.02 32.284 210.182 32.38C210.35 32.476 210.551 32.566 210.785 32.65C211.019 32.728 211.31 32.767 211.658 32.767C211.946 32.767 212.195 32.734 212.405 32.668C212.615 32.596 212.789 32.5 212.927 32.38C213.065 32.26 213.167 32.125 213.233 31.975C213.299 31.819 213.332 31.654 213.332 31.48C213.332 31.246 213.266 31.054 213.134 30.904C213.002 30.754 212.825 30.625 212.603 30.517C212.387 30.409 212.138 30.313 211.856 30.229C211.58 30.145 211.298 30.055 211.01 29.959C210.722 29.863 210.437 29.752 210.155 29.626C209.879 29.5 209.63 29.341 209.408 29.149C209.192 28.951 209.018 28.714 208.886 28.438C208.754 28.156 208.688 27.814 208.688 27.412C208.688 27.046 208.76 26.698 208.904 26.368C209.054 26.038 209.27 25.747 209.552 25.495C209.84 25.243 210.191 25.045 210.605 24.901C211.025 24.751 211.508 24.676 212.054 24.676C212.672 24.676 213.233 24.775 213.737 24.973C214.241 25.171 214.664 25.441 215.006 25.783L214.574 26.485ZM217.932 34V26.359L217.032 26.233C216.882 26.203 216.759 26.149 216.663 26.071C216.573 25.993 216.528 25.882 216.528 25.738V24.946H217.932V24.172C217.932 23.65 218.007 23.182 218.157 22.768C218.313 22.354 218.532 22.003 218.814 21.715C219.102 21.427 219.45 21.208 219.858 21.058C220.266 20.902 220.725 20.824 221.235 20.824C221.445 20.824 221.643 20.839 221.829 20.869C222.021 20.899 222.207 20.944 222.387 21.004L222.351 21.976C222.339 22.138 222.258 22.234 222.108 22.264C221.964 22.294 221.781 22.309 221.559 22.309C221.289 22.309 221.046 22.342 220.83 22.408C220.614 22.468 220.428 22.573 220.272 22.723C220.122 22.873 220.005 23.071 219.921 23.317C219.843 23.563 219.804 23.869 219.804 24.235V24.946H222.315V26.341H219.867V34H217.932ZM227.757 24.676C228.435 24.676 229.047 24.787 229.593 25.009C230.145 25.231 230.613 25.546 230.997 25.954C231.387 26.362 231.687 26.857 231.897 27.439C232.107 28.021 232.212 28.675 232.212 29.401C232.212 30.127 232.107 30.781 231.897 31.363C231.687 31.945 231.387 32.443 230.997 32.857C230.613 33.265 230.145 33.58 229.593 33.802C229.047 34.024 228.435 34.135 227.757 34.135C227.073 34.135 226.455 34.024 225.903 33.802C225.357 33.58 224.889 33.265 224.499 32.857C224.109 32.443 223.809 31.945 223.599 31.363C223.389 30.781 223.284 30.127 223.284 29.401C223.284 28.675 223.389 28.021 223.599 27.439C223.809 26.857 224.109 26.362 224.499 25.954C224.889 25.546 225.357 25.231 225.903 25.009C226.455 24.787 227.073 24.676 227.757 24.676ZM227.757 32.623C228.585 32.623 229.2 32.347 229.602 31.795C230.01 31.237 230.214 30.442 230.214 29.41C230.214 28.378 230.01 27.583 229.602 27.025C229.2 26.461 228.585 26.179 227.757 26.179C226.917 26.179 226.293 26.461 225.885 27.025C225.477 27.583 225.273 28.378 225.273 29.41C225.273 30.442 225.477 31.237 225.885 31.795C226.293 32.347 226.917 32.623 227.757 32.623ZM236.258 26.521C236.546 25.939 236.894 25.483 237.302 25.153C237.71 24.817 238.199 24.649 238.769 24.649C238.967 24.649 239.153 24.673 239.327 24.721C239.501 24.763 239.657 24.829 239.795 24.919L239.66 26.377C239.636 26.479 239.597 26.551 239.543 26.593C239.495 26.629 239.429 26.647 239.345 26.647C239.255 26.647 239.126 26.632 238.958 26.602C238.79 26.566 238.613 26.548 238.427 26.548C238.157 26.548 237.917 26.587 237.707 26.665C237.503 26.743 237.317 26.857 237.149 27.007C236.987 27.157 236.843 27.34 236.717 27.556C236.591 27.772 236.474 28.018 236.366 28.294V34H234.431V24.82H235.556C235.76 24.82 235.901 24.859 235.979 24.937C236.057 25.009 236.111 25.138 236.141 25.324L236.258 26.521ZM247.608 26.62C247.548 26.698 247.491 26.758 247.437 26.8C247.383 26.842 247.305 26.863 247.203 26.863C247.101 26.863 246.993 26.827 246.879 26.755C246.771 26.683 246.639 26.605 246.483 26.521C246.333 26.431 246.15 26.35 245.934 26.278C245.718 26.206 245.448 26.17 245.124 26.17C244.704 26.17 244.335 26.245 244.017 26.395C243.705 26.545 243.441 26.761 243.225 27.043C243.015 27.319 242.856 27.658 242.748 28.06C242.646 28.456 242.595 28.903 242.595 29.401C242.595 29.917 242.652 30.376 242.766 30.778C242.88 31.18 243.042 31.519 243.252 31.795C243.468 32.071 243.726 32.281 244.026 32.425C244.332 32.569 244.674 32.641 245.052 32.641C245.424 32.641 245.727 32.596 245.961 32.506C246.195 32.416 246.39 32.317 246.546 32.209C246.702 32.101 246.834 32.002 246.942 31.912C247.056 31.822 247.176 31.777 247.302 31.777C247.458 31.777 247.578 31.837 247.662 31.957L248.211 32.668C247.989 32.938 247.743 33.166 247.473 33.352C247.203 33.538 246.918 33.691 246.618 33.811C246.318 33.925 246.006 34.006 245.682 34.054C245.358 34.108 245.031 34.135 244.701 34.135C244.131 34.135 243.597 34.03 243.099 33.82C242.607 33.604 242.175 33.295 241.803 32.893C241.437 32.485 241.146 31.99 240.93 31.408C240.72 30.82 240.615 30.151 240.615 29.401C240.615 28.723 240.711 28.096 240.903 27.52C241.095 26.938 241.374 26.437 241.74 26.017C242.112 25.597 242.571 25.27 243.117 25.036C243.663 24.796 244.293 24.676 245.007 24.676C245.673 24.676 246.258 24.784 246.762 25C247.272 25.216 247.725 25.522 248.121 25.918L247.608 26.62ZM255.99 28.375C255.99 28.051 255.942 27.751 255.846 27.475C255.756 27.193 255.621 26.95 255.441 26.746C255.261 26.536 255.036 26.374 254.766 26.26C254.502 26.14 254.196 26.08 253.848 26.08C253.146 26.08 252.594 26.281 252.192 26.683C251.79 27.085 251.535 27.649 251.427 28.375H255.99ZM251.373 29.563C251.397 30.085 251.478 30.538 251.616 30.922C251.754 31.3 251.937 31.615 252.165 31.867C252.399 32.119 252.675 32.308 252.993 32.434C253.317 32.554 253.677 32.614 254.073 32.614C254.451 32.614 254.778 32.572 255.054 32.488C255.33 32.398 255.57 32.302 255.774 32.2C255.978 32.092 256.152 31.996 256.296 31.912C256.44 31.822 256.572 31.777 256.692 31.777C256.848 31.777 256.968 31.837 257.052 31.957L257.601 32.668C257.373 32.938 257.115 33.166 256.827 33.352C256.539 33.538 256.233 33.691 255.909 33.811C255.585 33.925 255.252 34.006 254.91 34.054C254.568 34.108 254.235 34.135 253.911 34.135C253.275 34.135 252.684 34.03 252.138 33.82C251.598 33.604 251.127 33.289 250.725 32.875C250.329 32.461 250.017 31.948 249.789 31.336C249.567 30.724 249.456 30.019 249.456 29.221C249.456 28.585 249.555 27.991 249.753 27.439C249.957 26.887 250.245 26.407 250.617 25.999C250.995 25.591 251.451 25.27 251.985 25.036C252.525 24.796 253.134 24.676 253.812 24.676C254.376 24.676 254.898 24.769 255.378 24.955C255.858 25.135 256.272 25.402 256.62 25.756C256.968 26.11 257.238 26.545 257.43 27.061C257.628 27.571 257.727 28.153 257.727 28.807C257.727 29.107 257.694 29.308 257.628 29.41C257.562 29.512 257.442 29.563 257.268 29.563H251.373ZM267.209 22.741V26.89H272.276V28.591H267.209V34H265.094V21.04H273.176V22.741H267.209ZM276.361 26.521C276.649 25.939 276.997 25.483 277.405 25.153C277.813 24.817 278.302 24.649 278.872 24.649C279.07 24.649 279.256 24.673 279.43 24.721C279.604 24.763 279.76 24.829 279.898 24.919L279.763 26.377C279.739 26.479 279.7 26.551 279.646 26.593C279.598 26.629 279.532 26.647 279.448 26.647C279.358 26.647 279.229 26.632 279.061 26.602C278.893 26.566 278.716 26.548 278.53 26.548C278.26 26.548 278.02 26.587 277.81 26.665C277.606 26.743 277.42 26.857 277.252 27.007C277.09 27.157 276.946 27.34 276.82 27.556C276.694 27.772 276.577 28.018 276.469 28.294V34H274.534V24.82H275.659C275.863 24.82 276.004 24.859 276.082 24.937C276.16 25.009 276.214 25.138 276.244 25.324L276.361 26.521ZM285.191 24.676C285.869 24.676 286.481 24.787 287.027 25.009C287.579 25.231 288.047 25.546 288.431 25.954C288.821 26.362 289.121 26.857 289.331 27.439C289.541 28.021 289.646 28.675 289.646 29.401C289.646 30.127 289.541 30.781 289.331 31.363C289.121 31.945 288.821 32.443 288.431 32.857C288.047 33.265 287.579 33.58 287.027 33.802C286.481 34.024 285.869 34.135 285.191 34.135C284.507 34.135 283.889 34.024 283.337 33.802C282.791 33.58 282.323 33.265 281.933 32.857C281.543 32.443 281.243 31.945 281.033 31.363C280.823 30.781 280.718 30.127 280.718 29.401C280.718 28.675 280.823 28.021 281.033 27.439C281.243 26.857 281.543 26.362 281.933 25.954C282.323 25.546 282.791 25.231 283.337 25.009C283.889 24.787 284.507 24.676 285.191 24.676ZM285.191 32.623C286.019 32.623 286.634 32.347 287.036 31.795C287.444 31.237 287.648 30.442 287.648 29.41C287.648 28.378 287.444 27.583 287.036 27.025C286.634 26.461 286.019 26.179 285.191 26.179C284.351 26.179 283.727 26.461 283.319 27.025C282.911 27.583 282.707 28.378 282.707 29.41C282.707 30.442 282.911 31.237 283.319 31.795C283.727 32.347 284.351 32.623 285.191 32.623ZM293.674 26.035C293.872 25.831 294.076 25.648 294.286 25.486C294.502 25.318 294.73 25.174 294.97 25.054C295.21 24.934 295.465 24.841 295.735 24.775C296.005 24.709 296.299 24.676 296.617 24.676C297.121 24.676 297.562 24.76 297.94 24.928C298.324 25.096 298.645 25.333 298.903 25.639C299.167 25.945 299.365 26.314 299.497 26.746C299.629 27.172 299.695 27.643 299.695 28.159V34H297.769V28.159C297.769 27.541 297.625 27.061 297.337 26.719C297.055 26.377 296.623 26.206 296.041 26.206C295.609 26.206 295.207 26.305 294.835 26.503C294.469 26.701 294.124 26.971 293.8 27.313V34H291.865V24.82H293.035C293.299 24.82 293.467 24.943 293.539 25.189L293.674 26.035ZM305.135 34.144C304.373 34.144 303.785 33.931 303.371 33.505C302.963 33.073 302.759 32.467 302.759 31.687V26.341H301.751C301.643 26.341 301.55 26.308 301.472 26.242C301.394 26.17 301.355 26.065 301.355 25.927V25.144L302.84 24.928L303.263 22.273C303.293 22.171 303.344 22.09 303.416 22.03C303.488 21.964 303.584 21.931 303.704 21.931H304.694V24.946H307.241V26.341H304.694V31.552C304.694 31.882 304.775 32.134 304.937 32.308C305.099 32.482 305.315 32.569 305.585 32.569C305.735 32.569 305.864 32.551 305.972 32.515C306.08 32.473 306.173 32.431 306.251 32.389C306.329 32.341 306.395 32.299 306.449 32.263C306.509 32.221 306.566 32.2 306.62 32.2C306.728 32.2 306.815 32.26 306.881 32.38L307.457 33.325C307.157 33.589 306.803 33.793 306.395 33.937C305.987 34.075 305.567 34.144 305.135 34.144ZM322.419 32.299L322.41 34H314.328V21.04H322.41V22.741H316.443V26.647H321.213V28.294H316.443V32.299H322.419ZM326.298 26.035C326.496 25.831 326.7 25.648 326.91 25.486C327.126 25.318 327.354 25.174 327.594 25.054C327.834 24.934 328.089 24.841 328.359 24.775C328.629 24.709 328.923 24.676 329.241 24.676C329.745 24.676 330.186 24.76 330.564 24.928C330.948 25.096 331.269 25.333 331.527 25.639C331.791 25.945 331.989 26.314 332.121 26.746C332.253 27.172 332.319 27.643 332.319 28.159V34H330.393V28.159C330.393 27.541 330.249 27.061 329.961 26.719C329.679 26.377 329.247 26.206 328.665 26.206C328.233 26.206 327.831 26.305 327.459 26.503C327.093 26.701 326.748 26.971 326.424 27.313V34H324.489V24.82H325.659C325.923 24.82 326.091 24.943 326.163 25.189L326.298 26.035ZM340.797 27.079C340.527 26.731 340.23 26.488 339.906 26.35C339.582 26.212 339.231 26.143 338.853 26.143C338.097 26.143 337.506 26.422 337.08 26.98C336.654 27.532 336.441 28.351 336.441 29.437C336.441 30.001 336.489 30.484 336.585 30.886C336.681 31.282 336.819 31.606 336.999 31.858C337.179 32.11 337.398 32.293 337.656 32.407C337.914 32.521 338.205 32.578 338.529 32.578C339.021 32.578 339.444 32.473 339.798 32.263C340.158 32.047 340.491 31.744 340.797 31.354V27.079ZM342.732 20.68V34H341.562C341.304 34 341.139 33.877 341.067 33.631L340.896 32.632C340.512 33.082 340.074 33.445 339.582 33.721C339.096 33.997 338.529 34.135 337.881 34.135C337.365 34.135 336.897 34.033 336.477 33.829C336.057 33.619 335.697 33.316 335.397 32.92C335.097 32.524 334.863 32.035 334.695 31.453C334.533 30.865 334.452 30.193 334.452 29.437C334.452 28.753 334.542 28.12 334.722 27.538C334.908 26.956 335.172 26.452 335.514 26.026C335.856 25.594 336.27 25.258 336.756 25.018C337.248 24.772 337.797 24.649 338.403 24.649C338.943 24.649 339.402 24.736 339.78 24.91C340.158 25.078 340.497 25.315 340.797 25.621V20.68H342.732Z" fill="#3C3C6F"/>
<defs>
<filter id="filter0_b_2002_2374" x="-30" y="-30" width="515" height="115" filterUnits="userSpaceOnUse" color-interpolation-filters="sRGB">
<feFlood flood-opacity="0" result="BackgroundImageFix"/>
<feGaussianBlur in="BackgroundImageFix" stdDeviation="15"/>
<feComposite in2="SourceAlpha" operator="in" result="effect1_backgroundBlur_2002_2374"/>
<feBlend mode="normal" in="SourceGraphic" in2="effect1_backgroundBlur_2002_2374" result="shape"/>
</filter>
<linearGradient id="paint0_linear_2002_2374" x1="32.124" y1="-8.82076" x2="195.498" y2="40.0365" gradientUnits="userSpaceOnUse">
<stop stop-color="white"/>
<stop offset="1" stop-color="white" stop-opacity="0"/>
</linearGradient>
</defs>
</svg>
