<svg width="1140" height="1053" viewBox="0 0 1140 1053" fill="none" xmlns="http://www.w3.org/2000/svg">
<mask id="mask0_2003_2404" style="mask-type:alpha" maskUnits="userSpaceOnUse" x="0" y="0" width="1140" height="1053">
<rect width="1140" height="1053" fill="#D9D9D9"/>
</mask>
<g mask="url(#mask0_2003_2404)">
<g filter="url(#filter0_f_2003_2404)">
<circle cx="402.5" cy="632.5" r="158.5" fill="#FFCC80"/>
</g>
<g filter="url(#filter1_f_2003_2404)">
<circle cx="706.5" cy="244.5" r="89.5" fill="#FF8C00" fill-opacity="0.5"/>
</g>
<g filter="url(#filter2_b_2003_2404)">
<path d="M0 16C0 7.16341 7.16344 0 16 0H1124C1132.84 0 1140 7.16344 1140 16V1037C1140 1045.84 1132.84 1053 1124 1053H16C7.16346 1053 0 1045.84 0 1037V16Z" fill="url(#paint0_linear_2003_2404)" fill-opacity="0.6"/>
<path d="M16 1H1124C1132.28 1 1139 7.71573 1139 16V1037C1139 1045.28 1132.28 1052 1124 1052H16C7.71575 1052 1 1045.28 1 1037V16C1 7.7157 7.71573 1 16 1Z" stroke="url(#paint1_linear_2003_2404)" stroke-width="2"/>
<path d="M16 1H1124C1132.28 1 1139 7.71573 1139 16V1037C1139 1045.28 1132.28 1052 1124 1052H16C7.71575 1052 1 1045.28 1 1037V16C1 7.7157 7.71573 1 16 1Z" stroke="url(#paint2_linear_2003_2404)" stroke-width="2"/>
</g>
</g>
<defs>
<filter id="filter0_f_2003_2404" x="-256" y="-26" width="1317" height="1317" filterUnits="userSpaceOnUse" color-interpolation-filters="sRGB">
<feFlood flood-opacity="0" result="BackgroundImageFix"/>
<feBlend mode="normal" in="SourceGraphic" in2="BackgroundImageFix" result="shape"/>
<feGaussianBlur stdDeviation="250" result="effect1_foregroundBlur_2003_2404"/>
</filter>
<filter id="filter1_f_2003_2404" x="367" y="-95" width="679" height="679" filterUnits="userSpaceOnUse" color-interpolation-filters="sRGB">
<feFlood flood-opacity="0" result="BackgroundImageFix"/>
<feBlend mode="normal" in="SourceGraphic" in2="BackgroundImageFix" result="shape"/>
<feGaussianBlur stdDeviation="125" result="effect1_foregroundBlur_2003_2404"/>
</filter>
<filter id="filter2_b_2003_2404" x="-20" y="-20" width="1180" height="1093" filterUnits="userSpaceOnUse" color-interpolation-filters="sRGB">
<feFlood flood-opacity="0" result="BackgroundImageFix"/>
<feGaussianBlur in="BackgroundImageFix" stdDeviation="10"/>
<feComposite in2="SourceAlpha" operator="in" result="effect1_backgroundBlur_2003_2404"/>
<feBlend mode="normal" in="SourceGraphic" in2="effect1_backgroundBlur_2003_2404" result="shape"/>
</filter>
<linearGradient id="paint0_linear_2003_2404" x1="183.268" y1="18.3311" x2="970.64" y2="1044.05" gradientUnits="userSpaceOnUse">
<stop stop-color="white" stop-opacity="0.6"/>
<stop offset="1" stop-color="white" stop-opacity="0.2"/>
</linearGradient>
<linearGradient id="paint1_linear_2003_2404" x1="67.6901" y1="9.44476e-06" x2="667.764" y2="236.345" gradientUnits="userSpaceOnUse">
<stop stop-color="white" stop-opacity="0.62"/>
<stop offset="0.946466" stop-color="white" stop-opacity="0"/>
</linearGradient>
<linearGradient id="paint2_linear_2003_2404" x1="735.288" y1="243.892" x2="1169.32" y2="2.695" gradientUnits="userSpaceOnUse">
<stop stop-color="white" stop-opacity="0"/>
<stop offset="1" stop-color="white"/>
</linearGradient>
</defs>
</svg>
