<svg width="409" height="1053" viewBox="0 0 409 1053" fill="none" xmlns="http://www.w3.org/2000/svg">
<g filter="url(#filter0_b_2003_2307)">
<path d="M0 16C0 7.16341 7.16344 0 16 0H393C401.837 0 409 7.16344 409 16V1037C409 1045.84 401.837 1053 393 1053H16C7.16343 1053 0 1045.84 0 1037V16Z" fill="url(#paint0_linear_2003_2307)" fill-opacity="0.6"/>
<path d="M16 1H393C401.284 1 408 7.71573 408 16V1037C408 1045.28 401.284 1052 393 1052H16C7.71572 1052 1 1045.28 1 1037V16C1 7.7157 7.71573 1 16 1Z" stroke="url(#paint1_linear_2003_2307)" stroke-width="2"/>
<path d="M16 1H393C401.284 1 408 7.71573 408 16V1037C408 1045.28 401.284 1052 393 1052H16C7.71572 1052 1 1045.28 1 1037V16C1 7.7157 7.71573 1 16 1Z" stroke="url(#paint2_linear_2003_2307)" stroke-width="2"/>
</g>
<defs>
<filter id="filter0_b_2003_2307" x="-20" y="-20" width="449" height="1093" filterUnits="userSpaceOnUse" color-interpolation-filters="sRGB">
<feFlood flood-opacity="0" result="BackgroundImageFix"/>
<feGaussianBlur in="BackgroundImageFix" stdDeviation="10"/>
<feComposite in2="SourceAlpha" operator="in" result="effect1_backgroundBlur_2003_2307"/>
<feBlend mode="normal" in="SourceGraphic" in2="effect1_backgroundBlur_2003_2307" result="shape"/>
</filter>
<linearGradient id="paint0_linear_2003_2307" x1="65.7516" y1="18.3311" x2="691.046" y2="310.58" gradientUnits="userSpaceOnUse">
<stop stop-color="white" stop-opacity="0.6"/>
<stop offset="1" stop-color="white" stop-opacity="0.2"/>
</linearGradient>
<linearGradient id="paint1_linear_2003_2307" x1="24.2853" y1="9.44476e-06" x2="268.103" y2="34.4529" gradientUnits="userSpaceOnUse">
<stop stop-color="white" stop-opacity="0.62"/>
<stop offset="0.946466" stop-color="white" stop-opacity="0"/>
</linearGradient>
<linearGradient id="paint2_linear_2003_2307" x1="263.801" y1="243.892" x2="459.815" y2="204.812" gradientUnits="userSpaceOnUse">
<stop stop-color="white" stop-opacity="0"/>
<stop offset="1" stop-color="white"/>
</linearGradient>
</defs>
</svg>
