<svg width="343" height="46" viewBox="0 0 343 46" fill="none" xmlns="http://www.w3.org/2000/svg">
<path d="M317.448 6.144V9.352H321.496V11.008H317.448V14.28H322.584V16H315.288V4.432H322.584V6.144H317.448ZM329.37 9.888C329.146 9.616 328.901 9.424 328.634 9.312C328.373 9.2 328.09 9.144 327.786 9.144C327.487 9.144 327.218 9.2 326.978 9.312C326.738 9.424 326.533 9.59467 326.362 9.824C326.191 10.048 326.061 10.336 325.97 10.688C325.879 11.0347 325.834 11.4453 325.834 11.92C325.834 12.4 325.871 12.808 325.946 13.144C326.026 13.4747 326.138 13.7467 326.282 13.96C326.426 14.168 326.602 14.32 326.81 14.416C327.018 14.5067 327.25 14.552 327.506 14.552C327.917 14.552 328.266 14.4667 328.554 14.296C328.842 14.1253 329.114 13.8827 329.37 13.568V9.888ZM331.346 4.112V16H330.138C329.877 16 329.711 15.88 329.642 15.64L329.474 14.848C329.143 15.2267 328.762 15.5333 328.33 15.768C327.903 16.0027 327.405 16.12 326.834 16.12C326.386 16.12 325.975 16.0267 325.602 15.84C325.229 15.6533 324.906 15.384 324.634 15.032C324.367 14.6747 324.159 14.2347 324.01 13.712C323.866 13.1893 323.794 12.592 323.794 11.92C323.794 11.312 323.877 10.7467 324.042 10.224C324.207 9.70133 324.445 9.248 324.754 8.864C325.063 8.48 325.434 8.18133 325.866 7.968C326.298 7.74933 326.783 7.64 327.322 7.64C327.781 7.64 328.173 7.712 328.498 7.856C328.823 8 329.114 8.19467 329.37 8.44V4.112H331.346ZM335.664 7.792V16H333.68V7.792H335.664ZM335.936 5.4C335.936 5.57067 335.901 5.73067 335.832 5.88C335.763 6.02933 335.669 6.16 335.552 6.272C335.44 6.384 335.307 6.47467 335.152 6.544C334.997 6.608 334.832 6.64 334.656 6.64C334.485 6.64 334.323 6.608 334.168 6.544C334.019 6.47467 333.888 6.384 333.776 6.272C333.664 6.16 333.573 6.02933 333.504 5.88C333.44 5.73067 333.408 5.57067 333.408 5.4C333.408 5.224 333.44 5.05867 333.504 4.904C333.573 4.74933 333.664 4.616 333.776 4.504C333.888 4.392 334.019 4.304 334.168 4.24C334.323 4.17067 334.485 4.136 334.656 4.136C334.832 4.136 334.997 4.17067 335.152 4.24C335.307 4.304 335.44 4.392 335.552 4.504C335.669 4.616 335.763 4.74933 335.832 4.904C335.901 5.05867 335.936 5.224 335.936 5.4ZM340.734 16.128C340.02 16.128 339.47 15.928 339.086 15.528C338.708 15.1227 338.518 14.5653 338.518 13.856V9.272H337.678C337.572 9.272 337.481 9.23733 337.406 9.168C337.332 9.09867 337.294 8.99467 337.294 8.856V8.072L338.614 7.856L339.03 5.616C339.057 5.50933 339.108 5.42667 339.182 5.368C339.257 5.30933 339.353 5.28 339.47 5.28H340.494V7.864H342.686V9.272H340.494V13.72C340.494 13.976 340.556 14.176 340.678 14.32C340.806 14.464 340.98 14.536 341.198 14.536C341.321 14.536 341.422 14.5227 341.502 14.496C341.588 14.464 341.66 14.432 341.718 14.4C341.782 14.368 341.838 14.3387 341.886 14.312C341.934 14.28 341.982 14.264 342.03 14.264C342.089 14.264 342.137 14.28 342.174 14.312C342.212 14.3387 342.252 14.3813 342.294 14.44L342.886 15.4C342.598 15.64 342.268 15.8213 341.894 15.944C341.521 16.0667 341.134 16.128 340.734 16.128Z" fill="#FF8C00"/>
<path d="M8.28 14.52V16H1.88V14.52H4.224V7.776C4.224 7.50933 4.232 7.23467 4.248 6.952L2.584 8.344C2.488 8.41867 2.392 8.46667 2.296 8.488C2.20533 8.504 2.11733 8.504 2.032 8.488C1.952 8.472 1.88 8.44533 1.816 8.408C1.752 8.36533 1.704 8.32 1.672 8.272L1.048 7.416L4.576 4.416H6.2V14.52H8.28ZM19.7559 14.264C20.1719 14.264 20.5425 14.1947 20.8679 14.056C21.1985 13.9173 21.4759 13.7227 21.6999 13.472C21.9239 13.2213 22.0945 12.9173 22.2119 12.56C22.3345 12.2027 22.3959 11.8027 22.3959 11.36V4.432H24.5479V11.36C24.5479 12.048 24.4359 12.6853 24.2119 13.272C23.9932 13.8533 23.6759 14.3573 23.2599 14.784C22.8492 15.2053 22.3479 15.536 21.7559 15.776C21.1639 16.0107 20.4972 16.128 19.7559 16.128C19.0092 16.128 18.3399 16.0107 17.7479 15.776C17.1559 15.536 16.6519 15.2053 16.2359 14.784C15.8252 14.3573 15.5079 13.8533 15.2839 13.272C15.0652 12.6853 14.9559 12.048 14.9559 11.36V4.432H17.1079V11.352C17.1079 11.7947 17.1665 12.1947 17.2839 12.552C17.4065 12.9093 17.5799 13.216 17.8039 13.472C18.0332 13.7227 18.3105 13.9173 18.6359 14.056C18.9665 14.1947 19.3399 14.264 19.7559 14.264ZM31.6471 9.392C31.5938 9.47733 31.5378 9.53867 31.4791 9.576C31.4205 9.608 31.3458 9.624 31.2551 9.624C31.1591 9.624 31.0551 9.59733 30.9431 9.544C30.8365 9.49067 30.7111 9.432 30.5671 9.368C30.4231 9.29867 30.2578 9.23733 30.0711 9.184C29.8898 9.13067 29.6738 9.104 29.4231 9.104C29.0338 9.104 28.7271 9.18667 28.5031 9.352C28.2845 9.51733 28.1751 9.73333 28.1751 10C28.1751 10.176 28.2311 10.3253 28.3431 10.448C28.4605 10.5653 28.6125 10.6693 28.7991 10.76C28.9911 10.8507 29.2071 10.9333 29.4471 11.008C29.6871 11.0773 29.9298 11.1547 30.1751 11.24C30.4258 11.3253 30.6711 11.424 30.9111 11.536C31.1511 11.6427 31.3645 11.7813 31.5511 11.952C31.7431 12.1173 31.8951 12.3173 32.0071 12.552C32.1245 12.7867 32.1831 13.0693 32.1831 13.4C32.1831 13.7947 32.1111 14.16 31.9671 14.496C31.8285 14.8267 31.6205 15.1147 31.3431 15.36C31.0658 15.6 30.7218 15.7893 30.3111 15.928C29.9058 16.0613 29.4365 16.128 28.9031 16.128C28.6205 16.128 28.3431 16.1013 28.0711 16.048C27.8045 16 27.5458 15.9307 27.2951 15.84C27.0498 15.7493 26.8205 15.6427 26.6071 15.52C26.3991 15.3973 26.2151 15.264 26.0551 15.12L26.5111 14.368C26.5698 14.2773 26.6391 14.208 26.7191 14.16C26.7991 14.112 26.9005 14.088 27.0231 14.088C27.1458 14.088 27.2605 14.1227 27.3671 14.192C27.4791 14.2613 27.6071 14.336 27.7511 14.416C27.8951 14.496 28.0631 14.5707 28.2551 14.64C28.4525 14.7093 28.7005 14.744 28.9991 14.744C29.2338 14.744 29.4338 14.7173 29.5991 14.664C29.7698 14.6053 29.9085 14.5307 30.0151 14.44C30.1271 14.3493 30.2071 14.2453 30.2551 14.128C30.3085 14.0053 30.3351 13.88 30.3351 13.752C30.3351 13.56 30.2765 13.4027 30.1591 13.28C30.0471 13.1573 29.8951 13.0507 29.7031 12.96C29.5165 12.8693 29.3005 12.7893 29.0551 12.72C28.8151 12.6453 28.5671 12.5653 28.3111 12.48C28.0605 12.3947 27.8125 12.296 27.5671 12.184C27.3271 12.0667 27.1111 11.92 26.9191 11.744C26.7325 11.568 26.5805 11.352 26.4631 11.096C26.3511 10.84 26.2951 10.5307 26.2951 10.168C26.2951 9.832 26.3618 9.512 26.4951 9.208C26.6285 8.904 26.8231 8.64 27.0791 8.416C27.3405 8.18667 27.6631 8.00533 28.0471 7.872C28.4365 7.73333 28.8845 7.664 29.3911 7.664C29.9565 7.664 30.4711 7.75733 30.9351 7.944C31.3991 8.13067 31.7858 8.376 32.0951 8.68L31.6471 9.392ZM39.2784 10.952C39.2784 10.696 39.241 10.456 39.1664 10.232C39.097 10.0027 38.9904 9.80267 38.8464 9.632C38.7024 9.46133 38.5184 9.328 38.2944 9.232C38.0757 9.13067 37.8197 9.08 37.5264 9.08C36.9557 9.08 36.505 9.24267 36.1744 9.568C35.849 9.89333 35.641 10.3547 35.5504 10.952H39.2784ZM35.5104 12.144C35.5424 12.5653 35.617 12.9307 35.7344 13.24C35.8517 13.544 36.0064 13.7973 36.1984 14C36.3904 14.1973 36.617 14.3467 36.8784 14.448C37.145 14.544 37.4384 14.592 37.7584 14.592C38.0784 14.592 38.353 14.5547 38.5824 14.48C38.817 14.4053 39.0197 14.3227 39.1904 14.232C39.3664 14.1413 39.5184 14.0587 39.6464 13.984C39.7797 13.9093 39.9077 13.872 40.0304 13.872C40.1957 13.872 40.3184 13.9333 40.3984 14.056L40.9664 14.776C40.7477 15.032 40.5024 15.248 40.2304 15.424C39.9584 15.5947 39.673 15.7333 39.3744 15.84C39.081 15.9413 38.7797 16.0133 38.4704 16.056C38.1664 16.0987 37.8704 16.12 37.5824 16.12C37.0117 16.12 36.481 16.0267 35.9904 15.84C35.4997 15.648 35.073 15.368 34.7104 15C34.3477 14.6267 34.0624 14.168 33.8544 13.624C33.6464 13.0747 33.5424 12.44 33.5424 11.72C33.5424 11.16 33.633 10.6347 33.8144 10.144C33.9957 9.648 34.2544 9.21867 34.5904 8.856C34.9317 8.488 35.345 8.19733 35.8304 7.984C36.321 7.77067 36.873 7.664 37.4864 7.664C38.0037 7.664 38.481 7.74667 38.9184 7.912C39.3557 8.07733 39.7317 8.32 40.0464 8.64C40.361 8.95467 40.6064 9.344 40.7824 9.808C40.9637 10.2667 41.0544 10.792 41.0544 11.384C41.0544 11.6827 41.0224 11.8853 40.9584 11.992C40.8944 12.0933 40.7717 12.144 40.5904 12.144H35.5104ZM44.7212 9.216C44.9772 8.72533 45.2812 8.34133 45.6332 8.064C45.9852 7.78133 46.4012 7.64 46.8812 7.64C47.2599 7.64 47.5639 7.72267 47.7932 7.888L47.6652 9.368C47.6386 9.464 47.5986 9.53333 47.5452 9.576C47.4972 9.61333 47.4306 9.632 47.3452 9.632C47.2652 9.632 47.1452 9.61867 46.9852 9.592C46.8306 9.56533 46.6786 9.552 46.5292 9.552C46.3106 9.552 46.1159 9.584 45.9452 9.648C45.7746 9.712 45.6199 9.80533 45.4812 9.928C45.3479 10.0453 45.2279 10.1893 45.1212 10.36C45.0199 10.5307 44.9239 10.7253 44.8332 10.944V16H42.8572V7.792H44.0172C44.2199 7.792 44.3612 7.82933 44.4412 7.904C44.5212 7.97333 44.5746 8.10133 44.6012 8.288L44.7212 9.216ZM61.2689 13.272C61.3862 13.272 61.4902 13.3173 61.5809 13.408L62.4289 14.328C61.9595 14.9093 61.3809 15.3547 60.6929 15.664C60.0102 15.9733 59.1889 16.128 58.2289 16.128C57.3702 16.128 56.5969 15.9813 55.9089 15.688C55.2262 15.3947 54.6422 14.9867 54.1569 14.464C53.6715 13.9413 53.2982 13.3173 53.0369 12.592C52.7809 11.8667 52.6529 11.0747 52.6529 10.216C52.6529 9.34667 52.7915 8.552 53.0689 7.832C53.3462 7.10667 53.7355 6.48267 54.2369 5.96C54.7435 5.43733 55.3462 5.032 56.0449 4.744C56.7435 4.45067 57.5169 4.304 58.3649 4.304C59.2075 4.304 59.9542 4.44267 60.6049 4.72C61.2609 4.99733 61.8182 5.36 62.2769 5.808L61.5569 6.808C61.5142 6.872 61.4582 6.928 61.3889 6.976C61.3249 7.024 61.2342 7.048 61.1169 7.048C61.0369 7.048 60.9542 7.02667 60.8689 6.984C60.7835 6.936 60.6902 6.88 60.5889 6.816C60.4875 6.74667 60.3702 6.672 60.2369 6.592C60.1035 6.512 59.9489 6.44 59.7729 6.376C59.5969 6.30667 59.3915 6.25067 59.1569 6.208C58.9275 6.16 58.6609 6.136 58.3569 6.136C57.8395 6.136 57.3649 6.22933 56.9329 6.416C56.5062 6.59733 56.1382 6.864 55.8289 7.216C55.5195 7.56267 55.2795 7.98933 55.1089 8.496C54.9382 8.99733 54.8529 9.57067 54.8529 10.216C54.8529 10.8667 54.9435 11.4453 55.1249 11.952C55.3115 12.4587 55.5622 12.8853 55.8769 13.232C56.1915 13.5787 56.5622 13.8453 56.9889 14.032C57.4155 14.2133 57.8742 14.304 58.3649 14.304C58.6582 14.304 58.9222 14.288 59.1569 14.256C59.3969 14.224 59.6155 14.1733 59.8129 14.104C60.0155 14.0347 60.2049 13.9467 60.3809 13.84C60.5622 13.728 60.7409 13.592 60.9169 13.432C60.9702 13.384 61.0262 13.3467 61.0849 13.32C61.1435 13.288 61.2049 13.272 61.2689 13.272ZM68.247 12.496C67.6763 12.5227 67.1963 12.5733 66.807 12.648C66.4177 12.7173 66.1057 12.808 65.871 12.92C65.6363 13.032 65.4683 13.1627 65.367 13.312C65.2657 13.4613 65.215 13.624 65.215 13.8C65.215 14.1467 65.3163 14.3947 65.519 14.544C65.727 14.6933 65.9963 14.768 66.327 14.768C66.7323 14.768 67.0817 14.696 67.375 14.552C67.6737 14.4027 67.9643 14.1787 68.247 13.88V12.496ZM63.719 8.936C64.663 8.072 65.799 7.64 67.127 7.64C67.607 7.64 68.0363 7.72 68.415 7.88C68.7937 8.03467 69.1137 8.25333 69.375 8.536C69.6363 8.81333 69.8337 9.14667 69.967 9.536C70.1057 9.92533 70.175 10.352 70.175 10.816V16H69.279C69.0923 16 68.9483 15.9733 68.847 15.92C68.7457 15.8613 68.6657 15.7467 68.607 15.576L68.431 14.984C68.223 15.1707 68.0203 15.336 67.823 15.48C67.6257 15.6187 67.4203 15.736 67.207 15.832C66.9937 15.928 66.7643 16 66.519 16.048C66.279 16.1013 66.0123 16.128 65.719 16.128C65.3723 16.128 65.0523 16.0827 64.759 15.992C64.4657 15.896 64.2123 15.7547 63.999 15.568C63.7857 15.3813 63.6203 15.1493 63.503 14.872C63.3857 14.5947 63.327 14.272 63.327 13.904C63.327 13.696 63.3617 13.4907 63.431 13.288C63.5003 13.08 63.6123 12.8827 63.767 12.696C63.927 12.5093 64.1323 12.3333 64.383 12.168C64.6337 12.0027 64.9403 11.8587 65.303 11.736C65.671 11.6133 66.0977 11.5147 66.583 11.44C67.0683 11.36 67.623 11.312 68.247 11.296V10.816C68.247 10.2667 68.1297 9.86133 67.895 9.6C67.6603 9.33333 67.3217 9.2 66.879 9.2C66.559 9.2 66.2923 9.23733 66.079 9.312C65.871 9.38667 65.687 9.472 65.527 9.568C65.367 9.65867 65.2203 9.74133 65.087 9.816C64.959 9.89067 64.815 9.928 64.655 9.928C64.5163 9.928 64.399 9.89333 64.303 9.824C64.207 9.74933 64.1297 9.664 64.071 9.568L63.719 8.936ZM74.204 8.8C74.3693 8.63467 74.5427 8.48267 74.724 8.344C74.9107 8.2 75.1053 8.08 75.308 7.984C75.516 7.88267 75.7373 7.80533 75.972 7.752C76.2067 7.69333 76.4627 7.664 76.74 7.664C77.188 7.664 77.5853 7.74133 77.932 7.896C78.2787 8.04533 78.5667 8.25867 78.796 8.536C79.0307 8.808 79.2067 9.136 79.324 9.52C79.4467 9.89867 79.508 10.3173 79.508 10.776V16H77.532V10.776C77.532 10.2747 77.4173 9.888 77.188 9.616C76.9587 9.33867 76.6093 9.2 76.14 9.2C75.7987 9.2 75.4787 9.27733 75.18 9.432C74.8813 9.58667 74.5987 9.79733 74.332 10.064V16H72.356V7.792H73.564C73.82 7.792 73.988 7.912 74.068 8.152L74.204 8.8ZM88.3899 6.144V9.352H92.4379V11.008H88.3899V14.28H93.5259V16H86.2299V4.432H93.5259V6.144H88.3899ZM100.312 9.888C100.088 9.616 99.8424 9.424 99.5757 9.312C99.3144 9.2 99.0317 9.144 98.7277 9.144C98.4291 9.144 98.1597 9.2 97.9197 9.312C97.6797 9.424 97.4744 9.59467 97.3037 9.824C97.1331 10.048 97.0024 10.336 96.9117 10.688C96.8211 11.0347 96.7757 11.4453 96.7757 11.92C96.7757 12.4 96.8131 12.808 96.8877 13.144C96.9677 13.4747 97.0797 13.7467 97.2237 13.96C97.3677 14.168 97.5437 14.32 97.7517 14.416C97.9597 14.5067 98.1917 14.552 98.4477 14.552C98.8584 14.552 99.2077 14.4667 99.4957 14.296C99.7837 14.1253 100.056 13.8827 100.312 13.568V9.888ZM102.288 4.112V16H101.08C100.818 16 100.653 15.88 100.584 15.64L100.416 14.848C100.085 15.2267 99.7037 15.5333 99.2717 15.768C98.8451 16.0027 98.3464 16.12 97.7757 16.12C97.3277 16.12 96.9171 16.0267 96.5437 15.84C96.1704 15.6533 95.8477 15.384 95.5757 15.032C95.3091 14.6747 95.1011 14.2347 94.9517 13.712C94.8077 13.1893 94.7357 12.592 94.7357 11.92C94.7357 11.312 94.8184 10.7467 94.9837 10.224C95.1491 9.70133 95.3864 9.248 95.6957 8.864C96.0051 8.48 96.3757 8.18133 96.8077 7.968C97.2397 7.74933 97.7251 7.64 98.2637 7.64C98.7224 7.64 99.1144 7.712 99.4397 7.856C99.7651 8 100.056 8.19467 100.312 8.44V4.112H102.288ZM106.606 7.792V16H104.622V7.792H106.606ZM106.878 5.4C106.878 5.57067 106.843 5.73067 106.774 5.88C106.705 6.02933 106.611 6.16 106.494 6.272C106.382 6.384 106.249 6.47467 106.094 6.544C105.939 6.608 105.774 6.64 105.598 6.64C105.427 6.64 105.265 6.608 105.11 6.544C104.961 6.47467 104.83 6.384 104.718 6.272C104.606 6.16 104.515 6.02933 104.446 5.88C104.382 5.73067 104.35 5.57067 104.35 5.4C104.35 5.224 104.382 5.05867 104.446 4.904C104.515 4.74933 104.606 4.616 104.718 4.504C104.83 4.392 104.961 4.304 105.11 4.24C105.265 4.17067 105.427 4.136 105.598 4.136C105.774 4.136 105.939 4.17067 106.094 4.24C106.249 4.304 106.382 4.392 106.494 4.504C106.611 4.616 106.705 4.74933 106.774 4.904C106.843 5.05867 106.878 5.224 106.878 5.4ZM111.676 16.128C110.962 16.128 110.412 15.928 110.028 15.528C109.65 15.1227 109.46 14.5653 109.46 13.856V9.272H108.62C108.514 9.272 108.423 9.23733 108.348 9.168C108.274 9.09867 108.236 8.99467 108.236 8.856V8.072L109.556 7.856L109.972 5.616C109.999 5.50933 110.05 5.42667 110.124 5.368C110.199 5.30933 110.295 5.28 110.412 5.28H111.436V7.864H113.628V9.272H111.436V13.72C111.436 13.976 111.498 14.176 111.62 14.32C111.748 14.464 111.922 14.536 112.14 14.536C112.263 14.536 112.364 14.5227 112.444 14.496C112.53 14.464 112.602 14.432 112.66 14.4C112.724 14.368 112.78 14.3387 112.828 14.312C112.876 14.28 112.924 14.264 112.972 14.264C113.031 14.264 113.079 14.28 113.116 14.312C113.154 14.3387 113.194 14.3813 113.236 14.44L113.828 15.4C113.54 15.64 113.21 15.8213 112.836 15.944C112.463 16.0667 112.076 16.128 111.676 16.128ZM127.332 6.2H123.844V16H121.692V6.2H118.204V4.432H127.332V6.2ZM130.689 8.672C131.009 8.37333 131.361 8.13067 131.745 7.944C132.129 7.75733 132.58 7.664 133.097 7.664C133.545 7.664 133.942 7.74133 134.289 7.896C134.636 8.04533 134.924 8.25867 135.153 8.536C135.388 8.808 135.564 9.136 135.681 9.52C135.804 9.89867 135.865 10.3173 135.865 10.776V16H133.889V10.776C133.889 10.2747 133.774 9.888 133.545 9.616C133.316 9.33867 132.966 9.2 132.497 9.2C132.156 9.2 131.836 9.27733 131.537 9.432C131.238 9.58667 130.956 9.79733 130.689 10.064V16H128.713V4.112H130.689V8.672ZM140.112 7.792V16H138.128V7.792H140.112ZM140.384 5.4C140.384 5.57067 140.349 5.73067 140.28 5.88C140.211 6.02933 140.117 6.16 140 6.272C139.888 6.384 139.755 6.47467 139.6 6.544C139.445 6.608 139.28 6.64 139.104 6.64C138.933 6.64 138.771 6.608 138.616 6.544C138.467 6.47467 138.336 6.384 138.224 6.272C138.112 6.16 138.021 6.02933 137.952 5.88C137.888 5.73067 137.856 5.57067 137.856 5.4C137.856 5.224 137.888 5.05867 137.952 4.904C138.021 4.74933 138.112 4.616 138.224 4.504C138.336 4.392 138.467 4.304 138.616 4.24C138.771 4.17067 138.933 4.136 139.104 4.136C139.28 4.136 139.445 4.17067 139.6 4.24C139.755 4.304 139.888 4.392 140 4.504C140.117 4.616 140.211 4.74933 140.28 4.904C140.349 5.05867 140.384 5.224 140.384 5.4ZM147.455 9.392C147.401 9.47733 147.345 9.53867 147.287 9.576C147.228 9.608 147.153 9.624 147.063 9.624C146.967 9.624 146.863 9.59733 146.751 9.544C146.644 9.49067 146.519 9.432 146.375 9.368C146.231 9.29867 146.065 9.23733 145.879 9.184C145.697 9.13067 145.481 9.104 145.231 9.104C144.841 9.104 144.535 9.18667 144.311 9.352C144.092 9.51733 143.983 9.73333 143.983 10C143.983 10.176 144.039 10.3253 144.151 10.448C144.268 10.5653 144.42 10.6693 144.607 10.76C144.799 10.8507 145.015 10.9333 145.255 11.008C145.495 11.0773 145.737 11.1547 145.983 11.24C146.233 11.3253 146.479 11.424 146.719 11.536C146.959 11.6427 147.172 11.7813 147.359 11.952C147.551 12.1173 147.703 12.3173 147.815 12.552C147.932 12.7867 147.991 13.0693 147.991 13.4C147.991 13.7947 147.919 14.16 147.775 14.496C147.636 14.8267 147.428 15.1147 147.151 15.36C146.873 15.6 146.529 15.7893 146.119 15.928C145.713 16.0613 145.244 16.128 144.711 16.128C144.428 16.128 144.151 16.1013 143.879 16.048C143.612 16 143.353 15.9307 143.103 15.84C142.857 15.7493 142.628 15.6427 142.415 15.52C142.207 15.3973 142.023 15.264 141.863 15.12L142.319 14.368C142.377 14.2773 142.447 14.208 142.527 14.16C142.607 14.112 142.708 14.088 142.831 14.088C142.953 14.088 143.068 14.1227 143.175 14.192C143.287 14.2613 143.415 14.336 143.559 14.416C143.703 14.496 143.871 14.5707 144.063 14.64C144.26 14.7093 144.508 14.744 144.807 14.744C145.041 14.744 145.241 14.7173 145.407 14.664C145.577 14.6053 145.716 14.5307 145.823 14.44C145.935 14.3493 146.015 14.2453 146.063 14.128C146.116 14.0053 146.143 13.88 146.143 13.752C146.143 13.56 146.084 13.4027 145.967 13.28C145.855 13.1573 145.703 13.0507 145.511 12.96C145.324 12.8693 145.108 12.7893 144.863 12.72C144.623 12.6453 144.375 12.5653 144.119 12.48C143.868 12.3947 143.62 12.296 143.375 12.184C143.135 12.0667 142.919 11.92 142.727 11.744C142.54 11.568 142.388 11.352 142.271 11.096C142.159 10.84 142.103 10.5307 142.103 10.168C142.103 9.832 142.169 9.512 142.303 9.208C142.436 8.904 142.631 8.64 142.887 8.416C143.148 8.18667 143.471 8.00533 143.855 7.872C144.244 7.73333 144.692 7.664 145.199 7.664C145.764 7.664 146.279 7.75733 146.743 7.944C147.207 8.13067 147.593 8.376 147.903 8.68L147.455 9.392ZM156.481 6.144V9.568H160.817V11.288H156.481V16H154.321V4.432H161.617V6.144H156.481ZM165.423 7.792V16H163.439V7.792H165.423ZM165.695 5.4C165.695 5.57067 165.661 5.73067 165.591 5.88C165.522 6.02933 165.429 6.16 165.311 6.272C165.199 6.384 165.066 6.47467 164.911 6.544C164.757 6.608 164.591 6.64 164.415 6.64C164.245 6.64 164.082 6.608 163.927 6.544C163.778 6.47467 163.647 6.384 163.535 6.272C163.423 6.16 163.333 6.02933 163.263 5.88C163.199 5.73067 163.167 5.57067 163.167 5.4C163.167 5.224 163.199 5.05867 163.263 4.904C163.333 4.74933 163.423 4.616 163.535 4.504C163.647 4.392 163.778 4.304 163.927 4.24C164.082 4.17067 164.245 4.136 164.415 4.136C164.591 4.136 164.757 4.17067 164.911 4.24C165.066 4.304 165.199 4.392 165.311 4.504C165.429 4.616 165.522 4.74933 165.591 4.904C165.661 5.05867 165.695 5.224 165.695 5.4ZM173.046 10.952C173.046 10.696 173.009 10.456 172.934 10.232C172.865 10.0027 172.758 9.80267 172.614 9.632C172.47 9.46133 172.286 9.328 172.062 9.232C171.843 9.13067 171.587 9.08 171.294 9.08C170.723 9.08 170.273 9.24267 169.942 9.568C169.617 9.89333 169.409 10.3547 169.318 10.952H173.046ZM169.278 12.144C169.31 12.5653 169.385 12.9307 169.502 13.24C169.619 13.544 169.774 13.7973 169.966 14C170.158 14.1973 170.385 14.3467 170.646 14.448C170.913 14.544 171.206 14.592 171.526 14.592C171.846 14.592 172.121 14.5547 172.35 14.48C172.585 14.4053 172.787 14.3227 172.958 14.232C173.134 14.1413 173.286 14.0587 173.414 13.984C173.547 13.9093 173.675 13.872 173.798 13.872C173.963 13.872 174.086 13.9333 174.166 14.056L174.734 14.776C174.515 15.032 174.27 15.248 173.998 15.424C173.726 15.5947 173.441 15.7333 173.142 15.84C172.849 15.9413 172.547 16.0133 172.238 16.056C171.934 16.0987 171.638 16.12 171.35 16.12C170.779 16.12 170.249 16.0267 169.758 15.84C169.267 15.648 168.841 15.368 168.478 15C168.115 14.6267 167.83 14.168 167.622 13.624C167.414 13.0747 167.31 12.44 167.31 11.72C167.31 11.16 167.401 10.6347 167.582 10.144C167.763 9.648 168.022 9.21867 168.358 8.856C168.699 8.488 169.113 8.19733 169.598 7.984C170.089 7.77067 170.641 7.664 171.254 7.664C171.771 7.664 172.249 7.74667 172.686 7.912C173.123 8.07733 173.499 8.32 173.814 8.64C174.129 8.95467 174.374 9.344 174.55 9.808C174.731 10.2667 174.822 10.792 174.822 11.384C174.822 11.6827 174.79 11.8853 174.726 11.992C174.662 12.0933 174.539 12.144 174.358 12.144H169.278ZM178.625 4.112V16H176.649V4.112H178.625ZM186.066 9.888C185.842 9.616 185.596 9.424 185.33 9.312C185.068 9.2 184.786 9.144 184.482 9.144C184.183 9.144 183.914 9.2 183.674 9.312C183.434 9.424 183.228 9.59467 183.058 9.824C182.887 10.048 182.756 10.336 182.666 10.688C182.575 11.0347 182.53 11.4453 182.53 11.92C182.53 12.4 182.567 12.808 182.642 13.144C182.722 13.4747 182.834 13.7467 182.978 13.96C183.122 14.168 183.298 14.32 183.506 14.416C183.714 14.5067 183.946 14.552 184.202 14.552C184.612 14.552 184.962 14.4667 185.25 14.296C185.538 14.1253 185.81 13.8827 186.066 13.568V9.888ZM188.042 4.112V16H186.834C186.572 16 186.407 15.88 186.338 15.64L186.17 14.848C185.839 15.2267 185.458 15.5333 185.026 15.768C184.599 16.0027 184.1 16.12 183.53 16.12C183.082 16.12 182.671 16.0267 182.298 15.84C181.924 15.6533 181.602 15.384 181.33 15.032C181.063 14.6747 180.855 14.2347 180.706 13.712C180.562 13.1893 180.49 12.592 180.49 11.92C180.49 11.312 180.572 10.7467 180.738 10.224C180.903 9.70133 181.14 9.248 181.45 8.864C181.759 8.48 182.13 8.18133 182.562 7.968C182.994 7.74933 183.479 7.64 184.018 7.64C184.476 7.64 184.868 7.712 185.194 7.856C185.519 8 185.81 8.19467 186.066 8.44V4.112H188.042Z" fill="#3C3C6F"/>
<path d="M5.488 41.768C5.93067 41.768 6.312 41.7173 6.632 41.616C6.952 41.5147 7.21333 41.3733 7.416 41.192C7.624 41.0053 7.776 40.7867 7.872 40.536C7.968 40.28 8.016 40 8.016 39.696C8.016 39.104 7.80533 38.6373 7.384 38.296C6.96267 37.9493 6.33067 37.776 5.488 37.776H3.008V41.768H5.488ZM3.008 32.76V36.672H5.056C5.49333 36.672 5.872 36.624 6.192 36.528C6.51733 36.432 6.784 36.2987 6.992 36.128C7.20533 35.9573 7.36267 35.752 7.464 35.512C7.56533 35.2667 7.616 35 7.616 34.712C7.616 34.0347 7.41333 33.5413 7.008 33.232C6.60267 32.9173 5.97333 32.76 5.12 32.76H3.008ZM5.12 31.536C5.824 31.536 6.42933 31.6053 6.936 31.744C7.448 31.8827 7.86667 32.08 8.192 32.336C8.52267 32.592 8.76533 32.9067 8.92 33.28C9.07467 33.648 9.152 34.064 9.152 34.528C9.152 34.8107 9.10667 35.0827 9.016 35.344C8.93067 35.6 8.8 35.84 8.624 36.064C8.448 36.288 8.224 36.4907 7.952 36.672C7.68533 36.848 7.37067 36.992 7.008 37.104C7.85067 37.264 8.48267 37.5653 8.904 38.008C9.33067 38.4453 9.544 39.0213 9.544 39.736C9.544 40.2213 9.45333 40.664 9.272 41.064C9.096 41.464 8.83467 41.808 8.488 42.096C8.14667 42.384 7.72533 42.608 7.224 42.768C6.72267 42.9227 6.152 43 5.512 43H1.464V31.536H5.12ZM13.0675 35.976C13.4142 35.608 13.7982 35.3147 14.2195 35.096C14.6408 34.8773 15.1262 34.768 15.6755 34.768C16.1182 34.768 16.5075 34.8427 16.8435 34.992C17.1848 35.136 17.4675 35.344 17.6915 35.616C17.9208 35.8827 18.0942 36.2053 18.2115 36.584C18.3288 36.9627 18.3875 37.3813 18.3875 37.84V43H16.9555V37.84C16.9555 37.2267 16.8142 36.752 16.5315 36.416C16.2542 36.0747 15.8302 35.904 15.2595 35.904C14.8382 35.904 14.4435 36.0053 14.0755 36.208C13.7128 36.4107 13.3768 36.6853 13.0675 37.032V43H11.6355V31.216H13.0675V35.976ZM25.2694 39.352C24.6134 39.3733 24.0534 39.4267 23.5894 39.512C23.1307 39.592 22.7547 39.6987 22.4614 39.832C22.1734 39.9653 21.9627 40.1227 21.8294 40.304C21.7014 40.4853 21.6374 40.688 21.6374 40.912C21.6374 41.1253 21.672 41.3093 21.7414 41.464C21.8107 41.6187 21.904 41.7467 22.0214 41.848C22.144 41.944 22.2854 42.016 22.4454 42.064C22.6107 42.1067 22.7867 42.128 22.9734 42.128C23.224 42.128 23.4534 42.104 23.6614 42.056C23.8694 42.0027 24.064 41.928 24.2454 41.832C24.432 41.736 24.608 41.6213 24.7734 41.488C24.944 41.3547 25.1094 41.2027 25.2694 41.032V39.352ZM20.6694 36.04C21.1174 35.608 21.6 35.2853 22.1174 35.072C22.6347 34.8587 23.208 34.752 23.8374 34.752C24.2907 34.752 24.6934 34.8267 25.0454 34.976C25.3974 35.1253 25.6934 35.3333 25.9334 35.6C26.1734 35.8667 26.3547 36.1893 26.4774 36.568C26.6 36.9467 26.6614 37.3627 26.6614 37.816V43H26.0294C25.8907 43 25.784 42.9787 25.7094 42.936C25.6347 42.888 25.576 42.7973 25.5334 42.664L25.3734 41.896C25.16 42.0933 24.952 42.2693 24.7494 42.424C24.5467 42.5733 24.3334 42.7013 24.1094 42.808C23.8854 42.9093 23.6454 42.9867 23.3894 43.04C23.1387 43.0987 22.8587 43.128 22.5494 43.128C22.2347 43.128 21.9387 43.0853 21.6614 43C21.384 42.9093 21.1414 42.776 20.9334 42.6C20.7307 42.424 20.568 42.2027 20.4454 41.936C20.328 41.664 20.2694 41.344 20.2694 40.976C20.2694 40.656 20.3574 40.3493 20.5334 40.056C20.7094 39.7573 20.9947 39.4933 21.3894 39.264C21.784 39.0347 22.2987 38.848 22.9334 38.704C23.568 38.5547 24.3467 38.4693 25.2694 38.448V37.816C25.2694 37.1867 25.1334 36.712 24.8614 36.392C24.5894 36.0667 24.192 35.904 23.6694 35.904C23.3174 35.904 23.0214 35.9493 22.7814 36.04C22.5467 36.1253 22.3414 36.224 22.1654 36.336C21.9947 36.4427 21.8454 36.5413 21.7174 36.632C21.5947 36.7173 21.472 36.76 21.3494 36.76C21.2534 36.76 21.1707 36.736 21.1014 36.688C21.032 36.6347 20.9734 36.5707 20.9254 36.496L20.6694 36.04ZM35.9226 34.896L32.6186 43H31.3386L28.0346 34.896H29.1946C29.312 34.896 29.408 34.9253 29.4826 34.984C29.5573 35.0427 29.608 35.112 29.6346 35.192L31.6906 40.408C31.7546 40.6053 31.8106 40.7973 31.8586 40.984C31.9066 41.1707 31.952 41.3573 31.9946 41.544C32.0373 41.3573 32.0826 41.1707 32.1306 40.984C32.1786 40.7973 32.2373 40.6053 32.3066 40.408L34.3866 35.192C34.4186 35.1067 34.472 35.0373 34.5466 34.984C34.6213 34.9253 34.7093 34.896 34.8106 34.896H35.9226ZM42.7539 38.064C42.7539 37.7333 42.7059 37.432 42.6099 37.16C42.5192 36.8827 42.3832 36.6453 42.2019 36.448C42.0259 36.2453 41.8099 36.0907 41.5539 35.984C41.2979 35.872 41.0072 35.816 40.6819 35.816C39.9992 35.816 39.4579 36.016 39.0579 36.416C38.6632 36.8107 38.4179 37.36 38.3219 38.064H42.7539ZM43.9059 41.864C43.7299 42.0773 43.5192 42.264 43.2739 42.424C43.0285 42.5787 42.7645 42.7067 42.4819 42.808C42.2045 42.9093 41.9165 42.984 41.6179 43.032C41.3192 43.0853 41.0232 43.112 40.7299 43.112C40.1699 43.112 39.6525 43.0187 39.1779 42.832C38.7085 42.64 38.3005 42.3627 37.9539 42C37.6125 41.632 37.3459 41.1787 37.1539 40.64C36.9619 40.1013 36.8659 39.4827 36.8659 38.784C36.8659 38.2187 36.9512 37.6907 37.1219 37.2C37.2979 36.7093 37.5485 36.2853 37.8739 35.928C38.1992 35.5653 38.5965 35.2827 39.0659 35.08C39.5352 34.872 40.0632 34.768 40.6499 34.768C41.1352 34.768 41.5832 34.8507 41.9939 35.016C42.4099 35.176 42.7672 35.4107 43.0659 35.72C43.3699 36.024 43.6072 36.4027 43.7779 36.856C43.9485 37.304 44.0339 37.816 44.0339 38.392C44.0339 38.616 44.0099 38.7653 43.9619 38.84C43.9139 38.9147 43.8232 38.952 43.6899 38.952H38.2739C38.2899 39.464 38.3592 39.9093 38.4819 40.288C38.6099 40.6667 38.7859 40.984 39.0099 41.24C39.2339 41.4907 39.5005 41.68 39.8099 41.808C40.1192 41.9307 40.4659 41.992 40.8499 41.992C41.2072 41.992 41.5139 41.952 41.7699 41.872C42.0312 41.7867 42.2552 41.696 42.4419 41.6C42.6285 41.504 42.7832 41.416 42.9059 41.336C43.0339 41.2507 43.1432 41.208 43.2339 41.208C43.3512 41.208 43.4419 41.2533 43.5059 41.344L43.9059 41.864ZM50.823 36.232C50.759 36.3493 50.6603 36.408 50.527 36.408C50.447 36.408 50.3563 36.3787 50.255 36.32C50.1537 36.2613 50.0283 36.1973 49.879 36.128C49.735 36.0533 49.5617 35.9867 49.359 35.928C49.1563 35.864 48.9163 35.832 48.639 35.832C48.399 35.832 48.183 35.864 47.991 35.928C47.799 35.9867 47.6337 36.0693 47.495 36.176C47.3617 36.2827 47.2577 36.408 47.183 36.552C47.1137 36.6907 47.079 36.8427 47.079 37.008C47.079 37.216 47.1377 37.3893 47.255 37.528C47.3777 37.6667 47.5377 37.7867 47.735 37.888C47.9323 37.9893 48.1563 38.08 48.407 38.16C48.6577 38.2347 48.9137 38.3173 49.175 38.408C49.4417 38.4933 49.7003 38.5893 49.951 38.696C50.2017 38.8027 50.4257 38.936 50.623 39.096C50.8203 39.256 50.9777 39.4533 51.095 39.688C51.2177 39.9173 51.279 40.1947 51.279 40.52C51.279 40.8933 51.2123 41.24 51.079 41.56C50.9457 41.8747 50.7483 42.1493 50.487 42.384C50.2257 42.6133 49.9057 42.7947 49.527 42.928C49.1483 43.0613 48.711 43.128 48.215 43.128C47.6497 43.128 47.1377 43.0373 46.679 42.856C46.2203 42.6693 45.831 42.432 45.511 42.144L45.847 41.6C45.8897 41.5307 45.9403 41.4773 45.999 41.44C46.0577 41.4027 46.1323 41.384 46.223 41.384C46.319 41.384 46.4203 41.4213 46.527 41.496C46.6337 41.5707 46.7617 41.6533 46.911 41.744C47.0657 41.8347 47.2523 41.9173 47.471 41.992C47.6897 42.0667 47.9617 42.104 48.287 42.104C48.5643 42.104 48.807 42.0693 49.015 42C49.223 41.9253 49.3963 41.8267 49.535 41.704C49.6737 41.5813 49.775 41.44 49.839 41.28C49.9083 41.12 49.943 40.9493 49.943 40.768C49.943 40.544 49.8817 40.36 49.759 40.216C49.6417 40.0667 49.4843 39.9413 49.287 39.84C49.0897 39.7333 48.863 39.6427 48.607 39.568C48.3563 39.488 48.0977 39.4053 47.831 39.32C47.5697 39.2347 47.311 39.1387 47.055 39.032C46.8043 38.92 46.5803 38.7813 46.383 38.616C46.1857 38.4507 46.0257 38.248 45.903 38.008C45.7857 37.7627 45.727 37.4667 45.727 37.12C45.727 36.8107 45.791 36.5147 45.919 36.232C46.047 35.944 46.2337 35.6933 46.479 35.48C46.7243 35.2613 47.0257 35.088 47.383 34.96C47.7403 34.832 48.1483 34.768 48.607 34.768C49.1403 34.768 49.6177 34.8533 50.039 35.024C50.4657 35.1893 50.8337 35.4187 51.143 35.712L50.823 36.232ZM54.7769 35.976C55.1235 35.608 55.5075 35.3147 55.9289 35.096C56.3502 34.8773 56.8355 34.768 57.3849 34.768C57.8275 34.768 58.2169 34.8427 58.5529 34.992C58.8942 35.136 59.1769 35.344 59.4009 35.616C59.6302 35.8827 59.8035 36.2053 59.9209 36.584C60.0382 36.9627 60.0969 37.3813 60.0969 37.84V43H58.6649V37.84C58.6649 37.2267 58.5235 36.752 58.2409 36.416C57.9635 36.0747 57.5395 35.904 56.9689 35.904C56.5475 35.904 56.1529 36.0053 55.7849 36.208C55.4222 36.4107 55.0862 36.6853 54.7769 37.032V43H53.3449V31.216H54.7769V35.976ZM79.2645 31.536V43H77.9045V34.576C77.9045 34.464 77.9072 34.344 77.9125 34.216C77.9232 34.088 77.9338 33.9573 77.9445 33.824L74.0085 40.992C73.8858 41.232 73.6992 41.352 73.4485 41.352H73.2245C72.9738 41.352 72.7872 41.232 72.6645 40.992L68.6485 33.792C68.6805 34.0747 68.6965 34.336 68.6965 34.576V43H67.3365V31.536H68.4805C68.6192 31.536 68.7258 31.5493 68.8005 31.576C68.8752 31.6027 68.9472 31.6773 69.0165 31.8L72.9765 38.856C73.0405 38.984 73.1018 39.1173 73.1605 39.256C73.2245 39.3947 73.2832 39.536 73.3365 39.68C73.3898 39.536 73.4458 39.3947 73.5045 39.256C73.5632 39.112 73.6272 38.976 73.6965 38.848L77.5845 31.8C77.6485 31.6773 77.7178 31.6027 77.7925 31.576C77.8725 31.5493 77.9818 31.536 78.1205 31.536H79.2645ZM83.5589 34.896V43H82.1349V34.896H83.5589ZM83.8629 32.352C83.8629 32.4907 83.8335 32.6213 83.7749 32.744C83.7215 32.8613 83.6469 32.968 83.5509 33.064C83.4602 33.1547 83.3509 33.2267 83.2229 33.28C83.1002 33.3333 82.9695 33.36 82.8309 33.36C82.6922 33.36 82.5615 33.3333 82.4389 33.28C82.3215 33.2267 82.2175 33.1547 82.1269 33.064C82.0362 32.968 81.9642 32.8613 81.9109 32.744C81.8575 32.6213 81.8309 32.4907 81.8309 32.352C81.8309 32.2133 81.8575 32.0827 81.9109 31.96C81.9642 31.832 82.0362 31.7227 82.1269 31.632C82.2175 31.536 82.3215 31.4613 82.4389 31.408C82.5615 31.3547 82.6922 31.328 82.8309 31.328C82.9695 31.328 83.1002 31.3547 83.2229 31.408C83.3509 31.4613 83.4602 31.536 83.5509 31.632C83.6469 31.7227 83.7215 31.832 83.7749 31.96C83.8335 32.0827 83.8629 32.2133 83.8629 32.352ZM90.9386 36.232C90.8746 36.3493 90.776 36.408 90.6426 36.408C90.5626 36.408 90.472 36.3787 90.3706 36.32C90.2693 36.2613 90.144 36.1973 89.9946 36.128C89.8506 36.0533 89.6773 35.9867 89.4746 35.928C89.272 35.864 89.032 35.832 88.7546 35.832C88.5146 35.832 88.2986 35.864 88.1066 35.928C87.9146 35.9867 87.7493 36.0693 87.6106 36.176C87.4773 36.2827 87.3733 36.408 87.2986 36.552C87.2293 36.6907 87.1946 36.8427 87.1946 37.008C87.1946 37.216 87.2533 37.3893 87.3706 37.528C87.4933 37.6667 87.6533 37.7867 87.8506 37.888C88.048 37.9893 88.272 38.08 88.5226 38.16C88.7733 38.2347 89.0293 38.3173 89.2906 38.408C89.5573 38.4933 89.816 38.5893 90.0666 38.696C90.3173 38.8027 90.5413 38.936 90.7386 39.096C90.936 39.256 91.0933 39.4533 91.2106 39.688C91.3333 39.9173 91.3946 40.1947 91.3946 40.52C91.3946 40.8933 91.328 41.24 91.1946 41.56C91.0613 41.8747 90.864 42.1493 90.6026 42.384C90.3413 42.6133 90.0213 42.7947 89.6426 42.928C89.264 43.0613 88.8266 43.128 88.3306 43.128C87.7653 43.128 87.2533 43.0373 86.7946 42.856C86.336 42.6693 85.9466 42.432 85.6266 42.144L85.9626 41.6C86.0053 41.5307 86.056 41.4773 86.1146 41.44C86.1733 41.4027 86.248 41.384 86.3386 41.384C86.4346 41.384 86.536 41.4213 86.6426 41.496C86.7493 41.5707 86.8773 41.6533 87.0266 41.744C87.1813 41.8347 87.368 41.9173 87.5866 41.992C87.8053 42.0667 88.0773 42.104 88.4026 42.104C88.68 42.104 88.9226 42.0693 89.1306 42C89.3386 41.9253 89.512 41.8267 89.6506 41.704C89.7893 41.5813 89.8906 41.44 89.9546 41.28C90.024 41.12 90.0586 40.9493 90.0586 40.768C90.0586 40.544 89.9973 40.36 89.8746 40.216C89.7573 40.0667 89.6 39.9413 89.4026 39.84C89.2053 39.7333 88.9786 39.6427 88.7226 39.568C88.472 39.488 88.2133 39.4053 87.9466 39.32C87.6853 39.2347 87.4266 39.1387 87.1706 39.032C86.92 38.92 86.696 38.7813 86.4986 38.616C86.3013 38.4507 86.1413 38.248 86.0186 38.008C85.9013 37.7627 85.8426 37.4667 85.8426 37.12C85.8426 36.8107 85.9066 36.5147 86.0346 36.232C86.1626 35.944 86.3493 35.6933 86.5946 35.48C86.84 35.2613 87.1413 35.088 87.4986 34.96C87.856 34.832 88.264 34.768 88.7226 34.768C89.256 34.768 89.7333 34.8533 90.1546 35.024C90.5813 35.1893 90.9493 35.4187 91.2586 35.712L90.9386 36.232ZM95.9485 43.128C95.3085 43.128 94.8152 42.9493 94.4685 42.592C94.1272 42.2347 93.9565 41.72 93.9565 41.048V36.088H92.9805C92.8952 36.088 92.8232 36.064 92.7645 36.016C92.7058 35.9627 92.6765 35.8827 92.6765 35.776V35.208L94.0045 35.04L94.3325 32.536C94.3485 32.456 94.3832 32.392 94.4365 32.344C94.4952 32.2907 94.5698 32.264 94.6605 32.264H95.3805V35.056H97.7245V36.088H95.3805V40.952C95.3805 41.2933 95.4632 41.5467 95.6285 41.712C95.7938 41.8773 96.0072 41.96 96.2685 41.96C96.4178 41.96 96.5458 41.9413 96.6525 41.904C96.7645 41.8613 96.8605 41.816 96.9405 41.768C97.0205 41.72 97.0872 41.6773 97.1405 41.64C97.1992 41.5973 97.2498 41.576 97.2925 41.576C97.3672 41.576 97.4338 41.6213 97.4925 41.712L97.9085 42.392C97.6632 42.6213 97.3672 42.8027 97.0205 42.936C96.6738 43.064 96.3165 43.128 95.9485 43.128ZM100.867 36.52C101.123 35.9653 101.438 35.5333 101.811 35.224C102.184 34.9093 102.64 34.752 103.179 34.752C103.35 34.752 103.512 34.7707 103.667 34.808C103.827 34.8453 103.968 34.904 104.091 34.984L103.987 36.048C103.955 36.1813 103.875 36.248 103.747 36.248C103.672 36.248 103.563 36.232 103.419 36.2C103.275 36.168 103.112 36.152 102.931 36.152C102.675 36.152 102.446 36.1893 102.243 36.264C102.046 36.3387 101.867 36.4507 101.707 36.6C101.552 36.744 101.411 36.9253 101.283 37.144C101.16 37.3573 101.048 37.6027 100.947 37.88V43H99.5149V34.896H100.331C100.486 34.896 100.592 34.9253 100.651 34.984C100.71 35.0427 100.75 35.144 100.771 35.288L100.867 36.52ZM112.655 34.896L108.135 45.392C108.087 45.4987 108.026 45.584 107.951 45.648C107.882 45.712 107.772 45.744 107.623 45.744H106.567L108.047 42.528L104.703 34.896H105.935C106.058 34.896 106.154 34.928 106.223 34.992C106.298 35.0507 106.348 35.1173 106.375 35.192L108.543 40.296C108.628 40.52 108.7 40.7547 108.759 41C108.834 40.7493 108.914 40.512 108.999 40.288L111.103 35.192C111.135 35.1067 111.188 35.0373 111.263 34.984C111.343 34.9253 111.431 34.896 111.527 34.896H112.655ZM119.088 37.968C119.088 39.1093 119.232 40.2187 119.52 41.296C119.813 42.3733 120.24 43.3973 120.8 44.368C120.885 44.5333 120.907 44.6587 120.864 44.744C120.821 44.8347 120.76 44.9067 120.68 44.96L120.048 45.344C119.648 44.7307 119.307 44.1227 119.024 43.52C118.747 42.9173 118.52 42.312 118.344 41.704C118.173 41.096 118.048 40.4853 117.968 39.872C117.888 39.2533 117.848 38.6187 117.848 37.968C117.848 37.3227 117.888 36.6907 117.968 36.072C118.048 35.4533 118.173 34.8427 118.344 34.24C118.52 33.632 118.747 33.0267 119.024 32.424C119.307 31.8213 119.648 31.2107 120.048 30.592L120.68 30.984C120.76 31.0373 120.821 31.1093 120.864 31.2C120.907 31.2853 120.885 31.408 120.8 31.568C120.24 32.5387 119.813 33.5627 119.52 34.64C119.232 35.7173 119.088 36.8267 119.088 37.968ZM133.426 37.272C133.426 38.1307 133.29 38.92 133.018 39.64C132.746 40.3547 132.362 40.9707 131.866 41.488C131.37 42.0053 130.773 42.408 130.074 42.696C129.381 42.9787 128.613 43.12 127.77 43.12C126.927 43.12 126.159 42.9787 125.466 42.696C124.773 42.408 124.178 42.0053 123.682 41.488C123.186 40.9707 122.802 40.3547 122.53 39.64C122.258 38.92 122.122 38.1307 122.122 37.272C122.122 36.4133 122.258 35.6267 122.53 34.912C122.802 34.192 123.186 33.5733 123.682 33.056C124.178 32.5333 124.773 32.128 125.466 31.84C126.159 31.552 126.927 31.408 127.77 31.408C128.613 31.408 129.381 31.552 130.074 31.84C130.773 32.128 131.37 32.5333 131.866 33.056C132.362 33.5733 132.746 34.192 133.018 34.912C133.29 35.6267 133.426 36.4133 133.426 37.272ZM131.834 37.272C131.834 36.568 131.738 35.936 131.546 35.376C131.354 34.816 131.082 34.344 130.73 33.96C130.378 33.5707 129.951 33.272 129.45 33.064C128.949 32.856 128.389 32.752 127.77 32.752C127.157 32.752 126.599 32.856 126.098 33.064C125.597 33.272 125.167 33.5707 124.81 33.96C124.458 34.344 124.186 34.816 123.994 35.376C123.802 35.936 123.706 36.568 123.706 37.272C123.706 37.976 123.802 38.608 123.994 39.168C124.186 39.7227 124.458 40.1947 124.81 40.584C125.167 40.968 125.597 41.264 126.098 41.472C126.599 41.6747 127.157 41.776 127.77 41.776C128.389 41.776 128.949 41.6747 129.45 41.472C129.951 41.264 130.378 40.968 130.73 40.584C131.082 40.1947 131.354 39.7227 131.546 39.168C131.738 38.608 131.834 37.976 131.834 37.272ZM146.807 34.896L144.183 43H143.055C142.916 43 142.82 42.9093 142.767 42.728L140.975 37.232C140.932 37.1093 140.897 36.9867 140.871 36.864C140.844 36.736 140.817 36.6107 140.791 36.488C140.764 36.6107 140.737 36.736 140.711 36.864C140.684 36.9867 140.649 37.112 140.607 37.24L138.783 42.728C138.735 42.9093 138.628 43 138.463 43H137.391L134.767 34.896H135.887C135.999 34.896 136.092 34.9253 136.167 34.984C136.247 35.0427 136.3 35.112 136.327 35.192L137.879 40.408C137.969 40.792 138.041 41.1547 138.095 41.496C138.143 41.32 138.191 41.1413 138.239 40.96C138.292 40.7787 138.348 40.5947 138.407 40.408L140.119 35.16C140.145 35.08 140.191 35.0133 140.255 34.96C140.324 34.9067 140.407 34.88 140.503 34.88H141.127C141.233 34.88 141.321 34.9067 141.391 34.96C141.46 35.0133 141.508 35.08 141.535 35.16L143.207 40.408C143.265 40.5947 143.319 40.7787 143.367 40.96C143.415 41.1413 143.46 41.32 143.503 41.496C143.529 41.32 143.561 41.144 143.599 40.968C143.641 40.7867 143.687 40.6 143.735 40.408L145.319 35.192C145.345 35.1067 145.396 35.0373 145.471 34.984C145.545 34.9253 145.633 34.896 145.735 34.896H146.807ZM149.857 36.072C150.033 35.8747 150.22 35.696 150.417 35.536C150.614 35.376 150.822 35.24 151.041 35.128C151.265 35.0107 151.5 34.9227 151.745 34.864C151.996 34.8 152.265 34.768 152.553 34.768C152.996 34.768 153.385 34.8427 153.721 34.992C154.062 35.136 154.345 35.344 154.569 35.616C154.798 35.8827 154.972 36.2053 155.089 36.584C155.206 36.9627 155.265 37.3813 155.265 37.84V43H153.833V37.84C153.833 37.2267 153.692 36.752 153.409 36.416C153.132 36.0747 152.708 35.904 152.137 35.904C151.716 35.904 151.321 36.0053 150.953 36.208C150.59 36.4107 150.254 36.6853 149.945 37.032V43H148.513V34.896H149.369C149.572 34.896 149.697 34.9947 149.745 35.192L149.857 36.072ZM163.179 38.064C163.179 37.7333 163.131 37.432 163.035 37.16C162.944 36.8827 162.808 36.6453 162.627 36.448C162.451 36.2453 162.235 36.0907 161.979 35.984C161.723 35.872 161.432 35.816 161.107 35.816C160.424 35.816 159.883 36.016 159.483 36.416C159.088 36.8107 158.843 37.36 158.747 38.064H163.179ZM164.331 41.864C164.155 42.0773 163.944 42.264 163.699 42.424C163.454 42.5787 163.19 42.7067 162.907 42.808C162.63 42.9093 162.342 42.984 162.043 43.032C161.744 43.0853 161.448 43.112 161.155 43.112C160.595 43.112 160.078 43.0187 159.603 42.832C159.134 42.64 158.726 42.3627 158.379 42C158.038 41.632 157.771 41.1787 157.579 40.64C157.387 40.1013 157.291 39.4827 157.291 38.784C157.291 38.2187 157.376 37.6907 157.547 37.2C157.723 36.7093 157.974 36.2853 158.299 35.928C158.624 35.5653 159.022 35.2827 159.491 35.08C159.96 34.872 160.488 34.768 161.075 34.768C161.56 34.768 162.008 34.8507 162.419 35.016C162.835 35.176 163.192 35.4107 163.491 35.72C163.795 36.024 164.032 36.4027 164.203 36.856C164.374 37.304 164.459 37.816 164.459 38.392C164.459 38.616 164.435 38.7653 164.387 38.84C164.339 38.9147 164.248 38.952 164.115 38.952H158.699C158.715 39.464 158.784 39.9093 158.907 40.288C159.035 40.6667 159.211 40.984 159.435 41.24C159.659 41.4907 159.926 41.68 160.235 41.808C160.544 41.9307 160.891 41.992 161.275 41.992C161.632 41.992 161.939 41.952 162.195 41.872C162.456 41.7867 162.68 41.696 162.867 41.6C163.054 41.504 163.208 41.416 163.331 41.336C163.459 41.2507 163.568 41.208 163.659 41.208C163.776 41.208 163.867 41.2533 163.931 41.344L164.331 41.864ZM167.88 36.52C168.136 35.9653 168.451 35.5333 168.824 35.224C169.197 34.9093 169.653 34.752 170.192 34.752C170.363 34.752 170.525 34.7707 170.68 34.808C170.84 34.8453 170.981 34.904 171.104 34.984L171 36.048C170.968 36.1813 170.888 36.248 170.76 36.248C170.685 36.248 170.576 36.232 170.432 36.2C170.288 36.168 170.125 36.152 169.944 36.152C169.688 36.152 169.459 36.1893 169.256 36.264C169.059 36.3387 168.88 36.4507 168.72 36.6C168.565 36.744 168.424 36.9253 168.296 37.144C168.173 37.3573 168.061 37.6027 167.96 37.88V43H166.528V34.896H167.344C167.499 34.896 167.605 34.9253 167.664 34.984C167.723 35.0427 167.763 35.144 167.784 35.288L167.88 36.52ZM173.532 37.968C173.532 36.8267 173.385 35.7173 173.092 34.64C172.804 33.5627 172.38 32.5387 171.82 31.568C171.777 31.488 171.751 31.4187 171.74 31.36C171.729 31.296 171.732 31.2427 171.748 31.2C171.764 31.152 171.788 31.112 171.82 31.08C171.857 31.0427 171.897 31.0107 171.94 30.984L172.572 30.592C172.972 31.2107 173.311 31.8213 173.588 32.424C173.871 33.0267 174.097 33.632 174.268 34.24C174.444 34.8427 174.572 35.4533 174.652 36.072C174.732 36.6907 174.772 37.3227 174.772 37.968C174.772 38.6187 174.732 39.2533 174.652 39.872C174.572 40.4853 174.444 41.096 174.268 41.704C174.097 42.312 173.871 42.9173 173.588 43.52C173.311 44.1227 172.972 44.7307 172.572 45.344L171.94 44.96C171.897 44.9333 171.857 44.9013 171.82 44.864C171.788 44.832 171.764 44.792 171.748 44.744C171.732 44.7013 171.729 44.648 171.74 44.584C171.751 44.52 171.777 44.448 171.82 44.368C172.38 43.3973 172.804 42.3733 173.092 41.296C173.385 40.2187 173.532 39.1093 173.532 37.968Z" fill="#8686A1"/>
</svg>
