<svg width="151" height="55" viewBox="0 0 151 55" fill="none" xmlns="http://www.w3.org/2000/svg">
<g filter="url(#filter0_b_2004_2409)">
<path d="M0 8C0 3.58172 3.58172 0 8 0H143C147.418 0 151 3.58172 151 8V47C151 51.4183 147.418 55 143 55H8C3.58172 55 0 51.4183 0 47V8Z" fill="white" fill-opacity="0.6"/>
<path d="M8 1H143C146.866 1 150 4.13401 150 8V47C150 50.866 146.866 54 143 54H8C4.13401 54 1 50.866 1 47V8C1 4.13401 4.13401 1 8 1Z" stroke="url(#paint0_linear_2004_2409)" stroke-opacity="0.9" stroke-width="2"/>
</g>
<path d="M37 16.618L39.2186 23.4463L39.3309 23.7918H39.6942H46.8738L41.0654 28.0119L40.7715 28.2254L40.8837 28.5709L43.1024 35.3992L37.2939 31.1791L37 30.9656L36.7061 31.1791L30.8976 35.3992L33.1163 28.5709L33.2285 28.2254L32.9346 28.0119L27.1262 23.7918H34.3058H34.6691L34.7814 23.4463L37 16.618Z" stroke="#FF8C00"/>
<path d="M64.36 23.884C64.3067 23.9747 64.2507 24.0413 64.192 24.084C64.1333 24.1267 64.0587 24.148 63.968 24.148C63.872 24.148 63.7627 24.1053 63.64 24.02C63.5173 23.9293 63.3627 23.8307 63.176 23.724C62.9947 23.612 62.776 23.5133 62.52 23.428C62.264 23.3373 61.9573 23.292 61.6 23.292C61.264 23.292 60.968 23.3373 60.712 23.428C60.4613 23.5133 60.2507 23.6333 60.08 23.788C59.9093 23.9373 59.7787 24.116 59.688 24.324C59.6027 24.5267 59.56 24.748 59.56 24.988C59.56 25.2973 59.6373 25.5533 59.792 25.756C59.952 25.9587 60.16 26.132 60.416 26.276C60.672 26.42 60.9627 26.5453 61.288 26.652C61.6133 26.7587 61.9467 26.8707 62.288 26.988C62.6293 27.1 62.9627 27.2307 63.288 27.38C63.6133 27.5293 63.904 27.7187 64.16 27.948C64.416 28.172 64.6213 28.4493 64.776 28.78C64.936 29.1053 65.016 29.5053 65.016 29.98C65.016 30.4867 64.928 30.9613 64.752 31.404C64.5813 31.8467 64.3307 32.2333 64 32.564C63.6693 32.8947 63.2613 33.156 62.776 33.348C62.296 33.5347 61.7493 33.628 61.136 33.628C60.768 33.628 60.4107 33.5907 60.064 33.516C59.7173 33.4467 59.3893 33.348 59.08 33.22C58.7707 33.0867 58.48 32.9293 58.208 32.748C57.9413 32.5613 57.7013 32.3533 57.488 32.124L57.976 31.308C58.024 31.244 58.08 31.1907 58.144 31.148C58.2133 31.1053 58.2907 31.084 58.376 31.084C58.488 31.084 58.616 31.1427 58.76 31.26C58.9093 31.3773 59.0907 31.508 59.304 31.652C59.5227 31.7907 59.7813 31.9187 60.08 32.036C60.384 32.1533 60.752 32.212 61.184 32.212C61.536 32.212 61.8507 32.1667 62.128 32.076C62.4053 31.98 62.6373 31.8467 62.824 31.676C63.016 31.5 63.1627 31.2893 63.264 31.044C63.3653 30.7987 63.416 30.5267 63.416 30.228C63.416 29.892 63.3387 29.6173 63.184 29.404C63.0293 29.1907 62.824 29.012 62.568 28.868C62.312 28.724 62.0213 28.6013 61.696 28.5C61.3707 28.3987 61.0373 28.2947 60.696 28.188C60.3547 28.076 60.0213 27.948 59.696 27.804C59.3707 27.66 59.08 27.4733 58.824 27.244C58.568 27.0093 58.3627 26.7187 58.208 26.372C58.0533 26.02 57.976 25.588 57.976 25.076C57.976 24.6653 58.056 24.268 58.216 23.884C58.376 23.5 58.608 23.1613 58.912 22.868C59.2213 22.5693 59.6 22.332 60.048 22.156C60.496 21.9747 61.008 21.884 61.584 21.884C62.2293 21.884 62.8213 21.988 63.36 22.196C63.904 22.3987 64.376 22.692 64.776 23.076L64.36 23.884ZM69.3037 33.628C68.6477 33.628 68.1411 33.444 67.7837 33.076C67.4317 32.708 67.2557 32.1827 67.2557 31.5V26.636H66.3117C66.2211 26.636 66.1437 26.6093 66.0797 26.556C66.0211 26.4973 65.9917 26.412 65.9917 26.3V25.668L67.3117 25.484L67.6637 23.06C67.6851 22.9693 67.7251 22.9 67.7837 22.852C67.8477 22.7987 67.9277 22.772 68.0237 22.772H68.8157V25.5H71.1198V26.636H68.8157V31.396C68.8157 31.716 68.8931 31.956 69.0477 32.116C69.2077 32.2707 69.4104 32.348 69.6557 32.348C69.7997 32.348 69.9224 32.3293 70.0237 32.292C70.1304 32.2547 70.2211 32.2147 70.2958 32.172C70.3704 32.124 70.4344 32.0813 70.4878 32.044C70.5411 32.0067 70.5891 31.988 70.6318 31.988C70.6851 31.988 70.7251 32.0013 70.7517 32.028C70.7837 32.0493 70.8157 32.0867 70.8477 32.14L71.3117 32.892C71.0558 33.1267 70.7517 33.308 70.3997 33.436C70.0477 33.564 69.6824 33.628 69.3037 33.628ZM77.2446 29.892C76.61 29.9133 76.0713 29.964 75.6286 30.044C75.186 30.1187 74.826 30.22 74.5486 30.348C74.2713 30.476 74.0713 30.628 73.9486 30.804C73.826 30.9747 73.7646 31.1667 73.7646 31.38C73.7646 31.5827 73.7966 31.7587 73.8606 31.908C73.93 32.052 74.0206 32.172 74.1326 32.268C74.25 32.3587 74.386 32.4253 74.5406 32.468C74.6953 32.5107 74.8633 32.532 75.0446 32.532C75.2846 32.532 75.5033 32.508 75.7006 32.46C75.9033 32.412 76.0926 32.3453 76.2686 32.26C76.4446 32.1693 76.6126 32.06 76.7726 31.932C76.9326 31.804 77.09 31.6573 77.2446 31.492V29.892ZM72.6686 26.508C73.122 26.076 73.6126 25.7533 74.1406 25.54C74.674 25.3267 75.258 25.22 75.8926 25.22C76.3566 25.22 76.7673 25.2973 77.1246 25.452C77.482 25.6013 77.7833 25.812 78.0286 26.084C78.274 26.356 78.458 26.6813 78.5806 27.06C78.7086 27.4387 78.7726 27.8573 78.7726 28.316V33.5H78.0766C77.922 33.5 77.8046 33.476 77.7246 33.428C77.6446 33.3747 77.5806 33.2787 77.5326 33.14L77.3646 32.428C77.1566 32.62 76.9513 32.7907 76.7486 32.94C76.546 33.084 76.3326 33.2093 76.1086 33.316C75.89 33.4173 75.6553 33.4947 75.4046 33.548C75.154 33.6013 74.8766 33.628 74.5726 33.628C74.2526 33.628 73.9513 33.5853 73.6686 33.5C73.3913 33.4093 73.1486 33.2733 72.9406 33.092C72.7326 32.9107 72.5673 32.684 72.4446 32.412C72.3273 32.14 72.2686 31.8227 72.2686 31.46C72.2686 31.14 72.354 30.8333 72.5246 30.54C72.7006 30.2413 72.9833 29.9747 73.3726 29.74C73.7673 29.5053 74.2793 29.3133 74.9086 29.164C75.5433 29.0147 76.322 28.9293 77.2446 28.908V28.316C77.2446 27.7027 77.114 27.244 76.8526 26.94C76.5913 26.636 76.2073 26.484 75.7006 26.484C75.3593 26.484 75.0713 26.5267 74.8366 26.612C74.6073 26.6973 74.4073 26.7933 74.2366 26.9C74.0713 27.0013 73.9246 27.0947 73.7966 27.18C73.674 27.2653 73.546 27.308 73.4126 27.308C73.306 27.308 73.2126 27.2787 73.1326 27.22C73.058 27.1613 72.9966 27.092 72.9486 27.012L72.6686 26.508ZM82.653 26.932C82.9143 26.3987 83.229 25.98 83.597 25.676C83.965 25.372 84.4077 25.22 84.925 25.22C85.101 25.22 85.2663 25.2413 85.421 25.284C85.581 25.3213 85.7197 25.38 85.837 25.46L85.733 26.636C85.6957 26.78 85.6077 26.852 85.469 26.852C85.3943 26.852 85.2823 26.8387 85.133 26.812C84.9837 26.78 84.8237 26.764 84.653 26.764C84.4023 26.764 84.181 26.8013 83.989 26.876C83.797 26.9453 83.6237 27.052 83.469 27.196C83.3197 27.3347 83.1863 27.508 83.069 27.716C82.9517 27.9187 82.8423 28.1507 82.741 28.412V33.5H81.181V25.372H82.077C82.2477 25.372 82.3623 25.404 82.421 25.468C82.485 25.5267 82.5303 25.6333 82.557 25.788L82.653 26.932ZM93.4155 23.396V27.244H98.0235V28.628H93.4155V33.5H91.7035V22.012H98.8235V23.396H93.4155ZM102.351 25.372V33.5H100.791V25.372H102.351ZM102.647 22.86C102.647 23.004 102.618 23.1427 102.559 23.276C102.5 23.404 102.42 23.5187 102.319 23.62C102.223 23.716 102.108 23.7933 101.975 23.852C101.842 23.9053 101.703 23.932 101.559 23.932C101.415 23.932 101.279 23.9053 101.151 23.852C101.023 23.7933 100.908 23.716 100.807 23.62C100.711 23.5187 100.634 23.404 100.575 23.276C100.522 23.1427 100.495 23.004 100.495 22.86C100.495 22.7107 100.522 22.572 100.575 22.444C100.634 22.3107 100.711 22.196 100.807 22.1C100.908 21.9987 101.023 21.9213 101.151 21.868C101.279 21.8093 101.415 21.78 101.559 21.78C101.703 21.78 101.842 21.8093 101.975 21.868C102.108 21.9213 102.223 21.9987 102.319 22.1C102.42 22.196 102.5 22.3107 102.559 22.444C102.618 22.572 102.647 22.7107 102.647 22.86ZM110.314 28.532C110.314 28.2227 110.268 27.9373 110.178 27.676C110.092 27.4147 109.964 27.188 109.794 26.996C109.623 26.804 109.415 26.6547 109.17 26.548C108.924 26.4413 108.642 26.388 108.322 26.388C107.666 26.388 107.148 26.5773 106.77 26.956C106.396 27.3347 106.159 27.86 106.058 28.532H110.314ZM111.602 32.34C111.41 32.564 111.188 32.7587 110.938 32.924C110.687 33.084 110.42 33.2147 110.138 33.316C109.855 33.4173 109.562 33.492 109.258 33.54C108.959 33.588 108.663 33.612 108.37 33.612C107.81 33.612 107.29 33.5187 106.81 33.332C106.335 33.14 105.922 32.8627 105.57 32.5C105.223 32.132 104.951 31.6787 104.754 31.14C104.562 30.596 104.466 29.972 104.466 29.268C104.466 28.7027 104.554 28.1773 104.73 27.692C104.906 27.2013 105.156 26.7747 105.482 26.412C105.812 26.0493 106.215 25.764 106.69 25.556C107.164 25.348 107.698 25.244 108.29 25.244C108.786 25.244 109.242 25.3267 109.658 25.492C110.079 25.652 110.442 25.8867 110.746 26.196C111.05 26.5053 111.287 26.8867 111.458 27.34C111.634 27.7933 111.722 28.3107 111.722 28.892C111.722 29.132 111.695 29.2947 111.642 29.38C111.588 29.46 111.49 29.5 111.346 29.5H106.018C106.034 29.9853 106.103 30.4093 106.226 30.772C106.348 31.1293 106.516 31.428 106.73 31.668C106.948 31.908 107.207 32.0867 107.506 32.204C107.804 32.3213 108.138 32.38 108.506 32.38C108.852 32.38 109.151 32.34 109.402 32.26C109.658 32.18 109.876 32.0947 110.058 32.004C110.244 31.908 110.399 31.82 110.522 31.74C110.65 31.66 110.762 31.62 110.858 31.62C110.986 31.62 111.084 31.668 111.154 31.764L111.602 32.34ZM115.319 21.692V33.5H113.751V21.692H115.319ZM123.107 27.34C122.851 27.004 122.573 26.7693 122.275 26.636C121.981 26.5027 121.651 26.436 121.283 26.436C120.568 26.436 120.013 26.6947 119.619 27.212C119.229 27.724 119.035 28.4733 119.035 29.46C119.035 29.9773 119.077 30.42 119.163 30.788C119.253 31.1507 119.381 31.4493 119.547 31.684C119.717 31.9133 119.925 32.084 120.171 32.196C120.416 32.3027 120.693 32.356 121.003 32.356C121.456 32.356 121.848 32.2547 122.179 32.052C122.509 31.8493 122.819 31.564 123.107 31.196V27.34ZM124.675 21.692V33.5H123.731C123.512 33.5 123.376 33.396 123.323 33.188L123.187 32.252C122.84 32.6627 122.445 32.9933 122.003 33.244C121.565 33.4893 121.059 33.612 120.483 33.612C120.019 33.612 119.597 33.5213 119.219 33.34C118.845 33.1587 118.525 32.8947 118.259 32.548C117.992 32.196 117.787 31.7613 117.643 31.244C117.499 30.7267 117.427 30.132 117.427 29.46C117.427 28.8573 117.507 28.2973 117.667 27.78C117.827 27.2627 118.059 26.8147 118.363 26.436C118.667 26.0573 119.035 25.7613 119.467 25.548C119.899 25.3293 120.387 25.22 120.931 25.22C121.421 25.22 121.837 25.3 122.179 25.46C122.525 25.62 122.835 25.8467 123.107 26.14V21.692H124.675Z" fill="#3C3C6F"/>
<defs>
<filter id="filter0_b_2004_2409" x="-30" y="-30" width="211" height="115" filterUnits="userSpaceOnUse" color-interpolation-filters="sRGB">
<feFlood flood-opacity="0" result="BackgroundImageFix"/>
<feGaussianBlur in="BackgroundImageFix" stdDeviation="15"/>
<feComposite in2="SourceAlpha" operator="in" result="effect1_backgroundBlur_2004_2409"/>
<feBlend mode="normal" in="SourceGraphic" in2="effect1_backgroundBlur_2004_2409" result="shape"/>
</filter>
<linearGradient id="paint0_linear_2004_2409" x1="10.6609" y1="-8.82076" x2="69.1523" y2="-3.01575" gradientUnits="userSpaceOnUse">
<stop stop-color="white"/>
<stop offset="1" stop-color="white" stop-opacity="0"/>
</linearGradient>
</defs>
</svg>
