<svg width="1140" height="78" viewBox="0 0 1140 78" fill="none" xmlns="http://www.w3.org/2000/svg">
<path d="M16 1H1124C1132.28 1 1139 7.71573 1139 16V62C1139 70.2843 1132.28 77 1124 77H16C7.71575 77 1 70.2843 1 62V16C1 7.71573 7.71573 1 16 1Z" fill="url(#paint0_linear_2003_2324)" fill-opacity="0.87"/>
<path d="M16 1H1124C1132.28 1 1139 7.71573 1139 16V62C1139 70.2843 1132.28 77 1124 77H16C7.71575 77 1 70.2843 1 62V16C1 7.71573 7.71573 1 16 1Z" stroke="url(#paint1_linear_2003_2324)" stroke-width="2"/>
<path d="M16 1H1124C1132.28 1 1139 7.71573 1139 16V62C1139 70.2843 1132.28 77 1124 77H16C7.71575 77 1 70.2843 1 62V16C1 7.71573 7.71573 1 16 1Z" stroke="url(#paint2_linear_2003_2324)" stroke-width="2"/>
<path d="M41.04 33.432V45H39.936C39.7653 45 39.6213 44.9733 39.504 44.92C39.392 44.8613 39.2827 44.7653 39.176 44.632L33.136 36.92C33.168 37.272 33.184 37.5973 33.184 37.896V45H31.288V33.432H32.416C32.5067 33.432 32.584 33.4373 32.648 33.448C32.7173 33.4533 32.776 33.4693 32.824 33.496C32.8773 33.5173 32.928 33.552 32.976 33.6C33.024 33.6427 33.0773 33.7013 33.136 33.776L39.2 41.52C39.184 41.3333 39.1707 41.1493 39.16 40.968C39.1493 40.7867 39.144 40.6187 39.144 40.464V33.432H41.04ZM48.6621 39.952C48.6621 39.696 48.6248 39.456 48.5501 39.232C48.4808 39.0027 48.3741 38.8027 48.2301 38.632C48.0861 38.4613 47.9021 38.328 47.6781 38.232C47.4595 38.1307 47.2035 38.08 46.9101 38.08C46.3395 38.08 45.8888 38.2427 45.5581 38.568C45.2328 38.8933 45.0248 39.3547 44.9341 39.952H48.6621ZM44.8941 41.144C44.9261 41.5653 45.0008 41.9307 45.1181 42.24C45.2355 42.544 45.3901 42.7973 45.5821 43C45.7741 43.1973 46.0008 43.3467 46.2621 43.448C46.5288 43.544 46.8221 43.592 47.1421 43.592C47.4621 43.592 47.7368 43.5547 47.9661 43.48C48.2008 43.4053 48.4035 43.3227 48.5741 43.232C48.7501 43.1413 48.9021 43.0587 49.0301 42.984C49.1635 42.9093 49.2915 42.872 49.4141 42.872C49.5795 42.872 49.7021 42.9333 49.7821 43.056L50.3501 43.776C50.1315 44.032 49.8861 44.248 49.6141 44.424C49.3421 44.5947 49.0568 44.7333 48.7581 44.84C48.4648 44.9413 48.1635 45.0133 47.8541 45.056C47.5501 45.0987 47.2541 45.12 46.9661 45.12C46.3955 45.12 45.8648 45.0267 45.3741 44.84C44.8835 44.648 44.4568 44.368 44.0941 44C43.7315 43.6267 43.4461 43.168 43.2381 42.624C43.0301 42.0747 42.9261 41.44 42.9261 40.72C42.9261 40.16 43.0168 39.6347 43.1981 39.144C43.3795 38.648 43.6381 38.2187 43.9741 37.856C44.3155 37.488 44.7288 37.1973 45.2141 36.984C45.7048 36.7707 46.2568 36.664 46.8701 36.664C47.3875 36.664 47.8648 36.7467 48.3021 36.912C48.7395 37.0773 49.1155 37.32 49.4301 37.64C49.7448 37.9547 49.9901 38.344 50.1661 38.808C50.3475 39.2667 50.4381 39.792 50.4381 40.384C50.4381 40.6827 50.4061 40.8853 50.3421 40.992C50.2781 41.0933 50.1555 41.144 49.9741 41.144H44.8941ZM63.8516 36.792L61.2436 45H59.6596C59.4783 45 59.353 44.8827 59.2836 44.648L57.8116 39.904C57.7636 39.744 57.7183 39.5867 57.6756 39.432C57.6383 39.272 57.6063 39.112 57.5796 38.952C57.5476 39.112 57.5103 39.2747 57.4676 39.44C57.4303 39.6 57.3876 39.76 57.3396 39.92L55.8436 44.648C55.7796 44.8827 55.6383 45 55.4196 45H53.8996L51.2996 36.792H52.8756C53.0196 36.792 53.1423 36.8267 53.2436 36.896C53.345 36.9653 53.4116 37.0533 53.4436 37.16L54.6196 41.544C54.6783 41.784 54.729 42.0187 54.7716 42.248C54.8196 42.4773 54.8596 42.7067 54.8916 42.936C54.9503 42.7067 55.0116 42.4773 55.0756 42.248C55.145 42.0187 55.217 41.784 55.2916 41.544L56.6516 37.144C56.6836 37.0373 56.745 36.9493 56.8356 36.88C56.9316 36.8107 57.0463 36.776 57.1796 36.776H58.0516C58.1903 36.776 58.3076 36.8107 58.4036 36.88C58.505 36.9493 58.5716 37.0373 58.6036 37.144L59.9236 41.544C59.993 41.784 60.057 42.0213 60.1156 42.256C60.1796 42.4853 60.241 42.7147 60.2996 42.944C60.369 42.4907 60.4676 42.024 60.5956 41.544L61.8036 37.16C61.841 37.0533 61.9076 36.9653 62.0036 36.896C62.0996 36.8267 62.2143 36.792 62.3476 36.792H63.8516ZM71.6499 35.144V38.568H75.9859V40.288H71.6499V45H69.4899V33.432H76.7859V35.144H71.6499ZM80.5927 36.792V45H78.6087V36.792H80.5927ZM80.8647 34.4C80.8647 34.5707 80.8301 34.7307 80.7607 34.88C80.6914 35.0293 80.5981 35.16 80.4807 35.272C80.3687 35.384 80.2354 35.4747 80.0807 35.544C79.9261 35.608 79.7607 35.64 79.5847 35.64C79.4141 35.64 79.2514 35.608 79.0967 35.544C78.9474 35.4747 78.8167 35.384 78.7047 35.272C78.5927 35.16 78.5021 35.0293 78.4327 34.88C78.3687 34.7307 78.3367 34.5707 78.3367 34.4C78.3367 34.224 78.3687 34.0587 78.4327 33.904C78.5021 33.7493 78.5927 33.616 78.7047 33.504C78.8167 33.392 78.9474 33.304 79.0967 33.24C79.2514 33.1707 79.4141 33.136 79.5847 33.136C79.7607 33.136 79.9261 33.1707 80.0807 33.24C80.2354 33.304 80.3687 33.392 80.4807 33.504C80.5981 33.616 80.6914 33.7493 80.7607 33.904C80.8301 34.0587 80.8647 34.224 80.8647 34.4ZM88.2152 39.952C88.2152 39.696 88.1779 39.456 88.1032 39.232C88.0339 39.0027 87.9272 38.8027 87.7832 38.632C87.6392 38.4613 87.4552 38.328 87.2312 38.232C87.0126 38.1307 86.7566 38.08 86.4632 38.08C85.8926 38.08 85.4419 38.2427 85.1112 38.568C84.7859 38.8933 84.5779 39.3547 84.4872 39.952H88.2152ZM84.4472 41.144C84.4792 41.5653 84.5539 41.9307 84.6712 42.24C84.7886 42.544 84.9432 42.7973 85.1352 43C85.3272 43.1973 85.5539 43.3467 85.8152 43.448C86.0819 43.544 86.3752 43.592 86.6952 43.592C87.0152 43.592 87.2899 43.5547 87.5192 43.48C87.7539 43.4053 87.9566 43.3227 88.1272 43.232C88.3032 43.1413 88.4552 43.0587 88.5832 42.984C88.7166 42.9093 88.8446 42.872 88.9672 42.872C89.1326 42.872 89.2552 42.9333 89.3352 43.056L89.9032 43.776C89.6846 44.032 89.4392 44.248 89.1672 44.424C88.8952 44.5947 88.6099 44.7333 88.3112 44.84C88.0179 44.9413 87.7166 45.0133 87.4072 45.056C87.1032 45.0987 86.8072 45.12 86.5192 45.12C85.9486 45.12 85.4179 45.0267 84.9272 44.84C84.4366 44.648 84.0099 44.368 83.6472 44C83.2846 43.6267 82.9992 43.168 82.7912 42.624C82.5832 42.0747 82.4792 41.44 82.4792 40.72C82.4792 40.16 82.5699 39.6347 82.7512 39.144C82.9326 38.648 83.1912 38.2187 83.5272 37.856C83.8686 37.488 84.2819 37.1973 84.7672 36.984C85.2579 36.7707 85.8099 36.664 86.4232 36.664C86.9406 36.664 87.4179 36.7467 87.8552 36.912C88.2926 37.0773 88.6686 37.32 88.9832 37.64C89.2979 37.9547 89.5432 38.344 89.7192 38.808C89.9006 39.2667 89.9912 39.792 89.9912 40.384C89.9912 40.6827 89.9592 40.8853 89.8952 40.992C89.8312 41.0933 89.7086 41.144 89.5272 41.144H84.4472ZM93.7941 33.112V45H91.8181V33.112H93.7941ZM101.235 38.888C101.011 38.616 100.766 38.424 100.499 38.312C100.238 38.2 99.9549 38.144 99.6509 38.144C99.3522 38.144 99.0829 38.2 98.8429 38.312C98.6029 38.424 98.3975 38.5947 98.2269 38.824C98.0562 39.048 97.9255 39.336 97.8349 39.688C97.7442 40.0347 97.6989 40.4453 97.6989 40.92C97.6989 41.4 97.7362 41.808 97.8109 42.144C97.8909 42.4747 98.0029 42.7467 98.1469 42.96C98.2909 43.168 98.4669 43.32 98.6749 43.416C98.8829 43.5067 99.1149 43.552 99.3709 43.552C99.7815 43.552 100.131 43.4667 100.419 43.296C100.707 43.1253 100.979 42.8827 101.235 42.568V38.888ZM103.211 33.112V45H102.003C101.742 45 101.576 44.88 101.507 44.64L101.339 43.848C101.008 44.2267 100.627 44.5333 100.195 44.768C99.7682 45.0027 99.2695 45.12 98.6989 45.12C98.2509 45.12 97.8402 45.0267 97.4669 44.84C97.0935 44.6533 96.7709 44.384 96.4989 44.032C96.2322 43.6747 96.0242 43.2347 95.8749 42.712C95.7309 42.1893 95.6589 41.592 95.6589 40.92C95.6589 40.312 95.7415 39.7467 95.9069 39.224C96.0722 38.7013 96.3095 38.248 96.6189 37.864C96.9282 37.48 97.2989 37.1813 97.7309 36.968C98.1629 36.7493 98.6482 36.64 99.1869 36.64C99.6455 36.64 100.038 36.712 100.363 36.856C100.688 37 100.979 37.1947 101.235 37.44V33.112H103.211Z" fill="#3C3C6F"/>
<path d="M1058 29.43H1048C1045 29.43 1043 31.43 1043 34.43V40.43C1043 43.43 1045 45.43 1048 45.43V47.56C1048 48.36 1048.89 48.84 1049.55 48.39L1054 45.43H1058C1061 45.43 1063 43.43 1063 40.43V34.43C1063 31.43 1061 29.43 1058 29.43ZM1053 41.6C1052.58 41.6 1052.25 41.26 1052.25 40.85C1052.25 40.44 1052.58 40.1 1053 40.1C1053.42 40.1 1053.75 40.44 1053.75 40.85C1053.75 41.26 1053.42 41.6 1053 41.6ZM1054.26 37.45C1053.87 37.71 1053.75 37.88 1053.75 38.16V38.37C1053.75 38.78 1053.41 39.12 1053 39.12C1052.59 39.12 1052.25 38.78 1052.25 38.37V38.16C1052.25 37 1053.1 36.43 1053.42 36.21C1053.79 35.96 1053.91 35.79 1053.91 35.53C1053.91 35.03 1053.5 34.62 1053 34.62C1052.5 34.62 1052.09 35.03 1052.09 35.53C1052.09 35.94 1051.75 36.28 1051.34 36.28C1050.93 36.28 1050.59 35.94 1050.59 35.53C1050.59 34.2 1051.67 33.12 1053 33.12C1054.33 33.12 1055.41 34.2 1055.41 35.53C1055.41 36.67 1054.57 37.24 1054.26 37.45Z" fill="#C4C4C4"/>
<path d="M1098 29C1092.49 29 1088 33.49 1088 39C1088 44.51 1092.49 49 1098 49C1103.51 49 1108 44.51 1108 39C1108 33.49 1103.51 29 1098 29ZM1101.36 41.3C1101.65 41.59 1101.65 42.07 1101.36 42.36C1101.21 42.51 1101.02 42.58 1100.83 42.58C1100.64 42.58 1100.45 42.51 1100.3 42.36L1098 40.06L1095.7 42.36C1095.55 42.51 1095.36 42.58 1095.17 42.58C1094.98 42.58 1094.79 42.51 1094.64 42.36C1094.35 42.07 1094.35 41.59 1094.64 41.3L1096.94 39L1094.64 36.7C1094.35 36.41 1094.35 35.93 1094.64 35.64C1094.93 35.35 1095.41 35.35 1095.7 35.64L1098 37.94L1100.3 35.64C1100.59 35.35 1101.07 35.35 1101.36 35.64C1101.65 35.93 1101.65 36.41 1101.36 36.7L1099.06 39L1101.36 41.3Z" fill="#3C3C6F"/>
<defs>
<linearGradient id="paint0_linear_2003_2324" x1="183.268" y1="1.35786" x2="190.112" y2="121.719" gradientUnits="userSpaceOnUse">
<stop stop-color="white" stop-opacity="0.6"/>
<stop offset="1" stop-color="white" stop-opacity="0.2"/>
</linearGradient>
<linearGradient id="paint1_linear_2003_2324" x1="67.6901" y1="6.99612e-07" x2="91.3704" y2="125.911" gradientUnits="userSpaceOnUse">
<stop stop-color="white" stop-opacity="0.62"/>
<stop offset="0.946466" stop-color="white" stop-opacity="0"/>
</linearGradient>
<linearGradient id="paint2_linear_2003_2324" x1="735.288" y1="18.0661" x2="745.205" y2="-56.3321" gradientUnits="userSpaceOnUse">
<stop stop-color="white" stop-opacity="0"/>
<stop offset="1" stop-color="white"/>
</linearGradient>
</defs>
</svg>
