<svg width="110" height="42" viewBox="0 0 110 42" fill="none" xmlns="http://www.w3.org/2000/svg">
<rect width="110" height="42" rx="8" fill="#FF8C00"/>
<path d="M38.4512 17.11H35.2032V26H33.8522V17.11H30.5972V15.969H38.4512V17.11ZM44.2938 18.909V26H43.5518C43.3744 26 43.2624 25.9137 43.2158 25.741L43.1178 24.978C42.8098 25.3187 42.4644 25.594 42.0818 25.804C41.6991 26.0093 41.2604 26.112 40.7658 26.112C40.3784 26.112 40.0354 26.049 39.7368 25.923C39.4428 25.7923 39.1954 25.6103 38.9948 25.377C38.7941 25.1437 38.6424 24.8613 38.5398 24.53C38.4418 24.1987 38.3928 23.8323 38.3928 23.431V18.909H39.6388V23.431C39.6388 23.9677 39.7601 24.383 40.0028 24.677C40.2501 24.971 40.6258 25.118 41.1298 25.118C41.4984 25.118 41.8414 25.0317 42.1588 24.859C42.4808 24.6817 42.7771 24.439 43.0478 24.131V18.909H44.2938ZM48.7264 26.112C48.1664 26.112 47.7348 25.9557 47.4314 25.643C47.1328 25.3303 46.9834 24.88 46.9834 24.292V19.952H46.1294C46.0548 19.952 45.9918 19.931 45.9404 19.889C45.8891 19.8423 45.8634 19.7723 45.8634 19.679V19.182L47.0254 19.035L47.3124 16.844C47.3264 16.774 47.3568 16.718 47.4034 16.676C47.4548 16.6293 47.5201 16.606 47.5994 16.606H48.2294V19.049H50.2804V19.952H48.2294V24.208C48.2294 24.5067 48.3018 24.7283 48.4464 24.873C48.5911 25.0177 48.7778 25.09 49.0064 25.09C49.1371 25.09 49.2491 25.0737 49.3424 25.041C49.4404 25.0037 49.5244 24.964 49.5944 24.922C49.6644 24.88 49.7228 24.8427 49.7694 24.81C49.8208 24.7727 49.8651 24.754 49.9024 24.754C49.9678 24.754 50.0261 24.7937 50.0774 24.873L50.4414 25.468C50.2268 25.6687 49.9678 25.8273 49.6644 25.944C49.3611 26.056 49.0484 26.112 48.7264 26.112ZM54.795 18.797C55.313 18.797 55.7797 18.8833 56.195 19.056C56.6103 19.2287 56.965 19.4737 57.259 19.791C57.553 20.1083 57.777 20.4933 57.931 20.946C58.0897 21.394 58.169 21.8957 58.169 22.451C58.169 23.011 58.0897 23.515 57.931 23.963C57.777 24.411 57.553 24.7937 57.259 25.111C56.965 25.4283 56.6103 25.6733 56.195 25.846C55.7797 26.014 55.313 26.098 54.795 26.098C54.2723 26.098 53.801 26.014 53.381 25.846C52.9657 25.6733 52.611 25.4283 52.317 25.111C52.023 24.7937 51.7967 24.411 51.638 23.963C51.484 23.515 51.407 23.011 51.407 22.451C51.407 21.8957 51.484 21.394 51.638 20.946C51.7967 20.4933 52.023 20.1083 52.317 19.791C52.611 19.4737 52.9657 19.2287 53.381 19.056C53.801 18.8833 54.2723 18.797 54.795 18.797ZM54.795 25.125C55.495 25.125 56.0177 24.8917 56.363 24.425C56.7083 23.9537 56.881 23.298 56.881 22.458C56.881 21.6133 56.7083 20.9553 56.363 20.484C56.0177 20.0127 55.495 19.777 54.795 19.777C54.4403 19.777 54.13 19.8377 53.864 19.959C53.6027 20.0803 53.3833 20.2553 53.206 20.484C53.0333 20.7127 52.9027 20.995 52.814 21.331C52.73 21.6623 52.688 22.038 52.688 22.458C52.688 23.298 52.8607 23.9537 53.206 24.425C53.556 24.8917 54.0857 25.125 54.795 25.125ZM61.2123 20.33C61.4363 19.8447 61.7117 19.4667 62.0383 19.196C62.365 18.9207 62.764 18.783 63.2353 18.783C63.3847 18.783 63.527 18.7993 63.6623 18.832C63.8023 18.8647 63.926 18.916 64.0333 18.986L63.9423 19.917C63.9143 20.0337 63.8443 20.092 63.7323 20.092C63.667 20.092 63.5713 20.078 63.4453 20.05C63.3193 20.022 63.177 20.008 63.0183 20.008C62.7943 20.008 62.5937 20.0407 62.4163 20.106C62.2437 20.1713 62.0873 20.2693 61.9473 20.4C61.812 20.526 61.6883 20.6847 61.5763 20.876C61.469 21.0627 61.371 21.2773 61.2823 21.52V26H60.0293V18.909H60.7433C60.8787 18.909 60.972 18.9347 61.0233 18.986C61.0747 19.0373 61.1097 19.126 61.1283 19.252L61.2123 20.33ZM66.725 18.909V26H65.479V18.909H66.725ZM66.991 16.683C66.991 16.8043 66.9653 16.9187 66.914 17.026C66.8673 17.1287 66.802 17.222 66.718 17.306C66.6386 17.3853 66.543 17.4483 66.431 17.495C66.3236 17.5417 66.2093 17.565 66.088 17.565C65.9666 17.565 65.8523 17.5417 65.745 17.495C65.6423 17.4483 65.5513 17.3853 65.472 17.306C65.3926 17.222 65.3296 17.1287 65.283 17.026C65.2363 16.9187 65.213 16.8043 65.213 16.683C65.213 16.5617 65.2363 16.4473 65.283 16.34C65.3296 16.228 65.3926 16.1323 65.472 16.053C65.5513 15.969 65.6423 15.9037 65.745 15.857C65.8523 15.8103 65.9666 15.787 66.088 15.787C66.2093 15.787 66.3236 15.8103 66.431 15.857C66.543 15.9037 66.6386 15.969 66.718 16.053C66.802 16.1323 66.8673 16.228 66.914 16.34C66.9653 16.4473 66.991 16.5617 66.991 16.683ZM72.8952 22.808C72.3212 22.8267 71.8312 22.8733 71.4252 22.948C71.0239 23.018 70.6949 23.1113 70.4382 23.228C70.1862 23.3447 70.0019 23.4823 69.8852 23.641C69.7732 23.7997 69.7172 23.977 69.7172 24.173C69.7172 24.3597 69.7476 24.5207 69.8082 24.656C69.8689 24.7913 69.9506 24.9033 70.0532 24.992C70.1606 25.076 70.2842 25.139 70.4242 25.181C70.5689 25.2183 70.7229 25.237 70.8862 25.237C71.1056 25.237 71.3062 25.216 71.4882 25.174C71.6702 25.1273 71.8406 25.062 71.9992 24.978C72.1626 24.894 72.3166 24.7937 72.4612 24.677C72.6106 24.5603 72.7552 24.4273 72.8952 24.278V22.808ZM68.8702 19.91C69.2622 19.532 69.6846 19.2497 70.1372 19.063C70.5899 18.8763 71.0916 18.783 71.6422 18.783C72.0389 18.783 72.3912 18.8483 72.6992 18.979C73.0072 19.1097 73.2662 19.2917 73.4762 19.525C73.6862 19.7583 73.8449 20.0407 73.9522 20.372C74.0596 20.7033 74.1132 21.0673 74.1132 21.464V26H73.5602C73.4389 26 73.3456 25.9813 73.2802 25.944C73.2149 25.902 73.1636 25.8227 73.1262 25.706L72.9862 25.034C72.7996 25.2067 72.6176 25.3607 72.4402 25.496C72.2629 25.6267 72.0762 25.7387 71.8802 25.832C71.6842 25.9207 71.4742 25.9883 71.2502 26.035C71.0309 26.0863 70.7859 26.112 70.5152 26.112C70.2399 26.112 69.9809 26.0747 69.7382 26C69.4956 25.9207 69.2832 25.804 69.1012 25.65C68.9239 25.496 68.7816 25.3023 68.6742 25.069C68.5716 24.831 68.5202 24.551 68.5202 24.229C68.5202 23.949 68.5972 23.6807 68.7512 23.424C68.9052 23.1627 69.1549 22.9317 69.5002 22.731C69.8456 22.5303 70.2959 22.367 70.8512 22.241C71.4066 22.1103 72.0879 22.0357 72.8952 22.017V21.464C72.8952 20.9133 72.7762 20.498 72.5382 20.218C72.3002 19.9333 71.9526 19.791 71.4952 19.791C71.1872 19.791 70.9282 19.8307 70.7182 19.91C70.5129 19.9847 70.3332 20.071 70.1792 20.169C70.0299 20.2623 69.8992 20.3487 69.7872 20.428C69.6799 20.5027 69.5726 20.54 69.4652 20.54C69.3812 20.54 69.3089 20.519 69.2482 20.477C69.1876 20.4303 69.1362 20.3743 69.0942 20.309L68.8702 19.91ZM77.5792 15.689V26H76.3332V15.689H77.5792Z" fill="white"/>
</svg>
