<svg width="323" height="86" viewBox="0 0 323 86" fill="none" xmlns="http://www.w3.org/2000/svg">
<g filter="url(#filter0_b_2001_2420)">
<path d="M0 39C0 34.5817 3.58172 31 8 31H315C319.418 31 323 34.5817 323 39V78C323 82.4183 319.418 86 315 86H8C3.58173 86 0 82.4183 0 78V39Z" fill="white" fill-opacity="0.4"/>
<path d="M8 32H315C318.866 32 322 35.134 322 39V78C322 81.866 318.866 85 315 85H8C4.13401 85 1 81.866 1 78V39C1 35.134 4.13401 32 8 32Z" stroke="url(#paint0_linear_2001_2420)" stroke-opacity="0.9" stroke-width="2"/>
</g>
<path d="M302.92 54.95L296.4 61.47C295.63 62.24 294.37 62.24 293.6 61.47L287.08 54.95" stroke="#8686A1" stroke-width="1.5" stroke-miterlimit="10" stroke-linecap="round" stroke-linejoin="round"/>
<path d="M28.992 63.568V65H22.416V53.512H24.12V63.568H28.992ZM32.2824 56.872V65H30.7224V56.872H32.2824ZM32.5784 54.36C32.5784 54.504 32.549 54.6427 32.4904 54.776C32.4317 54.904 32.3517 55.0187 32.2504 55.12C32.1544 55.216 32.0397 55.2933 31.9064 55.352C31.773 55.4053 31.6344 55.432 31.4904 55.432C31.3464 55.432 31.2104 55.4053 31.0824 55.352C30.9544 55.2933 30.8397 55.216 30.7384 55.12C30.6424 55.0187 30.565 54.904 30.5064 54.776C30.453 54.6427 30.4264 54.504 30.4264 54.36C30.4264 54.2107 30.453 54.072 30.5064 53.944C30.565 53.8107 30.6424 53.696 30.7384 53.6C30.8397 53.4987 30.9544 53.4213 31.0824 53.368C31.2104 53.3093 31.3464 53.28 31.4904 53.28C31.6344 53.28 31.773 53.3093 31.9064 53.368C32.0397 53.4213 32.1544 53.4987 32.2504 53.6C32.3517 53.696 32.4317 53.8107 32.4904 53.944C32.549 54.072 32.5784 54.2107 32.5784 54.36ZM39.653 58.272C39.6103 58.3413 39.565 58.392 39.517 58.424C39.469 58.4507 39.4077 58.464 39.333 58.464C39.2477 58.464 39.1517 58.4347 39.045 58.376C38.9437 58.3173 38.8183 58.2533 38.669 58.184C38.525 58.1147 38.3543 58.0507 38.157 57.992C37.9597 57.9333 37.725 57.904 37.453 57.904C37.229 57.904 37.0237 57.9333 36.837 57.992C36.6557 58.0453 36.501 58.1227 36.373 58.224C36.245 58.32 36.1463 58.4373 36.077 58.576C36.0077 58.7093 35.973 58.8533 35.973 59.008C35.973 59.2107 36.0317 59.3787 36.149 59.512C36.2717 59.6453 36.429 59.76 36.621 59.856C36.8183 59.952 37.0397 60.04 37.285 60.12C37.5357 60.1947 37.789 60.2747 38.045 60.36C38.3063 60.4453 38.5597 60.544 38.805 60.656C39.0557 60.7627 39.277 60.8987 39.469 61.064C39.6663 61.224 39.8237 61.4187 39.941 61.648C40.0637 61.8773 40.125 62.1573 40.125 62.488C40.125 62.8667 40.0557 63.2187 39.917 63.544C39.7837 63.864 39.5837 64.1413 39.317 64.376C39.0557 64.6107 38.7303 64.7947 38.341 64.928C37.9517 65.0613 37.5063 65.128 37.005 65.128C36.445 65.128 35.9277 65.0347 35.453 64.848C34.9783 64.6613 34.581 64.424 34.261 64.136L34.629 63.536C34.6717 63.4613 34.725 63.4053 34.789 63.368C34.853 63.3253 34.9383 63.304 35.045 63.304C35.1463 63.304 35.2503 63.3413 35.357 63.416C35.4637 63.4907 35.5917 63.5733 35.741 63.664C35.8903 63.7493 36.0717 63.8293 36.285 63.904C36.4983 63.9733 36.765 64.008 37.085 64.008C37.3517 64.008 37.5837 63.976 37.781 63.912C37.9783 63.8427 38.141 63.752 38.269 63.64C38.4023 63.5227 38.501 63.3893 38.565 63.24C38.629 63.0907 38.661 62.9333 38.661 62.768C38.661 62.5547 38.5997 62.3787 38.477 62.24C38.3597 62.096 38.2023 61.9733 38.005 61.872C37.813 61.7707 37.5917 61.6827 37.341 61.608C37.0903 61.5333 36.8343 61.4533 36.573 61.368C36.3117 61.2827 36.0557 61.184 35.805 61.072C35.5543 60.96 35.3303 60.8187 35.133 60.648C34.941 60.4773 34.7837 60.2693 34.661 60.024C34.5437 59.7787 34.485 59.48 34.485 59.128C34.485 58.8133 34.549 58.512 34.677 58.224C34.8103 57.936 34.9997 57.6827 35.245 57.464C35.4957 57.2453 35.8023 57.072 36.165 56.944C36.533 56.8107 36.9517 56.744 37.421 56.744C37.9597 56.744 38.445 56.8293 38.877 57C39.3143 57.1707 39.6877 57.4053 39.997 57.704L39.653 58.272ZM44.6781 65.128C44.0221 65.128 43.5155 64.944 43.1581 64.576C42.8061 64.208 42.6301 63.6827 42.6301 63V58.136H41.6861C41.5955 58.136 41.5181 58.1093 41.4541 58.056C41.3955 57.9973 41.3661 57.912 41.3661 57.8V57.168L42.6861 56.984L43.0381 54.56C43.0595 54.4693 43.0995 54.4 43.1581 54.352C43.2221 54.2987 43.3021 54.272 43.3981 54.272H44.1901V57H46.4941V58.136H44.1901V62.896C44.1901 63.216 44.2675 63.456 44.4221 63.616C44.5821 63.7707 44.7848 63.848 45.0301 63.848C45.1741 63.848 45.2968 63.8293 45.3981 63.792C45.5048 63.7547 45.5955 63.7147 45.6701 63.672C45.7448 63.624 45.8088 63.5813 45.8621 63.544C45.9155 63.5067 45.9635 63.488 46.0061 63.488C46.0595 63.488 46.0995 63.5013 46.1261 63.528C46.1581 63.5493 46.1901 63.5867 46.2221 63.64L46.6861 64.392C46.4301 64.6267 46.1261 64.808 45.7741 64.936C45.4221 65.064 45.0568 65.128 44.6781 65.128Z" fill="#3C3C6F"/>
<path d="M9.216 5.84H5.504V16H3.96V5.84H0.24V4.536H9.216V5.84ZM16.5025 7.896L11.9825 18.392C11.9345 18.4987 11.8732 18.584 11.7985 18.648C11.7292 18.712 11.6198 18.744 11.4705 18.744H10.4145L11.8945 15.528L8.5505 7.896H9.7825C9.90517 7.896 10.0012 7.928 10.0705 7.992C10.1452 8.05067 10.1958 8.11733 10.2225 8.192L12.3905 13.296C12.4758 13.52 12.5478 13.7547 12.6065 14C12.6812 13.7493 12.7612 13.512 12.8465 13.288L14.9505 8.192C14.9825 8.10667 15.0358 8.03733 15.1105 7.984C15.1905 7.92533 15.2785 7.896 15.3745 7.896H16.5025ZM19.5125 14.048C19.7738 14.4 20.0592 14.648 20.3685 14.792C20.6778 14.936 21.0245 15.008 21.4085 15.008C22.1658 15.008 22.7472 14.7387 23.1525 14.2C23.5578 13.6613 23.7605 12.8933 23.7605 11.896C23.7605 11.368 23.7125 10.9147 23.6165 10.536C23.5258 10.1573 23.3925 9.848 23.2165 9.608C23.0405 9.36267 22.8245 9.184 22.5685 9.072C22.3125 8.96 22.0218 8.904 21.6965 8.904C21.2325 8.904 20.8245 9.01067 20.4725 9.224C20.1258 9.43733 19.8058 9.73867 19.5125 10.128V14.048ZM19.4405 9.152C19.7818 8.73067 20.1765 8.392 20.6245 8.136C21.0725 7.88 21.5845 7.752 22.1605 7.752C22.6298 7.752 23.0538 7.84267 23.4325 8.024C23.8112 8.2 24.1338 8.464 24.4005 8.816C24.6672 9.16267 24.8725 9.59467 25.0165 10.112C25.1605 10.6293 25.2325 11.224 25.2325 11.896C25.2325 12.4933 25.1525 13.0507 24.9925 13.568C24.8325 14.08 24.6005 14.5253 24.2965 14.904C23.9978 15.2773 23.6298 15.5733 23.1925 15.792C22.7605 16.0053 22.2725 16.112 21.7285 16.112C21.2325 16.112 20.8058 16.0293 20.4485 15.864C20.0965 15.6933 19.7845 15.4587 19.5125 15.16V18.744H18.0805V7.896H18.9365C19.1392 7.896 19.2645 7.99467 19.3125 8.192L19.4405 9.152ZM32.7932 11.064C32.7932 10.7333 32.7452 10.432 32.6492 10.16C32.5586 9.88267 32.4226 9.64533 32.2412 9.448C32.0652 9.24533 31.8492 9.09067 31.5932 8.984C31.3372 8.872 31.0466 8.816 30.7212 8.816C30.0386 8.816 29.4972 9.016 29.0972 9.416C28.7026 9.81067 28.4572 10.36 28.3612 11.064H32.7932ZM33.9452 14.864C33.7692 15.0773 33.5586 15.264 33.3132 15.424C33.0679 15.5787 32.8039 15.7067 32.5212 15.808C32.2439 15.9093 31.9559 15.984 31.6572 16.032C31.3586 16.0853 31.0626 16.112 30.7692 16.112C30.2092 16.112 29.6919 16.0187 29.2172 15.832C28.7479 15.64 28.3399 15.3627 27.9932 15C27.6519 14.632 27.3852 14.1787 27.1932 13.64C27.0012 13.1013 26.9052 12.4827 26.9052 11.784C26.9052 11.2187 26.9906 10.6907 27.1612 10.2C27.3372 9.70933 27.5879 9.28533 27.9132 8.928C28.2386 8.56533 28.6359 8.28267 29.1052 8.08C29.5746 7.872 30.1026 7.768 30.6892 7.768C31.1746 7.768 31.6226 7.85067 32.0332 8.016C32.4492 8.176 32.8066 8.41067 33.1052 8.72C33.4092 9.024 33.6466 9.40267 33.8172 9.856C33.9879 10.304 34.0732 10.816 34.0732 11.392C34.0732 11.616 34.0492 11.7653 34.0012 11.84C33.9532 11.9147 33.8626 11.952 33.7292 11.952H28.3132C28.3292 12.464 28.3986 12.9093 28.5212 13.288C28.6492 13.6667 28.8252 13.984 29.0492 14.24C29.2732 14.4907 29.5399 14.68 29.8492 14.808C30.1586 14.9307 30.5052 14.992 30.8892 14.992C31.2466 14.992 31.5532 14.952 31.8092 14.872C32.0706 14.7867 32.2946 14.696 32.4812 14.6C32.6679 14.504 32.8226 14.416 32.9452 14.336C33.0732 14.2507 33.1826 14.208 33.2732 14.208C33.3906 14.208 33.4812 14.2533 33.5452 14.344L33.9452 14.864Z" fill="#8686A1"/>
<defs>
<filter id="filter0_b_2001_2420" x="-30" y="1" width="383" height="115" filterUnits="userSpaceOnUse" color-interpolation-filters="sRGB">
<feFlood flood-opacity="0" result="BackgroundImageFix"/>
<feGaussianBlur in="BackgroundImageFix" stdDeviation="15"/>
<feComposite in2="SourceAlpha" operator="in" result="effect1_backgroundBlur_2001_2420"/>
<feBlend mode="normal" in="SourceGraphic" in2="effect1_backgroundBlur_2001_2420" result="shape"/>
</filter>
<linearGradient id="paint0_linear_2001_2420" x1="22.8045" y1="22.1792" x2="143.705" y2="47.8457" gradientUnits="userSpaceOnUse">
<stop stop-color="white"/>
<stop offset="1" stop-color="white" stop-opacity="0"/>
</linearGradient>
</defs>
</svg>
