<svg width="42" height="42" viewBox="0 0 42 42" fill="none" xmlns="http://www.w3.org/2000/svg">
<circle cx="21" cy="21" r="21" fill="#FF8C00"/>
<path d="M18.7774 17.719C18.7214 17.817 18.6607 17.8893 18.5954 17.936C18.5347 17.978 18.4577 17.999 18.3644 17.999C18.2664 17.999 18.1591 17.964 18.0424 17.894C17.9304 17.8193 17.7951 17.7377 17.6364 17.649C17.4777 17.5603 17.2911 17.481 17.0764 17.411C16.8664 17.3363 16.6167 17.299 16.3274 17.299C16.0661 17.299 15.8374 17.3317 15.6414 17.397C15.4454 17.4577 15.2797 17.544 15.1444 17.656C15.0137 17.768 14.9157 17.9033 14.8504 18.062C14.7851 18.216 14.7524 18.3863 14.7524 18.573C14.7524 18.811 14.8177 19.0093 14.9484 19.168C15.0837 19.3267 15.2611 19.462 15.4804 19.574C15.6997 19.686 15.9494 19.7863 16.2294 19.875C16.5094 19.9637 16.7964 20.0593 17.0904 20.162C17.3844 20.26 17.6714 20.3767 17.9514 20.512C18.2314 20.6427 18.4811 20.8107 18.7004 21.016C18.9197 21.2167 19.0947 21.464 19.2254 21.758C19.3607 22.052 19.4284 22.409 19.4284 22.829C19.4284 23.2863 19.3491 23.7157 19.1904 24.117C19.0364 24.5137 18.8077 24.8613 18.5044 25.16C18.2057 25.454 17.8394 25.6873 17.4054 25.86C16.9714 26.028 16.4744 26.112 15.9144 26.112C15.5924 26.112 15.2751 26.0793 14.9624 26.014C14.6497 25.9533 14.3487 25.8647 14.0594 25.748C13.7747 25.6313 13.5064 25.4913 13.2544 25.328C13.0024 25.1647 12.7784 24.9827 12.5824 24.782L13.1354 23.879C13.1821 23.8137 13.2427 23.76 13.3174 23.718C13.3921 23.6713 13.4714 23.648 13.5554 23.648C13.6721 23.648 13.7981 23.697 13.9334 23.795C14.0687 23.8883 14.2297 23.9933 14.4164 24.11C14.6031 24.2267 14.8201 24.334 15.0674 24.432C15.3194 24.5253 15.6204 24.572 15.9704 24.572C16.5071 24.572 16.9224 24.446 17.2164 24.194C17.5104 23.9373 17.6574 23.571 17.6574 23.095C17.6574 22.829 17.5897 22.612 17.4544 22.444C17.3237 22.276 17.1487 22.136 16.9294 22.024C16.7101 21.9073 16.4604 21.8093 16.1804 21.73C15.9004 21.6507 15.6157 21.5643 15.3264 21.471C15.0371 21.3777 14.7524 21.2657 14.4724 21.135C14.1924 21.0043 13.9427 20.834 13.7234 20.624C13.5041 20.414 13.3267 20.1527 13.1914 19.84C13.0607 19.5227 12.9954 19.133 12.9954 18.671C12.9954 18.3023 13.0677 17.943 13.2124 17.593C13.3617 17.243 13.5764 16.9327 13.8564 16.662C14.1364 16.3913 14.4817 16.1743 14.8924 16.011C15.3031 15.8477 15.7744 15.766 16.3064 15.766C16.9037 15.766 17.4544 15.8593 17.9584 16.046C18.4624 16.2327 18.8917 16.494 19.2464 16.83L18.7774 17.719ZM26.4939 22.178L25.2619 18.811C25.2012 18.6617 25.1382 18.4843 25.0729 18.279C25.0076 18.0737 24.9422 17.852 24.8769 17.614C24.8162 17.852 24.7532 18.076 24.6879 18.286C24.6226 18.4913 24.5596 18.671 24.4989 18.825L23.2739 22.178H26.4939ZM29.8189 26H28.3629C28.1996 26 28.0666 25.9603 27.9639 25.881C27.8612 25.797 27.7842 25.6943 27.7329 25.573L26.9769 23.508H22.7839L22.0279 25.573C21.9906 25.6803 21.9182 25.7783 21.8109 25.867C21.7036 25.9557 21.5706 26 21.4119 26H19.9419L23.9249 15.878H25.8429L29.8189 26Z" fill="white"/>
</svg>
