<svg width="131" height="44" viewBox="0 0 131 44" fill="none" xmlns="http://www.w3.org/2000/svg">
<path d="M5.97862 14.768C6.42129 14.768 6.80262 14.7173 7.12262 14.616C7.44262 14.5147 7.70396 14.3733 7.90662 14.192C8.11462 14.0053 8.26662 13.7867 8.36262 13.536C8.45862 13.28 8.50662 13 8.50662 12.696C8.50662 12.104 8.29596 11.6373 7.87462 11.296C7.45329 10.9493 6.82129 10.776 5.97862 10.776H3.49862V14.768H5.97862ZM3.49862 5.76V9.672H5.54662C5.98396 9.672 6.36262 9.624 6.68262 9.528C7.00796 9.432 7.27462 9.29867 7.48262 9.128C7.69596 8.95733 7.85329 8.752 7.95462 8.512C8.05596 8.26667 8.10662 8 8.10662 7.712C8.10662 7.03467 7.90396 6.54133 7.49862 6.232C7.09329 5.91733 6.46396 5.76 5.61062 5.76H3.49862ZM5.61062 4.536C6.31462 4.536 6.91996 4.60533 7.42662 4.744C7.93862 4.88267 8.35729 5.08 8.68262 5.336C9.01329 5.592 9.25596 5.90667 9.41062 6.28C9.56529 6.648 9.64262 7.064 9.64262 7.528C9.64262 7.81067 9.59729 8.08267 9.50662 8.344C9.42129 8.6 9.29062 8.84 9.11462 9.064C8.93862 9.288 8.71462 9.49067 8.44262 9.672C8.17596 9.848 7.86129 9.992 7.49862 10.104C8.34129 10.264 8.97329 10.5653 9.39462 11.008C9.82129 11.4453 10.0346 12.0213 10.0346 12.736C10.0346 13.2213 9.94396 13.664 9.76262 14.064C9.58662 14.464 9.32529 14.808 8.97862 15.096C8.63729 15.384 8.21596 15.608 7.71462 15.768C7.21329 15.9227 6.64262 16 6.00262 16H1.95462V4.536H5.61062ZM17.5814 11.064C17.5814 10.7333 17.5334 10.432 17.4374 10.16C17.3467 9.88267 17.2107 9.64533 17.0294 9.448C16.8534 9.24533 16.6374 9.09067 16.3814 8.984C16.1254 8.872 15.8347 8.816 15.5094 8.816C14.8267 8.816 14.2854 9.016 13.8854 9.416C13.4907 9.81067 13.2454 10.36 13.1494 11.064H17.5814ZM18.7334 14.864C18.5574 15.0773 18.3467 15.264 18.1014 15.424C17.856 15.5787 17.592 15.7067 17.3094 15.808C17.032 15.9093 16.744 15.984 16.4454 16.032C16.1467 16.0853 15.8507 16.112 15.5574 16.112C14.9974 16.112 14.48 16.0187 14.0054 15.832C13.536 15.64 13.128 15.3627 12.7814 15C12.44 14.632 12.1734 14.1787 11.9814 13.64C11.7894 13.1013 11.6934 12.4827 11.6934 11.784C11.6934 11.2187 11.7787 10.6907 11.9494 10.2C12.1254 9.70933 12.376 9.28533 12.7014 8.928C13.0267 8.56533 13.424 8.28267 13.8934 8.08C14.3627 7.872 14.8907 7.768 15.4774 7.768C15.9627 7.768 16.4107 7.85067 16.8214 8.016C17.2374 8.176 17.5947 8.41067 17.8934 8.72C18.1974 9.024 18.4347 9.40267 18.6054 9.856C18.776 10.304 18.8614 10.816 18.8614 11.392C18.8614 11.616 18.8374 11.7653 18.7894 11.84C18.7414 11.9147 18.6507 11.952 18.5174 11.952H13.1014C13.1174 12.464 13.1867 12.9093 13.3094 13.288C13.4374 13.6667 13.6134 13.984 13.8374 14.24C14.0614 14.4907 14.328 14.68 14.6374 14.808C14.9467 14.9307 15.2934 14.992 15.6774 14.992C16.0347 14.992 16.3414 14.952 16.5974 14.872C16.8587 14.7867 17.0827 14.696 17.2694 14.6C17.456 14.504 17.6107 14.416 17.7334 14.336C17.8614 14.2507 17.9707 14.208 18.0614 14.208C18.1787 14.208 18.2694 14.2533 18.3334 14.344L18.7334 14.864ZM23.356 16.128C22.716 16.128 22.2227 15.9493 21.876 15.592C21.5347 15.2347 21.364 14.72 21.364 14.048V9.088H20.388C20.3027 9.088 20.2307 9.064 20.172 9.016C20.1133 8.96267 20.084 8.88267 20.084 8.776V8.208L21.412 8.04L21.74 5.536C21.756 5.456 21.7907 5.392 21.844 5.344C21.9027 5.29067 21.9773 5.264 22.068 5.264H22.788V8.056H25.132V9.088H22.788V13.952C22.788 14.2933 22.8707 14.5467 23.036 14.712C23.2013 14.8773 23.4147 14.96 23.676 14.96C23.8253 14.96 23.9533 14.9413 24.06 14.904C24.172 14.8613 24.268 14.816 24.348 14.768C24.428 14.72 24.4947 14.6773 24.548 14.64C24.6067 14.5973 24.6573 14.576 24.7 14.576C24.7747 14.576 24.8413 14.6213 24.9 14.712L25.316 15.392C25.0707 15.6213 24.7747 15.8027 24.428 15.936C24.0813 16.064 23.724 16.128 23.356 16.128ZM31.3144 12.352C30.6584 12.3733 30.0984 12.4267 29.6344 12.512C29.1757 12.592 28.7997 12.6987 28.5064 12.832C28.2184 12.9653 28.0077 13.1227 27.8744 13.304C27.7464 13.4853 27.6824 13.688 27.6824 13.912C27.6824 14.1253 27.717 14.3093 27.7864 14.464C27.8557 14.6187 27.949 14.7467 28.0664 14.848C28.189 14.944 28.3304 15.016 28.4904 15.064C28.6557 15.1067 28.8317 15.128 29.0184 15.128C29.269 15.128 29.4984 15.104 29.7064 15.056C29.9144 15.0027 30.109 14.928 30.2904 14.832C30.477 14.736 30.653 14.6213 30.8184 14.488C30.989 14.3547 31.1544 14.2027 31.3144 14.032V12.352ZM26.7144 9.04C27.1624 8.608 27.645 8.28533 28.1624 8.072C28.6797 7.85867 29.253 7.752 29.8824 7.752C30.3357 7.752 30.7384 7.82667 31.0904 7.976C31.4424 8.12533 31.7384 8.33333 31.9784 8.6C32.2184 8.86667 32.3997 9.18933 32.5224 9.568C32.645 9.94667 32.7064 10.3627 32.7064 10.816V16H32.0744C31.9357 16 31.829 15.9787 31.7544 15.936C31.6797 15.888 31.621 15.7973 31.5784 15.664L31.4184 14.896C31.205 15.0933 30.997 15.2693 30.7944 15.424C30.5917 15.5733 30.3784 15.7013 30.1544 15.808C29.9304 15.9093 29.6904 15.9867 29.4344 16.04C29.1837 16.0987 28.9037 16.128 28.5944 16.128C28.2797 16.128 27.9837 16.0853 27.7064 16C27.429 15.9093 27.1864 15.776 26.9784 15.6C26.7757 15.424 26.613 15.2027 26.4904 14.936C26.373 14.664 26.3144 14.344 26.3144 13.976C26.3144 13.656 26.4024 13.3493 26.5784 13.056C26.7544 12.7573 27.0397 12.4933 27.4344 12.264C27.829 12.0347 28.3437 11.848 28.9784 11.704C29.613 11.5547 30.3917 11.4693 31.3144 11.448V10.816C31.3144 10.1867 31.1784 9.712 30.9064 9.392C30.6344 9.06667 30.237 8.904 29.7144 8.904C29.3624 8.904 29.0664 8.94933 28.8264 9.04C28.5917 9.12533 28.3864 9.224 28.2104 9.336C28.0397 9.44267 27.8904 9.54133 27.7624 9.632C27.6397 9.71733 27.517 9.76 27.3944 9.76C27.2984 9.76 27.2157 9.736 27.1464 9.688C27.077 9.63467 27.0184 9.57067 26.9704 9.496L26.7144 9.04ZM41.4972 5.8V9.808H46.2092V11.072H41.4972V16H39.9452V4.536H47.0092V5.8H41.4972ZM49.6406 9.52C49.8966 8.96533 50.2113 8.53333 50.5846 8.224C50.958 7.90933 51.414 7.752 51.9526 7.752C52.1233 7.752 52.286 7.77067 52.4406 7.808C52.6006 7.84533 52.742 7.904 52.8646 7.984L52.7606 9.048C52.7286 9.18133 52.6486 9.248 52.5206 9.248C52.446 9.248 52.3366 9.232 52.1926 9.2C52.0486 9.168 51.886 9.152 51.7046 9.152C51.4486 9.152 51.2193 9.18933 51.0166 9.264C50.8193 9.33867 50.6406 9.45067 50.4806 9.6C50.326 9.744 50.1846 9.92533 50.0566 10.144C49.934 10.3573 49.822 10.6027 49.7206 10.88V16H48.2886V7.896H49.1046C49.2593 7.896 49.366 7.92533 49.4246 7.984C49.4833 8.04267 49.5233 8.144 49.5446 8.288L49.6406 9.52ZM57.5246 7.768C58.1166 7.768 58.65 7.86667 59.1246 8.064C59.5993 8.26133 60.0046 8.54133 60.3406 8.904C60.6766 9.26667 60.9326 9.70667 61.1086 10.224C61.29 10.736 61.3806 11.3093 61.3806 11.944C61.3806 12.584 61.29 13.16 61.1086 13.672C60.9326 14.184 60.6766 14.6213 60.3406 14.984C60.0046 15.3467 59.5993 15.6267 59.1246 15.824C58.65 16.016 58.1166 16.112 57.5246 16.112C56.9273 16.112 56.3886 16.016 55.9086 15.824C55.434 15.6267 55.0286 15.3467 54.6926 14.984C54.3566 14.6213 54.098 14.184 53.9166 13.672C53.7406 13.16 53.6526 12.584 53.6526 11.944C53.6526 11.3093 53.7406 10.736 53.9166 10.224C54.098 9.70667 54.3566 9.26667 54.6926 8.904C55.0286 8.54133 55.434 8.26133 55.9086 8.064C56.3886 7.86667 56.9273 7.768 57.5246 7.768ZM57.5246 15C58.3246 15 58.922 14.7333 59.3166 14.2C59.7113 13.6613 59.9086 12.912 59.9086 11.952C59.9086 10.9867 59.7113 10.2347 59.3166 9.696C58.922 9.15733 58.3246 8.888 57.5246 8.888C57.1193 8.888 56.7646 8.95733 56.4606 9.096C56.162 9.23467 55.9113 9.43467 55.7086 9.696C55.5113 9.95733 55.362 10.28 55.2606 10.664C55.1646 11.0427 55.1166 11.472 55.1166 11.952C55.1166 12.912 55.314 13.6613 55.7086 14.2C56.1086 14.7333 56.714 15 57.5246 15ZM63.5067 16V7.896H64.3627C64.5654 7.896 64.6907 7.99467 64.7387 8.192L64.8428 9.024C65.1414 8.656 65.4774 8.35467 65.8507 8.12C66.2241 7.88533 66.6561 7.768 67.1467 7.768C67.6907 7.768 68.1308 7.92 68.4668 8.224C68.8081 8.528 69.0534 8.93867 69.2028 9.456C69.3201 9.16267 69.4694 8.90933 69.6508 8.696C69.8374 8.48267 70.0454 8.30667 70.2748 8.168C70.5041 8.02933 70.7468 7.928 71.0028 7.864C71.2641 7.8 71.5281 7.768 71.7948 7.768C72.2214 7.768 72.6001 7.83733 72.9307 7.976C73.2668 8.10933 73.5494 8.30667 73.7788 8.568C74.0134 8.82933 74.1921 9.152 74.3148 9.536C74.4374 9.91467 74.4988 10.3493 74.4988 10.84V16H73.0668V10.84C73.0668 10.2053 72.9281 9.72533 72.6508 9.4C72.3734 9.06933 71.9734 8.904 71.4508 8.904C71.2161 8.904 70.9921 8.94667 70.7788 9.032C70.5708 9.112 70.3868 9.232 70.2268 9.392C70.0668 9.552 69.9388 9.75467 69.8428 10C69.7521 10.24 69.7068 10.52 69.7068 10.84V16H68.2748V10.84C68.2748 10.1893 68.1441 9.704 67.8828 9.384C67.6214 9.064 67.2401 8.904 66.7387 8.904C66.3868 8.904 66.0614 9 65.7627 9.192C65.4641 9.37867 65.1894 9.63467 64.9388 9.96V16H63.5067ZM85.1167 10.48C85.5594 10.48 85.9487 10.4213 86.2847 10.304C86.6261 10.1867 86.9114 10.024 87.1407 9.816C87.3754 9.60267 87.5514 9.34933 87.6687 9.056C87.7861 8.76267 87.8447 8.44 87.8447 8.088C87.8447 7.35733 87.6181 6.78667 87.1647 6.376C86.7167 5.96533 86.0341 5.76 85.1167 5.76H83.2767V10.48H85.1167ZM85.1167 4.536C85.8421 4.536 86.4714 4.62133 87.0047 4.792C87.5434 4.95733 87.9887 5.19467 88.3407 5.504C88.6927 5.81333 88.9541 6.18667 89.1247 6.624C89.3007 7.06133 89.3887 7.54933 89.3887 8.088C89.3887 8.62133 89.2954 9.10933 89.1087 9.552C88.9221 9.99467 88.6474 10.376 88.2847 10.696C87.9274 11.016 87.4821 11.2667 86.9487 11.448C86.4207 11.624 85.8101 11.712 85.1167 11.712H83.2767V16H81.7327V4.536H85.1167ZM96.0861 14.768C96.5608 14.768 96.9848 14.688 97.3581 14.528C97.7315 14.368 98.0461 14.144 98.3021 13.856C98.5635 13.568 98.7608 13.224 98.8941 12.824C99.0328 12.424 99.1021 11.984 99.1021 11.504V4.536H100.646V11.504C100.646 12.1653 100.539 12.7787 100.326 13.344C100.118 13.9093 99.8168 14.4 99.4221 14.816C99.0328 15.2267 98.5555 15.5493 97.9901 15.784C97.4248 16.0187 96.7901 16.136 96.0861 16.136C95.3821 16.136 94.7475 16.0187 94.1821 15.784C93.6168 15.5493 93.1368 15.2267 92.7421 14.816C92.3475 14.4 92.0435 13.9093 91.8301 13.344C91.6221 12.7787 91.5181 12.1653 91.5181 11.504V4.536H93.0621V11.496C93.0621 11.976 93.1288 12.416 93.2621 12.816C93.4008 13.216 93.5981 13.56 93.8541 13.848C94.1155 14.136 94.4328 14.3627 94.8061 14.528C95.1848 14.688 95.6115 14.768 96.0861 14.768ZM113.06 10.488V14.888C112.484 15.304 111.868 15.616 111.212 15.824C110.561 16.0267 109.846 16.128 109.068 16.128C108.145 16.128 107.313 15.9867 106.572 15.704C105.83 15.416 105.196 15.016 104.668 14.504C104.145 13.9867 103.742 13.368 103.46 12.648C103.177 11.928 103.036 11.136 103.036 10.272C103.036 9.39733 103.172 8.6 103.444 7.88C103.721 7.16 104.113 6.544 104.62 6.032C105.126 5.51467 105.742 5.11467 106.468 4.832C107.193 4.54933 108.004 4.408 108.9 4.408C109.353 4.408 109.774 4.44267 110.164 4.512C110.553 4.576 110.913 4.672 111.244 4.8C111.574 4.92267 111.881 5.07467 112.164 5.256C112.446 5.432 112.71 5.632 112.956 5.856L112.516 6.56C112.446 6.66667 112.356 6.736 112.244 6.768C112.137 6.79467 112.017 6.768 111.884 6.688C111.756 6.61333 111.609 6.52267 111.444 6.416C111.278 6.30933 111.076 6.208 110.836 6.112C110.601 6.01067 110.321 5.92533 109.996 5.856C109.676 5.78667 109.294 5.752 108.852 5.752C108.206 5.752 107.622 5.85867 107.1 6.072C106.577 6.28 106.132 6.58133 105.764 6.976C105.396 7.36533 105.113 7.84 104.916 8.4C104.718 8.95467 104.62 9.57867 104.62 10.272C104.62 10.992 104.721 11.6373 104.924 12.208C105.132 12.7733 105.425 13.256 105.804 13.656C106.188 14.0507 106.652 14.352 107.196 14.56C107.74 14.768 108.35 14.872 109.028 14.872C109.561 14.872 110.033 14.8133 110.444 14.696C110.86 14.5733 111.265 14.4053 111.66 14.192V11.672H109.876C109.774 11.672 109.692 11.6427 109.628 11.584C109.569 11.5253 109.54 11.4533 109.54 11.368V10.488H113.06ZM115.179 15.12C115.179 14.9813 115.203 14.8507 115.251 14.728C115.305 14.6053 115.374 14.4987 115.459 14.408C115.55 14.3173 115.657 14.2453 115.779 14.192C115.902 14.1387 116.033 14.112 116.171 14.112C116.31 14.112 116.441 14.1387 116.563 14.192C116.686 14.2453 116.793 14.3173 116.883 14.408C116.974 14.4987 117.046 14.6053 117.099 14.728C117.153 14.8507 117.179 14.9813 117.179 15.12C117.179 15.264 117.153 15.3973 117.099 15.52C117.046 15.6373 116.974 15.7413 116.883 15.832C116.793 15.9227 116.686 15.992 116.563 16.04C116.441 16.0933 116.31 16.12 116.171 16.12C116.033 16.12 115.902 16.0933 115.779 16.04C115.657 15.992 115.55 15.9227 115.459 15.832C115.374 15.7413 115.305 15.6373 115.251 15.52C115.203 15.3973 115.179 15.264 115.179 15.12ZM123.913 12.352C123.257 12.3733 122.697 12.4267 122.233 12.512C121.774 12.592 121.398 12.6987 121.105 12.832C120.817 12.9653 120.606 13.1227 120.473 13.304C120.345 13.4853 120.281 13.688 120.281 13.912C120.281 14.1253 120.315 14.3093 120.385 14.464C120.454 14.6187 120.547 14.7467 120.665 14.848C120.787 14.944 120.929 15.016 121.089 15.064C121.254 15.1067 121.43 15.128 121.617 15.128C121.867 15.128 122.097 15.104 122.305 15.056C122.513 15.0027 122.707 14.928 122.889 14.832C123.075 14.736 123.251 14.6213 123.417 14.488C123.587 14.3547 123.753 14.2027 123.913 14.032V12.352ZM119.313 9.04C119.761 8.608 120.243 8.28533 120.761 8.072C121.278 7.85867 121.851 7.752 122.481 7.752C122.934 7.752 123.337 7.82667 123.689 7.976C124.041 8.12533 124.337 8.33333 124.577 8.6C124.817 8.86667 124.998 9.18933 125.121 9.568C125.243 9.94667 125.305 10.3627 125.305 10.816V16H124.673C124.534 16 124.427 15.9787 124.353 15.936C124.278 15.888 124.219 15.7973 124.177 15.664L124.017 14.896C123.803 15.0933 123.595 15.2693 123.393 15.424C123.19 15.5733 122.977 15.7013 122.753 15.808C122.529 15.9093 122.289 15.9867 122.033 16.04C121.782 16.0987 121.502 16.128 121.193 16.128C120.878 16.128 120.582 16.0853 120.305 16C120.027 15.9093 119.785 15.776 119.577 15.6C119.374 15.424 119.211 15.2027 119.089 14.936C118.971 14.664 118.913 14.344 118.913 13.976C118.913 13.656 119.001 13.3493 119.177 13.056C119.353 12.7573 119.638 12.4933 120.033 12.264C120.427 12.0347 120.942 11.848 121.577 11.704C122.211 11.5547 122.99 11.4693 123.913 11.448V10.816C123.913 10.1867 123.777 9.712 123.505 9.392C123.233 9.06667 122.835 8.904 122.313 8.904C121.961 8.904 121.665 8.94933 121.425 9.04C121.19 9.12533 120.985 9.224 120.809 9.336C120.638 9.44267 120.489 9.54133 120.361 9.632C120.238 9.71733 120.115 9.76 119.993 9.76C119.897 9.76 119.814 9.736 119.745 9.688C119.675 9.63467 119.617 9.57067 119.569 9.496L119.313 9.04ZM129.298 7.896V16H127.874V7.896H129.298ZM129.602 5.352C129.602 5.49067 129.572 5.62133 129.514 5.744C129.46 5.86133 129.386 5.968 129.29 6.064C129.199 6.15467 129.09 6.22667 128.962 6.28C128.839 6.33333 128.708 6.36 128.57 6.36C128.431 6.36 128.3 6.33333 128.178 6.28C128.06 6.22667 127.956 6.15467 127.866 6.064C127.775 5.968 127.703 5.86133 127.65 5.744C127.596 5.62133 127.57 5.49067 127.57 5.352C127.57 5.21333 127.596 5.08267 127.65 4.96C127.703 4.832 127.775 4.72267 127.866 4.632C127.956 4.536 128.06 4.46133 128.178 4.408C128.3 4.35467 128.431 4.328 128.57 4.328C128.708 4.328 128.839 4.35467 128.962 4.408C129.09 4.46133 129.199 4.536 129.29 4.632C129.386 4.72267 129.46 4.832 129.514 4.96C129.572 5.08267 129.602 5.21333 129.602 5.352Z" fill="#8686A1"/>
<path d="M34.9299 39.576C35.2659 39.576 35.5619 39.5493 35.8179 39.496C36.0792 39.4427 36.3059 39.376 36.4979 39.296C36.6899 39.2107 36.8525 39.12 36.9859 39.024C37.1245 38.928 37.2445 38.84 37.3459 38.76C37.4472 38.6747 37.5352 38.6053 37.6099 38.552C37.6845 38.4987 37.7565 38.472 37.8259 38.472C37.8845 38.472 37.9325 38.4853 37.9699 38.512C38.0072 38.5333 38.0365 38.5573 38.0579 38.584L38.6899 39.376C38.1939 39.9307 37.6099 40.3627 36.9379 40.672C36.2659 40.976 35.4952 41.128 34.6259 41.128C33.9272 41.128 33.3032 41.0027 32.7539 40.752C32.2045 40.5013 31.7405 40.1547 31.3619 39.712C30.9832 39.2693 30.6925 38.7413 30.4899 38.128C30.2925 37.5147 30.1939 36.8453 30.1939 36.12C30.1939 35.1227 30.3512 34.2107 30.6659 33.384C30.9805 32.552 31.4125 31.8373 31.9619 31.24C32.5112 30.6427 33.1539 30.1787 33.8899 29.848C34.6312 29.5173 35.4259 29.352 36.2739 29.352C36.6899 29.352 37.0659 29.3893 37.4019 29.464C37.7432 29.5387 38.0499 29.6453 38.3219 29.784C38.5992 29.9173 38.8499 30.08 39.0739 30.272C39.2979 30.464 39.5032 30.6773 39.6899 30.912L39.0739 31.664C39.0259 31.7227 38.9699 31.7733 38.9059 31.816C38.8419 31.8587 38.7619 31.88 38.6659 31.88C38.5965 31.88 38.5272 31.856 38.4579 31.808C38.3885 31.76 38.3112 31.7013 38.2259 31.632C38.1405 31.5573 38.0392 31.48 37.9219 31.4C37.8099 31.3147 37.6739 31.2373 37.5139 31.168C37.3539 31.0933 37.1645 31.032 36.9459 30.984C36.7325 30.936 36.4792 30.912 36.1859 30.912C35.5992 30.912 35.0525 31.032 34.5459 31.272C34.0392 31.5067 33.5992 31.8427 33.2259 32.28C32.8579 32.7173 32.5672 33.248 32.3539 33.872C32.1405 34.496 32.0339 35.1947 32.0339 35.968C32.0339 36.528 32.1059 37.032 32.2499 37.48C32.3939 37.928 32.5939 38.3067 32.8499 38.616C33.1059 38.9253 33.4099 39.1627 33.7619 39.328C34.1192 39.4933 34.5085 39.576 34.9299 39.576ZM40.179 41L41.611 29.16H43.307L41.867 41H40.179ZM46.9378 32.84L45.9538 41H44.2658L45.2418 32.84H46.9378ZM47.4498 30.376C47.4498 30.5307 47.4178 30.6773 47.3538 30.816C47.2898 30.9547 47.2044 31.0773 47.0978 31.184C46.9911 31.2853 46.8711 31.368 46.7378 31.432C46.6044 31.4907 46.4658 31.52 46.3218 31.52C46.1778 31.52 46.0391 31.4907 45.9058 31.432C45.7778 31.368 45.6631 31.2853 45.5618 31.184C45.4658 31.0773 45.3858 30.9547 45.3218 30.816C45.2631 30.6773 45.2338 30.5307 45.2338 30.376C45.2338 30.2213 45.2631 30.0747 45.3218 29.936C45.3858 29.792 45.4684 29.6693 45.5698 29.568C45.6711 29.4613 45.7884 29.3787 45.9218 29.32C46.0551 29.256 46.1911 29.224 46.3298 29.224C46.4738 29.224 46.6124 29.256 46.7458 29.32C46.8844 29.3787 47.0044 29.4613 47.1058 29.568C47.2124 29.6693 47.2951 29.7893 47.3538 29.928C47.4178 30.0667 47.4498 30.216 47.4498 30.376ZM54.5263 39.544C54.2543 39.848 53.9929 40.1013 53.7423 40.304C53.4916 40.5013 53.2383 40.6613 52.9823 40.784C52.7316 40.9067 52.4676 40.992 52.1903 41.04C51.9183 41.0933 51.6196 41.12 51.2943 41.12C50.8196 41.12 50.3983 41.04 50.0303 40.88C49.6623 40.7147 49.3529 40.4853 49.1023 40.192C48.8516 39.8933 48.6596 39.536 48.5263 39.12C48.3929 38.704 48.3263 38.2427 48.3263 37.736C48.3263 37.2987 48.3743 36.8693 48.4703 36.448C48.5663 36.0267 48.7023 35.632 48.8783 35.264C49.0543 34.8907 49.2676 34.5493 49.5183 34.24C49.7743 33.9253 50.0596 33.656 50.3743 33.432C50.6889 33.208 51.0303 33.0347 51.3983 32.912C51.7663 32.784 52.1556 32.72 52.5663 32.72C53.1103 32.72 53.5663 32.816 53.9343 33.008C54.3076 33.2 54.6356 33.4827 54.9183 33.856L54.3743 34.512C54.3316 34.5547 54.2836 34.5947 54.2303 34.632C54.1769 34.664 54.1183 34.68 54.0543 34.68C53.9743 34.68 53.8969 34.6507 53.8223 34.592C53.7476 34.5333 53.6569 34.4693 53.5503 34.4C53.4436 34.3253 53.3103 34.2587 53.1503 34.2C52.9903 34.136 52.7849 34.104 52.5343 34.104C52.1983 34.104 51.8783 34.1947 51.5743 34.376C51.2756 34.5573 51.0116 34.8107 50.7823 35.136C50.5583 35.456 50.3796 35.84 50.2463 36.288C50.1129 36.736 50.0463 37.224 50.0463 37.752C50.0463 38.3813 50.1849 38.8747 50.4623 39.232C50.7449 39.5893 51.1423 39.768 51.6543 39.768C51.9849 39.768 52.2596 39.72 52.4783 39.624C52.6969 39.528 52.8809 39.424 53.0303 39.312C53.1849 39.2 53.3183 39.096 53.4303 39C53.5423 38.904 53.6596 38.856 53.7823 38.856C53.8943 38.856 53.9983 38.9093 54.0943 39.016L54.5263 39.544ZM59.0319 29.16L58.1919 36.024H58.4159C58.5332 36.024 58.6265 36.008 58.6959 35.976C58.7705 35.9387 58.8505 35.872 58.9359 35.776L61.3519 33.16C61.4372 33.0533 61.5252 32.9733 61.6159 32.92C61.7119 32.8667 61.8292 32.84 61.9679 32.84H63.4959L60.5839 35.944C60.4185 36.1467 60.2345 36.3093 60.0319 36.432C60.1225 36.5067 60.1999 36.592 60.2639 36.688C60.3332 36.784 60.3972 36.8907 60.4559 37.008L62.6719 41H61.1919C61.0585 41 60.9492 40.9787 60.8639 40.936C60.7785 40.888 60.7092 40.8027 60.6559 40.68L58.8399 37.48C58.7812 37.3573 58.7172 37.28 58.6479 37.248C58.5785 37.2107 58.4692 37.192 58.3199 37.192H58.0479L57.5839 41H55.8879L57.3439 29.16H59.0319ZM78.5258 29.48L77.1018 41H75.2937L75.9257 35.848H70.7177L70.0777 41H68.2697L69.6857 29.48H71.5017L70.8777 34.552H76.0857L76.7098 29.48H78.5258ZM83.6733 33.944C83.3746 33.944 83.0973 34.0053 82.8413 34.128C82.5906 34.2507 82.3639 34.4213 82.1613 34.64C81.9639 34.8533 81.7906 35.1093 81.6413 35.408C81.4973 35.7067 81.3853 36.032 81.3053 36.384C82.0413 36.288 82.6333 36.1813 83.0813 36.064C83.5293 35.9467 83.8733 35.8187 84.1133 35.68C84.3533 35.5413 84.5133 35.3947 84.5933 35.24C84.6733 35.08 84.7133 34.912 84.7133 34.736C84.7133 34.6507 84.6946 34.56 84.6573 34.464C84.6199 34.368 84.5586 34.2827 84.4733 34.208C84.3933 34.1333 84.2866 34.072 84.1533 34.024C84.0199 33.9707 83.8599 33.944 83.6733 33.944ZM86.0653 39.488C85.7879 39.7707 85.5159 40.016 85.2493 40.224C84.9826 40.4267 84.7106 40.5947 84.4333 40.728C84.1559 40.8613 83.8653 40.96 83.5613 41.024C83.2573 41.088 82.9266 41.12 82.5693 41.12C82.0946 41.12 81.6679 41.04 81.2893 40.88C80.9106 40.72 80.5853 40.496 80.3133 40.208C80.0466 39.9147 79.8413 39.5627 79.6973 39.152C79.5533 38.736 79.4813 38.272 79.4813 37.76C79.4813 37.3333 79.5266 36.9147 79.6173 36.504C79.7079 36.088 79.8386 35.6933 80.0093 35.32C80.1853 34.9467 80.3959 34.6027 80.6413 34.288C80.8919 33.968 81.1746 33.6933 81.4893 33.464C81.8093 33.2347 82.1586 33.056 82.5373 32.928C82.9213 32.7947 83.3319 32.728 83.7693 32.728C84.1906 32.728 84.5559 32.7893 84.8653 32.912C85.1746 33.0293 85.4306 33.184 85.6333 33.376C85.8413 33.5627 85.9959 33.7707 86.0973 34C86.1986 34.2293 86.2493 34.4533 86.2493 34.672C86.2493 35.0293 86.1746 35.3573 86.0253 35.656C85.8813 35.9547 85.6199 36.224 85.2413 36.464C84.8626 36.704 84.3426 36.912 83.6813 37.088C83.0253 37.264 82.1826 37.4053 81.1533 37.512C81.1479 37.544 81.1453 37.5787 81.1453 37.616C81.1453 37.648 81.1453 37.6827 81.1453 37.72C81.1453 38.3973 81.2919 38.9093 81.5853 39.256C81.8786 39.5973 82.3186 39.768 82.9053 39.768C83.2733 39.768 83.5799 39.7173 83.8253 39.616C84.0706 39.5147 84.2786 39.4053 84.4493 39.288C84.6253 39.1653 84.7773 39.0533 84.9053 38.952C85.0386 38.8507 85.1773 38.8 85.3213 38.8C85.4333 38.8 85.5373 38.8533 85.6333 38.96L86.0653 39.488ZM89.8636 34.944C90.0716 34.512 90.2956 34.1413 90.5356 33.832C90.781 33.5227 91.0343 33.28 91.2956 33.104C91.5623 32.928 91.8343 32.824 92.1116 32.792C92.3943 32.76 92.677 32.8053 92.9596 32.928L92.6476 34.576C91.9703 34.304 91.3756 34.392 90.8636 34.84C90.357 35.2827 89.949 36.1227 89.6396 37.36L89.2076 41H87.5276L88.5116 32.824H89.3756C89.5623 32.824 89.7036 32.872 89.7996 32.968C89.901 33.0587 89.9516 33.2027 89.9516 33.4L89.8636 34.944ZM97.3758 33.944C97.0771 33.944 96.7998 34.0053 96.5438 34.128C96.2931 34.2507 96.0664 34.4213 95.8638 34.64C95.6664 34.8533 95.4931 35.1093 95.3438 35.408C95.1998 35.7067 95.0878 36.032 95.0078 36.384C95.7438 36.288 96.3358 36.1813 96.7838 36.064C97.2318 35.9467 97.5758 35.8187 97.8158 35.68C98.0558 35.5413 98.2158 35.3947 98.2958 35.24C98.3758 35.08 98.4158 34.912 98.4158 34.736C98.4158 34.6507 98.3971 34.56 98.3598 34.464C98.3224 34.368 98.2611 34.2827 98.1758 34.208C98.0958 34.1333 97.9891 34.072 97.8558 34.024C97.7224 33.9707 97.5624 33.944 97.3758 33.944ZM99.7678 39.488C99.4904 39.7707 99.2184 40.016 98.9518 40.224C98.6851 40.4267 98.4131 40.5947 98.1358 40.728C97.8584 40.8613 97.5678 40.96 97.2638 41.024C96.9598 41.088 96.6291 41.12 96.2718 41.12C95.7971 41.12 95.3704 41.04 94.9918 40.88C94.6131 40.72 94.2878 40.496 94.0158 40.208C93.7491 39.9147 93.5438 39.5627 93.3998 39.152C93.2558 38.736 93.1838 38.272 93.1838 37.76C93.1838 37.3333 93.2291 36.9147 93.3198 36.504C93.4104 36.088 93.5411 35.6933 93.7118 35.32C93.8878 34.9467 94.0984 34.6027 94.3438 34.288C94.5944 33.968 94.8771 33.6933 95.1918 33.464C95.5118 33.2347 95.8611 33.056 96.2398 32.928C96.6238 32.7947 97.0344 32.728 97.4718 32.728C97.8931 32.728 98.2584 32.7893 98.5678 32.912C98.8771 33.0293 99.1331 33.184 99.3358 33.376C99.5438 33.5627 99.6984 33.7707 99.7998 34C99.9011 34.2293 99.9518 34.4533 99.9518 34.672C99.9518 35.0293 99.8771 35.3573 99.7278 35.656C99.5838 35.9547 99.3224 36.224 98.9438 36.464C98.5651 36.704 98.0451 36.912 97.3838 37.088C96.7278 37.264 95.8851 37.4053 94.8558 37.512C94.8504 37.544 94.8478 37.5787 94.8478 37.616C94.8478 37.648 94.8478 37.6827 94.8478 37.72C94.8478 38.3973 94.9944 38.9093 95.2878 39.256C95.5811 39.5973 96.0211 39.768 96.6078 39.768C96.9758 39.768 97.2824 39.7173 97.5278 39.616C97.7731 39.5147 97.9811 39.4053 98.1518 39.288C98.3278 39.1653 98.4798 39.0533 98.6078 38.952C98.7411 38.8507 98.8798 38.8 99.0238 38.8C99.1358 38.8 99.2398 38.8533 99.3358 38.96L99.7678 39.488Z" fill="#FF8C00"/>
</svg>
