<svg width="662" height="55" viewBox="0 0 662 55" fill="none" xmlns="http://www.w3.org/2000/svg">
<g filter="url(#filter0_b_2003_2488)">
<path d="M0 8C0 3.58172 3.58172 0 8 0H654C658.418 0 662 3.58172 662 8V47C662 51.4183 658.418 55 654 55H8.00001C3.58173 55 0 51.4183 0 47V8Z" fill="white" fill-opacity="0.4"/>
<path d="M8 1H654C657.866 1 661 4.13401 661 8V47C661 50.866 657.866 54 654 54H8.00001C4.13401 54 1 50.866 1 47V8C1 4.13401 4.13401 1 8 1Z" stroke="url(#paint0_linear_2003_2488)" stroke-opacity="0.9" stroke-width="2"/>
<path d="M8 1H654C657.866 1 661 4.13401 661 8V47C661 50.866 657.866 54 654 54H8.00001C4.13401 54 1 50.866 1 47V8C1 4.13401 4.13401 1 8 1Z" stroke="#FF8C00" stroke-width="2"/>
</g>
<path d="M34.496 22.512V34H33.008V25.824C33.008 25.7013 33.0107 25.5707 33.016 25.432C33.0267 25.2933 33.0373 25.152 33.048 25.008L29.224 32.024C29.0907 32.2853 28.8853 32.416 28.608 32.416H28.368C28.0907 32.416 27.888 32.2853 27.76 32.024L23.864 24.984C23.896 25.2827 23.912 25.5627 23.912 25.824V34H22.416V22.512H23.68C23.8293 22.512 23.944 22.528 24.024 22.56C24.1093 22.5867 24.1893 22.6667 24.264 22.8L28.104 29.68C28.1787 29.8187 28.248 29.9653 28.312 30.12C28.376 30.2747 28.4373 30.4293 28.496 30.584C28.608 30.2693 28.7387 29.9653 28.888 29.672L32.656 22.8C32.7253 22.6667 32.8 22.5867 32.88 22.56C32.9653 22.528 33.0827 22.512 33.232 22.512H34.496ZM41.4715 30.392C40.8368 30.4133 40.2982 30.464 39.8555 30.544C39.4128 30.6187 39.0528 30.72 38.7755 30.848C38.4982 30.976 38.2982 31.128 38.1755 31.304C38.0528 31.4747 37.9915 31.6667 37.9915 31.88C37.9915 32.0827 38.0235 32.2587 38.0875 32.408C38.1568 32.552 38.2475 32.672 38.3595 32.768C38.4768 32.8587 38.6128 32.9253 38.7675 32.968C38.9222 33.0107 39.0902 33.032 39.2715 33.032C39.5115 33.032 39.7302 33.008 39.9275 32.96C40.1302 32.912 40.3195 32.8453 40.4955 32.76C40.6715 32.6693 40.8395 32.56 40.9995 32.432C41.1595 32.304 41.3168 32.1573 41.4715 31.992V30.392ZM36.8955 27.008C37.3488 26.576 37.8395 26.2533 38.3675 26.04C38.9008 25.8267 39.4848 25.72 40.1195 25.72C40.5835 25.72 40.9942 25.7973 41.3515 25.952C41.7088 26.1013 42.0102 26.312 42.2555 26.584C42.5008 26.856 42.6848 27.1813 42.8075 27.56C42.9355 27.9387 42.9995 28.3573 42.9995 28.816V34H42.3035C42.1488 34 42.0315 33.976 41.9515 33.928C41.8715 33.8747 41.8075 33.7787 41.7595 33.64L41.5915 32.928C41.3835 33.12 41.1782 33.2907 40.9755 33.44C40.7728 33.584 40.5595 33.7093 40.3355 33.816C40.1168 33.9173 39.8822 33.9947 39.6315 34.048C39.3808 34.1013 39.1035 34.128 38.7995 34.128C38.4795 34.128 38.1782 34.0853 37.8955 34C37.6182 33.9093 37.3755 33.7733 37.1675 33.592C36.9595 33.4107 36.7942 33.184 36.6715 32.912C36.5542 32.64 36.4955 32.3227 36.4955 31.96C36.4955 31.64 36.5808 31.3333 36.7515 31.04C36.9275 30.7413 37.2102 30.4747 37.5995 30.24C37.9942 30.0053 38.5062 29.8133 39.1355 29.664C39.7702 29.5147 40.5488 29.4293 41.4715 29.408V28.816C41.4715 28.2027 41.3408 27.744 41.0795 27.44C40.8182 27.136 40.4342 26.984 39.9275 26.984C39.5862 26.984 39.2982 27.0267 39.0635 27.112C38.8342 27.1973 38.6342 27.2933 38.4635 27.4C38.2982 27.5013 38.1515 27.5947 38.0235 27.68C37.9008 27.7653 37.7728 27.808 37.6395 27.808C37.5328 27.808 37.4395 27.7787 37.3595 27.72C37.2848 27.6613 37.2235 27.592 37.1755 27.512L36.8955 27.008ZM46.8799 27.432C47.1412 26.8987 47.4559 26.48 47.8239 26.176C48.1919 25.872 48.6345 25.72 49.1519 25.72C49.3279 25.72 49.4932 25.7413 49.6479 25.784C49.8079 25.8213 49.9465 25.88 50.0639 25.96L49.9599 27.136C49.9225 27.28 49.8345 27.352 49.6959 27.352C49.6212 27.352 49.5092 27.3387 49.3599 27.312C49.2105 27.28 49.0505 27.264 48.8799 27.264C48.6292 27.264 48.4079 27.3013 48.2159 27.376C48.0239 27.4453 47.8505 27.552 47.6959 27.696C47.5465 27.8347 47.4132 28.008 47.2959 28.216C47.1785 28.4187 47.0692 28.6507 46.9679 28.912V34H45.4079V25.872H46.3039C46.4745 25.872 46.5892 25.904 46.6479 25.968C46.7119 26.0267 46.7572 26.1333 46.7839 26.288L46.8799 27.432Z" fill="#3C3C6F"/>
<rect x="549" width="112" height="55" rx="8" fill="#FF8C00"/>
<path d="M597.533 29.632L596.125 25.784C596.056 25.6133 595.984 25.4107 595.909 25.176C595.834 24.9413 595.76 24.688 595.685 24.416C595.616 24.688 595.544 24.944 595.469 25.184C595.394 25.4187 595.322 25.624 595.253 25.8L593.853 29.632H597.533ZM601.333 34H599.669C599.482 34 599.33 33.9547 599.213 33.864C599.096 33.768 599.008 33.6507 598.949 33.512L598.085 31.152H593.293L592.429 33.512C592.386 33.6347 592.304 33.7467 592.181 33.848C592.058 33.9493 591.906 34 591.725 34H590.045L594.597 22.432H596.789L601.333 34ZM607.519 27.888C607.295 27.616 607.049 27.424 606.783 27.312C606.521 27.2 606.239 27.144 605.935 27.144C605.636 27.144 605.367 27.2 605.127 27.312C604.887 27.424 604.681 27.5947 604.511 27.824C604.34 28.048 604.209 28.336 604.119 28.688C604.028 29.0347 603.983 29.4453 603.983 29.92C603.983 30.4 604.02 30.808 604.095 31.144C604.175 31.4747 604.287 31.7467 604.431 31.96C604.575 32.168 604.751 32.32 604.959 32.416C605.167 32.5067 605.399 32.552 605.655 32.552C606.065 32.552 606.415 32.4667 606.703 32.296C606.991 32.1253 607.263 31.8827 607.519 31.568V27.888ZM609.495 22.112V34H608.287C608.025 34 607.86 33.88 607.791 33.64L607.623 32.848C607.292 33.2267 606.911 33.5333 606.479 33.768C606.052 34.0027 605.553 34.12 604.983 34.12C604.535 34.12 604.124 34.0267 603.751 33.84C603.377 33.6533 603.055 33.384 602.783 33.032C602.516 32.6747 602.308 32.2347 602.159 31.712C602.015 31.1893 601.943 30.592 601.943 29.92C601.943 29.312 602.025 28.7467 602.191 28.224C602.356 27.7013 602.593 27.248 602.903 26.864C603.212 26.48 603.583 26.1813 604.015 25.968C604.447 25.7493 604.932 25.64 605.471 25.64C605.929 25.64 606.321 25.712 606.647 25.856C606.972 26 607.263 26.1947 607.519 26.44V22.112H609.495ZM616.917 27.888C616.693 27.616 616.447 27.424 616.181 27.312C615.919 27.2 615.637 27.144 615.333 27.144C615.034 27.144 614.765 27.2 614.525 27.312C614.285 27.424 614.079 27.5947 613.909 27.824C613.738 28.048 613.607 28.336 613.517 28.688C613.426 29.0347 613.381 29.4453 613.381 29.92C613.381 30.4 613.418 30.808 613.493 31.144C613.573 31.4747 613.685 31.7467 613.829 31.96C613.973 32.168 614.149 32.32 614.357 32.416C614.565 32.5067 614.797 32.552 615.053 32.552C615.463 32.552 615.813 32.4667 616.101 32.296C616.389 32.1253 616.661 31.8827 616.917 31.568V27.888ZM618.893 22.112V34H617.685C617.423 34 617.258 33.88 617.189 33.64L617.021 32.848C616.69 33.2267 616.309 33.5333 615.877 33.768C615.45 34.0027 614.951 34.12 614.381 34.12C613.933 34.12 613.522 34.0267 613.149 33.84C612.775 33.6533 612.453 33.384 612.181 33.032C611.914 32.6747 611.706 32.2347 611.557 31.712C611.413 31.1893 611.341 30.592 611.341 29.92C611.341 29.312 611.423 28.7467 611.589 28.224C611.754 27.7013 611.991 27.248 612.301 26.864C612.61 26.48 612.981 26.1813 613.413 25.968C613.845 25.7493 614.33 25.64 614.869 25.64C615.327 25.64 615.719 25.712 616.045 25.856C616.37 26 616.661 26.1947 616.917 26.44V22.112H618.893Z" fill="white"/>
<line x1="51.5" y1="15" x2="51.5" y2="39" stroke="#3C3C6F"/>
<defs>
<filter id="filter0_b_2003_2488" x="-30" y="-30" width="722" height="115" filterUnits="userSpaceOnUse" color-interpolation-filters="sRGB">
<feFlood flood-opacity="0" result="BackgroundImageFix"/>
<feGaussianBlur in="BackgroundImageFix" stdDeviation="15"/>
<feComposite in2="SourceAlpha" operator="in" result="effect1_backgroundBlur_2003_2488"/>
<feBlend mode="normal" in="SourceGraphic" in2="effect1_backgroundBlur_2003_2488" result="shape"/>
</filter>
<linearGradient id="paint0_linear_2003_2488" x1="46.7386" y1="-8.82076" x2="264.476" y2="85.9174" gradientUnits="userSpaceOnUse">
<stop stop-color="white"/>
<stop offset="1" stop-color="white" stop-opacity="0"/>
</linearGradient>
</defs>
</svg>
