<svg width="415" height="48" viewBox="0 0 415 48" fill="none" xmlns="http://www.w3.org/2000/svg">
<path d="M3.448 6.144V9.568H7.784V11.288H3.448V16H1.288V4.432H8.584V6.144H3.448ZM12.3909 7.792V16H10.4069V7.792H12.3909ZM12.6629 5.4C12.6629 5.57067 12.6282 5.73067 12.5589 5.88C12.4895 6.02933 12.3962 6.16 12.2789 6.272C12.1669 6.384 12.0335 6.47467 11.8789 6.544C11.7242 6.608 11.5589 6.64 11.3829 6.64C11.2122 6.64 11.0495 6.608 10.8949 6.544C10.7455 6.47467 10.6149 6.384 10.5029 6.272C10.3909 6.16 10.3002 6.02933 10.2309 5.88C10.1669 5.73067 10.1349 5.57067 10.1349 5.4C10.1349 5.224 10.1669 5.05867 10.2309 4.904C10.3002 4.74933 10.3909 4.616 10.5029 4.504C10.6149 4.392 10.7455 4.304 10.8949 4.24C11.0495 4.17067 11.2122 4.136 11.3829 4.136C11.5589 4.136 11.7242 4.17067 11.8789 4.24C12.0335 4.304 12.1669 4.392 12.2789 4.504C12.3962 4.616 12.4895 4.74933 12.5589 4.904C12.6282 5.05867 12.6629 5.224 12.6629 5.4ZM20.0134 10.952C20.0134 10.696 19.976 10.456 19.9014 10.232C19.832 10.0027 19.7254 9.80267 19.5814 9.632C19.4374 9.46133 19.2534 9.328 19.0294 9.232C18.8107 9.13067 18.5547 9.08 18.2614 9.08C17.6907 9.08 17.24 9.24267 16.9094 9.568C16.584 9.89333 16.376 10.3547 16.2854 10.952H20.0134ZM16.2454 12.144C16.2774 12.5653 16.352 12.9307 16.4694 13.24C16.5867 13.544 16.7414 13.7973 16.9334 14C17.1254 14.1973 17.352 14.3467 17.6134 14.448C17.88 14.544 18.1734 14.592 18.4934 14.592C18.8134 14.592 19.088 14.5547 19.3174 14.48C19.552 14.4053 19.7547 14.3227 19.9254 14.232C20.1014 14.1413 20.2534 14.0587 20.3814 13.984C20.5147 13.9093 20.6427 13.872 20.7654 13.872C20.9307 13.872 21.0534 13.9333 21.1334 14.056L21.7014 14.776C21.4827 15.032 21.2374 15.248 20.9654 15.424C20.6934 15.5947 20.408 15.7333 20.1094 15.84C19.816 15.9413 19.5147 16.0133 19.2054 16.056C18.9014 16.0987 18.6054 16.12 18.3174 16.12C17.7467 16.12 17.216 16.0267 16.7254 15.84C16.2347 15.648 15.808 15.368 15.4454 15C15.0827 14.6267 14.7974 14.168 14.5894 13.624C14.3814 13.0747 14.2774 12.44 14.2774 11.72C14.2774 11.16 14.368 10.6347 14.5494 10.144C14.7307 9.648 14.9894 9.21867 15.3254 8.856C15.6667 8.488 16.08 8.19733 16.5654 7.984C17.056 7.77067 17.608 7.664 18.2214 7.664C18.7387 7.664 19.216 7.74667 19.6534 7.912C20.0907 8.07733 20.4667 8.32 20.7814 8.64C21.096 8.95467 21.3414 9.344 21.5174 9.808C21.6987 10.2667 21.7894 10.792 21.7894 11.384C21.7894 11.6827 21.7574 11.8853 21.6934 11.992C21.6294 12.0933 21.5067 12.144 21.3254 12.144H16.2454ZM25.5922 4.112V16H23.6162V4.112H25.5922ZM33.033 9.888C32.809 9.616 32.5637 9.424 32.297 9.312C32.0357 9.2 31.753 9.144 31.449 9.144C31.1503 9.144 30.881 9.2 30.641 9.312C30.401 9.424 30.1957 9.59467 30.025 9.824C29.8543 10.048 29.7237 10.336 29.633 10.688C29.5423 11.0347 29.497 11.4453 29.497 11.92C29.497 12.4 29.5343 12.808 29.609 13.144C29.689 13.4747 29.801 13.7467 29.945 13.96C30.089 14.168 30.265 14.32 30.473 14.416C30.681 14.5067 30.913 14.552 31.169 14.552C31.5797 14.552 31.929 14.4667 32.217 14.296C32.505 14.1253 32.777 13.8827 33.033 13.568V9.888ZM35.009 4.112V16H33.801C33.5397 16 33.3743 15.88 33.305 15.64L33.137 14.848C32.8063 15.2267 32.425 15.5333 31.993 15.768C31.5663 16.0027 31.0677 16.12 30.497 16.12C30.049 16.12 29.6383 16.0267 29.265 15.84C28.8917 15.6533 28.569 15.384 28.297 15.032C28.0303 14.6747 27.8223 14.2347 27.673 13.712C27.529 13.1893 27.457 12.592 27.457 11.92C27.457 11.312 27.5397 10.7467 27.705 10.224C27.8703 9.70133 28.1077 9.248 28.417 8.864C28.7263 8.48 29.097 8.18133 29.529 7.968C29.961 7.74933 30.4463 7.64 30.985 7.64C31.4437 7.64 31.8357 7.712 32.161 7.856C32.4863 8 32.777 8.19467 33.033 8.44V4.112H35.009ZM51.12 4.432L46.448 16H44.504L39.832 4.432H41.56C41.7467 4.432 41.8987 4.47733 42.016 4.568C42.1333 4.65867 42.2213 4.776 42.28 4.92L45.008 11.976C45.0987 12.2053 45.184 12.4587 45.264 12.736C45.3493 13.008 45.4293 13.2933 45.504 13.592C45.568 13.2933 45.6373 13.008 45.712 12.736C45.7867 12.4587 45.8693 12.2053 45.96 11.976L48.672 4.92C48.7147 4.79733 48.7973 4.68533 48.92 4.584C49.048 4.48267 49.2027 4.432 49.384 4.432H51.12ZM55.4426 12.496C54.872 12.5227 54.392 12.5733 54.0026 12.648C53.6133 12.7173 53.3013 12.808 53.0666 12.92C52.832 13.032 52.664 13.1627 52.5626 13.312C52.4613 13.4613 52.4106 13.624 52.4106 13.8C52.4106 14.1467 52.512 14.3947 52.7146 14.544C52.9226 14.6933 53.192 14.768 53.5226 14.768C53.928 14.768 54.2773 14.696 54.5706 14.552C54.8693 14.4027 55.16 14.1787 55.4426 13.88V12.496ZM50.9146 8.936C51.8586 8.072 52.9946 7.64 54.3226 7.64C54.8026 7.64 55.232 7.72 55.6106 7.88C55.9893 8.03467 56.3093 8.25333 56.5706 8.536C56.832 8.81333 57.0293 9.14667 57.1626 9.536C57.3013 9.92533 57.3706 10.352 57.3706 10.816V16H56.4746C56.288 16 56.144 15.9733 56.0426 15.92C55.9413 15.8613 55.8613 15.7467 55.8026 15.576L55.6266 14.984C55.4186 15.1707 55.216 15.336 55.0186 15.48C54.8213 15.6187 54.616 15.736 54.4026 15.832C54.1893 15.928 53.96 16 53.7146 16.048C53.4746 16.1013 53.208 16.128 52.9146 16.128C52.568 16.128 52.248 16.0827 51.9546 15.992C51.6613 15.896 51.408 15.7547 51.1946 15.568C50.9813 15.3813 50.816 15.1493 50.6986 14.872C50.5813 14.5947 50.5226 14.272 50.5226 13.904C50.5226 13.696 50.5573 13.4907 50.6266 13.288C50.696 13.08 50.808 12.8827 50.9626 12.696C51.1226 12.5093 51.328 12.3333 51.5786 12.168C51.8293 12.0027 52.136 11.8587 52.4986 11.736C52.8666 11.6133 53.2933 11.5147 53.7786 11.44C54.264 11.36 54.8186 11.312 55.4426 11.296V10.816C55.4426 10.2667 55.3253 9.86133 55.0906 9.6C54.856 9.33333 54.5173 9.2 54.0746 9.2C53.7546 9.2 53.488 9.23733 53.2746 9.312C53.0666 9.38667 52.8826 9.472 52.7226 9.568C52.5626 9.65867 52.416 9.74133 52.2826 9.816C52.1546 9.89067 52.0106 9.928 51.8506 9.928C51.712 9.928 51.5946 9.89333 51.4986 9.824C51.4026 9.74933 51.3253 9.664 51.2666 9.568L50.9146 8.936ZM61.5516 4.112V16H59.5756V4.112H61.5516ZM70.9124 7.792V16H69.7044C69.443 16 69.2777 15.88 69.2084 15.64L69.0724 14.984C68.7364 15.3253 68.3657 15.6027 67.9604 15.816C67.555 16.024 67.0777 16.128 66.5284 16.128C66.0804 16.128 65.683 16.0533 65.3364 15.904C64.995 15.7493 64.707 15.5333 64.4724 15.256C64.2377 14.9787 64.059 14.6507 63.9364 14.272C63.819 13.888 63.7604 13.4667 63.7604 13.008V7.792H65.7364V13.008C65.7364 13.5093 65.851 13.8987 66.0804 14.176C66.315 14.448 66.6644 14.584 67.1284 14.584C67.4697 14.584 67.7897 14.5093 68.0884 14.36C68.387 14.2053 68.6697 13.9947 68.9364 13.728V7.792H70.9124ZM78.4796 10.952C78.4796 10.696 78.4423 10.456 78.3676 10.232C78.2983 10.0027 78.1916 9.80267 78.0476 9.632C77.9036 9.46133 77.7196 9.328 77.4956 9.232C77.277 9.13067 77.021 9.08 76.7276 9.08C76.157 9.08 75.7063 9.24267 75.3756 9.568C75.0503 9.89333 74.8423 10.3547 74.7516 10.952H78.4796ZM74.7116 12.144C74.7436 12.5653 74.8183 12.9307 74.9356 13.24C75.053 13.544 75.2076 13.7973 75.3996 14C75.5916 14.1973 75.8183 14.3467 76.0796 14.448C76.3463 14.544 76.6396 14.592 76.9596 14.592C77.2796 14.592 77.5543 14.5547 77.7836 14.48C78.0183 14.4053 78.221 14.3227 78.3916 14.232C78.5676 14.1413 78.7196 14.0587 78.8476 13.984C78.981 13.9093 79.109 13.872 79.2316 13.872C79.397 13.872 79.5196 13.9333 79.5996 14.056L80.1676 14.776C79.949 15.032 79.7036 15.248 79.4316 15.424C79.1596 15.5947 78.8743 15.7333 78.5756 15.84C78.2823 15.9413 77.981 16.0133 77.6716 16.056C77.3676 16.0987 77.0716 16.12 76.7836 16.12C76.213 16.12 75.6823 16.0267 75.1916 15.84C74.701 15.648 74.2743 15.368 73.9116 15C73.549 14.6267 73.2636 14.168 73.0556 13.624C72.8476 13.0747 72.7436 12.44 72.7436 11.72C72.7436 11.16 72.8343 10.6347 73.0156 10.144C73.197 9.648 73.4556 9.21867 73.7916 8.856C74.133 8.488 74.5463 8.19733 75.0316 7.984C75.5223 7.77067 76.0743 7.664 76.6876 7.664C77.205 7.664 77.6823 7.74667 78.1196 7.912C78.557 8.07733 78.933 8.32 79.2476 8.64C79.5623 8.95467 79.8076 9.344 79.9836 9.808C80.165 10.2667 80.2556 10.792 80.2556 11.384C80.2556 11.6827 80.2236 11.8853 80.1596 11.992C80.0956 12.0933 79.973 12.144 79.7916 12.144H74.7116ZM87.0665 9.392C87.0132 9.47733 86.9572 9.53867 86.8985 9.576C86.8398 9.608 86.7652 9.624 86.6745 9.624C86.5785 9.624 86.4745 9.59733 86.3625 9.544C86.2558 9.49067 86.1305 9.432 85.9865 9.368C85.8425 9.29867 85.6772 9.23733 85.4905 9.184C85.3092 9.13067 85.0932 9.104 84.8425 9.104C84.4532 9.104 84.1465 9.18667 83.9225 9.352C83.7038 9.51733 83.5945 9.73333 83.5945 10C83.5945 10.176 83.6505 10.3253 83.7625 10.448C83.8798 10.5653 84.0318 10.6693 84.2185 10.76C84.4105 10.8507 84.6265 10.9333 84.8665 11.008C85.1065 11.0773 85.3492 11.1547 85.5945 11.24C85.8452 11.3253 86.0905 11.424 86.3305 11.536C86.5705 11.6427 86.7838 11.7813 86.9705 11.952C87.1625 12.1173 87.3145 12.3173 87.4265 12.552C87.5438 12.7867 87.6025 13.0693 87.6025 13.4C87.6025 13.7947 87.5305 14.16 87.3865 14.496C87.2478 14.8267 87.0398 15.1147 86.7625 15.36C86.4852 15.6 86.1412 15.7893 85.7305 15.928C85.3252 16.0613 84.8558 16.128 84.3225 16.128C84.0398 16.128 83.7625 16.1013 83.4905 16.048C83.2238 16 82.9652 15.9307 82.7145 15.84C82.4692 15.7493 82.2398 15.6427 82.0265 15.52C81.8185 15.3973 81.6345 15.264 81.4745 15.12L81.9305 14.368C81.9892 14.2773 82.0585 14.208 82.1385 14.16C82.2185 14.112 82.3198 14.088 82.4425 14.088C82.5652 14.088 82.6798 14.1227 82.7865 14.192C82.8985 14.2613 83.0265 14.336 83.1705 14.416C83.3145 14.496 83.4825 14.5707 83.6745 14.64C83.8718 14.7093 84.1198 14.744 84.4185 14.744C84.6532 14.744 84.8532 14.7173 85.0185 14.664C85.1892 14.6053 85.3278 14.5307 85.4345 14.44C85.5465 14.3493 85.6265 14.2453 85.6745 14.128C85.7278 14.0053 85.7545 13.88 85.7545 13.752C85.7545 13.56 85.6958 13.4027 85.5785 13.28C85.4665 13.1573 85.3145 13.0507 85.1225 12.96C84.9358 12.8693 84.7198 12.7893 84.4745 12.72C84.2345 12.6453 83.9865 12.5653 83.7305 12.48C83.4798 12.3947 83.2318 12.296 82.9865 12.184C82.7465 12.0667 82.5305 11.92 82.3385 11.744C82.1518 11.568 81.9998 11.352 81.8825 11.096C81.7705 10.84 81.7145 10.5307 81.7145 10.168C81.7145 9.832 81.7812 9.512 81.9145 9.208C82.0478 8.904 82.2425 8.64 82.4985 8.416C82.7598 8.18667 83.0825 8.00533 83.4665 7.872C83.8558 7.73333 84.3038 7.664 84.8105 7.664C85.3758 7.664 85.8905 7.75733 86.3545 7.944C86.8185 8.13067 87.2052 8.376 87.5145 8.68L87.0665 9.392Z" fill="#3C3C6F"/>
<path d="M16.32 33.536L12.744 45H11.352L8.448 36.256C8.42133 36.1707 8.39467 36.08 8.368 35.984C8.34667 35.888 8.32267 35.7867 8.296 35.68C8.26933 35.7867 8.24267 35.888 8.216 35.984C8.18933 36.08 8.16267 36.1707 8.136 36.256L5.216 45H3.824L0.248 33.536H1.536C1.67467 33.536 1.78933 33.5707 1.88 33.64C1.976 33.7093 2.03733 33.7973 2.064 33.904L4.432 41.872C4.46933 42.016 4.504 42.1707 4.536 42.336C4.57333 42.5013 4.608 42.6773 4.64 42.864C4.67733 42.6773 4.71467 42.5013 4.752 42.336C4.79467 42.1653 4.84 42.0107 4.888 41.872L7.584 33.904C7.616 33.8133 7.67733 33.7307 7.768 33.656C7.864 33.576 7.97867 33.536 8.112 33.536H8.56C8.69867 33.536 8.81067 33.5707 8.896 33.64C8.98133 33.7093 9.04533 33.7973 9.088 33.904L11.776 41.872C11.824 42.0107 11.8667 42.16 11.904 42.32C11.9467 42.48 11.9867 42.648 12.024 42.824C12.0507 42.648 12.08 42.48 12.112 42.32C12.144 42.16 12.1787 42.0107 12.216 41.872L14.592 33.904C14.6187 33.808 14.6773 33.7227 14.768 33.648C14.864 33.5733 14.9787 33.536 15.112 33.536H16.32ZM19.452 36.896V45H18.028V36.896H19.452ZM19.756 34.352C19.756 34.4907 19.7267 34.6213 19.668 34.744C19.6147 34.8613 19.54 34.968 19.444 35.064C19.3533 35.1547 19.244 35.2267 19.116 35.28C18.9933 35.3333 18.8627 35.36 18.724 35.36C18.5853 35.36 18.4547 35.3333 18.332 35.28C18.2147 35.2267 18.1107 35.1547 18.02 35.064C17.9293 34.968 17.8573 34.8613 17.804 34.744C17.7507 34.6213 17.724 34.4907 17.724 34.352C17.724 34.2133 17.7507 34.0827 17.804 33.96C17.8573 33.832 17.9293 33.7227 18.02 33.632C18.1107 33.536 18.2147 33.4613 18.332 33.408C18.4547 33.3547 18.5853 33.328 18.724 33.328C18.8627 33.328 18.9933 33.3547 19.116 33.408C19.244 33.4613 19.3533 33.536 19.444 33.632C19.54 33.7227 19.6147 33.832 19.668 33.96C19.7267 34.0827 19.756 34.2133 19.756 34.352ZM24.5997 45.128C23.9597 45.128 23.4664 44.9493 23.1197 44.592C22.7784 44.2347 22.6077 43.72 22.6077 43.048V38.088H21.6317C21.5464 38.088 21.4744 38.064 21.4157 38.016C21.3571 37.9627 21.3277 37.8827 21.3277 37.776V37.208L22.6557 37.04L22.9837 34.536C22.9997 34.456 23.0344 34.392 23.0877 34.344C23.1464 34.2907 23.2211 34.264 23.3117 34.264H24.0317V37.056H26.3757V38.088H24.0317V42.952C24.0317 43.2933 24.1144 43.5467 24.2797 43.712C24.4451 43.8773 24.6584 43.96 24.9197 43.96C25.0691 43.96 25.1971 43.9413 25.3037 43.904C25.4157 43.8613 25.5117 43.816 25.5917 43.768C25.6717 43.72 25.7384 43.6773 25.7917 43.64C25.8504 43.5973 25.9011 43.576 25.9437 43.576C26.0184 43.576 26.0851 43.6213 26.1437 43.712L26.5597 44.392C26.3144 44.6213 26.0184 44.8027 25.6717 44.936C25.3251 45.064 24.9677 45.128 24.5997 45.128ZM29.5981 37.976C29.9448 37.608 30.3288 37.3147 30.7501 37.096C31.1715 36.8773 31.6568 36.768 32.2061 36.768C32.6488 36.768 33.0381 36.8427 33.3741 36.992C33.7155 37.136 33.9981 37.344 34.2221 37.616C34.4515 37.8827 34.6248 38.2053 34.7421 38.584C34.8595 38.9627 34.9181 39.3813 34.9181 39.84V45H33.4861V39.84C33.4861 39.2267 33.3448 38.752 33.0621 38.416C32.7848 38.0747 32.3608 37.904 31.7901 37.904C31.3688 37.904 30.9741 38.0053 30.6061 38.208C30.2435 38.4107 29.9075 38.6853 29.5981 39.032V45H28.1661V33.216H29.5981V37.976ZM46.2137 41.352C45.5577 41.3733 44.9977 41.4267 44.5337 41.512C44.0751 41.592 43.6991 41.6987 43.4057 41.832C43.1177 41.9653 42.9071 42.1227 42.7737 42.304C42.6457 42.4853 42.5817 42.688 42.5817 42.912C42.5817 43.1253 42.6164 43.3093 42.6857 43.464C42.7551 43.6187 42.8484 43.7467 42.9657 43.848C43.0884 43.944 43.2297 44.016 43.3897 44.064C43.5551 44.1067 43.7311 44.128 43.9177 44.128C44.1684 44.128 44.3977 44.104 44.6057 44.056C44.8137 44.0027 45.0084 43.928 45.1897 43.832C45.3764 43.736 45.5524 43.6213 45.7177 43.488C45.8884 43.3547 46.0537 43.2027 46.2137 43.032V41.352ZM41.6137 38.04C42.0617 37.608 42.5444 37.2853 43.0617 37.072C43.5791 36.8587 44.1524 36.752 44.7817 36.752C45.2351 36.752 45.6377 36.8267 45.9897 36.976C46.3417 37.1253 46.6377 37.3333 46.8777 37.6C47.1177 37.8667 47.2991 38.1893 47.4217 38.568C47.5444 38.9467 47.6057 39.3627 47.6057 39.816V45H46.9737C46.8351 45 46.7284 44.9787 46.6537 44.936C46.5791 44.888 46.5204 44.7973 46.4777 44.664L46.3177 43.896C46.1044 44.0933 45.8964 44.2693 45.6937 44.424C45.4911 44.5733 45.2777 44.7013 45.0537 44.808C44.8297 44.9093 44.5897 44.9867 44.3337 45.04C44.0831 45.0987 43.8031 45.128 43.4937 45.128C43.1791 45.128 42.8831 45.0853 42.6057 45C42.3284 44.9093 42.0857 44.776 41.8777 44.6C41.6751 44.424 41.5124 44.2027 41.3897 43.936C41.2724 43.664 41.2137 43.344 41.2137 42.976C41.2137 42.656 41.3017 42.3493 41.4777 42.056C41.6537 41.7573 41.9391 41.4933 42.3337 41.264C42.7284 41.0347 43.2431 40.848 43.8777 40.704C44.5124 40.5547 45.2911 40.4693 46.2137 40.448V39.816C46.2137 39.1867 46.0777 38.712 45.8057 38.392C45.5337 38.0667 45.1364 37.904 44.6137 37.904C44.2617 37.904 43.9657 37.9493 43.7257 38.04C43.4911 38.1253 43.2857 38.224 43.1097 38.336C42.9391 38.4427 42.7897 38.5413 42.6617 38.632C42.5391 38.7173 42.4164 38.76 42.2937 38.76C42.1977 38.76 42.1151 38.736 42.0457 38.688C41.9764 38.6347 41.9177 38.5707 41.8697 38.496L41.6137 38.04ZM55.9806 33.216V45H54.5566V33.216H55.9806ZM60.1139 36.896V45H58.6899V36.896H60.1139ZM60.4179 34.352C60.4179 34.4907 60.3885 34.6213 60.3299 34.744C60.2765 34.8613 60.2019 34.968 60.1059 35.064C60.0152 35.1547 59.9059 35.2267 59.7779 35.28C59.6552 35.3333 59.5245 35.36 59.3859 35.36C59.2472 35.36 59.1165 35.3333 58.9939 35.28C58.8765 35.2267 58.7725 35.1547 58.6819 35.064C58.5912 34.968 58.5192 34.8613 58.4659 34.744C58.4125 34.6213 58.3859 34.4907 58.3859 34.352C58.3859 34.2133 58.4125 34.0827 58.4659 33.96C58.5192 33.832 58.5912 33.7227 58.6819 33.632C58.7725 33.536 58.8765 33.4613 58.9939 33.408C59.1165 33.3547 59.2472 33.328 59.3859 33.328C59.5245 33.328 59.6552 33.3547 59.7779 33.408C59.9059 33.4613 60.0152 33.536 60.1059 33.632C60.2019 33.7227 60.2765 33.832 60.3299 33.96C60.3885 34.0827 60.4179 34.2133 60.4179 34.352ZM67.4936 38.232C67.4296 38.3493 67.331 38.408 67.1976 38.408C67.1176 38.408 67.027 38.3787 66.9256 38.32C66.8243 38.2613 66.699 38.1973 66.5496 38.128C66.4056 38.0533 66.2323 37.9867 66.0296 37.928C65.827 37.864 65.587 37.832 65.3096 37.832C65.0696 37.832 64.8536 37.864 64.6616 37.928C64.4696 37.9867 64.3043 38.0693 64.1656 38.176C64.0323 38.2827 63.9283 38.408 63.8536 38.552C63.7843 38.6907 63.7496 38.8427 63.7496 39.008C63.7496 39.216 63.8083 39.3893 63.9256 39.528C64.0483 39.6667 64.2083 39.7867 64.4056 39.888C64.603 39.9893 64.827 40.08 65.0776 40.16C65.3283 40.2347 65.5843 40.3173 65.8456 40.408C66.1123 40.4933 66.371 40.5893 66.6216 40.696C66.8723 40.8027 67.0963 40.936 67.2936 41.096C67.491 41.256 67.6483 41.4533 67.7656 41.688C67.8883 41.9173 67.9496 42.1947 67.9496 42.52C67.9496 42.8933 67.883 43.24 67.7496 43.56C67.6163 43.8747 67.419 44.1493 67.1576 44.384C66.8963 44.6133 66.5763 44.7947 66.1976 44.928C65.819 45.0613 65.3816 45.128 64.8856 45.128C64.3203 45.128 63.8083 45.0373 63.3496 44.856C62.891 44.6693 62.5016 44.432 62.1816 44.144L62.5176 43.6C62.5603 43.5307 62.611 43.4773 62.6696 43.44C62.7283 43.4027 62.803 43.384 62.8936 43.384C62.9896 43.384 63.091 43.4213 63.1976 43.496C63.3043 43.5707 63.4323 43.6533 63.5816 43.744C63.7363 43.8347 63.923 43.9173 64.1416 43.992C64.3603 44.0667 64.6323 44.104 64.9576 44.104C65.235 44.104 65.4776 44.0693 65.6856 44C65.8936 43.9253 66.067 43.8267 66.2056 43.704C66.3443 43.5813 66.4456 43.44 66.5096 43.28C66.579 43.12 66.6136 42.9493 66.6136 42.768C66.6136 42.544 66.5523 42.36 66.4296 42.216C66.3123 42.0667 66.155 41.9413 65.9576 41.84C65.7603 41.7333 65.5336 41.6427 65.2776 41.568C65.027 41.488 64.7683 41.4053 64.5016 41.32C64.2403 41.2347 63.9816 41.1387 63.7256 41.032C63.475 40.92 63.251 40.7813 63.0536 40.616C62.8563 40.4507 62.6963 40.248 62.5736 40.008C62.4563 39.7627 62.3976 39.4667 62.3976 39.12C62.3976 38.8107 62.4616 38.5147 62.5896 38.232C62.7176 37.944 62.9043 37.6933 63.1496 37.48C63.395 37.2613 63.6963 37.088 64.0536 36.96C64.411 36.832 64.819 36.768 65.2776 36.768C65.811 36.768 66.2883 36.8533 66.7096 37.024C67.1363 37.1893 67.5043 37.4187 67.8136 37.712L67.4936 38.232ZM72.5035 45.128C71.8635 45.128 71.3702 44.9493 71.0235 44.592C70.6822 44.2347 70.5115 43.72 70.5115 43.048V38.088H69.5355C69.4502 38.088 69.3782 38.064 69.3195 38.016C69.2608 37.9627 69.2315 37.8827 69.2315 37.776V37.208L70.5595 37.04L70.8875 34.536C70.9035 34.456 70.9382 34.392 70.9915 34.344C71.0502 34.2907 71.1248 34.264 71.2155 34.264H71.9355V37.056H74.2795V38.088H71.9355V42.952C71.9355 43.2933 72.0182 43.5467 72.1835 43.712C72.3488 43.8773 72.5622 43.96 72.8235 43.96C72.9728 43.96 73.1008 43.9413 73.2075 43.904C73.3195 43.8613 73.4155 43.816 73.4955 43.768C73.5755 43.72 73.6422 43.6773 73.6955 43.64C73.7542 43.5973 73.8048 43.576 73.8475 43.576C73.9222 43.576 73.9888 43.6213 74.0475 43.712L74.4635 44.392C74.2182 44.6213 73.9222 44.8027 73.5755 44.936C73.2288 45.064 72.8715 45.128 72.5035 45.128ZM81.0276 45V38.112L80.1316 38.008C80.0143 37.9813 79.921 37.9413 79.8516 37.888C79.7823 37.8293 79.7476 37.7467 79.7476 37.64V37.056H81.0276V36.608C81.0276 36.112 81.105 35.6587 81.2596 35.248C81.4143 34.832 81.6463 34.4747 81.9556 34.176C82.265 33.8773 82.649 33.6453 83.1076 33.48C83.5716 33.3147 84.1076 33.232 84.7156 33.232C84.9183 33.232 85.1263 33.2453 85.3396 33.272C85.553 33.2987 85.737 33.3387 85.8916 33.392L85.8356 34.136C85.8303 34.1893 85.809 34.2267 85.7716 34.248C85.7396 34.2693 85.6943 34.2827 85.6356 34.288C85.577 34.2933 85.5023 34.296 85.4116 34.296C85.3263 34.2907 85.2276 34.288 85.1156 34.288C84.1663 34.288 83.4783 34.4853 83.0516 34.88C82.625 35.2693 82.4116 35.8587 82.4116 36.648V37.056H87.3076V45H85.8756V38.088H82.4516V45H81.0276ZM95.3839 40.064C95.3839 39.7333 95.3359 39.432 95.2399 39.16C95.1492 38.8827 95.0132 38.6453 94.8319 38.448C94.6559 38.2453 94.4399 38.0907 94.1839 37.984C93.9279 37.872 93.6372 37.816 93.3119 37.816C92.6292 37.816 92.0879 38.016 91.6879 38.416C91.2932 38.8107 91.0479 39.36 90.9519 40.064H95.3839ZM96.5359 43.864C96.3599 44.0773 96.1492 44.264 95.9039 44.424C95.6585 44.5787 95.3945 44.7067 95.1119 44.808C94.8345 44.9093 94.5465 44.984 94.2479 45.032C93.9492 45.0853 93.6532 45.112 93.3599 45.112C92.7999 45.112 92.2825 45.0187 91.8079 44.832C91.3385 44.64 90.9305 44.3627 90.5839 44C90.2425 43.632 89.9759 43.1787 89.7839 42.64C89.5919 42.1013 89.4959 41.4827 89.4959 40.784C89.4959 40.2187 89.5812 39.6907 89.7519 39.2C89.9279 38.7093 90.1785 38.2853 90.5039 37.928C90.8292 37.5653 91.2265 37.2827 91.6959 37.08C92.1652 36.872 92.6932 36.768 93.2799 36.768C93.7652 36.768 94.2132 36.8507 94.6239 37.016C95.0399 37.176 95.3972 37.4107 95.6959 37.72C95.9999 38.024 96.2372 38.4027 96.4079 38.856C96.5785 39.304 96.6639 39.816 96.6639 40.392C96.6639 40.616 96.6399 40.7653 96.5919 40.84C96.5439 40.9147 96.4532 40.952 96.3199 40.952H90.9039C90.9199 41.464 90.9892 41.9093 91.1119 42.288C91.2399 42.6667 91.4159 42.984 91.6399 43.24C91.8639 43.4907 92.1305 43.68 92.4399 43.808C92.7492 43.9307 93.0959 43.992 93.4799 43.992C93.8372 43.992 94.1439 43.952 94.3999 43.872C94.6612 43.7867 94.8852 43.696 95.0719 43.6C95.2585 43.504 95.4132 43.416 95.5359 43.336C95.6639 43.2507 95.7732 43.208 95.8639 43.208C95.9812 43.208 96.0719 43.2533 96.1359 43.344L96.5359 43.864ZM100.205 33.216V45H98.781V33.216H100.205ZM108.114 38.824C107.848 38.4667 107.56 38.2187 107.25 38.08C106.941 37.936 106.594 37.864 106.21 37.864C105.458 37.864 104.88 38.1333 104.474 38.672C104.069 39.2107 103.866 39.9787 103.866 40.976C103.866 41.504 103.912 41.9573 104.002 42.336C104.093 42.7093 104.226 43.0187 104.402 43.264C104.578 43.504 104.794 43.68 105.05 43.792C105.306 43.904 105.597 43.96 105.922 43.96C106.392 43.96 106.8 43.8533 107.146 43.64C107.498 43.4267 107.821 43.1253 108.114 42.736V38.824ZM109.538 33.216V45H108.69C108.488 45 108.36 44.9013 108.306 44.704L108.178 43.72C107.832 44.136 107.437 44.472 106.994 44.728C106.552 44.984 106.04 45.112 105.458 45.112C104.994 45.112 104.573 45.024 104.194 44.848C103.816 44.6667 103.493 44.4027 103.226 44.056C102.96 43.7093 102.754 43.2773 102.61 42.76C102.466 42.2427 102.394 41.648 102.394 40.976C102.394 40.3787 102.474 39.824 102.634 39.312C102.794 38.7947 103.024 38.3467 103.322 37.968C103.621 37.5893 103.986 37.2933 104.418 37.08C104.856 36.8613 105.346 36.752 105.89 36.752C106.386 36.752 106.81 36.8373 107.162 37.008C107.52 37.1733 107.837 37.4053 108.114 37.704V33.216H109.538ZM112.019 46.936C111.977 46.8987 111.947 46.864 111.931 46.832C111.915 46.8 111.907 46.76 111.907 46.712C111.907 46.6747 111.918 46.6373 111.939 46.6C111.966 46.5627 111.995 46.528 112.027 46.496C112.081 46.4373 112.147 46.36 112.227 46.264C112.313 46.168 112.398 46.0533 112.483 45.92C112.569 45.792 112.646 45.648 112.715 45.488C112.79 45.3333 112.843 45.168 112.875 44.992C112.859 44.9973 112.841 45 112.819 45C112.803 45 112.787 45 112.771 45C112.494 45 112.267 44.9093 112.091 44.728C111.921 44.5413 111.835 44.304 111.835 44.016C111.835 43.7653 111.921 43.552 112.091 43.376C112.267 43.2 112.499 43.112 112.787 43.112C112.947 43.112 113.089 43.1413 113.211 43.2C113.334 43.2587 113.435 43.3413 113.515 43.448C113.601 43.5493 113.665 43.6693 113.707 43.808C113.75 43.9413 113.771 44.088 113.771 44.248C113.771 44.488 113.737 44.7387 113.667 45C113.603 45.256 113.505 45.5093 113.371 45.76C113.243 46.016 113.086 46.264 112.899 46.504C112.713 46.744 112.499 46.9653 112.259 47.168L112.019 46.936ZM123.882 36.768C124.474 36.768 125.007 36.8667 125.482 37.064C125.957 37.2613 126.362 37.5413 126.698 37.904C127.034 38.2667 127.29 38.7067 127.466 39.224C127.647 39.736 127.738 40.3093 127.738 40.944C127.738 41.584 127.647 42.16 127.466 42.672C127.29 43.184 127.034 43.6213 126.698 43.984C126.362 44.3467 125.957 44.6267 125.482 44.824C125.007 45.016 124.474 45.112 123.882 45.112C123.285 45.112 122.746 45.016 122.266 44.824C121.791 44.6267 121.386 44.3467 121.05 43.984C120.714 43.6213 120.455 43.184 120.274 42.672C120.098 42.16 120.01 41.584 120.01 40.944C120.01 40.3093 120.098 39.736 120.274 39.224C120.455 38.7067 120.714 38.2667 121.05 37.904C121.386 37.5413 121.791 37.2613 122.266 37.064C122.746 36.8667 123.285 36.768 123.882 36.768ZM123.882 44C124.682 44 125.279 43.7333 125.674 43.2C126.069 42.6613 126.266 41.912 126.266 40.952C126.266 39.9867 126.069 39.2347 125.674 38.696C125.279 38.1573 124.682 37.888 123.882 37.888C123.477 37.888 123.122 37.9573 122.818 38.096C122.519 38.2347 122.269 38.4347 122.066 38.696C121.869 38.9573 121.719 39.28 121.618 39.664C121.522 40.0427 121.474 40.472 121.474 40.952C121.474 41.912 121.671 42.6613 122.066 43.2C122.466 43.7333 123.071 44 123.882 44ZM131.208 38.072C131.384 37.8747 131.571 37.696 131.768 37.536C131.966 37.376 132.174 37.24 132.392 37.128C132.616 37.0107 132.851 36.9227 133.096 36.864C133.347 36.8 133.616 36.768 133.904 36.768C134.347 36.768 134.736 36.8427 135.072 36.992C135.414 37.136 135.696 37.344 135.92 37.616C136.15 37.8827 136.323 38.2053 136.44 38.584C136.558 38.9627 136.616 39.3813 136.616 39.84V45H135.184V39.84C135.184 39.2267 135.043 38.752 134.76 38.416C134.483 38.0747 134.059 37.904 133.488 37.904C133.067 37.904 132.672 38.0053 132.304 38.208C131.942 38.4107 131.606 38.6853 131.296 39.032V45H129.864V36.896H130.72C130.923 36.896 131.048 36.9947 131.096 37.192L131.208 38.072ZM140.578 33.216V45H139.154V33.216H140.578ZM150.199 36.896L145.679 47.392C145.631 47.4987 145.57 47.584 145.495 47.648C145.426 47.712 145.317 47.744 145.167 47.744H144.111L145.591 44.528L142.247 36.896H143.479C143.602 36.896 143.698 36.928 143.767 36.992C143.842 37.0507 143.893 37.1173 143.919 37.192L146.087 42.296C146.173 42.52 146.245 42.7547 146.303 43C146.378 42.7493 146.458 42.512 146.543 42.288L148.647 37.192C148.679 37.1067 148.733 37.0373 148.807 36.984C148.887 36.9253 148.975 36.896 149.071 36.896H150.199ZM159.217 36.768C159.809 36.768 160.342 36.8667 160.817 37.064C161.291 37.2613 161.697 37.5413 162.033 37.904C162.369 38.2667 162.625 38.7067 162.801 39.224C162.982 39.736 163.073 40.3093 163.073 40.944C163.073 41.584 162.982 42.16 162.801 42.672C162.625 43.184 162.369 43.6213 162.033 43.984C161.697 44.3467 161.291 44.6267 160.817 44.824C160.342 45.016 159.809 45.112 159.217 45.112C158.619 45.112 158.081 45.016 157.601 44.824C157.126 44.6267 156.721 44.3467 156.385 43.984C156.049 43.6213 155.79 43.184 155.609 42.672C155.433 42.16 155.345 41.584 155.345 40.944C155.345 40.3093 155.433 39.736 155.609 39.224C155.79 38.7067 156.049 38.2667 156.385 37.904C156.721 37.5413 157.126 37.2613 157.601 37.064C158.081 36.8667 158.619 36.768 159.217 36.768ZM159.217 44C160.017 44 160.614 43.7333 161.009 43.2C161.403 42.6613 161.601 41.912 161.601 40.952C161.601 39.9867 161.403 39.2347 161.009 38.696C160.614 38.1573 160.017 37.888 159.217 37.888C158.811 37.888 158.457 37.9573 158.153 38.096C157.854 38.2347 157.603 38.4347 157.401 38.696C157.203 38.9573 157.054 39.28 156.953 39.664C156.857 40.0427 156.809 40.472 156.809 40.952C156.809 41.912 157.006 42.6613 157.401 43.2C157.801 43.7333 158.406 44 159.217 44ZM166.543 38.072C166.719 37.8747 166.905 37.696 167.103 37.536C167.3 37.376 167.508 37.24 167.727 37.128C167.951 37.0107 168.185 36.9227 168.431 36.864C168.681 36.8 168.951 36.768 169.239 36.768C169.681 36.768 170.071 36.8427 170.407 36.992C170.748 37.136 171.031 37.344 171.255 37.616C171.484 37.8827 171.657 38.2053 171.775 38.584C171.892 38.9627 171.951 39.3813 171.951 39.84V45H170.519V39.84C170.519 39.2267 170.377 38.752 170.095 38.416C169.817 38.0747 169.393 37.904 168.823 37.904C168.401 37.904 168.007 38.0053 167.639 38.208C167.276 38.4107 166.94 38.6853 166.631 39.032V45H165.199V36.896H166.055C166.257 36.896 166.383 36.9947 166.431 37.192L166.543 38.072ZM179.865 40.064C179.865 39.7333 179.817 39.432 179.721 39.16C179.63 38.8827 179.494 38.6453 179.313 38.448C179.137 38.2453 178.921 38.0907 178.665 37.984C178.409 37.872 178.118 37.816 177.793 37.816C177.11 37.816 176.569 38.016 176.169 38.416C175.774 38.8107 175.529 39.36 175.433 40.064H179.865ZM181.017 43.864C180.841 44.0773 180.63 44.264 180.385 44.424C180.139 44.5787 179.875 44.7067 179.593 44.808C179.315 44.9093 179.027 44.984 178.729 45.032C178.43 45.0853 178.134 45.112 177.841 45.112C177.281 45.112 176.763 45.0187 176.289 44.832C175.819 44.64 175.411 44.3627 175.065 44C174.723 43.632 174.457 43.1787 174.265 42.64C174.073 42.1013 173.977 41.4827 173.977 40.784C173.977 40.2187 174.062 39.6907 174.233 39.2C174.409 38.7093 174.659 38.2853 174.985 37.928C175.31 37.5653 175.707 37.2827 176.177 37.08C176.646 36.872 177.174 36.768 177.761 36.768C178.246 36.768 178.694 36.8507 179.105 37.016C179.521 37.176 179.878 37.4107 180.177 37.72C180.481 38.024 180.718 38.4027 180.889 38.856C181.059 39.304 181.145 39.816 181.145 40.392C181.145 40.616 181.121 40.7653 181.073 40.84C181.025 40.9147 180.934 40.952 180.801 40.952H175.385C175.401 41.464 175.47 41.9093 175.593 42.288C175.721 42.6667 175.897 42.984 176.121 43.24C176.345 43.4907 176.611 43.68 176.921 43.808C177.23 43.9307 177.577 43.992 177.961 43.992C178.318 43.992 178.625 43.952 178.881 43.872C179.142 43.7867 179.366 43.696 179.553 43.6C179.739 43.504 179.894 43.416 180.017 43.336C180.145 43.2507 180.254 43.208 180.345 43.208C180.462 43.208 180.553 43.2533 180.617 43.344L181.017 43.864ZM194.181 36.896L190.877 45H189.597L186.293 36.896H187.453C187.57 36.896 187.666 36.9253 187.741 36.984C187.815 37.0427 187.866 37.112 187.893 37.192L189.949 42.408C190.013 42.6053 190.069 42.7973 190.117 42.984C190.165 43.1707 190.21 43.3573 190.253 43.544C190.295 43.3573 190.341 43.1707 190.389 42.984C190.437 42.7973 190.495 42.6053 190.565 42.408L192.645 37.192C192.677 37.1067 192.73 37.0373 192.805 36.984C192.879 36.9253 192.967 36.896 193.069 36.896H194.181ZM200.027 41.352C199.371 41.3733 198.811 41.4267 198.347 41.512C197.888 41.592 197.512 41.6987 197.219 41.832C196.931 41.9653 196.72 42.1227 196.587 42.304C196.459 42.4853 196.395 42.688 196.395 42.912C196.395 43.1253 196.43 43.3093 196.499 43.464C196.568 43.6187 196.662 43.7467 196.779 43.848C196.902 43.944 197.043 44.016 197.203 44.064C197.368 44.1067 197.544 44.128 197.731 44.128C197.982 44.128 198.211 44.104 198.419 44.056C198.627 44.0027 198.822 43.928 199.003 43.832C199.19 43.736 199.366 43.6213 199.531 43.488C199.702 43.3547 199.867 43.2027 200.027 43.032V41.352ZM195.427 38.04C195.875 37.608 196.358 37.2853 196.875 37.072C197.392 36.8587 197.966 36.752 198.595 36.752C199.048 36.752 199.451 36.8267 199.803 36.976C200.155 37.1253 200.451 37.3333 200.691 37.6C200.931 37.8667 201.112 38.1893 201.235 38.568C201.358 38.9467 201.419 39.3627 201.419 39.816V45H200.787C200.648 45 200.542 44.9787 200.467 44.936C200.392 44.888 200.334 44.7973 200.291 44.664L200.131 43.896C199.918 44.0933 199.71 44.2693 199.507 44.424C199.304 44.5733 199.091 44.7013 198.867 44.808C198.643 44.9093 198.403 44.9867 198.147 45.04C197.896 45.0987 197.616 45.128 197.307 45.128C196.992 45.128 196.696 45.0853 196.419 45C196.142 44.9093 195.899 44.776 195.691 44.6C195.488 44.424 195.326 44.2027 195.203 43.936C195.086 43.664 195.027 43.344 195.027 42.976C195.027 42.656 195.115 42.3493 195.291 42.056C195.467 41.7573 195.752 41.4933 196.147 41.264C196.542 41.0347 197.056 40.848 197.691 40.704C198.326 40.5547 199.104 40.4693 200.027 40.448V39.816C200.027 39.1867 199.891 38.712 199.619 38.392C199.347 38.0667 198.95 37.904 198.427 37.904C198.075 37.904 197.779 37.9493 197.539 38.04C197.304 38.1253 197.099 38.224 196.923 38.336C196.752 38.4427 196.603 38.5413 196.475 38.632C196.352 38.7173 196.23 38.76 196.107 38.76C196.011 38.76 195.928 38.736 195.859 38.688C195.79 38.6347 195.731 38.5707 195.683 38.496L195.427 38.04ZM205.38 33.216V45H203.956V33.216H205.38ZM214.673 36.896V45H213.825C213.623 45 213.495 44.9013 213.441 44.704L213.329 43.832C212.977 44.2213 212.583 44.536 212.145 44.776C211.708 45.0107 211.207 45.128 210.641 45.128C210.199 45.128 209.807 45.056 209.465 44.912C209.129 44.7627 208.847 44.5547 208.617 44.288C208.388 44.0213 208.215 43.6987 208.097 43.32C207.985 42.9413 207.929 42.5227 207.929 42.064V36.896H209.353V42.064C209.353 42.6773 209.492 43.152 209.769 43.488C210.052 43.824 210.481 43.992 211.057 43.992C211.479 43.992 211.871 43.8933 212.233 43.696C212.601 43.4933 212.94 43.216 213.249 42.864V36.896H214.673ZM222.675 40.064C222.675 39.7333 222.627 39.432 222.531 39.16C222.44 38.8827 222.304 38.6453 222.123 38.448C221.947 38.2453 221.731 38.0907 221.475 37.984C221.219 37.872 220.928 37.816 220.603 37.816C219.92 37.816 219.379 38.016 218.979 38.416C218.584 38.8107 218.339 39.36 218.243 40.064H222.675ZM223.827 43.864C223.651 44.0773 223.44 44.264 223.195 44.424C222.95 44.5787 222.686 44.7067 222.403 44.808C222.126 44.9093 221.838 44.984 221.539 45.032C221.24 45.0853 220.944 45.112 220.651 45.112C220.091 45.112 219.574 45.0187 219.099 44.832C218.63 44.64 218.222 44.3627 217.875 44C217.534 43.632 217.267 43.1787 217.075 42.64C216.883 42.1013 216.787 41.4827 216.787 40.784C216.787 40.2187 216.872 39.6907 217.043 39.2C217.219 38.7093 217.47 38.2853 217.795 37.928C218.12 37.5653 218.518 37.2827 218.987 37.08C219.456 36.872 219.984 36.768 220.571 36.768C221.056 36.768 221.504 36.8507 221.915 37.016C222.331 37.176 222.688 37.4107 222.987 37.72C223.291 38.024 223.528 38.4027 223.699 38.856C223.87 39.304 223.955 39.816 223.955 40.392C223.955 40.616 223.931 40.7653 223.883 40.84C223.835 40.9147 223.744 40.952 223.611 40.952H218.195C218.211 41.464 218.28 41.9093 218.403 42.288C218.531 42.6667 218.707 42.984 218.931 43.24C219.155 43.4907 219.422 43.68 219.731 43.808C220.04 43.9307 220.387 43.992 220.771 43.992C221.128 43.992 221.435 43.952 221.691 43.872C221.952 43.7867 222.176 43.696 222.363 43.6C222.55 43.504 222.704 43.416 222.827 43.336C222.955 43.2507 223.064 43.208 223.155 43.208C223.272 43.208 223.363 43.2533 223.427 43.344L223.827 43.864ZM236.078 38.336C236.035 38.3947 235.993 38.44 235.95 38.472C235.907 38.504 235.849 38.52 235.774 38.52C235.694 38.52 235.606 38.488 235.51 38.424C235.414 38.3547 235.294 38.28 235.15 38.2C235.011 38.12 234.838 38.048 234.63 37.984C234.427 37.9147 234.177 37.88 233.878 37.88C233.478 37.88 233.126 37.952 232.822 38.096C232.518 38.2347 232.262 38.4373 232.054 38.704C231.851 38.9707 231.697 39.2933 231.59 39.672C231.489 40.0507 231.438 40.4747 231.438 40.944C231.438 41.4347 231.494 41.872 231.606 42.256C231.718 42.6347 231.875 42.9547 232.078 43.216C232.286 43.472 232.534 43.6693 232.822 43.808C233.115 43.9413 233.443 44.008 233.806 44.008C234.153 44.008 234.438 43.968 234.662 43.888C234.886 43.8027 235.07 43.7093 235.214 43.608C235.363 43.5067 235.486 43.416 235.582 43.336C235.683 43.2507 235.782 43.208 235.878 43.208C235.995 43.208 236.086 43.2533 236.15 43.344L236.55 43.864C236.374 44.0827 236.174 44.2693 235.95 44.424C235.726 44.5787 235.483 44.7093 235.222 44.816C234.966 44.9173 234.697 44.992 234.414 45.04C234.131 45.088 233.843 45.112 233.55 45.112C233.043 45.112 232.571 45.0187 232.134 44.832C231.702 44.6453 231.326 44.376 231.006 44.024C230.686 43.6667 230.435 43.2293 230.254 42.712C230.073 42.1947 229.982 41.6053 229.982 40.944C229.982 40.3413 230.065 39.784 230.23 39.272C230.401 38.76 230.646 38.32 230.966 37.952C231.291 37.5787 231.689 37.288 232.158 37.08C232.633 36.872 233.177 36.768 233.79 36.768C234.361 36.768 234.862 36.8613 235.294 37.048C235.731 37.2293 236.118 37.488 236.454 37.824L236.078 38.336ZM242.791 41.352C242.135 41.3733 241.575 41.4267 241.111 41.512C240.652 41.592 240.276 41.6987 239.983 41.832C239.695 41.9653 239.484 42.1227 239.351 42.304C239.223 42.4853 239.159 42.688 239.159 42.912C239.159 43.1253 239.193 43.3093 239.263 43.464C239.332 43.6187 239.425 43.7467 239.543 43.848C239.665 43.944 239.807 44.016 239.967 44.064C240.132 44.1067 240.308 44.128 240.495 44.128C240.745 44.128 240.975 44.104 241.183 44.056C241.391 44.0027 241.585 43.928 241.767 43.832C241.953 43.736 242.129 43.6213 242.295 43.488C242.465 43.3547 242.631 43.2027 242.791 43.032V41.352ZM238.191 38.04C238.639 37.608 239.121 37.2853 239.639 37.072C240.156 36.8587 240.729 36.752 241.359 36.752C241.812 36.752 242.215 36.8267 242.567 36.976C242.919 37.1253 243.215 37.3333 243.455 37.6C243.695 37.8667 243.876 38.1893 243.999 38.568C244.121 38.9467 244.183 39.3627 244.183 39.816V45H243.551C243.412 45 243.305 44.9787 243.231 44.936C243.156 44.888 243.097 44.7973 243.055 44.664L242.895 43.896C242.681 44.0933 242.473 44.2693 242.271 44.424C242.068 44.5733 241.855 44.7013 241.631 44.808C241.407 44.9093 241.167 44.9867 240.911 45.04C240.66 45.0987 240.38 45.128 240.071 45.128C239.756 45.128 239.46 45.0853 239.183 45C238.905 44.9093 238.663 44.776 238.455 44.6C238.252 44.424 238.089 44.2027 237.967 43.936C237.849 43.664 237.791 43.344 237.791 42.976C237.791 42.656 237.879 42.3493 238.055 42.056C238.231 41.7573 238.516 41.4933 238.911 41.264C239.305 41.0347 239.82 40.848 240.455 40.704C241.089 40.5547 241.868 40.4693 242.791 40.448V39.816C242.791 39.1867 242.655 38.712 242.383 38.392C242.111 38.0667 241.713 37.904 241.191 37.904C240.839 37.904 240.543 37.9493 240.303 38.04C240.068 38.1253 239.863 38.224 239.687 38.336C239.516 38.4427 239.367 38.5413 239.239 38.632C239.116 38.7173 238.993 38.76 238.871 38.76C238.775 38.76 238.692 38.736 238.623 38.688C238.553 38.6347 238.495 38.5707 238.447 38.496L238.191 38.04ZM248.016 38.072C248.192 37.8747 248.378 37.696 248.576 37.536C248.773 37.376 248.981 37.24 249.2 37.128C249.424 37.0107 249.658 36.9227 249.904 36.864C250.154 36.8 250.424 36.768 250.712 36.768C251.154 36.768 251.544 36.8427 251.88 36.992C252.221 37.136 252.504 37.344 252.728 37.616C252.957 37.8827 253.13 38.2053 253.248 38.584C253.365 38.9627 253.424 39.3813 253.424 39.84V45H251.992V39.84C251.992 39.2267 251.85 38.752 251.568 38.416C251.29 38.0747 250.866 37.904 250.296 37.904C249.874 37.904 249.48 38.0053 249.112 38.208C248.749 38.4107 248.413 38.6853 248.104 39.032V45H246.672V36.896H247.528C247.73 36.896 247.856 36.9947 247.904 37.192L248.016 38.072ZM261.759 43.048C262.021 43.4 262.306 43.648 262.615 43.792C262.93 43.936 263.274 44.008 263.647 44.008C264.41 44.008 264.994 43.7387 265.399 43.2C265.805 42.6613 266.007 41.8587 266.007 40.792C266.007 39.8 265.826 39.072 265.463 38.608C265.106 38.1387 264.594 37.904 263.927 37.904C263.463 37.904 263.058 38.0107 262.711 38.224C262.37 38.4373 262.053 38.7387 261.759 39.128V43.048ZM261.759 38.064C262.101 37.6693 262.485 37.3547 262.911 37.12C263.343 36.8853 263.839 36.768 264.399 36.768C264.874 36.768 265.301 36.8587 265.679 37.04C266.063 37.2213 266.389 37.4853 266.655 37.832C266.922 38.1733 267.125 38.5893 267.263 39.08C267.407 39.5707 267.479 40.1227 267.479 40.736C267.479 41.392 267.399 41.9893 267.239 42.528C267.079 43.0667 266.847 43.528 266.543 43.912C266.245 44.2907 265.879 44.5867 265.447 44.8C265.015 45.008 264.53 45.112 263.991 45.112C263.458 45.112 263.007 45.0133 262.639 44.816C262.277 44.6133 261.959 44.328 261.687 43.96L261.615 44.696C261.573 44.8987 261.45 45 261.247 45H260.327V33.216H261.759V38.064ZM275.025 40.064C275.025 39.7333 274.977 39.432 274.881 39.16C274.79 38.8827 274.654 38.6453 274.473 38.448C274.297 38.2453 274.081 38.0907 273.825 37.984C273.569 37.872 273.278 37.816 272.953 37.816C272.27 37.816 271.729 38.016 271.329 38.416C270.934 38.8107 270.689 39.36 270.593 40.064H275.025ZM276.177 43.864C276.001 44.0773 275.79 44.264 275.545 44.424C275.299 44.5787 275.035 44.7067 274.753 44.808C274.475 44.9093 274.187 44.984 273.889 45.032C273.59 45.0853 273.294 45.112 273.001 45.112C272.441 45.112 271.923 45.0187 271.449 44.832C270.979 44.64 270.571 44.3627 270.225 44C269.883 43.632 269.617 43.1787 269.425 42.64C269.233 42.1013 269.137 41.4827 269.137 40.784C269.137 40.2187 269.222 39.6907 269.393 39.2C269.569 38.7093 269.819 38.2853 270.145 37.928C270.47 37.5653 270.867 37.2827 271.337 37.08C271.806 36.872 272.334 36.768 272.921 36.768C273.406 36.768 273.854 36.8507 274.265 37.016C274.681 37.176 275.038 37.4107 275.337 37.72C275.641 38.024 275.878 38.4027 276.049 38.856C276.219 39.304 276.305 39.816 276.305 40.392C276.305 40.616 276.281 40.7653 276.233 40.84C276.185 40.9147 276.094 40.952 275.961 40.952H270.545C270.561 41.464 270.63 41.9093 270.753 42.288C270.881 42.6667 271.057 42.984 271.281 43.24C271.505 43.4907 271.771 43.68 272.081 43.808C272.39 43.9307 272.737 43.992 273.121 43.992C273.478 43.992 273.785 43.952 274.041 43.872C274.302 43.7867 274.526 43.696 274.713 43.6C274.899 43.504 275.054 43.416 275.177 43.336C275.305 43.2507 275.414 43.208 275.505 43.208C275.622 43.208 275.713 43.2533 275.777 43.344L276.177 43.864ZM287.507 38.232C287.443 38.3493 287.345 38.408 287.211 38.408C287.131 38.408 287.041 38.3787 286.939 38.32C286.838 38.2613 286.713 38.1973 286.563 38.128C286.419 38.0533 286.246 37.9867 286.043 37.928C285.841 37.864 285.601 37.832 285.323 37.832C285.083 37.832 284.867 37.864 284.675 37.928C284.483 37.9867 284.318 38.0693 284.179 38.176C284.046 38.2827 283.942 38.408 283.867 38.552C283.798 38.6907 283.763 38.8427 283.763 39.008C283.763 39.216 283.822 39.3893 283.939 39.528C284.062 39.6667 284.222 39.7867 284.419 39.888C284.617 39.9893 284.841 40.08 285.091 40.16C285.342 40.2347 285.598 40.3173 285.859 40.408C286.126 40.4933 286.385 40.5893 286.635 40.696C286.886 40.8027 287.11 40.936 287.307 41.096C287.505 41.256 287.662 41.4533 287.779 41.688C287.902 41.9173 287.963 42.1947 287.963 42.52C287.963 42.8933 287.897 43.24 287.763 43.56C287.63 43.8747 287.433 44.1493 287.171 44.384C286.91 44.6133 286.59 44.7947 286.211 44.928C285.833 45.0613 285.395 45.128 284.899 45.128C284.334 45.128 283.822 45.0373 283.363 44.856C282.905 44.6693 282.515 44.432 282.195 44.144L282.531 43.6C282.574 43.5307 282.625 43.4773 282.683 43.44C282.742 43.4027 282.817 43.384 282.907 43.384C283.003 43.384 283.105 43.4213 283.211 43.496C283.318 43.5707 283.446 43.6533 283.595 43.744C283.75 43.8347 283.937 43.9173 284.155 43.992C284.374 44.0667 284.646 44.104 284.971 44.104C285.249 44.104 285.491 44.0693 285.699 44C285.907 43.9253 286.081 43.8267 286.219 43.704C286.358 43.5813 286.459 43.44 286.523 43.28C286.593 43.12 286.627 42.9493 286.627 42.768C286.627 42.544 286.566 42.36 286.443 42.216C286.326 42.0667 286.169 41.9413 285.971 41.84C285.774 41.7333 285.547 41.6427 285.291 41.568C285.041 41.488 284.782 41.4053 284.515 41.32C284.254 41.2347 283.995 41.1387 283.739 41.032C283.489 40.92 283.265 40.7813 283.067 40.616C282.87 40.4507 282.71 40.248 282.587 40.008C282.47 39.7627 282.411 39.4667 282.411 39.12C282.411 38.8107 282.475 38.5147 282.603 38.232C282.731 37.944 282.918 37.6933 283.163 37.48C283.409 37.2613 283.71 37.088 284.067 36.96C284.425 36.832 284.833 36.768 285.291 36.768C285.825 36.768 286.302 36.8533 286.723 37.024C287.15 37.1893 287.518 37.4187 287.827 37.712L287.507 38.232ZM295.453 40.064C295.453 39.7333 295.405 39.432 295.309 39.16C295.219 38.8827 295.083 38.6453 294.901 38.448C294.725 38.2453 294.509 38.0907 294.253 37.984C293.997 37.872 293.707 37.816 293.381 37.816C292.699 37.816 292.157 38.016 291.757 38.416C291.363 38.8107 291.117 39.36 291.021 40.064H295.453ZM296.605 43.864C296.429 44.0773 296.219 44.264 295.973 44.424C295.728 44.5787 295.464 44.7067 295.181 44.808C294.904 44.9093 294.616 44.984 294.317 45.032C294.019 45.0853 293.723 45.112 293.429 45.112C292.869 45.112 292.352 45.0187 291.877 44.832C291.408 44.64 291 44.3627 290.653 44C290.312 43.632 290.045 43.1787 289.853 42.64C289.661 42.1013 289.565 41.4827 289.565 40.784C289.565 40.2187 289.651 39.6907 289.821 39.2C289.997 38.7093 290.248 38.2853 290.573 37.928C290.899 37.5653 291.296 37.2827 291.765 37.08C292.235 36.872 292.763 36.768 293.349 36.768C293.835 36.768 294.283 36.8507 294.693 37.016C295.109 37.176 295.467 37.4107 295.765 37.72C296.069 38.024 296.307 38.4027 296.477 38.856C296.648 39.304 296.733 39.816 296.733 40.392C296.733 40.616 296.709 40.7653 296.661 40.84C296.613 40.9147 296.523 40.952 296.389 40.952H290.973C290.989 41.464 291.059 41.9093 291.181 42.288C291.309 42.6667 291.485 42.984 291.709 43.24C291.933 43.4907 292.2 43.68 292.509 43.808C292.819 43.9307 293.165 43.992 293.549 43.992C293.907 43.992 294.213 43.952 294.469 43.872C294.731 43.7867 294.955 43.696 295.141 43.6C295.328 43.504 295.483 43.416 295.605 43.336C295.733 43.2507 295.843 43.208 295.933 43.208C296.051 43.208 296.141 43.2533 296.205 43.344L296.605 43.864ZM300.274 33.216V45H298.85V33.216H300.274ZM308.328 40.064C308.328 39.7333 308.28 39.432 308.184 39.16C308.093 38.8827 307.957 38.6453 307.776 38.448C307.6 38.2453 307.384 38.0907 307.128 37.984C306.872 37.872 306.581 37.816 306.256 37.816C305.573 37.816 305.032 38.016 304.632 38.416C304.237 38.8107 303.992 39.36 303.896 40.064H308.328ZM309.48 43.864C309.304 44.0773 309.093 44.264 308.848 44.424C308.602 44.5787 308.338 44.7067 308.056 44.808C307.778 44.9093 307.49 44.984 307.192 45.032C306.893 45.0853 306.597 45.112 306.304 45.112C305.744 45.112 305.226 45.0187 304.752 44.832C304.282 44.64 303.874 44.3627 303.528 44C303.186 43.632 302.92 43.1787 302.728 42.64C302.536 42.1013 302.44 41.4827 302.44 40.784C302.44 40.2187 302.525 39.6907 302.696 39.2C302.872 38.7093 303.122 38.2853 303.448 37.928C303.773 37.5653 304.17 37.2827 304.64 37.08C305.109 36.872 305.637 36.768 306.224 36.768C306.709 36.768 307.157 36.8507 307.568 37.016C307.984 37.176 308.341 37.4107 308.64 37.72C308.944 38.024 309.181 38.4027 309.352 38.856C309.522 39.304 309.608 39.816 309.608 40.392C309.608 40.616 309.584 40.7653 309.536 40.84C309.488 40.9147 309.397 40.952 309.264 40.952H303.848C303.864 41.464 303.933 41.9093 304.056 42.288C304.184 42.6667 304.36 42.984 304.584 43.24C304.808 43.4907 305.074 43.68 305.384 43.808C305.693 43.9307 306.04 43.992 306.424 43.992C306.781 43.992 307.088 43.952 307.344 43.872C307.605 43.7867 307.829 43.696 308.016 43.6C308.202 43.504 308.357 43.416 308.48 43.336C308.608 43.2507 308.717 43.208 308.808 43.208C308.925 43.208 309.016 43.2533 309.08 43.344L309.48 43.864ZM317.317 38.336C317.274 38.3947 317.231 38.44 317.189 38.472C317.146 38.504 317.087 38.52 317.013 38.52C316.933 38.52 316.845 38.488 316.749 38.424C316.653 38.3547 316.533 38.28 316.389 38.2C316.25 38.12 316.077 38.048 315.869 37.984C315.666 37.9147 315.415 37.88 315.117 37.88C314.717 37.88 314.365 37.952 314.061 38.096C313.757 38.2347 313.501 38.4373 313.293 38.704C313.09 38.9707 312.935 39.2933 312.829 39.672C312.727 40.0507 312.677 40.4747 312.677 40.944C312.677 41.4347 312.733 41.872 312.845 42.256C312.957 42.6347 313.114 42.9547 313.317 43.216C313.525 43.472 313.773 43.6693 314.061 43.808C314.354 43.9413 314.682 44.008 315.045 44.008C315.391 44.008 315.677 43.968 315.901 43.888C316.125 43.8027 316.309 43.7093 316.453 43.608C316.602 43.5067 316.725 43.416 316.821 43.336C316.922 43.2507 317.021 43.208 317.117 43.208C317.234 43.208 317.325 43.2533 317.389 43.344L317.789 43.864C317.613 44.0827 317.413 44.2693 317.189 44.424C316.965 44.5787 316.722 44.7093 316.461 44.816C316.205 44.9173 315.935 44.992 315.653 45.04C315.37 45.088 315.082 45.112 314.789 45.112C314.282 45.112 313.81 45.0187 313.373 44.832C312.941 44.6453 312.565 44.376 312.245 44.024C311.925 43.6667 311.674 43.2293 311.493 42.712C311.311 42.1947 311.221 41.6053 311.221 40.944C311.221 40.3413 311.303 39.784 311.469 39.272C311.639 38.76 311.885 38.32 312.205 37.952C312.53 37.5787 312.927 37.288 313.397 37.08C313.871 36.872 314.415 36.768 315.029 36.768C315.599 36.768 316.101 36.8613 316.533 37.048C316.97 37.2293 317.357 37.488 317.693 37.824L317.317 38.336ZM322.125 45.128C321.485 45.128 320.992 44.9493 320.645 44.592C320.304 44.2347 320.133 43.72 320.133 43.048V38.088H319.157C319.072 38.088 319 38.064 318.941 38.016C318.883 37.9627 318.853 37.8827 318.853 37.776V37.208L320.181 37.04L320.509 34.536C320.525 34.456 320.56 34.392 320.613 34.344C320.672 34.2907 320.747 34.264 320.837 34.264H321.557V37.056H323.901V38.088H321.557V42.952C321.557 43.2933 321.64 43.5467 321.805 43.712C321.971 43.8773 322.184 43.96 322.445 43.96C322.595 43.96 322.723 43.9413 322.829 43.904C322.941 43.8613 323.037 43.816 323.117 43.768C323.197 43.72 323.264 43.6773 323.317 43.64C323.376 43.5973 323.427 43.576 323.469 43.576C323.544 43.576 323.611 43.6213 323.669 43.712L324.085 44.392C323.84 44.6213 323.544 44.8027 323.197 44.936C322.851 45.064 322.493 45.128 322.125 45.128ZM331.069 40.064C331.069 39.7333 331.021 39.432 330.925 39.16C330.834 38.8827 330.698 38.6453 330.517 38.448C330.341 38.2453 330.125 38.0907 329.869 37.984C329.613 37.872 329.322 37.816 328.997 37.816C328.314 37.816 327.773 38.016 327.373 38.416C326.978 38.8107 326.733 39.36 326.637 40.064H331.069ZM332.221 43.864C332.045 44.0773 331.834 44.264 331.589 44.424C331.344 44.5787 331.08 44.7067 330.797 44.808C330.52 44.9093 330.232 44.984 329.933 45.032C329.634 45.0853 329.338 45.112 329.045 45.112C328.485 45.112 327.968 45.0187 327.493 44.832C327.024 44.64 326.616 44.3627 326.269 44C325.928 43.632 325.661 43.1787 325.469 42.64C325.277 42.1013 325.181 41.4827 325.181 40.784C325.181 40.2187 325.266 39.6907 325.437 39.2C325.613 38.7093 325.864 38.2853 326.189 37.928C326.514 37.5653 326.912 37.2827 327.381 37.08C327.85 36.872 328.378 36.768 328.965 36.768C329.45 36.768 329.898 36.8507 330.309 37.016C330.725 37.176 331.082 37.4107 331.381 37.72C331.685 38.024 331.922 38.4027 332.093 38.856C332.264 39.304 332.349 39.816 332.349 40.392C332.349 40.616 332.325 40.7653 332.277 40.84C332.229 40.9147 332.138 40.952 332.005 40.952H326.589C326.605 41.464 326.674 41.9093 326.797 42.288C326.925 42.6667 327.101 42.984 327.325 43.24C327.549 43.4907 327.816 43.68 328.125 43.808C328.434 43.9307 328.781 43.992 329.165 43.992C329.522 43.992 329.829 43.952 330.085 43.872C330.346 43.7867 330.57 43.696 330.757 43.6C330.944 43.504 331.098 43.416 331.221 43.336C331.349 43.2507 331.458 43.208 331.549 43.208C331.666 43.208 331.757 43.2533 331.821 43.344L332.221 43.864ZM339.698 38.824C339.431 38.4667 339.143 38.2187 338.834 38.08C338.525 37.936 338.178 37.864 337.794 37.864C337.042 37.864 336.463 38.1333 336.058 38.672C335.653 39.2107 335.45 39.9787 335.45 40.976C335.45 41.504 335.495 41.9573 335.586 42.336C335.677 42.7093 335.81 43.0187 335.986 43.264C336.162 43.504 336.378 43.68 336.634 43.792C336.89 43.904 337.181 43.96 337.506 43.96C337.975 43.96 338.383 43.8533 338.73 43.64C339.082 43.4267 339.405 43.1253 339.698 42.736V38.824ZM341.122 33.216V45H340.274C340.071 45 339.943 44.9013 339.89 44.704L339.762 43.72C339.415 44.136 339.021 44.472 338.578 44.728C338.135 44.984 337.623 45.112 337.042 45.112C336.578 45.112 336.157 45.024 335.778 44.848C335.399 44.6667 335.077 44.4027 334.81 44.056C334.543 43.7093 334.338 43.2773 334.194 42.76C334.05 42.2427 333.978 41.648 333.978 40.976C333.978 40.3787 334.058 39.824 334.218 39.312C334.378 38.7947 334.607 38.3467 334.906 37.968C335.205 37.5893 335.57 37.2933 336.002 37.08C336.439 36.8613 336.93 36.752 337.474 36.752C337.97 36.752 338.394 36.8373 338.746 37.008C339.103 37.1733 339.421 37.4053 339.698 37.704V33.216H341.122ZM352.497 41.352C351.841 41.3733 351.281 41.4267 350.817 41.512C350.358 41.592 349.982 41.6987 349.689 41.832C349.401 41.9653 349.19 42.1227 349.057 42.304C348.929 42.4853 348.865 42.688 348.865 42.912C348.865 43.1253 348.9 43.3093 348.969 43.464C349.038 43.6187 349.132 43.7467 349.249 43.848C349.372 43.944 349.513 44.016 349.673 44.064C349.838 44.1067 350.014 44.128 350.201 44.128C350.452 44.128 350.681 44.104 350.889 44.056C351.097 44.0027 351.292 43.928 351.473 43.832C351.66 43.736 351.836 43.6213 352.001 43.488C352.172 43.3547 352.337 43.2027 352.497 43.032V41.352ZM347.897 38.04C348.345 37.608 348.828 37.2853 349.345 37.072C349.862 36.8587 350.436 36.752 351.065 36.752C351.518 36.752 351.921 36.8267 352.273 36.976C352.625 37.1253 352.921 37.3333 353.161 37.6C353.401 37.8667 353.582 38.1893 353.705 38.568C353.828 38.9467 353.889 39.3627 353.889 39.816V45H353.257C353.118 45 353.012 44.9787 352.937 44.936C352.862 44.888 352.804 44.7973 352.761 44.664L352.601 43.896C352.388 44.0933 352.18 44.2693 351.977 44.424C351.774 44.5733 351.561 44.7013 351.337 44.808C351.113 44.9093 350.873 44.9867 350.617 45.04C350.366 45.0987 350.086 45.128 349.777 45.128C349.462 45.128 349.166 45.0853 348.889 45C348.612 44.9093 348.369 44.776 348.161 44.6C347.958 44.424 347.796 44.2027 347.673 43.936C347.556 43.664 347.497 43.344 347.497 42.976C347.497 42.656 347.585 42.3493 347.761 42.056C347.937 41.7573 348.222 41.4933 348.617 41.264C349.012 41.0347 349.526 40.848 350.161 40.704C350.796 40.5547 351.574 40.4693 352.497 40.448V39.816C352.497 39.1867 352.361 38.712 352.089 38.392C351.817 38.0667 351.42 37.904 350.897 37.904C350.545 37.904 350.249 37.9493 350.009 38.04C349.774 38.1253 349.569 38.224 349.393 38.336C349.222 38.4427 349.073 38.5413 348.945 38.632C348.822 38.7173 348.7 38.76 348.577 38.76C348.481 38.76 348.398 38.736 348.329 38.688C348.26 38.6347 348.201 38.5707 348.153 38.496L347.897 38.04ZM358.757 45.128C358.117 45.128 357.623 44.9493 357.277 44.592C356.935 44.2347 356.765 43.72 356.765 43.048V38.088H355.789C355.703 38.088 355.631 38.064 355.573 38.016C355.514 37.9627 355.485 37.8827 355.485 37.776V37.208L356.813 37.04L357.141 34.536C357.157 34.456 357.191 34.392 357.245 34.344C357.303 34.2907 357.378 34.264 357.469 34.264H358.189V37.056H360.533V38.088H358.189V42.952C358.189 43.2933 358.271 43.5467 358.437 43.712C358.602 43.8773 358.815 43.96 359.077 43.96C359.226 43.96 359.354 43.9413 359.461 43.904C359.573 43.8613 359.669 43.816 359.749 43.768C359.829 43.72 359.895 43.6773 359.949 43.64C360.007 43.5973 360.058 43.576 360.101 43.576C360.175 43.576 360.242 43.6213 360.301 43.712L360.717 44.392C360.471 44.6213 360.175 44.8027 359.829 44.936C359.482 45.064 359.125 45.128 358.757 45.128ZM371.129 41.352C370.473 41.3733 369.913 41.4267 369.449 41.512C368.99 41.592 368.614 41.6987 368.321 41.832C368.033 41.9653 367.822 42.1227 367.689 42.304C367.561 42.4853 367.497 42.688 367.497 42.912C367.497 43.1253 367.531 43.3093 367.601 43.464C367.67 43.6187 367.763 43.7467 367.881 43.848C368.003 43.944 368.145 44.016 368.305 44.064C368.47 44.1067 368.646 44.128 368.833 44.128C369.083 44.128 369.313 44.104 369.521 44.056C369.729 44.0027 369.923 43.928 370.105 43.832C370.291 43.736 370.467 43.6213 370.633 43.488C370.803 43.3547 370.969 43.2027 371.129 43.032V41.352ZM366.529 38.04C366.977 37.608 367.459 37.2853 367.977 37.072C368.494 36.8587 369.067 36.752 369.697 36.752C370.15 36.752 370.553 36.8267 370.905 36.976C371.257 37.1253 371.553 37.3333 371.793 37.6C372.033 37.8667 372.214 38.1893 372.337 38.568C372.459 38.9467 372.521 39.3627 372.521 39.816V45H371.889C371.75 45 371.643 44.9787 371.569 44.936C371.494 44.888 371.435 44.7973 371.393 44.664L371.233 43.896C371.019 44.0933 370.811 44.2693 370.609 44.424C370.406 44.5733 370.193 44.7013 369.969 44.808C369.745 44.9093 369.505 44.9867 369.249 45.04C368.998 45.0987 368.718 45.128 368.409 45.128C368.094 45.128 367.798 45.0853 367.521 45C367.243 44.9093 367.001 44.776 366.793 44.6C366.59 44.424 366.427 44.2027 366.305 43.936C366.187 43.664 366.129 43.344 366.129 42.976C366.129 42.656 366.217 42.3493 366.393 42.056C366.569 41.7573 366.854 41.4933 367.249 41.264C367.643 41.0347 368.158 40.848 368.793 40.704C369.427 40.5547 370.206 40.4693 371.129 40.448V39.816C371.129 39.1867 370.993 38.712 370.721 38.392C370.449 38.0667 370.051 37.904 369.529 37.904C369.177 37.904 368.881 37.9493 368.641 38.04C368.406 38.1253 368.201 38.224 368.025 38.336C367.854 38.4427 367.705 38.5413 367.577 38.632C367.454 38.7173 367.331 38.76 367.209 38.76C367.113 38.76 367.03 38.736 366.961 38.688C366.891 38.6347 366.833 38.5707 366.785 38.496L366.529 38.04ZM386.944 45H385.52V38.088H381.344V42.952C381.344 43.2933 381.426 43.5467 381.592 43.712C381.757 43.8773 381.97 43.96 382.232 43.96C382.381 43.96 382.509 43.9413 382.616 43.904C382.728 43.8613 382.824 43.816 382.904 43.768C382.984 43.72 383.05 43.6773 383.104 43.64C383.162 43.5973 383.213 43.576 383.256 43.576C383.33 43.576 383.397 43.6213 383.456 43.712L383.872 44.392C383.626 44.6213 383.33 44.8027 382.984 44.936C382.637 45.064 382.28 45.128 381.912 45.128C381.272 45.128 380.778 44.9493 380.432 44.592C380.09 44.2347 379.92 43.72 379.92 43.048V38.088H378.944C378.858 38.088 378.786 38.064 378.728 38.016C378.669 37.9627 378.64 37.8827 378.64 37.776V37.208L379.968 37.032L380.296 34.536C380.312 34.456 380.346 34.392 380.4 34.344C380.458 34.2907 380.533 34.264 380.624 34.264H381.344V37.056H386.944V45ZM387.296 34.296C387.296 34.4347 387.266 34.5653 387.208 34.688C387.154 34.8053 387.08 34.9093 386.984 35C386.893 35.0907 386.786 35.1627 386.664 35.216C386.541 35.2693 386.41 35.296 386.272 35.296C386.133 35.296 386.002 35.2693 385.88 35.216C385.762 35.1627 385.658 35.0907 385.568 35C385.477 34.9093 385.405 34.8053 385.352 34.688C385.298 34.5653 385.272 34.4347 385.272 34.296C385.272 34.1573 385.298 34.0267 385.352 33.904C385.405 33.776 385.477 33.6667 385.568 33.576C385.658 33.48 385.762 33.4053 385.88 33.352C386.002 33.2987 386.133 33.272 386.272 33.272C386.41 33.272 386.541 33.2987 386.664 33.352C386.786 33.4053 386.893 33.48 386.984 33.576C387.08 33.6667 387.154 33.776 387.208 33.904C387.266 34.0267 387.296 34.1573 387.296 34.296ZM389.603 45V36.896H390.459C390.662 36.896 390.787 36.9947 390.835 37.192L390.939 38.024C391.238 37.656 391.574 37.3547 391.947 37.12C392.32 36.8853 392.752 36.768 393.243 36.768C393.787 36.768 394.227 36.92 394.563 37.224C394.904 37.528 395.15 37.9387 395.299 38.456C395.416 38.1627 395.566 37.9093 395.747 37.696C395.934 37.4827 396.142 37.3067 396.371 37.168C396.6 37.0293 396.843 36.928 397.099 36.864C397.36 36.8 397.624 36.768 397.891 36.768C398.318 36.768 398.696 36.8373 399.027 36.976C399.363 37.1093 399.646 37.3067 399.875 37.568C400.11 37.8293 400.288 38.152 400.411 38.536C400.534 38.9147 400.595 39.3493 400.595 39.84V45H399.163V39.84C399.163 39.2053 399.024 38.7253 398.747 38.4C398.47 38.0693 398.07 37.904 397.547 37.904C397.312 37.904 397.088 37.9467 396.875 38.032C396.667 38.112 396.483 38.232 396.323 38.392C396.163 38.552 396.035 38.7547 395.939 39C395.848 39.24 395.803 39.52 395.803 39.84V45H394.371V39.84C394.371 39.1893 394.24 38.704 393.979 38.384C393.718 38.064 393.336 37.904 392.835 37.904C392.483 37.904 392.158 38 391.859 38.192C391.56 38.3787 391.286 38.6347 391.035 38.96V45H389.603ZM408.503 40.064C408.503 39.7333 408.455 39.432 408.359 39.16C408.269 38.8827 408.133 38.6453 407.951 38.448C407.775 38.2453 407.559 38.0907 407.303 37.984C407.047 37.872 406.757 37.816 406.431 37.816C405.749 37.816 405.207 38.016 404.807 38.416C404.413 38.8107 404.167 39.36 404.071 40.064H408.503ZM409.655 43.864C409.479 44.0773 409.269 44.264 409.023 44.424C408.778 44.5787 408.514 44.7067 408.231 44.808C407.954 44.9093 407.666 44.984 407.367 45.032C407.069 45.0853 406.773 45.112 406.479 45.112C405.919 45.112 405.402 45.0187 404.927 44.832C404.458 44.64 404.05 44.3627 403.703 44C403.362 43.632 403.095 43.1787 402.903 42.64C402.711 42.1013 402.615 41.4827 402.615 40.784C402.615 40.2187 402.701 39.6907 402.871 39.2C403.047 38.7093 403.298 38.2853 403.623 37.928C403.949 37.5653 404.346 37.2827 404.815 37.08C405.285 36.872 405.813 36.768 406.399 36.768C406.885 36.768 407.333 36.8507 407.743 37.016C408.159 37.176 408.517 37.4107 408.815 37.72C409.119 38.024 409.357 38.4027 409.527 38.856C409.698 39.304 409.783 39.816 409.783 40.392C409.783 40.616 409.759 40.7653 409.711 40.84C409.663 40.9147 409.573 40.952 409.439 40.952H404.023C404.039 41.464 404.109 41.9093 404.231 42.288C404.359 42.6667 404.535 42.984 404.759 43.24C404.983 43.4907 405.25 43.68 405.559 43.808C405.869 43.9307 406.215 43.992 406.599 43.992C406.957 43.992 407.263 43.952 407.519 43.872C407.781 43.7867 408.005 43.696 408.191 43.6C408.378 43.504 408.533 43.416 408.655 43.336C408.783 43.2507 408.893 43.208 408.983 43.208C409.101 43.208 409.191 43.2533 409.255 43.344L409.655 43.864ZM411.612 44.12C411.612 43.9813 411.636 43.8507 411.684 43.728C411.738 43.6053 411.807 43.4987 411.892 43.408C411.983 43.3173 412.09 43.2453 412.212 43.192C412.335 43.1387 412.466 43.112 412.604 43.112C412.743 43.112 412.874 43.1387 412.996 43.192C413.119 43.2453 413.226 43.3173 413.316 43.408C413.407 43.4987 413.479 43.6053 413.532 43.728C413.586 43.8507 413.612 43.9813 413.612 44.12C413.612 44.264 413.586 44.3973 413.532 44.52C413.479 44.6373 413.407 44.7413 413.316 44.832C413.226 44.9227 413.119 44.992 412.996 45.04C412.874 45.0933 412.743 45.12 412.604 45.12C412.466 45.12 412.335 45.0933 412.212 45.04C412.09 44.992 411.983 44.9227 411.892 44.832C411.807 44.7413 411.738 44.6373 411.684 44.52C411.636 44.3973 411.612 44.264 411.612 44.12Z" fill="#8686A1"/>
</svg>
