<svg width="164" height="19" viewBox="0 0 164 19" fill="none" xmlns="http://www.w3.org/2000/svg">
<path d="M25.0558 0.647999L19.6678 18H16.7518L12.9598 6.144C12.8558 5.856 12.7598 5.504 12.6718 5.088C12.6238 5.288 12.5758 5.476 12.5278 5.652C12.4798 5.828 12.4278 5.992 12.3718 6.144L8.54378 18H5.61578L0.239782 0.647999H2.93978C3.21978 0.647999 3.45178 0.715999 3.63578 0.852C3.82778 0.979999 3.95578 1.156 4.01978 1.38L6.97178 11.76C7.03578 12.016 7.09578 12.296 7.15178 12.6C7.21578 12.896 7.27978 13.208 7.34378 13.536C7.40778 13.2 7.47578 12.884 7.54778 12.588C7.62778 12.292 7.71178 12.016 7.79978 11.76L11.2078 1.38C11.2718 1.196 11.3958 1.028 11.5798 0.875999C11.7718 0.723999 12.0038 0.647999 12.2758 0.647999H13.2238C13.5038 0.647999 13.7318 0.715999 13.9078 0.852C14.0838 0.987999 14.2158 1.164 14.3038 1.38L17.6998 11.76C17.8678 12.256 18.0198 12.828 18.1558 13.476C18.2598 12.844 18.3758 12.272 18.5038 11.76L21.4558 1.38C21.5038 1.18 21.6238 1.008 21.8158 0.863999C22.0158 0.719999 22.2518 0.647999 22.5238 0.647999H25.0558ZM33.6774 10.428C33.6774 10.044 33.6214 9.684 33.5094 9.348C33.4054 9.004 33.2454 8.704 33.0294 8.448C32.8134 8.192 32.5374 7.992 32.2014 7.848C31.8734 7.696 31.4894 7.62 31.0494 7.62C30.1934 7.62 29.5174 7.864 29.0214 8.352C28.5334 8.84 28.2214 9.532 28.0854 10.428H33.6774ZM28.0254 12.216C28.0734 12.848 28.1854 13.396 28.3614 13.86C28.5374 14.316 28.7694 14.696 29.0574 15C29.3454 15.296 29.6854 15.52 30.0774 15.672C30.4774 15.816 30.9174 15.888 31.3974 15.888C31.8774 15.888 32.2894 15.832 32.6334 15.72C32.9854 15.608 33.2894 15.484 33.5454 15.348C33.8094 15.212 34.0374 15.088 34.2294 14.976C34.4294 14.864 34.6214 14.808 34.8054 14.808C35.0534 14.808 35.2374 14.9 35.3574 15.084L36.2094 16.164C35.8814 16.548 35.5134 16.872 35.1054 17.136C34.6974 17.392 34.2694 17.6 33.8214 17.76C33.3814 17.912 32.9294 18.02 32.4654 18.084C32.0094 18.148 31.5654 18.18 31.1334 18.18C30.2774 18.18 29.4814 18.04 28.7454 17.76C28.0094 17.472 27.3694 17.052 26.8254 16.5C26.2814 15.94 25.8534 15.252 25.5414 14.436C25.2294 13.612 25.0734 12.66 25.0734 11.58C25.0734 10.74 25.2094 9.952 25.4814 9.216C25.7534 8.472 26.1414 7.828 26.6454 7.284C27.1574 6.732 27.7774 6.296 28.5054 5.976C29.2414 5.656 30.0694 5.496 30.9894 5.496C31.7654 5.496 32.4814 5.62 33.1374 5.868C33.7934 6.116 34.3574 6.48 34.8294 6.96C35.3014 7.432 35.6694 8.016 35.9334 8.712C36.2054 9.4 36.3414 10.188 36.3414 11.076C36.3414 11.524 36.2934 11.828 36.1974 11.988C36.1014 12.14 35.9174 12.216 35.6454 12.216H28.0254ZM42.0457 0.167999V18H39.0817V0.167999H42.0457ZM54.2988 8.292C54.2108 8.404 54.1228 8.492 54.0348 8.556C53.9548 8.62 53.8348 8.652 53.6748 8.652C53.5228 8.652 53.3748 8.608 53.2308 8.52C53.0868 8.424 52.9148 8.32 52.7148 8.208C52.5148 8.088 52.2748 7.984 51.9948 7.896C51.7228 7.8 51.3828 7.752 50.9748 7.752C50.4548 7.752 49.9988 7.848 49.6068 8.04C49.2148 8.224 48.8868 8.492 48.6228 8.844C48.3668 9.196 48.1748 9.624 48.0468 10.128C47.9188 10.624 47.8548 11.188 47.8548 11.82C47.8548 12.476 47.9228 13.06 48.0588 13.572C48.2028 14.084 48.4068 14.516 48.6708 14.868C48.9348 15.212 49.2548 15.476 49.6308 15.66C50.0068 15.836 50.4308 15.924 50.9028 15.924C51.3748 15.924 51.7548 15.868 52.0428 15.756C52.3388 15.636 52.5868 15.508 52.7868 15.372C52.9868 15.228 53.1588 15.1 53.3028 14.988C53.4548 14.868 53.6228 14.808 53.8068 14.808C54.0468 14.808 54.2268 14.9 54.3468 15.084L55.1988 16.164C54.8708 16.548 54.5148 16.872 54.1308 17.136C53.7468 17.392 53.3468 17.6 52.9308 17.76C52.5228 17.912 52.0988 18.02 51.6588 18.084C51.2268 18.148 50.7948 18.18 50.3628 18.18C49.6028 18.18 48.8868 18.04 48.2148 17.76C47.5428 17.472 46.9548 17.056 46.4508 16.512C45.9468 15.968 45.5468 15.304 45.2508 14.52C44.9628 13.728 44.8188 12.828 44.8188 11.82C44.8188 10.916 44.9468 10.08 45.2028 9.312C45.4668 8.536 45.8508 7.868 46.3548 7.308C46.8588 6.74 47.4828 6.296 48.2268 5.976C48.9708 5.656 49.8268 5.496 50.7948 5.496C51.7148 5.496 52.5188 5.644 53.2068 5.94C53.9028 6.236 54.5268 6.66 55.0788 7.212L54.2988 8.292ZM62.774 5.496C63.686 5.496 64.514 5.644 65.258 5.94C66.01 6.236 66.65 6.656 67.178 7.2C67.714 7.744 68.126 8.408 68.414 9.192C68.702 9.976 68.846 10.852 68.846 11.82C68.846 12.796 68.702 13.676 68.414 14.46C68.126 15.244 67.714 15.912 67.178 16.464C66.65 17.016 66.01 17.44 65.258 17.736C64.514 18.032 63.686 18.18 62.774 18.18C61.854 18.18 61.018 18.032 60.266 17.736C59.514 17.44 58.87 17.016 58.334 16.464C57.806 15.912 57.394 15.244 57.098 14.46C56.81 13.676 56.666 12.796 56.666 11.82C56.666 10.852 56.81 9.976 57.098 9.192C57.394 8.408 57.806 7.744 58.334 7.2C58.87 6.656 59.514 6.236 60.266 5.94C61.018 5.644 61.854 5.496 62.774 5.496ZM62.774 15.9C63.798 15.9 64.554 15.556 65.042 14.868C65.538 14.18 65.786 13.172 65.786 11.844C65.786 10.516 65.538 9.504 65.042 8.808C64.554 8.112 63.798 7.764 62.774 7.764C61.734 7.764 60.962 8.116 60.458 8.82C59.962 9.516 59.714 10.524 59.714 11.844C59.714 13.164 59.962 14.172 60.458 14.868C60.962 15.556 61.734 15.9 62.774 15.9ZM71.5873 18V5.688H73.3993C73.7833 5.688 74.0353 5.868 74.1553 6.228L74.3473 7.14C74.5633 6.9 74.7873 6.68 75.0193 6.48C75.2593 6.28 75.5113 6.108 75.7753 5.964C76.0473 5.82 76.3353 5.708 76.6393 5.628C76.9513 5.54 77.2913 5.496 77.6593 5.496C78.4353 5.496 79.0713 5.708 79.5673 6.132C80.0713 6.548 80.4473 7.104 80.6953 7.8C80.8873 7.392 81.1273 7.044 81.4153 6.756C81.7033 6.46 82.0193 6.22 82.3633 6.036C82.7073 5.852 83.0713 5.716 83.4553 5.628C83.8473 5.54 84.2393 5.496 84.6313 5.496C85.3113 5.496 85.9153 5.6 86.4433 5.808C86.9713 6.016 87.4153 6.32 87.7753 6.72C88.1353 7.12 88.4073 7.608 88.5913 8.184C88.7833 8.76 88.8793 9.42 88.8793 10.164V18H85.9153V10.164C85.9153 9.38 85.7433 8.792 85.3993 8.4C85.0553 8 84.5513 7.8 83.8873 7.8C83.5833 7.8 83.2993 7.852 83.0353 7.956C82.7793 8.06 82.5513 8.212 82.3513 8.412C82.1593 8.604 82.0073 8.848 81.8953 9.144C81.7833 9.44 81.7273 9.78 81.7273 10.164V18H78.7513V10.164C78.7513 9.34 78.5833 8.74 78.2473 8.364C77.9193 7.988 77.4353 7.8 76.7953 7.8C76.3633 7.8 75.9593 7.908 75.5833 8.124C75.2153 8.332 74.8713 8.62 74.5513 8.988V18H71.5873ZM100.109 10.428C100.109 10.044 100.053 9.684 99.9407 9.348C99.8367 9.004 99.6767 8.704 99.4607 8.448C99.2447 8.192 98.9687 7.992 98.6327 7.848C98.3047 7.696 97.9207 7.62 97.4807 7.62C96.6247 7.62 95.9487 7.864 95.4527 8.352C94.9647 8.84 94.6527 9.532 94.5167 10.428H100.109ZM94.4567 12.216C94.5047 12.848 94.6167 13.396 94.7927 13.86C94.9687 14.316 95.2007 14.696 95.4887 15C95.7767 15.296 96.1167 15.52 96.5087 15.672C96.9087 15.816 97.3487 15.888 97.8287 15.888C98.3087 15.888 98.7207 15.832 99.0647 15.72C99.4167 15.608 99.7207 15.484 99.9767 15.348C100.241 15.212 100.469 15.088 100.661 14.976C100.861 14.864 101.053 14.808 101.237 14.808C101.485 14.808 101.669 14.9 101.789 15.084L102.641 16.164C102.313 16.548 101.945 16.872 101.537 17.136C101.129 17.392 100.701 17.6 100.253 17.76C99.8127 17.912 99.3607 18.02 98.8967 18.084C98.4407 18.148 97.9967 18.18 97.5647 18.18C96.7087 18.18 95.9127 18.04 95.1767 17.76C94.4407 17.472 93.8007 17.052 93.2567 16.5C92.7127 15.94 92.2847 15.252 91.9727 14.436C91.6607 13.612 91.5047 12.66 91.5047 11.58C91.5047 10.74 91.6407 9.952 91.9127 9.216C92.1847 8.472 92.5727 7.828 93.0767 7.284C93.5887 6.732 94.2087 6.296 94.9367 5.976C95.6727 5.656 96.5007 5.496 97.4207 5.496C98.1967 5.496 98.9127 5.62 99.5687 5.868C100.225 6.116 100.789 6.48 101.261 6.96C101.733 7.432 102.101 8.016 102.365 8.712C102.637 9.4 102.773 10.188 102.773 11.076C102.773 11.524 102.725 11.828 102.629 11.988C102.533 12.14 102.349 12.216 102.077 12.216H94.4567ZM118.753 15.48C119.353 15.48 119.857 15.408 120.265 15.264C120.673 15.12 120.997 14.928 121.237 14.688C121.485 14.448 121.661 14.168 121.765 13.848C121.877 13.528 121.933 13.188 121.933 12.828C121.933 12.452 121.873 12.116 121.753 11.82C121.633 11.516 121.445 11.26 121.189 11.052C120.933 10.836 120.601 10.672 120.193 10.56C119.793 10.448 119.309 10.392 118.741 10.392H115.489V15.48H118.753ZM115.489 3.144V8.16H118.057C119.161 8.16 119.993 7.96 120.553 7.56C121.121 7.16 121.405 6.524 121.405 5.652C121.405 4.748 121.149 4.104 120.637 3.72C120.125 3.336 119.325 3.144 118.237 3.144H115.489ZM118.237 0.647999C119.373 0.647999 120.345 0.755999 121.153 0.972C121.961 1.188 122.621 1.496 123.133 1.896C123.653 2.296 124.033 2.78 124.273 3.348C124.513 3.916 124.633 4.556 124.633 5.268C124.633 5.676 124.573 6.068 124.453 6.444C124.333 6.812 124.145 7.16 123.889 7.488C123.641 7.808 123.321 8.1 122.929 8.364C122.545 8.628 122.085 8.852 121.549 9.036C123.933 9.572 125.125 10.86 125.125 12.9C125.125 13.636 124.985 14.316 124.705 14.94C124.425 15.564 124.017 16.104 123.481 16.56C122.945 17.008 122.285 17.36 121.501 17.616C120.717 17.872 119.821 18 118.813 18H112.261V0.647999H118.237ZM134.386 12.744C133.53 12.784 132.81 12.86 132.226 12.972C131.642 13.076 131.174 13.212 130.822 13.38C130.47 13.548 130.218 13.744 130.066 13.968C129.914 14.192 129.838 14.436 129.838 14.7C129.838 15.22 129.99 15.592 130.294 15.816C130.606 16.04 131.01 16.152 131.506 16.152C132.114 16.152 132.638 16.044 133.078 15.828C133.526 15.604 133.962 15.268 134.386 14.82V12.744ZM127.594 7.404C129.01 6.108 130.714 5.46 132.706 5.46C133.426 5.46 134.07 5.58 134.638 5.82C135.206 6.052 135.686 6.38 136.078 6.804C136.47 7.22 136.766 7.72 136.966 8.304C137.174 8.888 137.278 9.528 137.278 10.224V18H135.934C135.654 18 135.438 17.96 135.286 17.88C135.134 17.792 135.014 17.62 134.926 17.364L134.662 16.476C134.35 16.756 134.046 17.004 133.75 17.22C133.454 17.428 133.146 17.604 132.826 17.748C132.506 17.892 132.162 18 131.794 18.072C131.434 18.152 131.034 18.192 130.594 18.192C130.074 18.192 129.594 18.124 129.154 17.988C128.714 17.844 128.334 17.632 128.014 17.352C127.694 17.072 127.446 16.724 127.27 16.308C127.094 15.892 127.006 15.408 127.006 14.856C127.006 14.544 127.058 14.236 127.162 13.932C127.266 13.62 127.434 13.324 127.666 13.044C127.906 12.764 128.214 12.5 128.59 12.252C128.966 12.004 129.426 11.788 129.97 11.604C130.522 11.42 131.162 11.272 131.89 11.16C132.618 11.04 133.45 10.968 134.386 10.944V10.224C134.386 9.4 134.21 8.792 133.858 8.4C133.506 8 132.998 7.8 132.334 7.8C131.854 7.8 131.454 7.856 131.134 7.968C130.822 8.08 130.546 8.208 130.306 8.352C130.066 8.488 129.846 8.612 129.646 8.724C129.454 8.836 129.238 8.892 128.998 8.892C128.79 8.892 128.614 8.84 128.47 8.736C128.326 8.624 128.21 8.496 128.122 8.352L127.594 7.404ZM149.37 8.292C149.282 8.404 149.194 8.492 149.106 8.556C149.026 8.62 148.906 8.652 148.746 8.652C148.594 8.652 148.446 8.608 148.302 8.52C148.158 8.424 147.986 8.32 147.786 8.208C147.586 8.088 147.346 7.984 147.066 7.896C146.794 7.8 146.454 7.752 146.046 7.752C145.526 7.752 145.07 7.848 144.678 8.04C144.286 8.224 143.958 8.492 143.694 8.844C143.438 9.196 143.246 9.624 143.118 10.128C142.99 10.624 142.926 11.188 142.926 11.82C142.926 12.476 142.994 13.06 143.13 13.572C143.274 14.084 143.478 14.516 143.742 14.868C144.006 15.212 144.326 15.476 144.702 15.66C145.078 15.836 145.502 15.924 145.974 15.924C146.446 15.924 146.826 15.868 147.114 15.756C147.41 15.636 147.658 15.508 147.858 15.372C148.058 15.228 148.23 15.1 148.374 14.988C148.526 14.868 148.694 14.808 148.878 14.808C149.118 14.808 149.298 14.9 149.418 15.084L150.27 16.164C149.942 16.548 149.586 16.872 149.202 17.136C148.818 17.392 148.418 17.6 148.002 17.76C147.594 17.912 147.17 18.02 146.73 18.084C146.298 18.148 145.866 18.18 145.434 18.18C144.674 18.18 143.958 18.04 143.286 17.76C142.614 17.472 142.026 17.056 141.522 16.512C141.018 15.968 140.618 15.304 140.322 14.52C140.034 13.728 139.89 12.828 139.89 11.82C139.89 10.916 140.018 10.08 140.274 9.312C140.538 8.536 140.922 7.868 141.426 7.308C141.93 6.74 142.554 6.296 143.298 5.976C144.042 5.656 144.898 5.496 145.866 5.496C146.786 5.496 147.59 5.644 148.278 5.94C148.974 6.236 149.598 6.66 150.15 7.212L149.37 8.292ZM155.572 0.167999V10.38H156.124C156.324 10.38 156.48 10.356 156.592 10.308C156.712 10.252 156.832 10.144 156.952 9.984L160.012 6.204C160.14 6.036 160.28 5.908 160.432 5.82C160.592 5.732 160.796 5.688 161.044 5.688H163.756L159.928 10.26C159.656 10.62 159.36 10.896 159.04 11.088C159.208 11.208 159.356 11.348 159.484 11.508C159.62 11.668 159.748 11.84 159.868 12.024L163.972 18H161.296C161.064 18 160.864 17.964 160.696 17.892C160.528 17.812 160.388 17.672 160.276 17.472L157.132 12.804C157.02 12.62 156.904 12.5 156.784 12.444C156.664 12.388 156.484 12.36 156.244 12.36H155.572V18H152.608V0.167999H155.572Z" fill="#3C3C6F"/>
</svg>
